<?xml version="1.0" encoding="utf-8" standalone="no"?>
<!DOCTYPE svg PUBLIC "-//W3C//DTD SVG 1.1//EN"
  "http://www.w3.org/Graphics/SVG/1.1/DTD/svg11.dtd">
<svg xmlns:xlink="http://www.w3.org/1999/xlink" width="916.657031pt" height="499.624687pt" viewBox="0 0 916.657031 499.624687" xmlns="http://www.w3.org/2000/svg" version="1.1">
 <metadata>
  <rdf:RDF xmlns:dc="http://purl.org/dc/elements/1.1/" xmlns:cc="http://creativecommons.org/ns#" xmlns:rdf="http://www.w3.org/1999/02/22-rdf-syntax-ns#">
   <cc:Work>
    <dc:type rdf:resource="http://purl.org/dc/dcmitype/StillImage"/>
    <dc:date>2026-05-11T11:57:58.852499</dc:date>
    <dc:format>image/svg+xml</dc:format>
    <dc:creator>
     <cc:Agent>
      <dc:title>Matplotlib v3.10.9, https://matplotlib.org/</dc:title>
     </cc:Agent>
    </dc:creator>
   </cc:Work>
  </rdf:RDF>
 </metadata>
 <defs>
  <style type="text/css">*{stroke-linejoin: round; stroke-linecap: butt}</style>
 </defs>
 <g id="figure_1">
  <g id="patch_1">
   <path d="M 0 499.624687 
L 916.657031 499.624687 
L 916.657031 0 
L 0 0 
z
" style="fill: #fffaf0"/>
  </g>
  <g id="axes_1">
   <g id="patch_2">
    <path d="M 65.500313 453.877187 
L 896.390312 453.877187 
L 896.390312 35.197187 
L 65.500313 35.197187 
z
" style="fill: #fffaf0"/>
   </g>
   <g id="FillBetweenPolyCollection_1">
    <defs>
     <path id="m54c90457f8" d="M 65.500313 -255.0875 
L 65.500313 -255.0875 
L 66.655931 -253.266989 
L 67.81155 -251.446659 
L 68.967169 -249.626691 
L 70.122788 -247.807265 
L 71.278407 -245.988563 
L 72.434026 -244.170764 
L 73.589645 -242.354049 
L 74.745264 -240.538598 
L 75.900883 -238.724591 
L 77.056502 -236.912209 
L 78.212121 -235.10163 
L 79.367739 -233.293034 
L 80.523358 -231.486599 
L 81.678977 -229.682504 
L 82.834596 -227.880928 
L 83.990215 -226.082047 
L 85.145834 -224.28604 
L 86.301453 -222.493082 
L 87.457072 -220.703351 
L 88.612691 -218.917022 
L 89.76831 -217.134269 
L 90.923929 -215.355269 
L 92.079548 -213.580194 
L 93.235166 -211.809217 
L 94.390785 -210.042513 
L 95.546404 -208.280252 
L 96.702023 -206.522606 
L 97.857642 -204.769745 
L 99.013261 -203.021838 
L 100.16888 -201.279056 
L 101.324499 -199.541565 
L 102.480118 -197.809533 
L 103.635737 -196.083127 
L 104.791356 -194.362511 
L 105.946975 -192.64785 
L 107.102593 -190.939308 
L 108.258212 -189.237047 
L 109.413831 -187.541228 
L 110.56945 -185.852012 
L 111.725069 -184.169559 
L 112.880688 -182.494026 
L 114.036307 -180.825571 
L 115.191926 -179.16435 
L 116.347545 -177.510518 
L 117.503164 -175.864229 
L 118.658783 -174.225635 
L 119.814402 -172.594888 
L 120.97002 -170.972137 
L 122.125639 -169.357532 
L 123.281258 -167.751221 
L 124.436877 -166.153349 
L 125.592496 -164.564062 
L 126.748115 -162.983504 
L 127.903734 -161.411816 
L 129.059353 -159.84914 
L 130.214972 -158.295615 
L 131.370591 -156.75138 
L 132.52621 -155.216572 
L 133.681828 -153.691325 
L 134.837447 -152.175774 
L 135.993066 -150.670052 
L 137.148685 -149.174288 
L 138.304304 -147.688613 
L 139.459923 -146.213156 
L 140.615542 -144.748041 
L 141.771161 -143.293395 
L 142.92678 -141.84934 
L 144.082399 -140.415999 
L 145.238018 -138.993492 
L 146.393637 -137.581937 
L 147.549255 -136.181452 
L 148.704874 -134.792153 
L 149.860493 -133.414153 
L 151.016112 -132.047564 
L 152.171731 -130.692498 
L 153.32735 -129.349063 
L 154.482969 -128.017367 
L 155.638588 -126.697516 
L 156.794207 -125.389613 
L 157.949826 -124.093761 
L 159.105445 -122.810062 
L 160.261064 -121.538613 
L 161.416682 -120.279513 
L 162.572301 -119.032858 
L 163.72792 -117.79874 
L 164.883539 -116.577253 
L 166.039158 -115.368488 
L 167.194777 -114.172533 
L 168.350396 -112.989475 
L 169.506015 -111.8194 
L 170.661634 -110.662393 
L 171.817253 -109.518534 
L 172.972872 -108.387904 
L 174.128491 -107.270583 
L 175.284109 -106.166646 
L 176.439728 -105.07617 
L 177.595347 -103.999227 
L 178.750966 -102.93589 
L 179.906585 -101.886228 
L 181.062204 -100.850311 
L 182.217823 -99.828204 
L 183.373442 -98.819973 
L 184.529061 -97.82568 
L 185.68468 -96.845388 
L 186.840299 -95.879156 
L 187.995918 -94.927042 
L 189.151536 -93.989103 
L 190.307155 -93.065393 
L 191.462774 -92.155966 
L 192.618393 -91.260872 
L 193.774012 -90.380162 
L 194.929631 -89.513883 
L 196.08525 -88.662082 
L 197.240869 -87.824803 
L 198.396488 -87.002089 
L 199.552107 -86.193983 
L 200.707726 -85.400522 
L 201.863344 -84.621746 
L 203.018963 -83.857691 
L 204.174582 -83.108391 
L 205.330201 -82.373881 
L 206.48582 -81.65419 
L 207.641439 -80.94935 
L 208.797058 -80.259388 
L 209.952677 -79.584332 
L 211.108296 -78.924207 
L 212.263915 -78.279035 
L 213.419534 -77.64884 
L 214.575153 -77.033642 
L 215.730771 -76.43346 
L 216.88639 -75.848311 
L 218.042009 -75.278211 
L 219.197628 -74.723174 
L 220.353247 -74.183214 
L 221.508866 -73.658342 
L 222.664485 -73.148568 
L 223.820104 -72.6539 
L 224.975723 -72.174345 
L 226.131342 -71.70991 
L 227.286961 -71.260597 
L 228.44258 -70.82641 
L 229.598198 -70.40735 
L 230.753817 -70.003417 
L 231.909436 -69.61461 
L 233.065055 -69.240925 
L 234.220674 -68.882358 
L 235.376293 -68.538904 
L 236.531912 -68.210555 
L 237.687531 -67.897304 
L 238.84315 -67.599141 
L 239.998769 -67.316055 
L 241.154388 -67.048033 
L 242.310007 -66.795063 
L 243.465625 -66.557129 
L 244.621244 -66.334216 
L 245.776863 -66.126306 
L 246.932482 -65.933381 
L 248.088101 -65.755421 
L 249.24372 -65.592406 
L 250.399339 -65.444312 
L 251.554958 -65.311118 
L 252.710577 -65.192797 
L 253.866196 -65.089326 
L 255.021815 -65.000677 
L 256.177434 -64.926822 
L 257.333052 -64.867732 
L 258.488671 -64.823378 
L 259.64429 -64.793727 
L 260.799909 -64.778749 
L 261.955528 -64.778409 
L 263.111147 -64.792673 
L 264.266766 -64.821506 
L 265.422385 -64.864872 
L 266.578004 -64.922733 
L 267.733623 -64.99505 
L 268.889242 -65.081784 
L 270.04486 -65.182895 
L 271.200479 -65.298342 
L 272.356098 -65.428082 
L 273.511717 -65.572072 
L 274.667336 -65.730267 
L 275.822955 -65.902624 
L 276.978574 -66.089096 
L 278.134193 -66.289636 
L 279.289812 -66.504196 
L 280.445431 -66.732728 
L 281.60105 -66.975183 
L 282.756669 -67.231509 
L 283.912287 -67.501658 
L 285.067906 -67.785575 
L 286.223525 -68.08321 
L 287.379144 -68.394507 
L 288.534763 -68.719414 
L 289.690382 -69.057876 
L 290.846001 -69.409835 
L 292.00162 -69.775237 
L 293.157239 -70.154024 
L 294.312858 -70.546137 
L 295.468477 -70.951519 
L 296.624096 -71.370111 
L 297.779714 -71.801851 
L 298.935333 -72.246681 
L 300.090952 -72.704537 
L 301.246571 -73.175359 
L 302.40219 -73.659084 
L 303.557809 -74.155649 
L 304.713428 -74.66499 
L 305.869047 -75.187042 
L 307.024666 -75.721741 
L 308.180285 -76.269021 
L 309.335904 -76.828816 
L 310.491523 -77.401059 
L 311.647141 -77.985683 
L 312.80276 -78.582621 
L 313.958379 -79.191803 
L 315.113998 -79.813162 
L 316.269617 -80.446628 
L 317.425236 -81.092131 
L 318.580855 -81.7496 
L 319.736474 -82.418966 
L 320.892093 -83.100156 
L 322.047712 -83.793099 
L 323.203331 -84.497723 
L 324.358949 -85.213956 
L 325.514568 -85.941723 
L 326.670187 -86.680953 
L 327.825806 -87.43157 
L 328.981425 -88.193501 
L 330.137044 -88.966671 
L 331.292663 -89.751004 
L 332.448282 -90.546426 
L 333.603901 -91.35286 
L 334.75952 -92.170231 
L 335.915139 -92.998462 
L 337.070758 -93.837475 
L 338.226376 -94.687194 
L 339.381995 -95.547542 
L 340.537614 -96.418439 
L 341.693233 -97.299809 
L 342.848852 -98.191571 
L 344.004471 -99.093649 
L 345.16009 -100.005962 
L 346.315709 -100.928431 
L 347.471328 -101.860976 
L 348.626947 -102.803517 
L 349.782566 -103.755975 
L 350.938185 -104.718269 
L 352.093803 -105.690317 
L 353.249422 -106.672039 
L 354.405041 -107.663353 
L 355.56066 -108.664179 
L 356.716279 -109.674434 
L 357.871898 -110.694037 
L 359.027517 -111.722904 
L 360.183136 -112.760955 
L 361.338755 -113.808106 
L 362.494374 -114.864274 
L 363.649993 -115.929376 
L 364.805612 -117.00333 
L 365.96123 -118.086052 
L 367.116849 -119.177459 
L 368.272468 -120.277465 
L 369.428087 -121.385989 
L 370.583706 -122.502945 
L 371.739325 -123.62825 
L 372.894944 -124.761819 
L 374.050563 -125.903568 
L 375.206182 -127.053411 
L 376.361801 -128.211265 
L 377.51742 -129.377043 
L 378.673039 -130.550662 
L 379.828657 -131.732035 
L 380.984276 -132.921078 
L 382.139895 -134.117705 
L 383.295514 -135.32183 
L 384.451133 -136.533369 
L 385.606752 -137.752234 
L 386.762371 -138.97834 
L 387.91799 -140.211601 
L 389.073609 -141.45193 
L 390.229228 -142.699243 
L 391.384847 -143.953452 
L 392.540465 -145.214471 
L 393.696084 -146.482213 
L 394.851703 -147.756592 
L 396.007322 -149.037522 
L 397.162941 -150.324915 
L 398.31856 -151.618684 
L 399.474179 -152.918744 
L 400.629798 -154.225006 
L 401.785417 -155.537385 
L 402.941036 -156.855792 
L 404.096655 -158.180141 
L 405.252274 -159.510345 
L 406.407892 -160.846316 
L 407.563511 -162.187967 
L 408.71913 -163.53521 
L 409.874749 -164.887959 
L 411.030368 -166.246125 
L 412.185987 -167.609622 
L 413.341606 -168.978362 
L 414.497225 -170.352256 
L 415.652844 -171.731219 
L 416.808463 -173.115161 
L 417.964082 -174.503995 
L 419.119701 -175.897634 
L 420.275319 -177.295989 
L 421.430938 -178.698974 
L 422.586557 -180.106499 
L 423.742176 -181.518478 
L 424.897795 -182.934822 
L 426.053414 -184.355443 
L 427.209033 -185.780254 
L 428.364652 -187.209167 
L 429.520271 -188.642093 
L 430.67589 -190.078945 
L 431.831509 -191.519634 
L 432.987128 -192.964073 
L 434.142746 -194.412173 
L 435.298365 -195.863846 
L 436.453984 -197.319005 
L 437.609603 -198.777561 
L 438.765222 -200.239426 
L 439.920841 -201.704512 
L 441.07646 -203.172731 
L 442.232079 -204.643995 
L 443.387698 -206.118215 
L 444.543317 -207.595303 
L 445.698936 -209.075172 
L 446.854555 -210.557733 
L 448.010173 -212.042897 
L 449.165792 -213.530577 
L 450.321411 -215.020684 
L 451.47703 -216.51313 
L 452.632649 -218.007827 
L 453.788268 -219.504687 
L 454.943887 -221.003621 
L 456.099506 -222.504541 
L 457.255125 -224.00736 
L 458.410744 -225.511987 
L 459.566363 -227.018337 
L 460.721981 -228.526319 
L 461.8776 -230.035847 
L 463.033219 -231.546831 
L 464.188838 -233.059183 
L 465.344457 -234.572815 
L 466.500076 -236.08764 
L 467.655695 -237.603567 
L 468.811314 -239.12051 
L 469.966933 -240.63838 
L 471.122552 -242.157089 
L 472.278171 -243.676548 
L 473.43379 -245.196669 
L 474.589408 -246.717365 
L 475.745027 -248.238545 
L 476.900646 -249.760123 
L 478.056265 -251.28201 
L 479.211884 -252.804118 
L 480.367503 -254.326358 
L 481.523122 -255.848642 
L 482.678741 -257.370882 
L 483.83436 -258.89299 
L 484.989979 -260.414877 
L 486.145598 -261.936455 
L 487.301217 -263.457635 
L 488.456835 -264.978331 
L 489.612454 -266.498452 
L 490.768073 -268.017911 
L 491.923692 -269.53662 
L 493.079311 -271.05449 
L 494.23493 -272.571433 
L 495.390549 -274.08736 
L 496.546168 -275.602185 
L 497.701787 -277.115817 
L 498.857406 -278.628169 
L 500.013025 -280.139153 
L 501.168644 -281.648681 
L 502.324262 -283.156663 
L 503.479881 -284.663013 
L 504.6355 -286.16764 
L 505.791119 -287.670459 
L 506.946738 -289.171379 
L 508.102357 -290.670313 
L 509.257976 -292.167173 
L 510.413595 -293.66187 
L 511.569214 -295.154316 
L 512.724833 -296.644423 
L 513.880452 -298.132103 
L 515.03607 -299.617267 
L 516.191689 -301.099828 
L 517.347308 -302.579697 
L 518.502927 -304.056785 
L 519.658546 -305.531005 
L 520.814165 -307.002269 
L 521.969784 -308.470488 
L 523.125403 -309.935574 
L 524.281022 -311.397439 
L 525.436641 -312.855995 
L 526.59226 -314.311154 
L 527.747879 -315.762827 
L 528.903497 -317.210927 
L 530.059116 -318.655366 
L 531.214735 -320.096055 
L 532.370354 -321.532907 
L 533.525973 -322.965833 
L 534.681592 -324.394746 
L 535.837211 -325.819557 
L 536.99283 -327.240178 
L 538.148449 -328.656522 
L 539.304068 -330.068501 
L 540.459687 -331.476026 
L 541.615306 -332.879011 
L 542.770924 -334.277366 
L 543.926543 -335.671005 
L 545.082162 -337.059839 
L 546.237781 -338.443781 
L 547.3934 -339.822744 
L 548.549019 -341.196638 
L 549.704638 -342.565378 
L 550.860257 -343.928875 
L 552.015876 -345.287041 
L 553.171495 -346.63979 
L 554.327114 -347.987033 
L 555.482733 -349.328684 
L 556.638351 -350.664655 
L 557.79397 -351.994859 
L 558.949589 -353.319208 
L 560.105208 -354.637615 
L 561.260827 -355.949994 
L 562.416446 -357.256256 
L 563.572065 -358.556316 
L 564.727684 -359.850085 
L 565.883303 -361.137478 
L 567.038922 -362.418408 
L 568.194541 -363.692787 
L 569.35016 -364.960529 
L 570.505778 -366.221548 
L 571.661397 -367.475757 
L 572.817016 -368.72307 
L 573.972635 -369.963399 
L 575.128254 -371.19666 
L 576.283873 -372.422766 
L 577.439492 -373.641631 
L 578.595111 -374.85317 
L 579.75073 -376.057295 
L 580.906349 -377.253922 
L 582.061968 -378.442965 
L 583.217586 -379.624338 
L 584.373205 -380.797957 
L 585.528824 -381.963735 
L 586.684443 -383.121589 
L 587.840062 -384.271432 
L 588.995681 -385.413181 
L 590.1513 -386.54675 
L 591.306919 -387.672055 
L 592.462538 -388.789011 
L 593.618157 -389.897535 
L 594.773776 -390.997541 
L 595.929395 -392.088948 
L 597.085013 -393.17167 
L 598.240632 -394.245624 
L 599.396251 -395.310726 
L 600.55187 -396.366894 
L 601.707489 -397.414045 
L 602.863108 -398.452096 
L 604.018727 -399.480963 
L 605.174346 -400.500566 
L 606.329965 -401.510821 
L 607.485584 -402.511647 
L 608.641203 -403.502961 
L 609.796822 -404.484683 
L 610.95244 -405.456731 
L 612.108059 -406.419025 
L 613.263678 -407.371483 
L 614.419297 -408.314024 
L 615.574916 -409.246569 
L 616.730535 -410.169038 
L 617.886154 -411.081351 
L 619.041773 -411.983429 
L 620.197392 -412.875191 
L 621.353011 -413.756561 
L 622.50863 -414.627458 
L 623.664249 -415.487806 
L 624.819867 -416.337525 
L 625.975486 -417.176538 
L 627.131105 -418.004769 
L 628.286724 -418.82214 
L 629.442343 -419.628574 
L 630.597962 -420.423996 
L 631.753581 -421.208329 
L 632.9092 -421.981499 
L 634.064819 -422.74343 
L 635.220438 -423.494047 
L 636.376057 -424.233277 
L 637.531676 -424.961044 
L 638.687294 -425.677277 
L 639.842913 -426.381901 
L 640.998532 -427.074844 
L 642.154151 -427.756034 
L 643.30977 -428.4254 
L 644.465389 -429.082869 
L 645.621008 -429.728372 
L 646.776627 -430.361838 
L 647.932246 -430.983197 
L 649.087865 -431.592379 
L 650.243484 -432.189317 
L 651.399102 -432.773941 
L 652.554721 -433.346184 
L 653.71034 -433.905979 
L 654.865959 -434.453259 
L 656.021578 -434.987958 
L 657.177197 -435.51001 
L 658.332816 -436.019351 
L 659.488435 -436.515916 
L 660.644054 -436.999641 
L 661.799673 -437.470463 
L 662.955292 -437.928319 
L 664.110911 -438.373149 
L 665.266529 -438.804889 
L 666.422148 -439.223481 
L 667.577767 -439.628863 
L 668.733386 -440.020976 
L 669.889005 -440.399763 
L 671.044624 -440.765165 
L 672.200243 -441.117124 
L 673.355862 -441.455586 
L 674.511481 -441.780493 
L 675.6671 -442.09179 
L 676.822719 -442.389425 
L 677.978338 -442.673342 
L 679.133956 -442.943491 
L 680.289575 -443.199817 
L 681.445194 -443.442272 
L 682.600813 -443.670804 
L 683.756432 -443.885364 
L 684.912051 -444.085904 
L 686.06767 -444.272376 
L 687.223289 -444.444733 
L 688.378908 -444.602928 
L 689.534527 -444.746918 
L 690.690146 -444.876658 
L 691.845765 -444.992105 
L 693.001383 -445.093216 
L 694.157002 -445.17995 
L 695.312621 -445.252267 
L 696.46824 -445.310128 
L 697.623859 -445.353494 
L 698.779478 -445.382327 
L 699.935097 -445.396591 
L 701.090716 -445.396251 
L 702.246335 -445.381273 
L 703.401954 -445.351622 
L 704.557573 -445.307268 
L 705.713191 -445.248178 
L 706.86881 -445.174323 
L 708.024429 -445.085674 
L 709.180048 -444.982203 
L 710.335667 -444.863882 
L 711.491286 -444.730688 
L 712.646905 -444.582594 
L 713.802524 -444.419579 
L 714.958143 -444.241619 
L 716.113762 -444.048694 
L 717.269381 -443.840784 
L 718.425 -443.617871 
L 719.580618 -443.379937 
L 720.736237 -443.126967 
L 721.891856 -442.858945 
L 723.047475 -442.575859 
L 724.203094 -442.277696 
L 725.358713 -441.964445 
L 726.514332 -441.636096 
L 727.669951 -441.292642 
L 728.82557 -440.934075 
L 729.981189 -440.56039 
L 731.136808 -440.171583 
L 732.292427 -439.76765 
L 733.448045 -439.34859 
L 734.603664 -438.914403 
L 735.759283 -438.46509 
L 736.914902 -438.000655 
L 738.070521 -437.5211 
L 739.22614 -437.026432 
L 740.381759 -436.516658 
L 741.537378 -435.991786 
L 742.692997 -435.451826 
L 743.848616 -434.896789 
L 745.004235 -434.326689 
L 746.159854 -433.74154 
L 747.315472 -433.141358 
L 748.471091 -432.52616 
L 749.62671 -431.895965 
L 750.782329 -431.250793 
L 751.937948 -430.590668 
L 753.093567 -429.915612 
L 754.249186 -429.22565 
L 755.404805 -428.52081 
L 756.560424 -427.801119 
L 757.716043 -427.066609 
L 758.871662 -426.317309 
L 760.027281 -425.553254 
L 761.182899 -424.774478 
L 762.338518 -423.981017 
L 763.494137 -423.172911 
L 764.649756 -422.350197 
L 765.805375 -421.512918 
L 766.960994 -420.661117 
L 768.116613 -419.794838 
L 769.272232 -418.914128 
L 770.427851 -418.019034 
L 771.58347 -417.109607 
L 772.739089 -416.185897 
L 773.894707 -415.247958 
L 775.050326 -414.295844 
L 776.205945 -413.329612 
L 777.361564 -412.34932 
L 778.517183 -411.355027 
L 779.672802 -410.346796 
L 780.828421 -409.324689 
L 781.98404 -408.288772 
L 783.139659 -407.23911 
L 784.295278 -406.175773 
L 785.450897 -405.09883 
L 786.606516 -404.008354 
L 787.762134 -402.904417 
L 788.917753 -401.787096 
L 790.073372 -400.656466 
L 791.228991 -399.512607 
L 792.38461 -398.3556 
L 793.540229 -397.185525 
L 794.695848 -396.002467 
L 795.851467 -394.806512 
L 797.007086 -393.597747 
L 798.162705 -392.37626 
L 799.318324 -391.142142 
L 800.473943 -389.895487 
L 801.629561 -388.636387 
L 802.78518 -387.364938 
L 803.940799 -386.081239 
L 805.096418 -384.785387 
L 806.252037 -383.477484 
L 807.407656 -382.157633 
L 808.563275 -380.825937 
L 809.718894 -379.482502 
L 810.874513 -378.127436 
L 812.030132 -376.760847 
L 813.185751 -375.382847 
L 814.34137 -373.993548 
L 815.496988 -372.593063 
L 816.652607 -371.181508 
L 817.808226 -369.759001 
L 818.963845 -368.32566 
L 820.119464 -366.881605 
L 821.275083 -365.426959 
L 822.430702 -363.961844 
L 823.586321 -362.486387 
L 824.74194 -361.000712 
L 825.897559 -359.504948 
L 827.053178 -357.999226 
L 828.208797 -356.483675 
L 829.364415 -354.958428 
L 830.520034 -353.42362 
L 831.675653 -351.879385 
L 832.831272 -350.32586 
L 833.986891 -348.763184 
L 835.14251 -347.191496 
L 836.298129 -345.610938 
L 837.453748 -344.021651 
L 838.609367 -342.423779 
L 839.764986 -340.817468 
L 840.920605 -339.202863 
L 842.076223 -337.580112 
L 843.231842 -335.949365 
L 844.387461 -334.310771 
L 845.54308 -332.664482 
L 846.698699 -331.01065 
L 847.854318 -329.349429 
L 849.009937 -327.680974 
L 850.165556 -326.005441 
L 851.321175 -324.322988 
L 852.476794 -322.633772 
L 853.632413 -320.937953 
L 854.788032 -319.235692 
L 855.94365 -317.52715 
L 857.099269 -315.812489 
L 858.254888 -314.091873 
L 859.410507 -312.365467 
L 860.566126 -310.633435 
L 861.721745 -308.895944 
L 862.877364 -307.153162 
L 864.032983 -305.405255 
L 865.188602 -303.652394 
L 866.344221 -301.894748 
L 867.49984 -300.132487 
L 868.655459 -298.365783 
L 869.811077 -296.594806 
L 870.966696 -294.819731 
L 872.122315 -293.040731 
L 873.277934 -291.257978 
L 874.433553 -289.471649 
L 875.589172 -287.681918 
L 876.744791 -285.88896 
L 877.90041 -284.092953 
L 879.056029 -282.294072 
L 880.211648 -280.492496 
L 881.367267 -278.688401 
L 882.522886 -276.881966 
L 883.678504 -275.07337 
L 884.834123 -273.262791 
L 885.989742 -271.450409 
L 887.145361 -269.636402 
L 888.30098 -267.820951 
L 889.456599 -266.004236 
L 890.612218 -264.186437 
L 891.767837 -262.367735 
L 892.923456 -260.548309 
L 894.079075 -258.728341 
L 895.234694 -256.908011 
L 896.390312 -255.0875 
L 896.390312 -255.0875 
L 896.390312 -255.0875 
L 895.234694 -255.0875 
L 894.079075 -255.0875 
L 892.923456 -255.0875 
L 891.767837 -255.0875 
L 890.612218 -255.0875 
L 889.456599 -255.0875 
L 888.30098 -255.0875 
L 887.145361 -255.0875 
L 885.989742 -255.0875 
L 884.834123 -255.0875 
L 883.678504 -255.0875 
L 882.522886 -255.0875 
L 881.367267 -255.0875 
L 880.211648 -255.0875 
L 879.056029 -255.0875 
L 877.90041 -255.0875 
L 876.744791 -255.0875 
L 875.589172 -255.0875 
L 874.433553 -255.0875 
L 873.277934 -255.0875 
L 872.122315 -255.0875 
L 870.966696 -255.0875 
L 869.811077 -255.0875 
L 868.655459 -255.0875 
L 867.49984 -255.0875 
L 866.344221 -255.0875 
L 865.188602 -255.0875 
L 864.032983 -255.0875 
L 862.877364 -255.0875 
L 861.721745 -255.0875 
L 860.566126 -255.0875 
L 859.410507 -255.0875 
L 858.254888 -255.0875 
L 857.099269 -255.0875 
L 855.94365 -255.0875 
L 854.788032 -255.0875 
L 853.632413 -255.0875 
L 852.476794 -255.0875 
L 851.321175 -255.0875 
L 850.165556 -255.0875 
L 849.009937 -255.0875 
L 847.854318 -255.0875 
L 846.698699 -255.0875 
L 845.54308 -255.0875 
L 844.387461 -255.0875 
L 843.231842 -255.0875 
L 842.076223 -255.0875 
L 840.920605 -255.0875 
L 839.764986 -255.0875 
L 838.609367 -255.0875 
L 837.453748 -255.0875 
L 836.298129 -255.0875 
L 835.14251 -255.0875 
L 833.986891 -255.0875 
L 832.831272 -255.0875 
L 831.675653 -255.0875 
L 830.520034 -255.0875 
L 829.364415 -255.0875 
L 828.208797 -255.0875 
L 827.053178 -255.0875 
L 825.897559 -255.0875 
L 824.74194 -255.0875 
L 823.586321 -255.0875 
L 822.430702 -255.0875 
L 821.275083 -255.0875 
L 820.119464 -255.0875 
L 818.963845 -255.0875 
L 817.808226 -255.0875 
L 816.652607 -255.0875 
L 815.496988 -255.0875 
L 814.34137 -255.0875 
L 813.185751 -255.0875 
L 812.030132 -255.0875 
L 810.874513 -255.0875 
L 809.718894 -255.0875 
L 808.563275 -255.0875 
L 807.407656 -255.0875 
L 806.252037 -255.0875 
L 805.096418 -255.0875 
L 803.940799 -255.0875 
L 802.78518 -255.0875 
L 801.629561 -255.0875 
L 800.473943 -255.0875 
L 799.318324 -255.0875 
L 798.162705 -255.0875 
L 797.007086 -255.0875 
L 795.851467 -255.0875 
L 794.695848 -255.0875 
L 793.540229 -255.0875 
L 792.38461 -255.0875 
L 791.228991 -255.0875 
L 790.073372 -255.0875 
L 788.917753 -255.0875 
L 787.762134 -255.0875 
L 786.606516 -255.0875 
L 785.450897 -255.0875 
L 784.295278 -255.0875 
L 783.139659 -255.0875 
L 781.98404 -255.0875 
L 780.828421 -255.0875 
L 779.672802 -255.0875 
L 778.517183 -255.0875 
L 777.361564 -255.0875 
L 776.205945 -255.0875 
L 775.050326 -255.0875 
L 773.894707 -255.0875 
L 772.739089 -255.0875 
L 771.58347 -255.0875 
L 770.427851 -255.0875 
L 769.272232 -255.0875 
L 768.116613 -255.0875 
L 766.960994 -255.0875 
L 765.805375 -255.0875 
L 764.649756 -255.0875 
L 763.494137 -255.0875 
L 762.338518 -255.0875 
L 761.182899 -255.0875 
L 760.027281 -255.0875 
L 758.871662 -255.0875 
L 757.716043 -255.0875 
L 756.560424 -255.0875 
L 755.404805 -255.0875 
L 754.249186 -255.0875 
L 753.093567 -255.0875 
L 751.937948 -255.0875 
L 750.782329 -255.0875 
L 749.62671 -255.0875 
L 748.471091 -255.0875 
L 747.315472 -255.0875 
L 746.159854 -255.0875 
L 745.004235 -255.0875 
L 743.848616 -255.0875 
L 742.692997 -255.0875 
L 741.537378 -255.0875 
L 740.381759 -255.0875 
L 739.22614 -255.0875 
L 738.070521 -255.0875 
L 736.914902 -255.0875 
L 735.759283 -255.0875 
L 734.603664 -255.0875 
L 733.448045 -255.0875 
L 732.292427 -255.0875 
L 731.136808 -255.0875 
L 729.981189 -255.0875 
L 728.82557 -255.0875 
L 727.669951 -255.0875 
L 726.514332 -255.0875 
L 725.358713 -255.0875 
L 724.203094 -255.0875 
L 723.047475 -255.0875 
L 721.891856 -255.0875 
L 720.736237 -255.0875 
L 719.580618 -255.0875 
L 718.425 -255.0875 
L 717.269381 -255.0875 
L 716.113762 -255.0875 
L 714.958143 -255.0875 
L 713.802524 -255.0875 
L 712.646905 -255.0875 
L 711.491286 -255.0875 
L 710.335667 -255.0875 
L 709.180048 -255.0875 
L 708.024429 -255.0875 
L 706.86881 -255.0875 
L 705.713191 -255.0875 
L 704.557573 -255.0875 
L 703.401954 -255.0875 
L 702.246335 -255.0875 
L 701.090716 -255.0875 
L 699.935097 -255.0875 
L 698.779478 -255.0875 
L 697.623859 -255.0875 
L 696.46824 -255.0875 
L 695.312621 -255.0875 
L 694.157002 -255.0875 
L 693.001383 -255.0875 
L 691.845765 -255.0875 
L 690.690146 -255.0875 
L 689.534527 -255.0875 
L 688.378908 -255.0875 
L 687.223289 -255.0875 
L 686.06767 -255.0875 
L 684.912051 -255.0875 
L 683.756432 -255.0875 
L 682.600813 -255.0875 
L 681.445194 -255.0875 
L 680.289575 -255.0875 
L 679.133956 -255.0875 
L 677.978338 -255.0875 
L 676.822719 -255.0875 
L 675.6671 -255.0875 
L 674.511481 -255.0875 
L 673.355862 -255.0875 
L 672.200243 -255.0875 
L 671.044624 -255.0875 
L 669.889005 -255.0875 
L 668.733386 -255.0875 
L 667.577767 -255.0875 
L 666.422148 -255.0875 
L 665.266529 -255.0875 
L 664.110911 -255.0875 
L 662.955292 -255.0875 
L 661.799673 -255.0875 
L 660.644054 -255.0875 
L 659.488435 -255.0875 
L 658.332816 -255.0875 
L 657.177197 -255.0875 
L 656.021578 -255.0875 
L 654.865959 -255.0875 
L 653.71034 -255.0875 
L 652.554721 -255.0875 
L 651.399102 -255.0875 
L 650.243484 -255.0875 
L 649.087865 -255.0875 
L 647.932246 -255.0875 
L 646.776627 -255.0875 
L 645.621008 -255.0875 
L 644.465389 -255.0875 
L 643.30977 -255.0875 
L 642.154151 -255.0875 
L 640.998532 -255.0875 
L 639.842913 -255.0875 
L 638.687294 -255.0875 
L 637.531676 -255.0875 
L 636.376057 -255.0875 
L 635.220438 -255.0875 
L 634.064819 -255.0875 
L 632.9092 -255.0875 
L 631.753581 -255.0875 
L 630.597962 -255.0875 
L 629.442343 -255.0875 
L 628.286724 -255.0875 
L 627.131105 -255.0875 
L 625.975486 -255.0875 
L 624.819867 -255.0875 
L 623.664249 -255.0875 
L 622.50863 -255.0875 
L 621.353011 -255.0875 
L 620.197392 -255.0875 
L 619.041773 -255.0875 
L 617.886154 -255.0875 
L 616.730535 -255.0875 
L 615.574916 -255.0875 
L 614.419297 -255.0875 
L 613.263678 -255.0875 
L 612.108059 -255.0875 
L 610.95244 -255.0875 
L 609.796822 -255.0875 
L 608.641203 -255.0875 
L 607.485584 -255.0875 
L 606.329965 -255.0875 
L 605.174346 -255.0875 
L 604.018727 -255.0875 
L 602.863108 -255.0875 
L 601.707489 -255.0875 
L 600.55187 -255.0875 
L 599.396251 -255.0875 
L 598.240632 -255.0875 
L 597.085013 -255.0875 
L 595.929395 -255.0875 
L 594.773776 -255.0875 
L 593.618157 -255.0875 
L 592.462538 -255.0875 
L 591.306919 -255.0875 
L 590.1513 -255.0875 
L 588.995681 -255.0875 
L 587.840062 -255.0875 
L 586.684443 -255.0875 
L 585.528824 -255.0875 
L 584.373205 -255.0875 
L 583.217586 -255.0875 
L 582.061968 -255.0875 
L 580.906349 -255.0875 
L 579.75073 -255.0875 
L 578.595111 -255.0875 
L 577.439492 -255.0875 
L 576.283873 -255.0875 
L 575.128254 -255.0875 
L 573.972635 -255.0875 
L 572.817016 -255.0875 
L 571.661397 -255.0875 
L 570.505778 -255.0875 
L 569.35016 -255.0875 
L 568.194541 -255.0875 
L 567.038922 -255.0875 
L 565.883303 -255.0875 
L 564.727684 -255.0875 
L 563.572065 -255.0875 
L 562.416446 -255.0875 
L 561.260827 -255.0875 
L 560.105208 -255.0875 
L 558.949589 -255.0875 
L 557.79397 -255.0875 
L 556.638351 -255.0875 
L 555.482733 -255.0875 
L 554.327114 -255.0875 
L 553.171495 -255.0875 
L 552.015876 -255.0875 
L 550.860257 -255.0875 
L 549.704638 -255.0875 
L 548.549019 -255.0875 
L 547.3934 -255.0875 
L 546.237781 -255.0875 
L 545.082162 -255.0875 
L 543.926543 -255.0875 
L 542.770924 -255.0875 
L 541.615306 -255.0875 
L 540.459687 -255.0875 
L 539.304068 -255.0875 
L 538.148449 -255.0875 
L 536.99283 -255.0875 
L 535.837211 -255.0875 
L 534.681592 -255.0875 
L 533.525973 -255.0875 
L 532.370354 -255.0875 
L 531.214735 -255.0875 
L 530.059116 -255.0875 
L 528.903497 -255.0875 
L 527.747879 -255.0875 
L 526.59226 -255.0875 
L 525.436641 -255.0875 
L 524.281022 -255.0875 
L 523.125403 -255.0875 
L 521.969784 -255.0875 
L 520.814165 -255.0875 
L 519.658546 -255.0875 
L 518.502927 -255.0875 
L 517.347308 -255.0875 
L 516.191689 -255.0875 
L 515.03607 -255.0875 
L 513.880452 -255.0875 
L 512.724833 -255.0875 
L 511.569214 -255.0875 
L 510.413595 -255.0875 
L 509.257976 -255.0875 
L 508.102357 -255.0875 
L 506.946738 -255.0875 
L 505.791119 -255.0875 
L 504.6355 -255.0875 
L 503.479881 -255.0875 
L 502.324262 -255.0875 
L 501.168644 -255.0875 
L 500.013025 -255.0875 
L 498.857406 -255.0875 
L 497.701787 -255.0875 
L 496.546168 -255.0875 
L 495.390549 -255.0875 
L 494.23493 -255.0875 
L 493.079311 -255.0875 
L 491.923692 -255.0875 
L 490.768073 -255.0875 
L 489.612454 -255.0875 
L 488.456835 -255.0875 
L 487.301217 -255.0875 
L 486.145598 -255.0875 
L 484.989979 -255.0875 
L 483.83436 -255.0875 
L 482.678741 -255.0875 
L 481.523122 -255.0875 
L 480.367503 -255.0875 
L 479.211884 -255.0875 
L 478.056265 -255.0875 
L 476.900646 -255.0875 
L 475.745027 -255.0875 
L 474.589408 -255.0875 
L 473.43379 -255.0875 
L 472.278171 -255.0875 
L 471.122552 -255.0875 
L 469.966933 -255.0875 
L 468.811314 -255.0875 
L 467.655695 -255.0875 
L 466.500076 -255.0875 
L 465.344457 -255.0875 
L 464.188838 -255.0875 
L 463.033219 -255.0875 
L 461.8776 -255.0875 
L 460.721981 -255.0875 
L 459.566363 -255.0875 
L 458.410744 -255.0875 
L 457.255125 -255.0875 
L 456.099506 -255.0875 
L 454.943887 -255.0875 
L 453.788268 -255.0875 
L 452.632649 -255.0875 
L 451.47703 -255.0875 
L 450.321411 -255.0875 
L 449.165792 -255.0875 
L 448.010173 -255.0875 
L 446.854555 -255.0875 
L 445.698936 -255.0875 
L 444.543317 -255.0875 
L 443.387698 -255.0875 
L 442.232079 -255.0875 
L 441.07646 -255.0875 
L 439.920841 -255.0875 
L 438.765222 -255.0875 
L 437.609603 -255.0875 
L 436.453984 -255.0875 
L 435.298365 -255.0875 
L 434.142746 -255.0875 
L 432.987128 -255.0875 
L 431.831509 -255.0875 
L 430.67589 -255.0875 
L 429.520271 -255.0875 
L 428.364652 -255.0875 
L 427.209033 -255.0875 
L 426.053414 -255.0875 
L 424.897795 -255.0875 
L 423.742176 -255.0875 
L 422.586557 -255.0875 
L 421.430938 -255.0875 
L 420.275319 -255.0875 
L 419.119701 -255.0875 
L 417.964082 -255.0875 
L 416.808463 -255.0875 
L 415.652844 -255.0875 
L 414.497225 -255.0875 
L 413.341606 -255.0875 
L 412.185987 -255.0875 
L 411.030368 -255.0875 
L 409.874749 -255.0875 
L 408.71913 -255.0875 
L 407.563511 -255.0875 
L 406.407892 -255.0875 
L 405.252274 -255.0875 
L 404.096655 -255.0875 
L 402.941036 -255.0875 
L 401.785417 -255.0875 
L 400.629798 -255.0875 
L 399.474179 -255.0875 
L 398.31856 -255.0875 
L 397.162941 -255.0875 
L 396.007322 -255.0875 
L 394.851703 -255.0875 
L 393.696084 -255.0875 
L 392.540465 -255.0875 
L 391.384847 -255.0875 
L 390.229228 -255.0875 
L 389.073609 -255.0875 
L 387.91799 -255.0875 
L 386.762371 -255.0875 
L 385.606752 -255.0875 
L 384.451133 -255.0875 
L 383.295514 -255.0875 
L 382.139895 -255.0875 
L 380.984276 -255.0875 
L 379.828657 -255.0875 
L 378.673039 -255.0875 
L 377.51742 -255.0875 
L 376.361801 -255.0875 
L 375.206182 -255.0875 
L 374.050563 -255.0875 
L 372.894944 -255.0875 
L 371.739325 -255.0875 
L 370.583706 -255.0875 
L 369.428087 -255.0875 
L 368.272468 -255.0875 
L 367.116849 -255.0875 
L 365.96123 -255.0875 
L 364.805612 -255.0875 
L 363.649993 -255.0875 
L 362.494374 -255.0875 
L 361.338755 -255.0875 
L 360.183136 -255.0875 
L 359.027517 -255.0875 
L 357.871898 -255.0875 
L 356.716279 -255.0875 
L 355.56066 -255.0875 
L 354.405041 -255.0875 
L 353.249422 -255.0875 
L 352.093803 -255.0875 
L 350.938185 -255.0875 
L 349.782566 -255.0875 
L 348.626947 -255.0875 
L 347.471328 -255.0875 
L 346.315709 -255.0875 
L 345.16009 -255.0875 
L 344.004471 -255.0875 
L 342.848852 -255.0875 
L 341.693233 -255.0875 
L 340.537614 -255.0875 
L 339.381995 -255.0875 
L 338.226376 -255.0875 
L 337.070758 -255.0875 
L 335.915139 -255.0875 
L 334.75952 -255.0875 
L 333.603901 -255.0875 
L 332.448282 -255.0875 
L 331.292663 -255.0875 
L 330.137044 -255.0875 
L 328.981425 -255.0875 
L 327.825806 -255.0875 
L 326.670187 -255.0875 
L 325.514568 -255.0875 
L 324.358949 -255.0875 
L 323.203331 -255.0875 
L 322.047712 -255.0875 
L 320.892093 -255.0875 
L 319.736474 -255.0875 
L 318.580855 -255.0875 
L 317.425236 -255.0875 
L 316.269617 -255.0875 
L 315.113998 -255.0875 
L 313.958379 -255.0875 
L 312.80276 -255.0875 
L 311.647141 -255.0875 
L 310.491523 -255.0875 
L 309.335904 -255.0875 
L 308.180285 -255.0875 
L 307.024666 -255.0875 
L 305.869047 -255.0875 
L 304.713428 -255.0875 
L 303.557809 -255.0875 
L 302.40219 -255.0875 
L 301.246571 -255.0875 
L 300.090952 -255.0875 
L 298.935333 -255.0875 
L 297.779714 -255.0875 
L 296.624096 -255.0875 
L 295.468477 -255.0875 
L 294.312858 -255.0875 
L 293.157239 -255.0875 
L 292.00162 -255.0875 
L 290.846001 -255.0875 
L 289.690382 -255.0875 
L 288.534763 -255.0875 
L 287.379144 -255.0875 
L 286.223525 -255.0875 
L 285.067906 -255.0875 
L 283.912287 -255.0875 
L 282.756669 -255.0875 
L 281.60105 -255.0875 
L 280.445431 -255.0875 
L 279.289812 -255.0875 
L 278.134193 -255.0875 
L 276.978574 -255.0875 
L 275.822955 -255.0875 
L 274.667336 -255.0875 
L 273.511717 -255.0875 
L 272.356098 -255.0875 
L 271.200479 -255.0875 
L 270.04486 -255.0875 
L 268.889242 -255.0875 
L 267.733623 -255.0875 
L 266.578004 -255.0875 
L 265.422385 -255.0875 
L 264.266766 -255.0875 
L 263.111147 -255.0875 
L 261.955528 -255.0875 
L 260.799909 -255.0875 
L 259.64429 -255.0875 
L 258.488671 -255.0875 
L 257.333052 -255.0875 
L 256.177434 -255.0875 
L 255.021815 -255.0875 
L 253.866196 -255.0875 
L 252.710577 -255.0875 
L 251.554958 -255.0875 
L 250.399339 -255.0875 
L 249.24372 -255.0875 
L 248.088101 -255.0875 
L 246.932482 -255.0875 
L 245.776863 -255.0875 
L 244.621244 -255.0875 
L 243.465625 -255.0875 
L 242.310007 -255.0875 
L 241.154388 -255.0875 
L 239.998769 -255.0875 
L 238.84315 -255.0875 
L 237.687531 -255.0875 
L 236.531912 -255.0875 
L 235.376293 -255.0875 
L 234.220674 -255.0875 
L 233.065055 -255.0875 
L 231.909436 -255.0875 
L 230.753817 -255.0875 
L 229.598198 -255.0875 
L 228.44258 -255.0875 
L 227.286961 -255.0875 
L 226.131342 -255.0875 
L 224.975723 -255.0875 
L 223.820104 -255.0875 
L 222.664485 -255.0875 
L 221.508866 -255.0875 
L 220.353247 -255.0875 
L 219.197628 -255.0875 
L 218.042009 -255.0875 
L 216.88639 -255.0875 
L 215.730771 -255.0875 
L 214.575153 -255.0875 
L 213.419534 -255.0875 
L 212.263915 -255.0875 
L 211.108296 -255.0875 
L 209.952677 -255.0875 
L 208.797058 -255.0875 
L 207.641439 -255.0875 
L 206.48582 -255.0875 
L 205.330201 -255.0875 
L 204.174582 -255.0875 
L 203.018963 -255.0875 
L 201.863344 -255.0875 
L 200.707726 -255.0875 
L 199.552107 -255.0875 
L 198.396488 -255.0875 
L 197.240869 -255.0875 
L 196.08525 -255.0875 
L 194.929631 -255.0875 
L 193.774012 -255.0875 
L 192.618393 -255.0875 
L 191.462774 -255.0875 
L 190.307155 -255.0875 
L 189.151536 -255.0875 
L 187.995918 -255.0875 
L 186.840299 -255.0875 
L 185.68468 -255.0875 
L 184.529061 -255.0875 
L 183.373442 -255.0875 
L 182.217823 -255.0875 
L 181.062204 -255.0875 
L 179.906585 -255.0875 
L 178.750966 -255.0875 
L 177.595347 -255.0875 
L 176.439728 -255.0875 
L 175.284109 -255.0875 
L 174.128491 -255.0875 
L 172.972872 -255.0875 
L 171.817253 -255.0875 
L 170.661634 -255.0875 
L 169.506015 -255.0875 
L 168.350396 -255.0875 
L 167.194777 -255.0875 
L 166.039158 -255.0875 
L 164.883539 -255.0875 
L 163.72792 -255.0875 
L 162.572301 -255.0875 
L 161.416682 -255.0875 
L 160.261064 -255.0875 
L 159.105445 -255.0875 
L 157.949826 -255.0875 
L 156.794207 -255.0875 
L 155.638588 -255.0875 
L 154.482969 -255.0875 
L 153.32735 -255.0875 
L 152.171731 -255.0875 
L 151.016112 -255.0875 
L 149.860493 -255.0875 
L 148.704874 -255.0875 
L 147.549255 -255.0875 
L 146.393637 -255.0875 
L 145.238018 -255.0875 
L 144.082399 -255.0875 
L 142.92678 -255.0875 
L 141.771161 -255.0875 
L 140.615542 -255.0875 
L 139.459923 -255.0875 
L 138.304304 -255.0875 
L 137.148685 -255.0875 
L 135.993066 -255.0875 
L 134.837447 -255.0875 
L 133.681828 -255.0875 
L 132.52621 -255.0875 
L 131.370591 -255.0875 
L 130.214972 -255.0875 
L 129.059353 -255.0875 
L 127.903734 -255.0875 
L 126.748115 -255.0875 
L 125.592496 -255.0875 
L 124.436877 -255.0875 
L 123.281258 -255.0875 
L 122.125639 -255.0875 
L 120.97002 -255.0875 
L 119.814402 -255.0875 
L 118.658783 -255.0875 
L 117.503164 -255.0875 
L 116.347545 -255.0875 
L 115.191926 -255.0875 
L 114.036307 -255.0875 
L 112.880688 -255.0875 
L 111.725069 -255.0875 
L 110.56945 -255.0875 
L 109.413831 -255.0875 
L 108.258212 -255.0875 
L 107.102593 -255.0875 
L 105.946975 -255.0875 
L 104.791356 -255.0875 
L 103.635737 -255.0875 
L 102.480118 -255.0875 
L 101.324499 -255.0875 
L 100.16888 -255.0875 
L 99.013261 -255.0875 
L 97.857642 -255.0875 
L 96.702023 -255.0875 
L 95.546404 -255.0875 
L 94.390785 -255.0875 
L 93.235166 -255.0875 
L 92.079548 -255.0875 
L 90.923929 -255.0875 
L 89.76831 -255.0875 
L 88.612691 -255.0875 
L 87.457072 -255.0875 
L 86.301453 -255.0875 
L 85.145834 -255.0875 
L 83.990215 -255.0875 
L 82.834596 -255.0875 
L 81.678977 -255.0875 
L 80.523358 -255.0875 
L 79.367739 -255.0875 
L 78.212121 -255.0875 
L 77.056502 -255.0875 
L 75.900883 -255.0875 
L 74.745264 -255.0875 
L 73.589645 -255.0875 
L 72.434026 -255.0875 
L 71.278407 -255.0875 
L 70.122788 -255.0875 
L 68.967169 -255.0875 
L 67.81155 -255.0875 
L 66.655931 -255.0875 
L 65.500313 -255.0875 
z
" style="stroke: #a3583c; stroke-opacity: 0.08"/>
    </defs>
    <g clip-path="url(#p1c7e75a269)">
     <use xlink:href="#m54c90457f8" x="0" y="499.624687" style="fill: #a3583c; fill-opacity: 0.08; stroke: #a3583c; stroke-opacity: 0.08"/>
    </g>
   </g>
   <g id="matplotlib.axis_1">
    <g id="xtick_1">
     <g id="line2d_1">
      <path d="M 65.500313 453.877187 
L 65.500313 35.197187 
" clip-path="url(#p1c7e75a269)" style="fill: none; stroke: #d9cbb6; stroke-opacity: 0.45; stroke-width: 0.8; stroke-linecap: square"/>
     </g>
     <g id="line2d_2">
      <defs>
       <path id="medbdce96a2" d="M 0 0 
L 0 3.5 
" style="stroke: #756a5d; stroke-width: 0.8"/>
      </defs>
      <g>
       <use xlink:href="#medbdce96a2" x="65.500313" y="453.877187" style="fill: #756a5d; stroke: #756a5d; stroke-width: 0.8"/>
      </g>
     </g>
     <g id="text_1">
      <text style="font-size: 11px; font-family: 'DejaVu Serif'; text-anchor: middle; fill: #756a5d" x="65.500313" y="469.235469" transform="rotate(-0 65.500313 469.235469)">0.0</text>
     </g>
    </g>
    <g id="xtick_2">
     <g id="line2d_3">
      <path d="M 231.678313 453.877187 
L 231.678313 35.197187 
" clip-path="url(#p1c7e75a269)" style="fill: none; stroke: #d9cbb6; stroke-opacity: 0.45; stroke-width: 0.8; stroke-linecap: square"/>
     </g>
     <g id="line2d_4">
      <g>
       <use xlink:href="#medbdce96a2" x="231.678313" y="453.877187" style="fill: #756a5d; stroke: #756a5d; stroke-width: 0.8"/>
      </g>
     </g>
     <g id="text_2">
      <text style="font-size: 11px; font-family: 'DejaVu Serif'; text-anchor: middle; fill: #756a5d" x="231.678313" y="469.235469" transform="rotate(-0 231.678313 469.235469)">0.2</text>
     </g>
    </g>
    <g id="xtick_3">
     <g id="line2d_5">
      <path d="M 397.856313 453.877187 
L 397.856313 35.197187 
" clip-path="url(#p1c7e75a269)" style="fill: none; stroke: #d9cbb6; stroke-opacity: 0.45; stroke-width: 0.8; stroke-linecap: square"/>
     </g>
     <g id="line2d_6">
      <g>
       <use xlink:href="#medbdce96a2" x="397.856313" y="453.877187" style="fill: #756a5d; stroke: #756a5d; stroke-width: 0.8"/>
      </g>
     </g>
     <g id="text_3">
      <text style="font-size: 11px; font-family: 'DejaVu Serif'; text-anchor: middle; fill: #756a5d" x="397.856313" y="469.235469" transform="rotate(-0 397.856313 469.235469)">0.4</text>
     </g>
    </g>
    <g id="xtick_4">
     <g id="line2d_7">
      <path d="M 564.034312 453.877187 
L 564.034312 35.197187 
" clip-path="url(#p1c7e75a269)" style="fill: none; stroke: #d9cbb6; stroke-opacity: 0.45; stroke-width: 0.8; stroke-linecap: square"/>
     </g>
     <g id="line2d_8">
      <g>
       <use xlink:href="#medbdce96a2" x="564.034312" y="453.877187" style="fill: #756a5d; stroke: #756a5d; stroke-width: 0.8"/>
      </g>
     </g>
     <g id="text_4">
      <text style="font-size: 11px; font-family: 'DejaVu Serif'; text-anchor: middle; fill: #756a5d" x="564.034312" y="469.235469" transform="rotate(-0 564.034312 469.235469)">0.6</text>
     </g>
    </g>
    <g id="xtick_5">
     <g id="line2d_9">
      <path d="M 730.212313 453.877187 
L 730.212313 35.197187 
" clip-path="url(#p1c7e75a269)" style="fill: none; stroke: #d9cbb6; stroke-opacity: 0.45; stroke-width: 0.8; stroke-linecap: square"/>
     </g>
     <g id="line2d_10">
      <g>
       <use xlink:href="#medbdce96a2" x="730.212313" y="453.877187" style="fill: #756a5d; stroke: #756a5d; stroke-width: 0.8"/>
      </g>
     </g>
     <g id="text_5">
      <text style="font-size: 11px; font-family: 'DejaVu Serif'; text-anchor: middle; fill: #756a5d" x="730.212313" y="469.235469" transform="rotate(-0 730.212313 469.235469)">0.8</text>
     </g>
    </g>
    <g id="xtick_6">
     <g id="line2d_11">
      <path d="M 896.390312 453.877187 
L 896.390312 35.197187 
" clip-path="url(#p1c7e75a269)" style="fill: none; stroke: #d9cbb6; stroke-opacity: 0.45; stroke-width: 0.8; stroke-linecap: square"/>
     </g>
     <g id="line2d_12">
      <g>
       <use xlink:href="#medbdce96a2" x="896.390312" y="453.877187" style="fill: #756a5d; stroke: #756a5d; stroke-width: 0.8"/>
      </g>
     </g>
     <g id="text_6">
      <text style="font-size: 11px; font-family: 'DejaVu Serif'; text-anchor: middle; fill: #756a5d" x="896.390312" y="469.235469" transform="rotate(-0 896.390312 469.235469)">1.0</text>
     </g>
    </g>
    <g id="text_7">
     <text style="font-size: 13px; font-family: 'DejaVu Serif'; text-anchor: middle; fill: #1f1b16" x="480.945312" y="485.401094" transform="rotate(-0 480.945312 485.401094)">Orbital phase</text>
    </g>
   </g>
   <g id="matplotlib.axis_2">
    <g id="ytick_1">
     <g id="line2d_13">
      <path d="M 65.500313 404.262508 
L 896.390312 404.262508 
" clip-path="url(#p1c7e75a269)" style="fill: none; stroke: #d9cbb6; stroke-opacity: 0.45; stroke-width: 0.8; stroke-linecap: square"/>
     </g>
     <g id="line2d_14">
      <defs>
       <path id="m21a6f01bd7" d="M 0 0 
L -3.5 0 
" style="stroke: #756a5d; stroke-width: 0.8"/>
      </defs>
      <g>
       <use xlink:href="#m21a6f01bd7" x="65.500313" y="404.262508" style="fill: #756a5d; stroke: #756a5d; stroke-width: 0.8"/>
      </g>
     </g>
     <g id="text_8">
      <text style="font-size: 11px; font-family: 'DejaVu Serif'; text-anchor: end; fill: #756a5d" x="58.500313" y="408.441649" transform="rotate(-0 58.500313 408.441649)">−200</text>
     </g>
    </g>
    <g id="ytick_2">
     <g id="line2d_15">
      <path d="M 65.500313 324.399848 
L 896.390312 324.399848 
" clip-path="url(#p1c7e75a269)" style="fill: none; stroke: #d9cbb6; stroke-opacity: 0.45; stroke-width: 0.8; stroke-linecap: square"/>
     </g>
     <g id="line2d_16">
      <g>
       <use xlink:href="#m21a6f01bd7" x="65.500313" y="324.399848" style="fill: #756a5d; stroke: #756a5d; stroke-width: 0.8"/>
      </g>
     </g>
     <g id="text_9">
      <text style="font-size: 11px; font-family: 'DejaVu Serif'; text-anchor: end; fill: #756a5d" x="58.500313" y="328.578988" transform="rotate(-0 58.500313 328.578988)">−100</text>
     </g>
    </g>
    <g id="ytick_3">
     <g id="line2d_17">
      <path d="M 65.500313 244.537187 
L 896.390312 244.537187 
" clip-path="url(#p1c7e75a269)" style="fill: none; stroke: #d9cbb6; stroke-opacity: 0.45; stroke-width: 0.8; stroke-linecap: square"/>
     </g>
     <g id="line2d_18">
      <g>
       <use xlink:href="#m21a6f01bd7" x="65.500313" y="244.537187" style="fill: #756a5d; stroke: #756a5d; stroke-width: 0.8"/>
      </g>
     </g>
     <g id="text_10">
      <text style="font-size: 11px; font-family: 'DejaVu Serif'; text-anchor: end; fill: #756a5d" x="58.500313" y="248.716328" transform="rotate(-0 58.500313 248.716328)">0</text>
     </g>
    </g>
    <g id="ytick_4">
     <g id="line2d_19">
      <path d="M 65.500313 164.674527 
L 896.390312 164.674527 
" clip-path="url(#p1c7e75a269)" style="fill: none; stroke: #d9cbb6; stroke-opacity: 0.45; stroke-width: 0.8; stroke-linecap: square"/>
     </g>
     <g id="line2d_20">
      <g>
       <use xlink:href="#m21a6f01bd7" x="65.500313" y="164.674527" style="fill: #756a5d; stroke: #756a5d; stroke-width: 0.8"/>
      </g>
     </g>
     <g id="text_11">
      <text style="font-size: 11px; font-family: 'DejaVu Serif'; text-anchor: end; fill: #756a5d" x="58.500313" y="168.853668" transform="rotate(-0 58.500313 168.853668)">100</text>
     </g>
    </g>
    <g id="ytick_5">
     <g id="line2d_21">
      <path d="M 65.500313 84.811867 
L 896.390312 84.811867 
" clip-path="url(#p1c7e75a269)" style="fill: none; stroke: #d9cbb6; stroke-opacity: 0.45; stroke-width: 0.8; stroke-linecap: square"/>
     </g>
     <g id="line2d_22">
      <g>
       <use xlink:href="#m21a6f01bd7" x="65.500313" y="84.811867" style="fill: #756a5d; stroke: #756a5d; stroke-width: 0.8"/>
      </g>
     </g>
     <g id="text_12">
      <text style="font-size: 11px; font-family: 'DejaVu Serif'; text-anchor: end; fill: #756a5d" x="58.500313" y="88.991008" transform="rotate(-0 58.500313 88.991008)">200</text>
     </g>
    </g>
    <g id="text_13">
     <text style="font-size: 13px; font-family: 'DejaVu Serif'; text-anchor: middle; fill: #1f1b16" x="21.397969" y="244.537187" transform="rotate(-90 21.397969 244.537187)">Stellar radial velocity (m/s)</text>
    </g>
   </g>
   <g id="line2d_23">
    <path d="M 65.500313 244.537187 
L 87.457072 278.921336 
L 99.013261 296.602849 
L 108.258212 310.387641 
L 117.503164 323.760459 
L 125.592496 335.060625 
L 132.52621 344.408116 
L 139.459923 353.411532 
L 146.393637 362.04275 
L 153.32735 370.275624 
L 159.105445 376.814626 
L 164.883539 383.047434 
L 170.661634 388.962295 
L 176.439728 394.548518 
L 182.217823 399.796483 
L 187.995918 404.697645 
L 193.774012 409.244526 
L 198.396488 412.622598 
L 203.018963 415.766996 
L 207.641439 418.675338 
L 212.263915 421.345652 
L 216.88639 423.776377 
L 221.508866 425.966345 
L 226.131342 427.914778 
L 230.753817 429.62127 
L 235.376293 431.085784 
L 239.998769 432.308633 
L 244.621244 433.290471 
L 249.24372 434.032282 
L 253.866196 434.535361 
L 258.488671 434.80131 
L 263.111147 434.832014 
L 267.733623 434.629638 
L 272.356098 434.196606 
L 276.978574 433.535592 
L 281.60105 432.649505 
L 286.223525 431.541478 
L 290.846001 430.214852 
L 295.468477 428.673168 
L 300.090952 426.92015 
L 304.713428 424.959698 
L 309.335904 422.795872 
L 315.113998 419.811525 
L 320.892093 416.524532 
L 326.670187 412.943735 
L 332.448282 409.078262 
L 338.226376 404.937493 
L 344.004471 400.531039 
L 349.782566 395.868712 
L 355.56066 390.960508 
L 362.494374 384.760414 
L 369.428087 378.238698 
L 376.361801 371.413423 
L 383.295514 364.302857 
L 391.384847 355.671236 
L 399.474179 346.705944 
L 408.71913 336.089477 
L 417.964082 325.120692 
L 428.364652 312.415521 
L 439.920841 297.920175 
L 452.632649 281.61686 
L 469.966933 258.986307 
L 511.569214 204.470371 
L 525.436641 186.768693 
L 536.99283 172.384509 
L 547.3934 159.801944 
L 556.638351 148.960032 
L 565.883303 138.487209 
L 573.972635 129.661288 
L 582.061968 121.181723 
L 588.995681 114.211507 
L 595.929395 107.53574 
L 602.863108 101.172592 
L 609.796822 95.140004 
L 615.574916 90.378118 
L 621.353011 85.868127 
L 627.131105 81.619919 
L 632.9092 77.643188 
L 638.687294 73.947411 
L 644.465389 70.541818 
L 650.243484 67.435371 
L 656.021578 64.636729 
L 660.644054 62.625047 
L 665.266529 60.819798 
L 669.889005 59.224925 
L 674.511481 57.844195 
L 679.133956 56.681197 
L 683.756432 55.739323 
L 688.378908 55.021759 
L 693.001383 54.531472 
L 697.623859 54.271194 
L 702.246335 54.243415 
L 706.86881 54.450364 
L 711.491286 54.894 
L 716.113762 55.575994 
L 720.736237 56.497721 
L 725.358713 57.660243 
L 729.981189 59.064297 
L 734.603664 60.710285 
L 739.22614 62.598255 
L 743.848616 64.727898 
L 748.471091 67.098528 
L 753.093567 69.709076 
L 757.716043 72.558079 
L 762.338518 75.64367 
L 766.960994 78.96357 
L 771.58347 82.515081 
L 777.361564 87.275368 
L 783.139659 92.385577 
L 788.917753 97.837592 
L 794.695848 103.62222 
L 800.473943 109.729201 
L 806.252037 116.147203 
L 812.030132 122.86384 
L 818.963845 131.299028 
L 825.897559 140.119739 
L 832.831272 149.298827 
L 840.920605 160.421825 
L 849.009937 171.943713 
L 858.254888 185.532815 
L 868.655459 201.258905 
L 881.367267 220.936286 
L 896.390312 244.537187 
L 896.390312 244.537187 
" clip-path="url(#p1c7e75a269)" style="fill: none; stroke: #a3583c; stroke-width: 2.6; stroke-linecap: square"/>
   </g>
   <g id="line2d_24">
    <path d="M 65.500313 244.537187 
L 896.390312 244.537187 
" clip-path="url(#p1c7e75a269)" style="fill: none; stroke-dasharray: 5.365,2.32; stroke-dashoffset: 0; stroke: #9b9184; stroke-opacity: 0.65; stroke-width: 1.45"/>
   </g>
   <g id="patch_3">
    <path d="M 65.500313 453.877187 
L 65.500313 35.197187 
" style="fill: none; stroke: #b9a98f; stroke-width: 0.8; stroke-linejoin: miter; stroke-linecap: square"/>
   </g>
   <g id="patch_4">
    <path d="M 896.390312 453.877187 
L 896.390312 35.197187 
" style="fill: none; stroke: #b9a98f; stroke-width: 0.8; stroke-linejoin: miter; stroke-linecap: square"/>
   </g>
   <g id="patch_5">
    <path d="M 65.500313 453.877187 
L 896.390312 453.877187 
" style="fill: none; stroke: #b9a98f; stroke-width: 0.8; stroke-linejoin: miter; stroke-linecap: square"/>
   </g>
   <g id="patch_6">
    <path d="M 65.500313 35.197187 
L 896.390312 35.197187 
" style="fill: none; stroke: #b9a98f; stroke-width: 0.8; stroke-linejoin: miter; stroke-linecap: square"/>
   </g>
   <g id="text_14">
    <g id="patch_7">
     <path d="M 77.963662 72.760563 
L 360.829288 72.760563 
Q 363.909288 72.760563 363.909288 69.680563 
L 363.909288 56.131188 
Q 363.909288 53.051188 360.829288 53.051188 
L 77.963662 53.051188 
Q 74.883662 53.051188 74.883662 56.131188 
L 74.883662 69.680563 
Q 74.883662 72.760563 77.963662 72.760563 
z
" style="fill: #fffaf0; opacity: 0.88"/>
    </g>
    <text style="font-size: 14px; font-family: 'DejaVu Serif'; text-anchor: start; fill: #756a5d" x="77.963662" y="66.769" transform="rotate(-0 77.963662 66.769)">K ≈ 238 m s^-1 · P ≈ 1.091 d · e = 0.04</text>
   </g>
   <g id="text_15">
    <text style="font-size: 10.5px; font-family: 'DejaVu Serif'; text-anchor: end; fill: #756a5d" x="888.081412" y="443.170619" transform="rotate(-0 888.081412 443.170619)">single-planet Keplerian model</text>
   </g>
   <g id="text_16">
    <text style="font-weight: 700; font-size: 18px; font-family: 'DejaVu Serif'; text-anchor: start; fill: #1f1b16" x="65.500313" y="25.197187" transform="rotate(-0 65.500313 25.197187)">Keplerian RV model — WASP-12 b</text>
   </g>
  </g>
 </g>
 <defs>
  <clipPath id="p1c7e75a269">
   <rect x="65.500313" y="35.197187" width="830.89" height="418.68"/>
  </clipPath>
 </defs>
</svg>
