<?xml version="1.0" encoding="utf-8" standalone="no"?>
<!DOCTYPE svg PUBLIC "-//W3C//DTD SVG 1.1//EN"
  "http://www.w3.org/Graphics/SVG/1.1/DTD/svg11.dtd">
<svg xmlns:xlink="http://www.w3.org/1999/xlink" width="916.657031pt" height="499.624687pt" viewBox="0 0 916.657031 499.624687" xmlns="http://www.w3.org/2000/svg" version="1.1">
 <metadata>
  <rdf:RDF xmlns:dc="http://purl.org/dc/elements/1.1/" xmlns:cc="http://creativecommons.org/ns#" xmlns:rdf="http://www.w3.org/1999/02/22-rdf-syntax-ns#">
   <cc:Work>
    <dc:type rdf:resource="http://purl.org/dc/dcmitype/StillImage"/>
    <dc:date>2026-05-11T14:16:47.475888</dc:date>
    <dc:format>image/svg+xml</dc:format>
    <dc:creator>
     <cc:Agent>
      <dc:title>Matplotlib v3.10.8, https://matplotlib.org/</dc:title>
     </cc:Agent>
    </dc:creator>
   </cc:Work>
  </rdf:RDF>
 </metadata>
 <defs>
  <style type="text/css">*{stroke-linejoin: round; stroke-linecap: butt}</style>
 </defs>
 <g id="figure_1">
  <g id="patch_1">
   <path d="M 0 499.624687 
L 916.657031 499.624687 
L 916.657031 0 
L 0 0 
z
" style="fill: #fffaf0"/>
  </g>
  <g id="axes_1">
   <g id="patch_2">
    <path d="M 65.500313 453.877187 
L 896.390312 453.877187 
L 896.390312 35.197187 
L 65.500313 35.197187 
z
" style="fill: #fffaf0"/>
   </g>
   <g id="FillBetweenPolyCollection_1">
    <defs>
     <path id="me5b4fe7c65" d="M 65.500313 -255.0875 
L 65.500313 -255.0875 
L 66.655931 -253.424447 
L 67.81155 -251.761522 
L 68.967169 -250.09885 
L 70.122788 -248.436559 
L 71.278407 -246.774776 
L 72.434026 -245.113628 
L 73.589645 -243.453242 
L 74.745264 -241.793744 
L 75.900883 -240.135261 
L 77.056502 -238.47792 
L 78.212121 -236.821848 
L 79.367739 -235.16717 
L 80.523358 -233.514013 
L 81.678977 -231.862505 
L 82.834596 -230.212769 
L 83.990215 -228.564933 
L 85.145834 -226.919123 
L 86.301453 -225.275464 
L 87.457072 -223.634081 
L 88.612691 -221.995101 
L 89.76831 -220.358647 
L 90.923929 -218.724846 
L 92.079548 -217.093821 
L 93.235166 -215.465698 
L 94.390785 -213.840601 
L 95.546404 -212.218653 
L 96.702023 -210.599979 
L 97.857642 -208.984703 
L 99.013261 -207.372947 
L 100.16888 -205.764835 
L 101.324499 -204.160489 
L 102.480118 -202.560033 
L 103.635737 -200.963588 
L 104.791356 -199.371276 
L 105.946975 -197.783219 
L 107.102593 -196.199538 
L 108.258212 -194.620354 
L 109.413831 -193.045788 
L 110.56945 -191.475959 
L 111.725069 -189.910989 
L 112.880688 -188.350995 
L 114.036307 -186.796098 
L 115.191926 -185.246416 
L 116.347545 -183.702068 
L 117.503164 -182.163171 
L 118.658783 -180.629843 
L 119.814402 -179.102201 
L 120.97002 -177.580361 
L 122.125639 -176.064441 
L 123.281258 -174.554555 
L 124.436877 -173.050819 
L 125.592496 -171.553348 
L 126.748115 -170.062256 
L 127.903734 -168.577657 
L 129.059353 -167.099665 
L 130.214972 -165.628392 
L 131.370591 -164.16395 
L 132.52621 -162.706452 
L 133.681828 -161.256009 
L 134.837447 -159.812731 
L 135.993066 -158.376729 
L 137.148685 -156.948112 
L 138.304304 -155.52699 
L 139.459923 -154.11347 
L 140.615542 -152.707662 
L 141.771161 -151.309672 
L 142.92678 -149.919607 
L 144.082399 -148.537574 
L 145.238018 -147.163677 
L 146.393637 -145.798022 
L 147.549255 -144.440713 
L 148.704874 -143.091853 
L 149.860493 -141.751546 
L 151.016112 -140.419895 
L 152.171731 -139.096999 
L 153.32735 -137.782962 
L 154.482969 -136.477882 
L 155.638588 -135.181861 
L 156.794207 -133.894996 
L 157.949826 -132.617386 
L 159.105445 -131.349128 
L 160.261064 -130.09032 
L 161.416682 -128.841058 
L 162.572301 -127.601436 
L 163.72792 -126.37155 
L 164.883539 -125.151493 
L 166.039158 -123.941359 
L 167.194777 -122.741241 
L 168.350396 -121.551229 
L 169.506015 -120.371414 
L 170.661634 -119.201887 
L 171.817253 -118.042738 
L 172.972872 -116.894053 
L 174.128491 -115.755922 
L 175.284109 -114.628432 
L 176.439728 -113.511667 
L 177.595347 -112.405714 
L 178.750966 -111.310657 
L 179.906585 -110.22658 
L 181.062204 -109.153565 
L 182.217823 -108.091695 
L 183.373442 -107.04105 
L 184.529061 -106.00171 
L 185.68468 -104.973756 
L 186.840299 -103.957265 
L 187.995918 -102.952316 
L 189.151536 -101.958984 
L 190.307155 -100.977347 
L 191.462774 -100.007478 
L 192.618393 -99.049451 
L 193.774012 -98.103341 
L 194.929631 -97.169219 
L 196.08525 -96.247157 
L 197.240869 -95.337224 
L 198.396488 -94.439491 
L 199.552107 -93.554026 
L 200.707726 -92.680897 
L 201.863344 -91.82017 
L 203.018963 -90.971911 
L 204.174582 -90.136185 
L 205.330201 -89.313055 
L 206.48582 -88.502585 
L 207.641439 -87.704837 
L 208.797058 -86.91987 
L 209.952677 -86.147746 
L 211.108296 -85.388524 
L 212.263915 -84.64226 
L 213.419534 -83.909013 
L 214.575153 -83.188837 
L 215.730771 -82.481789 
L 216.88639 -81.787923 
L 218.042009 -81.10729 
L 219.197628 -80.439943 
L 220.353247 -79.785934 
L 221.508866 -79.145312 
L 222.664485 -78.518125 
L 223.820104 -77.904423 
L 224.975723 -77.304251 
L 226.131342 -76.717656 
L 227.286961 -76.144682 
L 228.44258 -75.585373 
L 229.598198 -75.039773 
L 230.753817 -74.507921 
L 231.909436 -73.98986 
L 233.065055 -73.485628 
L 234.220674 -72.995265 
L 235.376293 -72.518807 
L 236.531912 -72.056291 
L 237.687531 -71.607753 
L 238.84315 -71.173226 
L 239.998769 -70.752744 
L 241.154388 -70.346339 
L 242.310007 -69.954042 
L 243.465625 -69.575882 
L 244.621244 -69.21189 
L 245.776863 -68.862091 
L 246.932482 -68.526515 
L 248.088101 -68.205185 
L 249.24372 -67.898126 
L 250.399339 -67.605362 
L 251.554958 -67.326916 
L 252.710577 -67.062808 
L 253.866196 -66.813059 
L 255.021815 -66.577687 
L 256.177434 -66.356712 
L 257.333052 -66.150148 
L 258.488671 -65.958014 
L 259.64429 -65.780322 
L 260.799909 -65.617086 
L 261.955528 -65.46832 
L 263.111147 -65.334035 
L 264.266766 -65.21424 
L 265.422385 -65.108944 
L 266.578004 -65.018157 
L 267.733623 -64.941885 
L 268.889242 -64.880133 
L 270.04486 -64.832906 
L 271.200479 -64.800209 
L 272.356098 -64.782042 
L 273.511717 -64.778409 
L 274.667336 -64.789309 
L 275.822955 -64.814741 
L 276.978574 -64.854703 
L 278.134193 -64.909193 
L 279.289812 -64.978206 
L 280.445431 -65.061737 
L 281.60105 -65.159779 
L 282.756669 -65.272325 
L 283.912287 -65.399367 
L 285.067906 -65.540894 
L 286.223525 -65.696896 
L 287.379144 -65.867361 
L 288.534763 -66.052276 
L 289.690382 -66.251627 
L 290.846001 -66.465399 
L 292.00162 -66.693575 
L 293.157239 -66.936137 
L 294.312858 -67.193069 
L 295.468477 -67.464348 
L 296.624096 -67.749956 
L 297.779714 -68.04987 
L 298.935333 -68.364067 
L 300.090952 -68.692524 
L 301.246571 -69.035214 
L 302.40219 -69.392113 
L 303.557809 -69.763193 
L 304.713428 -70.148425 
L 305.869047 -70.54778 
L 307.024666 -70.961227 
L 308.180285 -71.388736 
L 309.335904 -71.830273 
L 310.491523 -72.285804 
L 311.647141 -72.755296 
L 312.80276 -73.238711 
L 313.958379 -73.736013 
L 315.113998 -74.247164 
L 316.269617 -74.772126 
L 317.425236 -75.310857 
L 318.580855 -75.863317 
L 319.736474 -76.429464 
L 320.892093 -77.009254 
L 322.047712 -77.602643 
L 323.203331 -78.209586 
L 324.358949 -78.830036 
L 325.514568 -79.463946 
L 326.670187 -80.111269 
L 327.825806 -80.771953 
L 328.981425 -81.445949 
L 330.137044 -82.133205 
L 331.292663 -82.833669 
L 332.448282 -83.547288 
L 333.603901 -84.274006 
L 334.75952 -85.013768 
L 335.915139 -85.766519 
L 337.070758 -86.532199 
L 338.226376 -87.310752 
L 339.381995 -88.102117 
L 340.537614 -88.906234 
L 341.693233 -89.723041 
L 342.848852 -90.552477 
L 344.004471 -91.394478 
L 345.16009 -92.248979 
L 346.315709 -93.115915 
L 347.471328 -93.995221 
L 348.626947 -94.886828 
L 349.782566 -95.79067 
L 350.938185 -96.706676 
L 352.093803 -97.634777 
L 353.249422 -98.574902 
L 354.405041 -99.52698 
L 355.56066 -100.490936 
L 356.716279 -101.466699 
L 357.871898 -102.454193 
L 359.027517 -103.453343 
L 360.183136 -104.464073 
L 361.338755 -105.486305 
L 362.494374 -106.519962 
L 363.649993 -107.564964 
L 364.805612 -108.621232 
L 365.96123 -109.688685 
L 367.116849 -110.767241 
L 368.272468 -111.856819 
L 369.428087 -112.957334 
L 370.583706 -114.068703 
L 371.739325 -115.190842 
L 372.894944 -116.323663 
L 374.050563 -117.467082 
L 375.206182 -118.62101 
L 376.361801 -119.785359 
L 377.51742 -120.960041 
L 378.673039 -122.144966 
L 379.828657 -123.340042 
L 380.984276 -124.54518 
L 382.139895 -125.760287 
L 383.295514 -126.98527 
L 384.451133 -128.220036 
L 385.606752 -129.46449 
L 386.762371 -130.718537 
L 387.91799 -131.982082 
L 389.073609 -133.255028 
L 390.229228 -134.537278 
L 391.384847 -135.828733 
L 392.540465 -137.129296 
L 393.696084 -138.438867 
L 394.851703 -139.757346 
L 396.007322 -141.084632 
L 397.162941 -142.420624 
L 398.31856 -143.76522 
L 399.474179 -145.118318 
L 400.629798 -146.479813 
L 401.785417 -147.849602 
L 402.941036 -149.22758 
L 404.096655 -150.613643 
L 405.252274 -152.007683 
L 406.407892 -153.409596 
L 407.563511 -154.819273 
L 408.71913 -156.236607 
L 409.874749 -157.66149 
L 411.030368 -159.093813 
L 412.185987 -160.533467 
L 413.341606 -161.980341 
L 414.497225 -163.434326 
L 415.652844 -164.89531 
L 416.808463 -166.363181 
L 417.964082 -167.837828 
L 419.119701 -169.319138 
L 420.275319 -170.806998 
L 421.430938 -172.301293 
L 422.586557 -173.801911 
L 423.742176 -175.308736 
L 424.897795 -176.821654 
L 426.053414 -178.340548 
L 427.209033 -179.865304 
L 428.364652 -181.395803 
L 429.520271 -182.931931 
L 430.67589 -184.473568 
L 431.831509 -186.020598 
L 432.987128 -187.572902 
L 434.142746 -189.130362 
L 435.298365 -190.692859 
L 436.453984 -192.260274 
L 437.609603 -193.832486 
L 438.765222 -195.409376 
L 439.920841 -196.990824 
L 441.07646 -198.576708 
L 442.232079 -200.166908 
L 443.387698 -201.761302 
L 444.543317 -203.359768 
L 445.698936 -204.962184 
L 446.854555 -206.568428 
L 448.010173 -208.178377 
L 449.165792 -209.791909 
L 450.321411 -211.408899 
L 451.47703 -213.029225 
L 452.632649 -214.652763 
L 453.788268 -216.279389 
L 454.943887 -217.908979 
L 456.099506 -219.541407 
L 457.255125 -221.17655 
L 458.410744 -222.814283 
L 459.566363 -224.45448 
L 460.721981 -226.097017 
L 461.8776 -227.741767 
L 463.033219 -229.388606 
L 464.188838 -231.037407 
L 465.344457 -232.688045 
L 466.500076 -234.340394 
L 467.655695 -235.994326 
L 468.811314 -237.649717 
L 469.966933 -239.30644 
L 471.122552 -240.964367 
L 472.278171 -242.623374 
L 473.43379 -244.283332 
L 474.589408 -245.944115 
L 475.745027 -247.605596 
L 476.900646 -249.267649 
L 478.056265 -250.930146 
L 479.211884 -252.592961 
L 480.367503 -254.255966 
L 481.523122 -255.919034 
L 482.678741 -257.582039 
L 483.83436 -259.244854 
L 484.989979 -260.907351 
L 486.145598 -262.569404 
L 487.301217 -264.230885 
L 488.456835 -265.891668 
L 489.612454 -267.551626 
L 490.768073 -269.210633 
L 491.923692 -270.86856 
L 493.079311 -272.525283 
L 494.23493 -274.180674 
L 495.390549 -275.834606 
L 496.546168 -277.486955 
L 497.701787 -279.137593 
L 498.857406 -280.786394 
L 500.013025 -282.433233 
L 501.168644 -284.077983 
L 502.324262 -285.72052 
L 503.479881 -287.360717 
L 504.6355 -288.99845 
L 505.791119 -290.633593 
L 506.946738 -292.266021 
L 508.102357 -293.895611 
L 509.257976 -295.522237 
L 510.413595 -297.145775 
L 511.569214 -298.766101 
L 512.724833 -300.383091 
L 513.880452 -301.996623 
L 515.03607 -303.606572 
L 516.191689 -305.212816 
L 517.347308 -306.815232 
L 518.502927 -308.413698 
L 519.658546 -310.008092 
L 520.814165 -311.598292 
L 521.969784 -313.184176 
L 523.125403 -314.765624 
L 524.281022 -316.342514 
L 525.436641 -317.914726 
L 526.59226 -319.482141 
L 527.747879 -321.044638 
L 528.903497 -322.602098 
L 530.059116 -324.154402 
L 531.214735 -325.701432 
L 532.370354 -327.243069 
L 533.525973 -328.779197 
L 534.681592 -330.309696 
L 535.837211 -331.834452 
L 536.99283 -333.353346 
L 538.148449 -334.866264 
L 539.304068 -336.373089 
L 540.459687 -337.873707 
L 541.615306 -339.368002 
L 542.770924 -340.855862 
L 543.926543 -342.337172 
L 545.082162 -343.811819 
L 546.237781 -345.27969 
L 547.3934 -346.740674 
L 548.549019 -348.194659 
L 549.704638 -349.641533 
L 550.860257 -351.081187 
L 552.015876 -352.51351 
L 553.171495 -353.938393 
L 554.327114 -355.355727 
L 555.482733 -356.765404 
L 556.638351 -358.167317 
L 557.79397 -359.561357 
L 558.949589 -360.94742 
L 560.105208 -362.325398 
L 561.260827 -363.695187 
L 562.416446 -365.056682 
L 563.572065 -366.40978 
L 564.727684 -367.754376 
L 565.883303 -369.090368 
L 567.038922 -370.417654 
L 568.194541 -371.736133 
L 569.35016 -373.045704 
L 570.505778 -374.346267 
L 571.661397 -375.637722 
L 572.817016 -376.919972 
L 573.972635 -378.192918 
L 575.128254 -379.456463 
L 576.283873 -380.71051 
L 577.439492 -381.954964 
L 578.595111 -383.18973 
L 579.75073 -384.414713 
L 580.906349 -385.62982 
L 582.061968 -386.834958 
L 583.217586 -388.030034 
L 584.373205 -389.214959 
L 585.528824 -390.389641 
L 586.684443 -391.55399 
L 587.840062 -392.707918 
L 588.995681 -393.851337 
L 590.1513 -394.984158 
L 591.306919 -396.106297 
L 592.462538 -397.217666 
L 593.618157 -398.318181 
L 594.773776 -399.407759 
L 595.929395 -400.486315 
L 597.085013 -401.553768 
L 598.240632 -402.610036 
L 599.396251 -403.655038 
L 600.55187 -404.688695 
L 601.707489 -405.710927 
L 602.863108 -406.721657 
L 604.018727 -407.720807 
L 605.174346 -408.708301 
L 606.329965 -409.684064 
L 607.485584 -410.64802 
L 608.641203 -411.600098 
L 609.796822 -412.540223 
L 610.95244 -413.468324 
L 612.108059 -414.38433 
L 613.263678 -415.288172 
L 614.419297 -416.179779 
L 615.574916 -417.059085 
L 616.730535 -417.926021 
L 617.886154 -418.780522 
L 619.041773 -419.622523 
L 620.197392 -420.451959 
L 621.353011 -421.268766 
L 622.50863 -422.072883 
L 623.664249 -422.864248 
L 624.819867 -423.642801 
L 625.975486 -424.408481 
L 627.131105 -425.161232 
L 628.286724 -425.900994 
L 629.442343 -426.627712 
L 630.597962 -427.341331 
L 631.753581 -428.041795 
L 632.9092 -428.729051 
L 634.064819 -429.403047 
L 635.220438 -430.063731 
L 636.376057 -430.711054 
L 637.531676 -431.344964 
L 638.687294 -431.965414 
L 639.842913 -432.572357 
L 640.998532 -433.165746 
L 642.154151 -433.745536 
L 643.30977 -434.311683 
L 644.465389 -434.864143 
L 645.621008 -435.402874 
L 646.776627 -435.927836 
L 647.932246 -436.438987 
L 649.087865 -436.936289 
L 650.243484 -437.419704 
L 651.399102 -437.889196 
L 652.554721 -438.344727 
L 653.71034 -438.786264 
L 654.865959 -439.213773 
L 656.021578 -439.62722 
L 657.177197 -440.026575 
L 658.332816 -440.411807 
L 659.488435 -440.782887 
L 660.644054 -441.139786 
L 661.799673 -441.482476 
L 662.955292 -441.810933 
L 664.110911 -442.12513 
L 665.266529 -442.425044 
L 666.422148 -442.710652 
L 667.577767 -442.981931 
L 668.733386 -443.238863 
L 669.889005 -443.481425 
L 671.044624 -443.709601 
L 672.200243 -443.923373 
L 673.355862 -444.122724 
L 674.511481 -444.307639 
L 675.6671 -444.478104 
L 676.822719 -444.634106 
L 677.978338 -444.775633 
L 679.133956 -444.902675 
L 680.289575 -445.015221 
L 681.445194 -445.113263 
L 682.600813 -445.196794 
L 683.756432 -445.265807 
L 684.912051 -445.320297 
L 686.06767 -445.360259 
L 687.223289 -445.385691 
L 688.378908 -445.396591 
L 689.534527 -445.392958 
L 690.690146 -445.374791 
L 691.845765 -445.342094 
L 693.001383 -445.294867 
L 694.157002 -445.233115 
L 695.312621 -445.156843 
L 696.46824 -445.066056 
L 697.623859 -444.96076 
L 698.779478 -444.840965 
L 699.935097 -444.70668 
L 701.090716 -444.557914 
L 702.246335 -444.394678 
L 703.401954 -444.216986 
L 704.557573 -444.024852 
L 705.713191 -443.818288 
L 706.86881 -443.597313 
L 708.024429 -443.361941 
L 709.180048 -443.112192 
L 710.335667 -442.848084 
L 711.491286 -442.569638 
L 712.646905 -442.276874 
L 713.802524 -441.969815 
L 714.958143 -441.648485 
L 716.113762 -441.312909 
L 717.269381 -440.96311 
L 718.425 -440.599118 
L 719.580618 -440.220958 
L 720.736237 -439.828661 
L 721.891856 -439.422256 
L 723.047475 -439.001774 
L 724.203094 -438.567247 
L 725.358713 -438.118709 
L 726.514332 -437.656193 
L 727.669951 -437.179735 
L 728.82557 -436.689372 
L 729.981189 -436.18514 
L 731.136808 -435.667079 
L 732.292427 -435.135227 
L 733.448045 -434.589627 
L 734.603664 -434.030318 
L 735.759283 -433.457344 
L 736.914902 -432.870749 
L 738.070521 -432.270577 
L 739.22614 -431.656875 
L 740.381759 -431.029688 
L 741.537378 -430.389066 
L 742.692997 -429.735057 
L 743.848616 -429.06771 
L 745.004235 -428.387077 
L 746.159854 -427.693211 
L 747.315472 -426.986163 
L 748.471091 -426.265987 
L 749.62671 -425.53274 
L 750.782329 -424.786476 
L 751.937948 -424.027254 
L 753.093567 -423.25513 
L 754.249186 -422.470163 
L 755.404805 -421.672415 
L 756.560424 -420.861945 
L 757.716043 -420.038815 
L 758.871662 -419.203089 
L 760.027281 -418.35483 
L 761.182899 -417.494103 
L 762.338518 -416.620974 
L 763.494137 -415.735509 
L 764.649756 -414.837776 
L 765.805375 -413.927843 
L 766.960994 -413.005781 
L 768.116613 -412.071659 
L 769.272232 -411.125549 
L 770.427851 -410.167522 
L 771.58347 -409.197653 
L 772.739089 -408.216016 
L 773.894707 -407.222684 
L 775.050326 -406.217735 
L 776.205945 -405.201244 
L 777.361564 -404.17329 
L 778.517183 -403.13395 
L 779.672802 -402.083305 
L 780.828421 -401.021435 
L 781.98404 -399.94842 
L 783.139659 -398.864343 
L 784.295278 -397.769286 
L 785.450897 -396.663333 
L 786.606516 -395.546568 
L 787.762134 -394.419078 
L 788.917753 -393.280947 
L 790.073372 -392.132262 
L 791.228991 -390.973113 
L 792.38461 -389.803586 
L 793.540229 -388.623771 
L 794.695848 -387.433759 
L 795.851467 -386.233641 
L 797.007086 -385.023507 
L 798.162705 -383.80345 
L 799.318324 -382.573564 
L 800.473943 -381.333942 
L 801.629561 -380.08468 
L 802.78518 -378.825872 
L 803.940799 -377.557614 
L 805.096418 -376.280004 
L 806.252037 -374.993139 
L 807.407656 -373.697118 
L 808.563275 -372.392038 
L 809.718894 -371.078001 
L 810.874513 -369.755105 
L 812.030132 -368.423454 
L 813.185751 -367.083147 
L 814.34137 -365.734287 
L 815.496988 -364.376978 
L 816.652607 -363.011323 
L 817.808226 -361.637426 
L 818.963845 -360.255393 
L 820.119464 -358.865328 
L 821.275083 -357.467338 
L 822.430702 -356.06153 
L 823.586321 -354.64801 
L 824.74194 -353.226888 
L 825.897559 -351.798271 
L 827.053178 -350.362269 
L 828.208797 -348.918991 
L 829.364415 -347.468548 
L 830.520034 -346.01105 
L 831.675653 -344.546608 
L 832.831272 -343.075335 
L 833.986891 -341.597343 
L 835.14251 -340.112744 
L 836.298129 -338.621652 
L 837.453748 -337.124181 
L 838.609367 -335.620445 
L 839.764986 -334.110559 
L 840.920605 -332.594639 
L 842.076223 -331.072799 
L 843.231842 -329.545157 
L 844.387461 -328.011829 
L 845.54308 -326.472932 
L 846.698699 -324.928584 
L 847.854318 -323.378902 
L 849.009937 -321.824005 
L 850.165556 -320.264011 
L 851.321175 -318.699041 
L 852.476794 -317.129212 
L 853.632413 -315.554646 
L 854.788032 -313.975462 
L 855.94365 -312.391781 
L 857.099269 -310.803724 
L 858.254888 -309.211412 
L 859.410507 -307.614967 
L 860.566126 -306.014511 
L 861.721745 -304.410165 
L 862.877364 -302.802053 
L 864.032983 -301.190297 
L 865.188602 -299.575021 
L 866.344221 -297.956347 
L 867.49984 -296.334399 
L 868.655459 -294.709302 
L 869.811077 -293.081179 
L 870.966696 -291.450154 
L 872.122315 -289.816353 
L 873.277934 -288.179899 
L 874.433553 -286.540919 
L 875.589172 -284.899536 
L 876.744791 -283.255877 
L 877.90041 -281.610067 
L 879.056029 -279.962231 
L 880.211648 -278.312495 
L 881.367267 -276.660987 
L 882.522886 -275.00783 
L 883.678504 -273.353152 
L 884.834123 -271.69708 
L 885.989742 -270.039739 
L 887.145361 -268.381256 
L 888.30098 -266.721758 
L 889.456599 -265.061372 
L 890.612218 -263.400224 
L 891.767837 -261.738441 
L 892.923456 -260.07615 
L 894.079075 -258.413478 
L 895.234694 -256.750553 
L 896.390312 -255.0875 
L 896.390312 -255.0875 
L 896.390312 -255.0875 
L 895.234694 -255.0875 
L 894.079075 -255.0875 
L 892.923456 -255.0875 
L 891.767837 -255.0875 
L 890.612218 -255.0875 
L 889.456599 -255.0875 
L 888.30098 -255.0875 
L 887.145361 -255.0875 
L 885.989742 -255.0875 
L 884.834123 -255.0875 
L 883.678504 -255.0875 
L 882.522886 -255.0875 
L 881.367267 -255.0875 
L 880.211648 -255.0875 
L 879.056029 -255.0875 
L 877.90041 -255.0875 
L 876.744791 -255.0875 
L 875.589172 -255.0875 
L 874.433553 -255.0875 
L 873.277934 -255.0875 
L 872.122315 -255.0875 
L 870.966696 -255.0875 
L 869.811077 -255.0875 
L 868.655459 -255.0875 
L 867.49984 -255.0875 
L 866.344221 -255.0875 
L 865.188602 -255.0875 
L 864.032983 -255.0875 
L 862.877364 -255.0875 
L 861.721745 -255.0875 
L 860.566126 -255.0875 
L 859.410507 -255.0875 
L 858.254888 -255.0875 
L 857.099269 -255.0875 
L 855.94365 -255.0875 
L 854.788032 -255.0875 
L 853.632413 -255.0875 
L 852.476794 -255.0875 
L 851.321175 -255.0875 
L 850.165556 -255.0875 
L 849.009937 -255.0875 
L 847.854318 -255.0875 
L 846.698699 -255.0875 
L 845.54308 -255.0875 
L 844.387461 -255.0875 
L 843.231842 -255.0875 
L 842.076223 -255.0875 
L 840.920605 -255.0875 
L 839.764986 -255.0875 
L 838.609367 -255.0875 
L 837.453748 -255.0875 
L 836.298129 -255.0875 
L 835.14251 -255.0875 
L 833.986891 -255.0875 
L 832.831272 -255.0875 
L 831.675653 -255.0875 
L 830.520034 -255.0875 
L 829.364415 -255.0875 
L 828.208797 -255.0875 
L 827.053178 -255.0875 
L 825.897559 -255.0875 
L 824.74194 -255.0875 
L 823.586321 -255.0875 
L 822.430702 -255.0875 
L 821.275083 -255.0875 
L 820.119464 -255.0875 
L 818.963845 -255.0875 
L 817.808226 -255.0875 
L 816.652607 -255.0875 
L 815.496988 -255.0875 
L 814.34137 -255.0875 
L 813.185751 -255.0875 
L 812.030132 -255.0875 
L 810.874513 -255.0875 
L 809.718894 -255.0875 
L 808.563275 -255.0875 
L 807.407656 -255.0875 
L 806.252037 -255.0875 
L 805.096418 -255.0875 
L 803.940799 -255.0875 
L 802.78518 -255.0875 
L 801.629561 -255.0875 
L 800.473943 -255.0875 
L 799.318324 -255.0875 
L 798.162705 -255.0875 
L 797.007086 -255.0875 
L 795.851467 -255.0875 
L 794.695848 -255.0875 
L 793.540229 -255.0875 
L 792.38461 -255.0875 
L 791.228991 -255.0875 
L 790.073372 -255.0875 
L 788.917753 -255.0875 
L 787.762134 -255.0875 
L 786.606516 -255.0875 
L 785.450897 -255.0875 
L 784.295278 -255.0875 
L 783.139659 -255.0875 
L 781.98404 -255.0875 
L 780.828421 -255.0875 
L 779.672802 -255.0875 
L 778.517183 -255.0875 
L 777.361564 -255.0875 
L 776.205945 -255.0875 
L 775.050326 -255.0875 
L 773.894707 -255.0875 
L 772.739089 -255.0875 
L 771.58347 -255.0875 
L 770.427851 -255.0875 
L 769.272232 -255.0875 
L 768.116613 -255.0875 
L 766.960994 -255.0875 
L 765.805375 -255.0875 
L 764.649756 -255.0875 
L 763.494137 -255.0875 
L 762.338518 -255.0875 
L 761.182899 -255.0875 
L 760.027281 -255.0875 
L 758.871662 -255.0875 
L 757.716043 -255.0875 
L 756.560424 -255.0875 
L 755.404805 -255.0875 
L 754.249186 -255.0875 
L 753.093567 -255.0875 
L 751.937948 -255.0875 
L 750.782329 -255.0875 
L 749.62671 -255.0875 
L 748.471091 -255.0875 
L 747.315472 -255.0875 
L 746.159854 -255.0875 
L 745.004235 -255.0875 
L 743.848616 -255.0875 
L 742.692997 -255.0875 
L 741.537378 -255.0875 
L 740.381759 -255.0875 
L 739.22614 -255.0875 
L 738.070521 -255.0875 
L 736.914902 -255.0875 
L 735.759283 -255.0875 
L 734.603664 -255.0875 
L 733.448045 -255.0875 
L 732.292427 -255.0875 
L 731.136808 -255.0875 
L 729.981189 -255.0875 
L 728.82557 -255.0875 
L 727.669951 -255.0875 
L 726.514332 -255.0875 
L 725.358713 -255.0875 
L 724.203094 -255.0875 
L 723.047475 -255.0875 
L 721.891856 -255.0875 
L 720.736237 -255.0875 
L 719.580618 -255.0875 
L 718.425 -255.0875 
L 717.269381 -255.0875 
L 716.113762 -255.0875 
L 714.958143 -255.0875 
L 713.802524 -255.0875 
L 712.646905 -255.0875 
L 711.491286 -255.0875 
L 710.335667 -255.0875 
L 709.180048 -255.0875 
L 708.024429 -255.0875 
L 706.86881 -255.0875 
L 705.713191 -255.0875 
L 704.557573 -255.0875 
L 703.401954 -255.0875 
L 702.246335 -255.0875 
L 701.090716 -255.0875 
L 699.935097 -255.0875 
L 698.779478 -255.0875 
L 697.623859 -255.0875 
L 696.46824 -255.0875 
L 695.312621 -255.0875 
L 694.157002 -255.0875 
L 693.001383 -255.0875 
L 691.845765 -255.0875 
L 690.690146 -255.0875 
L 689.534527 -255.0875 
L 688.378908 -255.0875 
L 687.223289 -255.0875 
L 686.06767 -255.0875 
L 684.912051 -255.0875 
L 683.756432 -255.0875 
L 682.600813 -255.0875 
L 681.445194 -255.0875 
L 680.289575 -255.0875 
L 679.133956 -255.0875 
L 677.978338 -255.0875 
L 676.822719 -255.0875 
L 675.6671 -255.0875 
L 674.511481 -255.0875 
L 673.355862 -255.0875 
L 672.200243 -255.0875 
L 671.044624 -255.0875 
L 669.889005 -255.0875 
L 668.733386 -255.0875 
L 667.577767 -255.0875 
L 666.422148 -255.0875 
L 665.266529 -255.0875 
L 664.110911 -255.0875 
L 662.955292 -255.0875 
L 661.799673 -255.0875 
L 660.644054 -255.0875 
L 659.488435 -255.0875 
L 658.332816 -255.0875 
L 657.177197 -255.0875 
L 656.021578 -255.0875 
L 654.865959 -255.0875 
L 653.71034 -255.0875 
L 652.554721 -255.0875 
L 651.399102 -255.0875 
L 650.243484 -255.0875 
L 649.087865 -255.0875 
L 647.932246 -255.0875 
L 646.776627 -255.0875 
L 645.621008 -255.0875 
L 644.465389 -255.0875 
L 643.30977 -255.0875 
L 642.154151 -255.0875 
L 640.998532 -255.0875 
L 639.842913 -255.0875 
L 638.687294 -255.0875 
L 637.531676 -255.0875 
L 636.376057 -255.0875 
L 635.220438 -255.0875 
L 634.064819 -255.0875 
L 632.9092 -255.0875 
L 631.753581 -255.0875 
L 630.597962 -255.0875 
L 629.442343 -255.0875 
L 628.286724 -255.0875 
L 627.131105 -255.0875 
L 625.975486 -255.0875 
L 624.819867 -255.0875 
L 623.664249 -255.0875 
L 622.50863 -255.0875 
L 621.353011 -255.0875 
L 620.197392 -255.0875 
L 619.041773 -255.0875 
L 617.886154 -255.0875 
L 616.730535 -255.0875 
L 615.574916 -255.0875 
L 614.419297 -255.0875 
L 613.263678 -255.0875 
L 612.108059 -255.0875 
L 610.95244 -255.0875 
L 609.796822 -255.0875 
L 608.641203 -255.0875 
L 607.485584 -255.0875 
L 606.329965 -255.0875 
L 605.174346 -255.0875 
L 604.018727 -255.0875 
L 602.863108 -255.0875 
L 601.707489 -255.0875 
L 600.55187 -255.0875 
L 599.396251 -255.0875 
L 598.240632 -255.0875 
L 597.085013 -255.0875 
L 595.929395 -255.0875 
L 594.773776 -255.0875 
L 593.618157 -255.0875 
L 592.462538 -255.0875 
L 591.306919 -255.0875 
L 590.1513 -255.0875 
L 588.995681 -255.0875 
L 587.840062 -255.0875 
L 586.684443 -255.0875 
L 585.528824 -255.0875 
L 584.373205 -255.0875 
L 583.217586 -255.0875 
L 582.061968 -255.0875 
L 580.906349 -255.0875 
L 579.75073 -255.0875 
L 578.595111 -255.0875 
L 577.439492 -255.0875 
L 576.283873 -255.0875 
L 575.128254 -255.0875 
L 573.972635 -255.0875 
L 572.817016 -255.0875 
L 571.661397 -255.0875 
L 570.505778 -255.0875 
L 569.35016 -255.0875 
L 568.194541 -255.0875 
L 567.038922 -255.0875 
L 565.883303 -255.0875 
L 564.727684 -255.0875 
L 563.572065 -255.0875 
L 562.416446 -255.0875 
L 561.260827 -255.0875 
L 560.105208 -255.0875 
L 558.949589 -255.0875 
L 557.79397 -255.0875 
L 556.638351 -255.0875 
L 555.482733 -255.0875 
L 554.327114 -255.0875 
L 553.171495 -255.0875 
L 552.015876 -255.0875 
L 550.860257 -255.0875 
L 549.704638 -255.0875 
L 548.549019 -255.0875 
L 547.3934 -255.0875 
L 546.237781 -255.0875 
L 545.082162 -255.0875 
L 543.926543 -255.0875 
L 542.770924 -255.0875 
L 541.615306 -255.0875 
L 540.459687 -255.0875 
L 539.304068 -255.0875 
L 538.148449 -255.0875 
L 536.99283 -255.0875 
L 535.837211 -255.0875 
L 534.681592 -255.0875 
L 533.525973 -255.0875 
L 532.370354 -255.0875 
L 531.214735 -255.0875 
L 530.059116 -255.0875 
L 528.903497 -255.0875 
L 527.747879 -255.0875 
L 526.59226 -255.0875 
L 525.436641 -255.0875 
L 524.281022 -255.0875 
L 523.125403 -255.0875 
L 521.969784 -255.0875 
L 520.814165 -255.0875 
L 519.658546 -255.0875 
L 518.502927 -255.0875 
L 517.347308 -255.0875 
L 516.191689 -255.0875 
L 515.03607 -255.0875 
L 513.880452 -255.0875 
L 512.724833 -255.0875 
L 511.569214 -255.0875 
L 510.413595 -255.0875 
L 509.257976 -255.0875 
L 508.102357 -255.0875 
L 506.946738 -255.0875 
L 505.791119 -255.0875 
L 504.6355 -255.0875 
L 503.479881 -255.0875 
L 502.324262 -255.0875 
L 501.168644 -255.0875 
L 500.013025 -255.0875 
L 498.857406 -255.0875 
L 497.701787 -255.0875 
L 496.546168 -255.0875 
L 495.390549 -255.0875 
L 494.23493 -255.0875 
L 493.079311 -255.0875 
L 491.923692 -255.0875 
L 490.768073 -255.0875 
L 489.612454 -255.0875 
L 488.456835 -255.0875 
L 487.301217 -255.0875 
L 486.145598 -255.0875 
L 484.989979 -255.0875 
L 483.83436 -255.0875 
L 482.678741 -255.0875 
L 481.523122 -255.0875 
L 480.367503 -255.0875 
L 479.211884 -255.0875 
L 478.056265 -255.0875 
L 476.900646 -255.0875 
L 475.745027 -255.0875 
L 474.589408 -255.0875 
L 473.43379 -255.0875 
L 472.278171 -255.0875 
L 471.122552 -255.0875 
L 469.966933 -255.0875 
L 468.811314 -255.0875 
L 467.655695 -255.0875 
L 466.500076 -255.0875 
L 465.344457 -255.0875 
L 464.188838 -255.0875 
L 463.033219 -255.0875 
L 461.8776 -255.0875 
L 460.721981 -255.0875 
L 459.566363 -255.0875 
L 458.410744 -255.0875 
L 457.255125 -255.0875 
L 456.099506 -255.0875 
L 454.943887 -255.0875 
L 453.788268 -255.0875 
L 452.632649 -255.0875 
L 451.47703 -255.0875 
L 450.321411 -255.0875 
L 449.165792 -255.0875 
L 448.010173 -255.0875 
L 446.854555 -255.0875 
L 445.698936 -255.0875 
L 444.543317 -255.0875 
L 443.387698 -255.0875 
L 442.232079 -255.0875 
L 441.07646 -255.0875 
L 439.920841 -255.0875 
L 438.765222 -255.0875 
L 437.609603 -255.0875 
L 436.453984 -255.0875 
L 435.298365 -255.0875 
L 434.142746 -255.0875 
L 432.987128 -255.0875 
L 431.831509 -255.0875 
L 430.67589 -255.0875 
L 429.520271 -255.0875 
L 428.364652 -255.0875 
L 427.209033 -255.0875 
L 426.053414 -255.0875 
L 424.897795 -255.0875 
L 423.742176 -255.0875 
L 422.586557 -255.0875 
L 421.430938 -255.0875 
L 420.275319 -255.0875 
L 419.119701 -255.0875 
L 417.964082 -255.0875 
L 416.808463 -255.0875 
L 415.652844 -255.0875 
L 414.497225 -255.0875 
L 413.341606 -255.0875 
L 412.185987 -255.0875 
L 411.030368 -255.0875 
L 409.874749 -255.0875 
L 408.71913 -255.0875 
L 407.563511 -255.0875 
L 406.407892 -255.0875 
L 405.252274 -255.0875 
L 404.096655 -255.0875 
L 402.941036 -255.0875 
L 401.785417 -255.0875 
L 400.629798 -255.0875 
L 399.474179 -255.0875 
L 398.31856 -255.0875 
L 397.162941 -255.0875 
L 396.007322 -255.0875 
L 394.851703 -255.0875 
L 393.696084 -255.0875 
L 392.540465 -255.0875 
L 391.384847 -255.0875 
L 390.229228 -255.0875 
L 389.073609 -255.0875 
L 387.91799 -255.0875 
L 386.762371 -255.0875 
L 385.606752 -255.0875 
L 384.451133 -255.0875 
L 383.295514 -255.0875 
L 382.139895 -255.0875 
L 380.984276 -255.0875 
L 379.828657 -255.0875 
L 378.673039 -255.0875 
L 377.51742 -255.0875 
L 376.361801 -255.0875 
L 375.206182 -255.0875 
L 374.050563 -255.0875 
L 372.894944 -255.0875 
L 371.739325 -255.0875 
L 370.583706 -255.0875 
L 369.428087 -255.0875 
L 368.272468 -255.0875 
L 367.116849 -255.0875 
L 365.96123 -255.0875 
L 364.805612 -255.0875 
L 363.649993 -255.0875 
L 362.494374 -255.0875 
L 361.338755 -255.0875 
L 360.183136 -255.0875 
L 359.027517 -255.0875 
L 357.871898 -255.0875 
L 356.716279 -255.0875 
L 355.56066 -255.0875 
L 354.405041 -255.0875 
L 353.249422 -255.0875 
L 352.093803 -255.0875 
L 350.938185 -255.0875 
L 349.782566 -255.0875 
L 348.626947 -255.0875 
L 347.471328 -255.0875 
L 346.315709 -255.0875 
L 345.16009 -255.0875 
L 344.004471 -255.0875 
L 342.848852 -255.0875 
L 341.693233 -255.0875 
L 340.537614 -255.0875 
L 339.381995 -255.0875 
L 338.226376 -255.0875 
L 337.070758 -255.0875 
L 335.915139 -255.0875 
L 334.75952 -255.0875 
L 333.603901 -255.0875 
L 332.448282 -255.0875 
L 331.292663 -255.0875 
L 330.137044 -255.0875 
L 328.981425 -255.0875 
L 327.825806 -255.0875 
L 326.670187 -255.0875 
L 325.514568 -255.0875 
L 324.358949 -255.0875 
L 323.203331 -255.0875 
L 322.047712 -255.0875 
L 320.892093 -255.0875 
L 319.736474 -255.0875 
L 318.580855 -255.0875 
L 317.425236 -255.0875 
L 316.269617 -255.0875 
L 315.113998 -255.0875 
L 313.958379 -255.0875 
L 312.80276 -255.0875 
L 311.647141 -255.0875 
L 310.491523 -255.0875 
L 309.335904 -255.0875 
L 308.180285 -255.0875 
L 307.024666 -255.0875 
L 305.869047 -255.0875 
L 304.713428 -255.0875 
L 303.557809 -255.0875 
L 302.40219 -255.0875 
L 301.246571 -255.0875 
L 300.090952 -255.0875 
L 298.935333 -255.0875 
L 297.779714 -255.0875 
L 296.624096 -255.0875 
L 295.468477 -255.0875 
L 294.312858 -255.0875 
L 293.157239 -255.0875 
L 292.00162 -255.0875 
L 290.846001 -255.0875 
L 289.690382 -255.0875 
L 288.534763 -255.0875 
L 287.379144 -255.0875 
L 286.223525 -255.0875 
L 285.067906 -255.0875 
L 283.912287 -255.0875 
L 282.756669 -255.0875 
L 281.60105 -255.0875 
L 280.445431 -255.0875 
L 279.289812 -255.0875 
L 278.134193 -255.0875 
L 276.978574 -255.0875 
L 275.822955 -255.0875 
L 274.667336 -255.0875 
L 273.511717 -255.0875 
L 272.356098 -255.0875 
L 271.200479 -255.0875 
L 270.04486 -255.0875 
L 268.889242 -255.0875 
L 267.733623 -255.0875 
L 266.578004 -255.0875 
L 265.422385 -255.0875 
L 264.266766 -255.0875 
L 263.111147 -255.0875 
L 261.955528 -255.0875 
L 260.799909 -255.0875 
L 259.64429 -255.0875 
L 258.488671 -255.0875 
L 257.333052 -255.0875 
L 256.177434 -255.0875 
L 255.021815 -255.0875 
L 253.866196 -255.0875 
L 252.710577 -255.0875 
L 251.554958 -255.0875 
L 250.399339 -255.0875 
L 249.24372 -255.0875 
L 248.088101 -255.0875 
L 246.932482 -255.0875 
L 245.776863 -255.0875 
L 244.621244 -255.0875 
L 243.465625 -255.0875 
L 242.310007 -255.0875 
L 241.154388 -255.0875 
L 239.998769 -255.0875 
L 238.84315 -255.0875 
L 237.687531 -255.0875 
L 236.531912 -255.0875 
L 235.376293 -255.0875 
L 234.220674 -255.0875 
L 233.065055 -255.0875 
L 231.909436 -255.0875 
L 230.753817 -255.0875 
L 229.598198 -255.0875 
L 228.44258 -255.0875 
L 227.286961 -255.0875 
L 226.131342 -255.0875 
L 224.975723 -255.0875 
L 223.820104 -255.0875 
L 222.664485 -255.0875 
L 221.508866 -255.0875 
L 220.353247 -255.0875 
L 219.197628 -255.0875 
L 218.042009 -255.0875 
L 216.88639 -255.0875 
L 215.730771 -255.0875 
L 214.575153 -255.0875 
L 213.419534 -255.0875 
L 212.263915 -255.0875 
L 211.108296 -255.0875 
L 209.952677 -255.0875 
L 208.797058 -255.0875 
L 207.641439 -255.0875 
L 206.48582 -255.0875 
L 205.330201 -255.0875 
L 204.174582 -255.0875 
L 203.018963 -255.0875 
L 201.863344 -255.0875 
L 200.707726 -255.0875 
L 199.552107 -255.0875 
L 198.396488 -255.0875 
L 197.240869 -255.0875 
L 196.08525 -255.0875 
L 194.929631 -255.0875 
L 193.774012 -255.0875 
L 192.618393 -255.0875 
L 191.462774 -255.0875 
L 190.307155 -255.0875 
L 189.151536 -255.0875 
L 187.995918 -255.0875 
L 186.840299 -255.0875 
L 185.68468 -255.0875 
L 184.529061 -255.0875 
L 183.373442 -255.0875 
L 182.217823 -255.0875 
L 181.062204 -255.0875 
L 179.906585 -255.0875 
L 178.750966 -255.0875 
L 177.595347 -255.0875 
L 176.439728 -255.0875 
L 175.284109 -255.0875 
L 174.128491 -255.0875 
L 172.972872 -255.0875 
L 171.817253 -255.0875 
L 170.661634 -255.0875 
L 169.506015 -255.0875 
L 168.350396 -255.0875 
L 167.194777 -255.0875 
L 166.039158 -255.0875 
L 164.883539 -255.0875 
L 163.72792 -255.0875 
L 162.572301 -255.0875 
L 161.416682 -255.0875 
L 160.261064 -255.0875 
L 159.105445 -255.0875 
L 157.949826 -255.0875 
L 156.794207 -255.0875 
L 155.638588 -255.0875 
L 154.482969 -255.0875 
L 153.32735 -255.0875 
L 152.171731 -255.0875 
L 151.016112 -255.0875 
L 149.860493 -255.0875 
L 148.704874 -255.0875 
L 147.549255 -255.0875 
L 146.393637 -255.0875 
L 145.238018 -255.0875 
L 144.082399 -255.0875 
L 142.92678 -255.0875 
L 141.771161 -255.0875 
L 140.615542 -255.0875 
L 139.459923 -255.0875 
L 138.304304 -255.0875 
L 137.148685 -255.0875 
L 135.993066 -255.0875 
L 134.837447 -255.0875 
L 133.681828 -255.0875 
L 132.52621 -255.0875 
L 131.370591 -255.0875 
L 130.214972 -255.0875 
L 129.059353 -255.0875 
L 127.903734 -255.0875 
L 126.748115 -255.0875 
L 125.592496 -255.0875 
L 124.436877 -255.0875 
L 123.281258 -255.0875 
L 122.125639 -255.0875 
L 120.97002 -255.0875 
L 119.814402 -255.0875 
L 118.658783 -255.0875 
L 117.503164 -255.0875 
L 116.347545 -255.0875 
L 115.191926 -255.0875 
L 114.036307 -255.0875 
L 112.880688 -255.0875 
L 111.725069 -255.0875 
L 110.56945 -255.0875 
L 109.413831 -255.0875 
L 108.258212 -255.0875 
L 107.102593 -255.0875 
L 105.946975 -255.0875 
L 104.791356 -255.0875 
L 103.635737 -255.0875 
L 102.480118 -255.0875 
L 101.324499 -255.0875 
L 100.16888 -255.0875 
L 99.013261 -255.0875 
L 97.857642 -255.0875 
L 96.702023 -255.0875 
L 95.546404 -255.0875 
L 94.390785 -255.0875 
L 93.235166 -255.0875 
L 92.079548 -255.0875 
L 90.923929 -255.0875 
L 89.76831 -255.0875 
L 88.612691 -255.0875 
L 87.457072 -255.0875 
L 86.301453 -255.0875 
L 85.145834 -255.0875 
L 83.990215 -255.0875 
L 82.834596 -255.0875 
L 81.678977 -255.0875 
L 80.523358 -255.0875 
L 79.367739 -255.0875 
L 78.212121 -255.0875 
L 77.056502 -255.0875 
L 75.900883 -255.0875 
L 74.745264 -255.0875 
L 73.589645 -255.0875 
L 72.434026 -255.0875 
L 71.278407 -255.0875 
L 70.122788 -255.0875 
L 68.967169 -255.0875 
L 67.81155 -255.0875 
L 66.655931 -255.0875 
L 65.500313 -255.0875 
z
" style="stroke: #a3583c; stroke-opacity: 0.08"/>
    </defs>
    <g clip-path="url(#p9c027eccbb)">
     <use xlink:href="#me5b4fe7c65" x="0" y="499.624687" style="fill: #a3583c; fill-opacity: 0.08; stroke: #a3583c; stroke-opacity: 0.08"/>
    </g>
   </g>
   <g id="matplotlib.axis_1">
    <g id="xtick_1">
     <g id="line2d_1">
      <path d="M 65.500313 453.877187 
L 65.500313 35.197187 
" clip-path="url(#p9c027eccbb)" style="fill: none; stroke: #d9cbb6; stroke-opacity: 0.45; stroke-width: 0.8; stroke-linecap: square"/>
     </g>
     <g id="line2d_2">
      <defs>
       <path id="m5c3cdb37f9" d="M 0 0 
L 0 3.5 
" style="stroke: #756a5d; stroke-width: 0.8"/>
      </defs>
      <g>
       <use xlink:href="#m5c3cdb37f9" x="65.500313" y="453.877187" style="fill: #756a5d; stroke: #756a5d; stroke-width: 0.8"/>
      </g>
     </g>
     <g id="text_1">
      <text style="font-size: 11px; font-family: 'DejaVu Serif'; text-anchor: middle; fill: #756a5d" x="65.500313" y="469.235469" transform="rotate(-0 65.500313 469.235469)">0.0</text>
     </g>
    </g>
    <g id="xtick_2">
     <g id="line2d_3">
      <path d="M 231.678313 453.877187 
L 231.678313 35.197187 
" clip-path="url(#p9c027eccbb)" style="fill: none; stroke: #d9cbb6; stroke-opacity: 0.45; stroke-width: 0.8; stroke-linecap: square"/>
     </g>
     <g id="line2d_4">
      <g>
       <use xlink:href="#m5c3cdb37f9" x="231.678313" y="453.877187" style="fill: #756a5d; stroke: #756a5d; stroke-width: 0.8"/>
      </g>
     </g>
     <g id="text_2">
      <text style="font-size: 11px; font-family: 'DejaVu Serif'; text-anchor: middle; fill: #756a5d" x="231.678313" y="469.235469" transform="rotate(-0 231.678313 469.235469)">0.2</text>
     </g>
    </g>
    <g id="xtick_3">
     <g id="line2d_5">
      <path d="M 397.856313 453.877187 
L 397.856313 35.197187 
" clip-path="url(#p9c027eccbb)" style="fill: none; stroke: #d9cbb6; stroke-opacity: 0.45; stroke-width: 0.8; stroke-linecap: square"/>
     </g>
     <g id="line2d_6">
      <g>
       <use xlink:href="#m5c3cdb37f9" x="397.856313" y="453.877187" style="fill: #756a5d; stroke: #756a5d; stroke-width: 0.8"/>
      </g>
     </g>
     <g id="text_3">
      <text style="font-size: 11px; font-family: 'DejaVu Serif'; text-anchor: middle; fill: #756a5d" x="397.856313" y="469.235469" transform="rotate(-0 397.856313 469.235469)">0.4</text>
     </g>
    </g>
    <g id="xtick_4">
     <g id="line2d_7">
      <path d="M 564.034312 453.877187 
L 564.034312 35.197187 
" clip-path="url(#p9c027eccbb)" style="fill: none; stroke: #d9cbb6; stroke-opacity: 0.45; stroke-width: 0.8; stroke-linecap: square"/>
     </g>
     <g id="line2d_8">
      <g>
       <use xlink:href="#m5c3cdb37f9" x="564.034312" y="453.877187" style="fill: #756a5d; stroke: #756a5d; stroke-width: 0.8"/>
      </g>
     </g>
     <g id="text_4">
      <text style="font-size: 11px; font-family: 'DejaVu Serif'; text-anchor: middle; fill: #756a5d" x="564.034312" y="469.235469" transform="rotate(-0 564.034312 469.235469)">0.6</text>
     </g>
    </g>
    <g id="xtick_5">
     <g id="line2d_9">
      <path d="M 730.212313 453.877187 
L 730.212313 35.197187 
" clip-path="url(#p9c027eccbb)" style="fill: none; stroke: #d9cbb6; stroke-opacity: 0.45; stroke-width: 0.8; stroke-linecap: square"/>
     </g>
     <g id="line2d_10">
      <g>
       <use xlink:href="#m5c3cdb37f9" x="730.212313" y="453.877187" style="fill: #756a5d; stroke: #756a5d; stroke-width: 0.8"/>
      </g>
     </g>
     <g id="text_5">
      <text style="font-size: 11px; font-family: 'DejaVu Serif'; text-anchor: middle; fill: #756a5d" x="730.212313" y="469.235469" transform="rotate(-0 730.212313 469.235469)">0.8</text>
     </g>
    </g>
    <g id="xtick_6">
     <g id="line2d_11">
      <path d="M 896.390312 453.877187 
L 896.390312 35.197187 
" clip-path="url(#p9c027eccbb)" style="fill: none; stroke: #d9cbb6; stroke-opacity: 0.45; stroke-width: 0.8; stroke-linecap: square"/>
     </g>
     <g id="line2d_12">
      <g>
       <use xlink:href="#m5c3cdb37f9" x="896.390312" y="453.877187" style="fill: #756a5d; stroke: #756a5d; stroke-width: 0.8"/>
      </g>
     </g>
     <g id="text_6">
      <text style="font-size: 11px; font-family: 'DejaVu Serif'; text-anchor: middle; fill: #756a5d" x="896.390312" y="469.235469" transform="rotate(-0 896.390312 469.235469)">1.0</text>
     </g>
    </g>
    <g id="text_7">
     <text style="font-size: 13px; font-family: 'DejaVu Serif'; text-anchor: middle; fill: #1f1b16" x="480.945312" y="485.401094" transform="rotate(-0 480.945312 485.401094)">Orbital phase</text>
    </g>
   </g>
   <g id="matplotlib.axis_2">
    <g id="ytick_1">
     <g id="line2d_13">
      <path d="M 65.500313 400.432984 
L 896.390312 400.432984 
" clip-path="url(#p9c027eccbb)" style="fill: none; stroke: #d9cbb6; stroke-opacity: 0.45; stroke-width: 0.8; stroke-linecap: square"/>
     </g>
     <g id="line2d_14">
      <defs>
       <path id="mb3319392f3" d="M 0 0 
L -3.5 0 
" style="stroke: #756a5d; stroke-width: 0.8"/>
      </defs>
      <g>
       <use xlink:href="#mb3319392f3" x="65.500313" y="400.432984" style="fill: #756a5d; stroke: #756a5d; stroke-width: 0.8"/>
      </g>
     </g>
     <g id="text_8">
      <text style="font-size: 11px; font-family: 'DejaVu Serif'; text-anchor: end; fill: #756a5d" x="58.500313" y="404.612125" transform="rotate(-0 58.500313 404.612125)">−200</text>
     </g>
    </g>
    <g id="ytick_2">
     <g id="line2d_15">
      <path d="M 65.500313 322.485086 
L 896.390312 322.485086 
" clip-path="url(#p9c027eccbb)" style="fill: none; stroke: #d9cbb6; stroke-opacity: 0.45; stroke-width: 0.8; stroke-linecap: square"/>
     </g>
     <g id="line2d_16">
      <g>
       <use xlink:href="#mb3319392f3" x="65.500313" y="322.485086" style="fill: #756a5d; stroke: #756a5d; stroke-width: 0.8"/>
      </g>
     </g>
     <g id="text_9">
      <text style="font-size: 11px; font-family: 'DejaVu Serif'; text-anchor: end; fill: #756a5d" x="58.500313" y="326.664227" transform="rotate(-0 58.500313 326.664227)">−100</text>
     </g>
    </g>
    <g id="ytick_3">
     <g id="line2d_17">
      <path d="M 65.500313 244.537187 
L 896.390312 244.537187 
" clip-path="url(#p9c027eccbb)" style="fill: none; stroke: #d9cbb6; stroke-opacity: 0.45; stroke-width: 0.8; stroke-linecap: square"/>
     </g>
     <g id="line2d_18">
      <g>
       <use xlink:href="#mb3319392f3" x="65.500313" y="244.537187" style="fill: #756a5d; stroke: #756a5d; stroke-width: 0.8"/>
      </g>
     </g>
     <g id="text_10">
      <text style="font-size: 11px; font-family: 'DejaVu Serif'; text-anchor: end; fill: #756a5d" x="58.500313" y="248.716328" transform="rotate(-0 58.500313 248.716328)">0</text>
     </g>
    </g>
    <g id="ytick_4">
     <g id="line2d_19">
      <path d="M 65.500313 166.589289 
L 896.390312 166.589289 
" clip-path="url(#p9c027eccbb)" style="fill: none; stroke: #d9cbb6; stroke-opacity: 0.45; stroke-width: 0.8; stroke-linecap: square"/>
     </g>
     <g id="line2d_20">
      <g>
       <use xlink:href="#mb3319392f3" x="65.500313" y="166.589289" style="fill: #756a5d; stroke: #756a5d; stroke-width: 0.8"/>
      </g>
     </g>
     <g id="text_11">
      <text style="font-size: 11px; font-family: 'DejaVu Serif'; text-anchor: end; fill: #756a5d" x="58.500313" y="170.76843" transform="rotate(-0 58.500313 170.76843)">100</text>
     </g>
    </g>
    <g id="ytick_5">
     <g id="line2d_21">
      <path d="M 65.500313 88.641391 
L 896.390312 88.641391 
" clip-path="url(#p9c027eccbb)" style="fill: none; stroke: #d9cbb6; stroke-opacity: 0.45; stroke-width: 0.8; stroke-linecap: square"/>
     </g>
     <g id="line2d_22">
      <g>
       <use xlink:href="#mb3319392f3" x="65.500313" y="88.641391" style="fill: #756a5d; stroke: #756a5d; stroke-width: 0.8"/>
      </g>
     </g>
     <g id="text_12">
      <text style="font-size: 11px; font-family: 'DejaVu Serif'; text-anchor: end; fill: #756a5d" x="58.500313" y="92.820531" transform="rotate(-0 58.500313 92.820531)">200</text>
     </g>
    </g>
    <g id="text_13">
     <text style="font-size: 13px; font-family: 'DejaVu Serif'; text-anchor: middle; fill: #1f1b16" x="21.397969" y="244.537187" transform="rotate(-90 21.397969 244.537187)">Stellar radial velocity (m/s)</text>
    </g>
   </g>
   <g id="line2d_23">
    <path d="M 65.500313 244.537187 
L 88.612691 277.629587 
L 101.324499 295.464198 
L 111.725069 309.713699 
L 120.97002 322.044326 
L 130.214972 333.996296 
L 138.304304 344.097698 
L 146.393637 353.826666 
L 153.32735 361.841726 
L 160.261064 369.534367 
L 167.194777 376.883447 
L 174.128491 383.868765 
L 179.906585 389.398107 
L 185.68468 394.650931 
L 191.462774 399.61721 
L 197.240869 404.287463 
L 203.018963 408.652777 
L 208.797058 412.704817 
L 214.575153 416.43585 
L 219.197628 419.184744 
L 223.820104 421.720265 
L 228.44258 424.039314 
L 233.065055 426.139059 
L 237.687531 428.016935 
L 242.310007 429.670646 
L 246.932482 431.098173 
L 251.554958 432.297771 
L 256.177434 433.267976 
L 260.799909 434.007601 
L 265.422385 434.515743 
L 270.04486 434.791781 
L 274.667336 434.835379 
L 279.289812 434.646481 
L 283.912287 434.225321 
L 288.534763 433.572411 
L 293.157239 432.68855 
L 297.779714 431.574818 
L 302.40219 430.232574 
L 307.024666 428.66346 
L 311.647141 426.869392 
L 316.269617 424.852562 
L 320.892093 422.615434 
L 325.514568 420.160741 
L 330.137044 417.491482 
L 334.75952 414.610919 
L 340.537614 410.718454 
L 346.315709 406.508772 
L 352.093803 401.98991 
L 357.871898 397.170494 
L 363.649993 392.059723 
L 369.428087 386.667353 
L 375.206182 381.003678 
L 382.139895 373.8644 
L 389.073609 366.36966 
L 396.007322 358.540055 
L 402.941036 350.397107 
L 411.030368 340.530874 
L 419.119701 330.305549 
L 428.364652 318.228884 
L 437.609603 305.792201 
L 448.010173 291.44631 
L 460.721981 273.527671 
L 479.211884 247.031727 
L 504.6355 210.626238 
L 517.347308 192.809455 
L 527.747879 178.58005 
L 536.99283 166.271342 
L 546.237781 154.344997 
L 554.327114 144.26896 
L 562.416446 134.568005 
L 569.35016 126.578984 
L 576.283873 118.914177 
L 583.217586 111.594653 
L 590.1513 104.640529 
L 595.929395 99.138372 
L 601.707489 93.913761 
L 607.485584 88.976667 
L 613.263678 84.336516 
L 619.041773 80.002165 
L 624.819867 75.981887 
L 630.597962 72.283357 
L 635.220438 69.560956 
L 639.842913 67.05233 
L 644.465389 64.760544 
L 649.087865 62.688398 
L 653.71034 60.838423 
L 658.332816 59.21288 
L 662.955292 57.813755 
L 667.577767 56.642756 
L 672.200243 55.701315 
L 676.822719 54.990582 
L 681.445194 54.511424 
L 686.06767 54.264429 
L 690.690146 54.249896 
L 695.312621 54.467845 
L 699.935097 54.918008 
L 704.557573 55.599836 
L 709.180048 56.512496 
L 713.802524 57.654872 
L 718.425 59.02557 
L 723.047475 60.622914 
L 727.669951 62.444952 
L 732.292427 64.48946 
L 736.914902 66.753939 
L 741.537378 69.235622 
L 746.159854 71.931477 
L 750.782329 74.838211 
L 756.560424 78.762743 
L 762.338518 83.003714 
L 768.116613 87.553029 
L 773.894707 92.402003 
L 779.672802 97.541382 
L 785.450897 102.961355 
L 791.228991 108.651575 
L 798.162705 115.821237 
L 805.096418 123.344683 
L 812.030132 131.201234 
L 818.963845 139.369295 
L 827.053178 149.262418 
L 835.14251 159.511944 
L 844.387461 171.612858 
L 853.632413 184.070042 
L 865.188602 200.049667 
L 879.056029 219.662457 
L 896.390312 244.537187 
L 896.390312 244.537187 
" clip-path="url(#p9c027eccbb)" style="fill: none; stroke: #a3583c; stroke-width: 2.6; stroke-linecap: square"/>
   </g>
   <g id="line2d_24">
    <path d="M 65.500313 244.537187 
L 896.390312 244.537187 
" clip-path="url(#p9c027eccbb)" style="fill: none; stroke-dasharray: 5.365,2.32; stroke-dashoffset: 0; stroke: #9b9184; stroke-opacity: 0.65; stroke-width: 1.45"/>
   </g>
   <g id="patch_3">
    <path d="M 65.500313 453.877187 
L 65.500313 35.197187 
" style="fill: none; stroke: #b9a98f; stroke-width: 0.8; stroke-linejoin: miter; stroke-linecap: square"/>
   </g>
   <g id="patch_4">
    <path d="M 896.390312 453.877187 
L 896.390312 35.197187 
" style="fill: none; stroke: #b9a98f; stroke-width: 0.8; stroke-linejoin: miter; stroke-linecap: square"/>
   </g>
   <g id="patch_5">
    <path d="M 65.500313 453.877187 
L 896.390312 453.877187 
" style="fill: none; stroke: #b9a98f; stroke-width: 0.8; stroke-linejoin: miter; stroke-linecap: square"/>
   </g>
   <g id="patch_6">
    <path d="M 65.500313 35.197187 
L 896.390312 35.197187 
" style="fill: none; stroke: #b9a98f; stroke-width: 0.8; stroke-linejoin: miter; stroke-linecap: square"/>
   </g>
   <g id="text_14">
    <g id="patch_7">
     <path d="M 77.963662 72.760563 
L 351.921788 72.760563 
Q 355.001788 72.760563 355.001788 69.680563 
L 355.001788 56.131188 
Q 355.001788 53.051188 351.921788 53.051188 
L 77.963662 53.051188 
Q 74.883662 53.051188 74.883662 56.131188 
L 74.883662 69.680563 
Q 74.883662 72.760563 77.963662 72.760563 
z
" style="fill: #fffaf0; opacity: 0.88"/>
    </g>
    <text style="font-size: 14px; font-family: 'DejaVu Serif'; text-anchor: start; fill: #756a5d" x="77.963662" y="66.769" transform="rotate(-0 77.963662 66.769)">K ≈ 244 m s^-1 · P ≈ 1.09 d · e = 0.00</text>
   </g>
   <g id="text_15">
    <text style="font-size: 10.5px; font-family: 'DejaVu Serif'; text-anchor: end; fill: #756a5d" x="888.081412" y="443.170619" transform="rotate(-0 888.081412 443.170619)">single-planet Keplerian model</text>
   </g>
   <g id="text_16">
    <text style="font-weight: 700; font-size: 18px; font-family: 'DejaVu Serif'; text-anchor: start; fill: #1f1b16" x="65.500313" y="25.197187" transform="rotate(-0 65.500313 25.197187)">Keplerian RV model — WASP-12 b</text>
   </g>
  </g>
 </g>
 <defs>
  <clipPath id="p9c027eccbb">
   <rect x="65.500313" y="35.197187" width="830.89" height="418.68"/>
  </clipPath>
 </defs>
</svg>
