<?xml version="1.0" encoding="utf-8" standalone="no"?>
<!DOCTYPE svg PUBLIC "-//W3C//DTD SVG 1.1//EN"
  "http://www.w3.org/Graphics/SVG/1.1/DTD/svg11.dtd">
<svg xmlns:xlink="http://www.w3.org/1999/xlink" width="916.754219pt" height="499.624687pt" viewBox="0 0 916.754219 499.624687" xmlns="http://www.w3.org/2000/svg" version="1.1">
 <metadata>
  <rdf:RDF xmlns:dc="http://purl.org/dc/elements/1.1/" xmlns:cc="http://creativecommons.org/ns#" xmlns:rdf="http://www.w3.org/1999/02/22-rdf-syntax-ns#">
   <cc:Work>
    <dc:type rdf:resource="http://purl.org/dc/dcmitype/StillImage"/>
    <dc:date>2026-05-11T11:57:48.302080</dc:date>
    <dc:format>image/svg+xml</dc:format>
    <dc:creator>
     <cc:Agent>
      <dc:title>Matplotlib v3.10.9, https://matplotlib.org/</dc:title>
     </cc:Agent>
    </dc:creator>
   </cc:Work>
  </rdf:RDF>
 </metadata>
 <defs>
  <style type="text/css">*{stroke-linejoin: round; stroke-linecap: butt}</style>
 </defs>
 <g id="figure_1">
  <g id="patch_1">
   <path d="M 0 499.624687 
L 916.754219 499.624687 
L 916.754219 0 
L 0 0 
z
" style="fill: #fffaf0"/>
  </g>
  <g id="axes_1">
   <g id="patch_2">
    <path d="M 61.9975 453.877187 
L 896.4875 453.877187 
L 896.4875 35.197187 
L 61.9975 35.197187 
z
" style="fill: #fffaf0"/>
   </g>
   <g id="FillBetweenPolyCollection_1">
    <defs>
     <path id="me235982a00" d="M 61.9975 -255.0875 
L 61.9975 -255.0875 
L 63.158126 -253.407369 
L 64.318752 -251.72737 
L 65.479378 -250.047636 
L 66.640003 -248.368298 
L 67.800629 -246.68949 
L 68.961255 -245.011342 
L 70.121881 -243.333988 
L 71.282507 -241.657559 
L 72.443133 -239.982188 
L 73.603759 -238.308006 
L 74.764385 -236.635144 
L 75.92501 -234.963736 
L 77.085636 -233.293911 
L 78.246262 -231.625802 
L 79.406888 -229.95954 
L 80.567514 -228.295255 
L 81.72814 -226.633079 
L 82.888766 -224.973143 
L 84.049392 -223.315577 
L 85.210017 -221.660512 
L 86.370643 -220.008077 
L 87.531269 -218.358402 
L 88.691895 -216.711618 
L 89.852521 -215.067853 
L 91.013147 -213.427236 
L 92.173773 -211.789898 
L 93.334398 -210.155965 
L 94.495024 -208.525568 
L 95.65565 -206.898832 
L 96.816276 -205.275888 
L 97.976902 -203.65686 
L 99.137528 -202.041878 
L 100.298154 -200.431066 
L 101.45878 -198.824553 
L 102.619405 -197.222463 
L 103.780031 -195.624923 
L 104.940657 -194.032057 
L 106.101283 -192.443991 
L 107.261909 -190.860848 
L 108.422535 -189.282753 
L 109.583161 -187.70983 
L 110.743787 -186.142201 
L 111.904412 -184.579988 
L 113.065038 -183.023316 
L 114.225664 -181.472304 
L 115.38629 -179.927074 
L 116.546916 -178.387748 
L 117.707542 -176.854445 
L 118.868168 -175.327284 
L 120.028793 -173.806386 
L 121.189419 -172.291869 
L 122.350045 -170.783851 
L 123.510671 -169.28245 
L 124.671297 -167.787783 
L 125.831923 -166.299965 
L 126.992549 -164.819114 
L 128.153175 -163.345344 
L 129.3138 -161.87877 
L 130.474426 -160.419506 
L 131.635052 -158.967666 
L 132.795678 -157.523362 
L 133.956304 -156.086707 
L 135.11693 -154.657812 
L 136.277556 -153.236788 
L 137.438182 -151.823745 
L 138.598807 -150.418793 
L 139.759433 -149.022041 
L 140.920059 -147.633597 
L 142.080685 -146.253569 
L 143.241311 -144.882062 
L 144.401937 -143.519184 
L 145.562563 -142.16504 
L 146.723188 -140.819734 
L 147.883814 -139.48337 
L 149.04444 -138.156051 
L 150.205066 -136.83788 
L 151.365692 -135.528958 
L 152.526318 -134.229386 
L 153.686944 -132.939264 
L 154.84757 -131.658692 
L 156.008195 -130.387767 
L 157.168821 -129.126587 
L 158.329447 -127.87525 
L 159.490073 -126.633851 
L 160.650699 -125.402486 
L 161.811325 -124.181248 
L 162.971951 -122.970231 
L 164.132576 -121.769528 
L 165.293202 -120.579231 
L 166.453828 -119.399431 
L 167.614454 -118.230217 
L 168.77508 -117.071679 
L 169.935706 -115.923905 
L 171.096332 -114.786983 
L 172.256958 -113.660999 
L 173.417583 -112.546039 
L 174.578209 -111.442187 
L 175.738835 -110.349527 
L 176.899461 -109.268142 
L 178.060087 -108.198113 
L 179.220713 -107.139523 
L 180.381339 -106.092451 
L 181.541965 -105.056976 
L 182.70259 -104.033176 
L 183.863216 -103.021128 
L 185.023842 -102.020909 
L 186.184468 -101.032593 
L 187.345094 -100.056256 
L 188.50572 -99.09197 
L 189.666346 -98.139808 
L 190.826971 -97.199841 
L 191.987597 -96.272139 
L 193.148223 -95.356772 
L 194.308849 -94.453808 
L 195.469475 -93.563314 
L 196.630101 -92.685356 
L 197.790727 -91.820001 
L 198.951353 -90.967312 
L 200.111978 -90.127352 
L 201.272604 -89.300183 
L 202.43323 -88.485867 
L 203.593856 -87.684464 
L 204.754482 -86.896033 
L 205.915108 -86.120632 
L 207.075734 -85.358317 
L 208.23636 -84.609146 
L 209.396985 -83.873172 
L 210.557611 -83.150449 
L 211.718237 -82.441031 
L 212.878863 -81.744968 
L 214.039489 -81.062312 
L 215.200115 -80.393111 
L 216.360741 -79.737415 
L 217.521366 -79.095271 
L 218.681992 -78.466724 
L 219.842618 -77.851821 
L 221.003244 -77.250605 
L 222.16387 -76.663119 
L 223.324496 -76.089406 
L 224.485122 -75.529505 
L 225.645748 -74.983457 
L 226.806373 -74.4513 
L 227.966999 -73.933072 
L 229.127625 -73.42881 
L 230.288251 -72.938548 
L 231.448877 -72.46232 
L 232.609503 -72.000161 
L 233.770129 -71.552101 
L 234.930755 -71.118172 
L 236.09138 -70.698403 
L 237.252006 -70.292824 
L 238.412632 -69.901461 
L 239.573258 -69.52434 
L 240.733884 -69.161489 
L 241.89451 -68.812929 
L 243.055136 -68.478685 
L 244.215761 -68.158779 
L 245.376387 -67.853231 
L 246.537013 -67.56206 
L 247.697639 -67.285286 
L 248.858265 -67.022927 
L 250.018891 -66.774997 
L 251.179517 -66.541513 
L 252.340143 -66.322488 
L 253.500768 -66.117936 
L 254.661394 -65.927868 
L 255.82202 -65.752295 
L 256.982646 -65.591227 
L 258.143272 -65.444672 
L 259.303898 -65.312638 
L 260.464524 -65.19513 
L 261.62515 -65.092154 
L 262.785775 -65.003714 
L 263.946401 -64.929812 
L 265.107027 -64.870451 
L 266.267653 -64.825632 
L 267.428279 -64.795353 
L 268.588905 -64.779613 
L 269.749531 -64.778409 
L 270.910156 -64.791738 
L 272.070782 -64.819595 
L 273.231408 -64.861974 
L 274.392034 -64.918867 
L 275.55266 -64.990266 
L 276.713286 -65.076163 
L 277.873912 -65.176546 
L 279.034538 -65.291404 
L 280.195163 -65.420725 
L 281.355789 -65.564495 
L 282.516415 -65.722698 
L 283.677041 -65.89532 
L 284.837667 -66.082343 
L 285.998293 -66.283749 
L 287.158919 -66.499519 
L 288.319545 -66.729633 
L 289.48017 -66.974069 
L 290.640796 -67.232805 
L 291.801422 -67.505818 
L 292.962048 -67.793083 
L 294.122674 -68.094574 
L 295.2833 -68.410266 
L 296.443926 -68.740129 
L 297.604551 -69.084136 
L 298.765177 -69.442257 
L 299.925803 -69.81446 
L 301.086429 -70.200715 
L 302.247055 -70.600987 
L 303.407681 -71.015244 
L 304.568307 -71.443449 
L 305.728933 -71.885567 
L 306.889558 -72.341561 
L 308.050184 -72.811393 
L 309.21081 -73.295024 
L 310.371436 -73.792413 
L 311.532062 -74.303519 
L 312.692688 -74.828301 
L 313.853314 -75.366715 
L 315.013939 -75.918717 
L 316.174565 -76.484261 
L 317.335191 -77.063302 
L 318.495817 -77.655793 
L 319.656443 -78.261685 
L 320.817069 -78.880929 
L 321.977695 -79.513476 
L 323.138321 -80.159273 
L 324.298946 -80.81827 
L 325.459572 -81.490414 
L 326.620198 -82.175649 
L 327.780824 -82.873922 
L 328.94145 -83.585177 
L 330.102076 -84.309357 
L 331.262702 -85.046404 
L 332.423328 -85.79626 
L 333.583953 -86.558865 
L 334.744579 -87.334159 
L 335.905205 -88.12208 
L 337.065831 -88.922567 
L 338.226457 -89.735555 
L 339.387083 -90.560981 
L 340.547709 -91.39878 
L 341.708334 -92.248886 
L 342.86896 -93.111233 
L 344.029586 -93.985752 
L 345.190212 -94.872376 
L 346.350838 -95.771034 
L 347.511464 -96.681658 
L 348.67209 -97.604175 
L 349.832716 -98.538514 
L 350.993341 -99.484602 
L 352.153967 -100.442365 
L 353.314593 -101.41173 
L 354.475219 -102.392621 
L 355.635845 -103.384961 
L 356.796471 -104.388675 
L 357.957097 -105.403684 
L 359.117723 -106.42991 
L 360.278348 -107.467274 
L 361.438974 -108.515695 
L 362.5996 -109.575093 
L 363.760226 -110.645387 
L 364.920852 -111.726493 
L 366.081478 -112.81833 
L 367.242104 -113.920812 
L 368.402729 -115.033856 
L 369.563355 -116.157376 
L 370.723981 -117.291286 
L 371.884607 -118.435499 
L 373.045233 -119.589928 
L 374.205859 -120.754484 
L 375.366485 -121.929079 
L 376.527111 -123.113623 
L 377.687736 -124.308025 
L 378.848362 -125.512195 
L 380.008988 -126.72604 
L 381.169614 -127.949469 
L 382.33024 -129.182388 
L 383.490866 -130.424704 
L 384.651492 -131.676322 
L 385.812118 -132.937147 
L 386.972743 -134.207084 
L 388.133369 -135.486036 
L 389.293995 -136.773907 
L 390.454621 -138.070599 
L 391.615247 -139.376014 
L 392.775873 -140.690053 
L 393.936499 -142.012616 
L 395.097124 -143.343605 
L 396.25775 -144.682918 
L 397.418376 -146.030454 
L 398.579002 -147.386113 
L 399.739628 -148.74979 
L 400.900254 -150.121385 
L 402.06088 -151.500793 
L 403.221506 -152.887911 
L 404.382131 -154.282635 
L 405.542757 -155.684859 
L 406.703383 -157.094478 
L 407.864009 -158.511386 
L 409.024635 -159.935478 
L 410.185261 -161.366645 
L 411.345887 -162.804781 
L 412.506513 -164.249778 
L 413.667138 -165.701528 
L 414.827764 -167.159921 
L 415.98839 -168.624849 
L 417.149016 -170.096202 
L 418.309642 -171.57387 
L 419.470268 -173.057742 
L 420.630894 -174.547707 
L 421.791519 -176.043655 
L 422.952145 -177.545472 
L 424.112771 -179.053048 
L 425.273397 -180.566269 
L 426.434023 -182.085023 
L 427.594649 -183.609196 
L 428.755275 -185.138675 
L 429.915901 -186.673345 
L 431.076526 -188.213093 
L 432.237152 -189.757802 
L 433.397778 -191.307359 
L 434.558404 -192.861648 
L 435.71903 -194.420554 
L 436.879656 -195.983959 
L 438.040282 -197.551748 
L 439.200908 -199.123805 
L 440.361533 -200.700011 
L 441.522159 -202.280251 
L 442.682785 -203.864406 
L 443.843411 -205.452359 
L 445.004037 -207.043992 
L 446.164663 -208.639187 
L 447.325289 -210.237824 
L 448.485914 -211.839787 
L 449.64654 -213.444954 
L 450.807166 -215.053208 
L 451.967792 -216.664429 
L 453.128418 -218.278497 
L 454.289044 -219.895293 
L 455.44967 -221.514696 
L 456.610296 -223.136587 
L 457.770921 -224.760845 
L 458.931547 -226.38735 
L 460.092173 -228.015982 
L 461.252799 -229.646619 
L 462.413425 -231.27914 
L 463.574051 -232.913425 
L 464.734677 -234.549353 
L 465.895303 -236.186802 
L 467.055928 -237.825651 
L 468.216554 -239.465778 
L 469.37718 -241.107063 
L 470.537806 -242.749383 
L 471.698432 -244.392617 
L 472.859058 -246.036643 
L 474.019684 -247.681339 
L 475.180309 -249.326584 
L 476.340935 -250.972255 
L 477.501561 -252.618231 
L 478.662187 -254.26439 
L 479.822813 -255.91061 
L 480.983439 -257.556769 
L 482.144065 -259.202745 
L 483.304691 -260.848416 
L 484.465316 -262.493661 
L 485.625942 -264.138357 
L 486.786568 -265.782383 
L 487.947194 -267.425617 
L 489.10782 -269.067937 
L 490.268446 -270.709222 
L 491.429072 -272.349349 
L 492.589697 -273.988198 
L 493.750323 -275.625647 
L 494.910949 -277.261575 
L 496.071575 -278.89586 
L 497.232201 -280.528381 
L 498.392827 -282.159018 
L 499.553453 -283.78765 
L 500.714079 -285.414155 
L 501.874704 -287.038413 
L 503.03533 -288.660304 
L 504.195956 -290.279707 
L 505.356582 -291.896503 
L 506.517208 -293.510571 
L 507.677834 -295.121792 
L 508.83846 -296.730046 
L 509.999086 -298.335213 
L 511.159711 -299.937176 
L 512.320337 -301.535813 
L 513.480963 -303.131008 
L 514.641589 -304.722641 
L 515.802215 -306.310594 
L 516.962841 -307.894749 
L 518.123467 -309.474989 
L 519.284092 -311.051195 
L 520.444718 -312.623252 
L 521.605344 -314.191041 
L 522.76597 -315.754446 
L 523.926596 -317.313352 
L 525.087222 -318.867641 
L 526.247848 -320.417198 
L 527.408474 -321.961907 
L 528.569099 -323.501655 
L 529.729725 -325.036325 
L 530.890351 -326.565804 
L 532.050977 -328.089977 
L 533.211603 -329.608731 
L 534.372229 -331.121952 
L 535.532855 -332.629528 
L 536.693481 -334.131345 
L 537.854106 -335.627293 
L 539.014732 -337.117258 
L 540.175358 -338.60113 
L 541.335984 -340.078798 
L 542.49661 -341.550151 
L 543.657236 -343.015079 
L 544.817862 -344.473472 
L 545.978487 -345.925222 
L 547.139113 -347.370219 
L 548.299739 -348.808355 
L 549.460365 -350.239522 
L 550.620991 -351.663614 
L 551.781617 -353.080522 
L 552.942243 -354.490141 
L 554.102869 -355.892365 
L 555.263494 -357.287089 
L 556.42412 -358.674207 
L 557.584746 -360.053615 
L 558.745372 -361.42521 
L 559.905998 -362.788887 
L 561.066624 -364.144546 
L 562.22725 -365.492082 
L 563.387876 -366.831395 
L 564.548501 -368.162384 
L 565.709127 -369.484947 
L 566.869753 -370.798986 
L 568.030379 -372.104401 
L 569.191005 -373.401093 
L 570.351631 -374.688964 
L 571.512257 -375.967916 
L 572.672882 -377.237853 
L 573.833508 -378.498678 
L 574.994134 -379.750296 
L 576.15476 -380.992612 
L 577.315386 -382.225531 
L 578.476012 -383.44896 
L 579.636638 -384.662805 
L 580.797264 -385.866975 
L 581.957889 -387.061377 
L 583.118515 -388.245921 
L 584.279141 -389.420516 
L 585.439767 -390.585072 
L 586.600393 -391.739501 
L 587.761019 -392.883714 
L 588.921645 -394.017624 
L 590.082271 -395.141144 
L 591.242896 -396.254188 
L 592.403522 -397.35667 
L 593.564148 -398.448507 
L 594.724774 -399.529613 
L 595.8854 -400.599907 
L 597.046026 -401.659305 
L 598.206652 -402.707726 
L 599.367277 -403.74509 
L 600.527903 -404.771316 
L 601.688529 -405.786325 
L 602.849155 -406.790039 
L 604.009781 -407.782379 
L 605.170407 -408.76327 
L 606.331033 -409.732635 
L 607.491659 -410.690398 
L 608.652284 -411.636486 
L 609.81291 -412.570825 
L 610.973536 -413.493342 
L 612.134162 -414.403966 
L 613.294788 -415.302624 
L 614.455414 -416.189248 
L 615.61604 -417.063767 
L 616.776666 -417.926114 
L 617.937291 -418.77622 
L 619.097917 -419.614019 
L 620.258543 -420.439445 
L 621.419169 -421.252433 
L 622.579795 -422.05292 
L 623.740421 -422.840841 
L 624.901047 -423.616135 
L 626.061672 -424.37874 
L 627.222298 -425.128596 
L 628.382924 -425.865643 
L 629.54355 -426.589823 
L 630.704176 -427.301078 
L 631.864802 -427.999351 
L 633.025428 -428.684586 
L 634.186054 -429.35673 
L 635.346679 -430.015727 
L 636.507305 -430.661524 
L 637.667931 -431.294071 
L 638.828557 -431.913315 
L 639.989183 -432.519207 
L 641.149809 -433.111698 
L 642.310435 -433.690739 
L 643.471061 -434.256283 
L 644.631686 -434.808285 
L 645.792312 -435.346699 
L 646.952938 -435.871481 
L 648.113564 -436.382587 
L 649.27419 -436.879976 
L 650.434816 -437.363607 
L 651.595442 -437.833439 
L 652.756067 -438.289433 
L 653.916693 -438.731551 
L 655.077319 -439.159756 
L 656.237945 -439.574013 
L 657.398571 -439.974285 
L 658.559197 -440.36054 
L 659.719823 -440.732743 
L 660.880449 -441.090864 
L 662.041074 -441.434871 
L 663.2017 -441.764734 
L 664.362326 -442.080426 
L 665.522952 -442.381917 
L 666.683578 -442.669182 
L 667.844204 -442.942195 
L 669.00483 -443.200931 
L 670.165455 -443.445367 
L 671.326081 -443.675481 
L 672.486707 -443.891251 
L 673.647333 -444.092657 
L 674.807959 -444.27968 
L 675.968585 -444.452302 
L 677.129211 -444.610505 
L 678.289837 -444.754275 
L 679.450462 -444.883596 
L 680.611088 -444.998454 
L 681.771714 -445.098837 
L 682.93234 -445.184734 
L 684.092966 -445.256133 
L 685.253592 -445.313026 
L 686.414218 -445.355405 
L 687.574844 -445.383262 
L 688.735469 -445.396591 
L 689.896095 -445.395387 
L 691.056721 -445.379647 
L 692.217347 -445.349368 
L 693.377973 -445.304549 
L 694.538599 -445.245188 
L 695.699225 -445.171286 
L 696.85985 -445.082846 
L 698.020476 -444.97987 
L 699.181102 -444.862362 
L 700.341728 -444.730328 
L 701.502354 -444.583773 
L 702.66298 -444.422705 
L 703.823606 -444.247132 
L 704.984232 -444.057064 
L 706.144857 -443.852512 
L 707.305483 -443.633487 
L 708.466109 -443.400003 
L 709.626735 -443.152073 
L 710.787361 -442.889714 
L 711.947987 -442.61294 
L 713.108613 -442.321769 
L 714.269239 -442.016221 
L 715.429864 -441.696315 
L 716.59049 -441.362071 
L 717.751116 -441.013511 
L 718.911742 -440.65066 
L 720.072368 -440.273539 
L 721.232994 -439.882176 
L 722.39362 -439.476597 
L 723.554245 -439.056828 
L 724.714871 -438.622899 
L 725.875497 -438.174839 
L 727.036123 -437.71268 
L 728.196749 -437.236452 
L 729.357375 -436.74619 
L 730.518001 -436.241928 
L 731.678627 -435.7237 
L 732.839252 -435.191543 
L 733.999878 -434.645495 
L 735.160504 -434.085594 
L 736.32113 -433.511881 
L 737.481756 -432.924395 
L 738.642382 -432.323179 
L 739.803008 -431.708276 
L 740.963634 -431.079729 
L 742.124259 -430.437585 
L 743.284885 -429.781889 
L 744.445511 -429.112688 
L 745.606137 -428.430032 
L 746.766763 -427.733969 
L 747.927389 -427.024551 
L 749.088015 -426.301828 
L 750.24864 -425.565854 
L 751.409266 -424.816683 
L 752.569892 -424.054368 
L 753.730518 -423.278967 
L 754.891144 -422.490536 
L 756.05177 -421.689133 
L 757.212396 -420.874817 
L 758.373022 -420.047648 
L 759.533647 -419.207688 
L 760.694273 -418.354999 
L 761.854899 -417.489644 
L 763.015525 -416.611686 
L 764.176151 -415.721192 
L 765.336777 -414.818228 
L 766.497403 -413.902861 
L 767.658029 -412.975159 
L 768.818654 -412.035192 
L 769.97928 -411.08303 
L 771.139906 -410.118744 
L 772.300532 -409.142407 
L 773.461158 -408.154091 
L 774.621784 -407.153872 
L 775.78241 -406.141824 
L 776.943035 -405.118024 
L 778.103661 -404.082549 
L 779.264287 -403.035477 
L 780.424913 -401.976887 
L 781.585539 -400.906858 
L 782.746165 -399.825473 
L 783.906791 -398.732813 
L 785.067417 -397.628961 
L 786.228042 -396.514001 
L 787.388668 -395.388017 
L 788.549294 -394.251095 
L 789.70992 -393.103321 
L 790.870546 -391.944783 
L 792.031172 -390.775569 
L 793.191798 -389.595769 
L 794.352424 -388.405472 
L 795.513049 -387.204769 
L 796.673675 -385.993752 
L 797.834301 -384.772514 
L 798.994927 -383.541149 
L 800.155553 -382.29975 
L 801.316179 -381.048413 
L 802.476805 -379.787233 
L 803.63743 -378.516308 
L 804.798056 -377.235736 
L 805.958682 -375.945614 
L 807.119308 -374.646042 
L 808.279934 -373.33712 
L 809.44056 -372.018949 
L 810.601186 -370.69163 
L 811.761812 -369.355266 
L 812.922437 -368.00996 
L 814.083063 -366.655816 
L 815.243689 -365.292938 
L 816.404315 -363.921431 
L 817.564941 -362.541403 
L 818.725567 -361.152959 
L 819.886193 -359.756207 
L 821.046818 -358.351255 
L 822.207444 -356.938212 
L 823.36807 -355.517188 
L 824.528696 -354.088293 
L 825.689322 -352.651638 
L 826.849948 -351.207334 
L 828.010574 -349.755494 
L 829.1712 -348.29623 
L 830.331825 -346.829656 
L 831.492451 -345.355886 
L 832.653077 -343.875035 
L 833.813703 -342.387217 
L 834.974329 -340.89255 
L 836.134955 -339.391149 
L 837.295581 -337.883131 
L 838.456207 -336.368614 
L 839.616832 -334.847716 
L 840.777458 -333.320555 
L 841.938084 -331.787252 
L 843.09871 -330.247926 
L 844.259336 -328.702696 
L 845.419962 -327.151684 
L 846.580588 -325.595012 
L 847.741213 -324.032799 
L 848.901839 -322.46517 
L 850.062465 -320.892247 
L 851.223091 -319.314152 
L 852.383717 -317.731009 
L 853.544343 -316.142943 
L 854.704969 -314.550077 
L 855.865595 -312.952537 
L 857.02622 -311.350447 
L 858.186846 -309.743934 
L 859.347472 -308.133122 
L 860.508098 -306.51814 
L 861.668724 -304.899112 
L 862.82935 -303.276168 
L 863.989976 -301.649432 
L 865.150602 -300.019035 
L 866.311227 -298.385102 
L 867.471853 -296.747764 
L 868.632479 -295.107147 
L 869.793105 -293.463382 
L 870.953731 -291.816598 
L 872.114357 -290.166923 
L 873.274983 -288.514488 
L 874.435608 -286.859423 
L 875.596234 -285.201857 
L 876.75686 -283.541921 
L 877.917486 -281.879745 
L 879.078112 -280.21546 
L 880.238738 -278.549198 
L 881.399364 -276.881089 
L 882.55999 -275.211264 
L 883.720615 -273.539856 
L 884.881241 -271.866994 
L 886.041867 -270.192812 
L 887.202493 -268.517441 
L 888.363119 -266.841012 
L 889.523745 -265.163658 
L 890.684371 -263.48551 
L 891.844997 -261.806702 
L 893.005622 -260.127364 
L 894.166248 -258.44763 
L 895.326874 -256.767631 
L 896.4875 -255.0875 
L 896.4875 -255.0875 
L 896.4875 -255.0875 
L 895.326874 -255.0875 
L 894.166248 -255.0875 
L 893.005622 -255.0875 
L 891.844997 -255.0875 
L 890.684371 -255.0875 
L 889.523745 -255.0875 
L 888.363119 -255.0875 
L 887.202493 -255.0875 
L 886.041867 -255.0875 
L 884.881241 -255.0875 
L 883.720615 -255.0875 
L 882.55999 -255.0875 
L 881.399364 -255.0875 
L 880.238738 -255.0875 
L 879.078112 -255.0875 
L 877.917486 -255.0875 
L 876.75686 -255.0875 
L 875.596234 -255.0875 
L 874.435608 -255.0875 
L 873.274983 -255.0875 
L 872.114357 -255.0875 
L 870.953731 -255.0875 
L 869.793105 -255.0875 
L 868.632479 -255.0875 
L 867.471853 -255.0875 
L 866.311227 -255.0875 
L 865.150602 -255.0875 
L 863.989976 -255.0875 
L 862.82935 -255.0875 
L 861.668724 -255.0875 
L 860.508098 -255.0875 
L 859.347472 -255.0875 
L 858.186846 -255.0875 
L 857.02622 -255.0875 
L 855.865595 -255.0875 
L 854.704969 -255.0875 
L 853.544343 -255.0875 
L 852.383717 -255.0875 
L 851.223091 -255.0875 
L 850.062465 -255.0875 
L 848.901839 -255.0875 
L 847.741213 -255.0875 
L 846.580588 -255.0875 
L 845.419962 -255.0875 
L 844.259336 -255.0875 
L 843.09871 -255.0875 
L 841.938084 -255.0875 
L 840.777458 -255.0875 
L 839.616832 -255.0875 
L 838.456207 -255.0875 
L 837.295581 -255.0875 
L 836.134955 -255.0875 
L 834.974329 -255.0875 
L 833.813703 -255.0875 
L 832.653077 -255.0875 
L 831.492451 -255.0875 
L 830.331825 -255.0875 
L 829.1712 -255.0875 
L 828.010574 -255.0875 
L 826.849948 -255.0875 
L 825.689322 -255.0875 
L 824.528696 -255.0875 
L 823.36807 -255.0875 
L 822.207444 -255.0875 
L 821.046818 -255.0875 
L 819.886193 -255.0875 
L 818.725567 -255.0875 
L 817.564941 -255.0875 
L 816.404315 -255.0875 
L 815.243689 -255.0875 
L 814.083063 -255.0875 
L 812.922437 -255.0875 
L 811.761812 -255.0875 
L 810.601186 -255.0875 
L 809.44056 -255.0875 
L 808.279934 -255.0875 
L 807.119308 -255.0875 
L 805.958682 -255.0875 
L 804.798056 -255.0875 
L 803.63743 -255.0875 
L 802.476805 -255.0875 
L 801.316179 -255.0875 
L 800.155553 -255.0875 
L 798.994927 -255.0875 
L 797.834301 -255.0875 
L 796.673675 -255.0875 
L 795.513049 -255.0875 
L 794.352424 -255.0875 
L 793.191798 -255.0875 
L 792.031172 -255.0875 
L 790.870546 -255.0875 
L 789.70992 -255.0875 
L 788.549294 -255.0875 
L 787.388668 -255.0875 
L 786.228042 -255.0875 
L 785.067417 -255.0875 
L 783.906791 -255.0875 
L 782.746165 -255.0875 
L 781.585539 -255.0875 
L 780.424913 -255.0875 
L 779.264287 -255.0875 
L 778.103661 -255.0875 
L 776.943035 -255.0875 
L 775.78241 -255.0875 
L 774.621784 -255.0875 
L 773.461158 -255.0875 
L 772.300532 -255.0875 
L 771.139906 -255.0875 
L 769.97928 -255.0875 
L 768.818654 -255.0875 
L 767.658029 -255.0875 
L 766.497403 -255.0875 
L 765.336777 -255.0875 
L 764.176151 -255.0875 
L 763.015525 -255.0875 
L 761.854899 -255.0875 
L 760.694273 -255.0875 
L 759.533647 -255.0875 
L 758.373022 -255.0875 
L 757.212396 -255.0875 
L 756.05177 -255.0875 
L 754.891144 -255.0875 
L 753.730518 -255.0875 
L 752.569892 -255.0875 
L 751.409266 -255.0875 
L 750.24864 -255.0875 
L 749.088015 -255.0875 
L 747.927389 -255.0875 
L 746.766763 -255.0875 
L 745.606137 -255.0875 
L 744.445511 -255.0875 
L 743.284885 -255.0875 
L 742.124259 -255.0875 
L 740.963634 -255.0875 
L 739.803008 -255.0875 
L 738.642382 -255.0875 
L 737.481756 -255.0875 
L 736.32113 -255.0875 
L 735.160504 -255.0875 
L 733.999878 -255.0875 
L 732.839252 -255.0875 
L 731.678627 -255.0875 
L 730.518001 -255.0875 
L 729.357375 -255.0875 
L 728.196749 -255.0875 
L 727.036123 -255.0875 
L 725.875497 -255.0875 
L 724.714871 -255.0875 
L 723.554245 -255.0875 
L 722.39362 -255.0875 
L 721.232994 -255.0875 
L 720.072368 -255.0875 
L 718.911742 -255.0875 
L 717.751116 -255.0875 
L 716.59049 -255.0875 
L 715.429864 -255.0875 
L 714.269239 -255.0875 
L 713.108613 -255.0875 
L 711.947987 -255.0875 
L 710.787361 -255.0875 
L 709.626735 -255.0875 
L 708.466109 -255.0875 
L 707.305483 -255.0875 
L 706.144857 -255.0875 
L 704.984232 -255.0875 
L 703.823606 -255.0875 
L 702.66298 -255.0875 
L 701.502354 -255.0875 
L 700.341728 -255.0875 
L 699.181102 -255.0875 
L 698.020476 -255.0875 
L 696.85985 -255.0875 
L 695.699225 -255.0875 
L 694.538599 -255.0875 
L 693.377973 -255.0875 
L 692.217347 -255.0875 
L 691.056721 -255.0875 
L 689.896095 -255.0875 
L 688.735469 -255.0875 
L 687.574844 -255.0875 
L 686.414218 -255.0875 
L 685.253592 -255.0875 
L 684.092966 -255.0875 
L 682.93234 -255.0875 
L 681.771714 -255.0875 
L 680.611088 -255.0875 
L 679.450462 -255.0875 
L 678.289837 -255.0875 
L 677.129211 -255.0875 
L 675.968585 -255.0875 
L 674.807959 -255.0875 
L 673.647333 -255.0875 
L 672.486707 -255.0875 
L 671.326081 -255.0875 
L 670.165455 -255.0875 
L 669.00483 -255.0875 
L 667.844204 -255.0875 
L 666.683578 -255.0875 
L 665.522952 -255.0875 
L 664.362326 -255.0875 
L 663.2017 -255.0875 
L 662.041074 -255.0875 
L 660.880449 -255.0875 
L 659.719823 -255.0875 
L 658.559197 -255.0875 
L 657.398571 -255.0875 
L 656.237945 -255.0875 
L 655.077319 -255.0875 
L 653.916693 -255.0875 
L 652.756067 -255.0875 
L 651.595442 -255.0875 
L 650.434816 -255.0875 
L 649.27419 -255.0875 
L 648.113564 -255.0875 
L 646.952938 -255.0875 
L 645.792312 -255.0875 
L 644.631686 -255.0875 
L 643.471061 -255.0875 
L 642.310435 -255.0875 
L 641.149809 -255.0875 
L 639.989183 -255.0875 
L 638.828557 -255.0875 
L 637.667931 -255.0875 
L 636.507305 -255.0875 
L 635.346679 -255.0875 
L 634.186054 -255.0875 
L 633.025428 -255.0875 
L 631.864802 -255.0875 
L 630.704176 -255.0875 
L 629.54355 -255.0875 
L 628.382924 -255.0875 
L 627.222298 -255.0875 
L 626.061672 -255.0875 
L 624.901047 -255.0875 
L 623.740421 -255.0875 
L 622.579795 -255.0875 
L 621.419169 -255.0875 
L 620.258543 -255.0875 
L 619.097917 -255.0875 
L 617.937291 -255.0875 
L 616.776666 -255.0875 
L 615.61604 -255.0875 
L 614.455414 -255.0875 
L 613.294788 -255.0875 
L 612.134162 -255.0875 
L 610.973536 -255.0875 
L 609.81291 -255.0875 
L 608.652284 -255.0875 
L 607.491659 -255.0875 
L 606.331033 -255.0875 
L 605.170407 -255.0875 
L 604.009781 -255.0875 
L 602.849155 -255.0875 
L 601.688529 -255.0875 
L 600.527903 -255.0875 
L 599.367277 -255.0875 
L 598.206652 -255.0875 
L 597.046026 -255.0875 
L 595.8854 -255.0875 
L 594.724774 -255.0875 
L 593.564148 -255.0875 
L 592.403522 -255.0875 
L 591.242896 -255.0875 
L 590.082271 -255.0875 
L 588.921645 -255.0875 
L 587.761019 -255.0875 
L 586.600393 -255.0875 
L 585.439767 -255.0875 
L 584.279141 -255.0875 
L 583.118515 -255.0875 
L 581.957889 -255.0875 
L 580.797264 -255.0875 
L 579.636638 -255.0875 
L 578.476012 -255.0875 
L 577.315386 -255.0875 
L 576.15476 -255.0875 
L 574.994134 -255.0875 
L 573.833508 -255.0875 
L 572.672882 -255.0875 
L 571.512257 -255.0875 
L 570.351631 -255.0875 
L 569.191005 -255.0875 
L 568.030379 -255.0875 
L 566.869753 -255.0875 
L 565.709127 -255.0875 
L 564.548501 -255.0875 
L 563.387876 -255.0875 
L 562.22725 -255.0875 
L 561.066624 -255.0875 
L 559.905998 -255.0875 
L 558.745372 -255.0875 
L 557.584746 -255.0875 
L 556.42412 -255.0875 
L 555.263494 -255.0875 
L 554.102869 -255.0875 
L 552.942243 -255.0875 
L 551.781617 -255.0875 
L 550.620991 -255.0875 
L 549.460365 -255.0875 
L 548.299739 -255.0875 
L 547.139113 -255.0875 
L 545.978487 -255.0875 
L 544.817862 -255.0875 
L 543.657236 -255.0875 
L 542.49661 -255.0875 
L 541.335984 -255.0875 
L 540.175358 -255.0875 
L 539.014732 -255.0875 
L 537.854106 -255.0875 
L 536.693481 -255.0875 
L 535.532855 -255.0875 
L 534.372229 -255.0875 
L 533.211603 -255.0875 
L 532.050977 -255.0875 
L 530.890351 -255.0875 
L 529.729725 -255.0875 
L 528.569099 -255.0875 
L 527.408474 -255.0875 
L 526.247848 -255.0875 
L 525.087222 -255.0875 
L 523.926596 -255.0875 
L 522.76597 -255.0875 
L 521.605344 -255.0875 
L 520.444718 -255.0875 
L 519.284092 -255.0875 
L 518.123467 -255.0875 
L 516.962841 -255.0875 
L 515.802215 -255.0875 
L 514.641589 -255.0875 
L 513.480963 -255.0875 
L 512.320337 -255.0875 
L 511.159711 -255.0875 
L 509.999086 -255.0875 
L 508.83846 -255.0875 
L 507.677834 -255.0875 
L 506.517208 -255.0875 
L 505.356582 -255.0875 
L 504.195956 -255.0875 
L 503.03533 -255.0875 
L 501.874704 -255.0875 
L 500.714079 -255.0875 
L 499.553453 -255.0875 
L 498.392827 -255.0875 
L 497.232201 -255.0875 
L 496.071575 -255.0875 
L 494.910949 -255.0875 
L 493.750323 -255.0875 
L 492.589697 -255.0875 
L 491.429072 -255.0875 
L 490.268446 -255.0875 
L 489.10782 -255.0875 
L 487.947194 -255.0875 
L 486.786568 -255.0875 
L 485.625942 -255.0875 
L 484.465316 -255.0875 
L 483.304691 -255.0875 
L 482.144065 -255.0875 
L 480.983439 -255.0875 
L 479.822813 -255.0875 
L 478.662187 -255.0875 
L 477.501561 -255.0875 
L 476.340935 -255.0875 
L 475.180309 -255.0875 
L 474.019684 -255.0875 
L 472.859058 -255.0875 
L 471.698432 -255.0875 
L 470.537806 -255.0875 
L 469.37718 -255.0875 
L 468.216554 -255.0875 
L 467.055928 -255.0875 
L 465.895303 -255.0875 
L 464.734677 -255.0875 
L 463.574051 -255.0875 
L 462.413425 -255.0875 
L 461.252799 -255.0875 
L 460.092173 -255.0875 
L 458.931547 -255.0875 
L 457.770921 -255.0875 
L 456.610296 -255.0875 
L 455.44967 -255.0875 
L 454.289044 -255.0875 
L 453.128418 -255.0875 
L 451.967792 -255.0875 
L 450.807166 -255.0875 
L 449.64654 -255.0875 
L 448.485914 -255.0875 
L 447.325289 -255.0875 
L 446.164663 -255.0875 
L 445.004037 -255.0875 
L 443.843411 -255.0875 
L 442.682785 -255.0875 
L 441.522159 -255.0875 
L 440.361533 -255.0875 
L 439.200908 -255.0875 
L 438.040282 -255.0875 
L 436.879656 -255.0875 
L 435.71903 -255.0875 
L 434.558404 -255.0875 
L 433.397778 -255.0875 
L 432.237152 -255.0875 
L 431.076526 -255.0875 
L 429.915901 -255.0875 
L 428.755275 -255.0875 
L 427.594649 -255.0875 
L 426.434023 -255.0875 
L 425.273397 -255.0875 
L 424.112771 -255.0875 
L 422.952145 -255.0875 
L 421.791519 -255.0875 
L 420.630894 -255.0875 
L 419.470268 -255.0875 
L 418.309642 -255.0875 
L 417.149016 -255.0875 
L 415.98839 -255.0875 
L 414.827764 -255.0875 
L 413.667138 -255.0875 
L 412.506513 -255.0875 
L 411.345887 -255.0875 
L 410.185261 -255.0875 
L 409.024635 -255.0875 
L 407.864009 -255.0875 
L 406.703383 -255.0875 
L 405.542757 -255.0875 
L 404.382131 -255.0875 
L 403.221506 -255.0875 
L 402.06088 -255.0875 
L 400.900254 -255.0875 
L 399.739628 -255.0875 
L 398.579002 -255.0875 
L 397.418376 -255.0875 
L 396.25775 -255.0875 
L 395.097124 -255.0875 
L 393.936499 -255.0875 
L 392.775873 -255.0875 
L 391.615247 -255.0875 
L 390.454621 -255.0875 
L 389.293995 -255.0875 
L 388.133369 -255.0875 
L 386.972743 -255.0875 
L 385.812118 -255.0875 
L 384.651492 -255.0875 
L 383.490866 -255.0875 
L 382.33024 -255.0875 
L 381.169614 -255.0875 
L 380.008988 -255.0875 
L 378.848362 -255.0875 
L 377.687736 -255.0875 
L 376.527111 -255.0875 
L 375.366485 -255.0875 
L 374.205859 -255.0875 
L 373.045233 -255.0875 
L 371.884607 -255.0875 
L 370.723981 -255.0875 
L 369.563355 -255.0875 
L 368.402729 -255.0875 
L 367.242104 -255.0875 
L 366.081478 -255.0875 
L 364.920852 -255.0875 
L 363.760226 -255.0875 
L 362.5996 -255.0875 
L 361.438974 -255.0875 
L 360.278348 -255.0875 
L 359.117723 -255.0875 
L 357.957097 -255.0875 
L 356.796471 -255.0875 
L 355.635845 -255.0875 
L 354.475219 -255.0875 
L 353.314593 -255.0875 
L 352.153967 -255.0875 
L 350.993341 -255.0875 
L 349.832716 -255.0875 
L 348.67209 -255.0875 
L 347.511464 -255.0875 
L 346.350838 -255.0875 
L 345.190212 -255.0875 
L 344.029586 -255.0875 
L 342.86896 -255.0875 
L 341.708334 -255.0875 
L 340.547709 -255.0875 
L 339.387083 -255.0875 
L 338.226457 -255.0875 
L 337.065831 -255.0875 
L 335.905205 -255.0875 
L 334.744579 -255.0875 
L 333.583953 -255.0875 
L 332.423328 -255.0875 
L 331.262702 -255.0875 
L 330.102076 -255.0875 
L 328.94145 -255.0875 
L 327.780824 -255.0875 
L 326.620198 -255.0875 
L 325.459572 -255.0875 
L 324.298946 -255.0875 
L 323.138321 -255.0875 
L 321.977695 -255.0875 
L 320.817069 -255.0875 
L 319.656443 -255.0875 
L 318.495817 -255.0875 
L 317.335191 -255.0875 
L 316.174565 -255.0875 
L 315.013939 -255.0875 
L 313.853314 -255.0875 
L 312.692688 -255.0875 
L 311.532062 -255.0875 
L 310.371436 -255.0875 
L 309.21081 -255.0875 
L 308.050184 -255.0875 
L 306.889558 -255.0875 
L 305.728933 -255.0875 
L 304.568307 -255.0875 
L 303.407681 -255.0875 
L 302.247055 -255.0875 
L 301.086429 -255.0875 
L 299.925803 -255.0875 
L 298.765177 -255.0875 
L 297.604551 -255.0875 
L 296.443926 -255.0875 
L 295.2833 -255.0875 
L 294.122674 -255.0875 
L 292.962048 -255.0875 
L 291.801422 -255.0875 
L 290.640796 -255.0875 
L 289.48017 -255.0875 
L 288.319545 -255.0875 
L 287.158919 -255.0875 
L 285.998293 -255.0875 
L 284.837667 -255.0875 
L 283.677041 -255.0875 
L 282.516415 -255.0875 
L 281.355789 -255.0875 
L 280.195163 -255.0875 
L 279.034538 -255.0875 
L 277.873912 -255.0875 
L 276.713286 -255.0875 
L 275.55266 -255.0875 
L 274.392034 -255.0875 
L 273.231408 -255.0875 
L 272.070782 -255.0875 
L 270.910156 -255.0875 
L 269.749531 -255.0875 
L 268.588905 -255.0875 
L 267.428279 -255.0875 
L 266.267653 -255.0875 
L 265.107027 -255.0875 
L 263.946401 -255.0875 
L 262.785775 -255.0875 
L 261.62515 -255.0875 
L 260.464524 -255.0875 
L 259.303898 -255.0875 
L 258.143272 -255.0875 
L 256.982646 -255.0875 
L 255.82202 -255.0875 
L 254.661394 -255.0875 
L 253.500768 -255.0875 
L 252.340143 -255.0875 
L 251.179517 -255.0875 
L 250.018891 -255.0875 
L 248.858265 -255.0875 
L 247.697639 -255.0875 
L 246.537013 -255.0875 
L 245.376387 -255.0875 
L 244.215761 -255.0875 
L 243.055136 -255.0875 
L 241.89451 -255.0875 
L 240.733884 -255.0875 
L 239.573258 -255.0875 
L 238.412632 -255.0875 
L 237.252006 -255.0875 
L 236.09138 -255.0875 
L 234.930755 -255.0875 
L 233.770129 -255.0875 
L 232.609503 -255.0875 
L 231.448877 -255.0875 
L 230.288251 -255.0875 
L 229.127625 -255.0875 
L 227.966999 -255.0875 
L 226.806373 -255.0875 
L 225.645748 -255.0875 
L 224.485122 -255.0875 
L 223.324496 -255.0875 
L 222.16387 -255.0875 
L 221.003244 -255.0875 
L 219.842618 -255.0875 
L 218.681992 -255.0875 
L 217.521366 -255.0875 
L 216.360741 -255.0875 
L 215.200115 -255.0875 
L 214.039489 -255.0875 
L 212.878863 -255.0875 
L 211.718237 -255.0875 
L 210.557611 -255.0875 
L 209.396985 -255.0875 
L 208.23636 -255.0875 
L 207.075734 -255.0875 
L 205.915108 -255.0875 
L 204.754482 -255.0875 
L 203.593856 -255.0875 
L 202.43323 -255.0875 
L 201.272604 -255.0875 
L 200.111978 -255.0875 
L 198.951353 -255.0875 
L 197.790727 -255.0875 
L 196.630101 -255.0875 
L 195.469475 -255.0875 
L 194.308849 -255.0875 
L 193.148223 -255.0875 
L 191.987597 -255.0875 
L 190.826971 -255.0875 
L 189.666346 -255.0875 
L 188.50572 -255.0875 
L 187.345094 -255.0875 
L 186.184468 -255.0875 
L 185.023842 -255.0875 
L 183.863216 -255.0875 
L 182.70259 -255.0875 
L 181.541965 -255.0875 
L 180.381339 -255.0875 
L 179.220713 -255.0875 
L 178.060087 -255.0875 
L 176.899461 -255.0875 
L 175.738835 -255.0875 
L 174.578209 -255.0875 
L 173.417583 -255.0875 
L 172.256958 -255.0875 
L 171.096332 -255.0875 
L 169.935706 -255.0875 
L 168.77508 -255.0875 
L 167.614454 -255.0875 
L 166.453828 -255.0875 
L 165.293202 -255.0875 
L 164.132576 -255.0875 
L 162.971951 -255.0875 
L 161.811325 -255.0875 
L 160.650699 -255.0875 
L 159.490073 -255.0875 
L 158.329447 -255.0875 
L 157.168821 -255.0875 
L 156.008195 -255.0875 
L 154.84757 -255.0875 
L 153.686944 -255.0875 
L 152.526318 -255.0875 
L 151.365692 -255.0875 
L 150.205066 -255.0875 
L 149.04444 -255.0875 
L 147.883814 -255.0875 
L 146.723188 -255.0875 
L 145.562563 -255.0875 
L 144.401937 -255.0875 
L 143.241311 -255.0875 
L 142.080685 -255.0875 
L 140.920059 -255.0875 
L 139.759433 -255.0875 
L 138.598807 -255.0875 
L 137.438182 -255.0875 
L 136.277556 -255.0875 
L 135.11693 -255.0875 
L 133.956304 -255.0875 
L 132.795678 -255.0875 
L 131.635052 -255.0875 
L 130.474426 -255.0875 
L 129.3138 -255.0875 
L 128.153175 -255.0875 
L 126.992549 -255.0875 
L 125.831923 -255.0875 
L 124.671297 -255.0875 
L 123.510671 -255.0875 
L 122.350045 -255.0875 
L 121.189419 -255.0875 
L 120.028793 -255.0875 
L 118.868168 -255.0875 
L 117.707542 -255.0875 
L 116.546916 -255.0875 
L 115.38629 -255.0875 
L 114.225664 -255.0875 
L 113.065038 -255.0875 
L 111.904412 -255.0875 
L 110.743787 -255.0875 
L 109.583161 -255.0875 
L 108.422535 -255.0875 
L 107.261909 -255.0875 
L 106.101283 -255.0875 
L 104.940657 -255.0875 
L 103.780031 -255.0875 
L 102.619405 -255.0875 
L 101.45878 -255.0875 
L 100.298154 -255.0875 
L 99.137528 -255.0875 
L 97.976902 -255.0875 
L 96.816276 -255.0875 
L 95.65565 -255.0875 
L 94.495024 -255.0875 
L 93.334398 -255.0875 
L 92.173773 -255.0875 
L 91.013147 -255.0875 
L 89.852521 -255.0875 
L 88.691895 -255.0875 
L 87.531269 -255.0875 
L 86.370643 -255.0875 
L 85.210017 -255.0875 
L 84.049392 -255.0875 
L 82.888766 -255.0875 
L 81.72814 -255.0875 
L 80.567514 -255.0875 
L 79.406888 -255.0875 
L 78.246262 -255.0875 
L 77.085636 -255.0875 
L 75.92501 -255.0875 
L 74.764385 -255.0875 
L 73.603759 -255.0875 
L 72.443133 -255.0875 
L 71.282507 -255.0875 
L 70.121881 -255.0875 
L 68.961255 -255.0875 
L 67.800629 -255.0875 
L 66.640003 -255.0875 
L 65.479378 -255.0875 
L 64.318752 -255.0875 
L 63.158126 -255.0875 
L 61.9975 -255.0875 
z
" style="stroke: #a3583c; stroke-opacity: 0.08"/>
    </defs>
    <g clip-path="url(#p4857808179)">
     <use xlink:href="#me235982a00" x="0" y="499.624687" style="fill: #a3583c; fill-opacity: 0.08; stroke: #a3583c; stroke-opacity: 0.08"/>
    </g>
   </g>
   <g id="matplotlib.axis_1">
    <g id="xtick_1">
     <g id="line2d_1">
      <path d="M 61.9975 453.877187 
L 61.9975 35.197187 
" clip-path="url(#p4857808179)" style="fill: none; stroke: #d9cbb6; stroke-opacity: 0.45; stroke-width: 0.8; stroke-linecap: square"/>
     </g>
     <g id="line2d_2">
      <defs>
       <path id="m57a43597df" d="M 0 0 
L 0 3.5 
" style="stroke: #756a5d; stroke-width: 0.8"/>
      </defs>
      <g>
       <use xlink:href="#m57a43597df" x="61.9975" y="453.877187" style="fill: #756a5d; stroke: #756a5d; stroke-width: 0.8"/>
      </g>
     </g>
     <g id="text_1">
      <text style="font-size: 11px; font-family: 'DejaVu Serif'; text-anchor: middle; fill: #756a5d" x="61.9975" y="469.235469" transform="rotate(-0 61.9975 469.235469)">0.0</text>
     </g>
    </g>
    <g id="xtick_2">
     <g id="line2d_3">
      <path d="M 228.8955 453.877187 
L 228.8955 35.197187 
" clip-path="url(#p4857808179)" style="fill: none; stroke: #d9cbb6; stroke-opacity: 0.45; stroke-width: 0.8; stroke-linecap: square"/>
     </g>
     <g id="line2d_4">
      <g>
       <use xlink:href="#m57a43597df" x="228.8955" y="453.877187" style="fill: #756a5d; stroke: #756a5d; stroke-width: 0.8"/>
      </g>
     </g>
     <g id="text_2">
      <text style="font-size: 11px; font-family: 'DejaVu Serif'; text-anchor: middle; fill: #756a5d" x="228.8955" y="469.235469" transform="rotate(-0 228.8955 469.235469)">0.2</text>
     </g>
    </g>
    <g id="xtick_3">
     <g id="line2d_5">
      <path d="M 395.7935 453.877187 
L 395.7935 35.197187 
" clip-path="url(#p4857808179)" style="fill: none; stroke: #d9cbb6; stroke-opacity: 0.45; stroke-width: 0.8; stroke-linecap: square"/>
     </g>
     <g id="line2d_6">
      <g>
       <use xlink:href="#m57a43597df" x="395.7935" y="453.877187" style="fill: #756a5d; stroke: #756a5d; stroke-width: 0.8"/>
      </g>
     </g>
     <g id="text_3">
      <text style="font-size: 11px; font-family: 'DejaVu Serif'; text-anchor: middle; fill: #756a5d" x="395.7935" y="469.235469" transform="rotate(-0 395.7935 469.235469)">0.4</text>
     </g>
    </g>
    <g id="xtick_4">
     <g id="line2d_7">
      <path d="M 562.6915 453.877187 
L 562.6915 35.197187 
" clip-path="url(#p4857808179)" style="fill: none; stroke: #d9cbb6; stroke-opacity: 0.45; stroke-width: 0.8; stroke-linecap: square"/>
     </g>
     <g id="line2d_8">
      <g>
       <use xlink:href="#m57a43597df" x="562.6915" y="453.877187" style="fill: #756a5d; stroke: #756a5d; stroke-width: 0.8"/>
      </g>
     </g>
     <g id="text_4">
      <text style="font-size: 11px; font-family: 'DejaVu Serif'; text-anchor: middle; fill: #756a5d" x="562.6915" y="469.235469" transform="rotate(-0 562.6915 469.235469)">0.6</text>
     </g>
    </g>
    <g id="xtick_5">
     <g id="line2d_9">
      <path d="M 729.5895 453.877187 
L 729.5895 35.197187 
" clip-path="url(#p4857808179)" style="fill: none; stroke: #d9cbb6; stroke-opacity: 0.45; stroke-width: 0.8; stroke-linecap: square"/>
     </g>
     <g id="line2d_10">
      <g>
       <use xlink:href="#m57a43597df" x="729.5895" y="453.877187" style="fill: #756a5d; stroke: #756a5d; stroke-width: 0.8"/>
      </g>
     </g>
     <g id="text_5">
      <text style="font-size: 11px; font-family: 'DejaVu Serif'; text-anchor: middle; fill: #756a5d" x="729.5895" y="469.235469" transform="rotate(-0 729.5895 469.235469)">0.8</text>
     </g>
    </g>
    <g id="xtick_6">
     <g id="line2d_11">
      <path d="M 896.4875 453.877187 
L 896.4875 35.197187 
" clip-path="url(#p4857808179)" style="fill: none; stroke: #d9cbb6; stroke-opacity: 0.45; stroke-width: 0.8; stroke-linecap: square"/>
     </g>
     <g id="line2d_12">
      <g>
       <use xlink:href="#m57a43597df" x="896.4875" y="453.877187" style="fill: #756a5d; stroke: #756a5d; stroke-width: 0.8"/>
      </g>
     </g>
     <g id="text_6">
      <text style="font-size: 11px; font-family: 'DejaVu Serif'; text-anchor: middle; fill: #756a5d" x="896.4875" y="469.235469" transform="rotate(-0 896.4875 469.235469)">1.0</text>
     </g>
    </g>
    <g id="text_7">
     <text style="font-size: 13px; font-family: 'DejaVu Serif'; text-anchor: middle; fill: #1f1b16" x="479.2425" y="485.401094" transform="rotate(-0 479.2425 485.401094)">Orbital phase</text>
    </g>
   </g>
   <g id="matplotlib.axis_2">
    <g id="ytick_1">
     <g id="line2d_13">
      <path d="M 61.9975 402.139034 
L 896.4875 402.139034 
" clip-path="url(#p4857808179)" style="fill: none; stroke: #d9cbb6; stroke-opacity: 0.45; stroke-width: 0.8; stroke-linecap: square"/>
     </g>
     <g id="line2d_14">
      <defs>
       <path id="m69a8352c1e" d="M 0 0 
L -3.5 0 
" style="stroke: #756a5d; stroke-width: 0.8"/>
      </defs>
      <g>
       <use xlink:href="#m69a8352c1e" x="61.9975" y="402.139034" style="fill: #756a5d; stroke: #756a5d; stroke-width: 0.8"/>
      </g>
     </g>
     <g id="text_8">
      <text style="font-size: 11px; font-family: 'DejaVu Serif'; text-anchor: end; fill: #756a5d" x="54.9975" y="406.318174" transform="rotate(-0 54.9975 406.318174)">−1.0</text>
     </g>
    </g>
    <g id="ytick_2">
     <g id="line2d_15">
      <path d="M 61.9975 323.338111 
L 896.4875 323.338111 
" clip-path="url(#p4857808179)" style="fill: none; stroke: #d9cbb6; stroke-opacity: 0.45; stroke-width: 0.8; stroke-linecap: square"/>
     </g>
     <g id="line2d_16">
      <g>
       <use xlink:href="#m69a8352c1e" x="61.9975" y="323.338111" style="fill: #756a5d; stroke: #756a5d; stroke-width: 0.8"/>
      </g>
     </g>
     <g id="text_9">
      <text style="font-size: 11px; font-family: 'DejaVu Serif'; text-anchor: end; fill: #756a5d" x="54.9975" y="327.517251" transform="rotate(-0 54.9975 327.517251)">−0.5</text>
     </g>
    </g>
    <g id="ytick_3">
     <g id="line2d_17">
      <path d="M 61.9975 244.537187 
L 896.4875 244.537187 
" clip-path="url(#p4857808179)" style="fill: none; stroke: #d9cbb6; stroke-opacity: 0.45; stroke-width: 0.8; stroke-linecap: square"/>
     </g>
     <g id="line2d_18">
      <g>
       <use xlink:href="#m69a8352c1e" x="61.9975" y="244.537187" style="fill: #756a5d; stroke: #756a5d; stroke-width: 0.8"/>
      </g>
     </g>
     <g id="text_10">
      <text style="font-size: 11px; font-family: 'DejaVu Serif'; text-anchor: end; fill: #756a5d" x="54.9975" y="248.716328" transform="rotate(-0 54.9975 248.716328)">0.0</text>
     </g>
    </g>
    <g id="ytick_4">
     <g id="line2d_19">
      <path d="M 61.9975 165.736264 
L 896.4875 165.736264 
" clip-path="url(#p4857808179)" style="fill: none; stroke: #d9cbb6; stroke-opacity: 0.45; stroke-width: 0.8; stroke-linecap: square"/>
     </g>
     <g id="line2d_20">
      <g>
       <use xlink:href="#m69a8352c1e" x="61.9975" y="165.736264" style="fill: #756a5d; stroke: #756a5d; stroke-width: 0.8"/>
      </g>
     </g>
     <g id="text_11">
      <text style="font-size: 11px; font-family: 'DejaVu Serif'; text-anchor: end; fill: #756a5d" x="54.9975" y="169.915405" transform="rotate(-0 54.9975 169.915405)">0.5</text>
     </g>
    </g>
    <g id="ytick_5">
     <g id="line2d_21">
      <path d="M 61.9975 86.935341 
L 896.4875 86.935341 
" clip-path="url(#p4857808179)" style="fill: none; stroke: #d9cbb6; stroke-opacity: 0.45; stroke-width: 0.8; stroke-linecap: square"/>
     </g>
     <g id="line2d_22">
      <g>
       <use xlink:href="#m69a8352c1e" x="61.9975" y="86.935341" style="fill: #756a5d; stroke: #756a5d; stroke-width: 0.8"/>
      </g>
     </g>
     <g id="text_12">
      <text style="font-size: 11px; font-family: 'DejaVu Serif'; text-anchor: end; fill: #756a5d" x="54.9975" y="91.114482" transform="rotate(-0 54.9975 91.114482)">1.0</text>
     </g>
    </g>
    <g id="text_13">
     <text style="font-size: 13px; font-family: 'DejaVu Serif'; text-anchor: middle; fill: #1f1b16" x="21.397969" y="244.537187" transform="rotate(-90 21.397969 244.537187)">Stellar radial velocity (m/s)</text>
    </g>
   </g>
   <g id="line2d_23">
    <path d="M 61.9975 244.537187 
L 85.210017 277.964176 
L 97.976902 295.967827 
L 108.422535 310.341934 
L 117.707542 322.770243 
L 126.992549 334.805574 
L 135.11693 344.966876 
L 143.241311 354.742625 
L 150.205066 362.786807 
L 157.168821 370.4981 
L 164.132576 377.855159 
L 169.935706 383.700782 
L 175.738835 389.275161 
L 181.541965 394.567712 
L 187.345094 399.568431 
L 193.148223 404.267916 
L 198.951353 408.657376 
L 204.754482 412.728654 
L 210.557611 416.474238 
L 215.200115 419.231576 
L 219.842618 421.772867 
L 224.485122 424.095183 
L 229.127625 426.195878 
L 233.770129 428.072586 
L 238.412632 429.723227 
L 243.055136 431.146002 
L 247.697639 432.339401 
L 252.340143 433.3022 
L 256.982646 434.03346 
L 261.62515 434.532534 
L 266.267653 434.799056 
L 270.910156 434.832949 
L 275.55266 434.634421 
L 280.195163 434.203962 
L 284.837667 433.542344 
L 289.48017 432.650619 
L 294.122674 431.530113 
L 298.765177 430.182431 
L 303.407681 428.609444 
L 308.050184 426.813294 
L 312.692688 424.796386 
L 317.335191 422.561385 
L 321.977695 420.111212 
L 326.620198 417.449038 
L 332.423328 413.828427 
L 338.226457 409.889133 
L 344.029586 405.638935 
L 349.832716 401.086174 
L 355.635845 396.239726 
L 361.438974 391.108993 
L 367.242104 385.703875 
L 373.045233 380.034759 
L 380.008988 372.898648 
L 386.972743 365.417604 
L 393.936499 357.612071 
L 400.900254 349.503302 
L 409.024635 339.68921 
L 417.149016 329.528486 
L 426.434023 317.539664 
L 436.879656 303.640728 
L 448.485914 287.784901 
L 462.413425 268.345547 
L 486.786568 233.842304 
L 505.356582 207.728184 
L 518.123467 190.149699 
L 528.569099 176.123033 
L 537.854106 163.997395 
L 547.139113 152.254469 
L 555.263494 142.337599 
L 563.387876 132.793292 
L 570.351631 124.935724 
L 577.315386 117.399156 
L 584.279141 110.204172 
L 591.242896 103.3705 
L 597.046026 97.965382 
L 602.849155 92.834649 
L 608.652284 87.988201 
L 614.455414 83.43544 
L 620.258543 79.185242 
L 626.061672 75.245948 
L 631.864802 71.625337 
L 636.507305 68.963163 
L 641.149809 66.51299 
L 645.792312 64.277989 
L 650.434816 62.261081 
L 655.077319 60.464931 
L 659.719823 58.891944 
L 664.362326 57.544262 
L 669.00483 56.423756 
L 673.647333 55.532031 
L 678.289837 54.870413 
L 682.93234 54.439954 
L 687.574844 54.241426 
L 692.217347 54.275319 
L 696.85985 54.541841 
L 701.502354 55.040915 
L 706.144857 55.772175 
L 710.787361 56.734974 
L 715.429864 57.928373 
L 720.072368 59.351148 
L 724.714871 61.001789 
L 729.357375 62.878497 
L 733.999878 64.979192 
L 738.642382 67.301508 
L 743.284885 69.842799 
L 747.927389 72.600137 
L 752.569892 75.570319 
L 758.373022 79.577039 
L 764.176151 83.903495 
L 769.97928 88.541658 
L 775.78241 93.482863 
L 781.585539 98.717829 
L 787.388668 104.236671 
L 793.191798 110.028919 
L 800.155553 117.324938 
L 807.119308 124.978646 
L 814.083063 132.968872 
L 821.046818 141.273433 
L 829.1712 151.328457 
L 837.295581 161.741557 
L 846.580588 174.029676 
L 857.02622 188.274241 
L 868.632479 204.51754 
L 882.55999 224.413423 
L 896.4875 244.537187 
L 896.4875 244.537187 
" clip-path="url(#p4857808179)" style="fill: none; stroke: #a3583c; stroke-width: 2.6; stroke-linecap: square"/>
   </g>
   <g id="line2d_24">
    <path d="M 61.9975 244.537187 
L 896.4875 244.537187 
" clip-path="url(#p4857808179)" style="fill: none; stroke-dasharray: 5.365,2.32; stroke-dashoffset: 0; stroke: #9b9184; stroke-opacity: 0.65; stroke-width: 1.45"/>
   </g>
   <g id="patch_3">
    <path d="M 61.9975 453.877187 
L 61.9975 35.197188 
" style="fill: none; stroke: #b9a98f; stroke-width: 0.8; stroke-linejoin: miter; stroke-linecap: square"/>
   </g>
   <g id="patch_4">
    <path d="M 896.4875 453.877187 
L 896.4875 35.197188 
" style="fill: none; stroke: #b9a98f; stroke-width: 0.8; stroke-linejoin: miter; stroke-linecap: square"/>
   </g>
   <g id="patch_5">
    <path d="M 61.9975 453.877187 
L 896.4875 453.877187 
" style="fill: none; stroke: #b9a98f; stroke-width: 0.8; stroke-linejoin: miter; stroke-linecap: square"/>
   </g>
   <g id="patch_6">
    <path d="M 61.9975 35.197187 
L 896.4875 35.197187 
" style="fill: none; stroke: #b9a98f; stroke-width: 0.8; stroke-linejoin: miter; stroke-linecap: square"/>
   </g>
   <g id="text_14">
    <g id="patch_7">
     <path d="M 74.51485 72.760563 
L 361.82985 72.760563 
Q 364.90985 72.760563 364.90985 69.680563 
L 364.90985 56.131188 
Q 364.90985 53.051188 361.82985 53.051188 
L 74.51485 53.051188 
Q 71.43485 53.051188 71.43485 56.131188 
L 71.43485 69.680563 
Q 71.43485 72.760563 74.51485 72.760563 
z
" style="fill: #fffaf0; opacity: 0.88"/>
    </g>
    <text style="font-size: 14px; font-family: 'DejaVu Serif'; text-anchor: start; fill: #756a5d" x="74.51485" y="66.769" transform="rotate(-0 74.51485 66.769)">K ≈ 1.21 m s^-1 · P ≈ 6.101 d · e = 0.01</text>
   </g>
   <g id="text_15">
    <text style="font-size: 10.5px; font-family: 'DejaVu Serif'; text-anchor: end; fill: #756a5d" x="888.1426" y="443.170619" transform="rotate(-0 888.1426 443.170619)">single-planet Keplerian model</text>
   </g>
   <g id="text_16">
    <text style="font-weight: 700; font-size: 18px; font-family: 'DejaVu Serif'; text-anchor: start; fill: #1f1b16" x="61.9975" y="25.197187" transform="rotate(-0 61.9975 25.197187)">Keplerian RV model — TRAPPIST-1 e</text>
   </g>
  </g>
 </g>
 <defs>
  <clipPath id="p4857808179">
   <rect x="61.9975" y="35.197187" width="834.49" height="418.68"/>
  </clipPath>
 </defs>
</svg>
