<?xml version="1.0" encoding="utf-8" standalone="no"?>
<!DOCTYPE svg PUBLIC "-//W3C//DTD SVG 1.1//EN"
  "http://www.w3.org/Graphics/SVG/1.1/DTD/svg11.dtd">
<svg xmlns:xlink="http://www.w3.org/1999/xlink" width="916.58875pt" height="499.624687pt" viewBox="0 0 916.58875 499.624687" xmlns="http://www.w3.org/2000/svg" version="1.1">
 <metadata>
  <rdf:RDF xmlns:dc="http://purl.org/dc/elements/1.1/" xmlns:cc="http://creativecommons.org/ns#" xmlns:rdf="http://www.w3.org/1999/02/22-rdf-syntax-ns#">
   <cc:Work>
    <dc:type rdf:resource="http://purl.org/dc/dcmitype/StillImage"/>
    <dc:date>2026-05-11T11:57:48.200886</dc:date>
    <dc:format>image/svg+xml</dc:format>
    <dc:creator>
     <cc:Agent>
      <dc:title>Matplotlib v3.10.9, https://matplotlib.org/</dc:title>
     </cc:Agent>
    </dc:creator>
   </cc:Work>
  </rdf:RDF>
 </metadata>
 <defs>
  <style type="text/css">*{stroke-linejoin: round; stroke-linecap: butt}</style>
 </defs>
 <g id="figure_1">
  <g id="patch_1">
   <path d="M 0 499.624687 
L 916.58875 499.624687 
L 916.58875 0 
L 0 0 
z
" style="fill: #fffaf0"/>
  </g>
  <g id="axes_1">
   <g id="patch_2">
    <path d="M 87.58875 453.877187 
L 905.06875 453.877187 
L 905.06875 35.197187 
L 87.58875 35.197187 
z
" style="fill: #fffaf0"/>
   </g>
   <g id="patch_3">
    <path d="M 355.383922 453.877187 
L 637.273578 453.877187 
L 637.273578 35.197187 
L 355.383922 35.197187 
z
" clip-path="url(#pb6bd04c807)" style="fill: #2f6277; opacity: 0.075; stroke: #2f6277; stroke-linejoin: miter"/>
   </g>
   <g id="matplotlib.axis_1">
    <g id="xtick_1">
     <g id="line2d_1">
      <path d="M 193.468511 453.877187 
L 193.468511 35.197187 
" clip-path="url(#pb6bd04c807)" style="fill: none; stroke: #d9cbb6; stroke-opacity: 0.45; stroke-width: 0.8; stroke-linecap: square"/>
     </g>
     <g id="line2d_2">
      <defs>
       <path id="m576211c3c0" d="M 0 0 
L 0 3.5 
" style="stroke: #756a5d; stroke-width: 0.8"/>
      </defs>
      <g>
       <use xlink:href="#m576211c3c0" x="193.468511" y="453.877187" style="fill: #756a5d; stroke: #756a5d; stroke-width: 0.8"/>
      </g>
     </g>
     <g id="text_1">
      <text style="font-size: 11px; font-family: 'DejaVu Serif'; text-anchor: middle; fill: #756a5d" x="193.468511" y="469.235469" transform="rotate(-0 193.468511 469.235469)">−1.0</text>
     </g>
    </g>
    <g id="xtick_2">
     <g id="line2d_3">
      <path d="M 344.898631 453.877187 
L 344.898631 35.197187 
" clip-path="url(#pb6bd04c807)" style="fill: none; stroke: #d9cbb6; stroke-opacity: 0.45; stroke-width: 0.8; stroke-linecap: square"/>
     </g>
     <g id="line2d_4">
      <g>
       <use xlink:href="#m576211c3c0" x="344.898631" y="453.877187" style="fill: #756a5d; stroke: #756a5d; stroke-width: 0.8"/>
      </g>
     </g>
     <g id="text_2">
      <text style="font-size: 11px; font-family: 'DejaVu Serif'; text-anchor: middle; fill: #756a5d" x="344.898631" y="469.235469" transform="rotate(-0 344.898631 469.235469)">−0.5</text>
     </g>
    </g>
    <g id="xtick_3">
     <g id="line2d_5">
      <path d="M 496.32875 453.877187 
L 496.32875 35.197187 
" clip-path="url(#pb6bd04c807)" style="fill: none; stroke: #d9cbb6; stroke-opacity: 0.45; stroke-width: 0.8; stroke-linecap: square"/>
     </g>
     <g id="line2d_6">
      <g>
       <use xlink:href="#m576211c3c0" x="496.32875" y="453.877187" style="fill: #756a5d; stroke: #756a5d; stroke-width: 0.8"/>
      </g>
     </g>
     <g id="text_3">
      <text style="font-size: 11px; font-family: 'DejaVu Serif'; text-anchor: middle; fill: #756a5d" x="496.32875" y="469.235469" transform="rotate(-0 496.32875 469.235469)">0.0</text>
     </g>
    </g>
    <g id="xtick_4">
     <g id="line2d_7">
      <path d="M 647.758869 453.877187 
L 647.758869 35.197187 
" clip-path="url(#pb6bd04c807)" style="fill: none; stroke: #d9cbb6; stroke-opacity: 0.45; stroke-width: 0.8; stroke-linecap: square"/>
     </g>
     <g id="line2d_8">
      <g>
       <use xlink:href="#m576211c3c0" x="647.758869" y="453.877187" style="fill: #756a5d; stroke: #756a5d; stroke-width: 0.8"/>
      </g>
     </g>
     <g id="text_4">
      <text style="font-size: 11px; font-family: 'DejaVu Serif'; text-anchor: middle; fill: #756a5d" x="647.758869" y="469.235469" transform="rotate(-0 647.758869 469.235469)">0.5</text>
     </g>
    </g>
    <g id="xtick_5">
     <g id="line2d_9">
      <path d="M 799.188989 453.877187 
L 799.188989 35.197187 
" clip-path="url(#pb6bd04c807)" style="fill: none; stroke: #d9cbb6; stroke-opacity: 0.45; stroke-width: 0.8; stroke-linecap: square"/>
     </g>
     <g id="line2d_10">
      <g>
       <use xlink:href="#m576211c3c0" x="799.188989" y="453.877187" style="fill: #756a5d; stroke: #756a5d; stroke-width: 0.8"/>
      </g>
     </g>
     <g id="text_5">
      <text style="font-size: 11px; font-family: 'DejaVu Serif'; text-anchor: middle; fill: #756a5d" x="799.188989" y="469.235469" transform="rotate(-0 799.188989 469.235469)">1.0</text>
     </g>
    </g>
    <g id="text_6">
     <text style="font-size: 13px; font-family: 'DejaVu Serif'; text-anchor: middle; fill: #1f1b16" x="496.32875" y="485.401094" transform="rotate(-0 496.32875 485.401094)">Time from mid-transit (hours)</text>
    </g>
   </g>
   <g id="matplotlib.axis_2">
    <g id="ytick_1">
     <g id="line2d_11">
      <path d="M 87.58875 398.425846 
L 905.06875 398.425846 
" clip-path="url(#pb6bd04c807)" style="fill: none; stroke: #d9cbb6; stroke-opacity: 0.45; stroke-width: 0.8; stroke-linecap: square"/>
     </g>
     <g id="line2d_12">
      <defs>
       <path id="m6e48b7cec0" d="M 0 0 
L -3.5 0 
" style="stroke: #756a5d; stroke-width: 0.8"/>
      </defs>
      <g>
       <use xlink:href="#m6e48b7cec0" x="87.58875" y="398.425846" style="fill: #756a5d; stroke: #756a5d; stroke-width: 0.8"/>
      </g>
     </g>
     <g id="text_7">
      <text style="font-size: 11px; font-family: 'DejaVu Serif'; text-anchor: end; fill: #756a5d" x="80.58875" y="402.604986" transform="rotate(-0 80.58875 402.604986)">0.994000</text>
     </g>
    </g>
    <g id="ytick_2">
     <g id="line2d_13">
      <path d="M 87.58875 310.403311 
L 905.06875 310.403311 
" clip-path="url(#pb6bd04c807)" style="fill: none; stroke: #d9cbb6; stroke-opacity: 0.45; stroke-width: 0.8; stroke-linecap: square"/>
     </g>
     <g id="line2d_14">
      <g>
       <use xlink:href="#m6e48b7cec0" x="87.58875" y="310.403311" style="fill: #756a5d; stroke: #756a5d; stroke-width: 0.8"/>
      </g>
     </g>
     <g id="text_8">
      <text style="font-size: 11px; font-family: 'DejaVu Serif'; text-anchor: end; fill: #756a5d" x="80.58875" y="314.582451" transform="rotate(-0 80.58875 314.582451)">0.996000</text>
     </g>
    </g>
    <g id="ytick_3">
     <g id="line2d_15">
      <path d="M 87.58875 222.380775 
L 905.06875 222.380775 
" clip-path="url(#pb6bd04c807)" style="fill: none; stroke: #d9cbb6; stroke-opacity: 0.45; stroke-width: 0.8; stroke-linecap: square"/>
     </g>
     <g id="line2d_16">
      <g>
       <use xlink:href="#m6e48b7cec0" x="87.58875" y="222.380775" style="fill: #756a5d; stroke: #756a5d; stroke-width: 0.8"/>
      </g>
     </g>
     <g id="text_9">
      <text style="font-size: 11px; font-family: 'DejaVu Serif'; text-anchor: end; fill: #756a5d" x="80.58875" y="226.559916" transform="rotate(-0 80.58875 226.559916)">0.998000</text>
     </g>
    </g>
    <g id="ytick_4">
     <g id="line2d_17">
      <path d="M 87.58875 134.35824 
L 905.06875 134.35824 
" clip-path="url(#pb6bd04c807)" style="fill: none; stroke: #d9cbb6; stroke-opacity: 0.45; stroke-width: 0.8; stroke-linecap: square"/>
     </g>
     <g id="line2d_18">
      <g>
       <use xlink:href="#m6e48b7cec0" x="87.58875" y="134.35824" style="fill: #756a5d; stroke: #756a5d; stroke-width: 0.8"/>
      </g>
     </g>
     <g id="text_10">
      <text style="font-size: 11px; font-family: 'DejaVu Serif'; text-anchor: end; fill: #756a5d" x="80.58875" y="138.537381" transform="rotate(-0 80.58875 138.537381)">1.000000</text>
     </g>
    </g>
    <g id="ytick_5">
     <g id="line2d_19">
      <path d="M 87.58875 46.335705 
L 905.06875 46.335705 
" clip-path="url(#pb6bd04c807)" style="fill: none; stroke: #d9cbb6; stroke-opacity: 0.45; stroke-width: 0.8; stroke-linecap: square"/>
     </g>
     <g id="line2d_20">
      <g>
       <use xlink:href="#m6e48b7cec0" x="87.58875" y="46.335705" style="fill: #756a5d; stroke: #756a5d; stroke-width: 0.8"/>
      </g>
     </g>
     <g id="text_11">
      <text style="font-size: 11px; font-family: 'DejaVu Serif'; text-anchor: end; fill: #756a5d" x="80.58875" y="50.514846" transform="rotate(-0 80.58875 50.514846)">1.002000</text>
     </g>
    </g>
    <g id="text_12">
     <text style="font-size: 13px; font-family: 'DejaVu Serif'; text-anchor: middle; fill: #1f1b16" x="21.397969" y="244.537187" transform="rotate(-90 21.397969 244.537187)">Relative flux</text>
    </g>
   </g>
   <g id="line2d_21">
    <path d="M 87.58875 134.35824 
L 354.929262 134.35824 
L 355.838583 134.978539 
L 356.747905 137.539845 
L 357.657226 141.112409 
L 358.566548 145.391142 
L 360.38519 155.455635 
L 362.203833 166.883313 
L 364.931798 185.365851 
L 365.841119 204.609366 
L 367.659762 231.433157 
L 370.387727 268.551295 
L 372.20637 290.714005 
L 373.115691 300.348077 
L 374.025013 308.388515 
L 374.934334 313.209537 
L 376.752977 318.593999 
L 378.57162 323.404772 
L 380.390263 327.753644 
L 383.118227 333.5794 
L 385.846192 338.730047 
L 388.574156 343.335069 
L 391.30212 347.487613 
L 394.030085 351.257378 
L 396.758049 354.698142 
L 399.486014 357.852446 
L 403.123299 361.671007 
L 406.760585 365.1057 
L 410.397871 368.207741 
L 414.035157 371.018282 
L 417.672443 373.570943 
L 421.309729 375.893583 
L 425.856336 378.50864 
L 430.402944 380.838445 
L 434.949551 382.914179 
L 439.496158 384.76173 
L 444.952087 386.707841 
L 450.408016 388.387396 
L 455.863945 389.825715 
L 461.319873 391.04348 
L 466.775802 392.05752 
L 473.141053 393.001007 
L 479.506303 393.70224 
L 485.871553 394.173333 
L 492.236803 394.422292 
L 498.602054 394.4533 
L 504.967304 394.266878 
L 511.332554 393.859897 
L 517.697805 393.225468 
L 524.063055 392.352689 
L 530.428305 391.22623 
L 535.884234 390.043493 
L 541.340163 388.643257 
L 546.796091 387.005529 
L 552.25202 385.105829 
L 556.798628 383.301195 
L 561.345235 381.273021 
L 565.891842 378.996336 
L 570.43845 376.441123 
L 574.075736 374.172186 
L 577.713021 371.679448 
L 581.350307 368.936278 
L 584.987593 365.91064 
L 588.624879 362.563465 
L 592.262165 358.846349 
L 594.990129 355.779564 
L 597.718094 352.438557 
L 600.446058 348.783803 
L 603.174023 344.76569 
L 605.901987 340.320486 
L 608.629951 335.363957 
L 611.357916 329.780664 
L 613.176559 325.631381 
L 614.995202 321.063172 
L 616.813845 315.982207 
L 617.723166 313.209537 
L 618.632487 308.388515 
L 619.541809 300.348077 
L 621.360452 280.011739 
L 623.179095 256.546008 
L 625.907059 218.382696 
L 626.816381 204.609366 
L 627.725702 185.365851 
L 631.362988 161.038056 
L 633.181631 150.210366 
L 635.000274 141.112409 
L 635.909595 137.539845 
L 636.818917 134.978539 
L 637.728238 134.35824 
L 905.06875 134.35824 
L 905.06875 134.35824 
" clip-path="url(#pb6bd04c807)" style="fill: none; stroke: #2f6277; stroke-width: 2.6; stroke-linecap: square"/>
   </g>
   <g id="line2d_22">
    <path d="M 87.58875 134.35824 
L 905.06875 134.35824 
" clip-path="url(#pb6bd04c807)" style="fill: none; stroke-dasharray: 5.365,2.32; stroke-dashoffset: 0; stroke: #9b9184; stroke-opacity: 0.55; stroke-width: 1.45"/>
   </g>
   <g id="patch_4">
    <path d="M 87.58875 453.877188 
L 87.58875 35.197188 
" style="fill: none; stroke: #b9a98f; stroke-width: 0.8; stroke-linejoin: miter; stroke-linecap: square"/>
   </g>
   <g id="patch_5">
    <path d="M 905.06875 453.877188 
L 905.06875 35.197188 
" style="fill: none; stroke: #b9a98f; stroke-width: 0.8; stroke-linejoin: miter; stroke-linecap: square"/>
   </g>
   <g id="patch_6">
    <path d="M 87.58875 453.877187 
L 905.06875 453.877187 
" style="fill: none; stroke: #b9a98f; stroke-width: 0.8; stroke-linejoin: miter; stroke-linecap: square"/>
   </g>
   <g id="patch_7">
    <path d="M 87.58875 35.197187 
L 905.06875 35.197187 
" style="fill: none; stroke: #b9a98f; stroke-width: 0.8; stroke-linejoin: miter; stroke-linecap: square"/>
   </g>
   <g id="text_13">
    <g id="patch_8">
     <path d="M 99.85095 72.760563 
L 463.111575 72.760563 
Q 466.191575 72.760563 466.191575 69.680563 
L 466.191575 56.131188 
Q 466.191575 53.051188 463.111575 53.051188 
L 99.85095 53.051188 
Q 96.77095 53.051188 96.77095 56.131188 
L 96.77095 69.680563 
Q 96.77095 72.760563 99.85095 72.760563 
z
" style="fill: #fffaf0; opacity: 0.88"/>
    </g>
    <text style="font-size: 14px; font-family: 'DejaVu Serif'; text-anchor: start; fill: #756a5d" x="99.85095" y="66.769" transform="rotate(-0 99.85095 66.769)">Rp/R* = 0.0708 · depth ≈ 5007 ppm · T14 ≈ 0.93 h</text>
   </g>
   <g id="text_14">
    <text style="font-size: 10.5px; font-family: 'DejaVu Serif'; text-anchor: end; fill: #756a5d" x="896.89395" y="443.170619" transform="rotate(-0 896.89395 443.170619)">quadratic limb-darkened geometry</text>
   </g>
   <g id="text_15">
    <text style="font-weight: 700; font-size: 18px; font-family: 'DejaVu Serif'; text-anchor: start; fill: #1f1b16" x="87.58875" y="25.197187" transform="rotate(-0 87.58875 25.197187)">Transit light-curve model — TRAPPIST-1 e</text>
   </g>
  </g>
 </g>
 <defs>
  <clipPath id="pb6bd04c807">
   <rect x="87.58875" y="35.197187" width="817.48" height="418.68"/>
  </clipPath>
 </defs>
</svg>
