<?xml version="1.0" encoding="utf-8" standalone="no"?>
<!DOCTYPE svg PUBLIC "-//W3C//DTD SVG 1.1//EN"
  "http://www.w3.org/Graphics/SVG/1.1/DTD/svg11.dtd">
<svg xmlns:xlink="http://www.w3.org/1999/xlink" width="916.768281pt" height="499.624687pt" viewBox="0 0 916.768281 499.624687" xmlns="http://www.w3.org/2000/svg" version="1.1">
 <metadata>
  <rdf:RDF xmlns:dc="http://purl.org/dc/elements/1.1/" xmlns:cc="http://creativecommons.org/ns#" xmlns:rdf="http://www.w3.org/1999/02/22-rdf-syntax-ns#">
   <cc:Work>
    <dc:type rdf:resource="http://purl.org/dc/dcmitype/StillImage"/>
    <dc:date>2026-05-11T14:54:36.332459</dc:date>
    <dc:format>image/svg+xml</dc:format>
    <dc:creator>
     <cc:Agent>
      <dc:title>Matplotlib v3.10.8, https://matplotlib.org/</dc:title>
     </cc:Agent>
    </dc:creator>
   </cc:Work>
  </rdf:RDF>
 </metadata>
 <defs>
  <style type="text/css">*{stroke-linejoin: round; stroke-linecap: butt}</style>
 </defs>
 <g id="figure_1">
  <g id="patch_1">
   <path d="M 0 499.624687 
L 916.768281 499.624687 
L 916.768281 0 
L 0 0 
z
" style="fill: #fffaf0"/>
  </g>
  <g id="axes_1">
   <g id="patch_2">
    <path d="M 58.501563 453.877187 
L 896.501562 453.877187 
L 896.501562 35.197187 
L 58.501563 35.197187 
z
" style="fill: #fffaf0"/>
   </g>
   <g id="FillBetweenPolyCollection_1">
    <defs>
     <path id="m943bffddcd" d="M 58.501563 -255.0875 
L 58.501563 -255.0875 
L 59.66707 -253.424447 
L 60.832578 -251.761522 
L 61.998085 -250.09885 
L 63.163593 -248.436559 
L 64.329101 -246.774776 
L 65.494608 -245.113628 
L 66.660116 -243.453242 
L 67.825624 -241.793744 
L 68.991131 -240.135261 
L 70.156639 -238.47792 
L 71.322147 -236.821848 
L 72.487654 -235.16717 
L 73.653162 -233.514013 
L 74.81867 -231.862505 
L 75.984177 -230.212769 
L 77.149685 -228.564933 
L 78.315193 -226.919123 
L 79.4807 -225.275464 
L 80.646208 -223.634081 
L 81.811715 -221.995101 
L 82.977223 -220.358647 
L 84.142731 -218.724846 
L 85.308238 -217.093821 
L 86.473746 -215.465698 
L 87.639254 -213.840601 
L 88.804761 -212.218653 
L 89.970269 -210.599979 
L 91.135777 -208.984703 
L 92.301284 -207.372947 
L 93.466792 -205.764835 
L 94.6323 -204.160489 
L 95.797807 -202.560033 
L 96.963315 -200.963588 
L 98.128823 -199.371276 
L 99.29433 -197.783219 
L 100.459838 -196.199538 
L 101.625346 -194.620354 
L 102.790853 -193.045788 
L 103.956361 -191.475959 
L 105.121868 -189.910989 
L 106.287376 -188.350995 
L 107.452884 -186.796098 
L 108.618391 -185.246416 
L 109.783899 -183.702068 
L 110.949407 -182.163171 
L 112.114914 -180.629843 
L 113.280422 -179.102201 
L 114.44593 -177.580361 
L 115.611437 -176.064441 
L 116.776945 -174.554555 
L 117.942453 -173.050819 
L 119.10796 -171.553348 
L 120.273468 -170.062256 
L 121.438976 -168.577657 
L 122.604483 -167.099665 
L 123.769991 -165.628392 
L 124.935499 -164.16395 
L 126.101006 -162.706452 
L 127.266514 -161.256009 
L 128.432021 -159.812731 
L 129.597529 -158.376729 
L 130.763037 -156.948112 
L 131.928544 -155.52699 
L 133.094052 -154.11347 
L 134.25956 -152.707662 
L 135.425067 -151.309672 
L 136.590575 -149.919607 
L 137.756083 -148.537574 
L 138.92159 -147.163677 
L 140.087098 -145.798022 
L 141.252606 -144.440713 
L 142.418113 -143.091853 
L 143.583621 -141.751546 
L 144.749129 -140.419895 
L 145.914636 -139.096999 
L 147.080144 -137.782962 
L 148.245652 -136.477882 
L 149.411159 -135.181861 
L 150.576667 -133.894996 
L 151.742174 -132.617386 
L 152.907682 -131.349128 
L 154.07319 -130.09032 
L 155.238697 -128.841058 
L 156.404205 -127.601436 
L 157.569713 -126.37155 
L 158.73522 -125.151493 
L 159.900728 -123.941359 
L 161.066236 -122.741241 
L 162.231743 -121.551229 
L 163.397251 -120.371414 
L 164.562759 -119.201887 
L 165.728266 -118.042738 
L 166.893774 -116.894053 
L 168.059282 -115.755922 
L 169.224789 -114.628432 
L 170.390297 -113.511667 
L 171.555805 -112.405714 
L 172.721312 -111.310657 
L 173.88682 -110.22658 
L 175.052327 -109.153565 
L 176.217835 -108.091695 
L 177.383343 -107.04105 
L 178.54885 -106.00171 
L 179.714358 -104.973756 
L 180.879866 -103.957265 
L 182.045373 -102.952316 
L 183.210881 -101.958984 
L 184.376389 -100.977347 
L 185.541896 -100.007478 
L 186.707404 -99.049451 
L 187.872912 -98.103341 
L 189.038419 -97.169219 
L 190.203927 -96.247157 
L 191.369435 -95.337224 
L 192.534942 -94.439491 
L 193.70045 -93.554026 
L 194.865957 -92.680897 
L 196.031465 -91.82017 
L 197.196973 -90.971911 
L 198.36248 -90.136185 
L 199.527988 -89.313055 
L 200.693496 -88.502585 
L 201.859003 -87.704837 
L 203.024511 -86.91987 
L 204.190019 -86.147746 
L 205.355526 -85.388524 
L 206.521034 -84.64226 
L 207.686542 -83.909013 
L 208.852049 -83.188837 
L 210.017557 -82.481789 
L 211.183065 -81.787923 
L 212.348572 -81.10729 
L 213.51408 -80.439943 
L 214.679588 -79.785934 
L 215.845095 -79.145312 
L 217.010603 -78.518125 
L 218.17611 -77.904423 
L 219.341618 -77.304251 
L 220.507126 -76.717656 
L 221.672633 -76.144682 
L 222.838141 -75.585373 
L 224.003649 -75.039773 
L 225.169156 -74.507921 
L 226.334664 -73.98986 
L 227.500172 -73.485628 
L 228.665679 -72.995265 
L 229.831187 -72.518807 
L 230.996695 -72.056291 
L 232.162202 -71.607753 
L 233.32771 -71.173226 
L 234.493218 -70.752744 
L 235.658725 -70.346339 
L 236.824233 -69.954042 
L 237.989741 -69.575882 
L 239.155248 -69.21189 
L 240.320756 -68.862091 
L 241.486263 -68.526515 
L 242.651771 -68.205185 
L 243.817279 -67.898126 
L 244.982786 -67.605362 
L 246.148294 -67.326916 
L 247.313802 -67.062808 
L 248.479309 -66.813059 
L 249.644817 -66.577687 
L 250.810325 -66.356712 
L 251.975832 -66.150148 
L 253.14134 -65.958014 
L 254.306848 -65.780322 
L 255.472355 -65.617086 
L 256.637863 -65.46832 
L 257.803371 -65.334035 
L 258.968878 -65.21424 
L 260.134386 -65.108944 
L 261.299894 -65.018157 
L 262.465401 -64.941885 
L 263.630909 -64.880133 
L 264.796416 -64.832906 
L 265.961924 -64.800209 
L 267.127432 -64.782042 
L 268.292939 -64.778409 
L 269.458447 -64.789309 
L 270.623955 -64.814741 
L 271.789462 -64.854703 
L 272.95497 -64.909193 
L 274.120478 -64.978206 
L 275.285985 -65.061737 
L 276.451493 -65.159779 
L 277.617001 -65.272325 
L 278.782508 -65.399367 
L 279.948016 -65.540894 
L 281.113524 -65.696896 
L 282.279031 -65.867361 
L 283.444539 -66.052276 
L 284.610047 -66.251627 
L 285.775554 -66.465399 
L 286.941062 -66.693575 
L 288.106569 -66.936137 
L 289.272077 -67.193069 
L 290.437585 -67.464348 
L 291.603092 -67.749956 
L 292.7686 -68.04987 
L 293.934108 -68.364067 
L 295.099615 -68.692524 
L 296.265123 -69.035214 
L 297.430631 -69.392113 
L 298.596138 -69.763193 
L 299.761646 -70.148425 
L 300.927154 -70.54778 
L 302.092661 -70.961227 
L 303.258169 -71.388736 
L 304.423677 -71.830273 
L 305.589184 -72.285804 
L 306.754692 -72.755296 
L 307.920199 -73.238711 
L 309.085707 -73.736013 
L 310.251215 -74.247164 
L 311.416722 -74.772126 
L 312.58223 -75.310857 
L 313.747738 -75.863317 
L 314.913245 -76.429464 
L 316.078753 -77.009254 
L 317.244261 -77.602643 
L 318.409768 -78.209586 
L 319.575276 -78.830036 
L 320.740784 -79.463946 
L 321.906291 -80.111269 
L 323.071799 -80.771953 
L 324.237307 -81.445949 
L 325.402814 -82.133205 
L 326.568322 -82.833669 
L 327.73383 -83.547288 
L 328.899337 -84.274006 
L 330.064845 -85.013768 
L 331.230352 -85.766519 
L 332.39586 -86.532199 
L 333.561368 -87.310752 
L 334.726875 -88.102117 
L 335.892383 -88.906234 
L 337.057891 -89.723041 
L 338.223398 -90.552477 
L 339.388906 -91.394478 
L 340.554414 -92.248979 
L 341.719921 -93.115915 
L 342.885429 -93.995221 
L 344.050937 -94.886828 
L 345.216444 -95.79067 
L 346.381952 -96.706676 
L 347.54746 -97.634777 
L 348.712967 -98.574902 
L 349.878475 -99.52698 
L 351.043983 -100.490936 
L 352.20949 -101.466699 
L 353.374998 -102.454193 
L 354.540505 -103.453343 
L 355.706013 -104.464073 
L 356.871521 -105.486305 
L 358.037028 -106.519962 
L 359.202536 -107.564964 
L 360.368044 -108.621232 
L 361.533551 -109.688685 
L 362.699059 -110.767241 
L 363.864567 -111.856819 
L 365.030074 -112.957334 
L 366.195582 -114.068703 
L 367.36109 -115.190842 
L 368.526597 -116.323663 
L 369.692105 -117.467082 
L 370.857613 -118.62101 
L 372.02312 -119.785359 
L 373.188628 -120.960041 
L 374.354136 -122.144966 
L 375.519643 -123.340042 
L 376.685151 -124.54518 
L 377.850658 -125.760287 
L 379.016166 -126.98527 
L 380.181674 -128.220036 
L 381.347181 -129.46449 
L 382.512689 -130.718537 
L 383.678197 -131.982082 
L 384.843704 -133.255028 
L 386.009212 -134.537278 
L 387.17472 -135.828733 
L 388.340227 -137.129296 
L 389.505735 -138.438867 
L 390.671243 -139.757346 
L 391.83675 -141.084632 
L 393.002258 -142.420624 
L 394.167766 -143.76522 
L 395.333273 -145.118318 
L 396.498781 -146.479813 
L 397.664289 -147.849602 
L 398.829796 -149.22758 
L 399.995304 -150.613643 
L 401.160811 -152.007683 
L 402.326319 -153.409596 
L 403.491827 -154.819273 
L 404.657334 -156.236607 
L 405.822842 -157.66149 
L 406.98835 -159.093813 
L 408.153857 -160.533467 
L 409.319365 -161.980341 
L 410.484873 -163.434326 
L 411.65038 -164.89531 
L 412.815888 -166.363181 
L 413.981396 -167.837828 
L 415.146903 -169.319138 
L 416.312411 -170.806998 
L 417.477919 -172.301293 
L 418.643426 -173.801911 
L 419.808934 -175.308736 
L 420.974441 -176.821654 
L 422.139949 -178.340548 
L 423.305457 -179.865304 
L 424.470964 -181.395803 
L 425.636472 -182.931931 
L 426.80198 -184.473568 
L 427.967487 -186.020598 
L 429.132995 -187.572902 
L 430.298503 -189.130362 
L 431.46401 -190.692859 
L 432.629518 -192.260274 
L 433.795026 -193.832486 
L 434.960533 -195.409376 
L 436.126041 -196.990824 
L 437.291549 -198.576708 
L 438.457056 -200.166908 
L 439.622564 -201.761302 
L 440.788072 -203.359768 
L 441.953579 -204.962184 
L 443.119087 -206.568428 
L 444.284594 -208.178377 
L 445.450102 -209.791909 
L 446.61561 -211.408899 
L 447.781117 -213.029225 
L 448.946625 -214.652763 
L 450.112133 -216.279389 
L 451.27764 -217.908979 
L 452.443148 -219.541407 
L 453.608656 -221.17655 
L 454.774163 -222.814283 
L 455.939671 -224.45448 
L 457.105179 -226.097017 
L 458.270686 -227.741767 
L 459.436194 -229.388606 
L 460.601702 -231.037407 
L 461.767209 -232.688045 
L 462.932717 -234.340394 
L 464.098225 -235.994326 
L 465.263732 -237.649717 
L 466.42924 -239.30644 
L 467.594747 -240.964367 
L 468.760255 -242.623374 
L 469.925763 -244.283332 
L 471.09127 -245.944115 
L 472.256778 -247.605596 
L 473.422286 -249.267649 
L 474.587793 -250.930146 
L 475.753301 -252.592961 
L 476.918809 -254.255966 
L 478.084316 -255.919034 
L 479.249824 -257.582039 
L 480.415332 -259.244854 
L 481.580839 -260.907351 
L 482.746347 -262.569404 
L 483.911855 -264.230885 
L 485.077362 -265.891668 
L 486.24287 -267.551626 
L 487.408378 -269.210633 
L 488.573885 -270.86856 
L 489.739393 -272.525283 
L 490.9049 -274.180674 
L 492.070408 -275.834606 
L 493.235916 -277.486955 
L 494.401423 -279.137593 
L 495.566931 -280.786394 
L 496.732439 -282.433233 
L 497.897946 -284.077983 
L 499.063454 -285.72052 
L 500.228962 -287.360717 
L 501.394469 -288.99845 
L 502.559977 -290.633593 
L 503.725485 -292.266021 
L 504.890992 -293.895611 
L 506.0565 -295.522237 
L 507.222008 -297.145775 
L 508.387515 -298.766101 
L 509.553023 -300.383091 
L 510.718531 -301.996623 
L 511.884038 -303.606572 
L 513.049546 -305.212816 
L 514.215053 -306.815232 
L 515.380561 -308.413698 
L 516.546069 -310.008092 
L 517.711576 -311.598292 
L 518.877084 -313.184176 
L 520.042592 -314.765624 
L 521.208099 -316.342514 
L 522.373607 -317.914726 
L 523.539115 -319.482141 
L 524.704622 -321.044638 
L 525.87013 -322.602098 
L 527.035638 -324.154402 
L 528.201145 -325.701432 
L 529.366653 -327.243069 
L 530.532161 -328.779197 
L 531.697668 -330.309696 
L 532.863176 -331.834452 
L 534.028684 -333.353346 
L 535.194191 -334.866264 
L 536.359699 -336.373089 
L 537.525206 -337.873707 
L 538.690714 -339.368002 
L 539.856222 -340.855862 
L 541.021729 -342.337172 
L 542.187237 -343.811819 
L 543.352745 -345.27969 
L 544.518252 -346.740674 
L 545.68376 -348.194659 
L 546.849268 -349.641533 
L 548.014775 -351.081187 
L 549.180283 -352.51351 
L 550.345791 -353.938393 
L 551.511298 -355.355727 
L 552.676806 -356.765404 
L 553.842314 -358.167317 
L 555.007821 -359.561357 
L 556.173329 -360.94742 
L 557.338836 -362.325398 
L 558.504344 -363.695187 
L 559.669852 -365.056682 
L 560.835359 -366.40978 
L 562.000867 -367.754376 
L 563.166375 -369.090368 
L 564.331882 -370.417654 
L 565.49739 -371.736133 
L 566.662898 -373.045704 
L 567.828405 -374.346267 
L 568.993913 -375.637722 
L 570.159421 -376.919972 
L 571.324928 -378.192918 
L 572.490436 -379.456463 
L 573.655944 -380.71051 
L 574.821451 -381.954964 
L 575.986959 -383.18973 
L 577.152467 -384.414713 
L 578.317974 -385.62982 
L 579.483482 -386.834958 
L 580.648989 -388.030034 
L 581.814497 -389.214959 
L 582.980005 -390.389641 
L 584.145512 -391.55399 
L 585.31102 -392.707918 
L 586.476528 -393.851337 
L 587.642035 -394.984158 
L 588.807543 -396.106297 
L 589.973051 -397.217666 
L 591.138558 -398.318181 
L 592.304066 -399.407759 
L 593.469574 -400.486315 
L 594.635081 -401.553768 
L 595.800589 -402.610036 
L 596.966097 -403.655038 
L 598.131604 -404.688695 
L 599.297112 -405.710927 
L 600.46262 -406.721657 
L 601.628127 -407.720807 
L 602.793635 -408.708301 
L 603.959142 -409.684064 
L 605.12465 -410.64802 
L 606.290158 -411.600098 
L 607.455665 -412.540223 
L 608.621173 -413.468324 
L 609.786681 -414.38433 
L 610.952188 -415.288172 
L 612.117696 -416.179779 
L 613.283204 -417.059085 
L 614.448711 -417.926021 
L 615.614219 -418.780522 
L 616.779727 -419.622523 
L 617.945234 -420.451959 
L 619.110742 -421.268766 
L 620.27625 -422.072883 
L 621.441757 -422.864248 
L 622.607265 -423.642801 
L 623.772773 -424.408481 
L 624.93828 -425.161232 
L 626.103788 -425.900994 
L 627.269295 -426.627712 
L 628.434803 -427.341331 
L 629.600311 -428.041795 
L 630.765818 -428.729051 
L 631.931326 -429.403047 
L 633.096834 -430.063731 
L 634.262341 -430.711054 
L 635.427849 -431.344964 
L 636.593357 -431.965414 
L 637.758864 -432.572357 
L 638.924372 -433.165746 
L 640.08988 -433.745536 
L 641.255387 -434.311683 
L 642.420895 -434.864143 
L 643.586403 -435.402874 
L 644.75191 -435.927836 
L 645.917418 -436.438987 
L 647.082926 -436.936289 
L 648.248433 -437.419704 
L 649.413941 -437.889196 
L 650.579448 -438.344727 
L 651.744956 -438.786264 
L 652.910464 -439.213773 
L 654.075971 -439.62722 
L 655.241479 -440.026575 
L 656.406987 -440.411807 
L 657.572494 -440.782887 
L 658.738002 -441.139786 
L 659.90351 -441.482476 
L 661.069017 -441.810933 
L 662.234525 -442.12513 
L 663.400033 -442.425044 
L 664.56554 -442.710652 
L 665.731048 -442.981931 
L 666.896556 -443.238863 
L 668.062063 -443.481425 
L 669.227571 -443.709601 
L 670.393078 -443.923373 
L 671.558586 -444.122724 
L 672.724094 -444.307639 
L 673.889601 -444.478104 
L 675.055109 -444.634106 
L 676.220617 -444.775633 
L 677.386124 -444.902675 
L 678.551632 -445.015221 
L 679.71714 -445.113263 
L 680.882647 -445.196794 
L 682.048155 -445.265807 
L 683.213663 -445.320297 
L 684.37917 -445.360259 
L 685.544678 -445.385691 
L 686.710186 -445.396591 
L 687.875693 -445.392958 
L 689.041201 -445.374791 
L 690.206709 -445.342094 
L 691.372216 -445.294867 
L 692.537724 -445.233115 
L 693.703231 -445.156843 
L 694.868739 -445.066056 
L 696.034247 -444.96076 
L 697.199754 -444.840965 
L 698.365262 -444.70668 
L 699.53077 -444.557914 
L 700.696277 -444.394678 
L 701.861785 -444.216986 
L 703.027293 -444.024852 
L 704.1928 -443.818288 
L 705.358308 -443.597313 
L 706.523816 -443.361941 
L 707.689323 -443.112192 
L 708.854831 -442.848084 
L 710.020339 -442.569638 
L 711.185846 -442.276874 
L 712.351354 -441.969815 
L 713.516862 -441.648485 
L 714.682369 -441.312909 
L 715.847877 -440.96311 
L 717.013384 -440.599118 
L 718.178892 -440.220958 
L 719.3444 -439.828661 
L 720.509907 -439.422256 
L 721.675415 -439.001774 
L 722.840923 -438.567247 
L 724.00643 -438.118709 
L 725.171938 -437.656193 
L 726.337446 -437.179735 
L 727.502953 -436.689372 
L 728.668461 -436.18514 
L 729.833969 -435.667079 
L 730.999476 -435.135227 
L 732.164984 -434.589627 
L 733.330492 -434.030318 
L 734.495999 -433.457344 
L 735.661507 -432.870749 
L 736.827015 -432.270577 
L 737.992522 -431.656875 
L 739.15803 -431.029688 
L 740.323537 -430.389066 
L 741.489045 -429.735057 
L 742.654553 -429.06771 
L 743.82006 -428.387077 
L 744.985568 -427.693211 
L 746.151076 -426.986163 
L 747.316583 -426.265987 
L 748.482091 -425.53274 
L 749.647599 -424.786476 
L 750.813106 -424.027254 
L 751.978614 -423.25513 
L 753.144122 -422.470163 
L 754.309629 -421.672415 
L 755.475137 -420.861945 
L 756.640645 -420.038815 
L 757.806152 -419.203089 
L 758.97166 -418.35483 
L 760.137168 -417.494103 
L 761.302675 -416.620974 
L 762.468183 -415.735509 
L 763.63369 -414.837776 
L 764.799198 -413.927843 
L 765.964706 -413.005781 
L 767.130213 -412.071659 
L 768.295721 -411.125549 
L 769.461229 -410.167522 
L 770.626736 -409.197653 
L 771.792244 -408.216016 
L 772.957752 -407.222684 
L 774.123259 -406.217735 
L 775.288767 -405.201244 
L 776.454275 -404.17329 
L 777.619782 -403.13395 
L 778.78529 -402.083305 
L 779.950798 -401.021435 
L 781.116305 -399.94842 
L 782.281813 -398.864343 
L 783.44732 -397.769286 
L 784.612828 -396.663333 
L 785.778336 -395.546568 
L 786.943843 -394.419078 
L 788.109351 -393.280947 
L 789.274859 -392.132262 
L 790.440366 -390.973113 
L 791.605874 -389.803586 
L 792.771382 -388.623771 
L 793.936889 -387.433759 
L 795.102397 -386.233641 
L 796.267905 -385.023507 
L 797.433412 -383.80345 
L 798.59892 -382.573564 
L 799.764428 -381.333942 
L 800.929935 -380.08468 
L 802.095443 -378.825872 
L 803.260951 -377.557614 
L 804.426458 -376.280004 
L 805.591966 -374.993139 
L 806.757473 -373.697118 
L 807.922981 -372.392038 
L 809.088489 -371.078001 
L 810.253996 -369.755105 
L 811.419504 -368.423454 
L 812.585012 -367.083147 
L 813.750519 -365.734287 
L 814.916027 -364.376978 
L 816.081535 -363.011323 
L 817.247042 -361.637426 
L 818.41255 -360.255393 
L 819.578058 -358.865328 
L 820.743565 -357.467338 
L 821.909073 -356.06153 
L 823.074581 -354.64801 
L 824.240088 -353.226888 
L 825.405596 -351.798271 
L 826.571104 -350.362269 
L 827.736611 -348.918991 
L 828.902119 -347.468548 
L 830.067626 -346.01105 
L 831.233134 -344.546608 
L 832.398642 -343.075335 
L 833.564149 -341.597343 
L 834.729657 -340.112744 
L 835.895165 -338.621652 
L 837.060672 -337.124181 
L 838.22618 -335.620445 
L 839.391688 -334.110559 
L 840.557195 -332.594639 
L 841.722703 -331.072799 
L 842.888211 -329.545157 
L 844.053718 -328.011829 
L 845.219226 -326.472932 
L 846.384734 -324.928584 
L 847.550241 -323.378902 
L 848.715749 -321.824005 
L 849.881257 -320.264011 
L 851.046764 -318.699041 
L 852.212272 -317.129212 
L 853.377779 -315.554646 
L 854.543287 -313.975462 
L 855.708795 -312.391781 
L 856.874302 -310.803724 
L 858.03981 -309.211412 
L 859.205318 -307.614967 
L 860.370825 -306.014511 
L 861.536333 -304.410165 
L 862.701841 -302.802053 
L 863.867348 -301.190297 
L 865.032856 -299.575021 
L 866.198364 -297.956347 
L 867.363871 -296.334399 
L 868.529379 -294.709302 
L 869.694887 -293.081179 
L 870.860394 -291.450154 
L 872.025902 -289.816353 
L 873.19141 -288.179899 
L 874.356917 -286.540919 
L 875.522425 -284.899536 
L 876.687932 -283.255877 
L 877.85344 -281.610067 
L 879.018948 -279.962231 
L 880.184455 -278.312495 
L 881.349963 -276.660987 
L 882.515471 -275.00783 
L 883.680978 -273.353152 
L 884.846486 -271.69708 
L 886.011994 -270.039739 
L 887.177501 -268.381256 
L 888.343009 -266.721758 
L 889.508517 -265.061372 
L 890.674024 -263.400224 
L 891.839532 -261.738441 
L 893.00504 -260.07615 
L 894.170547 -258.413478 
L 895.336055 -256.750553 
L 896.501562 -255.0875 
L 896.501562 -255.0875 
L 896.501562 -255.0875 
L 895.336055 -255.0875 
L 894.170547 -255.0875 
L 893.00504 -255.0875 
L 891.839532 -255.0875 
L 890.674024 -255.0875 
L 889.508517 -255.0875 
L 888.343009 -255.0875 
L 887.177501 -255.0875 
L 886.011994 -255.0875 
L 884.846486 -255.0875 
L 883.680978 -255.0875 
L 882.515471 -255.0875 
L 881.349963 -255.0875 
L 880.184455 -255.0875 
L 879.018948 -255.0875 
L 877.85344 -255.0875 
L 876.687932 -255.0875 
L 875.522425 -255.0875 
L 874.356917 -255.0875 
L 873.19141 -255.0875 
L 872.025902 -255.0875 
L 870.860394 -255.0875 
L 869.694887 -255.0875 
L 868.529379 -255.0875 
L 867.363871 -255.0875 
L 866.198364 -255.0875 
L 865.032856 -255.0875 
L 863.867348 -255.0875 
L 862.701841 -255.0875 
L 861.536333 -255.0875 
L 860.370825 -255.0875 
L 859.205318 -255.0875 
L 858.03981 -255.0875 
L 856.874302 -255.0875 
L 855.708795 -255.0875 
L 854.543287 -255.0875 
L 853.377779 -255.0875 
L 852.212272 -255.0875 
L 851.046764 -255.0875 
L 849.881257 -255.0875 
L 848.715749 -255.0875 
L 847.550241 -255.0875 
L 846.384734 -255.0875 
L 845.219226 -255.0875 
L 844.053718 -255.0875 
L 842.888211 -255.0875 
L 841.722703 -255.0875 
L 840.557195 -255.0875 
L 839.391688 -255.0875 
L 838.22618 -255.0875 
L 837.060672 -255.0875 
L 835.895165 -255.0875 
L 834.729657 -255.0875 
L 833.564149 -255.0875 
L 832.398642 -255.0875 
L 831.233134 -255.0875 
L 830.067626 -255.0875 
L 828.902119 -255.0875 
L 827.736611 -255.0875 
L 826.571104 -255.0875 
L 825.405596 -255.0875 
L 824.240088 -255.0875 
L 823.074581 -255.0875 
L 821.909073 -255.0875 
L 820.743565 -255.0875 
L 819.578058 -255.0875 
L 818.41255 -255.0875 
L 817.247042 -255.0875 
L 816.081535 -255.0875 
L 814.916027 -255.0875 
L 813.750519 -255.0875 
L 812.585012 -255.0875 
L 811.419504 -255.0875 
L 810.253996 -255.0875 
L 809.088489 -255.0875 
L 807.922981 -255.0875 
L 806.757473 -255.0875 
L 805.591966 -255.0875 
L 804.426458 -255.0875 
L 803.260951 -255.0875 
L 802.095443 -255.0875 
L 800.929935 -255.0875 
L 799.764428 -255.0875 
L 798.59892 -255.0875 
L 797.433412 -255.0875 
L 796.267905 -255.0875 
L 795.102397 -255.0875 
L 793.936889 -255.0875 
L 792.771382 -255.0875 
L 791.605874 -255.0875 
L 790.440366 -255.0875 
L 789.274859 -255.0875 
L 788.109351 -255.0875 
L 786.943843 -255.0875 
L 785.778336 -255.0875 
L 784.612828 -255.0875 
L 783.44732 -255.0875 
L 782.281813 -255.0875 
L 781.116305 -255.0875 
L 779.950798 -255.0875 
L 778.78529 -255.0875 
L 777.619782 -255.0875 
L 776.454275 -255.0875 
L 775.288767 -255.0875 
L 774.123259 -255.0875 
L 772.957752 -255.0875 
L 771.792244 -255.0875 
L 770.626736 -255.0875 
L 769.461229 -255.0875 
L 768.295721 -255.0875 
L 767.130213 -255.0875 
L 765.964706 -255.0875 
L 764.799198 -255.0875 
L 763.63369 -255.0875 
L 762.468183 -255.0875 
L 761.302675 -255.0875 
L 760.137168 -255.0875 
L 758.97166 -255.0875 
L 757.806152 -255.0875 
L 756.640645 -255.0875 
L 755.475137 -255.0875 
L 754.309629 -255.0875 
L 753.144122 -255.0875 
L 751.978614 -255.0875 
L 750.813106 -255.0875 
L 749.647599 -255.0875 
L 748.482091 -255.0875 
L 747.316583 -255.0875 
L 746.151076 -255.0875 
L 744.985568 -255.0875 
L 743.82006 -255.0875 
L 742.654553 -255.0875 
L 741.489045 -255.0875 
L 740.323537 -255.0875 
L 739.15803 -255.0875 
L 737.992522 -255.0875 
L 736.827015 -255.0875 
L 735.661507 -255.0875 
L 734.495999 -255.0875 
L 733.330492 -255.0875 
L 732.164984 -255.0875 
L 730.999476 -255.0875 
L 729.833969 -255.0875 
L 728.668461 -255.0875 
L 727.502953 -255.0875 
L 726.337446 -255.0875 
L 725.171938 -255.0875 
L 724.00643 -255.0875 
L 722.840923 -255.0875 
L 721.675415 -255.0875 
L 720.509907 -255.0875 
L 719.3444 -255.0875 
L 718.178892 -255.0875 
L 717.013384 -255.0875 
L 715.847877 -255.0875 
L 714.682369 -255.0875 
L 713.516862 -255.0875 
L 712.351354 -255.0875 
L 711.185846 -255.0875 
L 710.020339 -255.0875 
L 708.854831 -255.0875 
L 707.689323 -255.0875 
L 706.523816 -255.0875 
L 705.358308 -255.0875 
L 704.1928 -255.0875 
L 703.027293 -255.0875 
L 701.861785 -255.0875 
L 700.696277 -255.0875 
L 699.53077 -255.0875 
L 698.365262 -255.0875 
L 697.199754 -255.0875 
L 696.034247 -255.0875 
L 694.868739 -255.0875 
L 693.703231 -255.0875 
L 692.537724 -255.0875 
L 691.372216 -255.0875 
L 690.206709 -255.0875 
L 689.041201 -255.0875 
L 687.875693 -255.0875 
L 686.710186 -255.0875 
L 685.544678 -255.0875 
L 684.37917 -255.0875 
L 683.213663 -255.0875 
L 682.048155 -255.0875 
L 680.882647 -255.0875 
L 679.71714 -255.0875 
L 678.551632 -255.0875 
L 677.386124 -255.0875 
L 676.220617 -255.0875 
L 675.055109 -255.0875 
L 673.889601 -255.0875 
L 672.724094 -255.0875 
L 671.558586 -255.0875 
L 670.393078 -255.0875 
L 669.227571 -255.0875 
L 668.062063 -255.0875 
L 666.896556 -255.0875 
L 665.731048 -255.0875 
L 664.56554 -255.0875 
L 663.400033 -255.0875 
L 662.234525 -255.0875 
L 661.069017 -255.0875 
L 659.90351 -255.0875 
L 658.738002 -255.0875 
L 657.572494 -255.0875 
L 656.406987 -255.0875 
L 655.241479 -255.0875 
L 654.075971 -255.0875 
L 652.910464 -255.0875 
L 651.744956 -255.0875 
L 650.579448 -255.0875 
L 649.413941 -255.0875 
L 648.248433 -255.0875 
L 647.082926 -255.0875 
L 645.917418 -255.0875 
L 644.75191 -255.0875 
L 643.586403 -255.0875 
L 642.420895 -255.0875 
L 641.255387 -255.0875 
L 640.08988 -255.0875 
L 638.924372 -255.0875 
L 637.758864 -255.0875 
L 636.593357 -255.0875 
L 635.427849 -255.0875 
L 634.262341 -255.0875 
L 633.096834 -255.0875 
L 631.931326 -255.0875 
L 630.765818 -255.0875 
L 629.600311 -255.0875 
L 628.434803 -255.0875 
L 627.269295 -255.0875 
L 626.103788 -255.0875 
L 624.93828 -255.0875 
L 623.772773 -255.0875 
L 622.607265 -255.0875 
L 621.441757 -255.0875 
L 620.27625 -255.0875 
L 619.110742 -255.0875 
L 617.945234 -255.0875 
L 616.779727 -255.0875 
L 615.614219 -255.0875 
L 614.448711 -255.0875 
L 613.283204 -255.0875 
L 612.117696 -255.0875 
L 610.952188 -255.0875 
L 609.786681 -255.0875 
L 608.621173 -255.0875 
L 607.455665 -255.0875 
L 606.290158 -255.0875 
L 605.12465 -255.0875 
L 603.959142 -255.0875 
L 602.793635 -255.0875 
L 601.628127 -255.0875 
L 600.46262 -255.0875 
L 599.297112 -255.0875 
L 598.131604 -255.0875 
L 596.966097 -255.0875 
L 595.800589 -255.0875 
L 594.635081 -255.0875 
L 593.469574 -255.0875 
L 592.304066 -255.0875 
L 591.138558 -255.0875 
L 589.973051 -255.0875 
L 588.807543 -255.0875 
L 587.642035 -255.0875 
L 586.476528 -255.0875 
L 585.31102 -255.0875 
L 584.145512 -255.0875 
L 582.980005 -255.0875 
L 581.814497 -255.0875 
L 580.648989 -255.0875 
L 579.483482 -255.0875 
L 578.317974 -255.0875 
L 577.152467 -255.0875 
L 575.986959 -255.0875 
L 574.821451 -255.0875 
L 573.655944 -255.0875 
L 572.490436 -255.0875 
L 571.324928 -255.0875 
L 570.159421 -255.0875 
L 568.993913 -255.0875 
L 567.828405 -255.0875 
L 566.662898 -255.0875 
L 565.49739 -255.0875 
L 564.331882 -255.0875 
L 563.166375 -255.0875 
L 562.000867 -255.0875 
L 560.835359 -255.0875 
L 559.669852 -255.0875 
L 558.504344 -255.0875 
L 557.338836 -255.0875 
L 556.173329 -255.0875 
L 555.007821 -255.0875 
L 553.842314 -255.0875 
L 552.676806 -255.0875 
L 551.511298 -255.0875 
L 550.345791 -255.0875 
L 549.180283 -255.0875 
L 548.014775 -255.0875 
L 546.849268 -255.0875 
L 545.68376 -255.0875 
L 544.518252 -255.0875 
L 543.352745 -255.0875 
L 542.187237 -255.0875 
L 541.021729 -255.0875 
L 539.856222 -255.0875 
L 538.690714 -255.0875 
L 537.525206 -255.0875 
L 536.359699 -255.0875 
L 535.194191 -255.0875 
L 534.028684 -255.0875 
L 532.863176 -255.0875 
L 531.697668 -255.0875 
L 530.532161 -255.0875 
L 529.366653 -255.0875 
L 528.201145 -255.0875 
L 527.035638 -255.0875 
L 525.87013 -255.0875 
L 524.704622 -255.0875 
L 523.539115 -255.0875 
L 522.373607 -255.0875 
L 521.208099 -255.0875 
L 520.042592 -255.0875 
L 518.877084 -255.0875 
L 517.711576 -255.0875 
L 516.546069 -255.0875 
L 515.380561 -255.0875 
L 514.215053 -255.0875 
L 513.049546 -255.0875 
L 511.884038 -255.0875 
L 510.718531 -255.0875 
L 509.553023 -255.0875 
L 508.387515 -255.0875 
L 507.222008 -255.0875 
L 506.0565 -255.0875 
L 504.890992 -255.0875 
L 503.725485 -255.0875 
L 502.559977 -255.0875 
L 501.394469 -255.0875 
L 500.228962 -255.0875 
L 499.063454 -255.0875 
L 497.897946 -255.0875 
L 496.732439 -255.0875 
L 495.566931 -255.0875 
L 494.401423 -255.0875 
L 493.235916 -255.0875 
L 492.070408 -255.0875 
L 490.9049 -255.0875 
L 489.739393 -255.0875 
L 488.573885 -255.0875 
L 487.408378 -255.0875 
L 486.24287 -255.0875 
L 485.077362 -255.0875 
L 483.911855 -255.0875 
L 482.746347 -255.0875 
L 481.580839 -255.0875 
L 480.415332 -255.0875 
L 479.249824 -255.0875 
L 478.084316 -255.0875 
L 476.918809 -255.0875 
L 475.753301 -255.0875 
L 474.587793 -255.0875 
L 473.422286 -255.0875 
L 472.256778 -255.0875 
L 471.09127 -255.0875 
L 469.925763 -255.0875 
L 468.760255 -255.0875 
L 467.594747 -255.0875 
L 466.42924 -255.0875 
L 465.263732 -255.0875 
L 464.098225 -255.0875 
L 462.932717 -255.0875 
L 461.767209 -255.0875 
L 460.601702 -255.0875 
L 459.436194 -255.0875 
L 458.270686 -255.0875 
L 457.105179 -255.0875 
L 455.939671 -255.0875 
L 454.774163 -255.0875 
L 453.608656 -255.0875 
L 452.443148 -255.0875 
L 451.27764 -255.0875 
L 450.112133 -255.0875 
L 448.946625 -255.0875 
L 447.781117 -255.0875 
L 446.61561 -255.0875 
L 445.450102 -255.0875 
L 444.284594 -255.0875 
L 443.119087 -255.0875 
L 441.953579 -255.0875 
L 440.788072 -255.0875 
L 439.622564 -255.0875 
L 438.457056 -255.0875 
L 437.291549 -255.0875 
L 436.126041 -255.0875 
L 434.960533 -255.0875 
L 433.795026 -255.0875 
L 432.629518 -255.0875 
L 431.46401 -255.0875 
L 430.298503 -255.0875 
L 429.132995 -255.0875 
L 427.967487 -255.0875 
L 426.80198 -255.0875 
L 425.636472 -255.0875 
L 424.470964 -255.0875 
L 423.305457 -255.0875 
L 422.139949 -255.0875 
L 420.974441 -255.0875 
L 419.808934 -255.0875 
L 418.643426 -255.0875 
L 417.477919 -255.0875 
L 416.312411 -255.0875 
L 415.146903 -255.0875 
L 413.981396 -255.0875 
L 412.815888 -255.0875 
L 411.65038 -255.0875 
L 410.484873 -255.0875 
L 409.319365 -255.0875 
L 408.153857 -255.0875 
L 406.98835 -255.0875 
L 405.822842 -255.0875 
L 404.657334 -255.0875 
L 403.491827 -255.0875 
L 402.326319 -255.0875 
L 401.160811 -255.0875 
L 399.995304 -255.0875 
L 398.829796 -255.0875 
L 397.664289 -255.0875 
L 396.498781 -255.0875 
L 395.333273 -255.0875 
L 394.167766 -255.0875 
L 393.002258 -255.0875 
L 391.83675 -255.0875 
L 390.671243 -255.0875 
L 389.505735 -255.0875 
L 388.340227 -255.0875 
L 387.17472 -255.0875 
L 386.009212 -255.0875 
L 384.843704 -255.0875 
L 383.678197 -255.0875 
L 382.512689 -255.0875 
L 381.347181 -255.0875 
L 380.181674 -255.0875 
L 379.016166 -255.0875 
L 377.850658 -255.0875 
L 376.685151 -255.0875 
L 375.519643 -255.0875 
L 374.354136 -255.0875 
L 373.188628 -255.0875 
L 372.02312 -255.0875 
L 370.857613 -255.0875 
L 369.692105 -255.0875 
L 368.526597 -255.0875 
L 367.36109 -255.0875 
L 366.195582 -255.0875 
L 365.030074 -255.0875 
L 363.864567 -255.0875 
L 362.699059 -255.0875 
L 361.533551 -255.0875 
L 360.368044 -255.0875 
L 359.202536 -255.0875 
L 358.037028 -255.0875 
L 356.871521 -255.0875 
L 355.706013 -255.0875 
L 354.540505 -255.0875 
L 353.374998 -255.0875 
L 352.20949 -255.0875 
L 351.043983 -255.0875 
L 349.878475 -255.0875 
L 348.712967 -255.0875 
L 347.54746 -255.0875 
L 346.381952 -255.0875 
L 345.216444 -255.0875 
L 344.050937 -255.0875 
L 342.885429 -255.0875 
L 341.719921 -255.0875 
L 340.554414 -255.0875 
L 339.388906 -255.0875 
L 338.223398 -255.0875 
L 337.057891 -255.0875 
L 335.892383 -255.0875 
L 334.726875 -255.0875 
L 333.561368 -255.0875 
L 332.39586 -255.0875 
L 331.230352 -255.0875 
L 330.064845 -255.0875 
L 328.899337 -255.0875 
L 327.73383 -255.0875 
L 326.568322 -255.0875 
L 325.402814 -255.0875 
L 324.237307 -255.0875 
L 323.071799 -255.0875 
L 321.906291 -255.0875 
L 320.740784 -255.0875 
L 319.575276 -255.0875 
L 318.409768 -255.0875 
L 317.244261 -255.0875 
L 316.078753 -255.0875 
L 314.913245 -255.0875 
L 313.747738 -255.0875 
L 312.58223 -255.0875 
L 311.416722 -255.0875 
L 310.251215 -255.0875 
L 309.085707 -255.0875 
L 307.920199 -255.0875 
L 306.754692 -255.0875 
L 305.589184 -255.0875 
L 304.423677 -255.0875 
L 303.258169 -255.0875 
L 302.092661 -255.0875 
L 300.927154 -255.0875 
L 299.761646 -255.0875 
L 298.596138 -255.0875 
L 297.430631 -255.0875 
L 296.265123 -255.0875 
L 295.099615 -255.0875 
L 293.934108 -255.0875 
L 292.7686 -255.0875 
L 291.603092 -255.0875 
L 290.437585 -255.0875 
L 289.272077 -255.0875 
L 288.106569 -255.0875 
L 286.941062 -255.0875 
L 285.775554 -255.0875 
L 284.610047 -255.0875 
L 283.444539 -255.0875 
L 282.279031 -255.0875 
L 281.113524 -255.0875 
L 279.948016 -255.0875 
L 278.782508 -255.0875 
L 277.617001 -255.0875 
L 276.451493 -255.0875 
L 275.285985 -255.0875 
L 274.120478 -255.0875 
L 272.95497 -255.0875 
L 271.789462 -255.0875 
L 270.623955 -255.0875 
L 269.458447 -255.0875 
L 268.292939 -255.0875 
L 267.127432 -255.0875 
L 265.961924 -255.0875 
L 264.796416 -255.0875 
L 263.630909 -255.0875 
L 262.465401 -255.0875 
L 261.299894 -255.0875 
L 260.134386 -255.0875 
L 258.968878 -255.0875 
L 257.803371 -255.0875 
L 256.637863 -255.0875 
L 255.472355 -255.0875 
L 254.306848 -255.0875 
L 253.14134 -255.0875 
L 251.975832 -255.0875 
L 250.810325 -255.0875 
L 249.644817 -255.0875 
L 248.479309 -255.0875 
L 247.313802 -255.0875 
L 246.148294 -255.0875 
L 244.982786 -255.0875 
L 243.817279 -255.0875 
L 242.651771 -255.0875 
L 241.486263 -255.0875 
L 240.320756 -255.0875 
L 239.155248 -255.0875 
L 237.989741 -255.0875 
L 236.824233 -255.0875 
L 235.658725 -255.0875 
L 234.493218 -255.0875 
L 233.32771 -255.0875 
L 232.162202 -255.0875 
L 230.996695 -255.0875 
L 229.831187 -255.0875 
L 228.665679 -255.0875 
L 227.500172 -255.0875 
L 226.334664 -255.0875 
L 225.169156 -255.0875 
L 224.003649 -255.0875 
L 222.838141 -255.0875 
L 221.672633 -255.0875 
L 220.507126 -255.0875 
L 219.341618 -255.0875 
L 218.17611 -255.0875 
L 217.010603 -255.0875 
L 215.845095 -255.0875 
L 214.679588 -255.0875 
L 213.51408 -255.0875 
L 212.348572 -255.0875 
L 211.183065 -255.0875 
L 210.017557 -255.0875 
L 208.852049 -255.0875 
L 207.686542 -255.0875 
L 206.521034 -255.0875 
L 205.355526 -255.0875 
L 204.190019 -255.0875 
L 203.024511 -255.0875 
L 201.859003 -255.0875 
L 200.693496 -255.0875 
L 199.527988 -255.0875 
L 198.36248 -255.0875 
L 197.196973 -255.0875 
L 196.031465 -255.0875 
L 194.865957 -255.0875 
L 193.70045 -255.0875 
L 192.534942 -255.0875 
L 191.369435 -255.0875 
L 190.203927 -255.0875 
L 189.038419 -255.0875 
L 187.872912 -255.0875 
L 186.707404 -255.0875 
L 185.541896 -255.0875 
L 184.376389 -255.0875 
L 183.210881 -255.0875 
L 182.045373 -255.0875 
L 180.879866 -255.0875 
L 179.714358 -255.0875 
L 178.54885 -255.0875 
L 177.383343 -255.0875 
L 176.217835 -255.0875 
L 175.052327 -255.0875 
L 173.88682 -255.0875 
L 172.721312 -255.0875 
L 171.555805 -255.0875 
L 170.390297 -255.0875 
L 169.224789 -255.0875 
L 168.059282 -255.0875 
L 166.893774 -255.0875 
L 165.728266 -255.0875 
L 164.562759 -255.0875 
L 163.397251 -255.0875 
L 162.231743 -255.0875 
L 161.066236 -255.0875 
L 159.900728 -255.0875 
L 158.73522 -255.0875 
L 157.569713 -255.0875 
L 156.404205 -255.0875 
L 155.238697 -255.0875 
L 154.07319 -255.0875 
L 152.907682 -255.0875 
L 151.742174 -255.0875 
L 150.576667 -255.0875 
L 149.411159 -255.0875 
L 148.245652 -255.0875 
L 147.080144 -255.0875 
L 145.914636 -255.0875 
L 144.749129 -255.0875 
L 143.583621 -255.0875 
L 142.418113 -255.0875 
L 141.252606 -255.0875 
L 140.087098 -255.0875 
L 138.92159 -255.0875 
L 137.756083 -255.0875 
L 136.590575 -255.0875 
L 135.425067 -255.0875 
L 134.25956 -255.0875 
L 133.094052 -255.0875 
L 131.928544 -255.0875 
L 130.763037 -255.0875 
L 129.597529 -255.0875 
L 128.432021 -255.0875 
L 127.266514 -255.0875 
L 126.101006 -255.0875 
L 124.935499 -255.0875 
L 123.769991 -255.0875 
L 122.604483 -255.0875 
L 121.438976 -255.0875 
L 120.273468 -255.0875 
L 119.10796 -255.0875 
L 117.942453 -255.0875 
L 116.776945 -255.0875 
L 115.611437 -255.0875 
L 114.44593 -255.0875 
L 113.280422 -255.0875 
L 112.114914 -255.0875 
L 110.949407 -255.0875 
L 109.783899 -255.0875 
L 108.618391 -255.0875 
L 107.452884 -255.0875 
L 106.287376 -255.0875 
L 105.121868 -255.0875 
L 103.956361 -255.0875 
L 102.790853 -255.0875 
L 101.625346 -255.0875 
L 100.459838 -255.0875 
L 99.29433 -255.0875 
L 98.128823 -255.0875 
L 96.963315 -255.0875 
L 95.797807 -255.0875 
L 94.6323 -255.0875 
L 93.466792 -255.0875 
L 92.301284 -255.0875 
L 91.135777 -255.0875 
L 89.970269 -255.0875 
L 88.804761 -255.0875 
L 87.639254 -255.0875 
L 86.473746 -255.0875 
L 85.308238 -255.0875 
L 84.142731 -255.0875 
L 82.977223 -255.0875 
L 81.811715 -255.0875 
L 80.646208 -255.0875 
L 79.4807 -255.0875 
L 78.315193 -255.0875 
L 77.149685 -255.0875 
L 75.984177 -255.0875 
L 74.81867 -255.0875 
L 73.653162 -255.0875 
L 72.487654 -255.0875 
L 71.322147 -255.0875 
L 70.156639 -255.0875 
L 68.991131 -255.0875 
L 67.825624 -255.0875 
L 66.660116 -255.0875 
L 65.494608 -255.0875 
L 64.329101 -255.0875 
L 63.163593 -255.0875 
L 61.998085 -255.0875 
L 60.832578 -255.0875 
L 59.66707 -255.0875 
L 58.501563 -255.0875 
z
" style="stroke: #a3583c; stroke-opacity: 0.08"/>
    </defs>
    <g clip-path="url(#p3953c89ef9)">
     <use xlink:href="#m943bffddcd" x="0" y="499.624687" style="fill: #a3583c; fill-opacity: 0.08; stroke: #a3583c; stroke-opacity: 0.08"/>
    </g>
   </g>
   <g id="matplotlib.axis_1">
    <g id="xtick_1">
     <g id="line2d_1">
      <path d="M 58.501563 453.877187 
L 58.501563 35.197187 
" clip-path="url(#p3953c89ef9)" style="fill: none; stroke: #d9cbb6; stroke-opacity: 0.45; stroke-width: 0.8; stroke-linecap: square"/>
     </g>
     <g id="line2d_2">
      <defs>
       <path id="m9d478da989" d="M 0 0 
L 0 3.5 
" style="stroke: #756a5d; stroke-width: 0.8"/>
      </defs>
      <g>
       <use xlink:href="#m9d478da989" x="58.501563" y="453.877187" style="fill: #756a5d; stroke: #756a5d; stroke-width: 0.8"/>
      </g>
     </g>
     <g id="text_1">
      <text style="font-size: 11px; font-family: 'DejaVu Serif'; text-anchor: middle; fill: #756a5d" x="58.501563" y="469.235469" transform="rotate(-0 58.501563 469.235469)">0.0</text>
     </g>
    </g>
    <g id="xtick_2">
     <g id="line2d_3">
      <path d="M 226.101563 453.877187 
L 226.101563 35.197187 
" clip-path="url(#p3953c89ef9)" style="fill: none; stroke: #d9cbb6; stroke-opacity: 0.45; stroke-width: 0.8; stroke-linecap: square"/>
     </g>
     <g id="line2d_4">
      <g>
       <use xlink:href="#m9d478da989" x="226.101563" y="453.877187" style="fill: #756a5d; stroke: #756a5d; stroke-width: 0.8"/>
      </g>
     </g>
     <g id="text_2">
      <text style="font-size: 11px; font-family: 'DejaVu Serif'; text-anchor: middle; fill: #756a5d" x="226.101563" y="469.235469" transform="rotate(-0 226.101563 469.235469)">0.2</text>
     </g>
    </g>
    <g id="xtick_3">
     <g id="line2d_5">
      <path d="M 393.701563 453.877187 
L 393.701563 35.197187 
" clip-path="url(#p3953c89ef9)" style="fill: none; stroke: #d9cbb6; stroke-opacity: 0.45; stroke-width: 0.8; stroke-linecap: square"/>
     </g>
     <g id="line2d_6">
      <g>
       <use xlink:href="#m9d478da989" x="393.701563" y="453.877187" style="fill: #756a5d; stroke: #756a5d; stroke-width: 0.8"/>
      </g>
     </g>
     <g id="text_3">
      <text style="font-size: 11px; font-family: 'DejaVu Serif'; text-anchor: middle; fill: #756a5d" x="393.701563" y="469.235469" transform="rotate(-0 393.701563 469.235469)">0.4</text>
     </g>
    </g>
    <g id="xtick_4">
     <g id="line2d_7">
      <path d="M 561.301563 453.877187 
L 561.301563 35.197187 
" clip-path="url(#p3953c89ef9)" style="fill: none; stroke: #d9cbb6; stroke-opacity: 0.45; stroke-width: 0.8; stroke-linecap: square"/>
     </g>
     <g id="line2d_8">
      <g>
       <use xlink:href="#m9d478da989" x="561.301563" y="453.877187" style="fill: #756a5d; stroke: #756a5d; stroke-width: 0.8"/>
      </g>
     </g>
     <g id="text_4">
      <text style="font-size: 11px; font-family: 'DejaVu Serif'; text-anchor: middle; fill: #756a5d" x="561.301563" y="469.235469" transform="rotate(-0 561.301563 469.235469)">0.6</text>
     </g>
    </g>
    <g id="xtick_5">
     <g id="line2d_9">
      <path d="M 728.901563 453.877187 
L 728.901563 35.197187 
" clip-path="url(#p3953c89ef9)" style="fill: none; stroke: #d9cbb6; stroke-opacity: 0.45; stroke-width: 0.8; stroke-linecap: square"/>
     </g>
     <g id="line2d_10">
      <g>
       <use xlink:href="#m9d478da989" x="728.901563" y="453.877187" style="fill: #756a5d; stroke: #756a5d; stroke-width: 0.8"/>
      </g>
     </g>
     <g id="text_5">
      <text style="font-size: 11px; font-family: 'DejaVu Serif'; text-anchor: middle; fill: #756a5d" x="728.901563" y="469.235469" transform="rotate(-0 728.901563 469.235469)">0.8</text>
     </g>
    </g>
    <g id="xtick_6">
     <g id="line2d_11">
      <path d="M 896.501562 453.877187 
L 896.501562 35.197187 
" clip-path="url(#p3953c89ef9)" style="fill: none; stroke: #d9cbb6; stroke-opacity: 0.45; stroke-width: 0.8; stroke-linecap: square"/>
     </g>
     <g id="line2d_12">
      <g>
       <use xlink:href="#m9d478da989" x="896.501562" y="453.877187" style="fill: #756a5d; stroke: #756a5d; stroke-width: 0.8"/>
      </g>
     </g>
     <g id="text_6">
      <text style="font-size: 11px; font-family: 'DejaVu Serif'; text-anchor: middle; fill: #756a5d" x="896.501562" y="469.235469" transform="rotate(-0 896.501562 469.235469)">1.0</text>
     </g>
    </g>
    <g id="text_7">
     <text style="font-size: 13px; font-family: 'DejaVu Serif'; text-anchor: middle; fill: #1f1b16" x="477.501562" y="485.401094" transform="rotate(-0 477.501562 485.401094)">Orbital phase</text>
    </g>
   </g>
   <g id="matplotlib.axis_2">
    <g id="ytick_1">
     <g id="line2d_13">
      <path d="M 58.501563 410.125517 
L 896.501562 410.125517 
" clip-path="url(#p3953c89ef9)" style="fill: none; stroke: #d9cbb6; stroke-opacity: 0.45; stroke-width: 0.8; stroke-linecap: square"/>
     </g>
     <g id="line2d_14">
      <defs>
       <path id="m0008e7ea67" d="M 0 0 
L -3.5 0 
" style="stroke: #756a5d; stroke-width: 0.8"/>
      </defs>
      <g>
       <use xlink:href="#m0008e7ea67" x="58.501563" y="410.125517" style="fill: #756a5d; stroke: #756a5d; stroke-width: 0.8"/>
      </g>
     </g>
     <g id="text_8">
      <text style="font-size: 11px; font-family: 'DejaVu Serif'; text-anchor: end; fill: #756a5d" x="51.501563" y="414.304658" transform="rotate(-0 51.501563 414.304658)">−75</text>
     </g>
    </g>
    <g id="ytick_2">
     <g id="line2d_15">
      <path d="M 58.501563 354.929407 
L 896.501562 354.929407 
" clip-path="url(#p3953c89ef9)" style="fill: none; stroke: #d9cbb6; stroke-opacity: 0.45; stroke-width: 0.8; stroke-linecap: square"/>
     </g>
     <g id="line2d_16">
      <g>
       <use xlink:href="#m0008e7ea67" x="58.501563" y="354.929407" style="fill: #756a5d; stroke: #756a5d; stroke-width: 0.8"/>
      </g>
     </g>
     <g id="text_9">
      <text style="font-size: 11px; font-family: 'DejaVu Serif'; text-anchor: end; fill: #756a5d" x="51.501563" y="359.108548" transform="rotate(-0 51.501563 359.108548)">−50</text>
     </g>
    </g>
    <g id="ytick_3">
     <g id="line2d_17">
      <path d="M 58.501563 299.733297 
L 896.501562 299.733297 
" clip-path="url(#p3953c89ef9)" style="fill: none; stroke: #d9cbb6; stroke-opacity: 0.45; stroke-width: 0.8; stroke-linecap: square"/>
     </g>
     <g id="line2d_18">
      <g>
       <use xlink:href="#m0008e7ea67" x="58.501563" y="299.733297" style="fill: #756a5d; stroke: #756a5d; stroke-width: 0.8"/>
      </g>
     </g>
     <g id="text_10">
      <text style="font-size: 11px; font-family: 'DejaVu Serif'; text-anchor: end; fill: #756a5d" x="51.501563" y="303.912438" transform="rotate(-0 51.501563 303.912438)">−25</text>
     </g>
    </g>
    <g id="ytick_4">
     <g id="line2d_19">
      <path d="M 58.501563 244.537187 
L 896.501562 244.537187 
" clip-path="url(#p3953c89ef9)" style="fill: none; stroke: #d9cbb6; stroke-opacity: 0.45; stroke-width: 0.8; stroke-linecap: square"/>
     </g>
     <g id="line2d_20">
      <g>
       <use xlink:href="#m0008e7ea67" x="58.501563" y="244.537187" style="fill: #756a5d; stroke: #756a5d; stroke-width: 0.8"/>
      </g>
     </g>
     <g id="text_11">
      <text style="font-size: 11px; font-family: 'DejaVu Serif'; text-anchor: end; fill: #756a5d" x="51.501563" y="248.716328" transform="rotate(-0 51.501563 248.716328)">0</text>
     </g>
    </g>
    <g id="ytick_5">
     <g id="line2d_21">
      <path d="M 58.501563 189.341078 
L 896.501562 189.341078 
" clip-path="url(#p3953c89ef9)" style="fill: none; stroke: #d9cbb6; stroke-opacity: 0.45; stroke-width: 0.8; stroke-linecap: square"/>
     </g>
     <g id="line2d_22">
      <g>
       <use xlink:href="#m0008e7ea67" x="58.501563" y="189.341078" style="fill: #756a5d; stroke: #756a5d; stroke-width: 0.8"/>
      </g>
     </g>
     <g id="text_12">
      <text style="font-size: 11px; font-family: 'DejaVu Serif'; text-anchor: end; fill: #756a5d" x="51.501563" y="193.520218" transform="rotate(-0 51.501563 193.520218)">25</text>
     </g>
    </g>
    <g id="ytick_6">
     <g id="line2d_23">
      <path d="M 58.501563 134.144968 
L 896.501562 134.144968 
" clip-path="url(#p3953c89ef9)" style="fill: none; stroke: #d9cbb6; stroke-opacity: 0.45; stroke-width: 0.8; stroke-linecap: square"/>
     </g>
     <g id="line2d_24">
      <g>
       <use xlink:href="#m0008e7ea67" x="58.501563" y="134.144968" style="fill: #756a5d; stroke: #756a5d; stroke-width: 0.8"/>
      </g>
     </g>
     <g id="text_13">
      <text style="font-size: 11px; font-family: 'DejaVu Serif'; text-anchor: end; fill: #756a5d" x="51.501563" y="138.324108" transform="rotate(-0 51.501563 138.324108)">50</text>
     </g>
    </g>
    <g id="ytick_7">
     <g id="line2d_25">
      <path d="M 58.501563 78.948858 
L 896.501562 78.948858 
" clip-path="url(#p3953c89ef9)" style="fill: none; stroke: #d9cbb6; stroke-opacity: 0.45; stroke-width: 0.8; stroke-linecap: square"/>
     </g>
     <g id="line2d_26">
      <g>
       <use xlink:href="#m0008e7ea67" x="58.501563" y="78.948858" style="fill: #756a5d; stroke: #756a5d; stroke-width: 0.8"/>
      </g>
     </g>
     <g id="text_14">
      <text style="font-size: 11px; font-family: 'DejaVu Serif'; text-anchor: end; fill: #756a5d" x="51.501563" y="83.127998" transform="rotate(-0 51.501563 83.127998)">75</text>
     </g>
    </g>
    <g id="text_15">
     <text style="font-size: 13px; font-family: 'DejaVu Serif'; text-anchor: middle; fill: #1f1b16" x="21.397969" y="244.537187" transform="rotate(-90 21.397969 244.537187)">Stellar radial velocity (m/s)</text>
    </g>
   </g>
   <g id="line2d_27">
    <path d="M 58.501563 244.537187 
L 81.811715 277.629587 
L 94.6323 295.464198 
L 105.121868 309.713699 
L 114.44593 322.044326 
L 123.769991 333.996296 
L 131.928544 344.097698 
L 140.087098 353.826666 
L 147.080144 361.841726 
L 154.07319 369.534367 
L 161.066236 376.883447 
L 168.059282 383.868765 
L 173.88682 389.398107 
L 179.714358 394.650931 
L 185.541896 399.61721 
L 191.369435 404.287463 
L 197.196973 408.652777 
L 203.024511 412.704817 
L 208.852049 416.43585 
L 213.51408 419.184744 
L 218.17611 421.720265 
L 222.838141 424.039314 
L 227.500172 426.139059 
L 232.162202 428.016935 
L 236.824233 429.670646 
L 241.486263 431.098173 
L 246.148294 432.297771 
L 250.810325 433.267976 
L 255.472355 434.007601 
L 260.134386 434.515743 
L 264.796416 434.791781 
L 269.458447 434.835379 
L 274.120478 434.646481 
L 278.782508 434.225321 
L 283.444539 433.572411 
L 288.106569 432.68855 
L 292.7686 431.574818 
L 297.430631 430.232574 
L 302.092661 428.66346 
L 306.754692 426.869392 
L 311.416722 424.852562 
L 316.078753 422.615434 
L 320.740784 420.160741 
L 325.402814 417.491482 
L 330.064845 414.610919 
L 335.892383 410.718454 
L 341.719921 406.508772 
L 347.54746 401.98991 
L 353.374998 397.170494 
L 359.202536 392.059723 
L 365.030074 386.667353 
L 370.857613 381.003678 
L 377.850658 373.8644 
L 384.843704 366.36966 
L 391.83675 358.540055 
L 398.829796 350.397107 
L 406.98835 340.530874 
L 415.146903 330.305549 
L 424.470964 318.228884 
L 433.795026 305.792201 
L 444.284594 291.44631 
L 457.105179 273.527671 
L 475.753301 247.031727 
L 501.394469 210.626238 
L 514.215053 192.809455 
L 524.704622 178.58005 
L 534.028684 166.271342 
L 543.352745 154.344997 
L 551.511298 144.26896 
L 559.669852 134.568005 
L 566.662898 126.578984 
L 573.655944 118.914177 
L 580.648989 111.594653 
L 587.642035 104.640529 
L 593.469574 99.138372 
L 599.297112 93.913761 
L 605.12465 88.976667 
L 610.952188 84.336516 
L 616.779727 80.002165 
L 622.607265 75.981887 
L 628.434803 72.283357 
L 633.096834 69.560956 
L 637.758864 67.05233 
L 642.420895 64.760544 
L 647.082926 62.688398 
L 651.744956 60.838423 
L 656.406987 59.21288 
L 661.069017 57.813755 
L 665.731048 56.642756 
L 670.393078 55.701315 
L 675.055109 54.990582 
L 679.71714 54.511424 
L 684.37917 54.264429 
L 689.041201 54.249896 
L 693.703231 54.467845 
L 698.365262 54.918008 
L 703.027293 55.599836 
L 707.689323 56.512496 
L 712.351354 57.654872 
L 717.013384 59.02557 
L 721.675415 60.622914 
L 726.337446 62.444952 
L 730.999476 64.48946 
L 735.661507 66.753939 
L 740.323537 69.235622 
L 744.985568 71.931477 
L 749.647599 74.838211 
L 755.475137 78.762743 
L 761.302675 83.003714 
L 767.130213 87.553029 
L 772.957752 92.402003 
L 778.78529 97.541382 
L 784.612828 102.961355 
L 790.440366 108.651575 
L 797.433412 115.821237 
L 804.426458 123.344683 
L 811.419504 131.201234 
L 818.41255 139.369295 
L 826.571104 149.262418 
L 834.729657 159.511944 
L 844.053718 171.612858 
L 853.377779 184.070042 
L 863.867348 198.43439 
L 876.687932 216.368811 
L 896.501562 244.537187 
L 896.501562 244.537187 
" clip-path="url(#p3953c89ef9)" style="fill: none; stroke: #a3583c; stroke-width: 2.6; stroke-linecap: square"/>
   </g>
   <g id="line2d_28">
    <path d="M 58.501563 244.537187 
L 896.501562 244.537187 
" clip-path="url(#p3953c89ef9)" style="fill: none; stroke-dasharray: 5.365,2.32; stroke-dashoffset: 0; stroke: #9b9184; stroke-opacity: 0.65; stroke-width: 1.45"/>
   </g>
   <g id="patch_3">
    <path d="M 58.501563 453.877187 
L 58.501563 35.197187 
" style="fill: none; stroke: #b9a98f; stroke-width: 0.8; stroke-linejoin: miter; stroke-linecap: square"/>
   </g>
   <g id="patch_4">
    <path d="M 896.501562 453.877187 
L 896.501562 35.197187 
" style="fill: none; stroke: #b9a98f; stroke-width: 0.8; stroke-linejoin: miter; stroke-linecap: square"/>
   </g>
   <g id="patch_5">
    <path d="M 58.501563 453.877187 
L 896.501562 453.877187 
" style="fill: none; stroke: #b9a98f; stroke-width: 0.8; stroke-linejoin: miter; stroke-linecap: square"/>
   </g>
   <g id="patch_6">
    <path d="M 58.501563 35.197187 
L 896.501562 35.197187 
" style="fill: none; stroke: #b9a98f; stroke-width: 0.8; stroke-linejoin: miter; stroke-linecap: square"/>
   </g>
   <g id="text_16">
    <g id="patch_7">
     <path d="M 71.071562 72.760563 
L 349.479063 72.760563 
Q 352.559063 72.760563 352.559063 69.680563 
L 352.559063 56.131188 
Q 352.559063 53.051188 349.479063 53.051188 
L 71.071562 53.051188 
Q 67.991563 53.051188 67.991563 56.131188 
L 67.991563 69.680563 
Q 67.991563 72.760563 71.071562 72.760563 
z
" style="fill: #fffaf0; opacity: 0.88"/>
    </g>
    <text style="font-size: 14px; font-family: 'DejaVu Serif'; text-anchor: start; fill: #756a5d" x="71.071562" y="66.769" transform="rotate(-0 71.071562 66.769)">K ≈ 86.2 m s^-1 · P ≈ 3.52 d · e = 0.00</text>
   </g>
   <g id="text_17">
    <text style="font-size: 10.5px; font-family: 'DejaVu Serif'; text-anchor: end; fill: #756a5d" x="888.121562" y="443.170619" transform="rotate(-0 888.121562 443.170619)">single-planet Keplerian model</text>
   </g>
   <g id="text_18">
    <text style="font-weight: 700; font-size: 18px; font-family: 'DejaVu Serif'; text-anchor: start; fill: #1f1b16" x="58.501563" y="25.197187" transform="rotate(-0 58.501563 25.197187)">Keplerian RV model — HD 209458 b</text>
   </g>
  </g>
 </g>
 <defs>
  <clipPath id="p3953c89ef9">
   <rect x="58.501563" y="35.197187" width="838" height="418.68"/>
  </clipPath>
 </defs>
</svg>
