<?xml version="1.0" encoding="utf-8" standalone="no"?>
<!DOCTYPE svg PUBLIC "-//W3C//DTD SVG 1.1//EN"
  "http://www.w3.org/Graphics/SVG/1.1/DTD/svg11.dtd">
<svg xmlns:xlink="http://www.w3.org/1999/xlink" width="916.754219pt" height="499.624687pt" viewBox="0 0 916.754219 499.624687" xmlns="http://www.w3.org/2000/svg" version="1.1">
 <metadata>
  <rdf:RDF xmlns:dc="http://purl.org/dc/elements/1.1/" xmlns:cc="http://creativecommons.org/ns#" xmlns:rdf="http://www.w3.org/1999/02/22-rdf-syntax-ns#">
   <cc:Work>
    <dc:type rdf:resource="http://purl.org/dc/dcmitype/StillImage"/>
    <dc:date>2026-05-11T11:57:51.479893</dc:date>
    <dc:format>image/svg+xml</dc:format>
    <dc:creator>
     <cc:Agent>
      <dc:title>Matplotlib v3.10.9, https://matplotlib.org/</dc:title>
     </cc:Agent>
    </dc:creator>
   </cc:Work>
  </rdf:RDF>
 </metadata>
 <defs>
  <style type="text/css">*{stroke-linejoin: round; stroke-linecap: butt}</style>
 </defs>
 <g id="figure_1">
  <g id="patch_1">
   <path d="M 0 499.624687 
L 916.754219 499.624687 
L 916.754219 0 
L 0 0 
z
" style="fill: #fffaf0"/>
  </g>
  <g id="axes_1">
   <g id="patch_2">
    <path d="M 61.9975 453.877187 
L 896.4875 453.877187 
L 896.4875 35.197187 
L 61.9975 35.197187 
z
" style="fill: #fffaf0"/>
   </g>
   <g id="FillBetweenPolyCollection_1">
    <defs>
     <path id="md6720918bb" d="M 61.9975 -255.0875 
L 61.9975 -255.0875 
L 63.158126 -253.277038 
L 64.318752 -251.466754 
L 65.479378 -249.656823 
L 66.640003 -247.847423 
L 67.800629 -246.038732 
L 68.961255 -244.230925 
L 70.121881 -242.424179 
L 71.282507 -240.618672 
L 72.443133 -238.814578 
L 73.603759 -237.012075 
L 74.764385 -235.211337 
L 75.92501 -233.412541 
L 77.085636 -231.615862 
L 78.246262 -229.821474 
L 79.406888 -228.029551 
L 80.567514 -226.240269 
L 81.72814 -224.453801 
L 82.888766 -222.670319 
L 84.049392 -220.889997 
L 85.210017 -219.113007 
L 86.370643 -217.339521 
L 87.531269 -215.569709 
L 88.691895 -213.803742 
L 89.852521 -212.041791 
L 91.013147 -210.284024 
L 92.173773 -208.53061 
L 93.334398 -206.781718 
L 94.495024 -205.037513 
L 95.65565 -203.298164 
L 96.816276 -201.563835 
L 97.976902 -199.834692 
L 99.137528 -198.110899 
L 100.298154 -196.392618 
L 101.45878 -194.680013 
L 102.619405 -192.973245 
L 103.780031 -191.272475 
L 104.940657 -189.577862 
L 106.101283 -187.889565 
L 107.261909 -186.207742 
L 108.422535 -184.53255 
L 109.583161 -182.864144 
L 110.743787 -181.202679 
L 111.904412 -179.548309 
L 113.065038 -177.901186 
L 114.225664 -176.261462 
L 115.38629 -174.629288 
L 116.546916 -173.004811 
L 117.707542 -171.388181 
L 118.868168 -169.779544 
L 120.028793 -168.179046 
L 121.189419 -166.58683 
L 122.350045 -165.003041 
L 123.510671 -163.427821 
L 124.671297 -161.861309 
L 125.831923 -160.303645 
L 126.992549 -158.754967 
L 128.153175 -157.215413 
L 129.3138 -155.685116 
L 130.474426 -154.164211 
L 131.635052 -152.652831 
L 132.795678 -151.151108 
L 133.956304 -149.659169 
L 135.11693 -148.177145 
L 136.277556 -146.705162 
L 137.438182 -145.243346 
L 138.598807 -143.79182 
L 139.759433 -142.350708 
L 140.920059 -140.92013 
L 142.080685 -139.500206 
L 143.241311 -138.091054 
L 144.401937 -136.692791 
L 145.562563 -135.305532 
L 146.723188 -133.92939 
L 147.883814 -132.564477 
L 149.04444 -131.210904 
L 150.205066 -129.868779 
L 151.365692 -128.53821 
L 152.526318 -127.219303 
L 153.686944 -125.912162 
L 154.84757 -124.616889 
L 156.008195 -123.333585 
L 157.168821 -122.06235 
L 158.329447 -120.803281 
L 159.490073 -119.556474 
L 160.650699 -118.322024 
L 161.811325 -117.100024 
L 162.971951 -115.890564 
L 164.132576 -114.693735 
L 165.293202 -113.509625 
L 166.453828 -112.338319 
L 167.614454 -111.179902 
L 168.77508 -110.034457 
L 169.935706 -108.902066 
L 171.096332 -107.782808 
L 172.256958 -106.676761 
L 173.417583 -105.584002 
L 174.578209 -104.504605 
L 175.738835 -103.438643 
L 176.899461 -102.386188 
L 178.060087 -101.347309 
L 179.220713 -100.322075 
L 180.381339 -99.310552 
L 181.541965 -98.312804 
L 182.70259 -97.328895 
L 183.863216 -96.358886 
L 185.023842 -95.402837 
L 186.184468 -94.460806 
L 187.345094 -93.53285 
L 188.50572 -92.619023 
L 189.666346 -91.719378 
L 190.826971 -90.833968 
L 191.987597 -89.962842 
L 193.148223 -89.106049 
L 194.308849 -88.263634 
L 195.469475 -87.435644 
L 196.630101 -86.622122 
L 197.790727 -85.823109 
L 198.951353 -85.038646 
L 200.111978 -84.268771 
L 201.272604 -83.513523 
L 202.43323 -82.772935 
L 203.593856 -82.047042 
L 204.754482 -81.335877 
L 205.915108 -80.63947 
L 207.075734 -79.95785 
L 208.23636 -79.291045 
L 209.396985 -78.639082 
L 210.557611 -78.001984 
L 211.718237 -77.379775 
L 212.878863 -76.772477 
L 214.039489 -76.18011 
L 215.200115 -75.602691 
L 216.360741 -75.040239 
L 217.521366 -74.492769 
L 218.681992 -73.960295 
L 219.842618 -73.442829 
L 221.003244 -72.940384 
L 222.16387 -72.452968 
L 223.324496 -71.98059 
L 224.485122 -71.523257 
L 225.645748 -71.080975 
L 226.806373 -70.653748 
L 227.966999 -70.241577 
L 229.127625 -69.844466 
L 230.288251 -69.462413 
L 231.448877 -69.095417 
L 232.609503 -68.743476 
L 233.770129 -68.406586 
L 234.930755 -68.084741 
L 236.09138 -67.777934 
L 237.252006 -67.486158 
L 238.412632 -67.209403 
L 239.573258 -66.947658 
L 240.733884 -66.700912 
L 241.89451 -66.469152 
L 243.055136 -66.252363 
L 244.215761 -66.05053 
L 245.376387 -65.863635 
L 246.537013 -65.691662 
L 247.697639 -65.53459 
L 248.858265 -65.3924 
L 250.018891 -65.265069 
L 251.179517 -65.152576 
L 252.340143 -65.054895 
L 253.500768 -64.972003 
L 254.661394 -64.903872 
L 255.82202 -64.850477 
L 256.982646 -64.811787 
L 258.143272 -64.787775 
L 259.303898 -64.778409 
L 260.464524 -64.783658 
L 261.62515 -64.803489 
L 262.785775 -64.837869 
L 263.946401 -64.886762 
L 265.107027 -64.950134 
L 266.267653 -65.027947 
L 267.428279 -65.120163 
L 268.588905 -65.226745 
L 269.749531 -65.347652 
L 270.910156 -65.482843 
L 272.070782 -65.632278 
L 273.231408 -65.795914 
L 274.392034 -65.973706 
L 275.55266 -66.165612 
L 276.713286 -66.371585 
L 277.873912 -66.59158 
L 279.034538 -66.82555 
L 280.195163 -67.073447 
L 281.355789 -67.335221 
L 282.516415 -67.610825 
L 283.677041 -67.900207 
L 284.837667 -68.203316 
L 285.998293 -68.5201 
L 287.158919 -68.850507 
L 288.319545 -69.194483 
L 289.48017 -69.551974 
L 290.640796 -69.922924 
L 291.801422 -70.307278 
L 292.962048 -70.70498 
L 294.122674 -71.115973 
L 295.2833 -71.540197 
L 296.443926 -71.977595 
L 297.604551 -72.428108 
L 298.765177 -72.891675 
L 299.925803 -73.368235 
L 301.086429 -73.857728 
L 302.247055 -74.360092 
L 303.407681 -74.875263 
L 304.568307 -75.403179 
L 305.728933 -75.943775 
L 306.889558 -76.496988 
L 308.050184 -77.062751 
L 309.21081 -77.641001 
L 310.371436 -78.23167 
L 311.532062 -78.834691 
L 312.692688 -79.449998 
L 313.853314 -80.077522 
L 315.013939 -80.717195 
L 316.174565 -81.368948 
L 317.335191 -82.032712 
L 318.495817 -82.708417 
L 319.656443 -83.395991 
L 320.817069 -84.095365 
L 321.977695 -84.806467 
L 323.138321 -85.529225 
L 324.298946 -86.263567 
L 325.459572 -87.00942 
L 326.620198 -87.76671 
L 327.780824 -88.535364 
L 328.94145 -89.315307 
L 330.102076 -90.106466 
L 331.262702 -90.908766 
L 332.423328 -91.72213 
L 333.583953 -92.546484 
L 334.744579 -93.381751 
L 335.905205 -94.227854 
L 337.065831 -95.084717 
L 338.226457 -95.952263 
L 339.387083 -96.830413 
L 340.547709 -97.719091 
L 341.708334 -98.618217 
L 342.86896 -99.527713 
L 344.029586 -100.447501 
L 345.190212 -101.3775 
L 346.350838 -102.317632 
L 347.511464 -103.267816 
L 348.67209 -104.227972 
L 349.832716 -105.19802 
L 350.993341 -106.177878 
L 352.153967 -107.167467 
L 353.314593 -108.166705 
L 354.475219 -109.175509 
L 355.635845 -110.193799 
L 356.796471 -111.221491 
L 357.957097 -112.258505 
L 359.117723 -113.304757 
L 360.278348 -114.360164 
L 361.438974 -115.424643 
L 362.5996 -116.498111 
L 363.760226 -117.580485 
L 364.920852 -118.67168 
L 366.081478 -119.771614 
L 367.242104 -120.880201 
L 368.402729 -121.997357 
L 369.563355 -123.122999 
L 370.723981 -124.25704 
L 371.884607 -125.399397 
L 373.045233 -126.549984 
L 374.205859 -127.708716 
L 375.366485 -128.875507 
L 376.527111 -130.050273 
L 377.687736 -131.232926 
L 378.848362 -132.423382 
L 380.008988 -133.621553 
L 381.169614 -134.827355 
L 382.33024 -136.040701 
L 383.490866 -137.261503 
L 384.651492 -138.489676 
L 385.812118 -139.725133 
L 386.972743 -140.967787 
L 388.133369 -142.21755 
L 389.293995 -143.474336 
L 390.454621 -144.738058 
L 391.615247 -146.008628 
L 392.775873 -147.285958 
L 393.936499 -148.569961 
L 395.097124 -149.86055 
L 396.25775 -151.157636 
L 397.418376 -152.461131 
L 398.579002 -153.770948 
L 399.739628 -155.086999 
L 400.900254 -156.409195 
L 402.06088 -157.737448 
L 403.221506 -159.07167 
L 404.382131 -160.411773 
L 405.542757 -161.757667 
L 406.703383 -163.109264 
L 407.864009 -164.466476 
L 409.024635 -165.829214 
L 410.185261 -167.197389 
L 411.345887 -168.570912 
L 412.506513 -169.949694 
L 413.667138 -171.333647 
L 414.827764 -172.722681 
L 415.98839 -174.116707 
L 417.149016 -175.515636 
L 418.309642 -176.919379 
L 419.470268 -178.327847 
L 420.630894 -179.74095 
L 421.791519 -181.158599 
L 422.952145 -182.580704 
L 424.112771 -184.007176 
L 425.273397 -185.437926 
L 426.434023 -186.872864 
L 427.594649 -188.3119 
L 428.755275 -189.754945 
L 429.915901 -191.201909 
L 431.076526 -192.652703 
L 432.237152 -194.107237 
L 433.397778 -195.56542 
L 434.558404 -197.027164 
L 435.71903 -198.492378 
L 436.879656 -199.960973 
L 438.040282 -201.432859 
L 439.200908 -202.907945 
L 440.361533 -204.386142 
L 441.522159 -205.867361 
L 442.682785 -207.35151 
L 443.843411 -208.8385 
L 445.004037 -210.328242 
L 446.164663 -211.820644 
L 447.325289 -213.315618 
L 448.485914 -214.813072 
L 449.64654 -216.312917 
L 450.807166 -217.815063 
L 451.967792 -219.31942 
L 453.128418 -220.825897 
L 454.289044 -222.334404 
L 455.44967 -223.844851 
L 456.610296 -225.357149 
L 457.770921 -226.871207 
L 458.931547 -228.386934 
L 460.092173 -229.90424 
L 461.252799 -231.423036 
L 462.413425 -232.943231 
L 463.574051 -234.464735 
L 464.734677 -235.987457 
L 465.895303 -237.511308 
L 467.055928 -239.036197 
L 468.216554 -240.562034 
L 469.37718 -242.088728 
L 470.537806 -243.61619 
L 471.698432 -245.144329 
L 472.859058 -246.673054 
L 474.019684 -248.202276 
L 475.180309 -249.731905 
L 476.340935 -251.261849 
L 477.501561 -252.792019 
L 478.662187 -254.322325 
L 479.822813 -255.852675 
L 480.983439 -257.382981 
L 482.144065 -258.913151 
L 483.304691 -260.443095 
L 484.465316 -261.972724 
L 485.625942 -263.501946 
L 486.786568 -265.030671 
L 487.947194 -266.55881 
L 489.10782 -268.086272 
L 490.268446 -269.612966 
L 491.429072 -271.138803 
L 492.589697 -272.663692 
L 493.750323 -274.187543 
L 494.910949 -275.710265 
L 496.071575 -277.231769 
L 497.232201 -278.751964 
L 498.392827 -280.27076 
L 499.553453 -281.788066 
L 500.714079 -283.303793 
L 501.874704 -284.817851 
L 503.03533 -286.330149 
L 504.195956 -287.840596 
L 505.356582 -289.349103 
L 506.517208 -290.85558 
L 507.677834 -292.359937 
L 508.83846 -293.862083 
L 509.999086 -295.361928 
L 511.159711 -296.859382 
L 512.320337 -298.354356 
L 513.480963 -299.846758 
L 514.641589 -301.3365 
L 515.802215 -302.82349 
L 516.962841 -304.307639 
L 518.123467 -305.788858 
L 519.284092 -307.267055 
L 520.444718 -308.742141 
L 521.605344 -310.214027 
L 522.76597 -311.682622 
L 523.926596 -313.147836 
L 525.087222 -314.60958 
L 526.247848 -316.067763 
L 527.408474 -317.522297 
L 528.569099 -318.973091 
L 529.729725 -320.420055 
L 530.890351 -321.8631 
L 532.050977 -323.302136 
L 533.211603 -324.737074 
L 534.372229 -326.167824 
L 535.532855 -327.594296 
L 536.693481 -329.016401 
L 537.854106 -330.43405 
L 539.014732 -331.847153 
L 540.175358 -333.255621 
L 541.335984 -334.659364 
L 542.49661 -336.058293 
L 543.657236 -337.452319 
L 544.817862 -338.841353 
L 545.978487 -340.225306 
L 547.139113 -341.604088 
L 548.299739 -342.977611 
L 549.460365 -344.345786 
L 550.620991 -345.708524 
L 551.781617 -347.065736 
L 552.942243 -348.417333 
L 554.102869 -349.763227 
L 555.263494 -351.10333 
L 556.42412 -352.437552 
L 557.584746 -353.765805 
L 558.745372 -355.088001 
L 559.905998 -356.404052 
L 561.066624 -357.713869 
L 562.22725 -359.017364 
L 563.387876 -360.31445 
L 564.548501 -361.605039 
L 565.709127 -362.889042 
L 566.869753 -364.166372 
L 568.030379 -365.436942 
L 569.191005 -366.700664 
L 570.351631 -367.95745 
L 571.512257 -369.207213 
L 572.672882 -370.449867 
L 573.833508 -371.685324 
L 574.994134 -372.913497 
L 576.15476 -374.134299 
L 577.315386 -375.347645 
L 578.476012 -376.553447 
L 579.636638 -377.751618 
L 580.797264 -378.942074 
L 581.957889 -380.124727 
L 583.118515 -381.299493 
L 584.279141 -382.466284 
L 585.439767 -383.625016 
L 586.600393 -384.775603 
L 587.761019 -385.91796 
L 588.921645 -387.052001 
L 590.082271 -388.177643 
L 591.242896 -389.294799 
L 592.403522 -390.403386 
L 593.564148 -391.50332 
L 594.724774 -392.594515 
L 595.8854 -393.676889 
L 597.046026 -394.750357 
L 598.206652 -395.814836 
L 599.367277 -396.870243 
L 600.527903 -397.916495 
L 601.688529 -398.953509 
L 602.849155 -399.981201 
L 604.009781 -400.999491 
L 605.170407 -402.008295 
L 606.331033 -403.007533 
L 607.491659 -403.997122 
L 608.652284 -404.97698 
L 609.81291 -405.947028 
L 610.973536 -406.907184 
L 612.134162 -407.857368 
L 613.294788 -408.7975 
L 614.455414 -409.727499 
L 615.61604 -410.647287 
L 616.776666 -411.556783 
L 617.937291 -412.455909 
L 619.097917 -413.344587 
L 620.258543 -414.222737 
L 621.419169 -415.090283 
L 622.579795 -415.947146 
L 623.740421 -416.793249 
L 624.901047 -417.628516 
L 626.061672 -418.45287 
L 627.222298 -419.266234 
L 628.382924 -420.068534 
L 629.54355 -420.859693 
L 630.704176 -421.639636 
L 631.864802 -422.40829 
L 633.025428 -423.16558 
L 634.186054 -423.911433 
L 635.346679 -424.645775 
L 636.507305 -425.368533 
L 637.667931 -426.079635 
L 638.828557 -426.779009 
L 639.989183 -427.466583 
L 641.149809 -428.142288 
L 642.310435 -428.806052 
L 643.471061 -429.457805 
L 644.631686 -430.097478 
L 645.792312 -430.725002 
L 646.952938 -431.340309 
L 648.113564 -431.94333 
L 649.27419 -432.533999 
L 650.434816 -433.112249 
L 651.595442 -433.678012 
L 652.756067 -434.231225 
L 653.916693 -434.771821 
L 655.077319 -435.299737 
L 656.237945 -435.814908 
L 657.398571 -436.317272 
L 658.559197 -436.806765 
L 659.719823 -437.283325 
L 660.880449 -437.746892 
L 662.041074 -438.197405 
L 663.2017 -438.634803 
L 664.362326 -439.059027 
L 665.522952 -439.47002 
L 666.683578 -439.867722 
L 667.844204 -440.252076 
L 669.00483 -440.623026 
L 670.165455 -440.980517 
L 671.326081 -441.324493 
L 672.486707 -441.6549 
L 673.647333 -441.971684 
L 674.807959 -442.274793 
L 675.968585 -442.564175 
L 677.129211 -442.839779 
L 678.289837 -443.101553 
L 679.450462 -443.34945 
L 680.611088 -443.58342 
L 681.771714 -443.803415 
L 682.93234 -444.009388 
L 684.092966 -444.201294 
L 685.253592 -444.379086 
L 686.414218 -444.542722 
L 687.574844 -444.692157 
L 688.735469 -444.827348 
L 689.896095 -444.948255 
L 691.056721 -445.054837 
L 692.217347 -445.147053 
L 693.377973 -445.224866 
L 694.538599 -445.288238 
L 695.699225 -445.337131 
L 696.85985 -445.371511 
L 698.020476 -445.391342 
L 699.181102 -445.396591 
L 700.341728 -445.387225 
L 701.502354 -445.363213 
L 702.66298 -445.324523 
L 703.823606 -445.271128 
L 704.984232 -445.202997 
L 706.144857 -445.120105 
L 707.305483 -445.022424 
L 708.466109 -444.909931 
L 709.626735 -444.7826 
L 710.787361 -444.64041 
L 711.947987 -444.483338 
L 713.108613 -444.311365 
L 714.269239 -444.12447 
L 715.429864 -443.922637 
L 716.59049 -443.705848 
L 717.751116 -443.474088 
L 718.911742 -443.227342 
L 720.072368 -442.965597 
L 721.232994 -442.688842 
L 722.39362 -442.397066 
L 723.554245 -442.090259 
L 724.714871 -441.768414 
L 725.875497 -441.431524 
L 727.036123 -441.079583 
L 728.196749 -440.712587 
L 729.357375 -440.330534 
L 730.518001 -439.933423 
L 731.678627 -439.521252 
L 732.839252 -439.094025 
L 733.999878 -438.651743 
L 735.160504 -438.19441 
L 736.32113 -437.722032 
L 737.481756 -437.234616 
L 738.642382 -436.732171 
L 739.803008 -436.214705 
L 740.963634 -435.682231 
L 742.124259 -435.134761 
L 743.284885 -434.572309 
L 744.445511 -433.99489 
L 745.606137 -433.402523 
L 746.766763 -432.795225 
L 747.927389 -432.173016 
L 749.088015 -431.535918 
L 750.24864 -430.883955 
L 751.409266 -430.21715 
L 752.569892 -429.53553 
L 753.730518 -428.839123 
L 754.891144 -428.127958 
L 756.05177 -427.402065 
L 757.212396 -426.661477 
L 758.373022 -425.906229 
L 759.533647 -425.136354 
L 760.694273 -424.351891 
L 761.854899 -423.552878 
L 763.015525 -422.739356 
L 764.176151 -421.911366 
L 765.336777 -421.068951 
L 766.497403 -420.212158 
L 767.658029 -419.341032 
L 768.818654 -418.455622 
L 769.97928 -417.555977 
L 771.139906 -416.64215 
L 772.300532 -415.714194 
L 773.461158 -414.772163 
L 774.621784 -413.816114 
L 775.78241 -412.846105 
L 776.943035 -411.862196 
L 778.103661 -410.864448 
L 779.264287 -409.852925 
L 780.424913 -408.827691 
L 781.585539 -407.788812 
L 782.746165 -406.736357 
L 783.906791 -405.670395 
L 785.067417 -404.590998 
L 786.228042 -403.498239 
L 787.388668 -402.392192 
L 788.549294 -401.272934 
L 789.70992 -400.140543 
L 790.870546 -398.995098 
L 792.031172 -397.836681 
L 793.191798 -396.665375 
L 794.352424 -395.481265 
L 795.513049 -394.284436 
L 796.673675 -393.074976 
L 797.834301 -391.852976 
L 798.994927 -390.618526 
L 800.155553 -389.371719 
L 801.316179 -388.11265 
L 802.476805 -386.841415 
L 803.63743 -385.558111 
L 804.798056 -384.262838 
L 805.958682 -382.955697 
L 807.119308 -381.63679 
L 808.279934 -380.306221 
L 809.44056 -378.964096 
L 810.601186 -377.610523 
L 811.761812 -376.24561 
L 812.922437 -374.869468 
L 814.083063 -373.482209 
L 815.243689 -372.083946 
L 816.404315 -370.674794 
L 817.564941 -369.25487 
L 818.725567 -367.824292 
L 819.886193 -366.38318 
L 821.046818 -364.931654 
L 822.207444 -363.469838 
L 823.36807 -361.997855 
L 824.528696 -360.515831 
L 825.689322 -359.023892 
L 826.849948 -357.522169 
L 828.010574 -356.010789 
L 829.1712 -354.489884 
L 830.331825 -352.959587 
L 831.492451 -351.420033 
L 832.653077 -349.871355 
L 833.813703 -348.313691 
L 834.974329 -346.747179 
L 836.134955 -345.171959 
L 837.295581 -343.58817 
L 838.456207 -341.995954 
L 839.616832 -340.395456 
L 840.777458 -338.786819 
L 841.938084 -337.170189 
L 843.09871 -335.545712 
L 844.259336 -333.913538 
L 845.419962 -332.273814 
L 846.580588 -330.626691 
L 847.741213 -328.972321 
L 848.901839 -327.310856 
L 850.062465 -325.64245 
L 851.223091 -323.967258 
L 852.383717 -322.285435 
L 853.544343 -320.597138 
L 854.704969 -318.902525 
L 855.865595 -317.201755 
L 857.02622 -315.494987 
L 858.186846 -313.782382 
L 859.347472 -312.064101 
L 860.508098 -310.340308 
L 861.668724 -308.611165 
L 862.82935 -306.876836 
L 863.989976 -305.137487 
L 865.150602 -303.393282 
L 866.311227 -301.64439 
L 867.471853 -299.890976 
L 868.632479 -298.133209 
L 869.793105 -296.371258 
L 870.953731 -294.605291 
L 872.114357 -292.835479 
L 873.274983 -291.061993 
L 874.435608 -289.285003 
L 875.596234 -287.504681 
L 876.75686 -285.721199 
L 877.917486 -283.934731 
L 879.078112 -282.145449 
L 880.238738 -280.353526 
L 881.399364 -278.559138 
L 882.55999 -276.762459 
L 883.720615 -274.963663 
L 884.881241 -273.162925 
L 886.041867 -271.360422 
L 887.202493 -269.556328 
L 888.363119 -267.750821 
L 889.523745 -265.944075 
L 890.684371 -264.136268 
L 891.844997 -262.327577 
L 893.005622 -260.518177 
L 894.166248 -258.708246 
L 895.326874 -256.897962 
L 896.4875 -255.0875 
L 896.4875 -255.0875 
L 896.4875 -255.0875 
L 895.326874 -255.0875 
L 894.166248 -255.0875 
L 893.005622 -255.0875 
L 891.844997 -255.0875 
L 890.684371 -255.0875 
L 889.523745 -255.0875 
L 888.363119 -255.0875 
L 887.202493 -255.0875 
L 886.041867 -255.0875 
L 884.881241 -255.0875 
L 883.720615 -255.0875 
L 882.55999 -255.0875 
L 881.399364 -255.0875 
L 880.238738 -255.0875 
L 879.078112 -255.0875 
L 877.917486 -255.0875 
L 876.75686 -255.0875 
L 875.596234 -255.0875 
L 874.435608 -255.0875 
L 873.274983 -255.0875 
L 872.114357 -255.0875 
L 870.953731 -255.0875 
L 869.793105 -255.0875 
L 868.632479 -255.0875 
L 867.471853 -255.0875 
L 866.311227 -255.0875 
L 865.150602 -255.0875 
L 863.989976 -255.0875 
L 862.82935 -255.0875 
L 861.668724 -255.0875 
L 860.508098 -255.0875 
L 859.347472 -255.0875 
L 858.186846 -255.0875 
L 857.02622 -255.0875 
L 855.865595 -255.0875 
L 854.704969 -255.0875 
L 853.544343 -255.0875 
L 852.383717 -255.0875 
L 851.223091 -255.0875 
L 850.062465 -255.0875 
L 848.901839 -255.0875 
L 847.741213 -255.0875 
L 846.580588 -255.0875 
L 845.419962 -255.0875 
L 844.259336 -255.0875 
L 843.09871 -255.0875 
L 841.938084 -255.0875 
L 840.777458 -255.0875 
L 839.616832 -255.0875 
L 838.456207 -255.0875 
L 837.295581 -255.0875 
L 836.134955 -255.0875 
L 834.974329 -255.0875 
L 833.813703 -255.0875 
L 832.653077 -255.0875 
L 831.492451 -255.0875 
L 830.331825 -255.0875 
L 829.1712 -255.0875 
L 828.010574 -255.0875 
L 826.849948 -255.0875 
L 825.689322 -255.0875 
L 824.528696 -255.0875 
L 823.36807 -255.0875 
L 822.207444 -255.0875 
L 821.046818 -255.0875 
L 819.886193 -255.0875 
L 818.725567 -255.0875 
L 817.564941 -255.0875 
L 816.404315 -255.0875 
L 815.243689 -255.0875 
L 814.083063 -255.0875 
L 812.922437 -255.0875 
L 811.761812 -255.0875 
L 810.601186 -255.0875 
L 809.44056 -255.0875 
L 808.279934 -255.0875 
L 807.119308 -255.0875 
L 805.958682 -255.0875 
L 804.798056 -255.0875 
L 803.63743 -255.0875 
L 802.476805 -255.0875 
L 801.316179 -255.0875 
L 800.155553 -255.0875 
L 798.994927 -255.0875 
L 797.834301 -255.0875 
L 796.673675 -255.0875 
L 795.513049 -255.0875 
L 794.352424 -255.0875 
L 793.191798 -255.0875 
L 792.031172 -255.0875 
L 790.870546 -255.0875 
L 789.70992 -255.0875 
L 788.549294 -255.0875 
L 787.388668 -255.0875 
L 786.228042 -255.0875 
L 785.067417 -255.0875 
L 783.906791 -255.0875 
L 782.746165 -255.0875 
L 781.585539 -255.0875 
L 780.424913 -255.0875 
L 779.264287 -255.0875 
L 778.103661 -255.0875 
L 776.943035 -255.0875 
L 775.78241 -255.0875 
L 774.621784 -255.0875 
L 773.461158 -255.0875 
L 772.300532 -255.0875 
L 771.139906 -255.0875 
L 769.97928 -255.0875 
L 768.818654 -255.0875 
L 767.658029 -255.0875 
L 766.497403 -255.0875 
L 765.336777 -255.0875 
L 764.176151 -255.0875 
L 763.015525 -255.0875 
L 761.854899 -255.0875 
L 760.694273 -255.0875 
L 759.533647 -255.0875 
L 758.373022 -255.0875 
L 757.212396 -255.0875 
L 756.05177 -255.0875 
L 754.891144 -255.0875 
L 753.730518 -255.0875 
L 752.569892 -255.0875 
L 751.409266 -255.0875 
L 750.24864 -255.0875 
L 749.088015 -255.0875 
L 747.927389 -255.0875 
L 746.766763 -255.0875 
L 745.606137 -255.0875 
L 744.445511 -255.0875 
L 743.284885 -255.0875 
L 742.124259 -255.0875 
L 740.963634 -255.0875 
L 739.803008 -255.0875 
L 738.642382 -255.0875 
L 737.481756 -255.0875 
L 736.32113 -255.0875 
L 735.160504 -255.0875 
L 733.999878 -255.0875 
L 732.839252 -255.0875 
L 731.678627 -255.0875 
L 730.518001 -255.0875 
L 729.357375 -255.0875 
L 728.196749 -255.0875 
L 727.036123 -255.0875 
L 725.875497 -255.0875 
L 724.714871 -255.0875 
L 723.554245 -255.0875 
L 722.39362 -255.0875 
L 721.232994 -255.0875 
L 720.072368 -255.0875 
L 718.911742 -255.0875 
L 717.751116 -255.0875 
L 716.59049 -255.0875 
L 715.429864 -255.0875 
L 714.269239 -255.0875 
L 713.108613 -255.0875 
L 711.947987 -255.0875 
L 710.787361 -255.0875 
L 709.626735 -255.0875 
L 708.466109 -255.0875 
L 707.305483 -255.0875 
L 706.144857 -255.0875 
L 704.984232 -255.0875 
L 703.823606 -255.0875 
L 702.66298 -255.0875 
L 701.502354 -255.0875 
L 700.341728 -255.0875 
L 699.181102 -255.0875 
L 698.020476 -255.0875 
L 696.85985 -255.0875 
L 695.699225 -255.0875 
L 694.538599 -255.0875 
L 693.377973 -255.0875 
L 692.217347 -255.0875 
L 691.056721 -255.0875 
L 689.896095 -255.0875 
L 688.735469 -255.0875 
L 687.574844 -255.0875 
L 686.414218 -255.0875 
L 685.253592 -255.0875 
L 684.092966 -255.0875 
L 682.93234 -255.0875 
L 681.771714 -255.0875 
L 680.611088 -255.0875 
L 679.450462 -255.0875 
L 678.289837 -255.0875 
L 677.129211 -255.0875 
L 675.968585 -255.0875 
L 674.807959 -255.0875 
L 673.647333 -255.0875 
L 672.486707 -255.0875 
L 671.326081 -255.0875 
L 670.165455 -255.0875 
L 669.00483 -255.0875 
L 667.844204 -255.0875 
L 666.683578 -255.0875 
L 665.522952 -255.0875 
L 664.362326 -255.0875 
L 663.2017 -255.0875 
L 662.041074 -255.0875 
L 660.880449 -255.0875 
L 659.719823 -255.0875 
L 658.559197 -255.0875 
L 657.398571 -255.0875 
L 656.237945 -255.0875 
L 655.077319 -255.0875 
L 653.916693 -255.0875 
L 652.756067 -255.0875 
L 651.595442 -255.0875 
L 650.434816 -255.0875 
L 649.27419 -255.0875 
L 648.113564 -255.0875 
L 646.952938 -255.0875 
L 645.792312 -255.0875 
L 644.631686 -255.0875 
L 643.471061 -255.0875 
L 642.310435 -255.0875 
L 641.149809 -255.0875 
L 639.989183 -255.0875 
L 638.828557 -255.0875 
L 637.667931 -255.0875 
L 636.507305 -255.0875 
L 635.346679 -255.0875 
L 634.186054 -255.0875 
L 633.025428 -255.0875 
L 631.864802 -255.0875 
L 630.704176 -255.0875 
L 629.54355 -255.0875 
L 628.382924 -255.0875 
L 627.222298 -255.0875 
L 626.061672 -255.0875 
L 624.901047 -255.0875 
L 623.740421 -255.0875 
L 622.579795 -255.0875 
L 621.419169 -255.0875 
L 620.258543 -255.0875 
L 619.097917 -255.0875 
L 617.937291 -255.0875 
L 616.776666 -255.0875 
L 615.61604 -255.0875 
L 614.455414 -255.0875 
L 613.294788 -255.0875 
L 612.134162 -255.0875 
L 610.973536 -255.0875 
L 609.81291 -255.0875 
L 608.652284 -255.0875 
L 607.491659 -255.0875 
L 606.331033 -255.0875 
L 605.170407 -255.0875 
L 604.009781 -255.0875 
L 602.849155 -255.0875 
L 601.688529 -255.0875 
L 600.527903 -255.0875 
L 599.367277 -255.0875 
L 598.206652 -255.0875 
L 597.046026 -255.0875 
L 595.8854 -255.0875 
L 594.724774 -255.0875 
L 593.564148 -255.0875 
L 592.403522 -255.0875 
L 591.242896 -255.0875 
L 590.082271 -255.0875 
L 588.921645 -255.0875 
L 587.761019 -255.0875 
L 586.600393 -255.0875 
L 585.439767 -255.0875 
L 584.279141 -255.0875 
L 583.118515 -255.0875 
L 581.957889 -255.0875 
L 580.797264 -255.0875 
L 579.636638 -255.0875 
L 578.476012 -255.0875 
L 577.315386 -255.0875 
L 576.15476 -255.0875 
L 574.994134 -255.0875 
L 573.833508 -255.0875 
L 572.672882 -255.0875 
L 571.512257 -255.0875 
L 570.351631 -255.0875 
L 569.191005 -255.0875 
L 568.030379 -255.0875 
L 566.869753 -255.0875 
L 565.709127 -255.0875 
L 564.548501 -255.0875 
L 563.387876 -255.0875 
L 562.22725 -255.0875 
L 561.066624 -255.0875 
L 559.905998 -255.0875 
L 558.745372 -255.0875 
L 557.584746 -255.0875 
L 556.42412 -255.0875 
L 555.263494 -255.0875 
L 554.102869 -255.0875 
L 552.942243 -255.0875 
L 551.781617 -255.0875 
L 550.620991 -255.0875 
L 549.460365 -255.0875 
L 548.299739 -255.0875 
L 547.139113 -255.0875 
L 545.978487 -255.0875 
L 544.817862 -255.0875 
L 543.657236 -255.0875 
L 542.49661 -255.0875 
L 541.335984 -255.0875 
L 540.175358 -255.0875 
L 539.014732 -255.0875 
L 537.854106 -255.0875 
L 536.693481 -255.0875 
L 535.532855 -255.0875 
L 534.372229 -255.0875 
L 533.211603 -255.0875 
L 532.050977 -255.0875 
L 530.890351 -255.0875 
L 529.729725 -255.0875 
L 528.569099 -255.0875 
L 527.408474 -255.0875 
L 526.247848 -255.0875 
L 525.087222 -255.0875 
L 523.926596 -255.0875 
L 522.76597 -255.0875 
L 521.605344 -255.0875 
L 520.444718 -255.0875 
L 519.284092 -255.0875 
L 518.123467 -255.0875 
L 516.962841 -255.0875 
L 515.802215 -255.0875 
L 514.641589 -255.0875 
L 513.480963 -255.0875 
L 512.320337 -255.0875 
L 511.159711 -255.0875 
L 509.999086 -255.0875 
L 508.83846 -255.0875 
L 507.677834 -255.0875 
L 506.517208 -255.0875 
L 505.356582 -255.0875 
L 504.195956 -255.0875 
L 503.03533 -255.0875 
L 501.874704 -255.0875 
L 500.714079 -255.0875 
L 499.553453 -255.0875 
L 498.392827 -255.0875 
L 497.232201 -255.0875 
L 496.071575 -255.0875 
L 494.910949 -255.0875 
L 493.750323 -255.0875 
L 492.589697 -255.0875 
L 491.429072 -255.0875 
L 490.268446 -255.0875 
L 489.10782 -255.0875 
L 487.947194 -255.0875 
L 486.786568 -255.0875 
L 485.625942 -255.0875 
L 484.465316 -255.0875 
L 483.304691 -255.0875 
L 482.144065 -255.0875 
L 480.983439 -255.0875 
L 479.822813 -255.0875 
L 478.662187 -255.0875 
L 477.501561 -255.0875 
L 476.340935 -255.0875 
L 475.180309 -255.0875 
L 474.019684 -255.0875 
L 472.859058 -255.0875 
L 471.698432 -255.0875 
L 470.537806 -255.0875 
L 469.37718 -255.0875 
L 468.216554 -255.0875 
L 467.055928 -255.0875 
L 465.895303 -255.0875 
L 464.734677 -255.0875 
L 463.574051 -255.0875 
L 462.413425 -255.0875 
L 461.252799 -255.0875 
L 460.092173 -255.0875 
L 458.931547 -255.0875 
L 457.770921 -255.0875 
L 456.610296 -255.0875 
L 455.44967 -255.0875 
L 454.289044 -255.0875 
L 453.128418 -255.0875 
L 451.967792 -255.0875 
L 450.807166 -255.0875 
L 449.64654 -255.0875 
L 448.485914 -255.0875 
L 447.325289 -255.0875 
L 446.164663 -255.0875 
L 445.004037 -255.0875 
L 443.843411 -255.0875 
L 442.682785 -255.0875 
L 441.522159 -255.0875 
L 440.361533 -255.0875 
L 439.200908 -255.0875 
L 438.040282 -255.0875 
L 436.879656 -255.0875 
L 435.71903 -255.0875 
L 434.558404 -255.0875 
L 433.397778 -255.0875 
L 432.237152 -255.0875 
L 431.076526 -255.0875 
L 429.915901 -255.0875 
L 428.755275 -255.0875 
L 427.594649 -255.0875 
L 426.434023 -255.0875 
L 425.273397 -255.0875 
L 424.112771 -255.0875 
L 422.952145 -255.0875 
L 421.791519 -255.0875 
L 420.630894 -255.0875 
L 419.470268 -255.0875 
L 418.309642 -255.0875 
L 417.149016 -255.0875 
L 415.98839 -255.0875 
L 414.827764 -255.0875 
L 413.667138 -255.0875 
L 412.506513 -255.0875 
L 411.345887 -255.0875 
L 410.185261 -255.0875 
L 409.024635 -255.0875 
L 407.864009 -255.0875 
L 406.703383 -255.0875 
L 405.542757 -255.0875 
L 404.382131 -255.0875 
L 403.221506 -255.0875 
L 402.06088 -255.0875 
L 400.900254 -255.0875 
L 399.739628 -255.0875 
L 398.579002 -255.0875 
L 397.418376 -255.0875 
L 396.25775 -255.0875 
L 395.097124 -255.0875 
L 393.936499 -255.0875 
L 392.775873 -255.0875 
L 391.615247 -255.0875 
L 390.454621 -255.0875 
L 389.293995 -255.0875 
L 388.133369 -255.0875 
L 386.972743 -255.0875 
L 385.812118 -255.0875 
L 384.651492 -255.0875 
L 383.490866 -255.0875 
L 382.33024 -255.0875 
L 381.169614 -255.0875 
L 380.008988 -255.0875 
L 378.848362 -255.0875 
L 377.687736 -255.0875 
L 376.527111 -255.0875 
L 375.366485 -255.0875 
L 374.205859 -255.0875 
L 373.045233 -255.0875 
L 371.884607 -255.0875 
L 370.723981 -255.0875 
L 369.563355 -255.0875 
L 368.402729 -255.0875 
L 367.242104 -255.0875 
L 366.081478 -255.0875 
L 364.920852 -255.0875 
L 363.760226 -255.0875 
L 362.5996 -255.0875 
L 361.438974 -255.0875 
L 360.278348 -255.0875 
L 359.117723 -255.0875 
L 357.957097 -255.0875 
L 356.796471 -255.0875 
L 355.635845 -255.0875 
L 354.475219 -255.0875 
L 353.314593 -255.0875 
L 352.153967 -255.0875 
L 350.993341 -255.0875 
L 349.832716 -255.0875 
L 348.67209 -255.0875 
L 347.511464 -255.0875 
L 346.350838 -255.0875 
L 345.190212 -255.0875 
L 344.029586 -255.0875 
L 342.86896 -255.0875 
L 341.708334 -255.0875 
L 340.547709 -255.0875 
L 339.387083 -255.0875 
L 338.226457 -255.0875 
L 337.065831 -255.0875 
L 335.905205 -255.0875 
L 334.744579 -255.0875 
L 333.583953 -255.0875 
L 332.423328 -255.0875 
L 331.262702 -255.0875 
L 330.102076 -255.0875 
L 328.94145 -255.0875 
L 327.780824 -255.0875 
L 326.620198 -255.0875 
L 325.459572 -255.0875 
L 324.298946 -255.0875 
L 323.138321 -255.0875 
L 321.977695 -255.0875 
L 320.817069 -255.0875 
L 319.656443 -255.0875 
L 318.495817 -255.0875 
L 317.335191 -255.0875 
L 316.174565 -255.0875 
L 315.013939 -255.0875 
L 313.853314 -255.0875 
L 312.692688 -255.0875 
L 311.532062 -255.0875 
L 310.371436 -255.0875 
L 309.21081 -255.0875 
L 308.050184 -255.0875 
L 306.889558 -255.0875 
L 305.728933 -255.0875 
L 304.568307 -255.0875 
L 303.407681 -255.0875 
L 302.247055 -255.0875 
L 301.086429 -255.0875 
L 299.925803 -255.0875 
L 298.765177 -255.0875 
L 297.604551 -255.0875 
L 296.443926 -255.0875 
L 295.2833 -255.0875 
L 294.122674 -255.0875 
L 292.962048 -255.0875 
L 291.801422 -255.0875 
L 290.640796 -255.0875 
L 289.48017 -255.0875 
L 288.319545 -255.0875 
L 287.158919 -255.0875 
L 285.998293 -255.0875 
L 284.837667 -255.0875 
L 283.677041 -255.0875 
L 282.516415 -255.0875 
L 281.355789 -255.0875 
L 280.195163 -255.0875 
L 279.034538 -255.0875 
L 277.873912 -255.0875 
L 276.713286 -255.0875 
L 275.55266 -255.0875 
L 274.392034 -255.0875 
L 273.231408 -255.0875 
L 272.070782 -255.0875 
L 270.910156 -255.0875 
L 269.749531 -255.0875 
L 268.588905 -255.0875 
L 267.428279 -255.0875 
L 266.267653 -255.0875 
L 265.107027 -255.0875 
L 263.946401 -255.0875 
L 262.785775 -255.0875 
L 261.62515 -255.0875 
L 260.464524 -255.0875 
L 259.303898 -255.0875 
L 258.143272 -255.0875 
L 256.982646 -255.0875 
L 255.82202 -255.0875 
L 254.661394 -255.0875 
L 253.500768 -255.0875 
L 252.340143 -255.0875 
L 251.179517 -255.0875 
L 250.018891 -255.0875 
L 248.858265 -255.0875 
L 247.697639 -255.0875 
L 246.537013 -255.0875 
L 245.376387 -255.0875 
L 244.215761 -255.0875 
L 243.055136 -255.0875 
L 241.89451 -255.0875 
L 240.733884 -255.0875 
L 239.573258 -255.0875 
L 238.412632 -255.0875 
L 237.252006 -255.0875 
L 236.09138 -255.0875 
L 234.930755 -255.0875 
L 233.770129 -255.0875 
L 232.609503 -255.0875 
L 231.448877 -255.0875 
L 230.288251 -255.0875 
L 229.127625 -255.0875 
L 227.966999 -255.0875 
L 226.806373 -255.0875 
L 225.645748 -255.0875 
L 224.485122 -255.0875 
L 223.324496 -255.0875 
L 222.16387 -255.0875 
L 221.003244 -255.0875 
L 219.842618 -255.0875 
L 218.681992 -255.0875 
L 217.521366 -255.0875 
L 216.360741 -255.0875 
L 215.200115 -255.0875 
L 214.039489 -255.0875 
L 212.878863 -255.0875 
L 211.718237 -255.0875 
L 210.557611 -255.0875 
L 209.396985 -255.0875 
L 208.23636 -255.0875 
L 207.075734 -255.0875 
L 205.915108 -255.0875 
L 204.754482 -255.0875 
L 203.593856 -255.0875 
L 202.43323 -255.0875 
L 201.272604 -255.0875 
L 200.111978 -255.0875 
L 198.951353 -255.0875 
L 197.790727 -255.0875 
L 196.630101 -255.0875 
L 195.469475 -255.0875 
L 194.308849 -255.0875 
L 193.148223 -255.0875 
L 191.987597 -255.0875 
L 190.826971 -255.0875 
L 189.666346 -255.0875 
L 188.50572 -255.0875 
L 187.345094 -255.0875 
L 186.184468 -255.0875 
L 185.023842 -255.0875 
L 183.863216 -255.0875 
L 182.70259 -255.0875 
L 181.541965 -255.0875 
L 180.381339 -255.0875 
L 179.220713 -255.0875 
L 178.060087 -255.0875 
L 176.899461 -255.0875 
L 175.738835 -255.0875 
L 174.578209 -255.0875 
L 173.417583 -255.0875 
L 172.256958 -255.0875 
L 171.096332 -255.0875 
L 169.935706 -255.0875 
L 168.77508 -255.0875 
L 167.614454 -255.0875 
L 166.453828 -255.0875 
L 165.293202 -255.0875 
L 164.132576 -255.0875 
L 162.971951 -255.0875 
L 161.811325 -255.0875 
L 160.650699 -255.0875 
L 159.490073 -255.0875 
L 158.329447 -255.0875 
L 157.168821 -255.0875 
L 156.008195 -255.0875 
L 154.84757 -255.0875 
L 153.686944 -255.0875 
L 152.526318 -255.0875 
L 151.365692 -255.0875 
L 150.205066 -255.0875 
L 149.04444 -255.0875 
L 147.883814 -255.0875 
L 146.723188 -255.0875 
L 145.562563 -255.0875 
L 144.401937 -255.0875 
L 143.241311 -255.0875 
L 142.080685 -255.0875 
L 140.920059 -255.0875 
L 139.759433 -255.0875 
L 138.598807 -255.0875 
L 137.438182 -255.0875 
L 136.277556 -255.0875 
L 135.11693 -255.0875 
L 133.956304 -255.0875 
L 132.795678 -255.0875 
L 131.635052 -255.0875 
L 130.474426 -255.0875 
L 129.3138 -255.0875 
L 128.153175 -255.0875 
L 126.992549 -255.0875 
L 125.831923 -255.0875 
L 124.671297 -255.0875 
L 123.510671 -255.0875 
L 122.350045 -255.0875 
L 121.189419 -255.0875 
L 120.028793 -255.0875 
L 118.868168 -255.0875 
L 117.707542 -255.0875 
L 116.546916 -255.0875 
L 115.38629 -255.0875 
L 114.225664 -255.0875 
L 113.065038 -255.0875 
L 111.904412 -255.0875 
L 110.743787 -255.0875 
L 109.583161 -255.0875 
L 108.422535 -255.0875 
L 107.261909 -255.0875 
L 106.101283 -255.0875 
L 104.940657 -255.0875 
L 103.780031 -255.0875 
L 102.619405 -255.0875 
L 101.45878 -255.0875 
L 100.298154 -255.0875 
L 99.137528 -255.0875 
L 97.976902 -255.0875 
L 96.816276 -255.0875 
L 95.65565 -255.0875 
L 94.495024 -255.0875 
L 93.334398 -255.0875 
L 92.173773 -255.0875 
L 91.013147 -255.0875 
L 89.852521 -255.0875 
L 88.691895 -255.0875 
L 87.531269 -255.0875 
L 86.370643 -255.0875 
L 85.210017 -255.0875 
L 84.049392 -255.0875 
L 82.888766 -255.0875 
L 81.72814 -255.0875 
L 80.567514 -255.0875 
L 79.406888 -255.0875 
L 78.246262 -255.0875 
L 77.085636 -255.0875 
L 75.92501 -255.0875 
L 74.764385 -255.0875 
L 73.603759 -255.0875 
L 72.443133 -255.0875 
L 71.282507 -255.0875 
L 70.121881 -255.0875 
L 68.961255 -255.0875 
L 67.800629 -255.0875 
L 66.640003 -255.0875 
L 65.479378 -255.0875 
L 64.318752 -255.0875 
L 63.158126 -255.0875 
L 61.9975 -255.0875 
z
" style="stroke: #a3583c; stroke-opacity: 0.08"/>
    </defs>
    <g clip-path="url(#p70752842bb)">
     <use xlink:href="#md6720918bb" x="0" y="499.624687" style="fill: #a3583c; fill-opacity: 0.08; stroke: #a3583c; stroke-opacity: 0.08"/>
    </g>
   </g>
   <g id="matplotlib.axis_1">
    <g id="xtick_1">
     <g id="line2d_1">
      <path d="M 61.9975 453.877187 
L 61.9975 35.197187 
" clip-path="url(#p70752842bb)" style="fill: none; stroke: #d9cbb6; stroke-opacity: 0.45; stroke-width: 0.8; stroke-linecap: square"/>
     </g>
     <g id="line2d_2">
      <defs>
       <path id="m304908b3aa" d="M 0 0 
L 0 3.5 
" style="stroke: #756a5d; stroke-width: 0.8"/>
      </defs>
      <g>
       <use xlink:href="#m304908b3aa" x="61.9975" y="453.877187" style="fill: #756a5d; stroke: #756a5d; stroke-width: 0.8"/>
      </g>
     </g>
     <g id="text_1">
      <text style="font-size: 11px; font-family: 'DejaVu Serif'; text-anchor: middle; fill: #756a5d" x="61.9975" y="469.235469" transform="rotate(-0 61.9975 469.235469)">0.0</text>
     </g>
    </g>
    <g id="xtick_2">
     <g id="line2d_3">
      <path d="M 228.8955 453.877187 
L 228.8955 35.197187 
" clip-path="url(#p70752842bb)" style="fill: none; stroke: #d9cbb6; stroke-opacity: 0.45; stroke-width: 0.8; stroke-linecap: square"/>
     </g>
     <g id="line2d_4">
      <g>
       <use xlink:href="#m304908b3aa" x="228.8955" y="453.877187" style="fill: #756a5d; stroke: #756a5d; stroke-width: 0.8"/>
      </g>
     </g>
     <g id="text_2">
      <text style="font-size: 11px; font-family: 'DejaVu Serif'; text-anchor: middle; fill: #756a5d" x="228.8955" y="469.235469" transform="rotate(-0 228.8955 469.235469)">0.2</text>
     </g>
    </g>
    <g id="xtick_3">
     <g id="line2d_5">
      <path d="M 395.7935 453.877187 
L 395.7935 35.197187 
" clip-path="url(#p70752842bb)" style="fill: none; stroke: #d9cbb6; stroke-opacity: 0.45; stroke-width: 0.8; stroke-linecap: square"/>
     </g>
     <g id="line2d_6">
      <g>
       <use xlink:href="#m304908b3aa" x="395.7935" y="453.877187" style="fill: #756a5d; stroke: #756a5d; stroke-width: 0.8"/>
      </g>
     </g>
     <g id="text_3">
      <text style="font-size: 11px; font-family: 'DejaVu Serif'; text-anchor: middle; fill: #756a5d" x="395.7935" y="469.235469" transform="rotate(-0 395.7935 469.235469)">0.4</text>
     </g>
    </g>
    <g id="xtick_4">
     <g id="line2d_7">
      <path d="M 562.6915 453.877187 
L 562.6915 35.197187 
" clip-path="url(#p70752842bb)" style="fill: none; stroke: #d9cbb6; stroke-opacity: 0.45; stroke-width: 0.8; stroke-linecap: square"/>
     </g>
     <g id="line2d_8">
      <g>
       <use xlink:href="#m304908b3aa" x="562.6915" y="453.877187" style="fill: #756a5d; stroke: #756a5d; stroke-width: 0.8"/>
      </g>
     </g>
     <g id="text_4">
      <text style="font-size: 11px; font-family: 'DejaVu Serif'; text-anchor: middle; fill: #756a5d" x="562.6915" y="469.235469" transform="rotate(-0 562.6915 469.235469)">0.6</text>
     </g>
    </g>
    <g id="xtick_5">
     <g id="line2d_9">
      <path d="M 729.5895 453.877187 
L 729.5895 35.197187 
" clip-path="url(#p70752842bb)" style="fill: none; stroke: #d9cbb6; stroke-opacity: 0.45; stroke-width: 0.8; stroke-linecap: square"/>
     </g>
     <g id="line2d_10">
      <g>
       <use xlink:href="#m304908b3aa" x="729.5895" y="453.877187" style="fill: #756a5d; stroke: #756a5d; stroke-width: 0.8"/>
      </g>
     </g>
     <g id="text_5">
      <text style="font-size: 11px; font-family: 'DejaVu Serif'; text-anchor: middle; fill: #756a5d" x="729.5895" y="469.235469" transform="rotate(-0 729.5895 469.235469)">0.8</text>
     </g>
    </g>
    <g id="xtick_6">
     <g id="line2d_11">
      <path d="M 896.4875 453.877187 
L 896.4875 35.197187 
" clip-path="url(#p70752842bb)" style="fill: none; stroke: #d9cbb6; stroke-opacity: 0.45; stroke-width: 0.8; stroke-linecap: square"/>
     </g>
     <g id="line2d_12">
      <g>
       <use xlink:href="#m304908b3aa" x="896.4875" y="453.877187" style="fill: #756a5d; stroke: #756a5d; stroke-width: 0.8"/>
      </g>
     </g>
     <g id="text_6">
      <text style="font-size: 11px; font-family: 'DejaVu Serif'; text-anchor: middle; fill: #756a5d" x="896.4875" y="469.235469" transform="rotate(-0 896.4875 469.235469)">1.0</text>
     </g>
    </g>
    <g id="text_7">
     <text style="font-size: 13px; font-family: 'DejaVu Serif'; text-anchor: middle; fill: #1f1b16" x="479.2425" y="485.401094" transform="rotate(-0 479.2425 485.401094)">Orbital phase</text>
    </g>
   </g>
   <g id="matplotlib.axis_2">
    <g id="ytick_1">
     <g id="line2d_13">
      <path d="M 61.9975 421.629888 
L 896.4875 421.629888 
" clip-path="url(#p70752842bb)" style="fill: none; stroke: #d9cbb6; stroke-opacity: 0.45; stroke-width: 0.8; stroke-linecap: square"/>
     </g>
     <g id="line2d_14">
      <defs>
       <path id="ma2e40c7ac8" d="M 0 0 
L -3.5 0 
" style="stroke: #756a5d; stroke-width: 0.8"/>
      </defs>
      <g>
       <use xlink:href="#ma2e40c7ac8" x="61.9975" y="421.629888" style="fill: #756a5d; stroke: #756a5d; stroke-width: 0.8"/>
      </g>
     </g>
     <g id="text_8">
      <text style="font-size: 11px; font-family: 'DejaVu Serif'; text-anchor: end; fill: #756a5d" x="54.9975" y="425.809028" transform="rotate(-0 54.9975 425.809028)">−0.4</text>
     </g>
    </g>
    <g id="ytick_2">
     <g id="line2d_15">
      <path d="M 61.9975 333.083538 
L 896.4875 333.083538 
" clip-path="url(#p70752842bb)" style="fill: none; stroke: #d9cbb6; stroke-opacity: 0.45; stroke-width: 0.8; stroke-linecap: square"/>
     </g>
     <g id="line2d_16">
      <g>
       <use xlink:href="#ma2e40c7ac8" x="61.9975" y="333.083538" style="fill: #756a5d; stroke: #756a5d; stroke-width: 0.8"/>
      </g>
     </g>
     <g id="text_9">
      <text style="font-size: 11px; font-family: 'DejaVu Serif'; text-anchor: end; fill: #756a5d" x="54.9975" y="337.262678" transform="rotate(-0 54.9975 337.262678)">−0.2</text>
     </g>
    </g>
    <g id="ytick_3">
     <g id="line2d_17">
      <path d="M 61.9975 244.537187 
L 896.4875 244.537187 
" clip-path="url(#p70752842bb)" style="fill: none; stroke: #d9cbb6; stroke-opacity: 0.45; stroke-width: 0.8; stroke-linecap: square"/>
     </g>
     <g id="line2d_18">
      <g>
       <use xlink:href="#ma2e40c7ac8" x="61.9975" y="244.537187" style="fill: #756a5d; stroke: #756a5d; stroke-width: 0.8"/>
      </g>
     </g>
     <g id="text_10">
      <text style="font-size: 11px; font-family: 'DejaVu Serif'; text-anchor: end; fill: #756a5d" x="54.9975" y="248.716328" transform="rotate(-0 54.9975 248.716328)">0.0</text>
     </g>
    </g>
    <g id="ytick_4">
     <g id="line2d_19">
      <path d="M 61.9975 155.990837 
L 896.4875 155.990837 
" clip-path="url(#p70752842bb)" style="fill: none; stroke: #d9cbb6; stroke-opacity: 0.45; stroke-width: 0.8; stroke-linecap: square"/>
     </g>
     <g id="line2d_20">
      <g>
       <use xlink:href="#ma2e40c7ac8" x="61.9975" y="155.990837" style="fill: #756a5d; stroke: #756a5d; stroke-width: 0.8"/>
      </g>
     </g>
     <g id="text_11">
      <text style="font-size: 11px; font-family: 'DejaVu Serif'; text-anchor: end; fill: #756a5d" x="54.9975" y="160.169978" transform="rotate(-0 54.9975 160.169978)">0.2</text>
     </g>
    </g>
    <g id="ytick_5">
     <g id="line2d_21">
      <path d="M 61.9975 67.444487 
L 896.4875 67.444487 
" clip-path="url(#p70752842bb)" style="fill: none; stroke: #d9cbb6; stroke-opacity: 0.45; stroke-width: 0.8; stroke-linecap: square"/>
     </g>
     <g id="line2d_22">
      <g>
       <use xlink:href="#ma2e40c7ac8" x="61.9975" y="67.444487" style="fill: #756a5d; stroke: #756a5d; stroke-width: 0.8"/>
      </g>
     </g>
     <g id="text_12">
      <text style="font-size: 11px; font-family: 'DejaVu Serif'; text-anchor: end; fill: #756a5d" x="54.9975" y="71.623628" transform="rotate(-0 54.9975 71.623628)">0.4</text>
     </g>
    </g>
    <g id="text_13">
     <text style="font-size: 13px; font-family: 'DejaVu Serif'; text-anchor: middle; fill: #1f1b16" x="21.397969" y="244.537187" transform="rotate(-90 21.397969 244.537187)">Stellar radial velocity (m/s)</text>
    </g>
   </g>
   <g id="line2d_23">
    <path d="M 61.9975 244.537187 
L 84.049392 278.73469 
L 95.65565 296.326523 
L 104.940657 310.046826 
L 114.225664 323.363225 
L 122.350045 334.621646 
L 129.3138 343.939572 
L 136.277556 352.919525 
L 143.241311 361.533633 
L 150.205066 369.755908 
L 156.008195 376.291102 
L 161.811325 382.524664 
L 167.614454 388.444786 
L 173.417583 394.040686 
L 179.220713 399.302612 
L 185.023842 404.22185 
L 190.826971 408.790719 
L 195.469475 412.189043 
L 200.111978 415.355916 
L 204.754482 418.288811 
L 209.396985 420.985606 
L 214.039489 423.444578 
L 218.681992 425.664393 
L 223.324496 427.644097 
L 227.966999 429.38311 
L 232.609503 430.881211 
L 237.252006 432.13853 
L 241.89451 433.155536 
L 246.537013 433.933026 
L 251.179517 434.472112 
L 255.82202 434.774211 
L 260.464524 434.841029 
L 265.107027 434.674554 
L 269.749531 434.277036 
L 274.392034 433.650981 
L 279.034538 432.799137 
L 283.677041 431.724481 
L 288.319545 430.430205 
L 292.962048 428.919707 
L 297.604551 427.19658 
L 302.247055 425.264596 
L 306.889558 423.1277 
L 311.532062 420.789996 
L 317.335191 417.591975 
L 323.138321 414.095462 
L 328.94145 410.30938 
L 334.744579 406.242937 
L 340.547709 401.905597 
L 346.350838 397.307056 
L 352.153967 392.45722 
L 359.117723 386.319931 
L 366.081478 379.853074 
L 373.045233 373.074703 
L 380.008988 366.003134 
L 388.133369 357.407137 
L 396.25775 348.467052 
L 404.382131 339.212915 
L 413.667138 328.291041 
L 424.112771 315.617511 
L 434.558404 302.597524 
L 447.325289 286.30907 
L 462.413425 266.681456 
L 516.962841 195.317048 
L 528.569099 180.651597 
L 539.014732 167.777535 
L 548.299739 156.647076 
L 557.584746 145.858883 
L 565.709127 136.735645 
L 573.833508 127.939364 
L 581.957889 119.49996 
L 588.921645 112.572686 
L 595.8854 105.947799 
L 602.849155 99.643486 
L 609.81291 93.677659 
L 615.61604 88.977401 
L 621.419169 84.534405 
L 627.222298 80.358453 
L 633.025428 76.459107 
L 638.828557 72.845679 
L 644.631686 69.527209 
L 650.434816 66.512439 
L 655.077319 64.32495 
L 659.719823 62.341362 
L 664.362326 60.56566 
L 669.00483 59.001661 
L 673.647333 57.653003 
L 678.289837 56.523134 
L 682.93234 55.615299 
L 687.574844 54.932531 
L 692.217347 54.477634 
L 696.85985 54.253177 
L 701.502354 54.261475 
L 706.144857 54.504583 
L 710.787361 54.984278 
L 715.429864 55.70205 
L 720.072368 56.65909 
L 724.714871 57.856274 
L 729.357375 59.294153 
L 733.999878 60.972945 
L 738.642382 62.892517 
L 743.284885 65.052379 
L 747.927389 67.451671 
L 752.569892 70.089157 
L 757.212396 72.96321 
L 761.854899 76.071809 
L 766.497403 79.41253 
L 771.139906 82.982537 
L 776.943035 87.762492 
L 782.746165 92.88833 
L 788.549294 98.351753 
L 794.352424 104.143423 
L 800.155553 110.252968 
L 805.958682 116.668991 
L 811.761812 123.379077 
L 818.725567 131.800396 
L 825.689322 140.600795 
L 832.653077 149.753333 
L 840.777458 160.837868 
L 848.901839 172.313831 
L 858.186846 185.842306 
L 868.632479 201.491478 
L 881.399364 221.065549 
L 896.4875 244.537187 
L 896.4875 244.537187 
" clip-path="url(#p70752842bb)" style="fill: none; stroke: #a3583c; stroke-width: 2.6; stroke-linecap: square"/>
   </g>
   <g id="line2d_24">
    <path d="M 61.9975 244.537187 
L 896.4875 244.537187 
" clip-path="url(#p70752842bb)" style="fill: none; stroke-dasharray: 5.365,2.32; stroke-dashoffset: 0; stroke: #9b9184; stroke-opacity: 0.65; stroke-width: 1.45"/>
   </g>
   <g id="patch_3">
    <path d="M 61.9975 453.877187 
L 61.9975 35.197188 
" style="fill: none; stroke: #b9a98f; stroke-width: 0.8; stroke-linejoin: miter; stroke-linecap: square"/>
   </g>
   <g id="patch_4">
    <path d="M 896.4875 453.877187 
L 896.4875 35.197188 
" style="fill: none; stroke: #b9a98f; stroke-width: 0.8; stroke-linejoin: miter; stroke-linecap: square"/>
   </g>
   <g id="patch_5">
    <path d="M 61.9975 453.877187 
L 896.4875 453.877187 
" style="fill: none; stroke: #b9a98f; stroke-width: 0.8; stroke-linejoin: miter; stroke-linecap: square"/>
   </g>
   <g id="patch_6">
    <path d="M 61.9975 35.197187 
L 896.4875 35.197187 
" style="fill: none; stroke: #b9a98f; stroke-width: 0.8; stroke-linejoin: miter; stroke-linecap: square"/>
   </g>
   <g id="text_14">
    <g id="patch_7">
     <path d="M 74.51485 72.760563 
L 361.82985 72.760563 
Q 364.90985 72.760563 364.90985 69.680563 
L 364.90985 56.131188 
Q 364.90985 53.051188 361.82985 53.051188 
L 74.51485 53.051188 
Q 71.43485 53.051188 71.43485 56.131188 
L 71.43485 69.680563 
Q 71.43485 72.760563 74.51485 72.760563 
z
" style="fill: #fffaf0; opacity: 0.88"/>
    </g>
    <text style="font-size: 14px; font-family: 'DejaVu Serif'; text-anchor: start; fill: #756a5d" x="74.51485" y="66.769" transform="rotate(-0 74.51485 66.769)">K ≈ 0.43 m s^-1 · P ≈ 37.42 d · e = 0.04</text>
   </g>
   <g id="text_15">
    <text style="font-size: 10.5px; font-family: 'DejaVu Serif'; text-anchor: end; fill: #756a5d" x="888.1426" y="443.170619" transform="rotate(-0 888.1426 443.170619)">single-planet Keplerian model</text>
   </g>
   <g id="text_16">
    <text style="font-weight: 700; font-size: 18px; font-family: 'DejaVu Serif'; text-anchor: start; fill: #1f1b16" x="61.9975" y="25.197187" transform="rotate(-0 61.9975 25.197187)">Keplerian RV model — TOI-700 d</text>
   </g>
  </g>
 </g>
 <defs>
  <clipPath id="p70752842bb">
   <rect x="61.9975" y="35.197187" width="834.49" height="418.68"/>
  </clipPath>
 </defs>
</svg>
