<?xml version="1.0" encoding="utf-8" standalone="no"?>
<!DOCTYPE svg PUBLIC "-//W3C//DTD SVG 1.1//EN"
  "http://www.w3.org/Graphics/SVG/1.1/DTD/svg11.dtd">
<svg xmlns:xlink="http://www.w3.org/1999/xlink" width="916.699531pt" height="499.624687pt" viewBox="0 0 916.699531 499.624687" xmlns="http://www.w3.org/2000/svg" version="1.1">
 <metadata>
  <rdf:RDF xmlns:dc="http://purl.org/dc/elements/1.1/" xmlns:cc="http://creativecommons.org/ns#" xmlns:rdf="http://www.w3.org/1999/02/22-rdf-syntax-ns#">
   <cc:Work>
    <dc:type rdf:resource="http://purl.org/dc/dcmitype/StillImage"/>
    <dc:date>2026-05-11T11:57:52.499593</dc:date>
    <dc:format>image/svg+xml</dc:format>
    <dc:creator>
     <cc:Agent>
      <dc:title>Matplotlib v3.10.9, https://matplotlib.org/</dc:title>
     </cc:Agent>
    </dc:creator>
   </cc:Work>
  </rdf:RDF>
 </metadata>
 <defs>
  <style type="text/css">*{stroke-linejoin: round; stroke-linecap: butt}</style>
 </defs>
 <g id="figure_1">
  <g id="patch_1">
   <path d="M 0 499.624687 
L 916.699531 499.624687 
L 916.699531 0 
L 0 0 
z
" style="fill: #fffaf0"/>
  </g>
  <g id="axes_1">
   <g id="patch_2">
    <path d="M 51.502813 453.877187 
L 896.432812 453.877187 
L 896.432812 35.197187 
L 51.502813 35.197187 
z
" style="fill: #fffaf0"/>
   </g>
   <g id="FillBetweenPolyCollection_1">
    <defs>
     <path id="m54ac7325f4" d="M 51.502813 -255.0875 
L 51.502813 -255.0875 
L 52.677959 -252.541547 
L 53.853105 -249.996201 
L 55.028251 -247.45207 
L 56.203397 -244.90976 
L 57.378543 -242.369875 
L 58.553689 -239.83302 
L 59.728835 -237.299794 
L 60.903981 -234.770797 
L 62.079127 -232.246623 
L 63.254273 -229.727866 
L 64.429419 -227.215114 
L 65.604565 -224.70895 
L 66.779711 -222.209954 
L 67.954857 -219.718701 
L 69.130003 -217.23576 
L 70.305149 -214.761695 
L 71.480295 -212.297063 
L 72.655441 -209.842416 
L 73.830587 -207.398296 
L 75.005733 -204.965242 
L 76.180879 -202.543784 
L 77.356025 -200.134443 
L 78.531171 -197.737733 
L 79.706317 -195.354159 
L 80.881463 -192.98422 
L 82.056609 -190.628402 
L 83.231755 -188.287185 
L 84.406902 -185.961039 
L 85.582048 -183.650423 
L 86.757194 -181.355789 
L 87.93234 -179.077575 
L 89.107486 -176.816213 
L 90.282632 -174.572121 
L 91.457778 -172.34571 
L 92.632924 -170.137378 
L 93.80807 -167.947512 
L 94.983216 -165.776489 
L 96.158362 -163.624676 
L 97.333508 -161.492427 
L 98.508654 -159.380085 
L 99.6838 -157.287983 
L 100.858946 -155.216442 
L 102.034092 -153.165772 
L 103.209238 -151.13627 
L 104.384384 -149.128223 
L 105.55953 -147.141908 
L 106.734676 -145.177587 
L 107.909822 -143.235515 
L 109.084968 -141.315931 
L 110.260114 -139.419067 
L 111.43526 -137.545141 
L 112.610406 -135.69436 
L 113.785552 -133.866921 
L 114.960698 -132.063009 
L 116.135844 -130.2828 
L 117.310991 -128.526455 
L 118.486137 -126.794129 
L 119.661283 -125.085963 
L 120.836429 -123.40209 
L 122.011575 -121.74263 
L 123.186721 -120.107694 
L 124.361867 -118.497383 
L 125.537013 -116.911789 
L 126.712159 -115.350992 
L 127.887305 -113.815063 
L 129.062451 -112.304065 
L 130.237597 -110.818051 
L 131.412743 -109.357063 
L 132.587889 -107.921137 
L 133.763035 -106.510297 
L 134.938181 -105.124562 
L 136.113327 -103.763939 
L 137.288473 -102.428429 
L 138.463619 -101.118024 
L 139.638765 -99.832709 
L 140.813911 -98.572461 
L 141.989057 -97.337248 
L 143.164203 -96.127033 
L 144.339349 -94.941771 
L 145.514495 -93.781409 
L 146.689641 -92.64589 
L 147.864787 -91.535147 
L 149.039934 -90.44911 
L 150.21508 -89.387701 
L 151.390226 -88.350835 
L 152.565372 -87.338425 
L 153.740518 -86.350376 
L 154.915664 -85.386586 
L 156.09081 -84.446952 
L 157.265956 -83.531362 
L 158.441102 -82.639702 
L 159.616248 -81.771853 
L 160.791394 -80.927689 
L 161.96654 -80.107084 
L 163.141686 -79.309904 
L 164.316832 -78.536014 
L 165.491978 -77.785274 
L 166.667124 -77.057541 
L 167.84227 -76.352667 
L 169.017416 -75.670502 
L 170.192562 -75.010894 
L 171.367708 -74.373687 
L 172.542854 -73.758723 
L 173.718 -73.165839 
L 174.893146 -72.594872 
L 176.068292 -72.045656 
L 177.243438 -71.518024 
L 178.418584 -71.011804 
L 179.59373 -70.526826 
L 180.768876 -70.062915 
L 181.944023 -69.619896 
L 183.119169 -69.197592 
L 184.294315 -68.795825 
L 185.469461 -68.414416 
L 186.644607 -68.053183 
L 187.819753 -67.711946 
L 188.994899 -67.390521 
L 190.170045 -67.088726 
L 191.345191 -66.806377 
L 192.520337 -66.543288 
L 193.695483 -66.299275 
L 194.870629 -66.074153 
L 196.045775 -65.867735 
L 197.220921 -65.679835 
L 198.396067 -65.510267 
L 199.571213 -65.358845 
L 200.746359 -65.225383 
L 201.921505 -65.109694 
L 203.096651 -65.011593 
L 204.271797 -64.930894 
L 205.446943 -64.86741 
L 206.622089 -64.820958 
L 207.797235 -64.791352 
L 208.972381 -64.778409 
L 210.147527 -64.781945 
L 211.322673 -64.801776 
L 212.497819 -64.83772 
L 213.672965 -64.889597 
L 214.848112 -64.957224 
L 216.023258 -65.040423 
L 217.198404 -65.139013 
L 218.37355 -65.252816 
L 219.548696 -65.381655 
L 220.723842 -65.525355 
L 221.898988 -65.683738 
L 223.074134 -65.856631 
L 224.24928 -66.043861 
L 225.424426 -66.245255 
L 226.599572 -66.460643 
L 227.774718 -66.689854 
L 228.949864 -66.93272 
L 230.12501 -67.189074 
L 231.300156 -67.458748 
L 232.475302 -67.741579 
L 233.650448 -68.037403 
L 234.825594 -68.346056 
L 236.00074 -68.667379 
L 237.175886 -69.00121 
L 238.351032 -69.347393 
L 239.526178 -69.705769 
L 240.701324 -70.076184 
L 241.87647 -70.458482 
L 243.051616 -70.852511 
L 244.226762 -71.258119 
L 245.401908 -71.675157 
L 246.577055 -72.103475 
L 247.752201 -72.542926 
L 248.927347 -72.993364 
L 250.102493 -73.454645 
L 251.277639 -73.926625 
L 252.452785 -74.409164 
L 253.627931 -74.90212 
L 254.803077 -75.405356 
L 255.978223 -75.918733 
L 257.153369 -76.442117 
L 258.328515 -76.975371 
L 259.503661 -77.518365 
L 260.678807 -78.070965 
L 261.853953 -78.633042 
L 263.029099 -79.204467 
L 264.204245 -79.785112 
L 265.379391 -80.374852 
L 266.554537 -80.973562 
L 267.729683 -81.581119 
L 268.904829 -82.197402 
L 270.079975 -82.822289 
L 271.255121 -83.455662 
L 272.430267 -84.097403 
L 273.605413 -84.747397 
L 274.780559 -85.405527 
L 275.955705 -86.071682 
L 277.130851 -86.745747 
L 278.305997 -87.427614 
L 279.481144 -88.117171 
L 280.65629 -88.814311 
L 281.831436 -89.518927 
L 283.006582 -90.230913 
L 284.181728 -90.950165 
L 285.356874 -91.67658 
L 286.53202 -92.410056 
L 287.707166 -93.150492 
L 288.882312 -93.89779 
L 290.057458 -94.65185 
L 291.232604 -95.412577 
L 292.40775 -96.179874 
L 293.582896 -96.953647 
L 294.758042 -97.733803 
L 295.933188 -98.520249 
L 297.108334 -99.312895 
L 298.28348 -100.111651 
L 299.458626 -100.916429 
L 300.633772 -101.72714 
L 301.808918 -102.543698 
L 302.984064 -103.366019 
L 304.15921 -104.194018 
L 305.334356 -105.027611 
L 306.509502 -105.866717 
L 307.684648 -106.711255 
L 308.859794 -107.561144 
L 310.03494 -108.416307 
L 311.210086 -109.276664 
L 312.385233 -110.14214 
L 313.560379 -111.012658 
L 314.735525 -111.888143 
L 315.910671 -112.768522 
L 317.085817 -113.653722 
L 318.260963 -114.54367 
L 319.436109 -115.438296 
L 320.611255 -116.337529 
L 321.786401 -117.241301 
L 322.961547 -118.149542 
L 324.136693 -119.062187 
L 325.311839 -119.979168 
L 326.486985 -120.900419 
L 327.662131 -121.825876 
L 328.837277 -122.755475 
L 330.012423 -123.689153 
L 331.187569 -124.626848 
L 332.362715 -125.568498 
L 333.537861 -126.514042 
L 334.713007 -127.463422 
L 335.888153 -128.416578 
L 337.063299 -129.373451 
L 338.238445 -130.333984 
L 339.413591 -131.298121 
L 340.588737 -132.265805 
L 341.763883 -133.236982 
L 342.939029 -134.211597 
L 344.114176 -135.189595 
L 345.289322 -136.170925 
L 346.464468 -137.155533 
L 347.639614 -138.143368 
L 348.81476 -139.134379 
L 349.989906 -140.128516 
L 351.165052 -141.125728 
L 352.340198 -142.125967 
L 353.515344 -143.129185 
L 354.69049 -144.135333 
L 355.865636 -145.144364 
L 357.040782 -146.156233 
L 358.215928 -147.170892 
L 359.391074 -148.188297 
L 360.56622 -149.208402 
L 361.741366 -150.231165 
L 362.916512 -151.25654 
L 364.091658 -152.284485 
L 365.266804 -153.314957 
L 366.44195 -154.347914 
L 367.617096 -155.383316 
L 368.792242 -156.42112 
L 369.967388 -157.461287 
L 371.142534 -158.503776 
L 372.31768 -159.548548 
L 373.492826 -160.595565 
L 374.667972 -161.644787 
L 375.843118 -162.696177 
L 377.018265 -163.749698 
L 378.193411 -164.805311 
L 379.368557 -165.862982 
L 380.543703 -166.922672 
L 381.718849 -167.984348 
L 382.893995 -169.047972 
L 384.069141 -170.113512 
L 385.244287 -171.180931 
L 386.419433 -172.250197 
L 387.594579 -173.321275 
L 388.769725 -174.394132 
L 389.944871 -175.468735 
L 391.120017 -176.545053 
L 392.295163 -177.623052 
L 393.470309 -178.702701 
L 394.645455 -179.783968 
L 395.820601 -180.866823 
L 396.995747 -181.951235 
L 398.170893 -183.037173 
L 399.346039 -184.124607 
L 400.521185 -185.213509 
L 401.696331 -186.303847 
L 402.871477 -187.395594 
L 404.046623 -188.488721 
L 405.221769 -189.583199 
L 406.396915 -190.678999 
L 407.572061 -191.776095 
L 408.747207 -192.874458 
L 409.922354 -193.974061 
L 411.0975 -195.074877 
L 412.272646 -196.17688 
L 413.447792 -197.280042 
L 414.622938 -198.384338 
L 415.798084 -199.489742 
L 416.97323 -200.596227 
L 418.148376 -201.703769 
L 419.323522 -202.812342 
L 420.498668 -203.92192 
L 421.673814 -205.03248 
L 422.84896 -206.143996 
L 424.024106 -207.256444 
L 425.199252 -208.369799 
L 426.374398 -209.484039 
L 427.549544 -210.599138 
L 428.72469 -211.715074 
L 429.899836 -212.831822 
L 431.074982 -213.94936 
L 432.250128 -215.067665 
L 433.425274 -216.186713 
L 434.60042 -217.306481 
L 435.775566 -218.426948 
L 436.950712 -219.548091 
L 438.125858 -220.669887 
L 439.301004 -221.792314 
L 440.47615 -222.91535 
L 441.651297 -224.038974 
L 442.826443 -225.163163 
L 444.001589 -226.287896 
L 445.176735 -227.413152 
L 446.351881 -228.538908 
L 447.527027 -229.665145 
L 448.702173 -230.791839 
L 449.877319 -231.918972 
L 451.052465 -233.04652 
L 452.227611 -234.174464 
L 453.402757 -235.302783 
L 454.577903 -236.431456 
L 455.753049 -237.560463 
L 456.928195 -238.689782 
L 458.103341 -239.819393 
L 459.278487 -240.949276 
L 460.453633 -242.079411 
L 461.628779 -243.209777 
L 462.803925 -244.340354 
L 463.979071 -245.471122 
L 465.154217 -246.60206 
L 466.329363 -247.733148 
L 467.504509 -248.864366 
L 468.679655 -249.995695 
L 469.854801 -251.127114 
L 471.029947 -252.258603 
L 472.205093 -253.390142 
L 473.380239 -254.521711 
L 474.555386 -255.653289 
L 475.730532 -256.784858 
L 476.905678 -257.916397 
L 478.080824 -259.047886 
L 479.25597 -260.179305 
L 480.431116 -261.310634 
L 481.606262 -262.441852 
L 482.781408 -263.57294 
L 483.956554 -264.703878 
L 485.1317 -265.834646 
L 486.306846 -266.965223 
L 487.481992 -268.095589 
L 488.657138 -269.225724 
L 489.832284 -270.355607 
L 491.00743 -271.485218 
L 492.182576 -272.614537 
L 493.357722 -273.743544 
L 494.532868 -274.872217 
L 495.708014 -276.000536 
L 496.88316 -277.12848 
L 498.058306 -278.256028 
L 499.233452 -279.383161 
L 500.408598 -280.509855 
L 501.583744 -281.636092 
L 502.75889 -282.761848 
L 503.934036 -283.887104 
L 505.109182 -285.011837 
L 506.284328 -286.136026 
L 507.459475 -287.25965 
L 508.634621 -288.382686 
L 509.809767 -289.505113 
L 510.984913 -290.626909 
L 512.160059 -291.748052 
L 513.335205 -292.868519 
L 514.510351 -293.988287 
L 515.685497 -295.107335 
L 516.860643 -296.22564 
L 518.035789 -297.343178 
L 519.210935 -298.459926 
L 520.386081 -299.575862 
L 521.561227 -300.690961 
L 522.736373 -301.805201 
L 523.911519 -302.918556 
L 525.086665 -304.031004 
L 526.261811 -305.14252 
L 527.436957 -306.25308 
L 528.612103 -307.362658 
L 529.787249 -308.471231 
L 530.962395 -309.578773 
L 532.137541 -310.685258 
L 533.312687 -311.790662 
L 534.487833 -312.894958 
L 535.662979 -313.99812 
L 536.838125 -315.100123 
L 538.013271 -316.200939 
L 539.188418 -317.300542 
L 540.363564 -318.398905 
L 541.53871 -319.496001 
L 542.713856 -320.591801 
L 543.889002 -321.686279 
L 545.064148 -322.779406 
L 546.239294 -323.871153 
L 547.41444 -324.961491 
L 548.589586 -326.050393 
L 549.764732 -327.137827 
L 550.939878 -328.223765 
L 552.115024 -329.308177 
L 553.29017 -330.391032 
L 554.465316 -331.472299 
L 555.640462 -332.551948 
L 556.815608 -333.629947 
L 557.990754 -334.706265 
L 559.1659 -335.780868 
L 560.341046 -336.853725 
L 561.516192 -337.924803 
L 562.691338 -338.994069 
L 563.866484 -340.061488 
L 565.04163 -341.127028 
L 566.216776 -342.190652 
L 567.391922 -343.252328 
L 568.567068 -344.312018 
L 569.742214 -345.369689 
L 570.91736 -346.425302 
L 572.092507 -347.478823 
L 573.267653 -348.530213 
L 574.442799 -349.579435 
L 575.617945 -350.626452 
L 576.793091 -351.671224 
L 577.968237 -352.713713 
L 579.143383 -353.75388 
L 580.318529 -354.791684 
L 581.493675 -355.827086 
L 582.668821 -356.860043 
L 583.843967 -357.890515 
L 585.019113 -358.91846 
L 586.194259 -359.943835 
L 587.369405 -360.966598 
L 588.544551 -361.986703 
L 589.719697 -363.004108 
L 590.894843 -364.018767 
L 592.069989 -365.030636 
L 593.245135 -366.039667 
L 594.420281 -367.045815 
L 595.595427 -368.049033 
L 596.770573 -369.049272 
L 597.945719 -370.046484 
L 599.120865 -371.040621 
L 600.296011 -372.031632 
L 601.471157 -373.019467 
L 602.646303 -374.004075 
L 603.821449 -374.985405 
L 604.996596 -375.963403 
L 606.171742 -376.938018 
L 607.346888 -377.909195 
L 608.522034 -378.876879 
L 609.69718 -379.841016 
L 610.872326 -380.801549 
L 612.047472 -381.758422 
L 613.222618 -382.711578 
L 614.397764 -383.660958 
L 615.57291 -384.606502 
L 616.748056 -385.548152 
L 617.923202 -386.485847 
L 619.098348 -387.419525 
L 620.273494 -388.349124 
L 621.44864 -389.274581 
L 622.623786 -390.195832 
L 623.798932 -391.112813 
L 624.974078 -392.025458 
L 626.149224 -392.933699 
L 627.32437 -393.837471 
L 628.499516 -394.736704 
L 629.674662 -395.63133 
L 630.849808 -396.521278 
L 632.024954 -397.406478 
L 633.2001 -398.286857 
L 634.375246 -399.162342 
L 635.550392 -400.03286 
L 636.725539 -400.898336 
L 637.900685 -401.758693 
L 639.075831 -402.613856 
L 640.250977 -403.463745 
L 641.426123 -404.308283 
L 642.601269 -405.147389 
L 643.776415 -405.980982 
L 644.951561 -406.808981 
L 646.126707 -407.631302 
L 647.301853 -408.44786 
L 648.476999 -409.258571 
L 649.652145 -410.063349 
L 650.827291 -410.862105 
L 652.002437 -411.654751 
L 653.177583 -412.441197 
L 654.352729 -413.221353 
L 655.527875 -413.995126 
L 656.703021 -414.762423 
L 657.878167 -415.52315 
L 659.053313 -416.27721 
L 660.228459 -417.024508 
L 661.403605 -417.764944 
L 662.578751 -418.49842 
L 663.753897 -419.224835 
L 664.929043 -419.944087 
L 666.104189 -420.656073 
L 667.279335 -421.360689 
L 668.454481 -422.057829 
L 669.629628 -422.747386 
L 670.804774 -423.429253 
L 671.97992 -424.103318 
L 673.155066 -424.769473 
L 674.330212 -425.427603 
L 675.505358 -426.077597 
L 676.680504 -426.719338 
L 677.85565 -427.352711 
L 679.030796 -427.977598 
L 680.205942 -428.593881 
L 681.381088 -429.201438 
L 682.556234 -429.800148 
L 683.73138 -430.389888 
L 684.906526 -430.970533 
L 686.081672 -431.541958 
L 687.256818 -432.104035 
L 688.431964 -432.656635 
L 689.60711 -433.199629 
L 690.782256 -433.732883 
L 691.957402 -434.256267 
L 693.132548 -434.769644 
L 694.307694 -435.27288 
L 695.48284 -435.765836 
L 696.657986 -436.248375 
L 697.833132 -436.720355 
L 699.008278 -437.181636 
L 700.183424 -437.632074 
L 701.35857 -438.071525 
L 702.533717 -438.499843 
L 703.708863 -438.916881 
L 704.884009 -439.322489 
L 706.059155 -439.716518 
L 707.234301 -440.098816 
L 708.409447 -440.469231 
L 709.584593 -440.827607 
L 710.759739 -441.17379 
L 711.934885 -441.507621 
L 713.110031 -441.828944 
L 714.285177 -442.137597 
L 715.460323 -442.433421 
L 716.635469 -442.716252 
L 717.810615 -442.985926 
L 718.985761 -443.24228 
L 720.160907 -443.485146 
L 721.336053 -443.714357 
L 722.511199 -443.929745 
L 723.686345 -444.131139 
L 724.861491 -444.318369 
L 726.036637 -444.491262 
L 727.211783 -444.649645 
L 728.386929 -444.793345 
L 729.562075 -444.922184 
L 730.737221 -445.035987 
L 731.912367 -445.134577 
L 733.087513 -445.217776 
L 734.26266 -445.285403 
L 735.437806 -445.33728 
L 736.612952 -445.373224 
L 737.788098 -445.393055 
L 738.963244 -445.396591 
L 740.13839 -445.383648 
L 741.313536 -445.354042 
L 742.488682 -445.30759 
L 743.663828 -445.244106 
L 744.838974 -445.163407 
L 746.01412 -445.065306 
L 747.189266 -444.949617 
L 748.364412 -444.816155 
L 749.539558 -444.664733 
L 750.714704 -444.495165 
L 751.88985 -444.307265 
L 753.064996 -444.100847 
L 754.240142 -443.875725 
L 755.415288 -443.631712 
L 756.590434 -443.368623 
L 757.76558 -443.086274 
L 758.940726 -442.784479 
L 760.115872 -442.463054 
L 761.291018 -442.121817 
L 762.466164 -441.760584 
L 763.64131 -441.379175 
L 764.816456 -440.977408 
L 765.991602 -440.555104 
L 767.166749 -440.112085 
L 768.341895 -439.648174 
L 769.517041 -439.163196 
L 770.692187 -438.656976 
L 771.867333 -438.129344 
L 773.042479 -437.580128 
L 774.217625 -437.009161 
L 775.392771 -436.416277 
L 776.567917 -435.801313 
L 777.743063 -435.164106 
L 778.918209 -434.504498 
L 780.093355 -433.822333 
L 781.268501 -433.117459 
L 782.443647 -432.389726 
L 783.618793 -431.638986 
L 784.793939 -430.865096 
L 785.969085 -430.067916 
L 787.144231 -429.247311 
L 788.319377 -428.403147 
L 789.494523 -427.535298 
L 790.669669 -426.643638 
L 791.844815 -425.728048 
L 793.019961 -424.788414 
L 794.195107 -423.824624 
L 795.370253 -422.836575 
L 796.545399 -421.824165 
L 797.720545 -420.787299 
L 798.895691 -419.72589 
L 800.070838 -418.639853 
L 801.245984 -417.52911 
L 802.42113 -416.393591 
L 803.596276 -415.233229 
L 804.771422 -414.047967 
L 805.946568 -412.837752 
L 807.121714 -411.602539 
L 808.29686 -410.342291 
L 809.472006 -409.056976 
L 810.647152 -407.746571 
L 811.822298 -406.411061 
L 812.997444 -405.050438 
L 814.17259 -403.664703 
L 815.347736 -402.253863 
L 816.522882 -400.817937 
L 817.698028 -399.356949 
L 818.873174 -397.870935 
L 820.04832 -396.359937 
L 821.223466 -394.824008 
L 822.398612 -393.263211 
L 823.573758 -391.677617 
L 824.748904 -390.067306 
L 825.92405 -388.43237 
L 827.099196 -386.77291 
L 828.274342 -385.089037 
L 829.449488 -383.380871 
L 830.624634 -381.648545 
L 831.799781 -379.8922 
L 832.974927 -378.111991 
L 834.150073 -376.308079 
L 835.325219 -374.48064 
L 836.500365 -372.629859 
L 837.675511 -370.755933 
L 838.850657 -368.859069 
L 840.025803 -366.939485 
L 841.200949 -364.997413 
L 842.376095 -363.033092 
L 843.551241 -361.046777 
L 844.726387 -359.03873 
L 845.901533 -357.009228 
L 847.076679 -354.958558 
L 848.251825 -352.887017 
L 849.426971 -350.794915 
L 850.602117 -348.682573 
L 851.777263 -346.550324 
L 852.952409 -344.398511 
L 854.127555 -342.227488 
L 855.302701 -340.037622 
L 856.477847 -337.82929 
L 857.652993 -335.602879 
L 858.828139 -333.358787 
L 860.003285 -331.097425 
L 861.178431 -328.819211 
L 862.353577 -326.524577 
L 863.528723 -324.213961 
L 864.70387 -321.887815 
L 865.879016 -319.546598 
L 867.054162 -317.19078 
L 868.229308 -314.820841 
L 869.404454 -312.437267 
L 870.5796 -310.040557 
L 871.754746 -307.631216 
L 872.929892 -305.209758 
L 874.105038 -302.776704 
L 875.280184 -300.332584 
L 876.45533 -297.877937 
L 877.630476 -295.413305 
L 878.805622 -292.93924 
L 879.980768 -290.456299 
L 881.155914 -287.965046 
L 882.33106 -285.46605 
L 883.506206 -282.959886 
L 884.681352 -280.447134 
L 885.856498 -277.928377 
L 887.031644 -275.404203 
L 888.20679 -272.875206 
L 889.381936 -270.34198 
L 890.557082 -267.805125 
L 891.732228 -265.26524 
L 892.907374 -262.72293 
L 894.08252 -260.178799 
L 895.257666 -257.633453 
L 896.432812 -255.0875 
L 896.432812 -255.0875 
L 896.432812 -255.0875 
L 895.257666 -255.0875 
L 894.08252 -255.0875 
L 892.907374 -255.0875 
L 891.732228 -255.0875 
L 890.557082 -255.0875 
L 889.381936 -255.0875 
L 888.20679 -255.0875 
L 887.031644 -255.0875 
L 885.856498 -255.0875 
L 884.681352 -255.0875 
L 883.506206 -255.0875 
L 882.33106 -255.0875 
L 881.155914 -255.0875 
L 879.980768 -255.0875 
L 878.805622 -255.0875 
L 877.630476 -255.0875 
L 876.45533 -255.0875 
L 875.280184 -255.0875 
L 874.105038 -255.0875 
L 872.929892 -255.0875 
L 871.754746 -255.0875 
L 870.5796 -255.0875 
L 869.404454 -255.0875 
L 868.229308 -255.0875 
L 867.054162 -255.0875 
L 865.879016 -255.0875 
L 864.70387 -255.0875 
L 863.528723 -255.0875 
L 862.353577 -255.0875 
L 861.178431 -255.0875 
L 860.003285 -255.0875 
L 858.828139 -255.0875 
L 857.652993 -255.0875 
L 856.477847 -255.0875 
L 855.302701 -255.0875 
L 854.127555 -255.0875 
L 852.952409 -255.0875 
L 851.777263 -255.0875 
L 850.602117 -255.0875 
L 849.426971 -255.0875 
L 848.251825 -255.0875 
L 847.076679 -255.0875 
L 845.901533 -255.0875 
L 844.726387 -255.0875 
L 843.551241 -255.0875 
L 842.376095 -255.0875 
L 841.200949 -255.0875 
L 840.025803 -255.0875 
L 838.850657 -255.0875 
L 837.675511 -255.0875 
L 836.500365 -255.0875 
L 835.325219 -255.0875 
L 834.150073 -255.0875 
L 832.974927 -255.0875 
L 831.799781 -255.0875 
L 830.624634 -255.0875 
L 829.449488 -255.0875 
L 828.274342 -255.0875 
L 827.099196 -255.0875 
L 825.92405 -255.0875 
L 824.748904 -255.0875 
L 823.573758 -255.0875 
L 822.398612 -255.0875 
L 821.223466 -255.0875 
L 820.04832 -255.0875 
L 818.873174 -255.0875 
L 817.698028 -255.0875 
L 816.522882 -255.0875 
L 815.347736 -255.0875 
L 814.17259 -255.0875 
L 812.997444 -255.0875 
L 811.822298 -255.0875 
L 810.647152 -255.0875 
L 809.472006 -255.0875 
L 808.29686 -255.0875 
L 807.121714 -255.0875 
L 805.946568 -255.0875 
L 804.771422 -255.0875 
L 803.596276 -255.0875 
L 802.42113 -255.0875 
L 801.245984 -255.0875 
L 800.070838 -255.0875 
L 798.895691 -255.0875 
L 797.720545 -255.0875 
L 796.545399 -255.0875 
L 795.370253 -255.0875 
L 794.195107 -255.0875 
L 793.019961 -255.0875 
L 791.844815 -255.0875 
L 790.669669 -255.0875 
L 789.494523 -255.0875 
L 788.319377 -255.0875 
L 787.144231 -255.0875 
L 785.969085 -255.0875 
L 784.793939 -255.0875 
L 783.618793 -255.0875 
L 782.443647 -255.0875 
L 781.268501 -255.0875 
L 780.093355 -255.0875 
L 778.918209 -255.0875 
L 777.743063 -255.0875 
L 776.567917 -255.0875 
L 775.392771 -255.0875 
L 774.217625 -255.0875 
L 773.042479 -255.0875 
L 771.867333 -255.0875 
L 770.692187 -255.0875 
L 769.517041 -255.0875 
L 768.341895 -255.0875 
L 767.166749 -255.0875 
L 765.991602 -255.0875 
L 764.816456 -255.0875 
L 763.64131 -255.0875 
L 762.466164 -255.0875 
L 761.291018 -255.0875 
L 760.115872 -255.0875 
L 758.940726 -255.0875 
L 757.76558 -255.0875 
L 756.590434 -255.0875 
L 755.415288 -255.0875 
L 754.240142 -255.0875 
L 753.064996 -255.0875 
L 751.88985 -255.0875 
L 750.714704 -255.0875 
L 749.539558 -255.0875 
L 748.364412 -255.0875 
L 747.189266 -255.0875 
L 746.01412 -255.0875 
L 744.838974 -255.0875 
L 743.663828 -255.0875 
L 742.488682 -255.0875 
L 741.313536 -255.0875 
L 740.13839 -255.0875 
L 738.963244 -255.0875 
L 737.788098 -255.0875 
L 736.612952 -255.0875 
L 735.437806 -255.0875 
L 734.26266 -255.0875 
L 733.087513 -255.0875 
L 731.912367 -255.0875 
L 730.737221 -255.0875 
L 729.562075 -255.0875 
L 728.386929 -255.0875 
L 727.211783 -255.0875 
L 726.036637 -255.0875 
L 724.861491 -255.0875 
L 723.686345 -255.0875 
L 722.511199 -255.0875 
L 721.336053 -255.0875 
L 720.160907 -255.0875 
L 718.985761 -255.0875 
L 717.810615 -255.0875 
L 716.635469 -255.0875 
L 715.460323 -255.0875 
L 714.285177 -255.0875 
L 713.110031 -255.0875 
L 711.934885 -255.0875 
L 710.759739 -255.0875 
L 709.584593 -255.0875 
L 708.409447 -255.0875 
L 707.234301 -255.0875 
L 706.059155 -255.0875 
L 704.884009 -255.0875 
L 703.708863 -255.0875 
L 702.533717 -255.0875 
L 701.35857 -255.0875 
L 700.183424 -255.0875 
L 699.008278 -255.0875 
L 697.833132 -255.0875 
L 696.657986 -255.0875 
L 695.48284 -255.0875 
L 694.307694 -255.0875 
L 693.132548 -255.0875 
L 691.957402 -255.0875 
L 690.782256 -255.0875 
L 689.60711 -255.0875 
L 688.431964 -255.0875 
L 687.256818 -255.0875 
L 686.081672 -255.0875 
L 684.906526 -255.0875 
L 683.73138 -255.0875 
L 682.556234 -255.0875 
L 681.381088 -255.0875 
L 680.205942 -255.0875 
L 679.030796 -255.0875 
L 677.85565 -255.0875 
L 676.680504 -255.0875 
L 675.505358 -255.0875 
L 674.330212 -255.0875 
L 673.155066 -255.0875 
L 671.97992 -255.0875 
L 670.804774 -255.0875 
L 669.629628 -255.0875 
L 668.454481 -255.0875 
L 667.279335 -255.0875 
L 666.104189 -255.0875 
L 664.929043 -255.0875 
L 663.753897 -255.0875 
L 662.578751 -255.0875 
L 661.403605 -255.0875 
L 660.228459 -255.0875 
L 659.053313 -255.0875 
L 657.878167 -255.0875 
L 656.703021 -255.0875 
L 655.527875 -255.0875 
L 654.352729 -255.0875 
L 653.177583 -255.0875 
L 652.002437 -255.0875 
L 650.827291 -255.0875 
L 649.652145 -255.0875 
L 648.476999 -255.0875 
L 647.301853 -255.0875 
L 646.126707 -255.0875 
L 644.951561 -255.0875 
L 643.776415 -255.0875 
L 642.601269 -255.0875 
L 641.426123 -255.0875 
L 640.250977 -255.0875 
L 639.075831 -255.0875 
L 637.900685 -255.0875 
L 636.725539 -255.0875 
L 635.550392 -255.0875 
L 634.375246 -255.0875 
L 633.2001 -255.0875 
L 632.024954 -255.0875 
L 630.849808 -255.0875 
L 629.674662 -255.0875 
L 628.499516 -255.0875 
L 627.32437 -255.0875 
L 626.149224 -255.0875 
L 624.974078 -255.0875 
L 623.798932 -255.0875 
L 622.623786 -255.0875 
L 621.44864 -255.0875 
L 620.273494 -255.0875 
L 619.098348 -255.0875 
L 617.923202 -255.0875 
L 616.748056 -255.0875 
L 615.57291 -255.0875 
L 614.397764 -255.0875 
L 613.222618 -255.0875 
L 612.047472 -255.0875 
L 610.872326 -255.0875 
L 609.69718 -255.0875 
L 608.522034 -255.0875 
L 607.346888 -255.0875 
L 606.171742 -255.0875 
L 604.996596 -255.0875 
L 603.821449 -255.0875 
L 602.646303 -255.0875 
L 601.471157 -255.0875 
L 600.296011 -255.0875 
L 599.120865 -255.0875 
L 597.945719 -255.0875 
L 596.770573 -255.0875 
L 595.595427 -255.0875 
L 594.420281 -255.0875 
L 593.245135 -255.0875 
L 592.069989 -255.0875 
L 590.894843 -255.0875 
L 589.719697 -255.0875 
L 588.544551 -255.0875 
L 587.369405 -255.0875 
L 586.194259 -255.0875 
L 585.019113 -255.0875 
L 583.843967 -255.0875 
L 582.668821 -255.0875 
L 581.493675 -255.0875 
L 580.318529 -255.0875 
L 579.143383 -255.0875 
L 577.968237 -255.0875 
L 576.793091 -255.0875 
L 575.617945 -255.0875 
L 574.442799 -255.0875 
L 573.267653 -255.0875 
L 572.092507 -255.0875 
L 570.91736 -255.0875 
L 569.742214 -255.0875 
L 568.567068 -255.0875 
L 567.391922 -255.0875 
L 566.216776 -255.0875 
L 565.04163 -255.0875 
L 563.866484 -255.0875 
L 562.691338 -255.0875 
L 561.516192 -255.0875 
L 560.341046 -255.0875 
L 559.1659 -255.0875 
L 557.990754 -255.0875 
L 556.815608 -255.0875 
L 555.640462 -255.0875 
L 554.465316 -255.0875 
L 553.29017 -255.0875 
L 552.115024 -255.0875 
L 550.939878 -255.0875 
L 549.764732 -255.0875 
L 548.589586 -255.0875 
L 547.41444 -255.0875 
L 546.239294 -255.0875 
L 545.064148 -255.0875 
L 543.889002 -255.0875 
L 542.713856 -255.0875 
L 541.53871 -255.0875 
L 540.363564 -255.0875 
L 539.188418 -255.0875 
L 538.013271 -255.0875 
L 536.838125 -255.0875 
L 535.662979 -255.0875 
L 534.487833 -255.0875 
L 533.312687 -255.0875 
L 532.137541 -255.0875 
L 530.962395 -255.0875 
L 529.787249 -255.0875 
L 528.612103 -255.0875 
L 527.436957 -255.0875 
L 526.261811 -255.0875 
L 525.086665 -255.0875 
L 523.911519 -255.0875 
L 522.736373 -255.0875 
L 521.561227 -255.0875 
L 520.386081 -255.0875 
L 519.210935 -255.0875 
L 518.035789 -255.0875 
L 516.860643 -255.0875 
L 515.685497 -255.0875 
L 514.510351 -255.0875 
L 513.335205 -255.0875 
L 512.160059 -255.0875 
L 510.984913 -255.0875 
L 509.809767 -255.0875 
L 508.634621 -255.0875 
L 507.459475 -255.0875 
L 506.284328 -255.0875 
L 505.109182 -255.0875 
L 503.934036 -255.0875 
L 502.75889 -255.0875 
L 501.583744 -255.0875 
L 500.408598 -255.0875 
L 499.233452 -255.0875 
L 498.058306 -255.0875 
L 496.88316 -255.0875 
L 495.708014 -255.0875 
L 494.532868 -255.0875 
L 493.357722 -255.0875 
L 492.182576 -255.0875 
L 491.00743 -255.0875 
L 489.832284 -255.0875 
L 488.657138 -255.0875 
L 487.481992 -255.0875 
L 486.306846 -255.0875 
L 485.1317 -255.0875 
L 483.956554 -255.0875 
L 482.781408 -255.0875 
L 481.606262 -255.0875 
L 480.431116 -255.0875 
L 479.25597 -255.0875 
L 478.080824 -255.0875 
L 476.905678 -255.0875 
L 475.730532 -255.0875 
L 474.555386 -255.0875 
L 473.380239 -255.0875 
L 472.205093 -255.0875 
L 471.029947 -255.0875 
L 469.854801 -255.0875 
L 468.679655 -255.0875 
L 467.504509 -255.0875 
L 466.329363 -255.0875 
L 465.154217 -255.0875 
L 463.979071 -255.0875 
L 462.803925 -255.0875 
L 461.628779 -255.0875 
L 460.453633 -255.0875 
L 459.278487 -255.0875 
L 458.103341 -255.0875 
L 456.928195 -255.0875 
L 455.753049 -255.0875 
L 454.577903 -255.0875 
L 453.402757 -255.0875 
L 452.227611 -255.0875 
L 451.052465 -255.0875 
L 449.877319 -255.0875 
L 448.702173 -255.0875 
L 447.527027 -255.0875 
L 446.351881 -255.0875 
L 445.176735 -255.0875 
L 444.001589 -255.0875 
L 442.826443 -255.0875 
L 441.651297 -255.0875 
L 440.47615 -255.0875 
L 439.301004 -255.0875 
L 438.125858 -255.0875 
L 436.950712 -255.0875 
L 435.775566 -255.0875 
L 434.60042 -255.0875 
L 433.425274 -255.0875 
L 432.250128 -255.0875 
L 431.074982 -255.0875 
L 429.899836 -255.0875 
L 428.72469 -255.0875 
L 427.549544 -255.0875 
L 426.374398 -255.0875 
L 425.199252 -255.0875 
L 424.024106 -255.0875 
L 422.84896 -255.0875 
L 421.673814 -255.0875 
L 420.498668 -255.0875 
L 419.323522 -255.0875 
L 418.148376 -255.0875 
L 416.97323 -255.0875 
L 415.798084 -255.0875 
L 414.622938 -255.0875 
L 413.447792 -255.0875 
L 412.272646 -255.0875 
L 411.0975 -255.0875 
L 409.922354 -255.0875 
L 408.747207 -255.0875 
L 407.572061 -255.0875 
L 406.396915 -255.0875 
L 405.221769 -255.0875 
L 404.046623 -255.0875 
L 402.871477 -255.0875 
L 401.696331 -255.0875 
L 400.521185 -255.0875 
L 399.346039 -255.0875 
L 398.170893 -255.0875 
L 396.995747 -255.0875 
L 395.820601 -255.0875 
L 394.645455 -255.0875 
L 393.470309 -255.0875 
L 392.295163 -255.0875 
L 391.120017 -255.0875 
L 389.944871 -255.0875 
L 388.769725 -255.0875 
L 387.594579 -255.0875 
L 386.419433 -255.0875 
L 385.244287 -255.0875 
L 384.069141 -255.0875 
L 382.893995 -255.0875 
L 381.718849 -255.0875 
L 380.543703 -255.0875 
L 379.368557 -255.0875 
L 378.193411 -255.0875 
L 377.018265 -255.0875 
L 375.843118 -255.0875 
L 374.667972 -255.0875 
L 373.492826 -255.0875 
L 372.31768 -255.0875 
L 371.142534 -255.0875 
L 369.967388 -255.0875 
L 368.792242 -255.0875 
L 367.617096 -255.0875 
L 366.44195 -255.0875 
L 365.266804 -255.0875 
L 364.091658 -255.0875 
L 362.916512 -255.0875 
L 361.741366 -255.0875 
L 360.56622 -255.0875 
L 359.391074 -255.0875 
L 358.215928 -255.0875 
L 357.040782 -255.0875 
L 355.865636 -255.0875 
L 354.69049 -255.0875 
L 353.515344 -255.0875 
L 352.340198 -255.0875 
L 351.165052 -255.0875 
L 349.989906 -255.0875 
L 348.81476 -255.0875 
L 347.639614 -255.0875 
L 346.464468 -255.0875 
L 345.289322 -255.0875 
L 344.114176 -255.0875 
L 342.939029 -255.0875 
L 341.763883 -255.0875 
L 340.588737 -255.0875 
L 339.413591 -255.0875 
L 338.238445 -255.0875 
L 337.063299 -255.0875 
L 335.888153 -255.0875 
L 334.713007 -255.0875 
L 333.537861 -255.0875 
L 332.362715 -255.0875 
L 331.187569 -255.0875 
L 330.012423 -255.0875 
L 328.837277 -255.0875 
L 327.662131 -255.0875 
L 326.486985 -255.0875 
L 325.311839 -255.0875 
L 324.136693 -255.0875 
L 322.961547 -255.0875 
L 321.786401 -255.0875 
L 320.611255 -255.0875 
L 319.436109 -255.0875 
L 318.260963 -255.0875 
L 317.085817 -255.0875 
L 315.910671 -255.0875 
L 314.735525 -255.0875 
L 313.560379 -255.0875 
L 312.385233 -255.0875 
L 311.210086 -255.0875 
L 310.03494 -255.0875 
L 308.859794 -255.0875 
L 307.684648 -255.0875 
L 306.509502 -255.0875 
L 305.334356 -255.0875 
L 304.15921 -255.0875 
L 302.984064 -255.0875 
L 301.808918 -255.0875 
L 300.633772 -255.0875 
L 299.458626 -255.0875 
L 298.28348 -255.0875 
L 297.108334 -255.0875 
L 295.933188 -255.0875 
L 294.758042 -255.0875 
L 293.582896 -255.0875 
L 292.40775 -255.0875 
L 291.232604 -255.0875 
L 290.057458 -255.0875 
L 288.882312 -255.0875 
L 287.707166 -255.0875 
L 286.53202 -255.0875 
L 285.356874 -255.0875 
L 284.181728 -255.0875 
L 283.006582 -255.0875 
L 281.831436 -255.0875 
L 280.65629 -255.0875 
L 279.481144 -255.0875 
L 278.305997 -255.0875 
L 277.130851 -255.0875 
L 275.955705 -255.0875 
L 274.780559 -255.0875 
L 273.605413 -255.0875 
L 272.430267 -255.0875 
L 271.255121 -255.0875 
L 270.079975 -255.0875 
L 268.904829 -255.0875 
L 267.729683 -255.0875 
L 266.554537 -255.0875 
L 265.379391 -255.0875 
L 264.204245 -255.0875 
L 263.029099 -255.0875 
L 261.853953 -255.0875 
L 260.678807 -255.0875 
L 259.503661 -255.0875 
L 258.328515 -255.0875 
L 257.153369 -255.0875 
L 255.978223 -255.0875 
L 254.803077 -255.0875 
L 253.627931 -255.0875 
L 252.452785 -255.0875 
L 251.277639 -255.0875 
L 250.102493 -255.0875 
L 248.927347 -255.0875 
L 247.752201 -255.0875 
L 246.577055 -255.0875 
L 245.401908 -255.0875 
L 244.226762 -255.0875 
L 243.051616 -255.0875 
L 241.87647 -255.0875 
L 240.701324 -255.0875 
L 239.526178 -255.0875 
L 238.351032 -255.0875 
L 237.175886 -255.0875 
L 236.00074 -255.0875 
L 234.825594 -255.0875 
L 233.650448 -255.0875 
L 232.475302 -255.0875 
L 231.300156 -255.0875 
L 230.12501 -255.0875 
L 228.949864 -255.0875 
L 227.774718 -255.0875 
L 226.599572 -255.0875 
L 225.424426 -255.0875 
L 224.24928 -255.0875 
L 223.074134 -255.0875 
L 221.898988 -255.0875 
L 220.723842 -255.0875 
L 219.548696 -255.0875 
L 218.37355 -255.0875 
L 217.198404 -255.0875 
L 216.023258 -255.0875 
L 214.848112 -255.0875 
L 213.672965 -255.0875 
L 212.497819 -255.0875 
L 211.322673 -255.0875 
L 210.147527 -255.0875 
L 208.972381 -255.0875 
L 207.797235 -255.0875 
L 206.622089 -255.0875 
L 205.446943 -255.0875 
L 204.271797 -255.0875 
L 203.096651 -255.0875 
L 201.921505 -255.0875 
L 200.746359 -255.0875 
L 199.571213 -255.0875 
L 198.396067 -255.0875 
L 197.220921 -255.0875 
L 196.045775 -255.0875 
L 194.870629 -255.0875 
L 193.695483 -255.0875 
L 192.520337 -255.0875 
L 191.345191 -255.0875 
L 190.170045 -255.0875 
L 188.994899 -255.0875 
L 187.819753 -255.0875 
L 186.644607 -255.0875 
L 185.469461 -255.0875 
L 184.294315 -255.0875 
L 183.119169 -255.0875 
L 181.944023 -255.0875 
L 180.768876 -255.0875 
L 179.59373 -255.0875 
L 178.418584 -255.0875 
L 177.243438 -255.0875 
L 176.068292 -255.0875 
L 174.893146 -255.0875 
L 173.718 -255.0875 
L 172.542854 -255.0875 
L 171.367708 -255.0875 
L 170.192562 -255.0875 
L 169.017416 -255.0875 
L 167.84227 -255.0875 
L 166.667124 -255.0875 
L 165.491978 -255.0875 
L 164.316832 -255.0875 
L 163.141686 -255.0875 
L 161.96654 -255.0875 
L 160.791394 -255.0875 
L 159.616248 -255.0875 
L 158.441102 -255.0875 
L 157.265956 -255.0875 
L 156.09081 -255.0875 
L 154.915664 -255.0875 
L 153.740518 -255.0875 
L 152.565372 -255.0875 
L 151.390226 -255.0875 
L 150.21508 -255.0875 
L 149.039934 -255.0875 
L 147.864787 -255.0875 
L 146.689641 -255.0875 
L 145.514495 -255.0875 
L 144.339349 -255.0875 
L 143.164203 -255.0875 
L 141.989057 -255.0875 
L 140.813911 -255.0875 
L 139.638765 -255.0875 
L 138.463619 -255.0875 
L 137.288473 -255.0875 
L 136.113327 -255.0875 
L 134.938181 -255.0875 
L 133.763035 -255.0875 
L 132.587889 -255.0875 
L 131.412743 -255.0875 
L 130.237597 -255.0875 
L 129.062451 -255.0875 
L 127.887305 -255.0875 
L 126.712159 -255.0875 
L 125.537013 -255.0875 
L 124.361867 -255.0875 
L 123.186721 -255.0875 
L 122.011575 -255.0875 
L 120.836429 -255.0875 
L 119.661283 -255.0875 
L 118.486137 -255.0875 
L 117.310991 -255.0875 
L 116.135844 -255.0875 
L 114.960698 -255.0875 
L 113.785552 -255.0875 
L 112.610406 -255.0875 
L 111.43526 -255.0875 
L 110.260114 -255.0875 
L 109.084968 -255.0875 
L 107.909822 -255.0875 
L 106.734676 -255.0875 
L 105.55953 -255.0875 
L 104.384384 -255.0875 
L 103.209238 -255.0875 
L 102.034092 -255.0875 
L 100.858946 -255.0875 
L 99.6838 -255.0875 
L 98.508654 -255.0875 
L 97.333508 -255.0875 
L 96.158362 -255.0875 
L 94.983216 -255.0875 
L 93.80807 -255.0875 
L 92.632924 -255.0875 
L 91.457778 -255.0875 
L 90.282632 -255.0875 
L 89.107486 -255.0875 
L 87.93234 -255.0875 
L 86.757194 -255.0875 
L 85.582048 -255.0875 
L 84.406902 -255.0875 
L 83.231755 -255.0875 
L 82.056609 -255.0875 
L 80.881463 -255.0875 
L 79.706317 -255.0875 
L 78.531171 -255.0875 
L 77.356025 -255.0875 
L 76.180879 -255.0875 
L 75.005733 -255.0875 
L 73.830587 -255.0875 
L 72.655441 -255.0875 
L 71.480295 -255.0875 
L 70.305149 -255.0875 
L 69.130003 -255.0875 
L 67.954857 -255.0875 
L 66.779711 -255.0875 
L 65.604565 -255.0875 
L 64.429419 -255.0875 
L 63.254273 -255.0875 
L 62.079127 -255.0875 
L 60.903981 -255.0875 
L 59.728835 -255.0875 
L 58.553689 -255.0875 
L 57.378543 -255.0875 
L 56.203397 -255.0875 
L 55.028251 -255.0875 
L 53.853105 -255.0875 
L 52.677959 -255.0875 
L 51.502813 -255.0875 
z
" style="stroke: #a3583c; stroke-opacity: 0.08"/>
    </defs>
    <g clip-path="url(#pdf2165e769)">
     <use xlink:href="#m54ac7325f4" x="0" y="499.624687" style="fill: #a3583c; fill-opacity: 0.08; stroke: #a3583c; stroke-opacity: 0.08"/>
    </g>
   </g>
   <g id="matplotlib.axis_1">
    <g id="xtick_1">
     <g id="line2d_1">
      <path d="M 51.502813 453.877187 
L 51.502813 35.197187 
" clip-path="url(#pdf2165e769)" style="fill: none; stroke: #d9cbb6; stroke-opacity: 0.45; stroke-width: 0.8; stroke-linecap: square"/>
     </g>
     <g id="line2d_2">
      <defs>
       <path id="m4253969c56" d="M 0 0 
L 0 3.5 
" style="stroke: #756a5d; stroke-width: 0.8"/>
      </defs>
      <g>
       <use xlink:href="#m4253969c56" x="51.502813" y="453.877187" style="fill: #756a5d; stroke: #756a5d; stroke-width: 0.8"/>
      </g>
     </g>
     <g id="text_1">
      <text style="font-size: 11px; font-family: 'DejaVu Serif'; text-anchor: middle; fill: #756a5d" x="51.502813" y="469.235469" transform="rotate(-0 51.502813 469.235469)">0.0</text>
     </g>
    </g>
    <g id="xtick_2">
     <g id="line2d_3">
      <path d="M 220.488812 453.877187 
L 220.488812 35.197187 
" clip-path="url(#pdf2165e769)" style="fill: none; stroke: #d9cbb6; stroke-opacity: 0.45; stroke-width: 0.8; stroke-linecap: square"/>
     </g>
     <g id="line2d_4">
      <g>
       <use xlink:href="#m4253969c56" x="220.488812" y="453.877187" style="fill: #756a5d; stroke: #756a5d; stroke-width: 0.8"/>
      </g>
     </g>
     <g id="text_2">
      <text style="font-size: 11px; font-family: 'DejaVu Serif'; text-anchor: middle; fill: #756a5d" x="220.488812" y="469.235469" transform="rotate(-0 220.488812 469.235469)">0.2</text>
     </g>
    </g>
    <g id="xtick_3">
     <g id="line2d_5">
      <path d="M 389.474812 453.877187 
L 389.474812 35.197187 
" clip-path="url(#pdf2165e769)" style="fill: none; stroke: #d9cbb6; stroke-opacity: 0.45; stroke-width: 0.8; stroke-linecap: square"/>
     </g>
     <g id="line2d_6">
      <g>
       <use xlink:href="#m4253969c56" x="389.474812" y="453.877187" style="fill: #756a5d; stroke: #756a5d; stroke-width: 0.8"/>
      </g>
     </g>
     <g id="text_3">
      <text style="font-size: 11px; font-family: 'DejaVu Serif'; text-anchor: middle; fill: #756a5d" x="389.474812" y="469.235469" transform="rotate(-0 389.474812 469.235469)">0.4</text>
     </g>
    </g>
    <g id="xtick_4">
     <g id="line2d_7">
      <path d="M 558.460812 453.877187 
L 558.460812 35.197187 
" clip-path="url(#pdf2165e769)" style="fill: none; stroke: #d9cbb6; stroke-opacity: 0.45; stroke-width: 0.8; stroke-linecap: square"/>
     </g>
     <g id="line2d_8">
      <g>
       <use xlink:href="#m4253969c56" x="558.460812" y="453.877187" style="fill: #756a5d; stroke: #756a5d; stroke-width: 0.8"/>
      </g>
     </g>
     <g id="text_4">
      <text style="font-size: 11px; font-family: 'DejaVu Serif'; text-anchor: middle; fill: #756a5d" x="558.460812" y="469.235469" transform="rotate(-0 558.460812 469.235469)">0.6</text>
     </g>
    </g>
    <g id="xtick_5">
     <g id="line2d_9">
      <path d="M 727.446812 453.877187 
L 727.446812 35.197187 
" clip-path="url(#pdf2165e769)" style="fill: none; stroke: #d9cbb6; stroke-opacity: 0.45; stroke-width: 0.8; stroke-linecap: square"/>
     </g>
     <g id="line2d_10">
      <g>
       <use xlink:href="#m4253969c56" x="727.446812" y="453.877187" style="fill: #756a5d; stroke: #756a5d; stroke-width: 0.8"/>
      </g>
     </g>
     <g id="text_5">
      <text style="font-size: 11px; font-family: 'DejaVu Serif'; text-anchor: middle; fill: #756a5d" x="727.446812" y="469.235469" transform="rotate(-0 727.446812 469.235469)">0.8</text>
     </g>
    </g>
    <g id="xtick_6">
     <g id="line2d_11">
      <path d="M 896.432812 453.877187 
L 896.432812 35.197187 
" clip-path="url(#pdf2165e769)" style="fill: none; stroke: #d9cbb6; stroke-opacity: 0.45; stroke-width: 0.8; stroke-linecap: square"/>
     </g>
     <g id="line2d_12">
      <g>
       <use xlink:href="#m4253969c56" x="896.432812" y="453.877187" style="fill: #756a5d; stroke: #756a5d; stroke-width: 0.8"/>
      </g>
     </g>
     <g id="text_6">
      <text style="font-size: 11px; font-family: 'DejaVu Serif'; text-anchor: middle; fill: #756a5d" x="896.432812" y="469.235469" transform="rotate(-0 896.432812 469.235469)">1.0</text>
     </g>
    </g>
    <g id="text_7">
     <text style="font-size: 13px; font-family: 'DejaVu Serif'; text-anchor: middle; fill: #1f1b16" x="473.967812" y="485.401094" transform="rotate(-0 473.967812 485.401094)">Orbital phase</text>
    </g>
   </g>
   <g id="matplotlib.axis_2">
    <g id="ytick_1">
     <g id="line2d_13">
      <path d="M 51.502813 403.351719 
L 896.432812 403.351719 
" clip-path="url(#pdf2165e769)" style="fill: none; stroke: #d9cbb6; stroke-opacity: 0.45; stroke-width: 0.8; stroke-linecap: square"/>
     </g>
     <g id="line2d_14">
      <defs>
       <path id="m9a44402ec6" d="M 0 0 
L -3.5 0 
" style="stroke: #756a5d; stroke-width: 0.8"/>
      </defs>
      <g>
       <use xlink:href="#m9a44402ec6" x="51.502813" y="403.351719" style="fill: #756a5d; stroke: #756a5d; stroke-width: 0.8"/>
      </g>
     </g>
     <g id="text_8">
      <text style="font-size: 11px; font-family: 'DejaVu Serif'; text-anchor: end; fill: #756a5d" x="44.502813" y="407.53086" transform="rotate(-0 44.502813 407.53086)">−3</text>
     </g>
    </g>
    <g id="ytick_2">
     <g id="line2d_15">
      <path d="M 51.502813 350.413542 
L 896.432812 350.413542 
" clip-path="url(#pdf2165e769)" style="fill: none; stroke: #d9cbb6; stroke-opacity: 0.45; stroke-width: 0.8; stroke-linecap: square"/>
     </g>
     <g id="line2d_16">
      <g>
       <use xlink:href="#m9a44402ec6" x="51.502813" y="350.413542" style="fill: #756a5d; stroke: #756a5d; stroke-width: 0.8"/>
      </g>
     </g>
     <g id="text_9">
      <text style="font-size: 11px; font-family: 'DejaVu Serif'; text-anchor: end; fill: #756a5d" x="44.502813" y="354.592683" transform="rotate(-0 44.502813 354.592683)">−2</text>
     </g>
    </g>
    <g id="ytick_3">
     <g id="line2d_17">
      <path d="M 51.502813 297.475365 
L 896.432812 297.475365 
" clip-path="url(#pdf2165e769)" style="fill: none; stroke: #d9cbb6; stroke-opacity: 0.45; stroke-width: 0.8; stroke-linecap: square"/>
     </g>
     <g id="line2d_18">
      <g>
       <use xlink:href="#m9a44402ec6" x="51.502813" y="297.475365" style="fill: #756a5d; stroke: #756a5d; stroke-width: 0.8"/>
      </g>
     </g>
     <g id="text_10">
      <text style="font-size: 11px; font-family: 'DejaVu Serif'; text-anchor: end; fill: #756a5d" x="44.502813" y="301.654505" transform="rotate(-0 44.502813 301.654505)">−1</text>
     </g>
    </g>
    <g id="ytick_4">
     <g id="line2d_19">
      <path d="M 51.502813 244.537187 
L 896.432812 244.537187 
" clip-path="url(#pdf2165e769)" style="fill: none; stroke: #d9cbb6; stroke-opacity: 0.45; stroke-width: 0.8; stroke-linecap: square"/>
     </g>
     <g id="line2d_20">
      <g>
       <use xlink:href="#m9a44402ec6" x="51.502813" y="244.537187" style="fill: #756a5d; stroke: #756a5d; stroke-width: 0.8"/>
      </g>
     </g>
     <g id="text_11">
      <text style="font-size: 11px; font-family: 'DejaVu Serif'; text-anchor: end; fill: #756a5d" x="44.502813" y="248.716328" transform="rotate(-0 44.502813 248.716328)">0</text>
     </g>
    </g>
    <g id="ytick_5">
     <g id="line2d_21">
      <path d="M 51.502813 191.59901 
L 896.432812 191.59901 
" clip-path="url(#pdf2165e769)" style="fill: none; stroke: #d9cbb6; stroke-opacity: 0.45; stroke-width: 0.8; stroke-linecap: square"/>
     </g>
     <g id="line2d_22">
      <g>
       <use xlink:href="#m9a44402ec6" x="51.502813" y="191.59901" style="fill: #756a5d; stroke: #756a5d; stroke-width: 0.8"/>
      </g>
     </g>
     <g id="text_12">
      <text style="font-size: 11px; font-family: 'DejaVu Serif'; text-anchor: end; fill: #756a5d" x="44.502813" y="195.778151" transform="rotate(-0 44.502813 195.778151)">1</text>
     </g>
    </g>
    <g id="ytick_6">
     <g id="line2d_23">
      <path d="M 51.502813 138.660833 
L 896.432812 138.660833 
" clip-path="url(#pdf2165e769)" style="fill: none; stroke: #d9cbb6; stroke-opacity: 0.45; stroke-width: 0.8; stroke-linecap: square"/>
     </g>
     <g id="line2d_24">
      <g>
       <use xlink:href="#m9a44402ec6" x="51.502813" y="138.660833" style="fill: #756a5d; stroke: #756a5d; stroke-width: 0.8"/>
      </g>
     </g>
     <g id="text_13">
      <text style="font-size: 11px; font-family: 'DejaVu Serif'; text-anchor: end; fill: #756a5d" x="44.502813" y="142.839974" transform="rotate(-0 44.502813 142.839974)">2</text>
     </g>
    </g>
    <g id="ytick_7">
     <g id="line2d_25">
      <path d="M 51.502813 85.722656 
L 896.432812 85.722656 
" clip-path="url(#pdf2165e769)" style="fill: none; stroke: #d9cbb6; stroke-opacity: 0.45; stroke-width: 0.8; stroke-linecap: square"/>
     </g>
     <g id="line2d_26">
      <g>
       <use xlink:href="#m9a44402ec6" x="51.502813" y="85.722656" style="fill: #756a5d; stroke: #756a5d; stroke-width: 0.8"/>
      </g>
     </g>
     <g id="text_14">
      <text style="font-size: 11px; font-family: 'DejaVu Serif'; text-anchor: end; fill: #756a5d" x="44.502813" y="89.901797" transform="rotate(-0 44.502813 89.901797)">3</text>
     </g>
    </g>
    <g id="text_15">
     <text style="font-size: 13px; font-family: 'DejaVu Serif'; text-anchor: middle; fill: #1f1b16" x="21.397969" y="244.537187" transform="rotate(-90 21.397969 244.537187)">Stellar radial velocity (m/s)</text>
    </g>
   </g>
   <g id="line2d_27">
    <path d="M 51.502813 244.537187 
L 66.779711 277.414734 
L 75.005733 294.659445 
L 82.056609 308.996286 
L 89.107486 322.808475 
L 94.983216 333.848198 
L 100.858946 344.408245 
L 106.734676 354.4471 
L 111.43526 362.079547 
L 116.135844 369.341888 
L 120.836429 376.222598 
L 125.537013 382.712899 
L 130.237597 388.806636 
L 134.938181 394.500126 
L 139.638765 399.791978 
L 144.339349 404.682917 
L 149.039934 409.175578 
L 153.740518 413.274312 
L 157.265956 416.093325 
L 160.791394 418.696998 
L 164.316832 421.088673 
L 167.84227 423.272021 
L 171.367708 425.251 
L 174.893146 427.029816 
L 178.418584 428.612883 
L 181.944023 430.004791 
L 185.469461 431.210272 
L 188.994899 432.234166 
L 192.520337 433.081399 
L 197.220921 433.944853 
L 201.921505 434.514993 
L 206.622089 434.803729 
L 211.322673 434.822912 
L 216.023258 434.584265 
L 220.723842 434.099333 
L 225.424426 433.379432 
L 230.12501 432.435614 
L 234.825594 431.278631 
L 239.526178 429.918918 
L 244.226762 428.366568 
L 250.102493 426.170043 
L 255.978223 423.705954 
L 261.853953 420.991646 
L 267.729683 418.043568 
L 273.605413 414.877291 
L 280.65629 410.810377 
L 287.707166 406.474195 
L 294.758042 401.890885 
L 302.984064 396.258668 
L 311.210086 390.348023 
L 320.611255 383.287159 
L 330.012423 375.935534 
L 340.588737 367.358882 
L 351.165052 358.498959 
L 362.916512 348.368148 
L 375.843118 336.92851 
L 389.944871 324.155952 
L 406.396915 308.945688 
L 425.199252 291.254888 
L 449.877319 267.705716 
L 530.962395 190.045915 
L 549.764732 172.48686 
L 566.216776 157.434035 
L 580.318529 144.833003 
L 593.245135 133.58502 
L 604.996596 123.661284 
L 615.57291 115.018185 
L 624.974078 107.59923 
L 634.375246 100.462345 
L 642.601269 94.477298 
L 650.827291 88.762583 
L 659.053313 83.347477 
L 666.104189 78.968614 
L 673.155066 74.855215 
L 680.205942 71.030807 
L 686.081672 68.082729 
L 691.957402 65.368421 
L 697.833132 62.904332 
L 703.708863 60.707807 
L 709.584593 58.797081 
L 714.285177 57.48709 
L 718.985761 56.382408 
L 723.686345 55.493548 
L 728.386929 54.831343 
L 733.087513 54.406912 
L 737.788098 54.231632 
L 742.488682 54.317098 
L 747.189266 54.675071 
L 751.88985 55.317422 
L 755.415288 55.992976 
L 758.940726 56.840209 
L 762.466164 57.864103 
L 765.991602 59.069584 
L 769.517041 60.461492 
L 773.042479 62.044559 
L 776.567917 63.823375 
L 780.093355 65.802354 
L 783.618793 67.985702 
L 787.144231 70.377377 
L 790.669669 72.98105 
L 794.195107 75.800063 
L 797.720545 78.837388 
L 802.42113 83.231097 
L 807.121714 88.022148 
L 811.822298 93.213626 
L 816.522882 98.806751 
L 821.223466 104.800679 
L 825.92405 111.192317 
L 830.624634 117.976143 
L 835.325219 125.144047 
L 840.025803 132.685202 
L 844.726387 140.585957 
L 850.602117 150.942114 
L 856.477847 161.795398 
L 862.353577 173.100111 
L 869.404454 187.18742 
L 877.630476 204.211383 
L 887.031644 224.220484 
L 896.432812 244.537187 
L 896.432812 244.537187 
" clip-path="url(#pdf2165e769)" style="fill: none; stroke: #a3583c; stroke-width: 2.6; stroke-linecap: square"/>
   </g>
   <g id="line2d_28">
    <path d="M 51.502813 244.537187 
L 896.432812 244.537187 
" clip-path="url(#pdf2165e769)" style="fill: none; stroke-dasharray: 5.365,2.32; stroke-dashoffset: 0; stroke: #9b9184; stroke-opacity: 0.65; stroke-width: 1.45"/>
   </g>
   <g id="patch_3">
    <path d="M 51.502813 453.877187 
L 51.502813 35.197188 
" style="fill: none; stroke: #b9a98f; stroke-width: 0.8; stroke-linejoin: miter; stroke-linecap: square"/>
   </g>
   <g id="patch_4">
    <path d="M 896.432812 453.877187 
L 896.432812 35.197188 
" style="fill: none; stroke: #b9a98f; stroke-width: 0.8; stroke-linejoin: miter; stroke-linecap: square"/>
   </g>
   <g id="patch_5">
    <path d="M 51.502813 453.877187 
L 896.432812 453.877187 
" style="fill: none; stroke: #b9a98f; stroke-width: 0.8; stroke-linejoin: miter; stroke-linecap: square"/>
   </g>
   <g id="patch_6">
    <path d="M 51.502813 35.197187 
L 896.432812 35.197187 
" style="fill: none; stroke: #b9a98f; stroke-width: 0.8; stroke-linejoin: miter; stroke-linecap: square"/>
   </g>
   <g id="text_16">
    <g id="patch_7">
     <path d="M 64.176763 72.760563 
L 351.491763 72.760563 
Q 354.571763 72.760563 354.571763 69.680563 
L 354.571763 56.131188 
Q 354.571763 53.051188 351.491763 53.051188 
L 64.176763 53.051188 
Q 61.096763 53.051188 61.096763 56.131188 
L 61.096763 69.680563 
Q 61.096763 72.760563 64.176763 72.760563 
z
" style="fill: #fffaf0; opacity: 0.88"/>
    </g>
    <text style="font-size: 14px; font-family: 'DejaVu Serif'; text-anchor: start; fill: #756a5d" x="64.176763" y="66.769" transform="rotate(-0 64.176763 66.769)">K ≈ 3.59 m s^-1 · P ≈ 32.94 d · e = 0.20</text>
   </g>
   <g id="text_17">
    <text style="font-size: 10.5px; font-family: 'DejaVu Serif'; text-anchor: end; fill: #756a5d" x="887.983512" y="443.170619" transform="rotate(-0 887.983512 443.170619)">single-planet Keplerian model</text>
   </g>
   <g id="text_18">
    <text style="font-weight: 700; font-size: 18px; font-family: 'DejaVu Serif'; text-anchor: start; fill: #1f1b16" x="51.502813" y="25.197187" transform="rotate(-0 51.502813 25.197187)">Keplerian RV model — K2-18 b</text>
   </g>
  </g>
 </g>
 <defs>
  <clipPath id="pdf2165e769">
   <rect x="51.502813" y="35.197187" width="844.93" height="418.68"/>
  </clipPath>
 </defs>
</svg>
