<?xml version="1.0" encoding="utf-8" standalone="no"?>
<!DOCTYPE svg PUBLIC "-//W3C//DTD SVG 1.1//EN"
  "http://www.w3.org/Graphics/SVG/1.1/DTD/svg11.dtd">
<svg xmlns:xlink="http://www.w3.org/1999/xlink" width="915.325156pt" height="499.235156pt" viewBox="0 0 915.325156 499.235156" xmlns="http://www.w3.org/2000/svg" version="1.1">
 <metadata>
  <rdf:RDF xmlns:dc="http://purl.org/dc/elements/1.1/" xmlns:cc="http://creativecommons.org/ns#" xmlns:rdf="http://www.w3.org/1999/02/22-rdf-syntax-ns#">
   <cc:Work>
    <dc:type rdf:resource="http://purl.org/dc/dcmitype/StillImage"/>
    <dc:date>2026-08-24T05:04:19.067498</dc:date>
    <dc:format>image/svg+xml</dc:format>
    <dc:creator>
     <cc:Agent>
      <dc:title>Matplotlib v3.11.1, https://matplotlib.org/</dc:title>
     </cc:Agent>
    </dc:creator>
   </cc:Work>
  </rdf:RDF>
 </metadata>
 <defs>
  <style type="text/css">*{stroke-linejoin: round; stroke-linecap: butt}</style>
 </defs>
 <g id="figure_1">
  <g id="patch_1">
   <path d="M 0 499.235156 
L 915.325156 499.235156 
L 915.325156 0 
L 0 0 
z
" style="fill: #fbfeff"/>
  </g>
  <g id="axes_1">
   <g id="patch_2">
    <path d="M 88.008203 452.714141 
L 903.805156 452.714141 
L 903.805156 35.197188 
L 88.008203 35.197188 
z
" style="fill: #fbfeff"/>
   </g>
   <g id="patch_3">
    <path d="M 355.252033 452.714141 
L 636.561327 452.714141 
L 636.561327 35.197188 
L 355.252033 35.197188 
z
" clip-path="url(#p04523ecdb6)" style="fill: #0e7f91; opacity: 0.075; stroke: #0e7f91; stroke-linejoin: miter"/>
   </g>
   <g id="matplotlib.axis_1">
    <g id="xtick_1">
     <g id="line2d_1">
      <path d="M 123.538031 452.714141 
L 123.538031 35.197188 
" clip-path="url(#p04523ecdb6)" style="fill: none; stroke: #c9dde1; stroke-opacity: 0.45; stroke-width: 0.8; stroke-linecap: square"/>
     </g>
     <g id="line2d_2">
      <defs>
       <path id="m8ca5bb49f1" d="M 0 0 
L 0 3.5 
" style="stroke: #60777f; stroke-width: 0.8"/>
      </defs>
      <g>
       <use xlink:href="#m8ca5bb49f1" x="123.538031" y="452.714141" style="fill: #60777f; stroke: #60777f; stroke-width: 0.8"/>
      </g>
     </g>
     <g id="text_1">
      <text style="font-size: 11px; font-family: 'DejaVu Sans'; text-anchor: middle; fill: #60777f" x="123.538031" y="468.071563" transform="rotate(-0 123.538031 468.071563)">−4</text>
     </g>
    </g>
    <g id="xtick_2">
     <g id="line2d_3">
      <path d="M 216.630193 452.714141 
L 216.630193 35.197188 
" clip-path="url(#p04523ecdb6)" style="fill: none; stroke: #c9dde1; stroke-opacity: 0.45; stroke-width: 0.8; stroke-linecap: square"/>
     </g>
     <g id="line2d_4">
      <g>
       <use xlink:href="#m8ca5bb49f1" x="216.630193" y="452.714141" style="fill: #60777f; stroke: #60777f; stroke-width: 0.8"/>
      </g>
     </g>
     <g id="text_2">
      <text style="font-size: 11px; font-family: 'DejaVu Sans'; text-anchor: middle; fill: #60777f" x="216.630193" y="468.071563" transform="rotate(-0 216.630193 468.071563)">−3</text>
     </g>
    </g>
    <g id="xtick_3">
     <g id="line2d_5">
      <path d="M 309.722355 452.714141 
L 309.722355 35.197188 
" clip-path="url(#p04523ecdb6)" style="fill: none; stroke: #c9dde1; stroke-opacity: 0.45; stroke-width: 0.8; stroke-linecap: square"/>
     </g>
     <g id="line2d_6">
      <g>
       <use xlink:href="#m8ca5bb49f1" x="309.722355" y="452.714141" style="fill: #60777f; stroke: #60777f; stroke-width: 0.8"/>
      </g>
     </g>
     <g id="text_3">
      <text style="font-size: 11px; font-family: 'DejaVu Sans'; text-anchor: middle; fill: #60777f" x="309.722355" y="468.071563" transform="rotate(-0 309.722355 468.071563)">−2</text>
     </g>
    </g>
    <g id="xtick_4">
     <g id="line2d_7">
      <path d="M 402.814517 452.714141 
L 402.814517 35.197188 
" clip-path="url(#p04523ecdb6)" style="fill: none; stroke: #c9dde1; stroke-opacity: 0.45; stroke-width: 0.8; stroke-linecap: square"/>
     </g>
     <g id="line2d_8">
      <g>
       <use xlink:href="#m8ca5bb49f1" x="402.814517" y="452.714141" style="fill: #60777f; stroke: #60777f; stroke-width: 0.8"/>
      </g>
     </g>
     <g id="text_4">
      <text style="font-size: 11px; font-family: 'DejaVu Sans'; text-anchor: middle; fill: #60777f" x="402.814517" y="468.071563" transform="rotate(-0 402.814517 468.071563)">−1</text>
     </g>
    </g>
    <g id="xtick_5">
     <g id="line2d_9">
      <path d="M 495.90668 452.714141 
L 495.90668 35.197188 
" clip-path="url(#p04523ecdb6)" style="fill: none; stroke: #c9dde1; stroke-opacity: 0.45; stroke-width: 0.8; stroke-linecap: square"/>
     </g>
     <g id="line2d_10">
      <g>
       <use xlink:href="#m8ca5bb49f1" x="495.90668" y="452.714141" style="fill: #60777f; stroke: #60777f; stroke-width: 0.8"/>
      </g>
     </g>
     <g id="text_5">
      <text style="font-size: 11px; font-family: 'DejaVu Sans'; text-anchor: middle; fill: #60777f" x="495.90668" y="468.071563" transform="rotate(-0 495.90668 468.071563)">0</text>
     </g>
    </g>
    <g id="xtick_6">
     <g id="line2d_11">
      <path d="M 588.998842 452.714141 
L 588.998842 35.197188 
" clip-path="url(#p04523ecdb6)" style="fill: none; stroke: #c9dde1; stroke-opacity: 0.45; stroke-width: 0.8; stroke-linecap: square"/>
     </g>
     <g id="line2d_12">
      <g>
       <use xlink:href="#m8ca5bb49f1" x="588.998842" y="452.714141" style="fill: #60777f; stroke: #60777f; stroke-width: 0.8"/>
      </g>
     </g>
     <g id="text_6">
      <text style="font-size: 11px; font-family: 'DejaVu Sans'; text-anchor: middle; fill: #60777f" x="588.998842" y="468.071563" transform="rotate(-0 588.998842 468.071563)">1</text>
     </g>
    </g>
    <g id="xtick_7">
     <g id="line2d_13">
      <path d="M 682.091004 452.714141 
L 682.091004 35.197188 
" clip-path="url(#p04523ecdb6)" style="fill: none; stroke: #c9dde1; stroke-opacity: 0.45; stroke-width: 0.8; stroke-linecap: square"/>
     </g>
     <g id="line2d_14">
      <g>
       <use xlink:href="#m8ca5bb49f1" x="682.091004" y="452.714141" style="fill: #60777f; stroke: #60777f; stroke-width: 0.8"/>
      </g>
     </g>
     <g id="text_7">
      <text style="font-size: 11px; font-family: 'DejaVu Sans'; text-anchor: middle; fill: #60777f" x="682.091004" y="468.071563" transform="rotate(-0 682.091004 468.071563)">2</text>
     </g>
    </g>
    <g id="xtick_8">
     <g id="line2d_15">
      <path d="M 775.183166 452.714141 
L 775.183166 35.197188 
" clip-path="url(#p04523ecdb6)" style="fill: none; stroke: #c9dde1; stroke-opacity: 0.45; stroke-width: 0.8; stroke-linecap: square"/>
     </g>
     <g id="line2d_16">
      <g>
       <use xlink:href="#m8ca5bb49f1" x="775.183166" y="452.714141" style="fill: #60777f; stroke: #60777f; stroke-width: 0.8"/>
      </g>
     </g>
     <g id="text_8">
      <text style="font-size: 11px; font-family: 'DejaVu Sans'; text-anchor: middle; fill: #60777f" x="775.183166" y="468.071563" transform="rotate(-0 775.183166 468.071563)">3</text>
     </g>
    </g>
    <g id="xtick_9">
     <g id="line2d_17">
      <path d="M 868.275329 452.714141 
L 868.275329 35.197188 
" clip-path="url(#p04523ecdb6)" style="fill: none; stroke: #c9dde1; stroke-opacity: 0.45; stroke-width: 0.8; stroke-linecap: square"/>
     </g>
     <g id="line2d_18">
      <g>
       <use xlink:href="#m8ca5bb49f1" x="868.275329" y="452.714141" style="fill: #60777f; stroke: #60777f; stroke-width: 0.8"/>
      </g>
     </g>
     <g id="text_9">
      <text style="font-size: 11px; font-family: 'DejaVu Sans'; text-anchor: middle; fill: #60777f" x="868.275329" y="468.071563" transform="rotate(-0 868.275329 468.071563)">4</text>
     </g>
    </g>
    <g id="text_10">
     <text style="font-size: 13px; font-family: 'DejaVu Sans'; text-anchor: middle; fill: #10242b" x="495.90668" y="484.592109" transform="rotate(-0 495.90668 484.592109)">Time from mid-transit (hours)</text>
    </g>
   </g>
   <g id="matplotlib.axis_2">
    <g id="ytick_1">
     <g id="line2d_19">
      <path d="M 88.008203 448.586557 
L 903.805156 448.586557 
" clip-path="url(#p04523ecdb6)" style="fill: none; stroke: #c9dde1; stroke-opacity: 0.45; stroke-width: 0.8; stroke-linecap: square"/>
     </g>
     <g id="line2d_20">
      <defs>
       <path id="m3b3b2b3898" d="M 0 0 
L -3.5 0 
" style="stroke: #60777f; stroke-width: 0.8"/>
      </defs>
      <g>
       <use xlink:href="#m3b3b2b3898" x="88.008203" y="448.586557" style="fill: #60777f; stroke: #60777f; stroke-width: 0.8"/>
      </g>
     </g>
     <g id="text_11">
      <text style="font-size: 11px; font-family: 'DejaVu Sans'; text-anchor: end; fill: #60777f" x="81.008203" y="452.765268" transform="rotate(-0 81.008203 452.765268)">0.996000</text>
     </g>
    </g>
    <g id="ytick_2">
     <g id="line2d_21">
      <path d="M 88.008203 369.960613 
L 903.805156 369.960613 
" clip-path="url(#p04523ecdb6)" style="fill: none; stroke: #c9dde1; stroke-opacity: 0.45; stroke-width: 0.8; stroke-linecap: square"/>
     </g>
     <g id="line2d_22">
      <g>
       <use xlink:href="#m3b3b2b3898" x="88.008203" y="369.960613" style="fill: #60777f; stroke: #60777f; stroke-width: 0.8"/>
      </g>
     </g>
     <g id="text_12">
      <text style="font-size: 11px; font-family: 'DejaVu Sans'; text-anchor: end; fill: #60777f" x="81.008203" y="374.139324" transform="rotate(-0 81.008203 374.139324)">0.997000</text>
     </g>
    </g>
    <g id="ytick_3">
     <g id="line2d_23">
      <path d="M 88.008203 291.334669 
L 903.805156 291.334669 
" clip-path="url(#p04523ecdb6)" style="fill: none; stroke: #c9dde1; stroke-opacity: 0.45; stroke-width: 0.8; stroke-linecap: square"/>
     </g>
     <g id="line2d_24">
      <g>
       <use xlink:href="#m3b3b2b3898" x="88.008203" y="291.334669" style="fill: #60777f; stroke: #60777f; stroke-width: 0.8"/>
      </g>
     </g>
     <g id="text_13">
      <text style="font-size: 11px; font-family: 'DejaVu Sans'; text-anchor: end; fill: #60777f" x="81.008203" y="295.51338" transform="rotate(-0 81.008203 295.51338)">0.998000</text>
     </g>
    </g>
    <g id="ytick_4">
     <g id="line2d_25">
      <path d="M 88.008203 212.708726 
L 903.805156 212.708726 
" clip-path="url(#p04523ecdb6)" style="fill: none; stroke: #c9dde1; stroke-opacity: 0.45; stroke-width: 0.8; stroke-linecap: square"/>
     </g>
     <g id="line2d_26">
      <g>
       <use xlink:href="#m3b3b2b3898" x="88.008203" y="212.708726" style="fill: #60777f; stroke: #60777f; stroke-width: 0.8"/>
      </g>
     </g>
     <g id="text_14">
      <text style="font-size: 11px; font-family: 'DejaVu Sans'; text-anchor: end; fill: #60777f" x="81.008203" y="216.887436" transform="rotate(-0 81.008203 216.887436)">0.999000</text>
     </g>
    </g>
    <g id="ytick_5">
     <g id="line2d_27">
      <path d="M 88.008203 134.082782 
L 903.805156 134.082782 
" clip-path="url(#p04523ecdb6)" style="fill: none; stroke: #c9dde1; stroke-opacity: 0.45; stroke-width: 0.8; stroke-linecap: square"/>
     </g>
     <g id="line2d_28">
      <g>
       <use xlink:href="#m3b3b2b3898" x="88.008203" y="134.082782" style="fill: #60777f; stroke: #60777f; stroke-width: 0.8"/>
      </g>
     </g>
     <g id="text_15">
      <text style="font-size: 11px; font-family: 'DejaVu Sans'; text-anchor: end; fill: #60777f" x="81.008203" y="138.261493" transform="rotate(-0 81.008203 138.261493)">1.000000</text>
     </g>
    </g>
    <g id="ytick_6">
     <g id="line2d_29">
      <path d="M 88.008203 55.456838 
L 903.805156 55.456838 
" clip-path="url(#p04523ecdb6)" style="fill: none; stroke: #c9dde1; stroke-opacity: 0.45; stroke-width: 0.8; stroke-linecap: square"/>
     </g>
     <g id="line2d_30">
      <g>
       <use xlink:href="#m3b3b2b3898" x="88.008203" y="55.456838" style="fill: #60777f; stroke: #60777f; stroke-width: 0.8"/>
      </g>
     </g>
     <g id="text_16">
      <text style="font-size: 11px; font-family: 'DejaVu Sans'; text-anchor: end; fill: #60777f" x="81.008203" y="59.635549" transform="rotate(-0 81.008203 59.635549)">1.001000</text>
     </g>
    </g>
    <g id="text_17">
     <text style="font-size: 13px; font-family: 'DejaVu Sans'; text-anchor: middle; fill: #10242b" x="21.397969" y="243.955664" transform="rotate(-90 21.397969 243.955664)">Relative flux</text>
    </g>
   </g>
   <g id="line2d_31">
    <path d="M 88.008203 134.082782 
L 354.798308 134.082782 
L 355.705757 134.695211 
L 356.613207 137.219562 
L 357.520656 140.732474 
L 359.335555 149.647312 
L 361.150453 160.211272 
L 363.872801 177.755437 
L 364.780251 183.816246 
L 365.6877 199.3275 
L 367.502599 223.940418 
L 370.224947 257.629229 
L 372.039845 277.993342 
L 373.854744 295.08931 
L 374.762193 301.410676 
L 375.669643 304.53279 
L 377.484541 309.101837 
L 379.29944 313.221799 
L 382.021788 318.73423 
L 384.744136 323.608805 
L 387.466484 327.973017 
L 390.188832 331.916828 
L 392.91118 335.50656 
L 395.633528 338.792795 
L 399.263325 342.769657 
L 402.893123 346.3496 
L 406.52292 349.58864 
L 410.152717 352.530818 
L 413.782515 355.211483 
L 417.412312 357.659492 
L 421.949559 360.428346 
L 426.486805 362.90909 
L 431.024052 365.132935 
L 435.561299 367.125577 
L 440.098546 368.908379 
L 445.543242 370.795737 
L 450.987938 372.432167 
L 456.432634 373.838593 
L 461.87733 375.032097 
L 468.229475 376.173767 
L 474.58162 377.061807 
L 480.933766 377.709306 
L 487.285911 378.125572 
L 493.638056 378.316487 
L 499.990202 378.284721 
L 506.342347 378.02983 
L 512.694492 377.548242 
L 519.046638 376.833124 
L 525.398783 375.874131 
L 530.843479 374.847341 
L 536.288175 373.619394 
L 541.732871 372.175915 
L 547.177567 370.499231 
L 552.622263 368.567703 
L 557.15951 366.744465 
L 561.696757 364.707416 
L 566.234003 362.434404 
L 570.77125 359.898736 
L 575.308497 357.067922 
L 578.938294 354.564161 
L 582.568091 351.821046 
L 586.197889 348.808262 
L 589.827686 345.488526 
L 593.457483 341.815166 
L 596.179831 338.792795 
L 598.902179 335.50656 
L 601.624527 331.916828 
L 604.346875 327.973017 
L 607.069223 323.608805 
L 609.791571 318.73423 
L 612.513919 313.221799 
L 614.328818 309.101837 
L 616.143717 304.53279 
L 617.051166 301.410676 
L 617.958615 295.08931 
L 618.866065 287.090225 
L 620.680963 268.104523 
L 623.403311 235.470474 
L 625.21821 212.061392 
L 626.125659 199.3275 
L 627.033109 183.816246 
L 630.662906 160.211272 
L 632.477805 149.647312 
L 634.292703 140.732474 
L 635.200153 137.219562 
L 636.107602 134.695211 
L 637.015051 134.082782 
L 903.805156 134.082782 
L 903.805156 134.082782 
" clip-path="url(#p04523ecdb6)" style="fill: none; stroke: #0e7f91; stroke-width: 2.6; stroke-linecap: square"/>
   </g>
   <g id="line2d_32">
    <path d="M 88.008203 134.082782 
L 903.805156 134.082782 
" clip-path="url(#p04523ecdb6)" style="fill: none; stroke-dasharray: 5.365,2.32; stroke-dashoffset: 0; stroke: #8ca0a6; stroke-opacity: 0.55; stroke-width: 1.45"/>
   </g>
   <g id="patch_4">
    <path d="M 88.008203 452.714141 
L 88.008203 35.197188 
" style="fill: none; stroke: #8bbac3; stroke-width: 0.8; stroke-linejoin: miter; stroke-linecap: square"/>
   </g>
   <g id="patch_5">
    <path d="M 903.805156 452.714141 
L 903.805156 35.197188 
" style="fill: none; stroke: #8bbac3; stroke-width: 0.8; stroke-linejoin: miter; stroke-linecap: square"/>
   </g>
   <g id="patch_6">
    <path d="M 88.008203 452.714141 
L 903.805156 452.714141 
" style="fill: none; stroke: #8bbac3; stroke-width: 0.8; stroke-linejoin: miter; stroke-linecap: square"/>
   </g>
   <g id="patch_7">
    <path d="M 88.008203 35.197188 
L 903.805156 35.197188 
" style="fill: none; stroke: #8bbac3; stroke-width: 0.8; stroke-linejoin: miter; stroke-linecap: square"/>
   </g>
   <g id="text_18">
    <g id="patch_8">
     <path d="M 100.245157 73.154129 
L 460.981407 73.154129 
Q 464.061407 73.154129 464.061407 70.074129 
L 464.061407 56.073035 
Q 464.061407 52.993035 460.981407 52.993035 
L 100.245157 52.993035 
Q 97.165157 52.993035 97.165157 56.073035 
L 97.165157 70.074129 
Q 97.165157 73.154129 100.245157 73.154129 
z
" style="fill: #fbfeff; opacity: 0.88"/>
    </g>
    <text style="font-size: 14px; font-family: 'DejaVu Sans'; text-anchor: start; fill: #60777f" x="100.245157" y="66.710848" transform="rotate(-0 100.245157 66.710848)">Rp/R* = 0.0529 · depth ≈ 2795 ppm · T14 ≈ 3.02 h</text>
   </g>
   <g id="text_19">
    <text style="font-size: 10.5px; font-family: 'DejaVu Sans'; text-anchor: end; fill: #60777f" x="895.647187" y="441.841341" transform="rotate(-0 895.647187 441.841341)">quadratic limb-darkened geometry</text>
   </g>
   <g id="text_20">
    <text style="font-weight: 700; font-size: 18px; font-family: 'DejaVu Sans'; text-anchor: start; fill: #10242b" x="88.008203" y="25.197188" transform="rotate(-0 88.008203 25.197188)">Transit light-curve model — K2-18 b</text>
   </g>
  </g>
 </g>
 <defs>
  <clipPath id="p04523ecdb6">
   <rect x="88.008203" y="35.197188" width="815.796953" height="417.516953"/>
  </clipPath>
 </defs>
</svg>
