<?xml version="1.0" encoding="utf-8" standalone="no"?>
<!DOCTYPE svg PUBLIC "-//W3C//DTD SVG 1.1//EN"
  "http://www.w3.org/Graphics/SVG/1.1/DTD/svg11.dtd">
<svg xmlns:xlink="http://www.w3.org/1999/xlink" width="916.678281pt" height="499.624687pt" viewBox="0 0 916.678281 499.624687" xmlns="http://www.w3.org/2000/svg" version="1.1">
 <metadata>
  <rdf:RDF xmlns:dc="http://purl.org/dc/elements/1.1/" xmlns:cc="http://creativecommons.org/ns#" xmlns:rdf="http://www.w3.org/1999/02/22-rdf-syntax-ns#">
   <cc:Work>
    <dc:type rdf:resource="http://purl.org/dc/dcmitype/StillImage"/>
    <dc:date>2026-05-11T14:55:18.630820</dc:date>
    <dc:format>image/svg+xml</dc:format>
    <dc:creator>
     <cc:Agent>
      <dc:title>Matplotlib v3.10.8, https://matplotlib.org/</dc:title>
     </cc:Agent>
    </dc:creator>
   </cc:Work>
  </rdf:RDF>
 </metadata>
 <defs>
  <style type="text/css">*{stroke-linejoin: round; stroke-linecap: butt}</style>
 </defs>
 <g id="figure_1">
  <g id="patch_1">
   <path d="M 0 499.624687 
L 916.678281 499.624687 
L 916.678281 0 
L 0 0 
z
" style="fill: #fffaf0"/>
  </g>
  <g id="axes_1">
   <g id="patch_2">
    <path d="M 58.501563 453.877187 
L 896.411562 453.877187 
L 896.411562 35.197187 
L 58.501563 35.197187 
z
" style="fill: #fffaf0"/>
   </g>
   <g id="FillBetweenPolyCollection_1">
    <defs>
     <path id="mbdf7ecfef1" d="M 58.501563 -255.0875 
L 58.501563 -255.0875 
L 59.666945 -253.424447 
L 60.832327 -251.761522 
L 61.99771 -250.09885 
L 63.163092 -248.436559 
L 64.328475 -246.774776 
L 65.493857 -245.113628 
L 66.65924 -243.453242 
L 67.824622 -241.793744 
L 68.990005 -240.135261 
L 70.155387 -238.47792 
L 71.32077 -236.821848 
L 72.486152 -235.16717 
L 73.651535 -233.514013 
L 74.816917 -231.862505 
L 75.9823 -230.212769 
L 77.147682 -228.564933 
L 78.313065 -226.919123 
L 79.478447 -225.275464 
L 80.64383 -223.634081 
L 81.809212 -221.995101 
L 82.974594 -220.358647 
L 84.139977 -218.724846 
L 85.305359 -217.093821 
L 86.470742 -215.465698 
L 87.636124 -213.840601 
L 88.801507 -212.218653 
L 89.966889 -210.599979 
L 91.132272 -208.984703 
L 92.297654 -207.372947 
L 93.463037 -205.764835 
L 94.628419 -204.160489 
L 95.793802 -202.560033 
L 96.959184 -200.963588 
L 98.124567 -199.371276 
L 99.289949 -197.783219 
L 100.455332 -196.199538 
L 101.620714 -194.620354 
L 102.786097 -193.045788 
L 103.951479 -191.475959 
L 105.116862 -189.910989 
L 106.282244 -188.350995 
L 107.447626 -186.796098 
L 108.613009 -185.246416 
L 109.778391 -183.702068 
L 110.943774 -182.163171 
L 112.109156 -180.629843 
L 113.274539 -179.102201 
L 114.439921 -177.580361 
L 115.605304 -176.064441 
L 116.770686 -174.554555 
L 117.936069 -173.050819 
L 119.101451 -171.553348 
L 120.266834 -170.062256 
L 121.432216 -168.577657 
L 122.597599 -167.099665 
L 123.762981 -165.628392 
L 124.928364 -164.16395 
L 126.093746 -162.706452 
L 127.259129 -161.256009 
L 128.424511 -159.812731 
L 129.589894 -158.376729 
L 130.755276 -156.948112 
L 131.920658 -155.52699 
L 133.086041 -154.11347 
L 134.251423 -152.707662 
L 135.416806 -151.309672 
L 136.582188 -149.919607 
L 137.747571 -148.537574 
L 138.912953 -147.163677 
L 140.078336 -145.798022 
L 141.243718 -144.440713 
L 142.409101 -143.091853 
L 143.574483 -141.751546 
L 144.739866 -140.419895 
L 145.905248 -139.096999 
L 147.070631 -137.782962 
L 148.236013 -136.477882 
L 149.401396 -135.181861 
L 150.566778 -133.894996 
L 151.732161 -132.617386 
L 152.897543 -131.349128 
L 154.062926 -130.09032 
L 155.228308 -128.841058 
L 156.39369 -127.601436 
L 157.559073 -126.37155 
L 158.724455 -125.151493 
L 159.889838 -123.941359 
L 161.05522 -122.741241 
L 162.220603 -121.551229 
L 163.385985 -120.371414 
L 164.551368 -119.201887 
L 165.71675 -118.042738 
L 166.882133 -116.894053 
L 168.047515 -115.755922 
L 169.212898 -114.628432 
L 170.37828 -113.511667 
L 171.543663 -112.405714 
L 172.709045 -111.310657 
L 173.874428 -110.22658 
L 175.03981 -109.153565 
L 176.205193 -108.091695 
L 177.370575 -107.04105 
L 178.535957 -106.00171 
L 179.70134 -104.973756 
L 180.866722 -103.957265 
L 182.032105 -102.952316 
L 183.197487 -101.958984 
L 184.36287 -100.977347 
L 185.528252 -100.007478 
L 186.693635 -99.049451 
L 187.859017 -98.103341 
L 189.0244 -97.169219 
L 190.189782 -96.247157 
L 191.355165 -95.337224 
L 192.520547 -94.439491 
L 193.68593 -93.554026 
L 194.851312 -92.680897 
L 196.016695 -91.82017 
L 197.182077 -90.971911 
L 198.34746 -90.136185 
L 199.512842 -89.313055 
L 200.678225 -88.502585 
L 201.843607 -87.704837 
L 203.008989 -86.91987 
L 204.174372 -86.147746 
L 205.339754 -85.388524 
L 206.505137 -84.64226 
L 207.670519 -83.909013 
L 208.835902 -83.188837 
L 210.001284 -82.481789 
L 211.166667 -81.787923 
L 212.332049 -81.10729 
L 213.497432 -80.439943 
L 214.662814 -79.785934 
L 215.828197 -79.145312 
L 216.993579 -78.518125 
L 218.158962 -77.904423 
L 219.324344 -77.304251 
L 220.489727 -76.717656 
L 221.655109 -76.144682 
L 222.820492 -75.585373 
L 223.985874 -75.039773 
L 225.151257 -74.507921 
L 226.316639 -73.98986 
L 227.482021 -73.485628 
L 228.647404 -72.995265 
L 229.812786 -72.518807 
L 230.978169 -72.056291 
L 232.143551 -71.607753 
L 233.308934 -71.173226 
L 234.474316 -70.752744 
L 235.639699 -70.346339 
L 236.805081 -69.954042 
L 237.970464 -69.575882 
L 239.135846 -69.21189 
L 240.301229 -68.862091 
L 241.466611 -68.526515 
L 242.631994 -68.205185 
L 243.797376 -67.898126 
L 244.962759 -67.605362 
L 246.128141 -67.326916 
L 247.293524 -67.062808 
L 248.458906 -66.813059 
L 249.624289 -66.577687 
L 250.789671 -66.356712 
L 251.955053 -66.150148 
L 253.120436 -65.958014 
L 254.285818 -65.780322 
L 255.451201 -65.617086 
L 256.616583 -65.46832 
L 257.781966 -65.334035 
L 258.947348 -65.21424 
L 260.112731 -65.108944 
L 261.278113 -65.018157 
L 262.443496 -64.941885 
L 263.608878 -64.880133 
L 264.774261 -64.832906 
L 265.939643 -64.800209 
L 267.105026 -64.782042 
L 268.270408 -64.778409 
L 269.435791 -64.789309 
L 270.601173 -64.814741 
L 271.766556 -64.854703 
L 272.931938 -64.909193 
L 274.09732 -64.978206 
L 275.262703 -65.061737 
L 276.428085 -65.159779 
L 277.593468 -65.272325 
L 278.75885 -65.399367 
L 279.924233 -65.540894 
L 281.089615 -65.696896 
L 282.254998 -65.867361 
L 283.42038 -66.052276 
L 284.585763 -66.251627 
L 285.751145 -66.465399 
L 286.916528 -66.693575 
L 288.08191 -66.936137 
L 289.247293 -67.193069 
L 290.412675 -67.464348 
L 291.578058 -67.749956 
L 292.74344 -68.04987 
L 293.908823 -68.364067 
L 295.074205 -68.692524 
L 296.239588 -69.035214 
L 297.40497 -69.392113 
L 298.570352 -69.763193 
L 299.735735 -70.148425 
L 300.901117 -70.54778 
L 302.0665 -70.961227 
L 303.231882 -71.388736 
L 304.397265 -71.830273 
L 305.562647 -72.285804 
L 306.72803 -72.755296 
L 307.893412 -73.238711 
L 309.058795 -73.736013 
L 310.224177 -74.247164 
L 311.38956 -74.772126 
L 312.554942 -75.310857 
L 313.720325 -75.863317 
L 314.885707 -76.429464 
L 316.05109 -77.009254 
L 317.216472 -77.602643 
L 318.381855 -78.209586 
L 319.547237 -78.830036 
L 320.71262 -79.463946 
L 321.878002 -80.111269 
L 323.043384 -80.771953 
L 324.208767 -81.445949 
L 325.374149 -82.133205 
L 326.539532 -82.833669 
L 327.704914 -83.547288 
L 328.870297 -84.274006 
L 330.035679 -85.013768 
L 331.201062 -85.766519 
L 332.366444 -86.532199 
L 333.531827 -87.310752 
L 334.697209 -88.102117 
L 335.862592 -88.906234 
L 337.027974 -89.723041 
L 338.193357 -90.552477 
L 339.358739 -91.394478 
L 340.524122 -92.248979 
L 341.689504 -93.115915 
L 342.854887 -93.995221 
L 344.020269 -94.886828 
L 345.185652 -95.79067 
L 346.351034 -96.706676 
L 347.516416 -97.634777 
L 348.681799 -98.574902 
L 349.847181 -99.52698 
L 351.012564 -100.490936 
L 352.177946 -101.466699 
L 353.343329 -102.454193 
L 354.508711 -103.453343 
L 355.674094 -104.464073 
L 356.839476 -105.486305 
L 358.004859 -106.519962 
L 359.170241 -107.564964 
L 360.335624 -108.621232 
L 361.501006 -109.688685 
L 362.666389 -110.767241 
L 363.831771 -111.856819 
L 364.997154 -112.957334 
L 366.162536 -114.068703 
L 367.327919 -115.190842 
L 368.493301 -116.323663 
L 369.658684 -117.467082 
L 370.824066 -118.62101 
L 371.989448 -119.785359 
L 373.154831 -120.960041 
L 374.320213 -122.144966 
L 375.485596 -123.340042 
L 376.650978 -124.54518 
L 377.816361 -125.760287 
L 378.981743 -126.98527 
L 380.147126 -128.220036 
L 381.312508 -129.46449 
L 382.477891 -130.718537 
L 383.643273 -131.982082 
L 384.808656 -133.255028 
L 385.974038 -134.537278 
L 387.139421 -135.828733 
L 388.304803 -137.129296 
L 389.470186 -138.438867 
L 390.635568 -139.757346 
L 391.800951 -141.084632 
L 392.966333 -142.420624 
L 394.131715 -143.76522 
L 395.297098 -145.118318 
L 396.46248 -146.479813 
L 397.627863 -147.849602 
L 398.793245 -149.22758 
L 399.958628 -150.613643 
L 401.12401 -152.007683 
L 402.289393 -153.409596 
L 403.454775 -154.819273 
L 404.620158 -156.236607 
L 405.78554 -157.66149 
L 406.950923 -159.093813 
L 408.116305 -160.533467 
L 409.281688 -161.980341 
L 410.44707 -163.434326 
L 411.612453 -164.89531 
L 412.777835 -166.363181 
L 413.943218 -167.837828 
L 415.1086 -169.319138 
L 416.273983 -170.806998 
L 417.439365 -172.301293 
L 418.604747 -173.801911 
L 419.77013 -175.308736 
L 420.935512 -176.821654 
L 422.100895 -178.340548 
L 423.266277 -179.865304 
L 424.43166 -181.395803 
L 425.597042 -182.931931 
L 426.762425 -184.473568 
L 427.927807 -186.020598 
L 429.09319 -187.572902 
L 430.258572 -189.130362 
L 431.423955 -190.692859 
L 432.589337 -192.260274 
L 433.75472 -193.832486 
L 434.920102 -195.409376 
L 436.085485 -196.990824 
L 437.250867 -198.576708 
L 438.41625 -200.166908 
L 439.581632 -201.761302 
L 440.747015 -203.359768 
L 441.912397 -204.962184 
L 443.077779 -206.568428 
L 444.243162 -208.178377 
L 445.408544 -209.791909 
L 446.573927 -211.408899 
L 447.739309 -213.029225 
L 448.904692 -214.652763 
L 450.070074 -216.279389 
L 451.235457 -217.908979 
L 452.400839 -219.541407 
L 453.566222 -221.17655 
L 454.731604 -222.814283 
L 455.896987 -224.45448 
L 457.062369 -226.097017 
L 458.227752 -227.741767 
L 459.393134 -229.388606 
L 460.558517 -231.037407 
L 461.723899 -232.688045 
L 462.889282 -234.340394 
L 464.054664 -235.994326 
L 465.220047 -237.649717 
L 466.385429 -239.30644 
L 467.550811 -240.964367 
L 468.716194 -242.623374 
L 469.881576 -244.283332 
L 471.046959 -245.944115 
L 472.212341 -247.605596 
L 473.377724 -249.267649 
L 474.543106 -250.930146 
L 475.708489 -252.592961 
L 476.873871 -254.255966 
L 478.039254 -255.919034 
L 479.204636 -257.582039 
L 480.370019 -259.244854 
L 481.535401 -260.907351 
L 482.700784 -262.569404 
L 483.866166 -264.230885 
L 485.031549 -265.891668 
L 486.196931 -267.551626 
L 487.362314 -269.210633 
L 488.527696 -270.86856 
L 489.693078 -272.525283 
L 490.858461 -274.180674 
L 492.023843 -275.834606 
L 493.189226 -277.486955 
L 494.354608 -279.137593 
L 495.519991 -280.786394 
L 496.685373 -282.433233 
L 497.850756 -284.077983 
L 499.016138 -285.72052 
L 500.181521 -287.360717 
L 501.346903 -288.99845 
L 502.512286 -290.633593 
L 503.677668 -292.266021 
L 504.843051 -293.895611 
L 506.008433 -295.522237 
L 507.173816 -297.145775 
L 508.339198 -298.766101 
L 509.504581 -300.383091 
L 510.669963 -301.996623 
L 511.835346 -303.606572 
L 513.000728 -305.212816 
L 514.16611 -306.815232 
L 515.331493 -308.413698 
L 516.496875 -310.008092 
L 517.662258 -311.598292 
L 518.82764 -313.184176 
L 519.993023 -314.765624 
L 521.158405 -316.342514 
L 522.323788 -317.914726 
L 523.48917 -319.482141 
L 524.654553 -321.044638 
L 525.819935 -322.602098 
L 526.985318 -324.154402 
L 528.1507 -325.701432 
L 529.316083 -327.243069 
L 530.481465 -328.779197 
L 531.646848 -330.309696 
L 532.81223 -331.834452 
L 533.977613 -333.353346 
L 535.142995 -334.866264 
L 536.308378 -336.373089 
L 537.47376 -337.873707 
L 538.639142 -339.368002 
L 539.804525 -340.855862 
L 540.969907 -342.337172 
L 542.13529 -343.811819 
L 543.300672 -345.27969 
L 544.466055 -346.740674 
L 545.631437 -348.194659 
L 546.79682 -349.641533 
L 547.962202 -351.081187 
L 549.127585 -352.51351 
L 550.292967 -353.938393 
L 551.45835 -355.355727 
L 552.623732 -356.765404 
L 553.789115 -358.167317 
L 554.954497 -359.561357 
L 556.11988 -360.94742 
L 557.285262 -362.325398 
L 558.450645 -363.695187 
L 559.616027 -365.056682 
L 560.78141 -366.40978 
L 561.946792 -367.754376 
L 563.112174 -369.090368 
L 564.277557 -370.417654 
L 565.442939 -371.736133 
L 566.608322 -373.045704 
L 567.773704 -374.346267 
L 568.939087 -375.637722 
L 570.104469 -376.919972 
L 571.269852 -378.192918 
L 572.435234 -379.456463 
L 573.600617 -380.71051 
L 574.765999 -381.954964 
L 575.931382 -383.18973 
L 577.096764 -384.414713 
L 578.262147 -385.62982 
L 579.427529 -386.834958 
L 580.592912 -388.030034 
L 581.758294 -389.214959 
L 582.923677 -390.389641 
L 584.089059 -391.55399 
L 585.254441 -392.707918 
L 586.419824 -393.851337 
L 587.585206 -394.984158 
L 588.750589 -396.106297 
L 589.915971 -397.217666 
L 591.081354 -398.318181 
L 592.246736 -399.407759 
L 593.412119 -400.486315 
L 594.577501 -401.553768 
L 595.742884 -402.610036 
L 596.908266 -403.655038 
L 598.073649 -404.688695 
L 599.239031 -405.710927 
L 600.404414 -406.721657 
L 601.569796 -407.720807 
L 602.735179 -408.708301 
L 603.900561 -409.684064 
L 605.065944 -410.64802 
L 606.231326 -411.600098 
L 607.396709 -412.540223 
L 608.562091 -413.468324 
L 609.727473 -414.38433 
L 610.892856 -415.288172 
L 612.058238 -416.179779 
L 613.223621 -417.059085 
L 614.389003 -417.926021 
L 615.554386 -418.780522 
L 616.719768 -419.622523 
L 617.885151 -420.451959 
L 619.050533 -421.268766 
L 620.215916 -422.072883 
L 621.381298 -422.864248 
L 622.546681 -423.642801 
L 623.712063 -424.408481 
L 624.877446 -425.161232 
L 626.042828 -425.900994 
L 627.208211 -426.627712 
L 628.373593 -427.341331 
L 629.538976 -428.041795 
L 630.704358 -428.729051 
L 631.869741 -429.403047 
L 633.035123 -430.063731 
L 634.200505 -430.711054 
L 635.365888 -431.344964 
L 636.53127 -431.965414 
L 637.696653 -432.572357 
L 638.862035 -433.165746 
L 640.027418 -433.745536 
L 641.1928 -434.311683 
L 642.358183 -434.864143 
L 643.523565 -435.402874 
L 644.688948 -435.927836 
L 645.85433 -436.438987 
L 647.019713 -436.936289 
L 648.185095 -437.419704 
L 649.350478 -437.889196 
L 650.51586 -438.344727 
L 651.681243 -438.786264 
L 652.846625 -439.213773 
L 654.012008 -439.62722 
L 655.17739 -440.026575 
L 656.342773 -440.411807 
L 657.508155 -440.782887 
L 658.673537 -441.139786 
L 659.83892 -441.482476 
L 661.004302 -441.810933 
L 662.169685 -442.12513 
L 663.335067 -442.425044 
L 664.50045 -442.710652 
L 665.665832 -442.981931 
L 666.831215 -443.238863 
L 667.996597 -443.481425 
L 669.16198 -443.709601 
L 670.327362 -443.923373 
L 671.492745 -444.122724 
L 672.658127 -444.307639 
L 673.82351 -444.478104 
L 674.988892 -444.634106 
L 676.154275 -444.775633 
L 677.319657 -444.902675 
L 678.48504 -445.015221 
L 679.650422 -445.113263 
L 680.815805 -445.196794 
L 681.981187 -445.265807 
L 683.146569 -445.320297 
L 684.311952 -445.360259 
L 685.477334 -445.385691 
L 686.642717 -445.396591 
L 687.808099 -445.392958 
L 688.973482 -445.374791 
L 690.138864 -445.342094 
L 691.304247 -445.294867 
L 692.469629 -445.233115 
L 693.635012 -445.156843 
L 694.800394 -445.066056 
L 695.965777 -444.96076 
L 697.131159 -444.840965 
L 698.296542 -444.70668 
L 699.461924 -444.557914 
L 700.627307 -444.394678 
L 701.792689 -444.216986 
L 702.958072 -444.024852 
L 704.123454 -443.818288 
L 705.288836 -443.597313 
L 706.454219 -443.361941 
L 707.619601 -443.112192 
L 708.784984 -442.848084 
L 709.950366 -442.569638 
L 711.115749 -442.276874 
L 712.281131 -441.969815 
L 713.446514 -441.648485 
L 714.611896 -441.312909 
L 715.777279 -440.96311 
L 716.942661 -440.599118 
L 718.108044 -440.220958 
L 719.273426 -439.828661 
L 720.438809 -439.422256 
L 721.604191 -439.001774 
L 722.769574 -438.567247 
L 723.934956 -438.118709 
L 725.100339 -437.656193 
L 726.265721 -437.179735 
L 727.431104 -436.689372 
L 728.596486 -436.18514 
L 729.761868 -435.667079 
L 730.927251 -435.135227 
L 732.092633 -434.589627 
L 733.258016 -434.030318 
L 734.423398 -433.457344 
L 735.588781 -432.870749 
L 736.754163 -432.270577 
L 737.919546 -431.656875 
L 739.084928 -431.029688 
L 740.250311 -430.389066 
L 741.415693 -429.735057 
L 742.581076 -429.06771 
L 743.746458 -428.387077 
L 744.911841 -427.693211 
L 746.077223 -426.986163 
L 747.242606 -426.265987 
L 748.407988 -425.53274 
L 749.573371 -424.786476 
L 750.738753 -424.027254 
L 751.904136 -423.25513 
L 753.069518 -422.470163 
L 754.2349 -421.672415 
L 755.400283 -420.861945 
L 756.565665 -420.038815 
L 757.731048 -419.203089 
L 758.89643 -418.35483 
L 760.061813 -417.494103 
L 761.227195 -416.620974 
L 762.392578 -415.735509 
L 763.55796 -414.837776 
L 764.723343 -413.927843 
L 765.888725 -413.005781 
L 767.054108 -412.071659 
L 768.21949 -411.125549 
L 769.384873 -410.167522 
L 770.550255 -409.197653 
L 771.715638 -408.216016 
L 772.88102 -407.222684 
L 774.046403 -406.217735 
L 775.211785 -405.201244 
L 776.377168 -404.17329 
L 777.54255 -403.13395 
L 778.707932 -402.083305 
L 779.873315 -401.021435 
L 781.038697 -399.94842 
L 782.20408 -398.864343 
L 783.369462 -397.769286 
L 784.534845 -396.663333 
L 785.700227 -395.546568 
L 786.86561 -394.419078 
L 788.030992 -393.280947 
L 789.196375 -392.132262 
L 790.361757 -390.973113 
L 791.52714 -389.803586 
L 792.692522 -388.623771 
L 793.857905 -387.433759 
L 795.023287 -386.233641 
L 796.18867 -385.023507 
L 797.354052 -383.80345 
L 798.519435 -382.573564 
L 799.684817 -381.333942 
L 800.850199 -380.08468 
L 802.015582 -378.825872 
L 803.180964 -377.557614 
L 804.346347 -376.280004 
L 805.511729 -374.993139 
L 806.677112 -373.697118 
L 807.842494 -372.392038 
L 809.007877 -371.078001 
L 810.173259 -369.755105 
L 811.338642 -368.423454 
L 812.504024 -367.083147 
L 813.669407 -365.734287 
L 814.834789 -364.376978 
L 816.000172 -363.011323 
L 817.165554 -361.637426 
L 818.330937 -360.255393 
L 819.496319 -358.865328 
L 820.661702 -357.467338 
L 821.827084 -356.06153 
L 822.992467 -354.64801 
L 824.157849 -353.226888 
L 825.323231 -351.798271 
L 826.488614 -350.362269 
L 827.653996 -348.918991 
L 828.819379 -347.468548 
L 829.984761 -346.01105 
L 831.150144 -344.546608 
L 832.315526 -343.075335 
L 833.480909 -341.597343 
L 834.646291 -340.112744 
L 835.811674 -338.621652 
L 836.977056 -337.124181 
L 838.142439 -335.620445 
L 839.307821 -334.110559 
L 840.473204 -332.594639 
L 841.638586 -331.072799 
L 842.803969 -329.545157 
L 843.969351 -328.011829 
L 845.134734 -326.472932 
L 846.300116 -324.928584 
L 847.465499 -323.378902 
L 848.630881 -321.824005 
L 849.796263 -320.264011 
L 850.961646 -318.699041 
L 852.127028 -317.129212 
L 853.292411 -315.554646 
L 854.457793 -313.975462 
L 855.623176 -312.391781 
L 856.788558 -310.803724 
L 857.953941 -309.211412 
L 859.119323 -307.614967 
L 860.284706 -306.014511 
L 861.450088 -304.410165 
L 862.615471 -302.802053 
L 863.780853 -301.190297 
L 864.946236 -299.575021 
L 866.111618 -297.956347 
L 867.277001 -296.334399 
L 868.442383 -294.709302 
L 869.607766 -293.081179 
L 870.773148 -291.450154 
L 871.938531 -289.816353 
L 873.103913 -288.179899 
L 874.269295 -286.540919 
L 875.434678 -284.899536 
L 876.60006 -283.255877 
L 877.765443 -281.610067 
L 878.930825 -279.962231 
L 880.096208 -278.312495 
L 881.26159 -276.660987 
L 882.426973 -275.00783 
L 883.592355 -273.353152 
L 884.757738 -271.69708 
L 885.92312 -270.039739 
L 887.088503 -268.381256 
L 888.253885 -266.721758 
L 889.419268 -265.061372 
L 890.58465 -263.400224 
L 891.750033 -261.738441 
L 892.915415 -260.07615 
L 894.080798 -258.413478 
L 895.24618 -256.750553 
L 896.411562 -255.0875 
L 896.411562 -255.0875 
L 896.411562 -255.0875 
L 895.24618 -255.0875 
L 894.080798 -255.0875 
L 892.915415 -255.0875 
L 891.750033 -255.0875 
L 890.58465 -255.0875 
L 889.419268 -255.0875 
L 888.253885 -255.0875 
L 887.088503 -255.0875 
L 885.92312 -255.0875 
L 884.757738 -255.0875 
L 883.592355 -255.0875 
L 882.426973 -255.0875 
L 881.26159 -255.0875 
L 880.096208 -255.0875 
L 878.930825 -255.0875 
L 877.765443 -255.0875 
L 876.60006 -255.0875 
L 875.434678 -255.0875 
L 874.269295 -255.0875 
L 873.103913 -255.0875 
L 871.938531 -255.0875 
L 870.773148 -255.0875 
L 869.607766 -255.0875 
L 868.442383 -255.0875 
L 867.277001 -255.0875 
L 866.111618 -255.0875 
L 864.946236 -255.0875 
L 863.780853 -255.0875 
L 862.615471 -255.0875 
L 861.450088 -255.0875 
L 860.284706 -255.0875 
L 859.119323 -255.0875 
L 857.953941 -255.0875 
L 856.788558 -255.0875 
L 855.623176 -255.0875 
L 854.457793 -255.0875 
L 853.292411 -255.0875 
L 852.127028 -255.0875 
L 850.961646 -255.0875 
L 849.796263 -255.0875 
L 848.630881 -255.0875 
L 847.465499 -255.0875 
L 846.300116 -255.0875 
L 845.134734 -255.0875 
L 843.969351 -255.0875 
L 842.803969 -255.0875 
L 841.638586 -255.0875 
L 840.473204 -255.0875 
L 839.307821 -255.0875 
L 838.142439 -255.0875 
L 836.977056 -255.0875 
L 835.811674 -255.0875 
L 834.646291 -255.0875 
L 833.480909 -255.0875 
L 832.315526 -255.0875 
L 831.150144 -255.0875 
L 829.984761 -255.0875 
L 828.819379 -255.0875 
L 827.653996 -255.0875 
L 826.488614 -255.0875 
L 825.323231 -255.0875 
L 824.157849 -255.0875 
L 822.992467 -255.0875 
L 821.827084 -255.0875 
L 820.661702 -255.0875 
L 819.496319 -255.0875 
L 818.330937 -255.0875 
L 817.165554 -255.0875 
L 816.000172 -255.0875 
L 814.834789 -255.0875 
L 813.669407 -255.0875 
L 812.504024 -255.0875 
L 811.338642 -255.0875 
L 810.173259 -255.0875 
L 809.007877 -255.0875 
L 807.842494 -255.0875 
L 806.677112 -255.0875 
L 805.511729 -255.0875 
L 804.346347 -255.0875 
L 803.180964 -255.0875 
L 802.015582 -255.0875 
L 800.850199 -255.0875 
L 799.684817 -255.0875 
L 798.519435 -255.0875 
L 797.354052 -255.0875 
L 796.18867 -255.0875 
L 795.023287 -255.0875 
L 793.857905 -255.0875 
L 792.692522 -255.0875 
L 791.52714 -255.0875 
L 790.361757 -255.0875 
L 789.196375 -255.0875 
L 788.030992 -255.0875 
L 786.86561 -255.0875 
L 785.700227 -255.0875 
L 784.534845 -255.0875 
L 783.369462 -255.0875 
L 782.20408 -255.0875 
L 781.038697 -255.0875 
L 779.873315 -255.0875 
L 778.707932 -255.0875 
L 777.54255 -255.0875 
L 776.377168 -255.0875 
L 775.211785 -255.0875 
L 774.046403 -255.0875 
L 772.88102 -255.0875 
L 771.715638 -255.0875 
L 770.550255 -255.0875 
L 769.384873 -255.0875 
L 768.21949 -255.0875 
L 767.054108 -255.0875 
L 765.888725 -255.0875 
L 764.723343 -255.0875 
L 763.55796 -255.0875 
L 762.392578 -255.0875 
L 761.227195 -255.0875 
L 760.061813 -255.0875 
L 758.89643 -255.0875 
L 757.731048 -255.0875 
L 756.565665 -255.0875 
L 755.400283 -255.0875 
L 754.2349 -255.0875 
L 753.069518 -255.0875 
L 751.904136 -255.0875 
L 750.738753 -255.0875 
L 749.573371 -255.0875 
L 748.407988 -255.0875 
L 747.242606 -255.0875 
L 746.077223 -255.0875 
L 744.911841 -255.0875 
L 743.746458 -255.0875 
L 742.581076 -255.0875 
L 741.415693 -255.0875 
L 740.250311 -255.0875 
L 739.084928 -255.0875 
L 737.919546 -255.0875 
L 736.754163 -255.0875 
L 735.588781 -255.0875 
L 734.423398 -255.0875 
L 733.258016 -255.0875 
L 732.092633 -255.0875 
L 730.927251 -255.0875 
L 729.761868 -255.0875 
L 728.596486 -255.0875 
L 727.431104 -255.0875 
L 726.265721 -255.0875 
L 725.100339 -255.0875 
L 723.934956 -255.0875 
L 722.769574 -255.0875 
L 721.604191 -255.0875 
L 720.438809 -255.0875 
L 719.273426 -255.0875 
L 718.108044 -255.0875 
L 716.942661 -255.0875 
L 715.777279 -255.0875 
L 714.611896 -255.0875 
L 713.446514 -255.0875 
L 712.281131 -255.0875 
L 711.115749 -255.0875 
L 709.950366 -255.0875 
L 708.784984 -255.0875 
L 707.619601 -255.0875 
L 706.454219 -255.0875 
L 705.288836 -255.0875 
L 704.123454 -255.0875 
L 702.958072 -255.0875 
L 701.792689 -255.0875 
L 700.627307 -255.0875 
L 699.461924 -255.0875 
L 698.296542 -255.0875 
L 697.131159 -255.0875 
L 695.965777 -255.0875 
L 694.800394 -255.0875 
L 693.635012 -255.0875 
L 692.469629 -255.0875 
L 691.304247 -255.0875 
L 690.138864 -255.0875 
L 688.973482 -255.0875 
L 687.808099 -255.0875 
L 686.642717 -255.0875 
L 685.477334 -255.0875 
L 684.311952 -255.0875 
L 683.146569 -255.0875 
L 681.981187 -255.0875 
L 680.815805 -255.0875 
L 679.650422 -255.0875 
L 678.48504 -255.0875 
L 677.319657 -255.0875 
L 676.154275 -255.0875 
L 674.988892 -255.0875 
L 673.82351 -255.0875 
L 672.658127 -255.0875 
L 671.492745 -255.0875 
L 670.327362 -255.0875 
L 669.16198 -255.0875 
L 667.996597 -255.0875 
L 666.831215 -255.0875 
L 665.665832 -255.0875 
L 664.50045 -255.0875 
L 663.335067 -255.0875 
L 662.169685 -255.0875 
L 661.004302 -255.0875 
L 659.83892 -255.0875 
L 658.673537 -255.0875 
L 657.508155 -255.0875 
L 656.342773 -255.0875 
L 655.17739 -255.0875 
L 654.012008 -255.0875 
L 652.846625 -255.0875 
L 651.681243 -255.0875 
L 650.51586 -255.0875 
L 649.350478 -255.0875 
L 648.185095 -255.0875 
L 647.019713 -255.0875 
L 645.85433 -255.0875 
L 644.688948 -255.0875 
L 643.523565 -255.0875 
L 642.358183 -255.0875 
L 641.1928 -255.0875 
L 640.027418 -255.0875 
L 638.862035 -255.0875 
L 637.696653 -255.0875 
L 636.53127 -255.0875 
L 635.365888 -255.0875 
L 634.200505 -255.0875 
L 633.035123 -255.0875 
L 631.869741 -255.0875 
L 630.704358 -255.0875 
L 629.538976 -255.0875 
L 628.373593 -255.0875 
L 627.208211 -255.0875 
L 626.042828 -255.0875 
L 624.877446 -255.0875 
L 623.712063 -255.0875 
L 622.546681 -255.0875 
L 621.381298 -255.0875 
L 620.215916 -255.0875 
L 619.050533 -255.0875 
L 617.885151 -255.0875 
L 616.719768 -255.0875 
L 615.554386 -255.0875 
L 614.389003 -255.0875 
L 613.223621 -255.0875 
L 612.058238 -255.0875 
L 610.892856 -255.0875 
L 609.727473 -255.0875 
L 608.562091 -255.0875 
L 607.396709 -255.0875 
L 606.231326 -255.0875 
L 605.065944 -255.0875 
L 603.900561 -255.0875 
L 602.735179 -255.0875 
L 601.569796 -255.0875 
L 600.404414 -255.0875 
L 599.239031 -255.0875 
L 598.073649 -255.0875 
L 596.908266 -255.0875 
L 595.742884 -255.0875 
L 594.577501 -255.0875 
L 593.412119 -255.0875 
L 592.246736 -255.0875 
L 591.081354 -255.0875 
L 589.915971 -255.0875 
L 588.750589 -255.0875 
L 587.585206 -255.0875 
L 586.419824 -255.0875 
L 585.254441 -255.0875 
L 584.089059 -255.0875 
L 582.923677 -255.0875 
L 581.758294 -255.0875 
L 580.592912 -255.0875 
L 579.427529 -255.0875 
L 578.262147 -255.0875 
L 577.096764 -255.0875 
L 575.931382 -255.0875 
L 574.765999 -255.0875 
L 573.600617 -255.0875 
L 572.435234 -255.0875 
L 571.269852 -255.0875 
L 570.104469 -255.0875 
L 568.939087 -255.0875 
L 567.773704 -255.0875 
L 566.608322 -255.0875 
L 565.442939 -255.0875 
L 564.277557 -255.0875 
L 563.112174 -255.0875 
L 561.946792 -255.0875 
L 560.78141 -255.0875 
L 559.616027 -255.0875 
L 558.450645 -255.0875 
L 557.285262 -255.0875 
L 556.11988 -255.0875 
L 554.954497 -255.0875 
L 553.789115 -255.0875 
L 552.623732 -255.0875 
L 551.45835 -255.0875 
L 550.292967 -255.0875 
L 549.127585 -255.0875 
L 547.962202 -255.0875 
L 546.79682 -255.0875 
L 545.631437 -255.0875 
L 544.466055 -255.0875 
L 543.300672 -255.0875 
L 542.13529 -255.0875 
L 540.969907 -255.0875 
L 539.804525 -255.0875 
L 538.639142 -255.0875 
L 537.47376 -255.0875 
L 536.308378 -255.0875 
L 535.142995 -255.0875 
L 533.977613 -255.0875 
L 532.81223 -255.0875 
L 531.646848 -255.0875 
L 530.481465 -255.0875 
L 529.316083 -255.0875 
L 528.1507 -255.0875 
L 526.985318 -255.0875 
L 525.819935 -255.0875 
L 524.654553 -255.0875 
L 523.48917 -255.0875 
L 522.323788 -255.0875 
L 521.158405 -255.0875 
L 519.993023 -255.0875 
L 518.82764 -255.0875 
L 517.662258 -255.0875 
L 516.496875 -255.0875 
L 515.331493 -255.0875 
L 514.16611 -255.0875 
L 513.000728 -255.0875 
L 511.835346 -255.0875 
L 510.669963 -255.0875 
L 509.504581 -255.0875 
L 508.339198 -255.0875 
L 507.173816 -255.0875 
L 506.008433 -255.0875 
L 504.843051 -255.0875 
L 503.677668 -255.0875 
L 502.512286 -255.0875 
L 501.346903 -255.0875 
L 500.181521 -255.0875 
L 499.016138 -255.0875 
L 497.850756 -255.0875 
L 496.685373 -255.0875 
L 495.519991 -255.0875 
L 494.354608 -255.0875 
L 493.189226 -255.0875 
L 492.023843 -255.0875 
L 490.858461 -255.0875 
L 489.693078 -255.0875 
L 488.527696 -255.0875 
L 487.362314 -255.0875 
L 486.196931 -255.0875 
L 485.031549 -255.0875 
L 483.866166 -255.0875 
L 482.700784 -255.0875 
L 481.535401 -255.0875 
L 480.370019 -255.0875 
L 479.204636 -255.0875 
L 478.039254 -255.0875 
L 476.873871 -255.0875 
L 475.708489 -255.0875 
L 474.543106 -255.0875 
L 473.377724 -255.0875 
L 472.212341 -255.0875 
L 471.046959 -255.0875 
L 469.881576 -255.0875 
L 468.716194 -255.0875 
L 467.550811 -255.0875 
L 466.385429 -255.0875 
L 465.220047 -255.0875 
L 464.054664 -255.0875 
L 462.889282 -255.0875 
L 461.723899 -255.0875 
L 460.558517 -255.0875 
L 459.393134 -255.0875 
L 458.227752 -255.0875 
L 457.062369 -255.0875 
L 455.896987 -255.0875 
L 454.731604 -255.0875 
L 453.566222 -255.0875 
L 452.400839 -255.0875 
L 451.235457 -255.0875 
L 450.070074 -255.0875 
L 448.904692 -255.0875 
L 447.739309 -255.0875 
L 446.573927 -255.0875 
L 445.408544 -255.0875 
L 444.243162 -255.0875 
L 443.077779 -255.0875 
L 441.912397 -255.0875 
L 440.747015 -255.0875 
L 439.581632 -255.0875 
L 438.41625 -255.0875 
L 437.250867 -255.0875 
L 436.085485 -255.0875 
L 434.920102 -255.0875 
L 433.75472 -255.0875 
L 432.589337 -255.0875 
L 431.423955 -255.0875 
L 430.258572 -255.0875 
L 429.09319 -255.0875 
L 427.927807 -255.0875 
L 426.762425 -255.0875 
L 425.597042 -255.0875 
L 424.43166 -255.0875 
L 423.266277 -255.0875 
L 422.100895 -255.0875 
L 420.935512 -255.0875 
L 419.77013 -255.0875 
L 418.604747 -255.0875 
L 417.439365 -255.0875 
L 416.273983 -255.0875 
L 415.1086 -255.0875 
L 413.943218 -255.0875 
L 412.777835 -255.0875 
L 411.612453 -255.0875 
L 410.44707 -255.0875 
L 409.281688 -255.0875 
L 408.116305 -255.0875 
L 406.950923 -255.0875 
L 405.78554 -255.0875 
L 404.620158 -255.0875 
L 403.454775 -255.0875 
L 402.289393 -255.0875 
L 401.12401 -255.0875 
L 399.958628 -255.0875 
L 398.793245 -255.0875 
L 397.627863 -255.0875 
L 396.46248 -255.0875 
L 395.297098 -255.0875 
L 394.131715 -255.0875 
L 392.966333 -255.0875 
L 391.800951 -255.0875 
L 390.635568 -255.0875 
L 389.470186 -255.0875 
L 388.304803 -255.0875 
L 387.139421 -255.0875 
L 385.974038 -255.0875 
L 384.808656 -255.0875 
L 383.643273 -255.0875 
L 382.477891 -255.0875 
L 381.312508 -255.0875 
L 380.147126 -255.0875 
L 378.981743 -255.0875 
L 377.816361 -255.0875 
L 376.650978 -255.0875 
L 375.485596 -255.0875 
L 374.320213 -255.0875 
L 373.154831 -255.0875 
L 371.989448 -255.0875 
L 370.824066 -255.0875 
L 369.658684 -255.0875 
L 368.493301 -255.0875 
L 367.327919 -255.0875 
L 366.162536 -255.0875 
L 364.997154 -255.0875 
L 363.831771 -255.0875 
L 362.666389 -255.0875 
L 361.501006 -255.0875 
L 360.335624 -255.0875 
L 359.170241 -255.0875 
L 358.004859 -255.0875 
L 356.839476 -255.0875 
L 355.674094 -255.0875 
L 354.508711 -255.0875 
L 353.343329 -255.0875 
L 352.177946 -255.0875 
L 351.012564 -255.0875 
L 349.847181 -255.0875 
L 348.681799 -255.0875 
L 347.516416 -255.0875 
L 346.351034 -255.0875 
L 345.185652 -255.0875 
L 344.020269 -255.0875 
L 342.854887 -255.0875 
L 341.689504 -255.0875 
L 340.524122 -255.0875 
L 339.358739 -255.0875 
L 338.193357 -255.0875 
L 337.027974 -255.0875 
L 335.862592 -255.0875 
L 334.697209 -255.0875 
L 333.531827 -255.0875 
L 332.366444 -255.0875 
L 331.201062 -255.0875 
L 330.035679 -255.0875 
L 328.870297 -255.0875 
L 327.704914 -255.0875 
L 326.539532 -255.0875 
L 325.374149 -255.0875 
L 324.208767 -255.0875 
L 323.043384 -255.0875 
L 321.878002 -255.0875 
L 320.71262 -255.0875 
L 319.547237 -255.0875 
L 318.381855 -255.0875 
L 317.216472 -255.0875 
L 316.05109 -255.0875 
L 314.885707 -255.0875 
L 313.720325 -255.0875 
L 312.554942 -255.0875 
L 311.38956 -255.0875 
L 310.224177 -255.0875 
L 309.058795 -255.0875 
L 307.893412 -255.0875 
L 306.72803 -255.0875 
L 305.562647 -255.0875 
L 304.397265 -255.0875 
L 303.231882 -255.0875 
L 302.0665 -255.0875 
L 300.901117 -255.0875 
L 299.735735 -255.0875 
L 298.570352 -255.0875 
L 297.40497 -255.0875 
L 296.239588 -255.0875 
L 295.074205 -255.0875 
L 293.908823 -255.0875 
L 292.74344 -255.0875 
L 291.578058 -255.0875 
L 290.412675 -255.0875 
L 289.247293 -255.0875 
L 288.08191 -255.0875 
L 286.916528 -255.0875 
L 285.751145 -255.0875 
L 284.585763 -255.0875 
L 283.42038 -255.0875 
L 282.254998 -255.0875 
L 281.089615 -255.0875 
L 279.924233 -255.0875 
L 278.75885 -255.0875 
L 277.593468 -255.0875 
L 276.428085 -255.0875 
L 275.262703 -255.0875 
L 274.09732 -255.0875 
L 272.931938 -255.0875 
L 271.766556 -255.0875 
L 270.601173 -255.0875 
L 269.435791 -255.0875 
L 268.270408 -255.0875 
L 267.105026 -255.0875 
L 265.939643 -255.0875 
L 264.774261 -255.0875 
L 263.608878 -255.0875 
L 262.443496 -255.0875 
L 261.278113 -255.0875 
L 260.112731 -255.0875 
L 258.947348 -255.0875 
L 257.781966 -255.0875 
L 256.616583 -255.0875 
L 255.451201 -255.0875 
L 254.285818 -255.0875 
L 253.120436 -255.0875 
L 251.955053 -255.0875 
L 250.789671 -255.0875 
L 249.624289 -255.0875 
L 248.458906 -255.0875 
L 247.293524 -255.0875 
L 246.128141 -255.0875 
L 244.962759 -255.0875 
L 243.797376 -255.0875 
L 242.631994 -255.0875 
L 241.466611 -255.0875 
L 240.301229 -255.0875 
L 239.135846 -255.0875 
L 237.970464 -255.0875 
L 236.805081 -255.0875 
L 235.639699 -255.0875 
L 234.474316 -255.0875 
L 233.308934 -255.0875 
L 232.143551 -255.0875 
L 230.978169 -255.0875 
L 229.812786 -255.0875 
L 228.647404 -255.0875 
L 227.482021 -255.0875 
L 226.316639 -255.0875 
L 225.151257 -255.0875 
L 223.985874 -255.0875 
L 222.820492 -255.0875 
L 221.655109 -255.0875 
L 220.489727 -255.0875 
L 219.324344 -255.0875 
L 218.158962 -255.0875 
L 216.993579 -255.0875 
L 215.828197 -255.0875 
L 214.662814 -255.0875 
L 213.497432 -255.0875 
L 212.332049 -255.0875 
L 211.166667 -255.0875 
L 210.001284 -255.0875 
L 208.835902 -255.0875 
L 207.670519 -255.0875 
L 206.505137 -255.0875 
L 205.339754 -255.0875 
L 204.174372 -255.0875 
L 203.008989 -255.0875 
L 201.843607 -255.0875 
L 200.678225 -255.0875 
L 199.512842 -255.0875 
L 198.34746 -255.0875 
L 197.182077 -255.0875 
L 196.016695 -255.0875 
L 194.851312 -255.0875 
L 193.68593 -255.0875 
L 192.520547 -255.0875 
L 191.355165 -255.0875 
L 190.189782 -255.0875 
L 189.0244 -255.0875 
L 187.859017 -255.0875 
L 186.693635 -255.0875 
L 185.528252 -255.0875 
L 184.36287 -255.0875 
L 183.197487 -255.0875 
L 182.032105 -255.0875 
L 180.866722 -255.0875 
L 179.70134 -255.0875 
L 178.535957 -255.0875 
L 177.370575 -255.0875 
L 176.205193 -255.0875 
L 175.03981 -255.0875 
L 173.874428 -255.0875 
L 172.709045 -255.0875 
L 171.543663 -255.0875 
L 170.37828 -255.0875 
L 169.212898 -255.0875 
L 168.047515 -255.0875 
L 166.882133 -255.0875 
L 165.71675 -255.0875 
L 164.551368 -255.0875 
L 163.385985 -255.0875 
L 162.220603 -255.0875 
L 161.05522 -255.0875 
L 159.889838 -255.0875 
L 158.724455 -255.0875 
L 157.559073 -255.0875 
L 156.39369 -255.0875 
L 155.228308 -255.0875 
L 154.062926 -255.0875 
L 152.897543 -255.0875 
L 151.732161 -255.0875 
L 150.566778 -255.0875 
L 149.401396 -255.0875 
L 148.236013 -255.0875 
L 147.070631 -255.0875 
L 145.905248 -255.0875 
L 144.739866 -255.0875 
L 143.574483 -255.0875 
L 142.409101 -255.0875 
L 141.243718 -255.0875 
L 140.078336 -255.0875 
L 138.912953 -255.0875 
L 137.747571 -255.0875 
L 136.582188 -255.0875 
L 135.416806 -255.0875 
L 134.251423 -255.0875 
L 133.086041 -255.0875 
L 131.920658 -255.0875 
L 130.755276 -255.0875 
L 129.589894 -255.0875 
L 128.424511 -255.0875 
L 127.259129 -255.0875 
L 126.093746 -255.0875 
L 124.928364 -255.0875 
L 123.762981 -255.0875 
L 122.597599 -255.0875 
L 121.432216 -255.0875 
L 120.266834 -255.0875 
L 119.101451 -255.0875 
L 117.936069 -255.0875 
L 116.770686 -255.0875 
L 115.605304 -255.0875 
L 114.439921 -255.0875 
L 113.274539 -255.0875 
L 112.109156 -255.0875 
L 110.943774 -255.0875 
L 109.778391 -255.0875 
L 108.613009 -255.0875 
L 107.447626 -255.0875 
L 106.282244 -255.0875 
L 105.116862 -255.0875 
L 103.951479 -255.0875 
L 102.786097 -255.0875 
L 101.620714 -255.0875 
L 100.455332 -255.0875 
L 99.289949 -255.0875 
L 98.124567 -255.0875 
L 96.959184 -255.0875 
L 95.793802 -255.0875 
L 94.628419 -255.0875 
L 93.463037 -255.0875 
L 92.297654 -255.0875 
L 91.132272 -255.0875 
L 89.966889 -255.0875 
L 88.801507 -255.0875 
L 87.636124 -255.0875 
L 86.470742 -255.0875 
L 85.305359 -255.0875 
L 84.139977 -255.0875 
L 82.974594 -255.0875 
L 81.809212 -255.0875 
L 80.64383 -255.0875 
L 79.478447 -255.0875 
L 78.313065 -255.0875 
L 77.147682 -255.0875 
L 75.9823 -255.0875 
L 74.816917 -255.0875 
L 73.651535 -255.0875 
L 72.486152 -255.0875 
L 71.32077 -255.0875 
L 70.155387 -255.0875 
L 68.990005 -255.0875 
L 67.824622 -255.0875 
L 66.65924 -255.0875 
L 65.493857 -255.0875 
L 64.328475 -255.0875 
L 63.163092 -255.0875 
L 61.99771 -255.0875 
L 60.832327 -255.0875 
L 59.666945 -255.0875 
L 58.501563 -255.0875 
z
" style="stroke: #a3583c; stroke-opacity: 0.08"/>
    </defs>
    <g clip-path="url(#p4ff8fabeb5)">
     <use xlink:href="#mbdf7ecfef1" x="0" y="499.624687" style="fill: #a3583c; fill-opacity: 0.08; stroke: #a3583c; stroke-opacity: 0.08"/>
    </g>
   </g>
   <g id="matplotlib.axis_1">
    <g id="xtick_1">
     <g id="line2d_1">
      <path d="M 58.501563 453.877187 
L 58.501563 35.197187 
" clip-path="url(#p4ff8fabeb5)" style="fill: none; stroke: #d9cbb6; stroke-opacity: 0.45; stroke-width: 0.8; stroke-linecap: square"/>
     </g>
     <g id="line2d_2">
      <defs>
       <path id="m108e9cddb5" d="M 0 0 
L 0 3.5 
" style="stroke: #756a5d; stroke-width: 0.8"/>
      </defs>
      <g>
       <use xlink:href="#m108e9cddb5" x="58.501563" y="453.877187" style="fill: #756a5d; stroke: #756a5d; stroke-width: 0.8"/>
      </g>
     </g>
     <g id="text_1">
      <text style="font-size: 11px; font-family: 'DejaVu Serif'; text-anchor: middle; fill: #756a5d" x="58.501563" y="469.235469" transform="rotate(-0 58.501563 469.235469)">0.0</text>
     </g>
    </g>
    <g id="xtick_2">
     <g id="line2d_3">
      <path d="M 226.083562 453.877187 
L 226.083562 35.197187 
" clip-path="url(#p4ff8fabeb5)" style="fill: none; stroke: #d9cbb6; stroke-opacity: 0.45; stroke-width: 0.8; stroke-linecap: square"/>
     </g>
     <g id="line2d_4">
      <g>
       <use xlink:href="#m108e9cddb5" x="226.083562" y="453.877187" style="fill: #756a5d; stroke: #756a5d; stroke-width: 0.8"/>
      </g>
     </g>
     <g id="text_2">
      <text style="font-size: 11px; font-family: 'DejaVu Serif'; text-anchor: middle; fill: #756a5d" x="226.083562" y="469.235469" transform="rotate(-0 226.083562 469.235469)">0.2</text>
     </g>
    </g>
    <g id="xtick_3">
     <g id="line2d_5">
      <path d="M 393.665562 453.877187 
L 393.665562 35.197187 
" clip-path="url(#p4ff8fabeb5)" style="fill: none; stroke: #d9cbb6; stroke-opacity: 0.45; stroke-width: 0.8; stroke-linecap: square"/>
     </g>
     <g id="line2d_6">
      <g>
       <use xlink:href="#m108e9cddb5" x="393.665562" y="453.877187" style="fill: #756a5d; stroke: #756a5d; stroke-width: 0.8"/>
      </g>
     </g>
     <g id="text_3">
      <text style="font-size: 11px; font-family: 'DejaVu Serif'; text-anchor: middle; fill: #756a5d" x="393.665562" y="469.235469" transform="rotate(-0 393.665562 469.235469)">0.4</text>
     </g>
    </g>
    <g id="xtick_4">
     <g id="line2d_7">
      <path d="M 561.247563 453.877187 
L 561.247563 35.197187 
" clip-path="url(#p4ff8fabeb5)" style="fill: none; stroke: #d9cbb6; stroke-opacity: 0.45; stroke-width: 0.8; stroke-linecap: square"/>
     </g>
     <g id="line2d_8">
      <g>
       <use xlink:href="#m108e9cddb5" x="561.247563" y="453.877187" style="fill: #756a5d; stroke: #756a5d; stroke-width: 0.8"/>
      </g>
     </g>
     <g id="text_4">
      <text style="font-size: 11px; font-family: 'DejaVu Serif'; text-anchor: middle; fill: #756a5d" x="561.247563" y="469.235469" transform="rotate(-0 561.247563 469.235469)">0.6</text>
     </g>
    </g>
    <g id="xtick_5">
     <g id="line2d_9">
      <path d="M 728.829562 453.877187 
L 728.829562 35.197187 
" clip-path="url(#p4ff8fabeb5)" style="fill: none; stroke: #d9cbb6; stroke-opacity: 0.45; stroke-width: 0.8; stroke-linecap: square"/>
     </g>
     <g id="line2d_10">
      <g>
       <use xlink:href="#m108e9cddb5" x="728.829562" y="453.877187" style="fill: #756a5d; stroke: #756a5d; stroke-width: 0.8"/>
      </g>
     </g>
     <g id="text_5">
      <text style="font-size: 11px; font-family: 'DejaVu Serif'; text-anchor: middle; fill: #756a5d" x="728.829562" y="469.235469" transform="rotate(-0 728.829562 469.235469)">0.8</text>
     </g>
    </g>
    <g id="xtick_6">
     <g id="line2d_11">
      <path d="M 896.411562 453.877187 
L 896.411562 35.197187 
" clip-path="url(#p4ff8fabeb5)" style="fill: none; stroke: #d9cbb6; stroke-opacity: 0.45; stroke-width: 0.8; stroke-linecap: square"/>
     </g>
     <g id="line2d_12">
      <g>
       <use xlink:href="#m108e9cddb5" x="896.411562" y="453.877187" style="fill: #756a5d; stroke: #756a5d; stroke-width: 0.8"/>
      </g>
     </g>
     <g id="text_6">
      <text style="font-size: 11px; font-family: 'DejaVu Serif'; text-anchor: middle; fill: #756a5d" x="896.411562" y="469.235469" transform="rotate(-0 896.411562 469.235469)">1.0</text>
     </g>
    </g>
    <g id="text_7">
     <text style="font-size: 13px; font-family: 'DejaVu Serif'; text-anchor: middle; fill: #1f1b16" x="477.456563" y="485.401094" transform="rotate(-0 477.456563 485.401094)">Orbital phase</text>
    </g>
   </g>
   <g id="matplotlib.axis_2">
    <g id="ytick_1">
     <g id="line2d_13">
      <path d="M 58.501563 442.901422 
L 896.411562 442.901422 
" clip-path="url(#p4ff8fabeb5)" style="fill: none; stroke: #d9cbb6; stroke-opacity: 0.45; stroke-width: 0.8; stroke-linecap: square"/>
     </g>
     <g id="line2d_14">
      <defs>
       <path id="m4b1aa3c079" d="M 0 0 
L -3.5 0 
" style="stroke: #756a5d; stroke-width: 0.8"/>
      </defs>
      <g>
       <use xlink:href="#m4b1aa3c079" x="58.501563" y="442.901422" style="fill: #756a5d; stroke: #756a5d; stroke-width: 0.8"/>
      </g>
     </g>
     <g id="text_8">
      <text style="font-size: 11px; font-family: 'DejaVu Serif'; text-anchor: end; fill: #756a5d" x="51.501563" y="447.080562" transform="rotate(-0 51.501563 447.080562)">−60</text>
     </g>
    </g>
    <g id="ytick_2">
     <g id="line2d_15">
      <path d="M 58.501563 376.78001 
L 896.411562 376.78001 
" clip-path="url(#p4ff8fabeb5)" style="fill: none; stroke: #d9cbb6; stroke-opacity: 0.45; stroke-width: 0.8; stroke-linecap: square"/>
     </g>
     <g id="line2d_16">
      <g>
       <use xlink:href="#m4b1aa3c079" x="58.501563" y="376.78001" style="fill: #756a5d; stroke: #756a5d; stroke-width: 0.8"/>
      </g>
     </g>
     <g id="text_9">
      <text style="font-size: 11px; font-family: 'DejaVu Serif'; text-anchor: end; fill: #756a5d" x="51.501563" y="380.959151" transform="rotate(-0 51.501563 380.959151)">−40</text>
     </g>
    </g>
    <g id="ytick_3">
     <g id="line2d_17">
      <path d="M 58.501563 310.658599 
L 896.411562 310.658599 
" clip-path="url(#p4ff8fabeb5)" style="fill: none; stroke: #d9cbb6; stroke-opacity: 0.45; stroke-width: 0.8; stroke-linecap: square"/>
     </g>
     <g id="line2d_18">
      <g>
       <use xlink:href="#m4b1aa3c079" x="58.501563" y="310.658599" style="fill: #756a5d; stroke: #756a5d; stroke-width: 0.8"/>
      </g>
     </g>
     <g id="text_10">
      <text style="font-size: 11px; font-family: 'DejaVu Serif'; text-anchor: end; fill: #756a5d" x="51.501563" y="314.83774" transform="rotate(-0 51.501563 314.83774)">−20</text>
     </g>
    </g>
    <g id="ytick_4">
     <g id="line2d_19">
      <path d="M 58.501563 244.537187 
L 896.411562 244.537187 
" clip-path="url(#p4ff8fabeb5)" style="fill: none; stroke: #d9cbb6; stroke-opacity: 0.45; stroke-width: 0.8; stroke-linecap: square"/>
     </g>
     <g id="line2d_20">
      <g>
       <use xlink:href="#m4b1aa3c079" x="58.501563" y="244.537187" style="fill: #756a5d; stroke: #756a5d; stroke-width: 0.8"/>
      </g>
     </g>
     <g id="text_11">
      <text style="font-size: 11px; font-family: 'DejaVu Serif'; text-anchor: end; fill: #756a5d" x="51.501563" y="248.716328" transform="rotate(-0 51.501563 248.716328)">0</text>
     </g>
    </g>
    <g id="ytick_5">
     <g id="line2d_21">
      <path d="M 58.501563 178.415776 
L 896.411562 178.415776 
" clip-path="url(#p4ff8fabeb5)" style="fill: none; stroke: #d9cbb6; stroke-opacity: 0.45; stroke-width: 0.8; stroke-linecap: square"/>
     </g>
     <g id="line2d_22">
      <g>
       <use xlink:href="#m4b1aa3c079" x="58.501563" y="178.415776" style="fill: #756a5d; stroke: #756a5d; stroke-width: 0.8"/>
      </g>
     </g>
     <g id="text_12">
      <text style="font-size: 11px; font-family: 'DejaVu Serif'; text-anchor: end; fill: #756a5d" x="51.501563" y="182.594917" transform="rotate(-0 51.501563 182.594917)">20</text>
     </g>
    </g>
    <g id="ytick_6">
     <g id="line2d_23">
      <path d="M 58.501563 112.294365 
L 896.411562 112.294365 
" clip-path="url(#p4ff8fabeb5)" style="fill: none; stroke: #d9cbb6; stroke-opacity: 0.45; stroke-width: 0.8; stroke-linecap: square"/>
     </g>
     <g id="line2d_24">
      <g>
       <use xlink:href="#m4b1aa3c079" x="58.501563" y="112.294365" style="fill: #756a5d; stroke: #756a5d; stroke-width: 0.8"/>
      </g>
     </g>
     <g id="text_13">
      <text style="font-size: 11px; font-family: 'DejaVu Serif'; text-anchor: end; fill: #756a5d" x="51.501563" y="116.473505" transform="rotate(-0 51.501563 116.473505)">40</text>
     </g>
    </g>
    <g id="ytick_7">
     <g id="line2d_25">
      <path d="M 58.501563 46.172953 
L 896.411562 46.172953 
" clip-path="url(#p4ff8fabeb5)" style="fill: none; stroke: #d9cbb6; stroke-opacity: 0.45; stroke-width: 0.8; stroke-linecap: square"/>
     </g>
     <g id="line2d_26">
      <g>
       <use xlink:href="#m4b1aa3c079" x="58.501563" y="46.172953" style="fill: #756a5d; stroke: #756a5d; stroke-width: 0.8"/>
      </g>
     </g>
     <g id="text_14">
      <text style="font-size: 11px; font-family: 'DejaVu Serif'; text-anchor: end; fill: #756a5d" x="51.501563" y="50.352094" transform="rotate(-0 51.501563 50.352094)">60</text>
     </g>
    </g>
    <g id="text_15">
     <text style="font-size: 13px; font-family: 'DejaVu Serif'; text-anchor: middle; fill: #1f1b16" x="21.397969" y="244.537187" transform="rotate(-90 21.397969 244.537187)">Stellar radial velocity (m/s)</text>
    </g>
   </g>
   <g id="line2d_27">
    <path d="M 58.501563 244.537187 
L 81.809212 277.629587 
L 94.628419 295.464198 
L 105.116862 309.713699 
L 114.439921 322.044326 
L 123.762981 333.996296 
L 131.920658 344.097698 
L 140.078336 353.826666 
L 147.070631 361.841726 
L 154.062926 369.534367 
L 161.05522 376.883447 
L 168.047515 383.868765 
L 173.874428 389.398107 
L 179.70134 394.650931 
L 185.528252 399.61721 
L 191.355165 404.287463 
L 197.182077 408.652777 
L 203.008989 412.704817 
L 208.835902 416.43585 
L 213.497432 419.184744 
L 218.158962 421.720265 
L 222.820492 424.039314 
L 227.482021 426.139059 
L 232.143551 428.016935 
L 236.805081 429.670646 
L 241.466611 431.098173 
L 246.128141 432.297771 
L 250.789671 433.267976 
L 255.451201 434.007601 
L 260.112731 434.515743 
L 264.774261 434.791781 
L 269.435791 434.835379 
L 274.09732 434.646481 
L 278.75885 434.225321 
L 283.42038 433.572411 
L 288.08191 432.68855 
L 292.74344 431.574818 
L 297.40497 430.232574 
L 302.0665 428.66346 
L 306.72803 426.869392 
L 311.38956 424.852562 
L 316.05109 422.615434 
L 320.71262 420.160741 
L 325.374149 417.491482 
L 330.035679 414.610919 
L 335.862592 410.718454 
L 341.689504 406.508772 
L 347.516416 401.98991 
L 353.343329 397.170494 
L 359.170241 392.059723 
L 364.997154 386.667353 
L 370.824066 381.003678 
L 377.816361 373.8644 
L 384.808656 366.36966 
L 391.800951 358.540055 
L 398.793245 350.397107 
L 406.950923 340.530874 
L 415.1086 330.305549 
L 424.43166 318.228884 
L 433.75472 305.792201 
L 444.243162 291.44631 
L 457.062369 273.527671 
L 475.708489 247.031727 
L 501.346903 210.626238 
L 514.16611 192.809455 
L 524.654553 178.58005 
L 533.977613 166.271342 
L 543.300672 154.344997 
L 551.45835 144.26896 
L 559.616027 134.568005 
L 566.608322 126.578984 
L 573.600617 118.914177 
L 580.592912 111.594653 
L 587.585206 104.640529 
L 593.412119 99.138372 
L 599.239031 93.913761 
L 605.065944 88.976667 
L 610.892856 84.336516 
L 616.719768 80.002165 
L 622.546681 75.981887 
L 628.373593 72.283357 
L 633.035123 69.560956 
L 637.696653 67.05233 
L 642.358183 64.760544 
L 647.019713 62.688398 
L 651.681243 60.838423 
L 656.342773 59.21288 
L 661.004302 57.813755 
L 665.665832 56.642756 
L 670.327362 55.701315 
L 674.988892 54.990582 
L 679.650422 54.511424 
L 684.311952 54.264429 
L 688.973482 54.249896 
L 693.635012 54.467845 
L 698.296542 54.918008 
L 702.958072 55.599836 
L 707.619601 56.512496 
L 712.281131 57.654872 
L 716.942661 59.02557 
L 721.604191 60.622914 
L 726.265721 62.444952 
L 730.927251 64.48946 
L 735.588781 66.753939 
L 740.250311 69.235622 
L 744.911841 71.931477 
L 749.573371 74.838211 
L 755.400283 78.762743 
L 761.227195 83.003714 
L 767.054108 87.553029 
L 772.88102 92.402003 
L 778.707932 97.541382 
L 784.534845 102.961355 
L 790.361757 108.651575 
L 797.354052 115.821237 
L 804.346347 123.344683 
L 811.338642 131.201234 
L 818.330937 139.369295 
L 826.488614 149.262418 
L 834.646291 159.511944 
L 843.969351 171.612858 
L 853.292411 184.070042 
L 863.780853 198.43439 
L 876.60006 216.368811 
L 896.411562 244.537187 
L 896.411562 244.537187 
" clip-path="url(#p4ff8fabeb5)" style="fill: none; stroke: #a3583c; stroke-width: 2.6; stroke-linecap: square"/>
   </g>
   <g id="line2d_28">
    <path d="M 58.501563 244.537187 
L 896.411562 244.537187 
" clip-path="url(#p4ff8fabeb5)" style="fill: none; stroke-dasharray: 5.365,2.32; stroke-dashoffset: 0; stroke: #9b9184; stroke-opacity: 0.65; stroke-width: 1.45"/>
   </g>
   <g id="patch_3">
    <path d="M 58.501563 453.877187 
L 58.501563 35.197188 
" style="fill: none; stroke: #b9a98f; stroke-width: 0.8; stroke-linejoin: miter; stroke-linecap: square"/>
   </g>
   <g id="patch_4">
    <path d="M 896.411562 453.877187 
L 896.411562 35.197188 
" style="fill: none; stroke: #b9a98f; stroke-width: 0.8; stroke-linejoin: miter; stroke-linecap: square"/>
   </g>
   <g id="patch_5">
    <path d="M 58.501563 453.877187 
L 896.411562 453.877187 
" style="fill: none; stroke: #b9a98f; stroke-width: 0.8; stroke-linejoin: miter; stroke-linecap: square"/>
   </g>
   <g id="patch_6">
    <path d="M 58.501563 35.197187 
L 896.411562 35.197187 
" style="fill: none; stroke: #b9a98f; stroke-width: 0.8; stroke-linejoin: miter; stroke-linecap: square"/>
   </g>
   <g id="text_16">
    <g id="patch_7">
     <path d="M 71.070213 72.760563 
L 349.477713 72.760563 
Q 352.557713 72.760563 352.557713 69.680563 
L 352.557713 56.131188 
Q 352.557713 53.051188 349.477713 53.051188 
L 71.070213 53.051188 
Q 67.990213 53.051188 67.990213 56.131188 
L 67.990213 69.680563 
Q 67.990213 72.760563 71.070213 72.760563 
z
" style="fill: #fffaf0; opacity: 0.88"/>
    </g>
    <text style="font-size: 14px; font-family: 'DejaVu Serif'; text-anchor: start; fill: #756a5d" x="71.070213" y="66.769" transform="rotate(-0 71.070213 66.769)">K ≈ 57.6 m s^-1 · P ≈ 4.23 d · e = 0.00</text>
   </g>
   <g id="text_17">
    <text style="font-size: 10.5px; font-family: 'DejaVu Serif'; text-anchor: end; fill: #756a5d" x="888.032462" y="443.170619" transform="rotate(-0 888.032462 443.170619)">single-planet Keplerian model</text>
   </g>
   <g id="text_18">
    <text style="font-weight: 700; font-size: 18px; font-family: 'DejaVu Serif'; text-anchor: start; fill: #1f1b16" x="58.501563" y="25.197187" transform="rotate(-0 58.501563 25.197187)">Keplerian RV model — 51 Pegasi b</text>
   </g>
  </g>
 </g>
 <defs>
  <clipPath id="p4ff8fabeb5">
   <rect x="58.501563" y="35.197187" width="837.91" height="418.68"/>
  </clipPath>
 </defs>
</svg>
