<?xml version="1.0" encoding="utf-8" standalone="no"?>
<!DOCTYPE svg PUBLIC "-//W3C//DTD SVG 1.1//EN"
  "http://www.w3.org/Graphics/SVG/1.1/DTD/svg11.dtd">
<svg xmlns:xlink="http://www.w3.org/1999/xlink" width="916.678281pt" height="499.624687pt" viewBox="0 0 916.678281 499.624687" xmlns="http://www.w3.org/2000/svg" version="1.1">
 <metadata>
  <rdf:RDF xmlns:dc="http://purl.org/dc/elements/1.1/" xmlns:cc="http://creativecommons.org/ns#" xmlns:rdf="http://www.w3.org/1999/02/22-rdf-syntax-ns#">
   <cc:Work>
    <dc:type rdf:resource="http://purl.org/dc/dcmitype/StillImage"/>
    <dc:date>2026-05-11T11:58:00.929294</dc:date>
    <dc:format>image/svg+xml</dc:format>
    <dc:creator>
     <cc:Agent>
      <dc:title>Matplotlib v3.10.9, https://matplotlib.org/</dc:title>
     </cc:Agent>
    </dc:creator>
   </cc:Work>
  </rdf:RDF>
 </metadata>
 <defs>
  <style type="text/css">*{stroke-linejoin: round; stroke-linecap: butt}</style>
 </defs>
 <g id="figure_1">
  <g id="patch_1">
   <path d="M 0 499.624687 
L 916.678281 499.624687 
L 916.678281 0 
L 0 0 
z
" style="fill: #fffaf0"/>
  </g>
  <g id="axes_1">
   <g id="patch_2">
    <path d="M 58.501563 453.877187 
L 896.411562 453.877187 
L 896.411562 35.197187 
L 58.501563 35.197187 
z
" style="fill: #fffaf0"/>
   </g>
   <g id="FillBetweenPolyCollection_1">
    <defs>
     <path id="m582e441f28" d="M 58.501563 -255.0875 
L 58.501563 -255.0875 
L 59.666945 -251.680276 
L 60.832327 -248.274673 
L 61.99771 -244.87231 
L 63.163092 -241.4748 
L 64.328475 -238.08375 
L 65.493857 -234.700754 
L 66.65924 -231.327392 
L 67.824622 -227.965233 
L 68.990005 -224.615823 
L 70.155387 -221.28069 
L 71.32077 -217.961339 
L 72.486152 -214.659248 
L 73.651535 -211.375871 
L 74.816917 -208.11263 
L 75.9823 -204.870916 
L 77.147682 -201.652089 
L 78.313065 -198.457472 
L 79.478447 -195.288352 
L 80.64383 -192.145978 
L 81.809212 -189.031561 
L 82.974594 -185.94627 
L 84.139977 -182.891231 
L 85.305359 -179.867531 
L 86.470742 -176.876209 
L 87.636124 -173.918263 
L 88.801507 -170.994645 
L 89.966889 -168.10626 
L 91.132272 -165.25397 
L 92.297654 -162.438587 
L 93.463037 -159.660881 
L 94.628419 -156.921572 
L 95.793802 -154.221336 
L 96.959184 -151.560803 
L 98.124567 -148.940555 
L 99.289949 -146.36113 
L 100.455332 -143.823022 
L 101.620714 -141.32668 
L 102.786097 -138.872508 
L 103.951479 -136.460869 
L 105.116862 -134.092082 
L 106.282244 -131.766425 
L 107.447626 -129.484136 
L 108.613009 -127.245413 
L 109.778391 -125.050416 
L 110.943774 -122.899268 
L 112.109156 -120.792053 
L 113.274539 -118.728823 
L 114.439921 -116.709594 
L 115.605304 -114.734348 
L 116.770686 -112.803038 
L 117.936069 -110.915585 
L 119.101451 -109.071879 
L 120.266834 -107.271785 
L 121.432216 -105.515138 
L 122.597599 -103.801749 
L 123.762981 -102.131405 
L 124.928364 -100.503867 
L 126.093746 -98.918877 
L 127.259129 -97.376155 
L 128.424511 -95.875398 
L 129.589894 -94.41629 
L 130.755276 -92.998493 
L 131.920658 -91.621654 
L 133.086041 -90.285405 
L 134.251423 -88.989364 
L 135.416806 -87.733133 
L 136.582188 -86.516305 
L 137.747571 -85.33846 
L 138.912953 -84.199167 
L 140.078336 -83.097988 
L 141.243718 -82.034473 
L 142.409101 -81.008166 
L 143.574483 -80.018605 
L 144.739866 -79.065321 
L 145.905248 -78.147837 
L 147.070631 -77.265676 
L 148.236013 -76.418352 
L 149.401396 -75.605381 
L 150.566778 -74.826271 
L 151.732161 -74.080532 
L 152.897543 -73.367671 
L 154.062926 -72.687192 
L 155.228308 -72.038602 
L 156.39369 -71.421406 
L 157.559073 -70.835109 
L 158.724455 -70.279219 
L 159.889838 -69.753244 
L 161.05522 -69.256694 
L 162.220603 -68.78908 
L 163.385985 -68.349917 
L 164.551368 -67.938723 
L 165.71675 -67.555018 
L 166.882133 -67.198325 
L 168.047515 -66.868172 
L 169.212898 -66.56409 
L 170.37828 -66.285614 
L 171.543663 -66.032284 
L 172.709045 -65.803644 
L 173.874428 -65.599243 
L 175.03981 -65.418635 
L 176.205193 -65.261377 
L 177.370575 -65.127033 
L 178.535957 -65.015173 
L 179.70134 -64.925371 
L 180.866722 -64.857205 
L 182.032105 -64.810262 
L 183.197487 -64.784131 
L 184.36287 -64.778409 
L 185.528252 -64.792698 
L 186.693635 -64.826605 
L 187.859017 -64.879745 
L 189.0244 -64.951735 
L 190.189782 -65.0422 
L 191.355165 -65.150772 
L 192.520547 -65.277087 
L 193.68593 -65.420788 
L 194.851312 -65.581521 
L 196.016695 -65.758941 
L 197.182077 -65.952708 
L 198.34746 -66.162486 
L 199.512842 -66.387947 
L 200.678225 -66.628767 
L 201.843607 -66.884628 
L 203.008989 -67.155218 
L 204.174372 -67.440231 
L 205.339754 -67.739364 
L 206.505137 -68.052323 
L 207.670519 -68.378817 
L 208.835902 -68.718559 
L 210.001284 -69.071272 
L 211.166667 -69.43668 
L 212.332049 -69.814512 
L 213.497432 -70.204506 
L 214.662814 -70.606401 
L 215.828197 -71.019943 
L 216.993579 -71.444882 
L 218.158962 -71.880973 
L 219.324344 -72.327977 
L 220.489727 -72.785657 
L 221.655109 -73.253783 
L 222.820492 -73.732129 
L 223.985874 -74.220472 
L 225.151257 -74.718596 
L 226.316639 -75.226287 
L 227.482021 -75.743337 
L 228.647404 -76.26954 
L 229.812786 -76.804697 
L 230.978169 -77.348611 
L 232.143551 -77.901088 
L 233.308934 -78.461942 
L 234.474316 -79.030987 
L 235.639699 -79.608042 
L 236.805081 -80.192929 
L 237.970464 -80.785476 
L 239.135846 -81.385513 
L 240.301229 -81.992872 
L 241.466611 -82.607391 
L 242.631994 -83.22891 
L 243.797376 -83.857273 
L 244.962759 -84.492327 
L 246.128141 -85.133922 
L 247.293524 -85.781912 
L 248.458906 -86.436151 
L 249.624289 -87.096501 
L 250.789671 -87.762824 
L 251.955053 -88.434984 
L 253.120436 -89.11285 
L 254.285818 -89.796293 
L 255.451201 -90.485186 
L 256.616583 -91.179406 
L 257.781966 -91.878831 
L 258.947348 -92.583344 
L 260.112731 -93.292829 
L 261.278113 -94.007171 
L 262.443496 -94.72626 
L 263.608878 -95.449988 
L 264.774261 -96.178247 
L 265.939643 -96.910935 
L 267.105026 -97.647949 
L 268.270408 -98.389189 
L 269.435791 -99.134558 
L 270.601173 -99.883962 
L 271.766556 -100.637306 
L 272.931938 -101.394499 
L 274.09732 -102.155452 
L 275.262703 -102.920078 
L 276.428085 -103.68829 
L 277.593468 -104.460007 
L 278.75885 -105.235145 
L 279.924233 -106.013625 
L 281.089615 -106.795369 
L 282.254998 -107.580299 
L 283.42038 -108.368341 
L 284.585763 -109.159422 
L 285.751145 -109.953471 
L 286.916528 -110.750416 
L 288.08191 -111.55019 
L 289.247293 -112.352725 
L 290.412675 -113.157955 
L 291.578058 -113.965818 
L 292.74344 -114.776249 
L 293.908823 -115.589188 
L 295.074205 -116.404574 
L 296.239588 -117.22235 
L 297.40497 -118.042456 
L 298.570352 -118.864838 
L 299.735735 -119.689441 
L 300.901117 -120.51621 
L 302.0665 -121.345093 
L 303.231882 -122.176039 
L 304.397265 -123.008998 
L 305.562647 -123.843921 
L 306.72803 -124.680759 
L 307.893412 -125.519466 
L 309.058795 -126.359995 
L 310.224177 -127.202303 
L 311.38956 -128.046345 
L 312.554942 -128.892078 
L 313.720325 -129.739461 
L 314.885707 -130.588452 
L 316.05109 -131.439011 
L 317.216472 -132.291099 
L 318.381855 -133.144679 
L 319.547237 -133.999712 
L 320.71262 -134.856161 
L 321.878002 -135.713992 
L 323.043384 -136.573169 
L 324.208767 -137.433658 
L 325.374149 -138.295426 
L 326.539532 -139.15844 
L 327.704914 -140.022668 
L 328.870297 -140.888079 
L 330.035679 -141.754642 
L 331.201062 -142.622329 
L 332.366444 -143.491109 
L 333.531827 -144.360955 
L 334.697209 -145.231838 
L 335.862592 -146.103732 
L 337.027974 -146.976609 
L 338.193357 -147.850445 
L 339.358739 -148.725214 
L 340.524122 -149.600891 
L 341.689504 -150.477452 
L 342.854887 -151.354873 
L 344.020269 -152.233132 
L 345.185652 -153.112206 
L 346.351034 -153.992074 
L 347.516416 -154.872712 
L 348.681799 -155.754102 
L 349.847181 -156.636221 
L 351.012564 -157.519052 
L 352.177946 -158.402573 
L 353.343329 -159.286765 
L 354.508711 -160.171611 
L 355.674094 -161.057093 
L 356.839476 -161.943191 
L 358.004859 -162.82989 
L 359.170241 -163.717173 
L 360.335624 -164.605022 
L 361.501006 -165.493422 
L 362.666389 -166.382358 
L 363.831771 -167.271813 
L 364.997154 -168.161773 
L 366.162536 -169.052225 
L 367.327919 -169.943152 
L 368.493301 -170.834542 
L 369.658684 -171.726381 
L 370.824066 -172.618656 
L 371.989448 -173.511354 
L 373.154831 -174.404463 
L 374.320213 -175.29797 
L 375.485596 -176.191863 
L 376.650978 -177.086132 
L 377.816361 -177.980764 
L 378.981743 -178.875749 
L 380.147126 -179.771076 
L 381.312508 -180.666734 
L 382.477891 -181.562714 
L 383.643273 -182.459005 
L 384.808656 -183.355598 
L 385.974038 -184.252483 
L 387.139421 -185.149651 
L 388.304803 -186.047094 
L 389.470186 -186.944802 
L 390.635568 -187.842768 
L 391.800951 -188.740982 
L 392.966333 -189.639438 
L 394.131715 -190.538127 
L 395.297098 -191.437041 
L 396.46248 -192.336173 
L 397.627863 -193.235517 
L 398.793245 -194.135064 
L 399.958628 -195.034809 
L 401.12401 -195.934744 
L 402.289393 -196.834864 
L 403.454775 -197.735162 
L 404.620158 -198.635632 
L 405.78554 -199.536268 
L 406.950923 -200.437064 
L 408.116305 -201.338015 
L 409.281688 -202.239116 
L 410.44707 -203.14036 
L 411.612453 -204.041744 
L 412.777835 -204.943262 
L 413.943218 -205.844909 
L 415.1086 -206.746681 
L 416.273983 -207.648573 
L 417.439365 -208.550581 
L 418.604747 -209.452701 
L 419.77013 -210.354927 
L 420.935512 -211.257257 
L 422.100895 -212.159687 
L 423.266277 -213.062212 
L 424.43166 -213.964829 
L 425.597042 -214.867535 
L 426.762425 -215.770326 
L 427.927807 -216.673198 
L 429.09319 -217.576149 
L 430.258572 -218.479175 
L 431.423955 -219.382274 
L 432.589337 -220.285442 
L 433.75472 -221.188676 
L 434.920102 -222.091974 
L 436.085485 -222.995333 
L 437.250867 -223.898751 
L 438.41625 -224.802224 
L 439.581632 -225.705751 
L 440.747015 -226.60933 
L 441.912397 -227.512957 
L 443.077779 -228.41663 
L 444.243162 -229.320348 
L 445.408544 -230.224108 
L 446.573927 -231.127909 
L 447.739309 -232.031748 
L 448.904692 -232.935623 
L 450.070074 -233.839533 
L 451.235457 -234.743476 
L 452.400839 -235.647449 
L 453.566222 -236.551452 
L 454.731604 -237.455483 
L 455.896987 -238.359539 
L 457.062369 -239.26362 
L 458.227752 -240.167724 
L 459.393134 -241.071849 
L 460.558517 -241.975994 
L 461.723899 -242.880158 
L 462.889282 -243.784338 
L 464.054664 -244.688535 
L 465.220047 -245.592745 
L 466.385429 -246.496969 
L 467.550811 -247.401204 
L 468.716194 -248.30545 
L 469.881576 -249.209705 
L 471.046959 -250.113968 
L 472.212341 -251.018237 
L 473.377724 -251.922512 
L 474.543106 -252.826792 
L 475.708489 -253.731074 
L 476.873871 -254.635358 
L 478.039254 -255.539642 
L 479.204636 -256.443926 
L 480.370019 -257.348208 
L 481.535401 -258.252488 
L 482.700784 -259.156763 
L 483.866166 -260.061032 
L 485.031549 -260.965295 
L 486.196931 -261.86955 
L 487.362314 -262.773796 
L 488.527696 -263.678031 
L 489.693078 -264.582255 
L 490.858461 -265.486465 
L 492.023843 -266.390662 
L 493.189226 -267.294842 
L 494.354608 -268.199006 
L 495.519991 -269.103151 
L 496.685373 -270.007276 
L 497.850756 -270.91138 
L 499.016138 -271.815461 
L 500.181521 -272.719517 
L 501.346903 -273.623548 
L 502.512286 -274.527551 
L 503.677668 -275.431524 
L 504.843051 -276.335467 
L 506.008433 -277.239377 
L 507.173816 -278.143252 
L 508.339198 -279.047091 
L 509.504581 -279.950892 
L 510.669963 -280.854652 
L 511.835346 -281.75837 
L 513.000728 -282.662043 
L 514.16611 -283.56567 
L 515.331493 -284.469249 
L 516.496875 -285.372776 
L 517.662258 -286.276249 
L 518.82764 -287.179667 
L 519.993023 -288.083026 
L 521.158405 -288.986324 
L 522.323788 -289.889558 
L 523.48917 -290.792726 
L 524.654553 -291.695825 
L 525.819935 -292.598851 
L 526.985318 -293.501802 
L 528.1507 -294.404674 
L 529.316083 -295.307465 
L 530.481465 -296.210171 
L 531.646848 -297.112788 
L 532.81223 -298.015313 
L 533.977613 -298.917743 
L 535.142995 -299.820073 
L 536.308378 -300.722299 
L 537.47376 -301.624419 
L 538.639142 -302.526427 
L 539.804525 -303.428319 
L 540.969907 -304.330091 
L 542.13529 -305.231738 
L 543.300672 -306.133256 
L 544.466055 -307.03464 
L 545.631437 -307.935884 
L 546.79682 -308.836985 
L 547.962202 -309.737936 
L 549.127585 -310.638732 
L 550.292967 -311.539368 
L 551.45835 -312.439838 
L 552.623732 -313.340136 
L 553.789115 -314.240256 
L 554.954497 -315.140191 
L 556.11988 -316.039936 
L 557.285262 -316.939483 
L 558.450645 -317.838827 
L 559.616027 -318.737959 
L 560.78141 -319.636873 
L 561.946792 -320.535562 
L 563.112174 -321.434018 
L 564.277557 -322.332232 
L 565.442939 -323.230198 
L 566.608322 -324.127906 
L 567.773704 -325.025349 
L 568.939087 -325.922517 
L 570.104469 -326.819402 
L 571.269852 -327.715995 
L 572.435234 -328.612286 
L 573.600617 -329.508266 
L 574.765999 -330.403924 
L 575.931382 -331.299251 
L 577.096764 -332.194236 
L 578.262147 -333.088868 
L 579.427529 -333.983137 
L 580.592912 -334.87703 
L 581.758294 -335.770537 
L 582.923677 -336.663646 
L 584.089059 -337.556344 
L 585.254441 -338.448619 
L 586.419824 -339.340458 
L 587.585206 -340.231848 
L 588.750589 -341.122775 
L 589.915971 -342.013227 
L 591.081354 -342.903187 
L 592.246736 -343.792642 
L 593.412119 -344.681578 
L 594.577501 -345.569978 
L 595.742884 -346.457827 
L 596.908266 -347.34511 
L 598.073649 -348.231809 
L 599.239031 -349.117907 
L 600.404414 -350.003389 
L 601.569796 -350.888235 
L 602.735179 -351.772427 
L 603.900561 -352.655948 
L 605.065944 -353.538779 
L 606.231326 -354.420898 
L 607.396709 -355.302288 
L 608.562091 -356.182926 
L 609.727473 -357.062794 
L 610.892856 -357.941868 
L 612.058238 -358.820127 
L 613.223621 -359.697548 
L 614.389003 -360.574109 
L 615.554386 -361.449786 
L 616.719768 -362.324555 
L 617.885151 -363.198391 
L 619.050533 -364.071268 
L 620.215916 -364.943162 
L 621.381298 -365.814045 
L 622.546681 -366.683891 
L 623.712063 -367.552671 
L 624.877446 -368.420358 
L 626.042828 -369.286921 
L 627.208211 -370.152332 
L 628.373593 -371.01656 
L 629.538976 -371.879574 
L 630.704358 -372.741342 
L 631.869741 -373.601831 
L 633.035123 -374.461008 
L 634.200505 -375.318839 
L 635.365888 -376.175288 
L 636.53127 -377.030321 
L 637.696653 -377.883901 
L 638.862035 -378.735989 
L 640.027418 -379.586548 
L 641.1928 -380.435539 
L 642.358183 -381.282922 
L 643.523565 -382.128655 
L 644.688948 -382.972697 
L 645.85433 -383.815005 
L 647.019713 -384.655534 
L 648.185095 -385.494241 
L 649.350478 -386.331079 
L 650.51586 -387.166002 
L 651.681243 -387.998961 
L 652.846625 -388.829907 
L 654.012008 -389.65879 
L 655.17739 -390.485559 
L 656.342773 -391.310162 
L 657.508155 -392.132544 
L 658.673537 -392.95265 
L 659.83892 -393.770426 
L 661.004302 -394.585812 
L 662.169685 -395.398751 
L 663.335067 -396.209182 
L 664.50045 -397.017045 
L 665.665832 -397.822275 
L 666.831215 -398.62481 
L 667.996597 -399.424584 
L 669.16198 -400.221529 
L 670.327362 -401.015578 
L 671.492745 -401.806659 
L 672.658127 -402.594701 
L 673.82351 -403.379631 
L 674.988892 -404.161375 
L 676.154275 -404.939855 
L 677.319657 -405.714993 
L 678.48504 -406.48671 
L 679.650422 -407.254922 
L 680.815805 -408.019548 
L 681.981187 -408.780501 
L 683.146569 -409.537694 
L 684.311952 -410.291038 
L 685.477334 -411.040442 
L 686.642717 -411.785811 
L 687.808099 -412.527051 
L 688.973482 -413.264065 
L 690.138864 -413.996753 
L 691.304247 -414.725012 
L 692.469629 -415.44874 
L 693.635012 -416.167829 
L 694.800394 -416.882171 
L 695.965777 -417.591656 
L 697.131159 -418.296169 
L 698.296542 -418.995594 
L 699.461924 -419.689814 
L 700.627307 -420.378707 
L 701.792689 -421.06215 
L 702.958072 -421.740016 
L 704.123454 -422.412176 
L 705.288836 -423.078499 
L 706.454219 -423.738849 
L 707.619601 -424.393088 
L 708.784984 -425.041078 
L 709.950366 -425.682673 
L 711.115749 -426.317727 
L 712.281131 -426.94609 
L 713.446514 -427.567609 
L 714.611896 -428.182128 
L 715.777279 -428.789487 
L 716.942661 -429.389524 
L 718.108044 -429.982071 
L 719.273426 -430.566958 
L 720.438809 -431.144013 
L 721.604191 -431.713058 
L 722.769574 -432.273912 
L 723.934956 -432.826389 
L 725.100339 -433.370303 
L 726.265721 -433.90546 
L 727.431104 -434.431663 
L 728.596486 -434.948713 
L 729.761868 -435.456404 
L 730.927251 -435.954528 
L 732.092633 -436.442871 
L 733.258016 -436.921217 
L 734.423398 -437.389343 
L 735.588781 -437.847023 
L 736.754163 -438.294027 
L 737.919546 -438.730118 
L 739.084928 -439.155057 
L 740.250311 -439.568599 
L 741.415693 -439.970494 
L 742.581076 -440.360488 
L 743.746458 -440.73832 
L 744.911841 -441.103728 
L 746.077223 -441.456441 
L 747.242606 -441.796183 
L 748.407988 -442.122677 
L 749.573371 -442.435636 
L 750.738753 -442.734769 
L 751.904136 -443.019782 
L 753.069518 -443.290372 
L 754.2349 -443.546233 
L 755.400283 -443.787053 
L 756.565665 -444.012514 
L 757.731048 -444.222292 
L 758.89643 -444.416059 
L 760.061813 -444.593479 
L 761.227195 -444.754212 
L 762.392578 -444.897913 
L 763.55796 -445.024228 
L 764.723343 -445.1328 
L 765.888725 -445.223265 
L 767.054108 -445.295255 
L 768.21949 -445.348395 
L 769.384873 -445.382302 
L 770.550255 -445.396591 
L 771.715638 -445.390869 
L 772.88102 -445.364738 
L 774.046403 -445.317795 
L 775.211785 -445.249629 
L 776.377168 -445.159827 
L 777.54255 -445.047967 
L 778.707932 -444.913623 
L 779.873315 -444.756365 
L 781.038697 -444.575757 
L 782.20408 -444.371356 
L 783.369462 -444.142716 
L 784.534845 -443.889386 
L 785.700227 -443.61091 
L 786.86561 -443.306828 
L 788.030992 -442.976675 
L 789.196375 -442.619982 
L 790.361757 -442.236277 
L 791.52714 -441.825083 
L 792.692522 -441.38592 
L 793.857905 -440.918306 
L 795.023287 -440.421756 
L 796.18867 -439.895781 
L 797.354052 -439.339891 
L 798.519435 -438.753594 
L 799.684817 -438.136398 
L 800.850199 -437.487808 
L 802.015582 -436.807329 
L 803.180964 -436.094468 
L 804.346347 -435.348729 
L 805.511729 -434.569619 
L 806.677112 -433.756648 
L 807.842494 -432.909324 
L 809.007877 -432.027163 
L 810.173259 -431.109679 
L 811.338642 -430.156395 
L 812.504024 -429.166834 
L 813.669407 -428.140527 
L 814.834789 -427.077012 
L 816.000172 -425.975833 
L 817.165554 -424.83654 
L 818.330937 -423.658695 
L 819.496319 -422.441867 
L 820.661702 -421.185636 
L 821.827084 -419.889595 
L 822.992467 -418.553346 
L 824.157849 -417.176507 
L 825.323231 -415.75871 
L 826.488614 -414.299602 
L 827.653996 -412.798845 
L 828.819379 -411.256123 
L 829.984761 -409.671133 
L 831.150144 -408.043595 
L 832.315526 -406.373251 
L 833.480909 -404.659862 
L 834.646291 -402.903215 
L 835.811674 -401.103121 
L 836.977056 -399.259415 
L 838.142439 -397.371962 
L 839.307821 -395.440652 
L 840.473204 -393.465406 
L 841.638586 -391.446177 
L 842.803969 -389.382947 
L 843.969351 -387.275732 
L 845.134734 -385.124584 
L 846.300116 -382.929587 
L 847.465499 -380.690864 
L 848.630881 -378.408575 
L 849.796263 -376.082918 
L 850.961646 -373.714131 
L 852.127028 -371.302492 
L 853.292411 -368.84832 
L 854.457793 -366.351978 
L 855.623176 -363.81387 
L 856.788558 -361.234445 
L 857.953941 -358.614197 
L 859.119323 -355.953664 
L 860.284706 -353.253428 
L 861.450088 -350.514119 
L 862.615471 -347.736413 
L 863.780853 -344.92103 
L 864.946236 -342.06874 
L 866.111618 -339.180355 
L 867.277001 -336.256737 
L 868.442383 -333.298791 
L 869.607766 -330.307469 
L 870.773148 -327.283769 
L 871.938531 -324.22873 
L 873.103913 -321.143439 
L 874.269295 -318.029022 
L 875.434678 -314.886648 
L 876.60006 -311.717528 
L 877.765443 -308.522911 
L 878.930825 -305.304084 
L 880.096208 -302.06237 
L 881.26159 -298.799129 
L 882.426973 -295.515752 
L 883.592355 -292.213661 
L 884.757738 -288.89431 
L 885.92312 -285.559177 
L 887.088503 -282.209767 
L 888.253885 -278.847608 
L 889.419268 -275.474246 
L 890.58465 -272.09125 
L 891.750033 -268.7002 
L 892.915415 -265.30269 
L 894.080798 -261.900327 
L 895.24618 -258.494724 
L 896.411562 -255.0875 
L 896.411562 -255.0875 
L 896.411562 -255.0875 
L 895.24618 -255.0875 
L 894.080798 -255.0875 
L 892.915415 -255.0875 
L 891.750033 -255.0875 
L 890.58465 -255.0875 
L 889.419268 -255.0875 
L 888.253885 -255.0875 
L 887.088503 -255.0875 
L 885.92312 -255.0875 
L 884.757738 -255.0875 
L 883.592355 -255.0875 
L 882.426973 -255.0875 
L 881.26159 -255.0875 
L 880.096208 -255.0875 
L 878.930825 -255.0875 
L 877.765443 -255.0875 
L 876.60006 -255.0875 
L 875.434678 -255.0875 
L 874.269295 -255.0875 
L 873.103913 -255.0875 
L 871.938531 -255.0875 
L 870.773148 -255.0875 
L 869.607766 -255.0875 
L 868.442383 -255.0875 
L 867.277001 -255.0875 
L 866.111618 -255.0875 
L 864.946236 -255.0875 
L 863.780853 -255.0875 
L 862.615471 -255.0875 
L 861.450088 -255.0875 
L 860.284706 -255.0875 
L 859.119323 -255.0875 
L 857.953941 -255.0875 
L 856.788558 -255.0875 
L 855.623176 -255.0875 
L 854.457793 -255.0875 
L 853.292411 -255.0875 
L 852.127028 -255.0875 
L 850.961646 -255.0875 
L 849.796263 -255.0875 
L 848.630881 -255.0875 
L 847.465499 -255.0875 
L 846.300116 -255.0875 
L 845.134734 -255.0875 
L 843.969351 -255.0875 
L 842.803969 -255.0875 
L 841.638586 -255.0875 
L 840.473204 -255.0875 
L 839.307821 -255.0875 
L 838.142439 -255.0875 
L 836.977056 -255.0875 
L 835.811674 -255.0875 
L 834.646291 -255.0875 
L 833.480909 -255.0875 
L 832.315526 -255.0875 
L 831.150144 -255.0875 
L 829.984761 -255.0875 
L 828.819379 -255.0875 
L 827.653996 -255.0875 
L 826.488614 -255.0875 
L 825.323231 -255.0875 
L 824.157849 -255.0875 
L 822.992467 -255.0875 
L 821.827084 -255.0875 
L 820.661702 -255.0875 
L 819.496319 -255.0875 
L 818.330937 -255.0875 
L 817.165554 -255.0875 
L 816.000172 -255.0875 
L 814.834789 -255.0875 
L 813.669407 -255.0875 
L 812.504024 -255.0875 
L 811.338642 -255.0875 
L 810.173259 -255.0875 
L 809.007877 -255.0875 
L 807.842494 -255.0875 
L 806.677112 -255.0875 
L 805.511729 -255.0875 
L 804.346347 -255.0875 
L 803.180964 -255.0875 
L 802.015582 -255.0875 
L 800.850199 -255.0875 
L 799.684817 -255.0875 
L 798.519435 -255.0875 
L 797.354052 -255.0875 
L 796.18867 -255.0875 
L 795.023287 -255.0875 
L 793.857905 -255.0875 
L 792.692522 -255.0875 
L 791.52714 -255.0875 
L 790.361757 -255.0875 
L 789.196375 -255.0875 
L 788.030992 -255.0875 
L 786.86561 -255.0875 
L 785.700227 -255.0875 
L 784.534845 -255.0875 
L 783.369462 -255.0875 
L 782.20408 -255.0875 
L 781.038697 -255.0875 
L 779.873315 -255.0875 
L 778.707932 -255.0875 
L 777.54255 -255.0875 
L 776.377168 -255.0875 
L 775.211785 -255.0875 
L 774.046403 -255.0875 
L 772.88102 -255.0875 
L 771.715638 -255.0875 
L 770.550255 -255.0875 
L 769.384873 -255.0875 
L 768.21949 -255.0875 
L 767.054108 -255.0875 
L 765.888725 -255.0875 
L 764.723343 -255.0875 
L 763.55796 -255.0875 
L 762.392578 -255.0875 
L 761.227195 -255.0875 
L 760.061813 -255.0875 
L 758.89643 -255.0875 
L 757.731048 -255.0875 
L 756.565665 -255.0875 
L 755.400283 -255.0875 
L 754.2349 -255.0875 
L 753.069518 -255.0875 
L 751.904136 -255.0875 
L 750.738753 -255.0875 
L 749.573371 -255.0875 
L 748.407988 -255.0875 
L 747.242606 -255.0875 
L 746.077223 -255.0875 
L 744.911841 -255.0875 
L 743.746458 -255.0875 
L 742.581076 -255.0875 
L 741.415693 -255.0875 
L 740.250311 -255.0875 
L 739.084928 -255.0875 
L 737.919546 -255.0875 
L 736.754163 -255.0875 
L 735.588781 -255.0875 
L 734.423398 -255.0875 
L 733.258016 -255.0875 
L 732.092633 -255.0875 
L 730.927251 -255.0875 
L 729.761868 -255.0875 
L 728.596486 -255.0875 
L 727.431104 -255.0875 
L 726.265721 -255.0875 
L 725.100339 -255.0875 
L 723.934956 -255.0875 
L 722.769574 -255.0875 
L 721.604191 -255.0875 
L 720.438809 -255.0875 
L 719.273426 -255.0875 
L 718.108044 -255.0875 
L 716.942661 -255.0875 
L 715.777279 -255.0875 
L 714.611896 -255.0875 
L 713.446514 -255.0875 
L 712.281131 -255.0875 
L 711.115749 -255.0875 
L 709.950366 -255.0875 
L 708.784984 -255.0875 
L 707.619601 -255.0875 
L 706.454219 -255.0875 
L 705.288836 -255.0875 
L 704.123454 -255.0875 
L 702.958072 -255.0875 
L 701.792689 -255.0875 
L 700.627307 -255.0875 
L 699.461924 -255.0875 
L 698.296542 -255.0875 
L 697.131159 -255.0875 
L 695.965777 -255.0875 
L 694.800394 -255.0875 
L 693.635012 -255.0875 
L 692.469629 -255.0875 
L 691.304247 -255.0875 
L 690.138864 -255.0875 
L 688.973482 -255.0875 
L 687.808099 -255.0875 
L 686.642717 -255.0875 
L 685.477334 -255.0875 
L 684.311952 -255.0875 
L 683.146569 -255.0875 
L 681.981187 -255.0875 
L 680.815805 -255.0875 
L 679.650422 -255.0875 
L 678.48504 -255.0875 
L 677.319657 -255.0875 
L 676.154275 -255.0875 
L 674.988892 -255.0875 
L 673.82351 -255.0875 
L 672.658127 -255.0875 
L 671.492745 -255.0875 
L 670.327362 -255.0875 
L 669.16198 -255.0875 
L 667.996597 -255.0875 
L 666.831215 -255.0875 
L 665.665832 -255.0875 
L 664.50045 -255.0875 
L 663.335067 -255.0875 
L 662.169685 -255.0875 
L 661.004302 -255.0875 
L 659.83892 -255.0875 
L 658.673537 -255.0875 
L 657.508155 -255.0875 
L 656.342773 -255.0875 
L 655.17739 -255.0875 
L 654.012008 -255.0875 
L 652.846625 -255.0875 
L 651.681243 -255.0875 
L 650.51586 -255.0875 
L 649.350478 -255.0875 
L 648.185095 -255.0875 
L 647.019713 -255.0875 
L 645.85433 -255.0875 
L 644.688948 -255.0875 
L 643.523565 -255.0875 
L 642.358183 -255.0875 
L 641.1928 -255.0875 
L 640.027418 -255.0875 
L 638.862035 -255.0875 
L 637.696653 -255.0875 
L 636.53127 -255.0875 
L 635.365888 -255.0875 
L 634.200505 -255.0875 
L 633.035123 -255.0875 
L 631.869741 -255.0875 
L 630.704358 -255.0875 
L 629.538976 -255.0875 
L 628.373593 -255.0875 
L 627.208211 -255.0875 
L 626.042828 -255.0875 
L 624.877446 -255.0875 
L 623.712063 -255.0875 
L 622.546681 -255.0875 
L 621.381298 -255.0875 
L 620.215916 -255.0875 
L 619.050533 -255.0875 
L 617.885151 -255.0875 
L 616.719768 -255.0875 
L 615.554386 -255.0875 
L 614.389003 -255.0875 
L 613.223621 -255.0875 
L 612.058238 -255.0875 
L 610.892856 -255.0875 
L 609.727473 -255.0875 
L 608.562091 -255.0875 
L 607.396709 -255.0875 
L 606.231326 -255.0875 
L 605.065944 -255.0875 
L 603.900561 -255.0875 
L 602.735179 -255.0875 
L 601.569796 -255.0875 
L 600.404414 -255.0875 
L 599.239031 -255.0875 
L 598.073649 -255.0875 
L 596.908266 -255.0875 
L 595.742884 -255.0875 
L 594.577501 -255.0875 
L 593.412119 -255.0875 
L 592.246736 -255.0875 
L 591.081354 -255.0875 
L 589.915971 -255.0875 
L 588.750589 -255.0875 
L 587.585206 -255.0875 
L 586.419824 -255.0875 
L 585.254441 -255.0875 
L 584.089059 -255.0875 
L 582.923677 -255.0875 
L 581.758294 -255.0875 
L 580.592912 -255.0875 
L 579.427529 -255.0875 
L 578.262147 -255.0875 
L 577.096764 -255.0875 
L 575.931382 -255.0875 
L 574.765999 -255.0875 
L 573.600617 -255.0875 
L 572.435234 -255.0875 
L 571.269852 -255.0875 
L 570.104469 -255.0875 
L 568.939087 -255.0875 
L 567.773704 -255.0875 
L 566.608322 -255.0875 
L 565.442939 -255.0875 
L 564.277557 -255.0875 
L 563.112174 -255.0875 
L 561.946792 -255.0875 
L 560.78141 -255.0875 
L 559.616027 -255.0875 
L 558.450645 -255.0875 
L 557.285262 -255.0875 
L 556.11988 -255.0875 
L 554.954497 -255.0875 
L 553.789115 -255.0875 
L 552.623732 -255.0875 
L 551.45835 -255.0875 
L 550.292967 -255.0875 
L 549.127585 -255.0875 
L 547.962202 -255.0875 
L 546.79682 -255.0875 
L 545.631437 -255.0875 
L 544.466055 -255.0875 
L 543.300672 -255.0875 
L 542.13529 -255.0875 
L 540.969907 -255.0875 
L 539.804525 -255.0875 
L 538.639142 -255.0875 
L 537.47376 -255.0875 
L 536.308378 -255.0875 
L 535.142995 -255.0875 
L 533.977613 -255.0875 
L 532.81223 -255.0875 
L 531.646848 -255.0875 
L 530.481465 -255.0875 
L 529.316083 -255.0875 
L 528.1507 -255.0875 
L 526.985318 -255.0875 
L 525.819935 -255.0875 
L 524.654553 -255.0875 
L 523.48917 -255.0875 
L 522.323788 -255.0875 
L 521.158405 -255.0875 
L 519.993023 -255.0875 
L 518.82764 -255.0875 
L 517.662258 -255.0875 
L 516.496875 -255.0875 
L 515.331493 -255.0875 
L 514.16611 -255.0875 
L 513.000728 -255.0875 
L 511.835346 -255.0875 
L 510.669963 -255.0875 
L 509.504581 -255.0875 
L 508.339198 -255.0875 
L 507.173816 -255.0875 
L 506.008433 -255.0875 
L 504.843051 -255.0875 
L 503.677668 -255.0875 
L 502.512286 -255.0875 
L 501.346903 -255.0875 
L 500.181521 -255.0875 
L 499.016138 -255.0875 
L 497.850756 -255.0875 
L 496.685373 -255.0875 
L 495.519991 -255.0875 
L 494.354608 -255.0875 
L 493.189226 -255.0875 
L 492.023843 -255.0875 
L 490.858461 -255.0875 
L 489.693078 -255.0875 
L 488.527696 -255.0875 
L 487.362314 -255.0875 
L 486.196931 -255.0875 
L 485.031549 -255.0875 
L 483.866166 -255.0875 
L 482.700784 -255.0875 
L 481.535401 -255.0875 
L 480.370019 -255.0875 
L 479.204636 -255.0875 
L 478.039254 -255.0875 
L 476.873871 -255.0875 
L 475.708489 -255.0875 
L 474.543106 -255.0875 
L 473.377724 -255.0875 
L 472.212341 -255.0875 
L 471.046959 -255.0875 
L 469.881576 -255.0875 
L 468.716194 -255.0875 
L 467.550811 -255.0875 
L 466.385429 -255.0875 
L 465.220047 -255.0875 
L 464.054664 -255.0875 
L 462.889282 -255.0875 
L 461.723899 -255.0875 
L 460.558517 -255.0875 
L 459.393134 -255.0875 
L 458.227752 -255.0875 
L 457.062369 -255.0875 
L 455.896987 -255.0875 
L 454.731604 -255.0875 
L 453.566222 -255.0875 
L 452.400839 -255.0875 
L 451.235457 -255.0875 
L 450.070074 -255.0875 
L 448.904692 -255.0875 
L 447.739309 -255.0875 
L 446.573927 -255.0875 
L 445.408544 -255.0875 
L 444.243162 -255.0875 
L 443.077779 -255.0875 
L 441.912397 -255.0875 
L 440.747015 -255.0875 
L 439.581632 -255.0875 
L 438.41625 -255.0875 
L 437.250867 -255.0875 
L 436.085485 -255.0875 
L 434.920102 -255.0875 
L 433.75472 -255.0875 
L 432.589337 -255.0875 
L 431.423955 -255.0875 
L 430.258572 -255.0875 
L 429.09319 -255.0875 
L 427.927807 -255.0875 
L 426.762425 -255.0875 
L 425.597042 -255.0875 
L 424.43166 -255.0875 
L 423.266277 -255.0875 
L 422.100895 -255.0875 
L 420.935512 -255.0875 
L 419.77013 -255.0875 
L 418.604747 -255.0875 
L 417.439365 -255.0875 
L 416.273983 -255.0875 
L 415.1086 -255.0875 
L 413.943218 -255.0875 
L 412.777835 -255.0875 
L 411.612453 -255.0875 
L 410.44707 -255.0875 
L 409.281688 -255.0875 
L 408.116305 -255.0875 
L 406.950923 -255.0875 
L 405.78554 -255.0875 
L 404.620158 -255.0875 
L 403.454775 -255.0875 
L 402.289393 -255.0875 
L 401.12401 -255.0875 
L 399.958628 -255.0875 
L 398.793245 -255.0875 
L 397.627863 -255.0875 
L 396.46248 -255.0875 
L 395.297098 -255.0875 
L 394.131715 -255.0875 
L 392.966333 -255.0875 
L 391.800951 -255.0875 
L 390.635568 -255.0875 
L 389.470186 -255.0875 
L 388.304803 -255.0875 
L 387.139421 -255.0875 
L 385.974038 -255.0875 
L 384.808656 -255.0875 
L 383.643273 -255.0875 
L 382.477891 -255.0875 
L 381.312508 -255.0875 
L 380.147126 -255.0875 
L 378.981743 -255.0875 
L 377.816361 -255.0875 
L 376.650978 -255.0875 
L 375.485596 -255.0875 
L 374.320213 -255.0875 
L 373.154831 -255.0875 
L 371.989448 -255.0875 
L 370.824066 -255.0875 
L 369.658684 -255.0875 
L 368.493301 -255.0875 
L 367.327919 -255.0875 
L 366.162536 -255.0875 
L 364.997154 -255.0875 
L 363.831771 -255.0875 
L 362.666389 -255.0875 
L 361.501006 -255.0875 
L 360.335624 -255.0875 
L 359.170241 -255.0875 
L 358.004859 -255.0875 
L 356.839476 -255.0875 
L 355.674094 -255.0875 
L 354.508711 -255.0875 
L 353.343329 -255.0875 
L 352.177946 -255.0875 
L 351.012564 -255.0875 
L 349.847181 -255.0875 
L 348.681799 -255.0875 
L 347.516416 -255.0875 
L 346.351034 -255.0875 
L 345.185652 -255.0875 
L 344.020269 -255.0875 
L 342.854887 -255.0875 
L 341.689504 -255.0875 
L 340.524122 -255.0875 
L 339.358739 -255.0875 
L 338.193357 -255.0875 
L 337.027974 -255.0875 
L 335.862592 -255.0875 
L 334.697209 -255.0875 
L 333.531827 -255.0875 
L 332.366444 -255.0875 
L 331.201062 -255.0875 
L 330.035679 -255.0875 
L 328.870297 -255.0875 
L 327.704914 -255.0875 
L 326.539532 -255.0875 
L 325.374149 -255.0875 
L 324.208767 -255.0875 
L 323.043384 -255.0875 
L 321.878002 -255.0875 
L 320.71262 -255.0875 
L 319.547237 -255.0875 
L 318.381855 -255.0875 
L 317.216472 -255.0875 
L 316.05109 -255.0875 
L 314.885707 -255.0875 
L 313.720325 -255.0875 
L 312.554942 -255.0875 
L 311.38956 -255.0875 
L 310.224177 -255.0875 
L 309.058795 -255.0875 
L 307.893412 -255.0875 
L 306.72803 -255.0875 
L 305.562647 -255.0875 
L 304.397265 -255.0875 
L 303.231882 -255.0875 
L 302.0665 -255.0875 
L 300.901117 -255.0875 
L 299.735735 -255.0875 
L 298.570352 -255.0875 
L 297.40497 -255.0875 
L 296.239588 -255.0875 
L 295.074205 -255.0875 
L 293.908823 -255.0875 
L 292.74344 -255.0875 
L 291.578058 -255.0875 
L 290.412675 -255.0875 
L 289.247293 -255.0875 
L 288.08191 -255.0875 
L 286.916528 -255.0875 
L 285.751145 -255.0875 
L 284.585763 -255.0875 
L 283.42038 -255.0875 
L 282.254998 -255.0875 
L 281.089615 -255.0875 
L 279.924233 -255.0875 
L 278.75885 -255.0875 
L 277.593468 -255.0875 
L 276.428085 -255.0875 
L 275.262703 -255.0875 
L 274.09732 -255.0875 
L 272.931938 -255.0875 
L 271.766556 -255.0875 
L 270.601173 -255.0875 
L 269.435791 -255.0875 
L 268.270408 -255.0875 
L 267.105026 -255.0875 
L 265.939643 -255.0875 
L 264.774261 -255.0875 
L 263.608878 -255.0875 
L 262.443496 -255.0875 
L 261.278113 -255.0875 
L 260.112731 -255.0875 
L 258.947348 -255.0875 
L 257.781966 -255.0875 
L 256.616583 -255.0875 
L 255.451201 -255.0875 
L 254.285818 -255.0875 
L 253.120436 -255.0875 
L 251.955053 -255.0875 
L 250.789671 -255.0875 
L 249.624289 -255.0875 
L 248.458906 -255.0875 
L 247.293524 -255.0875 
L 246.128141 -255.0875 
L 244.962759 -255.0875 
L 243.797376 -255.0875 
L 242.631994 -255.0875 
L 241.466611 -255.0875 
L 240.301229 -255.0875 
L 239.135846 -255.0875 
L 237.970464 -255.0875 
L 236.805081 -255.0875 
L 235.639699 -255.0875 
L 234.474316 -255.0875 
L 233.308934 -255.0875 
L 232.143551 -255.0875 
L 230.978169 -255.0875 
L 229.812786 -255.0875 
L 228.647404 -255.0875 
L 227.482021 -255.0875 
L 226.316639 -255.0875 
L 225.151257 -255.0875 
L 223.985874 -255.0875 
L 222.820492 -255.0875 
L 221.655109 -255.0875 
L 220.489727 -255.0875 
L 219.324344 -255.0875 
L 218.158962 -255.0875 
L 216.993579 -255.0875 
L 215.828197 -255.0875 
L 214.662814 -255.0875 
L 213.497432 -255.0875 
L 212.332049 -255.0875 
L 211.166667 -255.0875 
L 210.001284 -255.0875 
L 208.835902 -255.0875 
L 207.670519 -255.0875 
L 206.505137 -255.0875 
L 205.339754 -255.0875 
L 204.174372 -255.0875 
L 203.008989 -255.0875 
L 201.843607 -255.0875 
L 200.678225 -255.0875 
L 199.512842 -255.0875 
L 198.34746 -255.0875 
L 197.182077 -255.0875 
L 196.016695 -255.0875 
L 194.851312 -255.0875 
L 193.68593 -255.0875 
L 192.520547 -255.0875 
L 191.355165 -255.0875 
L 190.189782 -255.0875 
L 189.0244 -255.0875 
L 187.859017 -255.0875 
L 186.693635 -255.0875 
L 185.528252 -255.0875 
L 184.36287 -255.0875 
L 183.197487 -255.0875 
L 182.032105 -255.0875 
L 180.866722 -255.0875 
L 179.70134 -255.0875 
L 178.535957 -255.0875 
L 177.370575 -255.0875 
L 176.205193 -255.0875 
L 175.03981 -255.0875 
L 173.874428 -255.0875 
L 172.709045 -255.0875 
L 171.543663 -255.0875 
L 170.37828 -255.0875 
L 169.212898 -255.0875 
L 168.047515 -255.0875 
L 166.882133 -255.0875 
L 165.71675 -255.0875 
L 164.551368 -255.0875 
L 163.385985 -255.0875 
L 162.220603 -255.0875 
L 161.05522 -255.0875 
L 159.889838 -255.0875 
L 158.724455 -255.0875 
L 157.559073 -255.0875 
L 156.39369 -255.0875 
L 155.228308 -255.0875 
L 154.062926 -255.0875 
L 152.897543 -255.0875 
L 151.732161 -255.0875 
L 150.566778 -255.0875 
L 149.401396 -255.0875 
L 148.236013 -255.0875 
L 147.070631 -255.0875 
L 145.905248 -255.0875 
L 144.739866 -255.0875 
L 143.574483 -255.0875 
L 142.409101 -255.0875 
L 141.243718 -255.0875 
L 140.078336 -255.0875 
L 138.912953 -255.0875 
L 137.747571 -255.0875 
L 136.582188 -255.0875 
L 135.416806 -255.0875 
L 134.251423 -255.0875 
L 133.086041 -255.0875 
L 131.920658 -255.0875 
L 130.755276 -255.0875 
L 129.589894 -255.0875 
L 128.424511 -255.0875 
L 127.259129 -255.0875 
L 126.093746 -255.0875 
L 124.928364 -255.0875 
L 123.762981 -255.0875 
L 122.597599 -255.0875 
L 121.432216 -255.0875 
L 120.266834 -255.0875 
L 119.101451 -255.0875 
L 117.936069 -255.0875 
L 116.770686 -255.0875 
L 115.605304 -255.0875 
L 114.439921 -255.0875 
L 113.274539 -255.0875 
L 112.109156 -255.0875 
L 110.943774 -255.0875 
L 109.778391 -255.0875 
L 108.613009 -255.0875 
L 107.447626 -255.0875 
L 106.282244 -255.0875 
L 105.116862 -255.0875 
L 103.951479 -255.0875 
L 102.786097 -255.0875 
L 101.620714 -255.0875 
L 100.455332 -255.0875 
L 99.289949 -255.0875 
L 98.124567 -255.0875 
L 96.959184 -255.0875 
L 95.793802 -255.0875 
L 94.628419 -255.0875 
L 93.463037 -255.0875 
L 92.297654 -255.0875 
L 91.132272 -255.0875 
L 89.966889 -255.0875 
L 88.801507 -255.0875 
L 87.636124 -255.0875 
L 86.470742 -255.0875 
L 85.305359 -255.0875 
L 84.139977 -255.0875 
L 82.974594 -255.0875 
L 81.809212 -255.0875 
L 80.64383 -255.0875 
L 79.478447 -255.0875 
L 78.313065 -255.0875 
L 77.147682 -255.0875 
L 75.9823 -255.0875 
L 74.816917 -255.0875 
L 73.651535 -255.0875 
L 72.486152 -255.0875 
L 71.32077 -255.0875 
L 70.155387 -255.0875 
L 68.990005 -255.0875 
L 67.824622 -255.0875 
L 66.65924 -255.0875 
L 65.493857 -255.0875 
L 64.328475 -255.0875 
L 63.163092 -255.0875 
L 61.99771 -255.0875 
L 60.832327 -255.0875 
L 59.666945 -255.0875 
L 58.501563 -255.0875 
z
" style="stroke: #a3583c; stroke-opacity: 0.08"/>
    </defs>
    <g clip-path="url(#pf8579dd879)">
     <use xlink:href="#m582e441f28" x="0" y="499.624687" style="fill: #a3583c; fill-opacity: 0.08; stroke: #a3583c; stroke-opacity: 0.08"/>
    </g>
   </g>
   <g id="matplotlib.axis_1">
    <g id="xtick_1">
     <g id="line2d_1">
      <path d="M 58.501563 453.877187 
L 58.501563 35.197187 
" clip-path="url(#pf8579dd879)" style="fill: none; stroke: #d9cbb6; stroke-opacity: 0.45; stroke-width: 0.8; stroke-linecap: square"/>
     </g>
     <g id="line2d_2">
      <defs>
       <path id="m6f9804e235" d="M 0 0 
L 0 3.5 
" style="stroke: #756a5d; stroke-width: 0.8"/>
      </defs>
      <g>
       <use xlink:href="#m6f9804e235" x="58.501563" y="453.877187" style="fill: #756a5d; stroke: #756a5d; stroke-width: 0.8"/>
      </g>
     </g>
     <g id="text_1">
      <text style="font-size: 11px; font-family: 'DejaVu Serif'; text-anchor: middle; fill: #756a5d" x="58.501563" y="469.235469" transform="rotate(-0 58.501563 469.235469)">0.0</text>
     </g>
    </g>
    <g id="xtick_2">
     <g id="line2d_3">
      <path d="M 226.083562 453.877187 
L 226.083562 35.197187 
" clip-path="url(#pf8579dd879)" style="fill: none; stroke: #d9cbb6; stroke-opacity: 0.45; stroke-width: 0.8; stroke-linecap: square"/>
     </g>
     <g id="line2d_4">
      <g>
       <use xlink:href="#m6f9804e235" x="226.083562" y="453.877187" style="fill: #756a5d; stroke: #756a5d; stroke-width: 0.8"/>
      </g>
     </g>
     <g id="text_2">
      <text style="font-size: 11px; font-family: 'DejaVu Serif'; text-anchor: middle; fill: #756a5d" x="226.083562" y="469.235469" transform="rotate(-0 226.083562 469.235469)">0.2</text>
     </g>
    </g>
    <g id="xtick_3">
     <g id="line2d_5">
      <path d="M 393.665562 453.877187 
L 393.665562 35.197187 
" clip-path="url(#pf8579dd879)" style="fill: none; stroke: #d9cbb6; stroke-opacity: 0.45; stroke-width: 0.8; stroke-linecap: square"/>
     </g>
     <g id="line2d_6">
      <g>
       <use xlink:href="#m6f9804e235" x="393.665562" y="453.877187" style="fill: #756a5d; stroke: #756a5d; stroke-width: 0.8"/>
      </g>
     </g>
     <g id="text_3">
      <text style="font-size: 11px; font-family: 'DejaVu Serif'; text-anchor: middle; fill: #756a5d" x="393.665562" y="469.235469" transform="rotate(-0 393.665562 469.235469)">0.4</text>
     </g>
    </g>
    <g id="xtick_4">
     <g id="line2d_7">
      <path d="M 561.247563 453.877187 
L 561.247563 35.197187 
" clip-path="url(#pf8579dd879)" style="fill: none; stroke: #d9cbb6; stroke-opacity: 0.45; stroke-width: 0.8; stroke-linecap: square"/>
     </g>
     <g id="line2d_8">
      <g>
       <use xlink:href="#m6f9804e235" x="561.247563" y="453.877187" style="fill: #756a5d; stroke: #756a5d; stroke-width: 0.8"/>
      </g>
     </g>
     <g id="text_4">
      <text style="font-size: 11px; font-family: 'DejaVu Serif'; text-anchor: middle; fill: #756a5d" x="561.247563" y="469.235469" transform="rotate(-0 561.247563 469.235469)">0.6</text>
     </g>
    </g>
    <g id="xtick_5">
     <g id="line2d_9">
      <path d="M 728.829562 453.877187 
L 728.829562 35.197187 
" clip-path="url(#pf8579dd879)" style="fill: none; stroke: #d9cbb6; stroke-opacity: 0.45; stroke-width: 0.8; stroke-linecap: square"/>
     </g>
     <g id="line2d_10">
      <g>
       <use xlink:href="#m6f9804e235" x="728.829562" y="453.877187" style="fill: #756a5d; stroke: #756a5d; stroke-width: 0.8"/>
      </g>
     </g>
     <g id="text_5">
      <text style="font-size: 11px; font-family: 'DejaVu Serif'; text-anchor: middle; fill: #756a5d" x="728.829562" y="469.235469" transform="rotate(-0 728.829562 469.235469)">0.8</text>
     </g>
    </g>
    <g id="xtick_6">
     <g id="line2d_11">
      <path d="M 896.411562 453.877187 
L 896.411562 35.197187 
" clip-path="url(#pf8579dd879)" style="fill: none; stroke: #d9cbb6; stroke-opacity: 0.45; stroke-width: 0.8; stroke-linecap: square"/>
     </g>
     <g id="line2d_12">
      <g>
       <use xlink:href="#m6f9804e235" x="896.411562" y="453.877187" style="fill: #756a5d; stroke: #756a5d; stroke-width: 0.8"/>
      </g>
     </g>
     <g id="text_6">
      <text style="font-size: 11px; font-family: 'DejaVu Serif'; text-anchor: middle; fill: #756a5d" x="896.411562" y="469.235469" transform="rotate(-0 896.411562 469.235469)">1.0</text>
     </g>
    </g>
    <g id="text_7">
     <text style="font-size: 13px; font-family: 'DejaVu Serif'; text-anchor: middle; fill: #1f1b16" x="477.456563" y="485.401094" transform="rotate(-0 477.456563 485.401094)">Orbital phase</text>
    </g>
   </g>
   <g id="matplotlib.axis_2">
    <g id="ytick_1">
     <g id="line2d_13">
      <path d="M 58.501563 408.923364 
L 896.411562 408.923364 
" clip-path="url(#pf8579dd879)" style="fill: none; stroke: #d9cbb6; stroke-opacity: 0.45; stroke-width: 0.8; stroke-linecap: square"/>
     </g>
     <g id="line2d_14">
      <defs>
       <path id="m410c280790" d="M 0 0 
L -3.5 0 
" style="stroke: #756a5d; stroke-width: 0.8"/>
      </defs>
      <g>
       <use xlink:href="#m410c280790" x="58.501563" y="408.923364" style="fill: #756a5d; stroke: #756a5d; stroke-width: 0.8"/>
      </g>
     </g>
     <g id="text_8">
      <text style="font-size: 11px; font-family: 'DejaVu Serif'; text-anchor: end; fill: #756a5d" x="51.501563" y="413.102505" transform="rotate(-0 51.501563 413.102505)">−10</text>
     </g>
    </g>
    <g id="ytick_2">
     <g id="line2d_15">
      <path d="M 58.501563 326.730276 
L 896.411562 326.730276 
" clip-path="url(#pf8579dd879)" style="fill: none; stroke: #d9cbb6; stroke-opacity: 0.45; stroke-width: 0.8; stroke-linecap: square"/>
     </g>
     <g id="line2d_16">
      <g>
       <use xlink:href="#m410c280790" x="58.501563" y="326.730276" style="fill: #756a5d; stroke: #756a5d; stroke-width: 0.8"/>
      </g>
     </g>
     <g id="text_9">
      <text style="font-size: 11px; font-family: 'DejaVu Serif'; text-anchor: end; fill: #756a5d" x="51.501563" y="330.909417" transform="rotate(-0 51.501563 330.909417)">−5</text>
     </g>
    </g>
    <g id="ytick_3">
     <g id="line2d_17">
      <path d="M 58.501563 244.537187 
L 896.411562 244.537187 
" clip-path="url(#pf8579dd879)" style="fill: none; stroke: #d9cbb6; stroke-opacity: 0.45; stroke-width: 0.8; stroke-linecap: square"/>
     </g>
     <g id="line2d_18">
      <g>
       <use xlink:href="#m410c280790" x="58.501563" y="244.537187" style="fill: #756a5d; stroke: #756a5d; stroke-width: 0.8"/>
      </g>
     </g>
     <g id="text_10">
      <text style="font-size: 11px; font-family: 'DejaVu Serif'; text-anchor: end; fill: #756a5d" x="51.501563" y="248.716328" transform="rotate(-0 51.501563 248.716328)">0</text>
     </g>
    </g>
    <g id="ytick_4">
     <g id="line2d_19">
      <path d="M 58.501563 162.344099 
L 896.411562 162.344099 
" clip-path="url(#pf8579dd879)" style="fill: none; stroke: #d9cbb6; stroke-opacity: 0.45; stroke-width: 0.8; stroke-linecap: square"/>
     </g>
     <g id="line2d_20">
      <g>
       <use xlink:href="#m410c280790" x="58.501563" y="162.344099" style="fill: #756a5d; stroke: #756a5d; stroke-width: 0.8"/>
      </g>
     </g>
     <g id="text_11">
      <text style="font-size: 11px; font-family: 'DejaVu Serif'; text-anchor: end; fill: #756a5d" x="51.501563" y="166.52324" transform="rotate(-0 51.501563 166.52324)">5</text>
     </g>
    </g>
    <g id="ytick_5">
     <g id="line2d_21">
      <path d="M 58.501563 80.151011 
L 896.411562 80.151011 
" clip-path="url(#pf8579dd879)" style="fill: none; stroke: #d9cbb6; stroke-opacity: 0.45; stroke-width: 0.8; stroke-linecap: square"/>
     </g>
     <g id="line2d_22">
      <g>
       <use xlink:href="#m410c280790" x="58.501563" y="80.151011" style="fill: #756a5d; stroke: #756a5d; stroke-width: 0.8"/>
      </g>
     </g>
     <g id="text_12">
      <text style="font-size: 11px; font-family: 'DejaVu Serif'; text-anchor: end; fill: #756a5d" x="51.501563" y="84.330151" transform="rotate(-0 51.501563 84.330151)">10</text>
     </g>
    </g>
    <g id="text_13">
     <text style="font-size: 13px; font-family: 'DejaVu Serif'; text-anchor: middle; fill: #1f1b16" x="21.397969" y="244.537187" transform="rotate(-90 21.397969 244.537187)">Stellar radial velocity (m/s)</text>
    </g>
   </g>
   <g id="line2d_23">
    <path d="M 58.501563 244.537187 
L 70.155387 278.343997 
L 77.147682 297.972599 
L 82.974594 313.678418 
L 87.636124 325.706424 
L 92.297654 337.1861 
L 96.959184 348.063885 
L 101.620714 358.298007 
L 106.282244 367.858263 
L 109.778391 374.574271 
L 113.274539 380.895864 
L 116.770686 386.821649 
L 120.266834 392.352903 
L 123.762981 397.493283 
L 127.259129 402.248533 
L 130.755276 406.626194 
L 134.251423 410.635324 
L 137.747571 414.286228 
L 141.243718 417.590215 
L 144.739866 420.559367 
L 148.236013 423.206335 
L 151.732161 425.544155 
L 155.228308 427.586085 
L 158.724455 429.345468 
L 162.220603 430.835608 
L 165.71675 432.06967 
L 169.212898 433.060598 
L 172.709045 433.821043 
L 176.205193 434.363311 
L 179.70134 434.699317 
L 183.197487 434.840557 
L 186.693635 434.798082 
L 190.189782 434.582487 
L 194.851312 434.043167 
L 199.512842 433.236741 
L 204.174372 432.184457 
L 208.835902 430.906128 
L 213.497432 429.420181 
L 219.324344 427.296711 
L 225.151257 424.906091 
L 230.978169 422.276077 
L 237.970464 418.839211 
L 244.962759 415.13236 
L 251.955053 411.189704 
L 260.112731 406.331859 
L 269.435791 400.490129 
L 278.75885 394.389542 
L 289.247293 387.271963 
L 302.0665 378.279595 
L 316.05109 368.185676 
L 332.366444 356.133578 
L 353.343329 340.337922 
L 380.147126 319.853612 
L 420.935512 288.36743 
L 593.412119 154.94311 
L 617.885151 136.426297 
L 636.53127 122.594366 
L 651.681243 111.625727 
L 664.50045 102.607643 
L 676.154275 94.684833 
L 686.642717 87.838876 
L 695.965777 82.033032 
L 704.123454 77.212511 
L 711.115749 73.306961 
L 718.108044 69.642617 
L 725.100339 66.254385 
L 730.927251 63.67016 
L 736.754163 61.330661 
L 742.581076 59.2642 
L 747.242606 57.828504 
L 751.904136 56.604906 
L 756.565665 55.612173 
L 761.227195 54.870475 
L 765.888725 54.401422 
L 769.384873 54.242386 
L 772.88102 54.259949 
L 776.377168 54.464861 
L 779.873315 54.868322 
L 783.369462 55.481972 
L 786.86561 56.317859 
L 790.361757 57.388411 
L 793.857905 58.706381 
L 797.354052 60.284797 
L 800.850199 62.13688 
L 804.346347 64.275959 
L 807.842494 66.715363 
L 811.338642 69.468293 
L 814.834789 72.547675 
L 818.330937 75.965992 
L 821.827084 79.735093 
L 825.323231 83.865978 
L 828.819379 88.368565 
L 832.315526 93.251437 
L 835.811674 98.521566 
L 839.307821 104.184036 
L 842.803969 110.241741 
L 846.300116 116.695101 
L 849.796263 123.541769 
L 853.292411 130.776368 
L 857.953941 141.01049 
L 862.615471 151.888275 
L 867.277001 163.367951 
L 871.938531 175.395957 
L 877.765443 191.101776 
L 884.757738 210.730378 
L 894.080798 237.72436 
L 896.411562 244.537187 
L 896.411562 244.537187 
" clip-path="url(#pf8579dd879)" style="fill: none; stroke: #a3583c; stroke-width: 2.6; stroke-linecap: square"/>
   </g>
   <g id="line2d_24">
    <path d="M 58.501563 244.537187 
L 896.411562 244.537187 
" clip-path="url(#pf8579dd879)" style="fill: none; stroke-dasharray: 5.365,2.32; stroke-dashoffset: 0; stroke: #9b9184; stroke-opacity: 0.65; stroke-width: 1.45"/>
   </g>
   <g id="patch_3">
    <path d="M 58.501563 453.877187 
L 58.501563 35.197187 
" style="fill: none; stroke: #b9a98f; stroke-width: 0.8; stroke-linejoin: miter; stroke-linecap: square"/>
   </g>
   <g id="patch_4">
    <path d="M 896.411562 453.877187 
L 896.411562 35.197187 
" style="fill: none; stroke: #b9a98f; stroke-width: 0.8; stroke-linejoin: miter; stroke-linecap: square"/>
   </g>
   <g id="patch_5">
    <path d="M 58.501563 453.877187 
L 896.411562 453.877187 
" style="fill: none; stroke: #b9a98f; stroke-width: 0.8; stroke-linejoin: miter; stroke-linecap: square"/>
   </g>
   <g id="patch_6">
    <path d="M 58.501563 35.197187 
L 896.411562 35.197187 
" style="fill: none; stroke: #b9a98f; stroke-width: 0.8; stroke-linejoin: miter; stroke-linecap: square"/>
   </g>
   <g id="text_14">
    <g id="patch_7">
     <path d="M 71.070213 72.760563 
L 358.385213 72.760563 
Q 361.465213 72.760563 361.465213 69.680563 
L 361.465213 56.131188 
Q 361.465213 53.051188 358.385213 53.051188 
L 71.070213 53.051188 
Q 67.990213 53.051188 67.990213 56.131188 
L 67.990213 69.680563 
Q 67.990213 72.760563 71.070213 72.760563 
z
" style="fill: #fffaf0; opacity: 0.88"/>
    </g>
    <text style="font-size: 14px; font-family: 'DejaVu Serif'; text-anchor: start; fill: #756a5d" x="71.070213" y="66.769" transform="rotate(-0 71.070213 66.769)">K ≈ 11.6 m s^-1 · P ≈ 385.2 d · e = 0.32</text>
   </g>
   <g id="text_15">
    <text style="font-size: 10.5px; font-family: 'DejaVu Serif'; text-anchor: end; fill: #756a5d" x="888.032462" y="443.170619" transform="rotate(-0 888.032462 443.170619)">single-planet Keplerian model</text>
   </g>
   <g id="text_16">
    <text style="font-weight: 700; font-size: 18px; font-family: 'DejaVu Serif'; text-anchor: start; fill: #1f1b16" x="58.501563" y="25.197187" transform="rotate(-0 58.501563 25.197187)">Keplerian RV model — ups Leo b</text>
   </g>
  </g>
 </g>
 <defs>
  <clipPath id="pf8579dd879">
   <rect x="58.501563" y="35.197187" width="837.91" height="418.68"/>
  </clipPath>
 </defs>
</svg>
