<?xml version="1.0" encoding="utf-8" standalone="no"?>
<!DOCTYPE svg PUBLIC "-//W3C//DTD SVG 1.1//EN"
  "http://www.w3.org/Graphics/SVG/1.1/DTD/svg11.dtd">
<svg xmlns:xlink="http://www.w3.org/1999/xlink" width="917.04pt" height="496.821531pt" viewBox="0 0 917.04 496.821531" xmlns="http://www.w3.org/2000/svg" version="1.1">
 <metadata>
  <rdf:RDF xmlns:dc="http://purl.org/dc/elements/1.1/" xmlns:cc="http://creativecommons.org/ns#" xmlns:rdf="http://www.w3.org/1999/02/22-rdf-syntax-ns#">
   <cc:Work>
    <dc:type rdf:resource="http://purl.org/dc/dcmitype/StillImage"/>
    <dc:date>2026-05-11T14:16:31.958817</dc:date>
    <dc:format>image/svg+xml</dc:format>
    <dc:creator>
     <cc:Agent>
      <dc:title>Matplotlib v3.10.8, https://matplotlib.org/</dc:title>
     </cc:Agent>
    </dc:creator>
   </cc:Work>
  </rdf:RDF>
 </metadata>
 <defs>
  <style type="text/css">*{stroke-linejoin: round; stroke-linecap: butt}</style>
 </defs>
 <g id="figure_1">
  <g id="patch_1">
   <path d="M 0 496.821531 
L 917.04 496.821531 
L 917.04 0 
L 0 0 
z
" style="fill: #fffaf0"/>
  </g>
  <g id="axes_1">
   <g id="patch_2">
    <path d="M 11.52 450.889187 
L 905.52 450.889187 
L 905.52 35.197187 
L 11.52 35.197187 
z
" style="fill: #fffaf0"/>
   </g>
   <g id="patch_3">
    <path d="M 314.714513 367.750787 
L 693.033086 367.750787 
L 693.033086 118.335587 
L 314.714513 118.335587 
z
" clip-path="url(#p18b54cd977)" style="fill: #687b5d; opacity: 0.18; stroke: #687b5d; stroke-linejoin: miter"/>
   </g>
   <g id="patch_4">
    <path d="M 404.450177 326.181587 
L 672.772469 326.181587 
L 672.772469 159.904787 
L 404.450177 159.904787 
z
" clip-path="url(#p18b54cd977)" style="fill: #687b5d; opacity: 0.34; stroke: #687b5d; stroke-linejoin: miter"/>
   </g>
   <g id="matplotlib.axis_1">
    <g id="xtick_1">
     <g id="line2d_1">
      <path d="M 745.471914 450.889187 
L 745.471914 35.197187 
" clip-path="url(#p18b54cd977)" style="fill: none; stroke: #d9cbb6; stroke-opacity: 0.45; stroke-width: 0.8; stroke-linecap: square"/>
     </g>
     <g id="line2d_2">
      <defs>
       <path id="m0673d49674" d="M 0 0 
L 0 3.5 
" style="stroke: #756a5d; stroke-width: 0.8"/>
      </defs>
      <g>
       <use xlink:href="#m0673d49674" x="745.471914" y="450.889187" style="fill: #756a5d; stroke: #756a5d; stroke-width: 0.8"/>
      </g>
     </g>
     <g id="text_1">
      <!-- $\mathdefault{10^{-1}}$ -->
      <g style="fill: #756a5d" transform="translate(732.601914 466.247469)">
       <text>
        <tspan x="0" y="-0.2875" style="font-size: 11px; font-family: 'DejaVu Serif'; fill: #756a5d">1</tspan>
        <tspan x="6.998535" y="-0.2875" style="font-size: 11px; font-family: 'DejaVu Serif'; fill: #756a5d">0</tspan>
        <tspan x="14.096875" y="-4.279688" style="font-size: 7.7px; font-family: 'DejaVu Serif'; fill: #756a5d">−</tspan>
        <tspan x="20.548633" y="-4.279688" style="font-size: 7.7px; font-family: 'DejaVu Serif'; fill: #756a5d">1</tspan>
       </text>
      </g>
     </g>
    </g>
    <g id="xtick_2">
     <g id="line2d_3">
      <path d="M 134.366039 450.889187 
L 134.366039 35.197187 
" clip-path="url(#p18b54cd977)" style="fill: none; stroke: #d9cbb6; stroke-opacity: 0.18; stroke-width: 0.8; stroke-linecap: square"/>
     </g>
     <g id="line2d_4">
      <defs>
       <path id="m05c8cf1ad6" d="M 0 0 
L 0 2 
" style="stroke: #756a5d; stroke-width: 0.6"/>
      </defs>
      <g>
       <use xlink:href="#m05c8cf1ad6" x="134.366039" y="450.889187" style="fill: #756a5d; stroke: #756a5d; stroke-width: 0.6"/>
      </g>
     </g>
    </g>
    <g id="xtick_3">
     <g id="line2d_5">
      <path d="M 288.32172 450.889187 
L 288.32172 35.197187 
" clip-path="url(#p18b54cd977)" style="fill: none; stroke: #d9cbb6; stroke-opacity: 0.18; stroke-width: 0.8; stroke-linecap: square"/>
     </g>
     <g id="line2d_6">
      <g>
       <use xlink:href="#m05c8cf1ad6" x="288.32172" y="450.889187" style="fill: #756a5d; stroke: #756a5d; stroke-width: 0.6"/>
      </g>
     </g>
    </g>
    <g id="xtick_4">
     <g id="line2d_7">
      <path d="M 397.555014 450.889187 
L 397.555014 35.197187 
" clip-path="url(#p18b54cd977)" style="fill: none; stroke: #d9cbb6; stroke-opacity: 0.18; stroke-width: 0.8; stroke-linecap: square"/>
     </g>
     <g id="line2d_8">
      <g>
       <use xlink:href="#m05c8cf1ad6" x="397.555014" y="450.889187" style="fill: #756a5d; stroke: #756a5d; stroke-width: 0.6"/>
      </g>
     </g>
    </g>
    <g id="xtick_5">
     <g id="line2d_9">
      <path d="M 482.282939 450.889187 
L 482.282939 35.197187 
" clip-path="url(#p18b54cd977)" style="fill: none; stroke: #d9cbb6; stroke-opacity: 0.18; stroke-width: 0.8; stroke-linecap: square"/>
     </g>
     <g id="line2d_10">
      <g>
       <use xlink:href="#m05c8cf1ad6" x="482.282939" y="450.889187" style="fill: #756a5d; stroke: #756a5d; stroke-width: 0.6"/>
      </g>
     </g>
    </g>
    <g id="xtick_6">
     <g id="line2d_11">
      <path d="M 551.510695 450.889187 
L 551.510695 35.197187 
" clip-path="url(#p18b54cd977)" style="fill: none; stroke: #d9cbb6; stroke-opacity: 0.18; stroke-width: 0.8; stroke-linecap: square"/>
     </g>
     <g id="line2d_12">
      <g>
       <use xlink:href="#m05c8cf1ad6" x="551.510695" y="450.889187" style="fill: #756a5d; stroke: #756a5d; stroke-width: 0.6"/>
      </g>
     </g>
    </g>
    <g id="xtick_7">
     <g id="line2d_13">
      <path d="M 610.041928 450.889187 
L 610.041928 35.197187 
" clip-path="url(#p18b54cd977)" style="fill: none; stroke: #d9cbb6; stroke-opacity: 0.18; stroke-width: 0.8; stroke-linecap: square"/>
     </g>
     <g id="line2d_14">
      <g>
       <use xlink:href="#m05c8cf1ad6" x="610.041928" y="450.889187" style="fill: #756a5d; stroke: #756a5d; stroke-width: 0.6"/>
      </g>
     </g>
    </g>
    <g id="xtick_8">
     <g id="line2d_15">
      <path d="M 660.743989 450.889187 
L 660.743989 35.197187 
" clip-path="url(#p18b54cd977)" style="fill: none; stroke: #d9cbb6; stroke-opacity: 0.18; stroke-width: 0.8; stroke-linecap: square"/>
     </g>
     <g id="line2d_16">
      <g>
       <use xlink:href="#m05c8cf1ad6" x="660.743989" y="450.889187" style="fill: #756a5d; stroke: #756a5d; stroke-width: 0.6"/>
      </g>
     </g>
    </g>
    <g id="xtick_9">
     <g id="line2d_17">
      <path d="M 705.466376 450.889187 
L 705.466376 35.197187 
" clip-path="url(#p18b54cd977)" style="fill: none; stroke: #d9cbb6; stroke-opacity: 0.18; stroke-width: 0.8; stroke-linecap: square"/>
     </g>
     <g id="line2d_18">
      <g>
       <use xlink:href="#m05c8cf1ad6" x="705.466376" y="450.889187" style="fill: #756a5d; stroke: #756a5d; stroke-width: 0.6"/>
      </g>
     </g>
    </g>
    <g id="text_2">
     <text style="font-size: 13px; font-family: 'DejaVu Serif'; text-anchor: middle; fill: #1f1b16" x="458.52" y="482.413094" transform="rotate(-0 458.52 482.413094)">Orbital distance (AU, log scale)</text>
    </g>
   </g>
   <g id="matplotlib.axis_2"/>
   <g id="line2d_19">
    <path d="M 411.692033 450.889187 
L 411.692033 35.197187 
" clip-path="url(#p18b54cd977)" style="fill: none; stroke: #a3583c; stroke-width: 2.8; stroke-linecap: square"/>
   </g>
   <g id="line2d_20">
    <path d="M 314.714513 450.889187 
L 314.714513 35.197187 
" clip-path="url(#p18b54cd977)" style="fill: none; stroke-dasharray: 5.365,2.32; stroke-dashoffset: 0; stroke: #7f8d70; stroke-opacity: 0.65; stroke-width: 1.45"/>
   </g>
   <g id="line2d_21">
    <path d="M 404.450177 450.889187 
L 404.450177 35.197187 
" clip-path="url(#p18b54cd977)" style="fill: none; stroke-dasharray: 5.365,2.32; stroke-dashoffset: 0; stroke: #7f8d70; stroke-opacity: 0.65; stroke-width: 1.45"/>
   </g>
   <g id="line2d_22">
    <path d="M 672.772469 450.889187 
L 672.772469 35.197187 
" clip-path="url(#p18b54cd977)" style="fill: none; stroke-dasharray: 5.365,2.32; stroke-dashoffset: 0; stroke: #7f8d70; stroke-opacity: 0.65; stroke-width: 1.45"/>
   </g>
   <g id="line2d_23">
    <path d="M 693.033086 450.889187 
L 693.033086 35.197187 
" clip-path="url(#p18b54cd977)" style="fill: none; stroke-dasharray: 5.365,2.32; stroke-dashoffset: 0; stroke: #7f8d70; stroke-opacity: 0.65; stroke-width: 1.45"/>
   </g>
   <g id="patch_5">
    <path d="M 11.52 450.889187 
L 11.52 35.197187 
" style="fill: none; stroke: #b9a98f; stroke-width: 0.8; stroke-linejoin: miter; stroke-linecap: square"/>
   </g>
   <g id="patch_6">
    <path d="M 905.52 450.889187 
L 905.52 35.197187 
" style="fill: none; stroke: #b9a98f; stroke-width: 0.8; stroke-linejoin: miter; stroke-linecap: square"/>
   </g>
   <g id="patch_7">
    <path d="M 11.52 450.889187 
L 905.52 450.889187 
" style="fill: none; stroke: #b9a98f; stroke-width: 0.8; stroke-linejoin: miter; stroke-linecap: square"/>
   </g>
   <g id="patch_8">
    <path d="M 11.52 35.197187 
L 905.52 35.197187 
" style="fill: none; stroke: #b9a98f; stroke-width: 0.8; stroke-linejoin: miter; stroke-linecap: square"/>
   </g>
   <g id="text_3">
    <text style="font-size: 11.5px; font-family: 'DejaVu Serif'; fill: #756a5d" transform="translate(312.322873 169.403677) rotate(-90)">recent Venus</text>
   </g>
   <g id="text_4">
    <text style="font-size: 11.5px; font-family: 'DejaVu Serif'; fill: #756a5d" transform="translate(401.895021 185.327877) rotate(-90)">runaway</text>
   </g>
   <g id="text_5">
    <text style="font-size: 11.5px; font-family: 'DejaVu Serif'; fill: #756a5d" transform="translate(670.217313 231.187721) rotate(-90)">max greenhouse</text>
   </g>
   <g id="text_6">
    <text style="font-size: 11.5px; font-family: 'DejaVu Serif'; fill: #756a5d" transform="translate(690.477929 156.414067) rotate(-90)">early Mars</text>
   </g>
   <g id="text_7">
    <g id="patch_9">
     <path d="M 24.93 72.611162 
L 258.5725 72.611162 
Q 261.6525 72.611162 261.6525 69.531162 
L 261.6525 55.981787 
Q 261.6525 52.901787 258.5725 52.901787 
L 24.93 52.901787 
Q 21.85 52.901787 21.85 55.981787 
L 21.85 69.531162 
Q 21.85 72.611162 24.93 72.611162 
z
" style="fill: #fffaf0; opacity: 0.88"/>
    </g>
    <text style="font-size: 14px; font-family: 'DejaVu Serif'; text-anchor: start; fill: #756a5d" x="24.93" y="66.6196" transform="rotate(-0 24.93 66.6196)">L* ≈ 0.002 Lsun · a ≈ 0.0415 AU</text>
   </g>
   <g id="text_8">
    <text style="font-size: 10.5px; font-family: 'DejaVu Serif'; text-anchor: end; fill: #756a5d" x="896.58" y="440.242379" transform="rotate(-0 896.58 440.242379)">Kopparapu-style HZ limits</text>
   </g>
   <g id="text_9">
    <text style="font-weight: 700; font-size: 18px; font-family: 'DejaVu Serif'; text-anchor: start; fill: #1f1b16" x="11.52" y="25.197187" transform="rotate(-0 11.52 25.197187)">Habitable-zone placement — TRAPPIST-1 f</text>
   </g>
   <g id="PathCollection_1">
    <defs>
     <path id="mc56ba3cbba" d="M 0 10.954451 
C 2.905154 10.954451 5.691712 9.800221 7.745967 7.745967 
C 9.800221 5.691712 10.954451 2.905154 10.954451 0 
C 10.954451 -2.905154 9.800221 -5.691712 7.745967 -7.745967 
C 5.691712 -9.800221 2.905154 -10.954451 0 -10.954451 
C -2.905154 -10.954451 -5.691712 -9.800221 -7.745967 -7.745967 
C -9.800221 -5.691712 -10.954451 -2.905154 -10.954451 0 
C -10.954451 2.905154 -9.800221 5.691712 -7.745967 7.745967 
C -5.691712 9.800221 -2.905154 10.954451 0 10.954451 
z
" style="stroke: #7b4b18"/>
    </defs>
    <g clip-path="url(#p18b54cd977)">
     <use xlink:href="#mc56ba3cbba" x="40.742217" y="243.043187" style="fill: #b9792b; stroke: #7b4b18"/>
    </g>
   </g>
   <g id="PathCollection_2">
    <defs>
     <path id="m3d36afd284" d="M 0 6.020797 
C 1.596734 6.020797 3.128285 5.386408 4.257347 4.257347 
C 5.386408 3.128285 6.020797 1.596734 6.020797 0 
C 6.020797 -1.596734 5.386408 -3.128285 4.257347 -4.257347 
C 3.128285 -5.386408 1.596734 -6.020797 0 -6.020797 
C -1.596734 -6.020797 -3.128285 -5.386408 -4.257347 -4.257347 
C -5.386408 -3.128285 -6.020797 -1.596734 -6.020797 0 
C -6.020797 1.596734 -5.386408 3.128285 -4.257347 4.257347 
C -3.128285 5.386408 -1.596734 6.020797 0 6.020797 
z
" style="stroke: #1f1b16; stroke-width: 0.7"/>
    </defs>
    <g clip-path="url(#p18b54cd977)">
     <use xlink:href="#m3d36afd284" x="411.692033" y="243.043187" style="fill: #a3583c; stroke: #1f1b16; stroke-width: 0.7"/>
    </g>
   </g>
   <g id="legend_1">
    <g id="patch_10">
     <path d="M 261.366094 453.953027 
L 655.673906 453.953027 
Q 657.773906 453.953027 657.773906 451.853027 
L 657.773906 437.490996 
Q 657.773906 435.390996 655.673906 435.390996 
L 261.366094 435.390996 
Q 259.266094 435.390996 259.266094 437.490996 
L 259.266094 451.853027 
Q 259.266094 453.953027 261.366094 453.953027 
z
" style="fill: #fffaf0; opacity: 0.92; stroke: #d4c3aa; stroke-linejoin: miter"/>
    </g>
    <g id="patch_11">
     <path d="M 263.466094 447.569356 
L 284.466094 447.569356 
L 284.466094 440.219356 
L 263.466094 440.219356 
z
" style="fill: #687b5d; opacity: 0.18; stroke: #687b5d; stroke-linejoin: miter"/>
    </g>
    <g id="text_10">
     <text style="font-size: 10.5px; font-family: 'DejaVu Serif'; text-anchor: start" x="292.866094" y="447.569356" transform="rotate(-0 292.866094 447.569356)">optimistic HZ</text>
    </g>
    <g id="patch_12">
     <path d="M 386.4375 447.569356 
L 407.4375 447.569356 
L 407.4375 440.219356 
L 386.4375 440.219356 
z
" style="fill: #687b5d; opacity: 0.34; stroke: #687b5d; stroke-linejoin: miter"/>
    </g>
    <g id="text_11">
     <text style="font-size: 10.5px; font-family: 'DejaVu Serif'; text-anchor: start" x="415.8375" y="447.569356" transform="rotate(-0 415.8375 447.569356)">conservative HZ</text>
    </g>
    <g id="line2d_24">
     <path d="M 524.130234 443.894356 
L 534.630234 443.894356 
L 545.130234 443.894356 
" style="fill: none; stroke: #a3583c; stroke-width: 2.8; stroke-linecap: square"/>
    </g>
    <g id="text_12">
     <text style="font-size: 10.5px; font-family: 'DejaVu Serif'; text-anchor: start" x="553.530234" y="447.569356" transform="rotate(-0 553.530234 447.569356)">TRAPPIST-1 f orbit</text>
    </g>
   </g>
  </g>
 </g>
 <defs>
  <clipPath id="p18b54cd977">
   <rect x="11.52" y="35.197187" width="894" height="415.692"/>
  </clipPath>
 </defs>
</svg>
