<?xml version="1.0" encoding="utf-8" standalone="no"?>
<!DOCTYPE svg PUBLIC "-//W3C//DTD SVG 1.1//EN"
  "http://www.w3.org/Graphics/SVG/1.1/DTD/svg11.dtd">
<svg xmlns:xlink="http://www.w3.org/1999/xlink" width="916.754219pt" height="499.624687pt" viewBox="0 0 916.754219 499.624687" xmlns="http://www.w3.org/2000/svg" version="1.1">
 <metadata>
  <rdf:RDF xmlns:dc="http://purl.org/dc/elements/1.1/" xmlns:cc="http://creativecommons.org/ns#" xmlns:rdf="http://www.w3.org/1999/02/22-rdf-syntax-ns#">
   <cc:Work>
    <dc:type rdf:resource="http://purl.org/dc/dcmitype/StillImage"/>
    <dc:date>2026-05-11T11:57:49.333206</dc:date>
    <dc:format>image/svg+xml</dc:format>
    <dc:creator>
     <cc:Agent>
      <dc:title>Matplotlib v3.10.9, https://matplotlib.org/</dc:title>
     </cc:Agent>
    </dc:creator>
   </cc:Work>
  </rdf:RDF>
 </metadata>
 <defs>
  <style type="text/css">*{stroke-linejoin: round; stroke-linecap: butt}</style>
 </defs>
 <g id="figure_1">
  <g id="patch_1">
   <path d="M 0 499.624687 
L 916.754219 499.624687 
L 916.754219 0 
L 0 0 
z
" style="fill: #fffaf0"/>
  </g>
  <g id="axes_1">
   <g id="patch_2">
    <path d="M 61.9975 453.877187 
L 896.4875 453.877187 
L 896.4875 35.197187 
L 61.9975 35.197187 
z
" style="fill: #fffaf0"/>
   </g>
   <g id="FillBetweenPolyCollection_1">
    <defs>
     <path id="m842529f6b5" d="M 61.9975 -255.0875 
L 61.9975 -255.0875 
L 63.158126 -253.390519 
L 64.318752 -251.693676 
L 65.479378 -249.997108 
L 66.640003 -248.300953 
L 67.800629 -246.605348 
L 68.961255 -244.910431 
L 70.121881 -243.216339 
L 71.282507 -241.52321 
L 72.443133 -239.831181 
L 73.603759 -238.140389 
L 74.764385 -236.450971 
L 75.92501 -234.763063 
L 77.085636 -233.076804 
L 78.246262 -231.392329 
L 79.406888 -229.709774 
L 80.567514 -228.029277 
L 81.72814 -226.350973 
L 82.888766 -224.674997 
L 84.049392 -223.001486 
L 85.210017 -221.330575 
L 86.370643 -219.662399 
L 87.531269 -217.997093 
L 88.691895 -216.334792 
L 89.852521 -214.675629 
L 91.013147 -213.019739 
L 92.173773 -211.367256 
L 93.334398 -209.718313 
L 94.495024 -208.073043 
L 95.65565 -206.431579 
L 96.816276 -204.794053 
L 97.976902 -203.160597 
L 99.137528 -201.531343 
L 100.298154 -199.906421 
L 101.45878 -198.285964 
L 102.619405 -196.6701 
L 103.780031 -195.058961 
L 104.940657 -193.452675 
L 106.101283 -191.851371 
L 107.261909 -190.255179 
L 108.422535 -188.664226 
L 109.583161 -187.078639 
L 110.743787 -185.498546 
L 111.904412 -183.924074 
L 113.065038 -182.355348 
L 114.225664 -180.792495 
L 115.38629 -179.235638 
L 116.546916 -177.684902 
L 117.707542 -176.140412 
L 118.868168 -174.60229 
L 120.028793 -173.070658 
L 121.189419 -171.54564 
L 122.350045 -170.027357 
L 123.510671 -168.515928 
L 124.671297 -167.011475 
L 125.831923 -165.514117 
L 126.992549 -164.023973 
L 128.153175 -162.54116 
L 129.3138 -161.065797 
L 130.474426 -159.598 
L 131.635052 -158.137885 
L 132.795678 -156.685568 
L 133.956304 -155.241163 
L 135.11693 -153.804784 
L 136.277556 -152.376545 
L 137.438182 -150.956558 
L 138.598807 -149.544934 
L 139.759433 -148.141785 
L 140.920059 -146.747221 
L 142.080685 -145.36135 
L 143.241311 -143.984282 
L 144.401937 -142.616124 
L 145.562563 -141.256983 
L 146.723188 -139.906966 
L 147.883814 -138.566177 
L 149.04444 -137.234721 
L 150.205066 -135.912702 
L 151.365692 -134.600222 
L 152.526318 -133.297383 
L 153.686944 -132.004286 
L 154.84757 -130.721031 
L 156.008195 -129.447718 
L 157.168821 -128.184444 
L 158.329447 -126.931308 
L 159.490073 -125.688405 
L 160.650699 -124.455831 
L 161.811325 -123.23368 
L 162.971951 -122.022048 
L 164.132576 -120.821025 
L 165.293202 -119.630704 
L 166.453828 -118.451177 
L 167.614454 -117.282531 
L 168.77508 -116.124858 
L 169.935706 -114.978244 
L 171.096332 -113.842776 
L 172.256958 -112.718541 
L 173.417583 -111.605623 
L 174.578209 -110.504106 
L 175.738835 -109.414074 
L 176.899461 -108.335608 
L 178.060087 -107.268788 
L 179.220713 -106.213696 
L 180.381339 -105.170409 
L 181.541965 -104.139006 
L 182.70259 -103.119564 
L 183.863216 -102.112157 
L 185.023842 -101.116861 
L 186.184468 -100.133749 
L 187.345094 -99.162894 
L 188.50572 -98.204368 
L 189.666346 -97.25824 
L 190.826971 -96.32458 
L 191.987597 -95.403457 
L 193.148223 -94.494937 
L 194.308849 -93.599087 
L 195.469475 -92.715971 
L 196.630101 -91.845653 
L 197.790727 -90.988197 
L 198.951353 -90.143664 
L 200.111978 -89.312114 
L 201.272604 -88.493607 
L 202.43323 -87.688201 
L 203.593856 -86.895954 
L 204.754482 -86.116922 
L 205.915108 -85.351159 
L 207.075734 -84.59872 
L 208.23636 -83.859657 
L 209.396985 -83.134022 
L 210.557611 -82.421865 
L 211.718237 -81.723236 
L 212.878863 -81.038183 
L 214.039489 -80.366753 
L 215.200115 -79.708992 
L 216.360741 -79.064945 
L 217.521366 -78.434655 
L 218.681992 -77.818165 
L 219.842618 -77.215516 
L 221.003244 -76.626749 
L 222.16387 -76.051902 
L 223.324496 -75.491014 
L 224.485122 -74.944121 
L 225.645748 -74.411259 
L 226.806373 -73.892463 
L 227.966999 -73.387764 
L 229.127625 -72.897197 
L 230.288251 -72.420791 
L 231.448877 -71.958577 
L 232.609503 -71.510584 
L 233.770129 -71.076838 
L 234.930755 -70.657366 
L 236.09138 -70.252194 
L 237.252006 -69.861346 
L 238.412632 -69.484844 
L 239.573258 -69.12271 
L 240.733884 -68.774965 
L 241.89451 -68.441628 
L 243.055136 -68.122718 
L 244.215761 -67.818251 
L 245.376387 -67.528245 
L 246.537013 -67.252713 
L 247.697639 -66.991669 
L 248.858265 -66.745126 
L 250.018891 -66.513096 
L 251.179517 -66.295588 
L 252.340143 -66.092612 
L 253.500768 -65.904176 
L 254.661394 -65.730286 
L 255.82202 -65.570949 
L 256.982646 -65.426169 
L 258.143272 -65.295949 
L 259.303898 -65.180292 
L 260.464524 -65.079199 
L 261.62515 -64.99267 
L 262.785775 -64.920704 
L 263.946401 -64.863299 
L 265.107027 -64.820451 
L 266.267653 -64.792156 
L 267.428279 -64.778409 
L 268.588905 -64.779203 
L 269.749531 -64.79453 
L 270.910156 -64.824381 
L 272.070782 -64.868747 
L 273.231408 -64.927617 
L 274.392034 -65.000977 
L 275.55266 -65.088816 
L 276.713286 -65.191118 
L 277.873912 -65.307869 
L 279.034538 -65.439051 
L 280.195163 -65.584648 
L 281.355789 -65.74464 
L 282.516415 -65.919008 
L 283.677041 -66.107731 
L 284.837667 -66.310788 
L 285.998293 -66.528155 
L 287.158919 -66.759808 
L 288.319545 -67.005723 
L 289.48017 -67.265873 
L 290.640796 -67.540231 
L 291.801422 -67.828769 
L 292.962048 -68.131458 
L 294.122674 -68.448268 
L 295.2833 -68.779168 
L 296.443926 -69.124125 
L 297.604551 -69.483105 
L 298.765177 -69.856076 
L 299.925803 -70.243 
L 301.086429 -70.643843 
L 302.247055 -71.058567 
L 303.407681 -71.487133 
L 304.568307 -71.929502 
L 305.728933 -72.385634 
L 306.889558 -72.855488 
L 308.050184 -73.339022 
L 309.21081 -73.836191 
L 310.371436 -74.346953 
L 311.532062 -74.871262 
L 312.692688 -75.409072 
L 313.853314 -75.960336 
L 315.013939 -76.525006 
L 316.174565 -77.103033 
L 317.335191 -77.694368 
L 318.495817 -78.298959 
L 319.656443 -78.916754 
L 320.817069 -79.547703 
L 321.977695 -80.19175 
L 323.138321 -80.848841 
L 324.298946 -81.518922 
L 325.459572 -82.201935 
L 326.620198 -82.897824 
L 327.780824 -83.606531 
L 328.94145 -84.327997 
L 330.102076 -85.062163 
L 331.262702 -85.808967 
L 332.423328 -86.568348 
L 333.583953 -87.340245 
L 334.744579 -88.124593 
L 335.905205 -88.921329 
L 337.065831 -89.730388 
L 338.226457 -90.551705 
L 339.387083 -91.385213 
L 340.547709 -92.230844 
L 341.708334 -93.088531 
L 342.86896 -93.958205 
L 344.029586 -94.839796 
L 345.190212 -95.733233 
L 346.350838 -96.638445 
L 347.511464 -97.555361 
L 348.67209 -98.483907 
L 349.832716 -99.42401 
L 350.993341 -100.375596 
L 352.153967 -101.338588 
L 353.314593 -102.312912 
L 354.475219 -103.298492 
L 355.635845 -104.295248 
L 356.796471 -105.303104 
L 357.957097 -106.321981 
L 359.117723 -107.351799 
L 360.278348 -108.392478 
L 361.438974 -109.443937 
L 362.5996 -110.506095 
L 363.760226 -111.578869 
L 364.920852 -112.662176 
L 366.081478 -113.755932 
L 367.242104 -114.860054 
L 368.402729 -115.974456 
L 369.563355 -117.099053 
L 370.723981 -118.233757 
L 371.884607 -119.378483 
L 373.045233 -120.533143 
L 374.205859 -121.697649 
L 375.366485 -122.871911 
L 376.527111 -124.05584 
L 377.687736 -125.249347 
L 378.848362 -126.45234 
L 380.008988 -127.664728 
L 381.169614 -128.88642 
L 382.33024 -130.117322 
L 383.490866 -131.357343 
L 384.651492 -132.606388 
L 385.812118 -133.864363 
L 386.972743 -135.131173 
L 388.133369 -136.406724 
L 389.293995 -137.690919 
L 390.454621 -138.983662 
L 391.615247 -140.284857 
L 392.775873 -141.594405 
L 393.936499 -142.912209 
L 395.097124 -144.238171 
L 396.25775 -145.572192 
L 397.418376 -146.914171 
L 398.579002 -148.26401 
L 399.739628 -149.621607 
L 400.900254 -150.986863 
L 402.06088 -152.359675 
L 403.221506 -153.739942 
L 404.382131 -155.127562 
L 405.542757 -156.522432 
L 406.703383 -157.924449 
L 407.864009 -159.333508 
L 409.024635 -160.749507 
L 410.185261 -162.172341 
L 411.345887 -163.601905 
L 412.506513 -165.038094 
L 413.667138 -166.480801 
L 414.827764 -167.929922 
L 415.98839 -169.38535 
L 417.149016 -170.846977 
L 418.309642 -172.314697 
L 419.470268 -173.788402 
L 420.630894 -175.267984 
L 421.791519 -176.753336 
L 422.952145 -178.244347 
L 424.112771 -179.74091 
L 425.273397 -181.242916 
L 426.434023 -182.750254 
L 427.594649 -184.262814 
L 428.755275 -185.780487 
L 429.915901 -187.303162 
L 431.076526 -188.830728 
L 432.237152 -190.363074 
L 433.397778 -191.900089 
L 434.558404 -193.441661 
L 435.71903 -194.987677 
L 436.879656 -196.538027 
L 438.040282 -198.092596 
L 439.200908 -199.651274 
L 440.361533 -201.213946 
L 441.522159 -202.780499 
L 442.682785 -204.35082 
L 443.843411 -205.924796 
L 445.004037 -207.502312 
L 446.164663 -209.083255 
L 447.325289 -210.66751 
L 448.485914 -212.254963 
L 449.64654 -213.845499 
L 450.807166 -215.439003 
L 451.967792 -217.03536 
L 453.128418 -218.634455 
L 454.289044 -220.236173 
L 455.44967 -221.840398 
L 456.610296 -223.447015 
L 457.770921 -225.055908 
L 458.931547 -226.666961 
L 460.092173 -228.280057 
L 461.252799 -229.895081 
L 462.413425 -231.511917 
L 463.574051 -233.130448 
L 464.734677 -234.750557 
L 465.895303 -236.372128 
L 467.055928 -237.995045 
L 468.216554 -239.619191 
L 469.37718 -241.244448 
L 470.537806 -242.870701 
L 471.698432 -244.497831 
L 472.859058 -246.125723 
L 474.019684 -247.754258 
L 475.180309 -249.383321 
L 476.340935 -251.012793 
L 477.501561 -252.642559 
L 478.662187 -254.2725 
L 479.822813 -255.9025 
L 480.983439 -257.532441 
L 482.144065 -259.162207 
L 483.304691 -260.791679 
L 484.465316 -262.420742 
L 485.625942 -264.049277 
L 486.786568 -265.677169 
L 487.947194 -267.304299 
L 489.10782 -268.930552 
L 490.268446 -270.555809 
L 491.429072 -272.179955 
L 492.589697 -273.802872 
L 493.750323 -275.424443 
L 494.910949 -277.044552 
L 496.071575 -278.663083 
L 497.232201 -280.279919 
L 498.392827 -281.894943 
L 499.553453 -283.508039 
L 500.714079 -285.119092 
L 501.874704 -286.727985 
L 503.03533 -288.334602 
L 504.195956 -289.938827 
L 505.356582 -291.540545 
L 506.517208 -293.13964 
L 507.677834 -294.735997 
L 508.83846 -296.329501 
L 509.999086 -297.920037 
L 511.159711 -299.50749 
L 512.320337 -301.091745 
L 513.480963 -302.672688 
L 514.641589 -304.250204 
L 515.802215 -305.82418 
L 516.962841 -307.394501 
L 518.123467 -308.961054 
L 519.284092 -310.523726 
L 520.444718 -312.082404 
L 521.605344 -313.636973 
L 522.76597 -315.187323 
L 523.926596 -316.733339 
L 525.087222 -318.274911 
L 526.247848 -319.811926 
L 527.408474 -321.344272 
L 528.569099 -322.871838 
L 529.729725 -324.394513 
L 530.890351 -325.912186 
L 532.050977 -327.424746 
L 533.211603 -328.932084 
L 534.372229 -330.43409 
L 535.532855 -331.930653 
L 536.693481 -333.421664 
L 537.854106 -334.907016 
L 539.014732 -336.386598 
L 540.175358 -337.860303 
L 541.335984 -339.328023 
L 542.49661 -340.78965 
L 543.657236 -342.245078 
L 544.817862 -343.694199 
L 545.978487 -345.136906 
L 547.139113 -346.573095 
L 548.299739 -348.002659 
L 549.460365 -349.425493 
L 550.620991 -350.841492 
L 551.781617 -352.250551 
L 552.942243 -353.652568 
L 554.102869 -355.047438 
L 555.263494 -356.435058 
L 556.42412 -357.815325 
L 557.584746 -359.188137 
L 558.745372 -360.553393 
L 559.905998 -361.91099 
L 561.066624 -363.260829 
L 562.22725 -364.602808 
L 563.387876 -365.936829 
L 564.548501 -367.262791 
L 565.709127 -368.580595 
L 566.869753 -369.890143 
L 568.030379 -371.191338 
L 569.191005 -372.484081 
L 570.351631 -373.768276 
L 571.512257 -375.043827 
L 572.672882 -376.310637 
L 573.833508 -377.568612 
L 574.994134 -378.817657 
L 576.15476 -380.057678 
L 577.315386 -381.28858 
L 578.476012 -382.510272 
L 579.636638 -383.72266 
L 580.797264 -384.925653 
L 581.957889 -386.11916 
L 583.118515 -387.303089 
L 584.279141 -388.477351 
L 585.439767 -389.641857 
L 586.600393 -390.796517 
L 587.761019 -391.941243 
L 588.921645 -393.075947 
L 590.082271 -394.200544 
L 591.242896 -395.314946 
L 592.403522 -396.419068 
L 593.564148 -397.512824 
L 594.724774 -398.596131 
L 595.8854 -399.668905 
L 597.046026 -400.731063 
L 598.206652 -401.782522 
L 599.367277 -402.823201 
L 600.527903 -403.853019 
L 601.688529 -404.871896 
L 602.849155 -405.879752 
L 604.009781 -406.876508 
L 605.170407 -407.862088 
L 606.331033 -408.836412 
L 607.491659 -409.799404 
L 608.652284 -410.75099 
L 609.81291 -411.691093 
L 610.973536 -412.619639 
L 612.134162 -413.536555 
L 613.294788 -414.441767 
L 614.455414 -415.335204 
L 615.61604 -416.216795 
L 616.776666 -417.086469 
L 617.937291 -417.944156 
L 619.097917 -418.789787 
L 620.258543 -419.623295 
L 621.419169 -420.444612 
L 622.579795 -421.253671 
L 623.740421 -422.050407 
L 624.901047 -422.834755 
L 626.061672 -423.606652 
L 627.222298 -424.366033 
L 628.382924 -425.112837 
L 629.54355 -425.847003 
L 630.704176 -426.568469 
L 631.864802 -427.277176 
L 633.025428 -427.973065 
L 634.186054 -428.656078 
L 635.346679 -429.326159 
L 636.507305 -429.98325 
L 637.667931 -430.627297 
L 638.828557 -431.258246 
L 639.989183 -431.876041 
L 641.149809 -432.480632 
L 642.310435 -433.071967 
L 643.471061 -433.649994 
L 644.631686 -434.214664 
L 645.792312 -434.765928 
L 646.952938 -435.303738 
L 648.113564 -435.828047 
L 649.27419 -436.338809 
L 650.434816 -436.835978 
L 651.595442 -437.319512 
L 652.756067 -437.789366 
L 653.916693 -438.245498 
L 655.077319 -438.687867 
L 656.237945 -439.116433 
L 657.398571 -439.531157 
L 658.559197 -439.932 
L 659.719823 -440.318924 
L 660.880449 -440.691895 
L 662.041074 -441.050875 
L 663.2017 -441.395832 
L 664.362326 -441.726732 
L 665.522952 -442.043542 
L 666.683578 -442.346231 
L 667.844204 -442.634769 
L 669.00483 -442.909127 
L 670.165455 -443.169277 
L 671.326081 -443.415192 
L 672.486707 -443.646845 
L 673.647333 -443.864212 
L 674.807959 -444.067269 
L 675.968585 -444.255992 
L 677.129211 -444.43036 
L 678.289837 -444.590352 
L 679.450462 -444.735949 
L 680.611088 -444.867131 
L 681.771714 -444.983882 
L 682.93234 -445.086184 
L 684.092966 -445.174023 
L 685.253592 -445.247383 
L 686.414218 -445.306253 
L 687.574844 -445.350619 
L 688.735469 -445.38047 
L 689.896095 -445.395797 
L 691.056721 -445.396591 
L 692.217347 -445.382844 
L 693.377973 -445.354549 
L 694.538599 -445.311701 
L 695.699225 -445.254296 
L 696.85985 -445.18233 
L 698.020476 -445.095801 
L 699.181102 -444.994708 
L 700.341728 -444.879051 
L 701.502354 -444.748831 
L 702.66298 -444.604051 
L 703.823606 -444.444714 
L 704.984232 -444.270824 
L 706.144857 -444.082388 
L 707.305483 -443.879412 
L 708.466109 -443.661904 
L 709.626735 -443.429874 
L 710.787361 -443.183331 
L 711.947987 -442.922287 
L 713.108613 -442.646755 
L 714.269239 -442.356749 
L 715.429864 -442.052282 
L 716.59049 -441.733372 
L 717.751116 -441.400035 
L 718.911742 -441.05229 
L 720.072368 -440.690156 
L 721.232994 -440.313654 
L 722.39362 -439.922806 
L 723.554245 -439.517634 
L 724.714871 -439.098162 
L 725.875497 -438.664416 
L 727.036123 -438.216423 
L 728.196749 -437.754209 
L 729.357375 -437.277803 
L 730.518001 -436.787236 
L 731.678627 -436.282537 
L 732.839252 -435.763741 
L 733.999878 -435.230879 
L 735.160504 -434.683986 
L 736.32113 -434.123098 
L 737.481756 -433.548251 
L 738.642382 -432.959484 
L 739.803008 -432.356835 
L 740.963634 -431.740345 
L 742.124259 -431.110055 
L 743.284885 -430.466008 
L 744.445511 -429.808247 
L 745.606137 -429.136817 
L 746.766763 -428.451764 
L 747.927389 -427.753135 
L 749.088015 -427.040978 
L 750.24864 -426.315343 
L 751.409266 -425.57628 
L 752.569892 -424.823841 
L 753.730518 -424.058078 
L 754.891144 -423.279046 
L 756.05177 -422.486799 
L 757.212396 -421.681393 
L 758.373022 -420.862886 
L 759.533647 -420.031336 
L 760.694273 -419.186803 
L 761.854899 -418.329347 
L 763.015525 -417.459029 
L 764.176151 -416.575913 
L 765.336777 -415.680063 
L 766.497403 -414.771543 
L 767.658029 -413.85042 
L 768.818654 -412.91676 
L 769.97928 -411.970632 
L 771.139906 -411.012106 
L 772.300532 -410.041251 
L 773.461158 -409.058139 
L 774.621784 -408.062843 
L 775.78241 -407.055436 
L 776.943035 -406.035994 
L 778.103661 -405.004591 
L 779.264287 -403.961304 
L 780.424913 -402.906212 
L 781.585539 -401.839392 
L 782.746165 -400.760926 
L 783.906791 -399.670894 
L 785.067417 -398.569377 
L 786.228042 -397.456459 
L 787.388668 -396.332224 
L 788.549294 -395.196756 
L 789.70992 -394.050142 
L 790.870546 -392.892469 
L 792.031172 -391.723823 
L 793.191798 -390.544296 
L 794.352424 -389.353975 
L 795.513049 -388.152952 
L 796.673675 -386.94132 
L 797.834301 -385.719169 
L 798.994927 -384.486595 
L 800.155553 -383.243692 
L 801.316179 -381.990556 
L 802.476805 -380.727282 
L 803.63743 -379.453969 
L 804.798056 -378.170714 
L 805.958682 -376.877617 
L 807.119308 -375.574778 
L 808.279934 -374.262298 
L 809.44056 -372.940279 
L 810.601186 -371.608823 
L 811.761812 -370.268034 
L 812.922437 -368.918017 
L 814.083063 -367.558876 
L 815.243689 -366.190718 
L 816.404315 -364.81365 
L 817.564941 -363.427779 
L 818.725567 -362.033215 
L 819.886193 -360.630066 
L 821.046818 -359.218442 
L 822.207444 -357.798455 
L 823.36807 -356.370216 
L 824.528696 -354.933837 
L 825.689322 -353.489432 
L 826.849948 -352.037115 
L 828.010574 -350.577 
L 829.1712 -349.109203 
L 830.331825 -347.63384 
L 831.492451 -346.151027 
L 832.653077 -344.660883 
L 833.813703 -343.163525 
L 834.974329 -341.659072 
L 836.134955 -340.147643 
L 837.295581 -338.62936 
L 838.456207 -337.104342 
L 839.616832 -335.57271 
L 840.777458 -334.034588 
L 841.938084 -332.490098 
L 843.09871 -330.939362 
L 844.259336 -329.382505 
L 845.419962 -327.819652 
L 846.580588 -326.250926 
L 847.741213 -324.676454 
L 848.901839 -323.096361 
L 850.062465 -321.510774 
L 851.223091 -319.919821 
L 852.383717 -318.323629 
L 853.544343 -316.722325 
L 854.704969 -315.116039 
L 855.865595 -313.5049 
L 857.02622 -311.889036 
L 858.186846 -310.268579 
L 859.347472 -308.643657 
L 860.508098 -307.014403 
L 861.668724 -305.380947 
L 862.82935 -303.743421 
L 863.989976 -302.101957 
L 865.150602 -300.456687 
L 866.311227 -298.807744 
L 867.471853 -297.155261 
L 868.632479 -295.499371 
L 869.793105 -293.840208 
L 870.953731 -292.177907 
L 872.114357 -290.512601 
L 873.274983 -288.844425 
L 874.435608 -287.173514 
L 875.596234 -285.500003 
L 876.75686 -283.824027 
L 877.917486 -282.145723 
L 879.078112 -280.465226 
L 880.238738 -278.782671 
L 881.399364 -277.098196 
L 882.55999 -275.411937 
L 883.720615 -273.724029 
L 884.881241 -272.034611 
L 886.041867 -270.343819 
L 887.202493 -268.65179 
L 888.363119 -266.958661 
L 889.523745 -265.264569 
L 890.684371 -263.569652 
L 891.844997 -261.874047 
L 893.005622 -260.177892 
L 894.166248 -258.481324 
L 895.326874 -256.784481 
L 896.4875 -255.0875 
L 896.4875 -255.0875 
L 896.4875 -255.0875 
L 895.326874 -255.0875 
L 894.166248 -255.0875 
L 893.005622 -255.0875 
L 891.844997 -255.0875 
L 890.684371 -255.0875 
L 889.523745 -255.0875 
L 888.363119 -255.0875 
L 887.202493 -255.0875 
L 886.041867 -255.0875 
L 884.881241 -255.0875 
L 883.720615 -255.0875 
L 882.55999 -255.0875 
L 881.399364 -255.0875 
L 880.238738 -255.0875 
L 879.078112 -255.0875 
L 877.917486 -255.0875 
L 876.75686 -255.0875 
L 875.596234 -255.0875 
L 874.435608 -255.0875 
L 873.274983 -255.0875 
L 872.114357 -255.0875 
L 870.953731 -255.0875 
L 869.793105 -255.0875 
L 868.632479 -255.0875 
L 867.471853 -255.0875 
L 866.311227 -255.0875 
L 865.150602 -255.0875 
L 863.989976 -255.0875 
L 862.82935 -255.0875 
L 861.668724 -255.0875 
L 860.508098 -255.0875 
L 859.347472 -255.0875 
L 858.186846 -255.0875 
L 857.02622 -255.0875 
L 855.865595 -255.0875 
L 854.704969 -255.0875 
L 853.544343 -255.0875 
L 852.383717 -255.0875 
L 851.223091 -255.0875 
L 850.062465 -255.0875 
L 848.901839 -255.0875 
L 847.741213 -255.0875 
L 846.580588 -255.0875 
L 845.419962 -255.0875 
L 844.259336 -255.0875 
L 843.09871 -255.0875 
L 841.938084 -255.0875 
L 840.777458 -255.0875 
L 839.616832 -255.0875 
L 838.456207 -255.0875 
L 837.295581 -255.0875 
L 836.134955 -255.0875 
L 834.974329 -255.0875 
L 833.813703 -255.0875 
L 832.653077 -255.0875 
L 831.492451 -255.0875 
L 830.331825 -255.0875 
L 829.1712 -255.0875 
L 828.010574 -255.0875 
L 826.849948 -255.0875 
L 825.689322 -255.0875 
L 824.528696 -255.0875 
L 823.36807 -255.0875 
L 822.207444 -255.0875 
L 821.046818 -255.0875 
L 819.886193 -255.0875 
L 818.725567 -255.0875 
L 817.564941 -255.0875 
L 816.404315 -255.0875 
L 815.243689 -255.0875 
L 814.083063 -255.0875 
L 812.922437 -255.0875 
L 811.761812 -255.0875 
L 810.601186 -255.0875 
L 809.44056 -255.0875 
L 808.279934 -255.0875 
L 807.119308 -255.0875 
L 805.958682 -255.0875 
L 804.798056 -255.0875 
L 803.63743 -255.0875 
L 802.476805 -255.0875 
L 801.316179 -255.0875 
L 800.155553 -255.0875 
L 798.994927 -255.0875 
L 797.834301 -255.0875 
L 796.673675 -255.0875 
L 795.513049 -255.0875 
L 794.352424 -255.0875 
L 793.191798 -255.0875 
L 792.031172 -255.0875 
L 790.870546 -255.0875 
L 789.70992 -255.0875 
L 788.549294 -255.0875 
L 787.388668 -255.0875 
L 786.228042 -255.0875 
L 785.067417 -255.0875 
L 783.906791 -255.0875 
L 782.746165 -255.0875 
L 781.585539 -255.0875 
L 780.424913 -255.0875 
L 779.264287 -255.0875 
L 778.103661 -255.0875 
L 776.943035 -255.0875 
L 775.78241 -255.0875 
L 774.621784 -255.0875 
L 773.461158 -255.0875 
L 772.300532 -255.0875 
L 771.139906 -255.0875 
L 769.97928 -255.0875 
L 768.818654 -255.0875 
L 767.658029 -255.0875 
L 766.497403 -255.0875 
L 765.336777 -255.0875 
L 764.176151 -255.0875 
L 763.015525 -255.0875 
L 761.854899 -255.0875 
L 760.694273 -255.0875 
L 759.533647 -255.0875 
L 758.373022 -255.0875 
L 757.212396 -255.0875 
L 756.05177 -255.0875 
L 754.891144 -255.0875 
L 753.730518 -255.0875 
L 752.569892 -255.0875 
L 751.409266 -255.0875 
L 750.24864 -255.0875 
L 749.088015 -255.0875 
L 747.927389 -255.0875 
L 746.766763 -255.0875 
L 745.606137 -255.0875 
L 744.445511 -255.0875 
L 743.284885 -255.0875 
L 742.124259 -255.0875 
L 740.963634 -255.0875 
L 739.803008 -255.0875 
L 738.642382 -255.0875 
L 737.481756 -255.0875 
L 736.32113 -255.0875 
L 735.160504 -255.0875 
L 733.999878 -255.0875 
L 732.839252 -255.0875 
L 731.678627 -255.0875 
L 730.518001 -255.0875 
L 729.357375 -255.0875 
L 728.196749 -255.0875 
L 727.036123 -255.0875 
L 725.875497 -255.0875 
L 724.714871 -255.0875 
L 723.554245 -255.0875 
L 722.39362 -255.0875 
L 721.232994 -255.0875 
L 720.072368 -255.0875 
L 718.911742 -255.0875 
L 717.751116 -255.0875 
L 716.59049 -255.0875 
L 715.429864 -255.0875 
L 714.269239 -255.0875 
L 713.108613 -255.0875 
L 711.947987 -255.0875 
L 710.787361 -255.0875 
L 709.626735 -255.0875 
L 708.466109 -255.0875 
L 707.305483 -255.0875 
L 706.144857 -255.0875 
L 704.984232 -255.0875 
L 703.823606 -255.0875 
L 702.66298 -255.0875 
L 701.502354 -255.0875 
L 700.341728 -255.0875 
L 699.181102 -255.0875 
L 698.020476 -255.0875 
L 696.85985 -255.0875 
L 695.699225 -255.0875 
L 694.538599 -255.0875 
L 693.377973 -255.0875 
L 692.217347 -255.0875 
L 691.056721 -255.0875 
L 689.896095 -255.0875 
L 688.735469 -255.0875 
L 687.574844 -255.0875 
L 686.414218 -255.0875 
L 685.253592 -255.0875 
L 684.092966 -255.0875 
L 682.93234 -255.0875 
L 681.771714 -255.0875 
L 680.611088 -255.0875 
L 679.450462 -255.0875 
L 678.289837 -255.0875 
L 677.129211 -255.0875 
L 675.968585 -255.0875 
L 674.807959 -255.0875 
L 673.647333 -255.0875 
L 672.486707 -255.0875 
L 671.326081 -255.0875 
L 670.165455 -255.0875 
L 669.00483 -255.0875 
L 667.844204 -255.0875 
L 666.683578 -255.0875 
L 665.522952 -255.0875 
L 664.362326 -255.0875 
L 663.2017 -255.0875 
L 662.041074 -255.0875 
L 660.880449 -255.0875 
L 659.719823 -255.0875 
L 658.559197 -255.0875 
L 657.398571 -255.0875 
L 656.237945 -255.0875 
L 655.077319 -255.0875 
L 653.916693 -255.0875 
L 652.756067 -255.0875 
L 651.595442 -255.0875 
L 650.434816 -255.0875 
L 649.27419 -255.0875 
L 648.113564 -255.0875 
L 646.952938 -255.0875 
L 645.792312 -255.0875 
L 644.631686 -255.0875 
L 643.471061 -255.0875 
L 642.310435 -255.0875 
L 641.149809 -255.0875 
L 639.989183 -255.0875 
L 638.828557 -255.0875 
L 637.667931 -255.0875 
L 636.507305 -255.0875 
L 635.346679 -255.0875 
L 634.186054 -255.0875 
L 633.025428 -255.0875 
L 631.864802 -255.0875 
L 630.704176 -255.0875 
L 629.54355 -255.0875 
L 628.382924 -255.0875 
L 627.222298 -255.0875 
L 626.061672 -255.0875 
L 624.901047 -255.0875 
L 623.740421 -255.0875 
L 622.579795 -255.0875 
L 621.419169 -255.0875 
L 620.258543 -255.0875 
L 619.097917 -255.0875 
L 617.937291 -255.0875 
L 616.776666 -255.0875 
L 615.61604 -255.0875 
L 614.455414 -255.0875 
L 613.294788 -255.0875 
L 612.134162 -255.0875 
L 610.973536 -255.0875 
L 609.81291 -255.0875 
L 608.652284 -255.0875 
L 607.491659 -255.0875 
L 606.331033 -255.0875 
L 605.170407 -255.0875 
L 604.009781 -255.0875 
L 602.849155 -255.0875 
L 601.688529 -255.0875 
L 600.527903 -255.0875 
L 599.367277 -255.0875 
L 598.206652 -255.0875 
L 597.046026 -255.0875 
L 595.8854 -255.0875 
L 594.724774 -255.0875 
L 593.564148 -255.0875 
L 592.403522 -255.0875 
L 591.242896 -255.0875 
L 590.082271 -255.0875 
L 588.921645 -255.0875 
L 587.761019 -255.0875 
L 586.600393 -255.0875 
L 585.439767 -255.0875 
L 584.279141 -255.0875 
L 583.118515 -255.0875 
L 581.957889 -255.0875 
L 580.797264 -255.0875 
L 579.636638 -255.0875 
L 578.476012 -255.0875 
L 577.315386 -255.0875 
L 576.15476 -255.0875 
L 574.994134 -255.0875 
L 573.833508 -255.0875 
L 572.672882 -255.0875 
L 571.512257 -255.0875 
L 570.351631 -255.0875 
L 569.191005 -255.0875 
L 568.030379 -255.0875 
L 566.869753 -255.0875 
L 565.709127 -255.0875 
L 564.548501 -255.0875 
L 563.387876 -255.0875 
L 562.22725 -255.0875 
L 561.066624 -255.0875 
L 559.905998 -255.0875 
L 558.745372 -255.0875 
L 557.584746 -255.0875 
L 556.42412 -255.0875 
L 555.263494 -255.0875 
L 554.102869 -255.0875 
L 552.942243 -255.0875 
L 551.781617 -255.0875 
L 550.620991 -255.0875 
L 549.460365 -255.0875 
L 548.299739 -255.0875 
L 547.139113 -255.0875 
L 545.978487 -255.0875 
L 544.817862 -255.0875 
L 543.657236 -255.0875 
L 542.49661 -255.0875 
L 541.335984 -255.0875 
L 540.175358 -255.0875 
L 539.014732 -255.0875 
L 537.854106 -255.0875 
L 536.693481 -255.0875 
L 535.532855 -255.0875 
L 534.372229 -255.0875 
L 533.211603 -255.0875 
L 532.050977 -255.0875 
L 530.890351 -255.0875 
L 529.729725 -255.0875 
L 528.569099 -255.0875 
L 527.408474 -255.0875 
L 526.247848 -255.0875 
L 525.087222 -255.0875 
L 523.926596 -255.0875 
L 522.76597 -255.0875 
L 521.605344 -255.0875 
L 520.444718 -255.0875 
L 519.284092 -255.0875 
L 518.123467 -255.0875 
L 516.962841 -255.0875 
L 515.802215 -255.0875 
L 514.641589 -255.0875 
L 513.480963 -255.0875 
L 512.320337 -255.0875 
L 511.159711 -255.0875 
L 509.999086 -255.0875 
L 508.83846 -255.0875 
L 507.677834 -255.0875 
L 506.517208 -255.0875 
L 505.356582 -255.0875 
L 504.195956 -255.0875 
L 503.03533 -255.0875 
L 501.874704 -255.0875 
L 500.714079 -255.0875 
L 499.553453 -255.0875 
L 498.392827 -255.0875 
L 497.232201 -255.0875 
L 496.071575 -255.0875 
L 494.910949 -255.0875 
L 493.750323 -255.0875 
L 492.589697 -255.0875 
L 491.429072 -255.0875 
L 490.268446 -255.0875 
L 489.10782 -255.0875 
L 487.947194 -255.0875 
L 486.786568 -255.0875 
L 485.625942 -255.0875 
L 484.465316 -255.0875 
L 483.304691 -255.0875 
L 482.144065 -255.0875 
L 480.983439 -255.0875 
L 479.822813 -255.0875 
L 478.662187 -255.0875 
L 477.501561 -255.0875 
L 476.340935 -255.0875 
L 475.180309 -255.0875 
L 474.019684 -255.0875 
L 472.859058 -255.0875 
L 471.698432 -255.0875 
L 470.537806 -255.0875 
L 469.37718 -255.0875 
L 468.216554 -255.0875 
L 467.055928 -255.0875 
L 465.895303 -255.0875 
L 464.734677 -255.0875 
L 463.574051 -255.0875 
L 462.413425 -255.0875 
L 461.252799 -255.0875 
L 460.092173 -255.0875 
L 458.931547 -255.0875 
L 457.770921 -255.0875 
L 456.610296 -255.0875 
L 455.44967 -255.0875 
L 454.289044 -255.0875 
L 453.128418 -255.0875 
L 451.967792 -255.0875 
L 450.807166 -255.0875 
L 449.64654 -255.0875 
L 448.485914 -255.0875 
L 447.325289 -255.0875 
L 446.164663 -255.0875 
L 445.004037 -255.0875 
L 443.843411 -255.0875 
L 442.682785 -255.0875 
L 441.522159 -255.0875 
L 440.361533 -255.0875 
L 439.200908 -255.0875 
L 438.040282 -255.0875 
L 436.879656 -255.0875 
L 435.71903 -255.0875 
L 434.558404 -255.0875 
L 433.397778 -255.0875 
L 432.237152 -255.0875 
L 431.076526 -255.0875 
L 429.915901 -255.0875 
L 428.755275 -255.0875 
L 427.594649 -255.0875 
L 426.434023 -255.0875 
L 425.273397 -255.0875 
L 424.112771 -255.0875 
L 422.952145 -255.0875 
L 421.791519 -255.0875 
L 420.630894 -255.0875 
L 419.470268 -255.0875 
L 418.309642 -255.0875 
L 417.149016 -255.0875 
L 415.98839 -255.0875 
L 414.827764 -255.0875 
L 413.667138 -255.0875 
L 412.506513 -255.0875 
L 411.345887 -255.0875 
L 410.185261 -255.0875 
L 409.024635 -255.0875 
L 407.864009 -255.0875 
L 406.703383 -255.0875 
L 405.542757 -255.0875 
L 404.382131 -255.0875 
L 403.221506 -255.0875 
L 402.06088 -255.0875 
L 400.900254 -255.0875 
L 399.739628 -255.0875 
L 398.579002 -255.0875 
L 397.418376 -255.0875 
L 396.25775 -255.0875 
L 395.097124 -255.0875 
L 393.936499 -255.0875 
L 392.775873 -255.0875 
L 391.615247 -255.0875 
L 390.454621 -255.0875 
L 389.293995 -255.0875 
L 388.133369 -255.0875 
L 386.972743 -255.0875 
L 385.812118 -255.0875 
L 384.651492 -255.0875 
L 383.490866 -255.0875 
L 382.33024 -255.0875 
L 381.169614 -255.0875 
L 380.008988 -255.0875 
L 378.848362 -255.0875 
L 377.687736 -255.0875 
L 376.527111 -255.0875 
L 375.366485 -255.0875 
L 374.205859 -255.0875 
L 373.045233 -255.0875 
L 371.884607 -255.0875 
L 370.723981 -255.0875 
L 369.563355 -255.0875 
L 368.402729 -255.0875 
L 367.242104 -255.0875 
L 366.081478 -255.0875 
L 364.920852 -255.0875 
L 363.760226 -255.0875 
L 362.5996 -255.0875 
L 361.438974 -255.0875 
L 360.278348 -255.0875 
L 359.117723 -255.0875 
L 357.957097 -255.0875 
L 356.796471 -255.0875 
L 355.635845 -255.0875 
L 354.475219 -255.0875 
L 353.314593 -255.0875 
L 352.153967 -255.0875 
L 350.993341 -255.0875 
L 349.832716 -255.0875 
L 348.67209 -255.0875 
L 347.511464 -255.0875 
L 346.350838 -255.0875 
L 345.190212 -255.0875 
L 344.029586 -255.0875 
L 342.86896 -255.0875 
L 341.708334 -255.0875 
L 340.547709 -255.0875 
L 339.387083 -255.0875 
L 338.226457 -255.0875 
L 337.065831 -255.0875 
L 335.905205 -255.0875 
L 334.744579 -255.0875 
L 333.583953 -255.0875 
L 332.423328 -255.0875 
L 331.262702 -255.0875 
L 330.102076 -255.0875 
L 328.94145 -255.0875 
L 327.780824 -255.0875 
L 326.620198 -255.0875 
L 325.459572 -255.0875 
L 324.298946 -255.0875 
L 323.138321 -255.0875 
L 321.977695 -255.0875 
L 320.817069 -255.0875 
L 319.656443 -255.0875 
L 318.495817 -255.0875 
L 317.335191 -255.0875 
L 316.174565 -255.0875 
L 315.013939 -255.0875 
L 313.853314 -255.0875 
L 312.692688 -255.0875 
L 311.532062 -255.0875 
L 310.371436 -255.0875 
L 309.21081 -255.0875 
L 308.050184 -255.0875 
L 306.889558 -255.0875 
L 305.728933 -255.0875 
L 304.568307 -255.0875 
L 303.407681 -255.0875 
L 302.247055 -255.0875 
L 301.086429 -255.0875 
L 299.925803 -255.0875 
L 298.765177 -255.0875 
L 297.604551 -255.0875 
L 296.443926 -255.0875 
L 295.2833 -255.0875 
L 294.122674 -255.0875 
L 292.962048 -255.0875 
L 291.801422 -255.0875 
L 290.640796 -255.0875 
L 289.48017 -255.0875 
L 288.319545 -255.0875 
L 287.158919 -255.0875 
L 285.998293 -255.0875 
L 284.837667 -255.0875 
L 283.677041 -255.0875 
L 282.516415 -255.0875 
L 281.355789 -255.0875 
L 280.195163 -255.0875 
L 279.034538 -255.0875 
L 277.873912 -255.0875 
L 276.713286 -255.0875 
L 275.55266 -255.0875 
L 274.392034 -255.0875 
L 273.231408 -255.0875 
L 272.070782 -255.0875 
L 270.910156 -255.0875 
L 269.749531 -255.0875 
L 268.588905 -255.0875 
L 267.428279 -255.0875 
L 266.267653 -255.0875 
L 265.107027 -255.0875 
L 263.946401 -255.0875 
L 262.785775 -255.0875 
L 261.62515 -255.0875 
L 260.464524 -255.0875 
L 259.303898 -255.0875 
L 258.143272 -255.0875 
L 256.982646 -255.0875 
L 255.82202 -255.0875 
L 254.661394 -255.0875 
L 253.500768 -255.0875 
L 252.340143 -255.0875 
L 251.179517 -255.0875 
L 250.018891 -255.0875 
L 248.858265 -255.0875 
L 247.697639 -255.0875 
L 246.537013 -255.0875 
L 245.376387 -255.0875 
L 244.215761 -255.0875 
L 243.055136 -255.0875 
L 241.89451 -255.0875 
L 240.733884 -255.0875 
L 239.573258 -255.0875 
L 238.412632 -255.0875 
L 237.252006 -255.0875 
L 236.09138 -255.0875 
L 234.930755 -255.0875 
L 233.770129 -255.0875 
L 232.609503 -255.0875 
L 231.448877 -255.0875 
L 230.288251 -255.0875 
L 229.127625 -255.0875 
L 227.966999 -255.0875 
L 226.806373 -255.0875 
L 225.645748 -255.0875 
L 224.485122 -255.0875 
L 223.324496 -255.0875 
L 222.16387 -255.0875 
L 221.003244 -255.0875 
L 219.842618 -255.0875 
L 218.681992 -255.0875 
L 217.521366 -255.0875 
L 216.360741 -255.0875 
L 215.200115 -255.0875 
L 214.039489 -255.0875 
L 212.878863 -255.0875 
L 211.718237 -255.0875 
L 210.557611 -255.0875 
L 209.396985 -255.0875 
L 208.23636 -255.0875 
L 207.075734 -255.0875 
L 205.915108 -255.0875 
L 204.754482 -255.0875 
L 203.593856 -255.0875 
L 202.43323 -255.0875 
L 201.272604 -255.0875 
L 200.111978 -255.0875 
L 198.951353 -255.0875 
L 197.790727 -255.0875 
L 196.630101 -255.0875 
L 195.469475 -255.0875 
L 194.308849 -255.0875 
L 193.148223 -255.0875 
L 191.987597 -255.0875 
L 190.826971 -255.0875 
L 189.666346 -255.0875 
L 188.50572 -255.0875 
L 187.345094 -255.0875 
L 186.184468 -255.0875 
L 185.023842 -255.0875 
L 183.863216 -255.0875 
L 182.70259 -255.0875 
L 181.541965 -255.0875 
L 180.381339 -255.0875 
L 179.220713 -255.0875 
L 178.060087 -255.0875 
L 176.899461 -255.0875 
L 175.738835 -255.0875 
L 174.578209 -255.0875 
L 173.417583 -255.0875 
L 172.256958 -255.0875 
L 171.096332 -255.0875 
L 169.935706 -255.0875 
L 168.77508 -255.0875 
L 167.614454 -255.0875 
L 166.453828 -255.0875 
L 165.293202 -255.0875 
L 164.132576 -255.0875 
L 162.971951 -255.0875 
L 161.811325 -255.0875 
L 160.650699 -255.0875 
L 159.490073 -255.0875 
L 158.329447 -255.0875 
L 157.168821 -255.0875 
L 156.008195 -255.0875 
L 154.84757 -255.0875 
L 153.686944 -255.0875 
L 152.526318 -255.0875 
L 151.365692 -255.0875 
L 150.205066 -255.0875 
L 149.04444 -255.0875 
L 147.883814 -255.0875 
L 146.723188 -255.0875 
L 145.562563 -255.0875 
L 144.401937 -255.0875 
L 143.241311 -255.0875 
L 142.080685 -255.0875 
L 140.920059 -255.0875 
L 139.759433 -255.0875 
L 138.598807 -255.0875 
L 137.438182 -255.0875 
L 136.277556 -255.0875 
L 135.11693 -255.0875 
L 133.956304 -255.0875 
L 132.795678 -255.0875 
L 131.635052 -255.0875 
L 130.474426 -255.0875 
L 129.3138 -255.0875 
L 128.153175 -255.0875 
L 126.992549 -255.0875 
L 125.831923 -255.0875 
L 124.671297 -255.0875 
L 123.510671 -255.0875 
L 122.350045 -255.0875 
L 121.189419 -255.0875 
L 120.028793 -255.0875 
L 118.868168 -255.0875 
L 117.707542 -255.0875 
L 116.546916 -255.0875 
L 115.38629 -255.0875 
L 114.225664 -255.0875 
L 113.065038 -255.0875 
L 111.904412 -255.0875 
L 110.743787 -255.0875 
L 109.583161 -255.0875 
L 108.422535 -255.0875 
L 107.261909 -255.0875 
L 106.101283 -255.0875 
L 104.940657 -255.0875 
L 103.780031 -255.0875 
L 102.619405 -255.0875 
L 101.45878 -255.0875 
L 100.298154 -255.0875 
L 99.137528 -255.0875 
L 97.976902 -255.0875 
L 96.816276 -255.0875 
L 95.65565 -255.0875 
L 94.495024 -255.0875 
L 93.334398 -255.0875 
L 92.173773 -255.0875 
L 91.013147 -255.0875 
L 89.852521 -255.0875 
L 88.691895 -255.0875 
L 87.531269 -255.0875 
L 86.370643 -255.0875 
L 85.210017 -255.0875 
L 84.049392 -255.0875 
L 82.888766 -255.0875 
L 81.72814 -255.0875 
L 80.567514 -255.0875 
L 79.406888 -255.0875 
L 78.246262 -255.0875 
L 77.085636 -255.0875 
L 75.92501 -255.0875 
L 74.764385 -255.0875 
L 73.603759 -255.0875 
L 72.443133 -255.0875 
L 71.282507 -255.0875 
L 70.121881 -255.0875 
L 68.961255 -255.0875 
L 67.800629 -255.0875 
L 66.640003 -255.0875 
L 65.479378 -255.0875 
L 64.318752 -255.0875 
L 63.158126 -255.0875 
L 61.9975 -255.0875 
z
" style="stroke: #a3583c; stroke-opacity: 0.08"/>
    </defs>
    <g clip-path="url(#pb8991092ef)">
     <use xlink:href="#m842529f6b5" x="0" y="499.624687" style="fill: #a3583c; fill-opacity: 0.08; stroke: #a3583c; stroke-opacity: 0.08"/>
    </g>
   </g>
   <g id="matplotlib.axis_1">
    <g id="xtick_1">
     <g id="line2d_1">
      <path d="M 61.9975 453.877187 
L 61.9975 35.197187 
" clip-path="url(#pb8991092ef)" style="fill: none; stroke: #d9cbb6; stroke-opacity: 0.45; stroke-width: 0.8; stroke-linecap: square"/>
     </g>
     <g id="line2d_2">
      <defs>
       <path id="mc862deff67" d="M 0 0 
L 0 3.5 
" style="stroke: #756a5d; stroke-width: 0.8"/>
      </defs>
      <g>
       <use xlink:href="#mc862deff67" x="61.9975" y="453.877187" style="fill: #756a5d; stroke: #756a5d; stroke-width: 0.8"/>
      </g>
     </g>
     <g id="text_1">
      <text style="font-size: 11px; font-family: 'DejaVu Serif'; text-anchor: middle; fill: #756a5d" x="61.9975" y="469.235469" transform="rotate(-0 61.9975 469.235469)">0.0</text>
     </g>
    </g>
    <g id="xtick_2">
     <g id="line2d_3">
      <path d="M 228.8955 453.877187 
L 228.8955 35.197187 
" clip-path="url(#pb8991092ef)" style="fill: none; stroke: #d9cbb6; stroke-opacity: 0.45; stroke-width: 0.8; stroke-linecap: square"/>
     </g>
     <g id="line2d_4">
      <g>
       <use xlink:href="#mc862deff67" x="228.8955" y="453.877187" style="fill: #756a5d; stroke: #756a5d; stroke-width: 0.8"/>
      </g>
     </g>
     <g id="text_2">
      <text style="font-size: 11px; font-family: 'DejaVu Serif'; text-anchor: middle; fill: #756a5d" x="228.8955" y="469.235469" transform="rotate(-0 228.8955 469.235469)">0.2</text>
     </g>
    </g>
    <g id="xtick_3">
     <g id="line2d_5">
      <path d="M 395.7935 453.877187 
L 395.7935 35.197187 
" clip-path="url(#pb8991092ef)" style="fill: none; stroke: #d9cbb6; stroke-opacity: 0.45; stroke-width: 0.8; stroke-linecap: square"/>
     </g>
     <g id="line2d_6">
      <g>
       <use xlink:href="#mc862deff67" x="395.7935" y="453.877187" style="fill: #756a5d; stroke: #756a5d; stroke-width: 0.8"/>
      </g>
     </g>
     <g id="text_3">
      <text style="font-size: 11px; font-family: 'DejaVu Serif'; text-anchor: middle; fill: #756a5d" x="395.7935" y="469.235469" transform="rotate(-0 395.7935 469.235469)">0.4</text>
     </g>
    </g>
    <g id="xtick_4">
     <g id="line2d_7">
      <path d="M 562.6915 453.877187 
L 562.6915 35.197187 
" clip-path="url(#pb8991092ef)" style="fill: none; stroke: #d9cbb6; stroke-opacity: 0.45; stroke-width: 0.8; stroke-linecap: square"/>
     </g>
     <g id="line2d_8">
      <g>
       <use xlink:href="#mc862deff67" x="562.6915" y="453.877187" style="fill: #756a5d; stroke: #756a5d; stroke-width: 0.8"/>
      </g>
     </g>
     <g id="text_4">
      <text style="font-size: 11px; font-family: 'DejaVu Serif'; text-anchor: middle; fill: #756a5d" x="562.6915" y="469.235469" transform="rotate(-0 562.6915 469.235469)">0.6</text>
     </g>
    </g>
    <g id="xtick_5">
     <g id="line2d_9">
      <path d="M 729.5895 453.877187 
L 729.5895 35.197187 
" clip-path="url(#pb8991092ef)" style="fill: none; stroke: #d9cbb6; stroke-opacity: 0.45; stroke-width: 0.8; stroke-linecap: square"/>
     </g>
     <g id="line2d_10">
      <g>
       <use xlink:href="#mc862deff67" x="729.5895" y="453.877187" style="fill: #756a5d; stroke: #756a5d; stroke-width: 0.8"/>
      </g>
     </g>
     <g id="text_5">
      <text style="font-size: 11px; font-family: 'DejaVu Serif'; text-anchor: middle; fill: #756a5d" x="729.5895" y="469.235469" transform="rotate(-0 729.5895 469.235469)">0.8</text>
     </g>
    </g>
    <g id="xtick_6">
     <g id="line2d_11">
      <path d="M 896.4875 453.877187 
L 896.4875 35.197187 
" clip-path="url(#pb8991092ef)" style="fill: none; stroke: #d9cbb6; stroke-opacity: 0.45; stroke-width: 0.8; stroke-linecap: square"/>
     </g>
     <g id="line2d_12">
      <g>
       <use xlink:href="#mc862deff67" x="896.4875" y="453.877187" style="fill: #756a5d; stroke: #756a5d; stroke-width: 0.8"/>
      </g>
     </g>
     <g id="text_6">
      <text style="font-size: 11px; font-family: 'DejaVu Serif'; text-anchor: middle; fill: #756a5d" x="896.4875" y="469.235469" transform="rotate(-0 896.4875 469.235469)">1.0</text>
     </g>
    </g>
    <g id="text_7">
     <text style="font-size: 13px; font-family: 'DejaVu Serif'; text-anchor: middle; fill: #1f1b16" x="479.2425" y="485.401094" transform="rotate(-0 479.2425 485.401094)">Orbital phase</text>
    </g>
   </g>
   <g id="matplotlib.axis_2">
    <g id="ytick_1">
     <g id="line2d_13">
      <path d="M 61.9975 425.133688 
L 896.4875 425.133688 
" clip-path="url(#pb8991092ef)" style="fill: none; stroke: #d9cbb6; stroke-opacity: 0.45; stroke-width: 0.8; stroke-linecap: square"/>
     </g>
     <g id="line2d_14">
      <defs>
       <path id="mfba4814b94" d="M 0 0 
L -3.5 0 
" style="stroke: #756a5d; stroke-width: 0.8"/>
      </defs>
      <g>
       <use xlink:href="#mfba4814b94" x="61.9975" y="425.133688" style="fill: #756a5d; stroke: #756a5d; stroke-width: 0.8"/>
      </g>
     </g>
     <g id="text_8">
      <text style="font-size: 11px; font-family: 'DejaVu Serif'; text-anchor: end; fill: #756a5d" x="54.9975" y="429.312828" transform="rotate(-0 54.9975 429.312828)">−1.5</text>
     </g>
    </g>
    <g id="ytick_2">
     <g id="line2d_15">
      <path d="M 61.9975 364.934854 
L 896.4875 364.934854 
" clip-path="url(#pb8991092ef)" style="fill: none; stroke: #d9cbb6; stroke-opacity: 0.45; stroke-width: 0.8; stroke-linecap: square"/>
     </g>
     <g id="line2d_16">
      <g>
       <use xlink:href="#mfba4814b94" x="61.9975" y="364.934854" style="fill: #756a5d; stroke: #756a5d; stroke-width: 0.8"/>
      </g>
     </g>
     <g id="text_9">
      <text style="font-size: 11px; font-family: 'DejaVu Serif'; text-anchor: end; fill: #756a5d" x="54.9975" y="369.113995" transform="rotate(-0 54.9975 369.113995)">−1.0</text>
     </g>
    </g>
    <g id="ytick_3">
     <g id="line2d_17">
      <path d="M 61.9975 304.736021 
L 896.4875 304.736021 
" clip-path="url(#pb8991092ef)" style="fill: none; stroke: #d9cbb6; stroke-opacity: 0.45; stroke-width: 0.8; stroke-linecap: square"/>
     </g>
     <g id="line2d_18">
      <g>
       <use xlink:href="#mfba4814b94" x="61.9975" y="304.736021" style="fill: #756a5d; stroke: #756a5d; stroke-width: 0.8"/>
      </g>
     </g>
     <g id="text_10">
      <text style="font-size: 11px; font-family: 'DejaVu Serif'; text-anchor: end; fill: #756a5d" x="54.9975" y="308.915162" transform="rotate(-0 54.9975 308.915162)">−0.5</text>
     </g>
    </g>
    <g id="ytick_4">
     <g id="line2d_19">
      <path d="M 61.9975 244.537187 
L 896.4875 244.537187 
" clip-path="url(#pb8991092ef)" style="fill: none; stroke: #d9cbb6; stroke-opacity: 0.45; stroke-width: 0.8; stroke-linecap: square"/>
     </g>
     <g id="line2d_20">
      <g>
       <use xlink:href="#mfba4814b94" x="61.9975" y="244.537187" style="fill: #756a5d; stroke: #756a5d; stroke-width: 0.8"/>
      </g>
     </g>
     <g id="text_11">
      <text style="font-size: 11px; font-family: 'DejaVu Serif'; text-anchor: end; fill: #756a5d" x="54.9975" y="248.716328" transform="rotate(-0 54.9975 248.716328)">0.0</text>
     </g>
    </g>
    <g id="ytick_5">
     <g id="line2d_21">
      <path d="M 61.9975 184.338354 
L 896.4875 184.338354 
" clip-path="url(#pb8991092ef)" style="fill: none; stroke: #d9cbb6; stroke-opacity: 0.45; stroke-width: 0.8; stroke-linecap: square"/>
     </g>
     <g id="line2d_22">
      <g>
       <use xlink:href="#mfba4814b94" x="61.9975" y="184.338354" style="fill: #756a5d; stroke: #756a5d; stroke-width: 0.8"/>
      </g>
     </g>
     <g id="text_12">
      <text style="font-size: 11px; font-family: 'DejaVu Serif'; text-anchor: end; fill: #756a5d" x="54.9975" y="188.517495" transform="rotate(-0 54.9975 188.517495)">0.5</text>
     </g>
    </g>
    <g id="ytick_6">
     <g id="line2d_23">
      <path d="M 61.9975 124.139521 
L 896.4875 124.139521 
" clip-path="url(#pb8991092ef)" style="fill: none; stroke: #d9cbb6; stroke-opacity: 0.45; stroke-width: 0.8; stroke-linecap: square"/>
     </g>
     <g id="line2d_24">
      <g>
       <use xlink:href="#mfba4814b94" x="61.9975" y="124.139521" style="fill: #756a5d; stroke: #756a5d; stroke-width: 0.8"/>
      </g>
     </g>
     <g id="text_13">
      <text style="font-size: 11px; font-family: 'DejaVu Serif'; text-anchor: end; fill: #756a5d" x="54.9975" y="128.318661" transform="rotate(-0 54.9975 128.318661)">1.0</text>
     </g>
    </g>
    <g id="ytick_7">
     <g id="line2d_25">
      <path d="M 61.9975 63.940687 
L 896.4875 63.940687 
" clip-path="url(#pb8991092ef)" style="fill: none; stroke: #d9cbb6; stroke-opacity: 0.45; stroke-width: 0.8; stroke-linecap: square"/>
     </g>
     <g id="line2d_26">
      <g>
       <use xlink:href="#mfba4814b94" x="61.9975" y="63.940687" style="fill: #756a5d; stroke: #756a5d; stroke-width: 0.8"/>
      </g>
     </g>
     <g id="text_14">
      <text style="font-size: 11px; font-family: 'DejaVu Serif'; text-anchor: end; fill: #756a5d" x="54.9975" y="68.119828" transform="rotate(-0 54.9975 68.119828)">1.5</text>
     </g>
    </g>
    <g id="text_15">
     <text style="font-size: 13px; font-family: 'DejaVu Serif'; text-anchor: middle; fill: #1f1b16" x="21.397969" y="244.537187" transform="rotate(-90 21.397969 244.537187)">Stellar radial velocity (m/s)</text>
    </g>
   </g>
   <g id="line2d_27">
    <path d="M 61.9975 244.537187 
L 85.210017 278.294112 
L 97.976902 296.464091 
L 108.422535 310.960462 
L 117.707542 323.484276 
L 125.831923 334.11057 
L 133.956304 344.383525 
L 142.080685 354.263338 
L 149.04444 362.389966 
L 156.008195 370.17697 
L 162.971951 377.60264 
L 168.77508 383.49983 
L 174.578209 389.120581 
L 180.381339 394.454278 
L 186.184468 399.490938 
L 191.987597 404.221231 
L 197.790727 408.63649 
L 203.593856 412.728733 
L 209.396985 416.490666 
L 214.039489 419.257935 
L 218.681992 421.806523 
L 223.324496 424.133673 
L 227.966999 426.236923 
L 232.609503 428.114104 
L 237.252006 429.763342 
L 241.89451 431.18306 
L 246.537013 432.371975 
L 251.179517 433.329099 
L 255.82202 434.053738 
L 260.464524 434.545488 
L 265.107027 434.804237 
L 269.749531 434.830157 
L 274.392034 434.62371 
L 279.034538 434.185637 
L 283.677041 433.516956 
L 288.319545 432.618965 
L 292.962048 431.493229 
L 297.604551 430.141582 
L 302.247055 428.566121 
L 306.889558 426.769199 
L 311.532062 424.753425 
L 316.174565 422.521654 
L 320.817069 420.076985 
L 325.459572 417.422753 
L 331.262702 413.815721 
L 337.065831 409.894299 
L 342.86896 405.666483 
L 348.67209 401.14078 
L 354.475219 396.326196 
L 360.278348 391.232209 
L 366.081478 385.868755 
L 373.045233 379.091544 
L 380.008988 371.959959 
L 386.972743 364.493514 
L 393.936499 356.712478 
L 402.06088 347.265012 
L 410.185261 337.452346 
L 418.309642 327.309991 
L 427.594649 315.361873 
L 438.040282 301.532091 
L 449.64654 285.779189 
L 463.574051 266.49424 
L 514.641589 195.374484 
L 526.247848 179.812762 
L 536.693481 166.203023 
L 545.978487 154.487781 
L 554.102869 144.57725 
L 562.22725 135.021879 
L 569.191005 127.140607 
L 576.15476 119.56701 
L 583.118515 112.321598 
L 590.082271 105.424143 
L 595.8854 99.955782 
L 601.688529 94.752792 
L 607.491659 89.825283 
L 613.294788 85.18292 
L 619.097917 80.8349 
L 624.901047 76.789932 
L 630.704176 73.056219 
L 636.507305 69.641437 
L 641.149809 67.144055 
L 645.792312 64.85876 
L 650.434816 62.788709 
L 655.077319 60.93682 
L 659.719823 59.305763 
L 664.362326 57.897956 
L 669.00483 56.71556 
L 673.647333 55.760475 
L 678.289837 55.034335 
L 682.93234 54.538503 
L 687.574844 54.274069 
L 692.217347 54.241844 
L 696.85985 54.442358 
L 701.502354 54.875857 
L 706.144857 55.5423 
L 710.787361 56.441356 
L 715.429864 57.572405 
L 720.072368 58.934531 
L 724.714871 60.526526 
L 729.357375 62.346885 
L 733.999878 64.393809 
L 738.642382 66.665204 
L 743.284885 69.158679 
L 747.927389 71.871552 
L 752.569892 74.800847 
L 758.373022 78.761801 
L 764.176151 83.048774 
L 769.97928 87.654055 
L 775.78241 92.569251 
L 781.585539 97.785295 
L 787.388668 103.292464 
L 793.191798 109.080392 
L 800.155553 116.380995 
L 807.119308 124.049909 
L 814.083063 132.065811 
L 821.046818 140.406245 
L 829.1712 150.515484 
L 837.295581 160.995328 
L 846.580588 173.373762 
L 855.865595 186.119788 
L 866.311227 200.816944 
L 879.078112 219.159462 
L 896.4875 244.537187 
L 896.4875 244.537187 
" clip-path="url(#pb8991092ef)" style="fill: none; stroke: #a3583c; stroke-width: 2.6; stroke-linecap: square"/>
   </g>
   <g id="line2d_28">
    <path d="M 61.9975 244.537187 
L 896.4875 244.537187 
" clip-path="url(#pb8991092ef)" style="fill: none; stroke-dasharray: 5.365,2.32; stroke-dashoffset: 0; stroke: #9b9184; stroke-opacity: 0.65; stroke-width: 1.45"/>
   </g>
   <g id="patch_3">
    <path d="M 61.9975 453.877187 
L 61.9975 35.197188 
" style="fill: none; stroke: #b9a98f; stroke-width: 0.8; stroke-linejoin: miter; stroke-linecap: square"/>
   </g>
   <g id="patch_4">
    <path d="M 896.4875 453.877187 
L 896.4875 35.197188 
" style="fill: none; stroke: #b9a98f; stroke-width: 0.8; stroke-linejoin: miter; stroke-linecap: square"/>
   </g>
   <g id="patch_5">
    <path d="M 61.9975 453.877187 
L 896.4875 453.877187 
" style="fill: none; stroke: #b9a98f; stroke-width: 0.8; stroke-linejoin: miter; stroke-linecap: square"/>
   </g>
   <g id="patch_6">
    <path d="M 61.9975 35.197187 
L 896.4875 35.197187 
" style="fill: none; stroke: #b9a98f; stroke-width: 0.8; stroke-linejoin: miter; stroke-linecap: square"/>
   </g>
   <g id="text_16">
    <g id="patch_7">
     <path d="M 74.51485 72.760563 
L 361.82985 72.760563 
Q 364.90985 72.760563 364.90985 69.680563 
L 364.90985 56.131188 
Q 364.90985 53.051188 361.82985 53.051188 
L 74.51485 53.051188 
Q 71.43485 53.051188 71.43485 56.131188 
L 71.43485 69.680563 
Q 71.43485 72.760563 74.51485 72.760563 
z
" style="fill: #fffaf0; opacity: 0.88"/>
    </g>
    <text style="font-size: 14px; font-family: 'DejaVu Serif'; text-anchor: start; fill: #756a5d" x="74.51485" y="66.769" transform="rotate(-0 74.51485 66.769)">K ≈ 1.58 m s^-1 · P ≈ 9.208 d · e = 0.01</text>
   </g>
   <g id="text_17">
    <text style="font-size: 10.5px; font-family: 'DejaVu Serif'; text-anchor: end; fill: #756a5d" x="888.1426" y="443.170619" transform="rotate(-0 888.1426 443.170619)">single-planet Keplerian model</text>
   </g>
   <g id="text_18">
    <text style="font-weight: 700; font-size: 18px; font-family: 'DejaVu Serif'; text-anchor: start; fill: #1f1b16" x="61.9975" y="25.197187" transform="rotate(-0 61.9975 25.197187)">Keplerian RV model — TRAPPIST-1 f</text>
   </g>
  </g>
 </g>
 <defs>
  <clipPath id="pb8991092ef">
   <rect x="61.9975" y="35.197187" width="834.49" height="418.68"/>
  </clipPath>
 </defs>
</svg>
