<?xml version="1.0" encoding="utf-8" standalone="no"?>
<!DOCTYPE svg PUBLIC "-//W3C//DTD SVG 1.1//EN"
  "http://www.w3.org/Graphics/SVG/1.1/DTD/svg11.dtd">
<svg xmlns:xlink="http://www.w3.org/1999/xlink" width="916.678281pt" height="499.624687pt" viewBox="0 0 916.678281 499.624687" xmlns="http://www.w3.org/2000/svg" version="1.1">
 <metadata>
  <rdf:RDF xmlns:dc="http://purl.org/dc/elements/1.1/" xmlns:cc="http://creativecommons.org/ns#" xmlns:rdf="http://www.w3.org/1999/02/22-rdf-syntax-ns#">
   <cc:Work>
    <dc:type rdf:resource="http://purl.org/dc/dcmitype/StillImage"/>
    <dc:date>2026-05-11T11:58:04.204240</dc:date>
    <dc:format>image/svg+xml</dc:format>
    <dc:creator>
     <cc:Agent>
      <dc:title>Matplotlib v3.10.9, https://matplotlib.org/</dc:title>
     </cc:Agent>
    </dc:creator>
   </cc:Work>
  </rdf:RDF>
 </metadata>
 <defs>
  <style type="text/css">*{stroke-linejoin: round; stroke-linecap: butt}</style>
 </defs>
 <g id="figure_1">
  <g id="patch_1">
   <path d="M 0 499.624687 
L 916.678281 499.624687 
L 916.678281 0 
L 0 0 
z
" style="fill: #fffaf0"/>
  </g>
  <g id="axes_1">
   <g id="patch_2">
    <path d="M 58.501563 453.877187 
L 896.411562 453.877187 
L 896.411562 35.197187 
L 58.501563 35.197187 
z
" style="fill: #fffaf0"/>
   </g>
   <g id="FillBetweenPolyCollection_1">
    <defs>
     <path id="m9df575506d" d="M 58.501563 -255.0875 
L 58.501563 -255.0875 
L 59.666945 -253.350969 
L 60.832327 -251.614588 
L 61.99771 -249.878508 
L 63.163092 -248.142881 
L 64.328475 -246.407856 
L 65.493857 -244.673584 
L 66.65924 -242.940215 
L 67.824622 -241.207901 
L 68.990005 -239.47679 
L 70.155387 -237.747033 
L 71.32077 -236.01878 
L 72.486152 -234.29218 
L 73.651535 -232.567384 
L 74.816917 -230.844539 
L 75.9823 -229.123797 
L 77.147682 -227.405304 
L 78.313065 -225.68921 
L 79.478447 -223.975664 
L 80.64383 -222.264812 
L 81.809212 -220.556803 
L 82.974594 -218.851784 
L 84.139977 -217.149902 
L 85.305359 -215.451303 
L 86.470742 -213.756135 
L 87.636124 -212.064542 
L 88.801507 -210.37667 
L 89.966889 -208.692664 
L 91.132272 -207.012669 
L 92.297654 -205.336829 
L 93.463037 -203.665286 
L 94.628419 -201.998185 
L 95.793802 -200.335668 
L 96.959184 -198.677877 
L 98.124567 -197.024953 
L 99.289949 -195.377038 
L 100.455332 -193.734271 
L 101.620714 -192.096793 
L 102.786097 -190.464742 
L 103.951479 -188.838257 
L 105.116862 -187.217477 
L 106.282244 -185.602537 
L 107.447626 -183.993575 
L 108.613009 -182.390727 
L 109.778391 -180.794128 
L 110.943774 -179.203911 
L 112.109156 -177.620212 
L 113.274539 -176.043163 
L 114.439921 -174.472896 
L 115.605304 -172.909542 
L 116.770686 -171.353233 
L 117.936069 -169.804098 
L 119.101451 -168.262266 
L 120.266834 -166.727866 
L 121.432216 -165.201024 
L 122.597599 -163.681868 
L 123.762981 -162.170523 
L 124.928364 -160.667114 
L 126.093746 -159.171765 
L 127.259129 -157.684599 
L 128.424511 -156.205738 
L 129.589894 -154.735303 
L 130.755276 -153.273414 
L 131.920658 -151.820191 
L 133.086041 -150.375752 
L 134.251423 -148.940215 
L 135.416806 -147.513696 
L 136.582188 -146.09631 
L 137.747571 -144.688171 
L 138.912953 -143.289393 
L 140.078336 -141.900089 
L 141.243718 -140.52037 
L 142.409101 -139.150346 
L 143.574483 -137.790126 
L 144.739866 -136.439818 
L 145.905248 -135.09953 
L 147.070631 -133.769367 
L 148.236013 -132.449435 
L 149.401396 -131.139837 
L 150.566778 -129.840676 
L 151.732161 -128.552054 
L 152.897543 -127.27407 
L 154.062926 -126.006826 
L 155.228308 -124.750417 
L 156.39369 -123.504943 
L 157.559073 -122.270498 
L 158.724455 -121.047178 
L 159.889838 -119.835075 
L 161.05522 -118.634283 
L 162.220603 -117.444893 
L 163.385985 -116.266994 
L 164.551368 -115.100676 
L 165.71675 -113.946025 
L 166.882133 -112.80313 
L 168.047515 -111.672074 
L 169.212898 -110.552942 
L 170.37828 -109.445816 
L 171.543663 -108.350779 
L 172.709045 -107.26791 
L 173.874428 -106.197289 
L 175.03981 -105.138993 
L 176.205193 -104.0931 
L 177.370575 -103.059683 
L 178.535957 -102.038819 
L 179.70134 -101.030578 
L 180.866722 -100.035034 
L 182.032105 -99.052256 
L 183.197487 -98.082314 
L 184.36287 -97.125275 
L 185.528252 -96.181205 
L 186.693635 -95.250171 
L 187.859017 -94.332235 
L 189.0244 -93.427462 
L 190.189782 -92.535911 
L 191.355165 -91.657644 
L 192.520547 -90.792719 
L 193.68593 -89.941194 
L 194.851312 -89.103125 
L 196.016695 -88.278567 
L 197.182077 -87.467574 
L 198.34746 -86.670198 
L 199.512842 -85.88649 
L 200.678225 -85.116501 
L 201.843607 -84.360279 
L 203.008989 -83.617871 
L 204.174372 -82.889323 
L 205.339754 -82.17468 
L 206.505137 -81.473985 
L 207.670519 -80.787281 
L 208.835902 -80.114608 
L 210.001284 -79.456006 
L 211.166667 -78.811513 
L 212.332049 -78.181166 
L 213.497432 -77.565002 
L 214.662814 -76.963053 
L 215.828197 -76.375354 
L 216.993579 -75.801937 
L 218.158962 -75.242832 
L 219.324344 -74.698068 
L 220.489727 -74.167674 
L 221.655109 -73.651676 
L 222.820492 -73.1501 
L 223.985874 -72.662971 
L 225.151257 -72.19031 
L 226.316639 -71.732141 
L 227.482021 -71.288483 
L 228.647404 -70.859356 
L 229.812786 -70.444779 
L 230.978169 -70.044766 
L 232.143551 -69.659336 
L 233.308934 -69.2885 
L 234.474316 -68.932274 
L 235.639699 -68.590668 
L 236.805081 -68.263694 
L 237.970464 -67.95136 
L 239.135846 -67.653675 
L 240.301229 -67.370647 
L 241.466611 -67.10228 
L 242.631994 -66.848579 
L 243.797376 -66.609549 
L 244.962759 -66.38519 
L 246.128141 -66.175505 
L 247.293524 -65.980493 
L 248.458906 -65.800152 
L 249.624289 -65.634481 
L 250.789671 -65.483475 
L 251.955053 -65.347131 
L 253.120436 -65.225441 
L 254.285818 -65.118399 
L 255.451201 -65.025996 
L 256.616583 -64.948224 
L 257.781966 -64.885071 
L 258.947348 -64.836527 
L 260.112731 -64.802578 
L 261.278113 -64.78321 
L 262.443496 -64.778409 
L 263.608878 -64.788159 
L 264.774261 -64.812441 
L 265.939643 -64.851239 
L 267.105026 -64.904533 
L 268.270408 -64.972302 
L 269.435791 -65.054525 
L 270.601173 -65.151179 
L 271.766556 -65.262242 
L 272.931938 -65.387687 
L 274.09732 -65.52749 
L 275.262703 -65.681624 
L 276.428085 -65.850062 
L 277.593468 -66.032773 
L 278.75885 -66.229729 
L 279.924233 -66.440899 
L 281.089615 -66.666251 
L 282.254998 -66.905753 
L 283.42038 -67.15937 
L 284.585763 -67.427067 
L 285.751145 -67.70881 
L 286.916528 -68.004562 
L 288.08191 -68.314284 
L 289.247293 -68.637939 
L 290.412675 -68.975486 
L 291.578058 -69.326886 
L 292.74344 -69.692096 
L 293.908823 -70.071076 
L 295.074205 -70.46378 
L 296.239588 -70.870166 
L 297.40497 -71.290188 
L 298.570352 -71.7238 
L 299.735735 -72.170956 
L 300.901117 -72.631608 
L 302.0665 -73.105707 
L 303.231882 -73.593204 
L 304.397265 -74.094048 
L 305.562647 -74.608189 
L 306.72803 -75.135574 
L 307.893412 -75.676151 
L 309.058795 -76.229866 
L 310.224177 -76.796664 
L 311.38956 -77.376491 
L 312.554942 -77.96929 
L 313.720325 -78.575005 
L 314.885707 -79.193577 
L 316.05109 -79.824948 
L 317.216472 -80.46906 
L 318.381855 -81.125851 
L 319.547237 -81.795262 
L 320.71262 -82.477231 
L 321.878002 -83.171696 
L 323.043384 -83.878593 
L 324.208767 -84.597859 
L 325.374149 -85.32943 
L 326.539532 -86.07324 
L 327.704914 -86.829223 
L 328.870297 -87.597314 
L 330.035679 -88.377444 
L 331.201062 -89.169546 
L 332.366444 -89.973551 
L 333.531827 -90.789389 
L 334.697209 -91.616992 
L 335.862592 -92.456288 
L 337.027974 -93.307206 
L 338.193357 -94.169674 
L 339.358739 -95.043619 
L 340.524122 -95.928969 
L 341.689504 -96.825649 
L 342.854887 -97.733585 
L 344.020269 -98.652702 
L 345.185652 -99.582925 
L 346.351034 -100.524177 
L 347.516416 -101.47638 
L 348.681799 -102.439459 
L 349.847181 -103.413335 
L 351.012564 -104.397929 
L 352.177946 -105.393162 
L 353.343329 -106.398955 
L 354.508711 -107.415227 
L 355.674094 -108.441897 
L 356.839476 -109.478885 
L 358.004859 -110.526108 
L 359.170241 -111.583484 
L 360.335624 -112.650931 
L 361.501006 -113.728364 
L 362.666389 -114.8157 
L 363.831771 -115.912855 
L 364.997154 -117.019743 
L 366.162536 -118.13628 
L 367.327919 -119.262379 
L 368.493301 -120.397954 
L 369.658684 -121.542919 
L 370.824066 -122.697186 
L 371.989448 -123.860668 
L 373.154831 -125.033276 
L 374.320213 -126.214922 
L 375.485596 -127.405516 
L 376.650978 -128.604971 
L 377.816361 -129.813195 
L 378.981743 -131.030098 
L 380.147126 -132.25559 
L 381.312508 -133.48958 
L 382.477891 -134.731976 
L 383.643273 -135.982686 
L 384.808656 -137.241618 
L 385.974038 -138.50868 
L 387.139421 -139.783779 
L 388.304803 -141.06682 
L 389.470186 -142.357711 
L 390.635568 -143.656357 
L 391.800951 -144.962664 
L 392.966333 -146.276537 
L 394.131715 -147.597881 
L 395.297098 -148.9266 
L 396.46248 -150.2626 
L 397.627863 -151.605783 
L 398.793245 -152.956053 
L 399.958628 -154.313313 
L 401.12401 -155.677467 
L 402.289393 -157.048417 
L 403.454775 -158.426065 
L 404.620158 -159.810314 
L 405.78554 -161.201065 
L 406.950923 -162.59822 
L 408.116305 -164.001679 
L 409.281688 -165.411345 
L 410.44707 -166.827117 
L 411.612453 -168.248896 
L 412.777835 -169.676583 
L 413.943218 -171.110076 
L 415.1086 -172.549276 
L 416.273983 -173.994082 
L 417.439365 -175.444394 
L 418.604747 -176.90011 
L 419.77013 -178.361129 
L 420.935512 -179.82735 
L 422.100895 -181.29867 
L 423.266277 -182.774989 
L 424.43166 -184.256203 
L 425.597042 -185.742211 
L 426.762425 -187.23291 
L 427.927807 -188.728197 
L 429.09319 -190.22797 
L 430.258572 -191.732124 
L 431.423955 -193.240558 
L 432.589337 -194.753168 
L 433.75472 -196.26985 
L 434.920102 -197.7905 
L 436.085485 -199.315014 
L 437.250867 -200.843288 
L 438.41625 -202.375219 
L 439.581632 -203.910701 
L 440.747015 -205.44963 
L 441.912397 -206.991902 
L 443.077779 -208.537412 
L 444.243162 -210.086054 
L 445.408544 -211.637724 
L 446.573927 -213.192317 
L 447.739309 -214.749726 
L 448.904692 -216.309848 
L 450.070074 -217.872576 
L 451.235457 -219.437805 
L 452.400839 -221.005429 
L 453.566222 -222.575342 
L 454.731604 -224.147439 
L 455.896987 -225.721613 
L 457.062369 -227.297758 
L 458.227752 -228.875769 
L 459.393134 -230.455539 
L 460.558517 -232.036962 
L 461.723899 -233.619931 
L 462.889282 -235.20434 
L 464.054664 -236.790083 
L 465.220047 -238.377053 
L 466.385429 -239.965143 
L 467.550811 -241.554248 
L 468.716194 -243.14426 
L 469.881576 -244.735072 
L 471.046959 -246.326579 
L 472.212341 -247.918673 
L 473.377724 -249.511247 
L 474.543106 -251.104195 
L 475.708489 -252.69741 
L 476.873871 -254.290786 
L 478.039254 -255.884214 
L 479.204636 -257.47759 
L 480.370019 -259.070805 
L 481.535401 -260.663753 
L 482.700784 -262.256327 
L 483.866166 -263.848421 
L 485.031549 -265.439928 
L 486.196931 -267.03074 
L 487.362314 -268.620752 
L 488.527696 -270.209857 
L 489.693078 -271.797947 
L 490.858461 -273.384917 
L 492.023843 -274.97066 
L 493.189226 -276.555069 
L 494.354608 -278.138038 
L 495.519991 -279.719461 
L 496.685373 -281.299231 
L 497.850756 -282.877242 
L 499.016138 -284.453387 
L 500.181521 -286.027561 
L 501.346903 -287.599658 
L 502.512286 -289.169571 
L 503.677668 -290.737195 
L 504.843051 -292.302424 
L 506.008433 -293.865152 
L 507.173816 -295.425274 
L 508.339198 -296.982683 
L 509.504581 -298.537276 
L 510.669963 -300.088946 
L 511.835346 -301.637588 
L 513.000728 -303.183098 
L 514.16611 -304.72537 
L 515.331493 -306.264299 
L 516.496875 -307.799781 
L 517.662258 -309.331712 
L 518.82764 -310.859986 
L 519.993023 -312.3845 
L 521.158405 -313.90515 
L 522.323788 -315.421832 
L 523.48917 -316.934442 
L 524.654553 -318.442876 
L 525.819935 -319.94703 
L 526.985318 -321.446803 
L 528.1507 -322.94209 
L 529.316083 -324.432789 
L 530.481465 -325.918797 
L 531.646848 -327.400011 
L 532.81223 -328.87633 
L 533.977613 -330.34765 
L 535.142995 -331.813871 
L 536.308378 -333.27489 
L 537.47376 -334.730606 
L 538.639142 -336.180918 
L 539.804525 -337.625724 
L 540.969907 -339.064924 
L 542.13529 -340.498417 
L 543.300672 -341.926104 
L 544.466055 -343.347883 
L 545.631437 -344.763655 
L 546.79682 -346.173321 
L 547.962202 -347.57678 
L 549.127585 -348.973935 
L 550.292967 -350.364686 
L 551.45835 -351.748935 
L 552.623732 -353.126583 
L 553.789115 -354.497533 
L 554.954497 -355.861687 
L 556.11988 -357.218947 
L 557.285262 -358.569217 
L 558.450645 -359.9124 
L 559.616027 -361.2484 
L 560.78141 -362.577119 
L 561.946792 -363.898463 
L 563.112174 -365.212336 
L 564.277557 -366.518643 
L 565.442939 -367.817289 
L 566.608322 -369.10818 
L 567.773704 -370.391221 
L 568.939087 -371.66632 
L 570.104469 -372.933382 
L 571.269852 -374.192314 
L 572.435234 -375.443024 
L 573.600617 -376.68542 
L 574.765999 -377.91941 
L 575.931382 -379.144902 
L 577.096764 -380.361805 
L 578.262147 -381.570029 
L 579.427529 -382.769484 
L 580.592912 -383.960078 
L 581.758294 -385.141724 
L 582.923677 -386.314332 
L 584.089059 -387.477814 
L 585.254441 -388.632081 
L 586.419824 -389.777046 
L 587.585206 -390.912621 
L 588.750589 -392.03872 
L 589.915971 -393.155257 
L 591.081354 -394.262145 
L 592.246736 -395.3593 
L 593.412119 -396.446636 
L 594.577501 -397.524069 
L 595.742884 -398.591516 
L 596.908266 -399.648892 
L 598.073649 -400.696115 
L 599.239031 -401.733103 
L 600.404414 -402.759773 
L 601.569796 -403.776045 
L 602.735179 -404.781838 
L 603.900561 -405.777071 
L 605.065944 -406.761665 
L 606.231326 -407.735541 
L 607.396709 -408.69862 
L 608.562091 -409.650823 
L 609.727473 -410.592075 
L 610.892856 -411.522298 
L 612.058238 -412.441415 
L 613.223621 -413.349351 
L 614.389003 -414.246031 
L 615.554386 -415.131381 
L 616.719768 -416.005326 
L 617.885151 -416.867794 
L 619.050533 -417.718712 
L 620.215916 -418.558008 
L 621.381298 -419.385611 
L 622.546681 -420.201449 
L 623.712063 -421.005454 
L 624.877446 -421.797556 
L 626.042828 -422.577686 
L 627.208211 -423.345777 
L 628.373593 -424.10176 
L 629.538976 -424.84557 
L 630.704358 -425.577141 
L 631.869741 -426.296407 
L 633.035123 -427.003304 
L 634.200505 -427.697769 
L 635.365888 -428.379738 
L 636.53127 -429.049149 
L 637.696653 -429.70594 
L 638.862035 -430.350052 
L 640.027418 -430.981423 
L 641.1928 -431.599995 
L 642.358183 -432.20571 
L 643.523565 -432.798509 
L 644.688948 -433.378336 
L 645.85433 -433.945134 
L 647.019713 -434.498849 
L 648.185095 -435.039426 
L 649.350478 -435.566811 
L 650.51586 -436.080952 
L 651.681243 -436.581796 
L 652.846625 -437.069293 
L 654.012008 -437.543392 
L 655.17739 -438.004044 
L 656.342773 -438.4512 
L 657.508155 -438.884812 
L 658.673537 -439.304834 
L 659.83892 -439.71122 
L 661.004302 -440.103924 
L 662.169685 -440.482904 
L 663.335067 -440.848114 
L 664.50045 -441.199514 
L 665.665832 -441.537061 
L 666.831215 -441.860716 
L 667.996597 -442.170438 
L 669.16198 -442.46619 
L 670.327362 -442.747933 
L 671.492745 -443.01563 
L 672.658127 -443.269247 
L 673.82351 -443.508749 
L 674.988892 -443.734101 
L 676.154275 -443.945271 
L 677.319657 -444.142227 
L 678.48504 -444.324938 
L 679.650422 -444.493376 
L 680.815805 -444.64751 
L 681.981187 -444.787313 
L 683.146569 -444.912758 
L 684.311952 -445.023821 
L 685.477334 -445.120475 
L 686.642717 -445.202698 
L 687.808099 -445.270467 
L 688.973482 -445.323761 
L 690.138864 -445.362559 
L 691.304247 -445.386841 
L 692.469629 -445.396591 
L 693.635012 -445.39179 
L 694.800394 -445.372422 
L 695.965777 -445.338473 
L 697.131159 -445.289929 
L 698.296542 -445.226776 
L 699.461924 -445.149004 
L 700.627307 -445.056601 
L 701.792689 -444.949559 
L 702.958072 -444.827869 
L 704.123454 -444.691525 
L 705.288836 -444.540519 
L 706.454219 -444.374848 
L 707.619601 -444.194507 
L 708.784984 -443.999495 
L 709.950366 -443.78981 
L 711.115749 -443.565451 
L 712.281131 -443.326421 
L 713.446514 -443.07272 
L 714.611896 -442.804353 
L 715.777279 -442.521325 
L 716.942661 -442.22364 
L 718.108044 -441.911306 
L 719.273426 -441.584332 
L 720.438809 -441.242726 
L 721.604191 -440.8865 
L 722.769574 -440.515664 
L 723.934956 -440.130234 
L 725.100339 -439.730221 
L 726.265721 -439.315644 
L 727.431104 -438.886517 
L 728.596486 -438.442859 
L 729.761868 -437.98469 
L 730.927251 -437.512029 
L 732.092633 -437.0249 
L 733.258016 -436.523324 
L 734.423398 -436.007326 
L 735.588781 -435.476932 
L 736.754163 -434.932168 
L 737.919546 -434.373063 
L 739.084928 -433.799646 
L 740.250311 -433.211947 
L 741.415693 -432.609998 
L 742.581076 -431.993834 
L 743.746458 -431.363487 
L 744.911841 -430.718994 
L 746.077223 -430.060392 
L 747.242606 -429.387719 
L 748.407988 -428.701015 
L 749.573371 -428.00032 
L 750.738753 -427.285677 
L 751.904136 -426.557129 
L 753.069518 -425.814721 
L 754.2349 -425.058499 
L 755.400283 -424.28851 
L 756.565665 -423.504802 
L 757.731048 -422.707426 
L 758.89643 -421.896433 
L 760.061813 -421.071875 
L 761.227195 -420.233806 
L 762.392578 -419.382281 
L 763.55796 -418.517356 
L 764.723343 -417.639089 
L 765.888725 -416.747538 
L 767.054108 -415.842765 
L 768.21949 -414.924829 
L 769.384873 -413.993795 
L 770.550255 -413.049725 
L 771.715638 -412.092686 
L 772.88102 -411.122744 
L 774.046403 -410.139966 
L 775.211785 -409.144422 
L 776.377168 -408.136181 
L 777.54255 -407.115317 
L 778.707932 -406.0819 
L 779.873315 -405.036007 
L 781.038697 -403.977711 
L 782.20408 -402.90709 
L 783.369462 -401.824221 
L 784.534845 -400.729184 
L 785.700227 -399.622058 
L 786.86561 -398.502926 
L 788.030992 -397.37187 
L 789.196375 -396.228975 
L 790.361757 -395.074324 
L 791.52714 -393.908006 
L 792.692522 -392.730107 
L 793.857905 -391.540717 
L 795.023287 -390.339925 
L 796.18867 -389.127822 
L 797.354052 -387.904502 
L 798.519435 -386.670057 
L 799.684817 -385.424583 
L 800.850199 -384.168174 
L 802.015582 -382.90093 
L 803.180964 -381.622946 
L 804.346347 -380.334324 
L 805.511729 -379.035163 
L 806.677112 -377.725565 
L 807.842494 -376.405633 
L 809.007877 -375.07547 
L 810.173259 -373.735182 
L 811.338642 -372.384874 
L 812.504024 -371.024654 
L 813.669407 -369.65463 
L 814.834789 -368.274911 
L 816.000172 -366.885607 
L 817.165554 -365.486829 
L 818.330937 -364.07869 
L 819.496319 -362.661304 
L 820.661702 -361.234785 
L 821.827084 -359.799248 
L 822.992467 -358.354809 
L 824.157849 -356.901586 
L 825.323231 -355.439697 
L 826.488614 -353.969262 
L 827.653996 -352.490401 
L 828.819379 -351.003235 
L 829.984761 -349.507886 
L 831.150144 -348.004477 
L 832.315526 -346.493132 
L 833.480909 -344.973976 
L 834.646291 -343.447134 
L 835.811674 -341.912734 
L 836.977056 -340.370902 
L 838.142439 -338.821767 
L 839.307821 -337.265458 
L 840.473204 -335.702104 
L 841.638586 -334.131837 
L 842.803969 -332.554788 
L 843.969351 -330.971089 
L 845.134734 -329.380872 
L 846.300116 -327.784273 
L 847.465499 -326.181425 
L 848.630881 -324.572463 
L 849.796263 -322.957523 
L 850.961646 -321.336743 
L 852.127028 -319.710258 
L 853.292411 -318.078207 
L 854.457793 -316.440729 
L 855.623176 -314.797962 
L 856.788558 -313.150047 
L 857.953941 -311.497123 
L 859.119323 -309.839332 
L 860.284706 -308.176815 
L 861.450088 -306.509714 
L 862.615471 -304.838171 
L 863.780853 -303.162331 
L 864.946236 -301.482336 
L 866.111618 -299.79833 
L 867.277001 -298.110458 
L 868.442383 -296.418865 
L 869.607766 -294.723697 
L 870.773148 -293.025098 
L 871.938531 -291.323216 
L 873.103913 -289.618197 
L 874.269295 -287.910188 
L 875.434678 -286.199336 
L 876.60006 -284.48579 
L 877.765443 -282.769696 
L 878.930825 -281.051203 
L 880.096208 -279.330461 
L 881.26159 -277.607616 
L 882.426973 -275.88282 
L 883.592355 -274.15622 
L 884.757738 -272.427967 
L 885.92312 -270.69821 
L 887.088503 -268.967099 
L 888.253885 -267.234785 
L 889.419268 -265.501416 
L 890.58465 -263.767144 
L 891.750033 -262.032119 
L 892.915415 -260.296492 
L 894.080798 -258.560412 
L 895.24618 -256.824031 
L 896.411562 -255.0875 
L 896.411562 -255.0875 
L 896.411562 -255.0875 
L 895.24618 -255.0875 
L 894.080798 -255.0875 
L 892.915415 -255.0875 
L 891.750033 -255.0875 
L 890.58465 -255.0875 
L 889.419268 -255.0875 
L 888.253885 -255.0875 
L 887.088503 -255.0875 
L 885.92312 -255.0875 
L 884.757738 -255.0875 
L 883.592355 -255.0875 
L 882.426973 -255.0875 
L 881.26159 -255.0875 
L 880.096208 -255.0875 
L 878.930825 -255.0875 
L 877.765443 -255.0875 
L 876.60006 -255.0875 
L 875.434678 -255.0875 
L 874.269295 -255.0875 
L 873.103913 -255.0875 
L 871.938531 -255.0875 
L 870.773148 -255.0875 
L 869.607766 -255.0875 
L 868.442383 -255.0875 
L 867.277001 -255.0875 
L 866.111618 -255.0875 
L 864.946236 -255.0875 
L 863.780853 -255.0875 
L 862.615471 -255.0875 
L 861.450088 -255.0875 
L 860.284706 -255.0875 
L 859.119323 -255.0875 
L 857.953941 -255.0875 
L 856.788558 -255.0875 
L 855.623176 -255.0875 
L 854.457793 -255.0875 
L 853.292411 -255.0875 
L 852.127028 -255.0875 
L 850.961646 -255.0875 
L 849.796263 -255.0875 
L 848.630881 -255.0875 
L 847.465499 -255.0875 
L 846.300116 -255.0875 
L 845.134734 -255.0875 
L 843.969351 -255.0875 
L 842.803969 -255.0875 
L 841.638586 -255.0875 
L 840.473204 -255.0875 
L 839.307821 -255.0875 
L 838.142439 -255.0875 
L 836.977056 -255.0875 
L 835.811674 -255.0875 
L 834.646291 -255.0875 
L 833.480909 -255.0875 
L 832.315526 -255.0875 
L 831.150144 -255.0875 
L 829.984761 -255.0875 
L 828.819379 -255.0875 
L 827.653996 -255.0875 
L 826.488614 -255.0875 
L 825.323231 -255.0875 
L 824.157849 -255.0875 
L 822.992467 -255.0875 
L 821.827084 -255.0875 
L 820.661702 -255.0875 
L 819.496319 -255.0875 
L 818.330937 -255.0875 
L 817.165554 -255.0875 
L 816.000172 -255.0875 
L 814.834789 -255.0875 
L 813.669407 -255.0875 
L 812.504024 -255.0875 
L 811.338642 -255.0875 
L 810.173259 -255.0875 
L 809.007877 -255.0875 
L 807.842494 -255.0875 
L 806.677112 -255.0875 
L 805.511729 -255.0875 
L 804.346347 -255.0875 
L 803.180964 -255.0875 
L 802.015582 -255.0875 
L 800.850199 -255.0875 
L 799.684817 -255.0875 
L 798.519435 -255.0875 
L 797.354052 -255.0875 
L 796.18867 -255.0875 
L 795.023287 -255.0875 
L 793.857905 -255.0875 
L 792.692522 -255.0875 
L 791.52714 -255.0875 
L 790.361757 -255.0875 
L 789.196375 -255.0875 
L 788.030992 -255.0875 
L 786.86561 -255.0875 
L 785.700227 -255.0875 
L 784.534845 -255.0875 
L 783.369462 -255.0875 
L 782.20408 -255.0875 
L 781.038697 -255.0875 
L 779.873315 -255.0875 
L 778.707932 -255.0875 
L 777.54255 -255.0875 
L 776.377168 -255.0875 
L 775.211785 -255.0875 
L 774.046403 -255.0875 
L 772.88102 -255.0875 
L 771.715638 -255.0875 
L 770.550255 -255.0875 
L 769.384873 -255.0875 
L 768.21949 -255.0875 
L 767.054108 -255.0875 
L 765.888725 -255.0875 
L 764.723343 -255.0875 
L 763.55796 -255.0875 
L 762.392578 -255.0875 
L 761.227195 -255.0875 
L 760.061813 -255.0875 
L 758.89643 -255.0875 
L 757.731048 -255.0875 
L 756.565665 -255.0875 
L 755.400283 -255.0875 
L 754.2349 -255.0875 
L 753.069518 -255.0875 
L 751.904136 -255.0875 
L 750.738753 -255.0875 
L 749.573371 -255.0875 
L 748.407988 -255.0875 
L 747.242606 -255.0875 
L 746.077223 -255.0875 
L 744.911841 -255.0875 
L 743.746458 -255.0875 
L 742.581076 -255.0875 
L 741.415693 -255.0875 
L 740.250311 -255.0875 
L 739.084928 -255.0875 
L 737.919546 -255.0875 
L 736.754163 -255.0875 
L 735.588781 -255.0875 
L 734.423398 -255.0875 
L 733.258016 -255.0875 
L 732.092633 -255.0875 
L 730.927251 -255.0875 
L 729.761868 -255.0875 
L 728.596486 -255.0875 
L 727.431104 -255.0875 
L 726.265721 -255.0875 
L 725.100339 -255.0875 
L 723.934956 -255.0875 
L 722.769574 -255.0875 
L 721.604191 -255.0875 
L 720.438809 -255.0875 
L 719.273426 -255.0875 
L 718.108044 -255.0875 
L 716.942661 -255.0875 
L 715.777279 -255.0875 
L 714.611896 -255.0875 
L 713.446514 -255.0875 
L 712.281131 -255.0875 
L 711.115749 -255.0875 
L 709.950366 -255.0875 
L 708.784984 -255.0875 
L 707.619601 -255.0875 
L 706.454219 -255.0875 
L 705.288836 -255.0875 
L 704.123454 -255.0875 
L 702.958072 -255.0875 
L 701.792689 -255.0875 
L 700.627307 -255.0875 
L 699.461924 -255.0875 
L 698.296542 -255.0875 
L 697.131159 -255.0875 
L 695.965777 -255.0875 
L 694.800394 -255.0875 
L 693.635012 -255.0875 
L 692.469629 -255.0875 
L 691.304247 -255.0875 
L 690.138864 -255.0875 
L 688.973482 -255.0875 
L 687.808099 -255.0875 
L 686.642717 -255.0875 
L 685.477334 -255.0875 
L 684.311952 -255.0875 
L 683.146569 -255.0875 
L 681.981187 -255.0875 
L 680.815805 -255.0875 
L 679.650422 -255.0875 
L 678.48504 -255.0875 
L 677.319657 -255.0875 
L 676.154275 -255.0875 
L 674.988892 -255.0875 
L 673.82351 -255.0875 
L 672.658127 -255.0875 
L 671.492745 -255.0875 
L 670.327362 -255.0875 
L 669.16198 -255.0875 
L 667.996597 -255.0875 
L 666.831215 -255.0875 
L 665.665832 -255.0875 
L 664.50045 -255.0875 
L 663.335067 -255.0875 
L 662.169685 -255.0875 
L 661.004302 -255.0875 
L 659.83892 -255.0875 
L 658.673537 -255.0875 
L 657.508155 -255.0875 
L 656.342773 -255.0875 
L 655.17739 -255.0875 
L 654.012008 -255.0875 
L 652.846625 -255.0875 
L 651.681243 -255.0875 
L 650.51586 -255.0875 
L 649.350478 -255.0875 
L 648.185095 -255.0875 
L 647.019713 -255.0875 
L 645.85433 -255.0875 
L 644.688948 -255.0875 
L 643.523565 -255.0875 
L 642.358183 -255.0875 
L 641.1928 -255.0875 
L 640.027418 -255.0875 
L 638.862035 -255.0875 
L 637.696653 -255.0875 
L 636.53127 -255.0875 
L 635.365888 -255.0875 
L 634.200505 -255.0875 
L 633.035123 -255.0875 
L 631.869741 -255.0875 
L 630.704358 -255.0875 
L 629.538976 -255.0875 
L 628.373593 -255.0875 
L 627.208211 -255.0875 
L 626.042828 -255.0875 
L 624.877446 -255.0875 
L 623.712063 -255.0875 
L 622.546681 -255.0875 
L 621.381298 -255.0875 
L 620.215916 -255.0875 
L 619.050533 -255.0875 
L 617.885151 -255.0875 
L 616.719768 -255.0875 
L 615.554386 -255.0875 
L 614.389003 -255.0875 
L 613.223621 -255.0875 
L 612.058238 -255.0875 
L 610.892856 -255.0875 
L 609.727473 -255.0875 
L 608.562091 -255.0875 
L 607.396709 -255.0875 
L 606.231326 -255.0875 
L 605.065944 -255.0875 
L 603.900561 -255.0875 
L 602.735179 -255.0875 
L 601.569796 -255.0875 
L 600.404414 -255.0875 
L 599.239031 -255.0875 
L 598.073649 -255.0875 
L 596.908266 -255.0875 
L 595.742884 -255.0875 
L 594.577501 -255.0875 
L 593.412119 -255.0875 
L 592.246736 -255.0875 
L 591.081354 -255.0875 
L 589.915971 -255.0875 
L 588.750589 -255.0875 
L 587.585206 -255.0875 
L 586.419824 -255.0875 
L 585.254441 -255.0875 
L 584.089059 -255.0875 
L 582.923677 -255.0875 
L 581.758294 -255.0875 
L 580.592912 -255.0875 
L 579.427529 -255.0875 
L 578.262147 -255.0875 
L 577.096764 -255.0875 
L 575.931382 -255.0875 
L 574.765999 -255.0875 
L 573.600617 -255.0875 
L 572.435234 -255.0875 
L 571.269852 -255.0875 
L 570.104469 -255.0875 
L 568.939087 -255.0875 
L 567.773704 -255.0875 
L 566.608322 -255.0875 
L 565.442939 -255.0875 
L 564.277557 -255.0875 
L 563.112174 -255.0875 
L 561.946792 -255.0875 
L 560.78141 -255.0875 
L 559.616027 -255.0875 
L 558.450645 -255.0875 
L 557.285262 -255.0875 
L 556.11988 -255.0875 
L 554.954497 -255.0875 
L 553.789115 -255.0875 
L 552.623732 -255.0875 
L 551.45835 -255.0875 
L 550.292967 -255.0875 
L 549.127585 -255.0875 
L 547.962202 -255.0875 
L 546.79682 -255.0875 
L 545.631437 -255.0875 
L 544.466055 -255.0875 
L 543.300672 -255.0875 
L 542.13529 -255.0875 
L 540.969907 -255.0875 
L 539.804525 -255.0875 
L 538.639142 -255.0875 
L 537.47376 -255.0875 
L 536.308378 -255.0875 
L 535.142995 -255.0875 
L 533.977613 -255.0875 
L 532.81223 -255.0875 
L 531.646848 -255.0875 
L 530.481465 -255.0875 
L 529.316083 -255.0875 
L 528.1507 -255.0875 
L 526.985318 -255.0875 
L 525.819935 -255.0875 
L 524.654553 -255.0875 
L 523.48917 -255.0875 
L 522.323788 -255.0875 
L 521.158405 -255.0875 
L 519.993023 -255.0875 
L 518.82764 -255.0875 
L 517.662258 -255.0875 
L 516.496875 -255.0875 
L 515.331493 -255.0875 
L 514.16611 -255.0875 
L 513.000728 -255.0875 
L 511.835346 -255.0875 
L 510.669963 -255.0875 
L 509.504581 -255.0875 
L 508.339198 -255.0875 
L 507.173816 -255.0875 
L 506.008433 -255.0875 
L 504.843051 -255.0875 
L 503.677668 -255.0875 
L 502.512286 -255.0875 
L 501.346903 -255.0875 
L 500.181521 -255.0875 
L 499.016138 -255.0875 
L 497.850756 -255.0875 
L 496.685373 -255.0875 
L 495.519991 -255.0875 
L 494.354608 -255.0875 
L 493.189226 -255.0875 
L 492.023843 -255.0875 
L 490.858461 -255.0875 
L 489.693078 -255.0875 
L 488.527696 -255.0875 
L 487.362314 -255.0875 
L 486.196931 -255.0875 
L 485.031549 -255.0875 
L 483.866166 -255.0875 
L 482.700784 -255.0875 
L 481.535401 -255.0875 
L 480.370019 -255.0875 
L 479.204636 -255.0875 
L 478.039254 -255.0875 
L 476.873871 -255.0875 
L 475.708489 -255.0875 
L 474.543106 -255.0875 
L 473.377724 -255.0875 
L 472.212341 -255.0875 
L 471.046959 -255.0875 
L 469.881576 -255.0875 
L 468.716194 -255.0875 
L 467.550811 -255.0875 
L 466.385429 -255.0875 
L 465.220047 -255.0875 
L 464.054664 -255.0875 
L 462.889282 -255.0875 
L 461.723899 -255.0875 
L 460.558517 -255.0875 
L 459.393134 -255.0875 
L 458.227752 -255.0875 
L 457.062369 -255.0875 
L 455.896987 -255.0875 
L 454.731604 -255.0875 
L 453.566222 -255.0875 
L 452.400839 -255.0875 
L 451.235457 -255.0875 
L 450.070074 -255.0875 
L 448.904692 -255.0875 
L 447.739309 -255.0875 
L 446.573927 -255.0875 
L 445.408544 -255.0875 
L 444.243162 -255.0875 
L 443.077779 -255.0875 
L 441.912397 -255.0875 
L 440.747015 -255.0875 
L 439.581632 -255.0875 
L 438.41625 -255.0875 
L 437.250867 -255.0875 
L 436.085485 -255.0875 
L 434.920102 -255.0875 
L 433.75472 -255.0875 
L 432.589337 -255.0875 
L 431.423955 -255.0875 
L 430.258572 -255.0875 
L 429.09319 -255.0875 
L 427.927807 -255.0875 
L 426.762425 -255.0875 
L 425.597042 -255.0875 
L 424.43166 -255.0875 
L 423.266277 -255.0875 
L 422.100895 -255.0875 
L 420.935512 -255.0875 
L 419.77013 -255.0875 
L 418.604747 -255.0875 
L 417.439365 -255.0875 
L 416.273983 -255.0875 
L 415.1086 -255.0875 
L 413.943218 -255.0875 
L 412.777835 -255.0875 
L 411.612453 -255.0875 
L 410.44707 -255.0875 
L 409.281688 -255.0875 
L 408.116305 -255.0875 
L 406.950923 -255.0875 
L 405.78554 -255.0875 
L 404.620158 -255.0875 
L 403.454775 -255.0875 
L 402.289393 -255.0875 
L 401.12401 -255.0875 
L 399.958628 -255.0875 
L 398.793245 -255.0875 
L 397.627863 -255.0875 
L 396.46248 -255.0875 
L 395.297098 -255.0875 
L 394.131715 -255.0875 
L 392.966333 -255.0875 
L 391.800951 -255.0875 
L 390.635568 -255.0875 
L 389.470186 -255.0875 
L 388.304803 -255.0875 
L 387.139421 -255.0875 
L 385.974038 -255.0875 
L 384.808656 -255.0875 
L 383.643273 -255.0875 
L 382.477891 -255.0875 
L 381.312508 -255.0875 
L 380.147126 -255.0875 
L 378.981743 -255.0875 
L 377.816361 -255.0875 
L 376.650978 -255.0875 
L 375.485596 -255.0875 
L 374.320213 -255.0875 
L 373.154831 -255.0875 
L 371.989448 -255.0875 
L 370.824066 -255.0875 
L 369.658684 -255.0875 
L 368.493301 -255.0875 
L 367.327919 -255.0875 
L 366.162536 -255.0875 
L 364.997154 -255.0875 
L 363.831771 -255.0875 
L 362.666389 -255.0875 
L 361.501006 -255.0875 
L 360.335624 -255.0875 
L 359.170241 -255.0875 
L 358.004859 -255.0875 
L 356.839476 -255.0875 
L 355.674094 -255.0875 
L 354.508711 -255.0875 
L 353.343329 -255.0875 
L 352.177946 -255.0875 
L 351.012564 -255.0875 
L 349.847181 -255.0875 
L 348.681799 -255.0875 
L 347.516416 -255.0875 
L 346.351034 -255.0875 
L 345.185652 -255.0875 
L 344.020269 -255.0875 
L 342.854887 -255.0875 
L 341.689504 -255.0875 
L 340.524122 -255.0875 
L 339.358739 -255.0875 
L 338.193357 -255.0875 
L 337.027974 -255.0875 
L 335.862592 -255.0875 
L 334.697209 -255.0875 
L 333.531827 -255.0875 
L 332.366444 -255.0875 
L 331.201062 -255.0875 
L 330.035679 -255.0875 
L 328.870297 -255.0875 
L 327.704914 -255.0875 
L 326.539532 -255.0875 
L 325.374149 -255.0875 
L 324.208767 -255.0875 
L 323.043384 -255.0875 
L 321.878002 -255.0875 
L 320.71262 -255.0875 
L 319.547237 -255.0875 
L 318.381855 -255.0875 
L 317.216472 -255.0875 
L 316.05109 -255.0875 
L 314.885707 -255.0875 
L 313.720325 -255.0875 
L 312.554942 -255.0875 
L 311.38956 -255.0875 
L 310.224177 -255.0875 
L 309.058795 -255.0875 
L 307.893412 -255.0875 
L 306.72803 -255.0875 
L 305.562647 -255.0875 
L 304.397265 -255.0875 
L 303.231882 -255.0875 
L 302.0665 -255.0875 
L 300.901117 -255.0875 
L 299.735735 -255.0875 
L 298.570352 -255.0875 
L 297.40497 -255.0875 
L 296.239588 -255.0875 
L 295.074205 -255.0875 
L 293.908823 -255.0875 
L 292.74344 -255.0875 
L 291.578058 -255.0875 
L 290.412675 -255.0875 
L 289.247293 -255.0875 
L 288.08191 -255.0875 
L 286.916528 -255.0875 
L 285.751145 -255.0875 
L 284.585763 -255.0875 
L 283.42038 -255.0875 
L 282.254998 -255.0875 
L 281.089615 -255.0875 
L 279.924233 -255.0875 
L 278.75885 -255.0875 
L 277.593468 -255.0875 
L 276.428085 -255.0875 
L 275.262703 -255.0875 
L 274.09732 -255.0875 
L 272.931938 -255.0875 
L 271.766556 -255.0875 
L 270.601173 -255.0875 
L 269.435791 -255.0875 
L 268.270408 -255.0875 
L 267.105026 -255.0875 
L 265.939643 -255.0875 
L 264.774261 -255.0875 
L 263.608878 -255.0875 
L 262.443496 -255.0875 
L 261.278113 -255.0875 
L 260.112731 -255.0875 
L 258.947348 -255.0875 
L 257.781966 -255.0875 
L 256.616583 -255.0875 
L 255.451201 -255.0875 
L 254.285818 -255.0875 
L 253.120436 -255.0875 
L 251.955053 -255.0875 
L 250.789671 -255.0875 
L 249.624289 -255.0875 
L 248.458906 -255.0875 
L 247.293524 -255.0875 
L 246.128141 -255.0875 
L 244.962759 -255.0875 
L 243.797376 -255.0875 
L 242.631994 -255.0875 
L 241.466611 -255.0875 
L 240.301229 -255.0875 
L 239.135846 -255.0875 
L 237.970464 -255.0875 
L 236.805081 -255.0875 
L 235.639699 -255.0875 
L 234.474316 -255.0875 
L 233.308934 -255.0875 
L 232.143551 -255.0875 
L 230.978169 -255.0875 
L 229.812786 -255.0875 
L 228.647404 -255.0875 
L 227.482021 -255.0875 
L 226.316639 -255.0875 
L 225.151257 -255.0875 
L 223.985874 -255.0875 
L 222.820492 -255.0875 
L 221.655109 -255.0875 
L 220.489727 -255.0875 
L 219.324344 -255.0875 
L 218.158962 -255.0875 
L 216.993579 -255.0875 
L 215.828197 -255.0875 
L 214.662814 -255.0875 
L 213.497432 -255.0875 
L 212.332049 -255.0875 
L 211.166667 -255.0875 
L 210.001284 -255.0875 
L 208.835902 -255.0875 
L 207.670519 -255.0875 
L 206.505137 -255.0875 
L 205.339754 -255.0875 
L 204.174372 -255.0875 
L 203.008989 -255.0875 
L 201.843607 -255.0875 
L 200.678225 -255.0875 
L 199.512842 -255.0875 
L 198.34746 -255.0875 
L 197.182077 -255.0875 
L 196.016695 -255.0875 
L 194.851312 -255.0875 
L 193.68593 -255.0875 
L 192.520547 -255.0875 
L 191.355165 -255.0875 
L 190.189782 -255.0875 
L 189.0244 -255.0875 
L 187.859017 -255.0875 
L 186.693635 -255.0875 
L 185.528252 -255.0875 
L 184.36287 -255.0875 
L 183.197487 -255.0875 
L 182.032105 -255.0875 
L 180.866722 -255.0875 
L 179.70134 -255.0875 
L 178.535957 -255.0875 
L 177.370575 -255.0875 
L 176.205193 -255.0875 
L 175.03981 -255.0875 
L 173.874428 -255.0875 
L 172.709045 -255.0875 
L 171.543663 -255.0875 
L 170.37828 -255.0875 
L 169.212898 -255.0875 
L 168.047515 -255.0875 
L 166.882133 -255.0875 
L 165.71675 -255.0875 
L 164.551368 -255.0875 
L 163.385985 -255.0875 
L 162.220603 -255.0875 
L 161.05522 -255.0875 
L 159.889838 -255.0875 
L 158.724455 -255.0875 
L 157.559073 -255.0875 
L 156.39369 -255.0875 
L 155.228308 -255.0875 
L 154.062926 -255.0875 
L 152.897543 -255.0875 
L 151.732161 -255.0875 
L 150.566778 -255.0875 
L 149.401396 -255.0875 
L 148.236013 -255.0875 
L 147.070631 -255.0875 
L 145.905248 -255.0875 
L 144.739866 -255.0875 
L 143.574483 -255.0875 
L 142.409101 -255.0875 
L 141.243718 -255.0875 
L 140.078336 -255.0875 
L 138.912953 -255.0875 
L 137.747571 -255.0875 
L 136.582188 -255.0875 
L 135.416806 -255.0875 
L 134.251423 -255.0875 
L 133.086041 -255.0875 
L 131.920658 -255.0875 
L 130.755276 -255.0875 
L 129.589894 -255.0875 
L 128.424511 -255.0875 
L 127.259129 -255.0875 
L 126.093746 -255.0875 
L 124.928364 -255.0875 
L 123.762981 -255.0875 
L 122.597599 -255.0875 
L 121.432216 -255.0875 
L 120.266834 -255.0875 
L 119.101451 -255.0875 
L 117.936069 -255.0875 
L 116.770686 -255.0875 
L 115.605304 -255.0875 
L 114.439921 -255.0875 
L 113.274539 -255.0875 
L 112.109156 -255.0875 
L 110.943774 -255.0875 
L 109.778391 -255.0875 
L 108.613009 -255.0875 
L 107.447626 -255.0875 
L 106.282244 -255.0875 
L 105.116862 -255.0875 
L 103.951479 -255.0875 
L 102.786097 -255.0875 
L 101.620714 -255.0875 
L 100.455332 -255.0875 
L 99.289949 -255.0875 
L 98.124567 -255.0875 
L 96.959184 -255.0875 
L 95.793802 -255.0875 
L 94.628419 -255.0875 
L 93.463037 -255.0875 
L 92.297654 -255.0875 
L 91.132272 -255.0875 
L 89.966889 -255.0875 
L 88.801507 -255.0875 
L 87.636124 -255.0875 
L 86.470742 -255.0875 
L 85.305359 -255.0875 
L 84.139977 -255.0875 
L 82.974594 -255.0875 
L 81.809212 -255.0875 
L 80.64383 -255.0875 
L 79.478447 -255.0875 
L 78.313065 -255.0875 
L 77.147682 -255.0875 
L 75.9823 -255.0875 
L 74.816917 -255.0875 
L 73.651535 -255.0875 
L 72.486152 -255.0875 
L 71.32077 -255.0875 
L 70.155387 -255.0875 
L 68.990005 -255.0875 
L 67.824622 -255.0875 
L 66.65924 -255.0875 
L 65.493857 -255.0875 
L 64.328475 -255.0875 
L 63.163092 -255.0875 
L 61.99771 -255.0875 
L 60.832327 -255.0875 
L 59.666945 -255.0875 
L 58.501563 -255.0875 
z
" style="stroke: #a3583c; stroke-opacity: 0.08"/>
    </defs>
    <g clip-path="url(#pb70df779f4)">
     <use xlink:href="#m9df575506d" x="0" y="499.624687" style="fill: #a3583c; fill-opacity: 0.08; stroke: #a3583c; stroke-opacity: 0.08"/>
    </g>
   </g>
   <g id="matplotlib.axis_1">
    <g id="xtick_1">
     <g id="line2d_1">
      <path d="M 58.501563 453.877187 
L 58.501563 35.197187 
" clip-path="url(#pb70df779f4)" style="fill: none; stroke: #d9cbb6; stroke-opacity: 0.45; stroke-width: 0.8; stroke-linecap: square"/>
     </g>
     <g id="line2d_2">
      <defs>
       <path id="m9c131fb268" d="M 0 0 
L 0 3.5 
" style="stroke: #756a5d; stroke-width: 0.8"/>
      </defs>
      <g>
       <use xlink:href="#m9c131fb268" x="58.501563" y="453.877187" style="fill: #756a5d; stroke: #756a5d; stroke-width: 0.8"/>
      </g>
     </g>
     <g id="text_1">
      <text style="font-size: 11px; font-family: 'DejaVu Serif'; text-anchor: middle; fill: #756a5d" x="58.501563" y="469.235469" transform="rotate(-0 58.501563 469.235469)">0.0</text>
     </g>
    </g>
    <g id="xtick_2">
     <g id="line2d_3">
      <path d="M 226.083562 453.877187 
L 226.083562 35.197187 
" clip-path="url(#pb70df779f4)" style="fill: none; stroke: #d9cbb6; stroke-opacity: 0.45; stroke-width: 0.8; stroke-linecap: square"/>
     </g>
     <g id="line2d_4">
      <g>
       <use xlink:href="#m9c131fb268" x="226.083562" y="453.877187" style="fill: #756a5d; stroke: #756a5d; stroke-width: 0.8"/>
      </g>
     </g>
     <g id="text_2">
      <text style="font-size: 11px; font-family: 'DejaVu Serif'; text-anchor: middle; fill: #756a5d" x="226.083562" y="469.235469" transform="rotate(-0 226.083562 469.235469)">0.2</text>
     </g>
    </g>
    <g id="xtick_3">
     <g id="line2d_5">
      <path d="M 393.665562 453.877187 
L 393.665562 35.197187 
" clip-path="url(#pb70df779f4)" style="fill: none; stroke: #d9cbb6; stroke-opacity: 0.45; stroke-width: 0.8; stroke-linecap: square"/>
     </g>
     <g id="line2d_6">
      <g>
       <use xlink:href="#m9c131fb268" x="393.665562" y="453.877187" style="fill: #756a5d; stroke: #756a5d; stroke-width: 0.8"/>
      </g>
     </g>
     <g id="text_3">
      <text style="font-size: 11px; font-family: 'DejaVu Serif'; text-anchor: middle; fill: #756a5d" x="393.665562" y="469.235469" transform="rotate(-0 393.665562 469.235469)">0.4</text>
     </g>
    </g>
    <g id="xtick_4">
     <g id="line2d_7">
      <path d="M 561.247563 453.877187 
L 561.247563 35.197187 
" clip-path="url(#pb70df779f4)" style="fill: none; stroke: #d9cbb6; stroke-opacity: 0.45; stroke-width: 0.8; stroke-linecap: square"/>
     </g>
     <g id="line2d_8">
      <g>
       <use xlink:href="#m9c131fb268" x="561.247563" y="453.877187" style="fill: #756a5d; stroke: #756a5d; stroke-width: 0.8"/>
      </g>
     </g>
     <g id="text_4">
      <text style="font-size: 11px; font-family: 'DejaVu Serif'; text-anchor: middle; fill: #756a5d" x="561.247563" y="469.235469" transform="rotate(-0 561.247563 469.235469)">0.6</text>
     </g>
    </g>
    <g id="xtick_5">
     <g id="line2d_9">
      <path d="M 728.829562 453.877187 
L 728.829562 35.197187 
" clip-path="url(#pb70df779f4)" style="fill: none; stroke: #d9cbb6; stroke-opacity: 0.45; stroke-width: 0.8; stroke-linecap: square"/>
     </g>
     <g id="line2d_10">
      <g>
       <use xlink:href="#m9c131fb268" x="728.829562" y="453.877187" style="fill: #756a5d; stroke: #756a5d; stroke-width: 0.8"/>
      </g>
     </g>
     <g id="text_5">
      <text style="font-size: 11px; font-family: 'DejaVu Serif'; text-anchor: middle; fill: #756a5d" x="728.829562" y="469.235469" transform="rotate(-0 728.829562 469.235469)">0.8</text>
     </g>
    </g>
    <g id="xtick_6">
     <g id="line2d_11">
      <path d="M 896.411562 453.877187 
L 896.411562 35.197187 
" clip-path="url(#pb70df779f4)" style="fill: none; stroke: #d9cbb6; stroke-opacity: 0.45; stroke-width: 0.8; stroke-linecap: square"/>
     </g>
     <g id="line2d_12">
      <g>
       <use xlink:href="#m9c131fb268" x="896.411562" y="453.877187" style="fill: #756a5d; stroke: #756a5d; stroke-width: 0.8"/>
      </g>
     </g>
     <g id="text_6">
      <text style="font-size: 11px; font-family: 'DejaVu Serif'; text-anchor: middle; fill: #756a5d" x="896.411562" y="469.235469" transform="rotate(-0 896.411562 469.235469)">1.0</text>
     </g>
    </g>
    <g id="text_7">
     <text style="font-size: 13px; font-family: 'DejaVu Serif'; text-anchor: middle; fill: #1f1b16" x="477.456563" y="485.401094" transform="rotate(-0 477.456563 485.401094)">Orbital phase</text>
    </g>
   </g>
   <g id="matplotlib.axis_2">
    <g id="ytick_1">
     <g id="line2d_13">
      <path d="M 58.501563 406.582804 
L 896.411562 406.582804 
" clip-path="url(#pb70df779f4)" style="fill: none; stroke: #d9cbb6; stroke-opacity: 0.45; stroke-width: 0.8; stroke-linecap: square"/>
     </g>
     <g id="line2d_14">
      <defs>
       <path id="mf59ccfd7ff" d="M 0 0 
L -3.5 0 
" style="stroke: #756a5d; stroke-width: 0.8"/>
      </defs>
      <g>
       <use xlink:href="#mf59ccfd7ff" x="58.501563" y="406.582804" style="fill: #756a5d; stroke: #756a5d; stroke-width: 0.8"/>
      </g>
     </g>
     <g id="text_8">
      <text style="font-size: 11px; font-family: 'DejaVu Serif'; text-anchor: end; fill: #756a5d" x="51.501563" y="410.761945" transform="rotate(-0 51.501563 410.761945)">−60</text>
     </g>
    </g>
    <g id="ytick_2">
     <g id="line2d_15">
      <path d="M 58.501563 352.567599 
L 896.411562 352.567599 
" clip-path="url(#pb70df779f4)" style="fill: none; stroke: #d9cbb6; stroke-opacity: 0.45; stroke-width: 0.8; stroke-linecap: square"/>
     </g>
     <g id="line2d_16">
      <g>
       <use xlink:href="#mf59ccfd7ff" x="58.501563" y="352.567599" style="fill: #756a5d; stroke: #756a5d; stroke-width: 0.8"/>
      </g>
     </g>
     <g id="text_9">
      <text style="font-size: 11px; font-family: 'DejaVu Serif'; text-anchor: end; fill: #756a5d" x="51.501563" y="356.746739" transform="rotate(-0 51.501563 356.746739)">−40</text>
     </g>
    </g>
    <g id="ytick_3">
     <g id="line2d_17">
      <path d="M 58.501563 298.552393 
L 896.411562 298.552393 
" clip-path="url(#pb70df779f4)" style="fill: none; stroke: #d9cbb6; stroke-opacity: 0.45; stroke-width: 0.8; stroke-linecap: square"/>
     </g>
     <g id="line2d_18">
      <g>
       <use xlink:href="#mf59ccfd7ff" x="58.501563" y="298.552393" style="fill: #756a5d; stroke: #756a5d; stroke-width: 0.8"/>
      </g>
     </g>
     <g id="text_10">
      <text style="font-size: 11px; font-family: 'DejaVu Serif'; text-anchor: end; fill: #756a5d" x="51.501563" y="302.731534" transform="rotate(-0 51.501563 302.731534)">−20</text>
     </g>
    </g>
    <g id="ytick_4">
     <g id="line2d_19">
      <path d="M 58.501563 244.537187 
L 896.411562 244.537187 
" clip-path="url(#pb70df779f4)" style="fill: none; stroke: #d9cbb6; stroke-opacity: 0.45; stroke-width: 0.8; stroke-linecap: square"/>
     </g>
     <g id="line2d_20">
      <g>
       <use xlink:href="#mf59ccfd7ff" x="58.501563" y="244.537187" style="fill: #756a5d; stroke: #756a5d; stroke-width: 0.8"/>
      </g>
     </g>
     <g id="text_11">
      <text style="font-size: 11px; font-family: 'DejaVu Serif'; text-anchor: end; fill: #756a5d" x="51.501563" y="248.716328" transform="rotate(-0 51.501563 248.716328)">0</text>
     </g>
    </g>
    <g id="ytick_5">
     <g id="line2d_21">
      <path d="M 58.501563 190.521982 
L 896.411562 190.521982 
" clip-path="url(#pb70df779f4)" style="fill: none; stroke: #d9cbb6; stroke-opacity: 0.45; stroke-width: 0.8; stroke-linecap: square"/>
     </g>
     <g id="line2d_22">
      <g>
       <use xlink:href="#mf59ccfd7ff" x="58.501563" y="190.521982" style="fill: #756a5d; stroke: #756a5d; stroke-width: 0.8"/>
      </g>
     </g>
     <g id="text_12">
      <text style="font-size: 11px; font-family: 'DejaVu Serif'; text-anchor: end; fill: #756a5d" x="51.501563" y="194.701123" transform="rotate(-0 51.501563 194.701123)">20</text>
     </g>
    </g>
    <g id="ytick_6">
     <g id="line2d_23">
      <path d="M 58.501563 136.506776 
L 896.411562 136.506776 
" clip-path="url(#pb70df779f4)" style="fill: none; stroke: #d9cbb6; stroke-opacity: 0.45; stroke-width: 0.8; stroke-linecap: square"/>
     </g>
     <g id="line2d_24">
      <g>
       <use xlink:href="#mf59ccfd7ff" x="58.501563" y="136.506776" style="fill: #756a5d; stroke: #756a5d; stroke-width: 0.8"/>
      </g>
     </g>
     <g id="text_13">
      <text style="font-size: 11px; font-family: 'DejaVu Serif'; text-anchor: end; fill: #756a5d" x="51.501563" y="140.685917" transform="rotate(-0 51.501563 140.685917)">40</text>
     </g>
    </g>
    <g id="ytick_7">
     <g id="line2d_25">
      <path d="M 58.501563 82.491571 
L 896.411562 82.491571 
" clip-path="url(#pb70df779f4)" style="fill: none; stroke: #d9cbb6; stroke-opacity: 0.45; stroke-width: 0.8; stroke-linecap: square"/>
     </g>
     <g id="line2d_26">
      <g>
       <use xlink:href="#mf59ccfd7ff" x="58.501563" y="82.491571" style="fill: #756a5d; stroke: #756a5d; stroke-width: 0.8"/>
      </g>
     </g>
     <g id="text_14">
      <text style="font-size: 11px; font-family: 'DejaVu Serif'; text-anchor: end; fill: #756a5d" x="51.501563" y="86.670711" transform="rotate(-0 51.501563 86.670711)">60</text>
     </g>
    </g>
    <g id="text_15">
     <text style="font-size: 13px; font-family: 'DejaVu Serif'; text-anchor: middle; fill: #1f1b16" x="21.397969" y="244.537187" transform="rotate(-90 21.397969 244.537187)">Stellar radial velocity (m/s)</text>
    </g>
   </g>
   <g id="line2d_27">
    <path d="M 58.501563 244.537187 
L 80.64383 277.359876 
L 93.463037 295.959401 
L 103.951479 310.78643 
L 113.274539 323.581525 
L 121.432216 334.423663 
L 129.589894 344.889385 
L 136.582188 353.528378 
L 143.574483 361.834562 
L 150.566778 369.784012 
L 157.559073 377.354189 
L 163.385985 383.357693 
L 169.212898 389.071746 
L 175.03981 394.485694 
L 180.866722 399.589653 
L 186.693635 404.374517 
L 192.520547 408.831968 
L 198.34746 412.95449 
L 203.008989 416.006817 
L 207.670519 418.837407 
L 212.332049 421.443521 
L 216.993579 423.82275 
L 221.655109 425.973011 
L 226.316639 427.892547 
L 230.978169 429.579921 
L 235.639699 431.034019 
L 240.301229 432.254041 
L 244.962759 433.239497 
L 249.624289 433.990206 
L 254.285818 434.506289 
L 258.947348 434.788161 
L 263.608878 434.836529 
L 268.270408 434.652386 
L 272.931938 434.237 
L 277.593468 433.591914 
L 282.254998 432.718935 
L 286.916528 431.620126 
L 291.578058 430.297802 
L 296.239588 428.754521 
L 300.901117 426.993079 
L 305.562647 425.016499 
L 310.224177 422.828023 
L 314.885707 420.431111 
L 319.547237 417.829425 
L 325.374149 414.295258 
L 331.201062 410.455142 
L 337.027974 406.317482 
L 342.854887 401.891102 
L 348.681799 397.185228 
L 354.508711 392.209461 
L 360.335624 386.973757 
L 367.327919 380.362309 
L 374.320213 373.409766 
L 381.312508 366.135108 
L 388.304803 358.557867 
L 396.46248 349.362088 
L 404.620158 339.814373 
L 412.777835 329.948105 
L 422.100895 318.326017 
L 432.589337 304.871519 
L 444.243162 289.538633 
L 458.227752 270.748918 
L 480.370019 240.553883 
L 502.512286 210.455116 
L 516.496875 191.824906 
L 528.1507 176.682597 
L 538.639142 163.44377 
L 547.962202 152.047907 
L 556.11988 142.40574 
L 564.277557 133.106044 
L 572.435234 124.181663 
L 579.427529 116.855204 
L 586.419824 109.847642 
L 593.412119 103.178051 
L 599.239031 97.891585 
L 605.065944 92.863022 
L 610.892856 88.10239 
L 616.719768 83.619361 
L 622.546681 79.423238 
L 628.373593 75.522927 
L 634.200505 71.926919 
L 640.027418 68.643264 
L 644.688948 66.246352 
L 649.350478 64.057876 
L 654.012008 62.081296 
L 658.673537 60.319854 
L 663.335067 58.776573 
L 667.996597 57.454249 
L 672.658127 56.35544 
L 677.319657 55.482461 
L 681.981187 54.837375 
L 686.642717 54.421989 
L 691.304247 54.237846 
L 695.965777 54.286214 
L 700.627307 54.568086 
L 705.288836 55.084169 
L 709.950366 55.834878 
L 714.611896 56.820334 
L 719.273426 58.040356 
L 723.934956 59.494454 
L 728.596486 61.181828 
L 733.258016 63.101364 
L 737.919546 65.251625 
L 742.581076 67.630854 
L 747.242606 70.236968 
L 751.904136 73.067558 
L 756.565665 76.119885 
L 761.227195 79.390881 
L 767.054108 83.781923 
L 772.88102 88.501944 
L 778.707932 93.542787 
L 784.534845 98.895504 
L 790.361757 104.550363 
L 796.18867 110.496865 
L 802.015582 116.723758 
L 809.007877 124.549217 
L 816.000172 132.739081 
L 822.992467 141.269879 
L 829.984761 150.116802 
L 838.142439 160.80292 
L 846.300116 171.840415 
L 855.623176 184.826726 
L 866.111618 199.826358 
L 878.930825 218.573484 
L 896.411562 244.537187 
L 896.411562 244.537187 
" clip-path="url(#pb70df779f4)" style="fill: none; stroke: #a3583c; stroke-width: 2.6; stroke-linecap: square"/>
   </g>
   <g id="line2d_28">
    <path d="M 58.501563 244.537187 
L 896.411562 244.537187 
" clip-path="url(#pb70df779f4)" style="fill: none; stroke-dasharray: 5.365,2.32; stroke-dashoffset: 0; stroke: #9b9184; stroke-opacity: 0.65; stroke-width: 1.45"/>
   </g>
   <g id="patch_3">
    <path d="M 58.501563 453.877187 
L 58.501563 35.197187 
" style="fill: none; stroke: #b9a98f; stroke-width: 0.8; stroke-linejoin: miter; stroke-linecap: square"/>
   </g>
   <g id="patch_4">
    <path d="M 896.411562 453.877187 
L 896.411562 35.197187 
" style="fill: none; stroke: #b9a98f; stroke-width: 0.8; stroke-linejoin: miter; stroke-linecap: square"/>
   </g>
   <g id="patch_5">
    <path d="M 58.501563 453.877187 
L 896.411562 453.877187 
" style="fill: none; stroke: #b9a98f; stroke-width: 0.8; stroke-linejoin: miter; stroke-linecap: square"/>
   </g>
   <g id="patch_6">
    <path d="M 58.501563 35.197187 
L 896.411562 35.197187 
" style="fill: none; stroke: #b9a98f; stroke-width: 0.8; stroke-linejoin: miter; stroke-linecap: square"/>
   </g>
   <g id="text_16">
    <g id="patch_7">
     <path d="M 71.070213 72.760563 
L 358.385213 72.760563 
Q 361.465213 72.760563 361.465213 69.680563 
L 361.465213 56.131188 
Q 361.465213 53.051188 358.385213 53.051188 
L 71.070213 53.051188 
Q 67.990213 53.051188 67.990213 56.131188 
L 67.990213 69.680563 
Q 67.990213 72.760563 71.070213 72.760563 
z
" style="fill: #fffaf0; opacity: 0.88"/>
    </g>
    <text style="font-size: 14px; font-family: 'DejaVu Serif'; text-anchor: start; fill: #756a5d" x="71.070213" y="66.769" transform="rotate(-0 71.070213 66.769)">K ≈ 70.5 m s^-1 · P ≈ 4.617 d · e = 0.02</text>
   </g>
   <g id="text_17">
    <text style="font-size: 10.5px; font-family: 'DejaVu Serif'; text-anchor: end; fill: #756a5d" x="888.032462" y="443.170619" transform="rotate(-0 888.032462 443.170619)">single-planet Keplerian model</text>
   </g>
   <g id="text_18">
    <text style="font-weight: 700; font-size: 18px; font-family: 'DejaVu Serif'; text-anchor: start; fill: #1f1b16" x="58.501563" y="25.197187" transform="rotate(-0 58.501563 25.197187)">Keplerian RV model — ups And b</text>
   </g>
  </g>
 </g>
 <defs>
  <clipPath id="pb70df779f4">
   <rect x="58.501563" y="35.197187" width="837.91" height="418.68"/>
  </clipPath>
 </defs>
</svg>
