<?xml version="1.0" encoding="utf-8" standalone="no"?>
<!DOCTYPE svg PUBLIC "-//W3C//DTD SVG 1.1//EN"
  "http://www.w3.org/Graphics/SVG/1.1/DTD/svg11.dtd">
<svg xmlns:xlink="http://www.w3.org/1999/xlink" width="916.657031pt" height="499.624687pt" viewBox="0 0 916.657031 499.624687" xmlns="http://www.w3.org/2000/svg" version="1.1">
 <metadata>
  <rdf:RDF xmlns:dc="http://purl.org/dc/elements/1.1/" xmlns:cc="http://creativecommons.org/ns#" xmlns:rdf="http://www.w3.org/1999/02/22-rdf-syntax-ns#">
   <cc:Work>
    <dc:type rdf:resource="http://purl.org/dc/dcmitype/StillImage"/>
    <dc:date>2026-05-11T11:58:03.123813</dc:date>
    <dc:format>image/svg+xml</dc:format>
    <dc:creator>
     <cc:Agent>
      <dc:title>Matplotlib v3.10.9, https://matplotlib.org/</dc:title>
     </cc:Agent>
    </dc:creator>
   </cc:Work>
  </rdf:RDF>
 </metadata>
 <defs>
  <style type="text/css">*{stroke-linejoin: round; stroke-linecap: butt}</style>
 </defs>
 <g id="figure_1">
  <g id="patch_1">
   <path d="M 0 499.624687 
L 916.657031 499.624687 
L 916.657031 0 
L 0 0 
z
" style="fill: #fffaf0"/>
  </g>
  <g id="axes_1">
   <g id="patch_2">
    <path d="M 65.500313 453.877187 
L 896.390312 453.877187 
L 896.390312 35.197187 
L 65.500313 35.197187 
z
" style="fill: #fffaf0"/>
   </g>
   <g id="FillBetweenPolyCollection_1">
    <defs>
     <path id="m330d181b35" d="M 65.500313 -255.0875 
L 65.500313 -255.0875 
L 66.655931 -252.157936 
L 67.81155 -249.229352 
L 68.967169 -246.302728 
L 70.122788 -243.37904 
L 71.278407 -240.459262 
L 72.434026 -237.544365 
L 73.589645 -234.635312 
L 74.745264 -231.733062 
L 75.900883 -228.838565 
L 77.056502 -225.952763 
L 78.212121 -223.076591 
L 79.367739 -220.210971 
L 80.523358 -217.356816 
L 81.678977 -214.515024 
L 82.834596 -211.686482 
L 83.990215 -208.872065 
L 85.145834 -206.072631 
L 86.301453 -203.289022 
L 87.457072 -200.522066 
L 88.612691 -197.772574 
L 89.76831 -195.041338 
L 90.923929 -192.329134 
L 92.079548 -189.636717 
L 93.235166 -186.964824 
L 94.390785 -184.314173 
L 95.546404 -181.68546 
L 96.702023 -179.079362 
L 97.857642 -176.496534 
L 99.013261 -173.93761 
L 100.16888 -171.403202 
L 101.324499 -168.893901 
L 102.480118 -166.410273 
L 103.635737 -163.952865 
L 104.791356 -161.522201 
L 105.946975 -159.118779 
L 107.102593 -156.743078 
L 108.258212 -154.395554 
L 109.413831 -152.076637 
L 110.56945 -149.786738 
L 111.725069 -147.526244 
L 112.880688 -145.295518 
L 114.036307 -143.094903 
L 115.191926 -140.924718 
L 116.347545 -138.785261 
L 117.503164 -136.676807 
L 118.658783 -134.599612 
L 119.814402 -132.553907 
L 120.97002 -130.539904 
L 122.125639 -128.557795 
L 123.281258 -126.607751 
L 124.436877 -124.689923 
L 125.592496 -122.804441 
L 126.748115 -120.951417 
L 127.903734 -119.130945 
L 129.059353 -117.3431 
L 130.214972 -115.587938 
L 131.370591 -113.865498 
L 132.52621 -112.175804 
L 133.681828 -110.518859 
L 134.837447 -108.894654 
L 135.993066 -107.303162 
L 137.148685 -105.744342 
L 138.304304 -104.218138 
L 139.459923 -102.724479 
L 140.615542 -101.26328 
L 141.771161 -99.834445 
L 142.92678 -98.437864 
L 144.082399 -97.073413 
L 145.238018 -95.740958 
L 146.393637 -94.440353 
L 147.549255 -93.171442 
L 148.704874 -91.934059 
L 149.860493 -90.728025 
L 151.016112 -89.553154 
L 152.171731 -88.409251 
L 153.32735 -87.296113 
L 154.482969 -86.213526 
L 155.638588 -85.161271 
L 156.794207 -84.13912 
L 157.949826 -83.14684 
L 159.105445 -82.184191 
L 160.261064 -81.250924 
L 161.416682 -80.346789 
L 162.572301 -79.471528 
L 163.72792 -78.624877 
L 164.883539 -77.80657 
L 166.039158 -77.016337 
L 167.194777 -76.2539 
L 168.350396 -75.518982 
L 169.506015 -74.811301 
L 170.661634 -74.130571 
L 171.817253 -73.476505 
L 172.972872 -72.848813 
L 174.128491 -72.247203 
L 175.284109 -71.671382 
L 176.439728 -71.121054 
L 177.595347 -70.595922 
L 178.750966 -70.095688 
L 179.906585 -69.620055 
L 181.062204 -69.168724 
L 182.217823 -68.741394 
L 183.373442 -68.337766 
L 184.529061 -67.957541 
L 185.68468 -67.60042 
L 186.840299 -67.266103 
L 187.995918 -66.954292 
L 189.151536 -66.66469 
L 190.307155 -66.396999 
L 191.462774 -66.150925 
L 192.618393 -65.926172 
L 193.774012 -65.722447 
L 194.929631 -65.539459 
L 196.08525 -65.376917 
L 197.240869 -65.234532 
L 198.396488 -65.112019 
L 199.552107 -65.009091 
L 200.707726 -64.925466 
L 201.863344 -64.860864 
L 203.018963 -64.815004 
L 204.174582 -64.78761 
L 205.330201 -64.778409 
L 206.48582 -64.787128 
L 207.641439 -64.813497 
L 208.797058 -64.85725 
L 209.952677 -64.918122 
L 211.108296 -64.99585 
L 212.263915 -65.090176 
L 213.419534 -65.200842 
L 214.575153 -65.327594 
L 215.730771 -65.470181 
L 216.88639 -65.628355 
L 218.042009 -65.801868 
L 219.197628 -65.990479 
L 220.353247 -66.193947 
L 221.508866 -66.412034 
L 222.664485 -66.644505 
L 223.820104 -66.89113 
L 224.975723 -67.151678 
L 226.131342 -67.425924 
L 227.286961 -67.713644 
L 228.44258 -68.014618 
L 229.598198 -68.328629 
L 230.753817 -68.655461 
L 231.909436 -68.994904 
L 233.065055 -69.346747 
L 234.220674 -69.710785 
L 235.376293 -70.086814 
L 236.531912 -70.474634 
L 237.687531 -70.874047 
L 238.84315 -71.284858 
L 239.998769 -71.706875 
L 241.154388 -72.139909 
L 242.310007 -72.583772 
L 243.465625 -73.038281 
L 244.621244 -73.503255 
L 245.776863 -73.978515 
L 246.932482 -74.463884 
L 248.088101 -74.95919 
L 249.24372 -75.464262 
L 250.399339 -75.978931 
L 251.554958 -76.503033 
L 252.710577 -77.036403 
L 253.866196 -77.578882 
L 255.021815 -78.130312 
L 256.177434 -78.690536 
L 257.333052 -79.259402 
L 258.488671 -79.836759 
L 259.64429 -80.422459 
L 260.799909 -81.016355 
L 261.955528 -81.618304 
L 263.111147 -82.228164 
L 264.266766 -82.845796 
L 265.422385 -83.471064 
L 266.578004 -84.103832 
L 267.733623 -84.743968 
L 268.889242 -85.391343 
L 270.04486 -86.045826 
L 271.200479 -86.707294 
L 272.356098 -87.37562 
L 273.511717 -88.050684 
L 274.667336 -88.732365 
L 275.822955 -89.420546 
L 276.978574 -90.11511 
L 278.134193 -90.815943 
L 279.289812 -91.522933 
L 280.445431 -92.23597 
L 281.60105 -92.954945 
L 282.756669 -93.679752 
L 283.912287 -94.410286 
L 285.067906 -95.146443 
L 286.223525 -95.888123 
L 287.379144 -96.635225 
L 288.534763 -97.387652 
L 289.690382 -98.145308 
L 290.846001 -98.908098 
L 292.00162 -99.675929 
L 293.157239 -100.44871 
L 294.312858 -101.22635 
L 295.468477 -102.008762 
L 296.624096 -102.795859 
L 297.779714 -103.587555 
L 298.935333 -104.383767 
L 300.090952 -105.184412 
L 301.246571 -105.98941 
L 302.40219 -106.79868 
L 303.557809 -107.612146 
L 304.713428 -108.429729 
L 305.869047 -109.251355 
L 307.024666 -110.07695 
L 308.180285 -110.906439 
L 309.335904 -111.739753 
L 310.491523 -112.576821 
L 311.647141 -113.417573 
L 312.80276 -114.261942 
L 313.958379 -115.10986 
L 315.113998 -115.961263 
L 316.269617 -116.816086 
L 317.425236 -117.674266 
L 318.580855 -118.535741 
L 319.736474 -119.400449 
L 320.892093 -120.268331 
L 322.047712 -121.139327 
L 323.203331 -122.01338 
L 324.358949 -122.890433 
L 325.514568 -123.77043 
L 326.670187 -124.653316 
L 327.825806 -125.539038 
L 328.981425 -126.427542 
L 330.137044 -127.318776 
L 331.292663 -128.212689 
L 332.448282 -129.109231 
L 333.603901 -130.008352 
L 334.75952 -130.910005 
L 335.915139 -131.814141 
L 337.070758 -132.720714 
L 338.226376 -133.629678 
L 339.381995 -134.540988 
L 340.537614 -135.454599 
L 341.693233 -136.370468 
L 342.848852 -137.288552 
L 344.004471 -138.208809 
L 345.16009 -139.131198 
L 346.315709 -140.055678 
L 347.471328 -140.98221 
L 348.626947 -141.910754 
L 349.782566 -142.841272 
L 350.938185 -143.773726 
L 352.093803 -144.708079 
L 353.249422 -145.644295 
L 354.405041 -146.582337 
L 355.56066 -147.522172 
L 356.716279 -148.463763 
L 357.871898 -149.407078 
L 359.027517 -150.352083 
L 360.183136 -151.298745 
L 361.338755 -152.247032 
L 362.494374 -153.196912 
L 363.649993 -154.148355 
L 364.805612 -155.101329 
L 365.96123 -156.055806 
L 367.116849 -157.011755 
L 368.272468 -157.969147 
L 369.428087 -158.927955 
L 370.583706 -159.88815 
L 371.739325 -160.849705 
L 372.894944 -161.812592 
L 374.050563 -162.776786 
L 375.206182 -163.74226 
L 376.361801 -164.708988 
L 377.51742 -165.676947 
L 378.673039 -166.64611 
L 379.828657 -167.616454 
L 380.984276 -168.587954 
L 382.139895 -169.560588 
L 383.295514 -170.534332 
L 384.451133 -171.509164 
L 385.606752 -172.485061 
L 386.762371 -173.462002 
L 387.91799 -174.439965 
L 389.073609 -175.418928 
L 390.229228 -176.398872 
L 391.384847 -177.379775 
L 392.540465 -178.361618 
L 393.696084 -179.34438 
L 394.851703 -180.328043 
L 396.007322 -181.312588 
L 397.162941 -182.297995 
L 398.31856 -183.284245 
L 399.474179 -184.271322 
L 400.629798 -185.259207 
L 401.785417 -186.247882 
L 402.941036 -187.237331 
L 404.096655 -188.227535 
L 405.252274 -189.218479 
L 406.407892 -190.210146 
L 407.563511 -191.20252 
L 408.71913 -192.195585 
L 409.874749 -193.189325 
L 411.030368 -194.183724 
L 412.185987 -195.178768 
L 413.341606 -196.174442 
L 414.497225 -197.17073 
L 415.652844 -198.167619 
L 416.808463 -199.165094 
L 417.964082 -200.16314 
L 419.119701 -201.161745 
L 420.275319 -202.160894 
L 421.430938 -203.160574 
L 422.586557 -204.160772 
L 423.742176 -205.161474 
L 424.897795 -206.162668 
L 426.053414 -207.164342 
L 427.209033 -208.166481 
L 428.364652 -209.169075 
L 429.520271 -210.172111 
L 430.67589 -211.175577 
L 431.831509 -212.179461 
L 432.987128 -213.183751 
L 434.142746 -214.188436 
L 435.298365 -215.193504 
L 436.453984 -216.198945 
L 437.609603 -217.204747 
L 438.765222 -218.210898 
L 439.920841 -219.217389 
L 441.07646 -220.224209 
L 442.232079 -221.231346 
L 443.387698 -222.238791 
L 444.543317 -223.246532 
L 445.698936 -224.25456 
L 446.854555 -225.262865 
L 448.010173 -226.271437 
L 449.165792 -227.280264 
L 450.321411 -228.289339 
L 451.47703 -229.298651 
L 452.632649 -230.308189 
L 453.788268 -231.317946 
L 454.943887 -232.32791 
L 456.099506 -233.338074 
L 457.255125 -234.348426 
L 458.410744 -235.358959 
L 459.566363 -236.369663 
L 460.721981 -237.380528 
L 461.8776 -238.391547 
L 463.033219 -239.402708 
L 464.188838 -240.414005 
L 465.344457 -241.425427 
L 466.500076 -242.436966 
L 467.655695 -243.448613 
L 468.811314 -244.460359 
L 469.966933 -245.472196 
L 471.122552 -246.484114 
L 472.278171 -247.496106 
L 473.43379 -248.508162 
L 474.589408 -249.520273 
L 475.745027 -250.532432 
L 476.900646 -251.544629 
L 478.056265 -252.556857 
L 479.211884 -253.569105 
L 480.367503 -254.581367 
L 481.523122 -255.593633 
L 482.678741 -256.605895 
L 483.83436 -257.618143 
L 484.989979 -258.630371 
L 486.145598 -259.642568 
L 487.301217 -260.654727 
L 488.456835 -261.666838 
L 489.612454 -262.678894 
L 490.768073 -263.690886 
L 491.923692 -264.702804 
L 493.079311 -265.714641 
L 494.23493 -266.726387 
L 495.390549 -267.738034 
L 496.546168 -268.749573 
L 497.701787 -269.760995 
L 498.857406 -270.772292 
L 500.013025 -271.783453 
L 501.168644 -272.794472 
L 502.324262 -273.805337 
L 503.479881 -274.816041 
L 504.6355 -275.826574 
L 505.791119 -276.836926 
L 506.946738 -277.84709 
L 508.102357 -278.857054 
L 509.257976 -279.866811 
L 510.413595 -280.876349 
L 511.569214 -281.885661 
L 512.724833 -282.894736 
L 513.880452 -283.903563 
L 515.03607 -284.912135 
L 516.191689 -285.92044 
L 517.347308 -286.928468 
L 518.502927 -287.936209 
L 519.658546 -288.943654 
L 520.814165 -289.950791 
L 521.969784 -290.957611 
L 523.125403 -291.964102 
L 524.281022 -292.970253 
L 525.436641 -293.976055 
L 526.59226 -294.981496 
L 527.747879 -295.986564 
L 528.903497 -296.991249 
L 530.059116 -297.995539 
L 531.214735 -298.999423 
L 532.370354 -300.002889 
L 533.525973 -301.005925 
L 534.681592 -302.008519 
L 535.837211 -303.010658 
L 536.99283 -304.012332 
L 538.148449 -305.013526 
L 539.304068 -306.014228 
L 540.459687 -307.014426 
L 541.615306 -308.014106 
L 542.770924 -309.013255 
L 543.926543 -310.01186 
L 545.082162 -311.009906 
L 546.237781 -312.007381 
L 547.3934 -313.00427 
L 548.549019 -314.000558 
L 549.704638 -314.996232 
L 550.860257 -315.991276 
L 552.015876 -316.985675 
L 553.171495 -317.979415 
L 554.327114 -318.97248 
L 555.482733 -319.964854 
L 556.638351 -320.956521 
L 557.79397 -321.947465 
L 558.949589 -322.937669 
L 560.105208 -323.927118 
L 561.260827 -324.915793 
L 562.416446 -325.903678 
L 563.572065 -326.890755 
L 564.727684 -327.877005 
L 565.883303 -328.862412 
L 567.038922 -329.846957 
L 568.194541 -330.83062 
L 569.35016 -331.813382 
L 570.505778 -332.795225 
L 571.661397 -333.776128 
L 572.817016 -334.756072 
L 573.972635 -335.735035 
L 575.128254 -336.712998 
L 576.283873 -337.689939 
L 577.439492 -338.665836 
L 578.595111 -339.640668 
L 579.75073 -340.614412 
L 580.906349 -341.587046 
L 582.061968 -342.558546 
L 583.217586 -343.52889 
L 584.373205 -344.498053 
L 585.528824 -345.466012 
L 586.684443 -346.43274 
L 587.840062 -347.398214 
L 588.995681 -348.362408 
L 590.1513 -349.325295 
L 591.306919 -350.28685 
L 592.462538 -351.247045 
L 593.618157 -352.205853 
L 594.773776 -353.163245 
L 595.929395 -354.119194 
L 597.085013 -355.073671 
L 598.240632 -356.026645 
L 599.396251 -356.978088 
L 600.55187 -357.927968 
L 601.707489 -358.876255 
L 602.863108 -359.822917 
L 604.018727 -360.767922 
L 605.174346 -361.711237 
L 606.329965 -362.652828 
L 607.485584 -363.592663 
L 608.641203 -364.530705 
L 609.796822 -365.466921 
L 610.95244 -366.401274 
L 612.108059 -367.333728 
L 613.263678 -368.264246 
L 614.419297 -369.19279 
L 615.574916 -370.119322 
L 616.730535 -371.043802 
L 617.886154 -371.966191 
L 619.041773 -372.886448 
L 620.197392 -373.804532 
L 621.353011 -374.720401 
L 622.50863 -375.634012 
L 623.664249 -376.545322 
L 624.819867 -377.454286 
L 625.975486 -378.360859 
L 627.131105 -379.264995 
L 628.286724 -380.166648 
L 629.442343 -381.065769 
L 630.597962 -381.962311 
L 631.753581 -382.856224 
L 632.9092 -383.747458 
L 634.064819 -384.635962 
L 635.220438 -385.521684 
L 636.376057 -386.40457 
L 637.531676 -387.284567 
L 638.687294 -388.16162 
L 639.842913 -389.035673 
L 640.998532 -389.906669 
L 642.154151 -390.774551 
L 643.30977 -391.639259 
L 644.465389 -392.500734 
L 645.621008 -393.358914 
L 646.776627 -394.213737 
L 647.932246 -395.06514 
L 649.087865 -395.913058 
L 650.243484 -396.757427 
L 651.399102 -397.598179 
L 652.554721 -398.435247 
L 653.71034 -399.268561 
L 654.865959 -400.09805 
L 656.021578 -400.923645 
L 657.177197 -401.745271 
L 658.332816 -402.562854 
L 659.488435 -403.37632 
L 660.644054 -404.18559 
L 661.799673 -404.990588 
L 662.955292 -405.791233 
L 664.110911 -406.587445 
L 665.266529 -407.379141 
L 666.422148 -408.166238 
L 667.577767 -408.94865 
L 668.733386 -409.72629 
L 669.889005 -410.499071 
L 671.044624 -411.266902 
L 672.200243 -412.029692 
L 673.355862 -412.787348 
L 674.511481 -413.539775 
L 675.6671 -414.286877 
L 676.822719 -415.028557 
L 677.978338 -415.764714 
L 679.133956 -416.495248 
L 680.289575 -417.220055 
L 681.445194 -417.93903 
L 682.600813 -418.652067 
L 683.756432 -419.359057 
L 684.912051 -420.05989 
L 686.06767 -420.754454 
L 687.223289 -421.442635 
L 688.378908 -422.124316 
L 689.534527 -422.79938 
L 690.690146 -423.467706 
L 691.845765 -424.129174 
L 693.001383 -424.783657 
L 694.157002 -425.431032 
L 695.312621 -426.071168 
L 696.46824 -426.703936 
L 697.623859 -427.329204 
L 698.779478 -427.946836 
L 699.935097 -428.556696 
L 701.090716 -429.158645 
L 702.246335 -429.752541 
L 703.401954 -430.338241 
L 704.557573 -430.915598 
L 705.713191 -431.484464 
L 706.86881 -432.044688 
L 708.024429 -432.596118 
L 709.180048 -433.138597 
L 710.335667 -433.671967 
L 711.491286 -434.196069 
L 712.646905 -434.710738 
L 713.802524 -435.21581 
L 714.958143 -435.711116 
L 716.113762 -436.196485 
L 717.269381 -436.671745 
L 718.425 -437.136719 
L 719.580618 -437.591228 
L 720.736237 -438.035091 
L 721.891856 -438.468125 
L 723.047475 -438.890142 
L 724.203094 -439.300953 
L 725.358713 -439.700366 
L 726.514332 -440.088186 
L 727.669951 -440.464215 
L 728.82557 -440.828253 
L 729.981189 -441.180096 
L 731.136808 -441.519539 
L 732.292427 -441.846371 
L 733.448045 -442.160382 
L 734.603664 -442.461356 
L 735.759283 -442.749076 
L 736.914902 -443.023322 
L 738.070521 -443.28387 
L 739.22614 -443.530495 
L 740.381759 -443.762966 
L 741.537378 -443.981053 
L 742.692997 -444.184521 
L 743.848616 -444.373132 
L 745.004235 -444.546645 
L 746.159854 -444.704819 
L 747.315472 -444.847406 
L 748.471091 -444.974158 
L 749.62671 -445.084824 
L 750.782329 -445.17915 
L 751.937948 -445.256878 
L 753.093567 -445.31775 
L 754.249186 -445.361503 
L 755.404805 -445.387872 
L 756.560424 -445.396591 
L 757.716043 -445.38739 
L 758.871662 -445.359996 
L 760.027281 -445.314136 
L 761.182899 -445.249534 
L 762.338518 -445.165909 
L 763.494137 -445.062981 
L 764.649756 -444.940468 
L 765.805375 -444.798083 
L 766.960994 -444.635541 
L 768.116613 -444.452553 
L 769.272232 -444.248828 
L 770.427851 -444.024075 
L 771.58347 -443.778001 
L 772.739089 -443.51031 
L 773.894707 -443.220708 
L 775.050326 -442.908897 
L 776.205945 -442.57458 
L 777.361564 -442.217459 
L 778.517183 -441.837234 
L 779.672802 -441.433606 
L 780.828421 -441.006276 
L 781.98404 -440.554945 
L 783.139659 -440.079312 
L 784.295278 -439.579078 
L 785.450897 -439.053946 
L 786.606516 -438.503618 
L 787.762134 -437.927797 
L 788.917753 -437.326187 
L 790.073372 -436.698495 
L 791.228991 -436.044429 
L 792.38461 -435.363699 
L 793.540229 -434.656018 
L 794.695848 -433.9211 
L 795.851467 -433.158663 
L 797.007086 -432.36843 
L 798.162705 -431.550123 
L 799.318324 -430.703472 
L 800.473943 -429.828211 
L 801.629561 -428.924076 
L 802.78518 -427.990809 
L 803.940799 -427.02816 
L 805.096418 -426.03588 
L 806.252037 -425.013729 
L 807.407656 -423.961474 
L 808.563275 -422.878887 
L 809.718894 -421.765749 
L 810.874513 -420.621846 
L 812.030132 -419.446975 
L 813.185751 -418.240941 
L 814.34137 -417.003558 
L 815.496988 -415.734647 
L 816.652607 -414.434042 
L 817.808226 -413.101587 
L 818.963845 -411.737136 
L 820.119464 -410.340555 
L 821.275083 -408.91172 
L 822.430702 -407.450521 
L 823.586321 -405.956862 
L 824.74194 -404.430658 
L 825.897559 -402.871838 
L 827.053178 -401.280346 
L 828.208797 -399.656141 
L 829.364415 -397.999196 
L 830.520034 -396.309502 
L 831.675653 -394.587062 
L 832.831272 -392.8319 
L 833.986891 -391.044055 
L 835.14251 -389.223583 
L 836.298129 -387.370559 
L 837.453748 -385.485077 
L 838.609367 -383.567249 
L 839.764986 -381.617205 
L 840.920605 -379.635096 
L 842.076223 -377.621093 
L 843.231842 -375.575388 
L 844.387461 -373.498193 
L 845.54308 -371.389739 
L 846.698699 -369.250282 
L 847.854318 -367.080097 
L 849.009937 -364.879482 
L 850.165556 -362.648756 
L 851.321175 -360.388262 
L 852.476794 -358.098363 
L 853.632413 -355.779446 
L 854.788032 -353.431922 
L 855.94365 -351.056221 
L 857.099269 -348.652799 
L 858.254888 -346.222135 
L 859.410507 -343.764727 
L 860.566126 -341.281099 
L 861.721745 -338.771798 
L 862.877364 -336.23739 
L 864.032983 -333.678466 
L 865.188602 -331.095638 
L 866.344221 -328.48954 
L 867.49984 -325.860827 
L 868.655459 -323.210176 
L 869.811077 -320.538283 
L 870.966696 -317.845866 
L 872.122315 -315.133662 
L 873.277934 -312.402426 
L 874.433553 -309.652934 
L 875.589172 -306.885978 
L 876.744791 -304.102369 
L 877.90041 -301.302935 
L 879.056029 -298.488518 
L 880.211648 -295.659976 
L 881.367267 -292.818184 
L 882.522886 -289.964029 
L 883.678504 -287.098409 
L 884.834123 -284.222237 
L 885.989742 -281.336435 
L 887.145361 -278.441938 
L 888.30098 -275.539688 
L 889.456599 -272.630635 
L 890.612218 -269.715738 
L 891.767837 -266.79596 
L 892.923456 -263.872272 
L 894.079075 -260.945648 
L 895.234694 -258.017064 
L 896.390312 -255.0875 
L 896.390312 -255.0875 
L 896.390312 -255.0875 
L 895.234694 -255.0875 
L 894.079075 -255.0875 
L 892.923456 -255.0875 
L 891.767837 -255.0875 
L 890.612218 -255.0875 
L 889.456599 -255.0875 
L 888.30098 -255.0875 
L 887.145361 -255.0875 
L 885.989742 -255.0875 
L 884.834123 -255.0875 
L 883.678504 -255.0875 
L 882.522886 -255.0875 
L 881.367267 -255.0875 
L 880.211648 -255.0875 
L 879.056029 -255.0875 
L 877.90041 -255.0875 
L 876.744791 -255.0875 
L 875.589172 -255.0875 
L 874.433553 -255.0875 
L 873.277934 -255.0875 
L 872.122315 -255.0875 
L 870.966696 -255.0875 
L 869.811077 -255.0875 
L 868.655459 -255.0875 
L 867.49984 -255.0875 
L 866.344221 -255.0875 
L 865.188602 -255.0875 
L 864.032983 -255.0875 
L 862.877364 -255.0875 
L 861.721745 -255.0875 
L 860.566126 -255.0875 
L 859.410507 -255.0875 
L 858.254888 -255.0875 
L 857.099269 -255.0875 
L 855.94365 -255.0875 
L 854.788032 -255.0875 
L 853.632413 -255.0875 
L 852.476794 -255.0875 
L 851.321175 -255.0875 
L 850.165556 -255.0875 
L 849.009937 -255.0875 
L 847.854318 -255.0875 
L 846.698699 -255.0875 
L 845.54308 -255.0875 
L 844.387461 -255.0875 
L 843.231842 -255.0875 
L 842.076223 -255.0875 
L 840.920605 -255.0875 
L 839.764986 -255.0875 
L 838.609367 -255.0875 
L 837.453748 -255.0875 
L 836.298129 -255.0875 
L 835.14251 -255.0875 
L 833.986891 -255.0875 
L 832.831272 -255.0875 
L 831.675653 -255.0875 
L 830.520034 -255.0875 
L 829.364415 -255.0875 
L 828.208797 -255.0875 
L 827.053178 -255.0875 
L 825.897559 -255.0875 
L 824.74194 -255.0875 
L 823.586321 -255.0875 
L 822.430702 -255.0875 
L 821.275083 -255.0875 
L 820.119464 -255.0875 
L 818.963845 -255.0875 
L 817.808226 -255.0875 
L 816.652607 -255.0875 
L 815.496988 -255.0875 
L 814.34137 -255.0875 
L 813.185751 -255.0875 
L 812.030132 -255.0875 
L 810.874513 -255.0875 
L 809.718894 -255.0875 
L 808.563275 -255.0875 
L 807.407656 -255.0875 
L 806.252037 -255.0875 
L 805.096418 -255.0875 
L 803.940799 -255.0875 
L 802.78518 -255.0875 
L 801.629561 -255.0875 
L 800.473943 -255.0875 
L 799.318324 -255.0875 
L 798.162705 -255.0875 
L 797.007086 -255.0875 
L 795.851467 -255.0875 
L 794.695848 -255.0875 
L 793.540229 -255.0875 
L 792.38461 -255.0875 
L 791.228991 -255.0875 
L 790.073372 -255.0875 
L 788.917753 -255.0875 
L 787.762134 -255.0875 
L 786.606516 -255.0875 
L 785.450897 -255.0875 
L 784.295278 -255.0875 
L 783.139659 -255.0875 
L 781.98404 -255.0875 
L 780.828421 -255.0875 
L 779.672802 -255.0875 
L 778.517183 -255.0875 
L 777.361564 -255.0875 
L 776.205945 -255.0875 
L 775.050326 -255.0875 
L 773.894707 -255.0875 
L 772.739089 -255.0875 
L 771.58347 -255.0875 
L 770.427851 -255.0875 
L 769.272232 -255.0875 
L 768.116613 -255.0875 
L 766.960994 -255.0875 
L 765.805375 -255.0875 
L 764.649756 -255.0875 
L 763.494137 -255.0875 
L 762.338518 -255.0875 
L 761.182899 -255.0875 
L 760.027281 -255.0875 
L 758.871662 -255.0875 
L 757.716043 -255.0875 
L 756.560424 -255.0875 
L 755.404805 -255.0875 
L 754.249186 -255.0875 
L 753.093567 -255.0875 
L 751.937948 -255.0875 
L 750.782329 -255.0875 
L 749.62671 -255.0875 
L 748.471091 -255.0875 
L 747.315472 -255.0875 
L 746.159854 -255.0875 
L 745.004235 -255.0875 
L 743.848616 -255.0875 
L 742.692997 -255.0875 
L 741.537378 -255.0875 
L 740.381759 -255.0875 
L 739.22614 -255.0875 
L 738.070521 -255.0875 
L 736.914902 -255.0875 
L 735.759283 -255.0875 
L 734.603664 -255.0875 
L 733.448045 -255.0875 
L 732.292427 -255.0875 
L 731.136808 -255.0875 
L 729.981189 -255.0875 
L 728.82557 -255.0875 
L 727.669951 -255.0875 
L 726.514332 -255.0875 
L 725.358713 -255.0875 
L 724.203094 -255.0875 
L 723.047475 -255.0875 
L 721.891856 -255.0875 
L 720.736237 -255.0875 
L 719.580618 -255.0875 
L 718.425 -255.0875 
L 717.269381 -255.0875 
L 716.113762 -255.0875 
L 714.958143 -255.0875 
L 713.802524 -255.0875 
L 712.646905 -255.0875 
L 711.491286 -255.0875 
L 710.335667 -255.0875 
L 709.180048 -255.0875 
L 708.024429 -255.0875 
L 706.86881 -255.0875 
L 705.713191 -255.0875 
L 704.557573 -255.0875 
L 703.401954 -255.0875 
L 702.246335 -255.0875 
L 701.090716 -255.0875 
L 699.935097 -255.0875 
L 698.779478 -255.0875 
L 697.623859 -255.0875 
L 696.46824 -255.0875 
L 695.312621 -255.0875 
L 694.157002 -255.0875 
L 693.001383 -255.0875 
L 691.845765 -255.0875 
L 690.690146 -255.0875 
L 689.534527 -255.0875 
L 688.378908 -255.0875 
L 687.223289 -255.0875 
L 686.06767 -255.0875 
L 684.912051 -255.0875 
L 683.756432 -255.0875 
L 682.600813 -255.0875 
L 681.445194 -255.0875 
L 680.289575 -255.0875 
L 679.133956 -255.0875 
L 677.978338 -255.0875 
L 676.822719 -255.0875 
L 675.6671 -255.0875 
L 674.511481 -255.0875 
L 673.355862 -255.0875 
L 672.200243 -255.0875 
L 671.044624 -255.0875 
L 669.889005 -255.0875 
L 668.733386 -255.0875 
L 667.577767 -255.0875 
L 666.422148 -255.0875 
L 665.266529 -255.0875 
L 664.110911 -255.0875 
L 662.955292 -255.0875 
L 661.799673 -255.0875 
L 660.644054 -255.0875 
L 659.488435 -255.0875 
L 658.332816 -255.0875 
L 657.177197 -255.0875 
L 656.021578 -255.0875 
L 654.865959 -255.0875 
L 653.71034 -255.0875 
L 652.554721 -255.0875 
L 651.399102 -255.0875 
L 650.243484 -255.0875 
L 649.087865 -255.0875 
L 647.932246 -255.0875 
L 646.776627 -255.0875 
L 645.621008 -255.0875 
L 644.465389 -255.0875 
L 643.30977 -255.0875 
L 642.154151 -255.0875 
L 640.998532 -255.0875 
L 639.842913 -255.0875 
L 638.687294 -255.0875 
L 637.531676 -255.0875 
L 636.376057 -255.0875 
L 635.220438 -255.0875 
L 634.064819 -255.0875 
L 632.9092 -255.0875 
L 631.753581 -255.0875 
L 630.597962 -255.0875 
L 629.442343 -255.0875 
L 628.286724 -255.0875 
L 627.131105 -255.0875 
L 625.975486 -255.0875 
L 624.819867 -255.0875 
L 623.664249 -255.0875 
L 622.50863 -255.0875 
L 621.353011 -255.0875 
L 620.197392 -255.0875 
L 619.041773 -255.0875 
L 617.886154 -255.0875 
L 616.730535 -255.0875 
L 615.574916 -255.0875 
L 614.419297 -255.0875 
L 613.263678 -255.0875 
L 612.108059 -255.0875 
L 610.95244 -255.0875 
L 609.796822 -255.0875 
L 608.641203 -255.0875 
L 607.485584 -255.0875 
L 606.329965 -255.0875 
L 605.174346 -255.0875 
L 604.018727 -255.0875 
L 602.863108 -255.0875 
L 601.707489 -255.0875 
L 600.55187 -255.0875 
L 599.396251 -255.0875 
L 598.240632 -255.0875 
L 597.085013 -255.0875 
L 595.929395 -255.0875 
L 594.773776 -255.0875 
L 593.618157 -255.0875 
L 592.462538 -255.0875 
L 591.306919 -255.0875 
L 590.1513 -255.0875 
L 588.995681 -255.0875 
L 587.840062 -255.0875 
L 586.684443 -255.0875 
L 585.528824 -255.0875 
L 584.373205 -255.0875 
L 583.217586 -255.0875 
L 582.061968 -255.0875 
L 580.906349 -255.0875 
L 579.75073 -255.0875 
L 578.595111 -255.0875 
L 577.439492 -255.0875 
L 576.283873 -255.0875 
L 575.128254 -255.0875 
L 573.972635 -255.0875 
L 572.817016 -255.0875 
L 571.661397 -255.0875 
L 570.505778 -255.0875 
L 569.35016 -255.0875 
L 568.194541 -255.0875 
L 567.038922 -255.0875 
L 565.883303 -255.0875 
L 564.727684 -255.0875 
L 563.572065 -255.0875 
L 562.416446 -255.0875 
L 561.260827 -255.0875 
L 560.105208 -255.0875 
L 558.949589 -255.0875 
L 557.79397 -255.0875 
L 556.638351 -255.0875 
L 555.482733 -255.0875 
L 554.327114 -255.0875 
L 553.171495 -255.0875 
L 552.015876 -255.0875 
L 550.860257 -255.0875 
L 549.704638 -255.0875 
L 548.549019 -255.0875 
L 547.3934 -255.0875 
L 546.237781 -255.0875 
L 545.082162 -255.0875 
L 543.926543 -255.0875 
L 542.770924 -255.0875 
L 541.615306 -255.0875 
L 540.459687 -255.0875 
L 539.304068 -255.0875 
L 538.148449 -255.0875 
L 536.99283 -255.0875 
L 535.837211 -255.0875 
L 534.681592 -255.0875 
L 533.525973 -255.0875 
L 532.370354 -255.0875 
L 531.214735 -255.0875 
L 530.059116 -255.0875 
L 528.903497 -255.0875 
L 527.747879 -255.0875 
L 526.59226 -255.0875 
L 525.436641 -255.0875 
L 524.281022 -255.0875 
L 523.125403 -255.0875 
L 521.969784 -255.0875 
L 520.814165 -255.0875 
L 519.658546 -255.0875 
L 518.502927 -255.0875 
L 517.347308 -255.0875 
L 516.191689 -255.0875 
L 515.03607 -255.0875 
L 513.880452 -255.0875 
L 512.724833 -255.0875 
L 511.569214 -255.0875 
L 510.413595 -255.0875 
L 509.257976 -255.0875 
L 508.102357 -255.0875 
L 506.946738 -255.0875 
L 505.791119 -255.0875 
L 504.6355 -255.0875 
L 503.479881 -255.0875 
L 502.324262 -255.0875 
L 501.168644 -255.0875 
L 500.013025 -255.0875 
L 498.857406 -255.0875 
L 497.701787 -255.0875 
L 496.546168 -255.0875 
L 495.390549 -255.0875 
L 494.23493 -255.0875 
L 493.079311 -255.0875 
L 491.923692 -255.0875 
L 490.768073 -255.0875 
L 489.612454 -255.0875 
L 488.456835 -255.0875 
L 487.301217 -255.0875 
L 486.145598 -255.0875 
L 484.989979 -255.0875 
L 483.83436 -255.0875 
L 482.678741 -255.0875 
L 481.523122 -255.0875 
L 480.367503 -255.0875 
L 479.211884 -255.0875 
L 478.056265 -255.0875 
L 476.900646 -255.0875 
L 475.745027 -255.0875 
L 474.589408 -255.0875 
L 473.43379 -255.0875 
L 472.278171 -255.0875 
L 471.122552 -255.0875 
L 469.966933 -255.0875 
L 468.811314 -255.0875 
L 467.655695 -255.0875 
L 466.500076 -255.0875 
L 465.344457 -255.0875 
L 464.188838 -255.0875 
L 463.033219 -255.0875 
L 461.8776 -255.0875 
L 460.721981 -255.0875 
L 459.566363 -255.0875 
L 458.410744 -255.0875 
L 457.255125 -255.0875 
L 456.099506 -255.0875 
L 454.943887 -255.0875 
L 453.788268 -255.0875 
L 452.632649 -255.0875 
L 451.47703 -255.0875 
L 450.321411 -255.0875 
L 449.165792 -255.0875 
L 448.010173 -255.0875 
L 446.854555 -255.0875 
L 445.698936 -255.0875 
L 444.543317 -255.0875 
L 443.387698 -255.0875 
L 442.232079 -255.0875 
L 441.07646 -255.0875 
L 439.920841 -255.0875 
L 438.765222 -255.0875 
L 437.609603 -255.0875 
L 436.453984 -255.0875 
L 435.298365 -255.0875 
L 434.142746 -255.0875 
L 432.987128 -255.0875 
L 431.831509 -255.0875 
L 430.67589 -255.0875 
L 429.520271 -255.0875 
L 428.364652 -255.0875 
L 427.209033 -255.0875 
L 426.053414 -255.0875 
L 424.897795 -255.0875 
L 423.742176 -255.0875 
L 422.586557 -255.0875 
L 421.430938 -255.0875 
L 420.275319 -255.0875 
L 419.119701 -255.0875 
L 417.964082 -255.0875 
L 416.808463 -255.0875 
L 415.652844 -255.0875 
L 414.497225 -255.0875 
L 413.341606 -255.0875 
L 412.185987 -255.0875 
L 411.030368 -255.0875 
L 409.874749 -255.0875 
L 408.71913 -255.0875 
L 407.563511 -255.0875 
L 406.407892 -255.0875 
L 405.252274 -255.0875 
L 404.096655 -255.0875 
L 402.941036 -255.0875 
L 401.785417 -255.0875 
L 400.629798 -255.0875 
L 399.474179 -255.0875 
L 398.31856 -255.0875 
L 397.162941 -255.0875 
L 396.007322 -255.0875 
L 394.851703 -255.0875 
L 393.696084 -255.0875 
L 392.540465 -255.0875 
L 391.384847 -255.0875 
L 390.229228 -255.0875 
L 389.073609 -255.0875 
L 387.91799 -255.0875 
L 386.762371 -255.0875 
L 385.606752 -255.0875 
L 384.451133 -255.0875 
L 383.295514 -255.0875 
L 382.139895 -255.0875 
L 380.984276 -255.0875 
L 379.828657 -255.0875 
L 378.673039 -255.0875 
L 377.51742 -255.0875 
L 376.361801 -255.0875 
L 375.206182 -255.0875 
L 374.050563 -255.0875 
L 372.894944 -255.0875 
L 371.739325 -255.0875 
L 370.583706 -255.0875 
L 369.428087 -255.0875 
L 368.272468 -255.0875 
L 367.116849 -255.0875 
L 365.96123 -255.0875 
L 364.805612 -255.0875 
L 363.649993 -255.0875 
L 362.494374 -255.0875 
L 361.338755 -255.0875 
L 360.183136 -255.0875 
L 359.027517 -255.0875 
L 357.871898 -255.0875 
L 356.716279 -255.0875 
L 355.56066 -255.0875 
L 354.405041 -255.0875 
L 353.249422 -255.0875 
L 352.093803 -255.0875 
L 350.938185 -255.0875 
L 349.782566 -255.0875 
L 348.626947 -255.0875 
L 347.471328 -255.0875 
L 346.315709 -255.0875 
L 345.16009 -255.0875 
L 344.004471 -255.0875 
L 342.848852 -255.0875 
L 341.693233 -255.0875 
L 340.537614 -255.0875 
L 339.381995 -255.0875 
L 338.226376 -255.0875 
L 337.070758 -255.0875 
L 335.915139 -255.0875 
L 334.75952 -255.0875 
L 333.603901 -255.0875 
L 332.448282 -255.0875 
L 331.292663 -255.0875 
L 330.137044 -255.0875 
L 328.981425 -255.0875 
L 327.825806 -255.0875 
L 326.670187 -255.0875 
L 325.514568 -255.0875 
L 324.358949 -255.0875 
L 323.203331 -255.0875 
L 322.047712 -255.0875 
L 320.892093 -255.0875 
L 319.736474 -255.0875 
L 318.580855 -255.0875 
L 317.425236 -255.0875 
L 316.269617 -255.0875 
L 315.113998 -255.0875 
L 313.958379 -255.0875 
L 312.80276 -255.0875 
L 311.647141 -255.0875 
L 310.491523 -255.0875 
L 309.335904 -255.0875 
L 308.180285 -255.0875 
L 307.024666 -255.0875 
L 305.869047 -255.0875 
L 304.713428 -255.0875 
L 303.557809 -255.0875 
L 302.40219 -255.0875 
L 301.246571 -255.0875 
L 300.090952 -255.0875 
L 298.935333 -255.0875 
L 297.779714 -255.0875 
L 296.624096 -255.0875 
L 295.468477 -255.0875 
L 294.312858 -255.0875 
L 293.157239 -255.0875 
L 292.00162 -255.0875 
L 290.846001 -255.0875 
L 289.690382 -255.0875 
L 288.534763 -255.0875 
L 287.379144 -255.0875 
L 286.223525 -255.0875 
L 285.067906 -255.0875 
L 283.912287 -255.0875 
L 282.756669 -255.0875 
L 281.60105 -255.0875 
L 280.445431 -255.0875 
L 279.289812 -255.0875 
L 278.134193 -255.0875 
L 276.978574 -255.0875 
L 275.822955 -255.0875 
L 274.667336 -255.0875 
L 273.511717 -255.0875 
L 272.356098 -255.0875 
L 271.200479 -255.0875 
L 270.04486 -255.0875 
L 268.889242 -255.0875 
L 267.733623 -255.0875 
L 266.578004 -255.0875 
L 265.422385 -255.0875 
L 264.266766 -255.0875 
L 263.111147 -255.0875 
L 261.955528 -255.0875 
L 260.799909 -255.0875 
L 259.64429 -255.0875 
L 258.488671 -255.0875 
L 257.333052 -255.0875 
L 256.177434 -255.0875 
L 255.021815 -255.0875 
L 253.866196 -255.0875 
L 252.710577 -255.0875 
L 251.554958 -255.0875 
L 250.399339 -255.0875 
L 249.24372 -255.0875 
L 248.088101 -255.0875 
L 246.932482 -255.0875 
L 245.776863 -255.0875 
L 244.621244 -255.0875 
L 243.465625 -255.0875 
L 242.310007 -255.0875 
L 241.154388 -255.0875 
L 239.998769 -255.0875 
L 238.84315 -255.0875 
L 237.687531 -255.0875 
L 236.531912 -255.0875 
L 235.376293 -255.0875 
L 234.220674 -255.0875 
L 233.065055 -255.0875 
L 231.909436 -255.0875 
L 230.753817 -255.0875 
L 229.598198 -255.0875 
L 228.44258 -255.0875 
L 227.286961 -255.0875 
L 226.131342 -255.0875 
L 224.975723 -255.0875 
L 223.820104 -255.0875 
L 222.664485 -255.0875 
L 221.508866 -255.0875 
L 220.353247 -255.0875 
L 219.197628 -255.0875 
L 218.042009 -255.0875 
L 216.88639 -255.0875 
L 215.730771 -255.0875 
L 214.575153 -255.0875 
L 213.419534 -255.0875 
L 212.263915 -255.0875 
L 211.108296 -255.0875 
L 209.952677 -255.0875 
L 208.797058 -255.0875 
L 207.641439 -255.0875 
L 206.48582 -255.0875 
L 205.330201 -255.0875 
L 204.174582 -255.0875 
L 203.018963 -255.0875 
L 201.863344 -255.0875 
L 200.707726 -255.0875 
L 199.552107 -255.0875 
L 198.396488 -255.0875 
L 197.240869 -255.0875 
L 196.08525 -255.0875 
L 194.929631 -255.0875 
L 193.774012 -255.0875 
L 192.618393 -255.0875 
L 191.462774 -255.0875 
L 190.307155 -255.0875 
L 189.151536 -255.0875 
L 187.995918 -255.0875 
L 186.840299 -255.0875 
L 185.68468 -255.0875 
L 184.529061 -255.0875 
L 183.373442 -255.0875 
L 182.217823 -255.0875 
L 181.062204 -255.0875 
L 179.906585 -255.0875 
L 178.750966 -255.0875 
L 177.595347 -255.0875 
L 176.439728 -255.0875 
L 175.284109 -255.0875 
L 174.128491 -255.0875 
L 172.972872 -255.0875 
L 171.817253 -255.0875 
L 170.661634 -255.0875 
L 169.506015 -255.0875 
L 168.350396 -255.0875 
L 167.194777 -255.0875 
L 166.039158 -255.0875 
L 164.883539 -255.0875 
L 163.72792 -255.0875 
L 162.572301 -255.0875 
L 161.416682 -255.0875 
L 160.261064 -255.0875 
L 159.105445 -255.0875 
L 157.949826 -255.0875 
L 156.794207 -255.0875 
L 155.638588 -255.0875 
L 154.482969 -255.0875 
L 153.32735 -255.0875 
L 152.171731 -255.0875 
L 151.016112 -255.0875 
L 149.860493 -255.0875 
L 148.704874 -255.0875 
L 147.549255 -255.0875 
L 146.393637 -255.0875 
L 145.238018 -255.0875 
L 144.082399 -255.0875 
L 142.92678 -255.0875 
L 141.771161 -255.0875 
L 140.615542 -255.0875 
L 139.459923 -255.0875 
L 138.304304 -255.0875 
L 137.148685 -255.0875 
L 135.993066 -255.0875 
L 134.837447 -255.0875 
L 133.681828 -255.0875 
L 132.52621 -255.0875 
L 131.370591 -255.0875 
L 130.214972 -255.0875 
L 129.059353 -255.0875 
L 127.903734 -255.0875 
L 126.748115 -255.0875 
L 125.592496 -255.0875 
L 124.436877 -255.0875 
L 123.281258 -255.0875 
L 122.125639 -255.0875 
L 120.97002 -255.0875 
L 119.814402 -255.0875 
L 118.658783 -255.0875 
L 117.503164 -255.0875 
L 116.347545 -255.0875 
L 115.191926 -255.0875 
L 114.036307 -255.0875 
L 112.880688 -255.0875 
L 111.725069 -255.0875 
L 110.56945 -255.0875 
L 109.413831 -255.0875 
L 108.258212 -255.0875 
L 107.102593 -255.0875 
L 105.946975 -255.0875 
L 104.791356 -255.0875 
L 103.635737 -255.0875 
L 102.480118 -255.0875 
L 101.324499 -255.0875 
L 100.16888 -255.0875 
L 99.013261 -255.0875 
L 97.857642 -255.0875 
L 96.702023 -255.0875 
L 95.546404 -255.0875 
L 94.390785 -255.0875 
L 93.235166 -255.0875 
L 92.079548 -255.0875 
L 90.923929 -255.0875 
L 89.76831 -255.0875 
L 88.612691 -255.0875 
L 87.457072 -255.0875 
L 86.301453 -255.0875 
L 85.145834 -255.0875 
L 83.990215 -255.0875 
L 82.834596 -255.0875 
L 81.678977 -255.0875 
L 80.523358 -255.0875 
L 79.367739 -255.0875 
L 78.212121 -255.0875 
L 77.056502 -255.0875 
L 75.900883 -255.0875 
L 74.745264 -255.0875 
L 73.589645 -255.0875 
L 72.434026 -255.0875 
L 71.278407 -255.0875 
L 70.122788 -255.0875 
L 68.967169 -255.0875 
L 67.81155 -255.0875 
L 66.655931 -255.0875 
L 65.500313 -255.0875 
z
" style="stroke: #a3583c; stroke-opacity: 0.08"/>
    </defs>
    <g clip-path="url(#p049c879c7a)">
     <use xlink:href="#m330d181b35" x="0" y="499.624687" style="fill: #a3583c; fill-opacity: 0.08; stroke: #a3583c; stroke-opacity: 0.08"/>
    </g>
   </g>
   <g id="matplotlib.axis_1">
    <g id="xtick_1">
     <g id="line2d_1">
      <path d="M 65.500313 453.877187 
L 65.500313 35.197187 
" clip-path="url(#p049c879c7a)" style="fill: none; stroke: #d9cbb6; stroke-opacity: 0.45; stroke-width: 0.8; stroke-linecap: square"/>
     </g>
     <g id="line2d_2">
      <defs>
       <path id="m1b5406c994" d="M 0 0 
L 0 3.5 
" style="stroke: #756a5d; stroke-width: 0.8"/>
      </defs>
      <g>
       <use xlink:href="#m1b5406c994" x="65.500313" y="453.877187" style="fill: #756a5d; stroke: #756a5d; stroke-width: 0.8"/>
      </g>
     </g>
     <g id="text_1">
      <text style="font-size: 11px; font-family: 'DejaVu Serif'; text-anchor: middle; fill: #756a5d" x="65.500313" y="469.235469" transform="rotate(-0 65.500313 469.235469)">0.0</text>
     </g>
    </g>
    <g id="xtick_2">
     <g id="line2d_3">
      <path d="M 231.678313 453.877187 
L 231.678313 35.197187 
" clip-path="url(#p049c879c7a)" style="fill: none; stroke: #d9cbb6; stroke-opacity: 0.45; stroke-width: 0.8; stroke-linecap: square"/>
     </g>
     <g id="line2d_4">
      <g>
       <use xlink:href="#m1b5406c994" x="231.678313" y="453.877187" style="fill: #756a5d; stroke: #756a5d; stroke-width: 0.8"/>
      </g>
     </g>
     <g id="text_2">
      <text style="font-size: 11px; font-family: 'DejaVu Serif'; text-anchor: middle; fill: #756a5d" x="231.678313" y="469.235469" transform="rotate(-0 231.678313 469.235469)">0.2</text>
     </g>
    </g>
    <g id="xtick_3">
     <g id="line2d_5">
      <path d="M 397.856313 453.877187 
L 397.856313 35.197187 
" clip-path="url(#p049c879c7a)" style="fill: none; stroke: #d9cbb6; stroke-opacity: 0.45; stroke-width: 0.8; stroke-linecap: square"/>
     </g>
     <g id="line2d_6">
      <g>
       <use xlink:href="#m1b5406c994" x="397.856313" y="453.877187" style="fill: #756a5d; stroke: #756a5d; stroke-width: 0.8"/>
      </g>
     </g>
     <g id="text_3">
      <text style="font-size: 11px; font-family: 'DejaVu Serif'; text-anchor: middle; fill: #756a5d" x="397.856313" y="469.235469" transform="rotate(-0 397.856313 469.235469)">0.4</text>
     </g>
    </g>
    <g id="xtick_4">
     <g id="line2d_7">
      <path d="M 564.034312 453.877187 
L 564.034312 35.197187 
" clip-path="url(#p049c879c7a)" style="fill: none; stroke: #d9cbb6; stroke-opacity: 0.45; stroke-width: 0.8; stroke-linecap: square"/>
     </g>
     <g id="line2d_8">
      <g>
       <use xlink:href="#m1b5406c994" x="564.034312" y="453.877187" style="fill: #756a5d; stroke: #756a5d; stroke-width: 0.8"/>
      </g>
     </g>
     <g id="text_4">
      <text style="font-size: 11px; font-family: 'DejaVu Serif'; text-anchor: middle; fill: #756a5d" x="564.034312" y="469.235469" transform="rotate(-0 564.034312 469.235469)">0.6</text>
     </g>
    </g>
    <g id="xtick_5">
     <g id="line2d_9">
      <path d="M 730.212313 453.877187 
L 730.212313 35.197187 
" clip-path="url(#p049c879c7a)" style="fill: none; stroke: #d9cbb6; stroke-opacity: 0.45; stroke-width: 0.8; stroke-linecap: square"/>
     </g>
     <g id="line2d_10">
      <g>
       <use xlink:href="#m1b5406c994" x="730.212313" y="453.877187" style="fill: #756a5d; stroke: #756a5d; stroke-width: 0.8"/>
      </g>
     </g>
     <g id="text_5">
      <text style="font-size: 11px; font-family: 'DejaVu Serif'; text-anchor: middle; fill: #756a5d" x="730.212313" y="469.235469" transform="rotate(-0 730.212313 469.235469)">0.8</text>
     </g>
    </g>
    <g id="xtick_6">
     <g id="line2d_11">
      <path d="M 896.390312 453.877187 
L 896.390312 35.197187 
" clip-path="url(#p049c879c7a)" style="fill: none; stroke: #d9cbb6; stroke-opacity: 0.45; stroke-width: 0.8; stroke-linecap: square"/>
     </g>
     <g id="line2d_12">
      <g>
       <use xlink:href="#m1b5406c994" x="896.390312" y="453.877187" style="fill: #756a5d; stroke: #756a5d; stroke-width: 0.8"/>
      </g>
     </g>
     <g id="text_6">
      <text style="font-size: 11px; font-family: 'DejaVu Serif'; text-anchor: middle; fill: #756a5d" x="896.390312" y="469.235469" transform="rotate(-0 896.390312 469.235469)">1.0</text>
     </g>
    </g>
    <g id="text_7">
     <text style="font-size: 13px; font-family: 'DejaVu Serif'; text-anchor: middle; fill: #1f1b16" x="480.945312" y="485.401094" transform="rotate(-0 480.945312 485.401094)">Orbital phase</text>
    </g>
   </g>
   <g id="matplotlib.axis_2">
    <g id="ytick_1">
     <g id="line2d_13">
      <path d="M 65.500313 436.410644 
L 896.390312 436.410644 
" clip-path="url(#p049c879c7a)" style="fill: none; stroke: #d9cbb6; stroke-opacity: 0.45; stroke-width: 0.8; stroke-linecap: square"/>
     </g>
     <g id="line2d_14">
      <defs>
       <path id="m7db93c77d7" d="M 0 0 
L -3.5 0 
" style="stroke: #756a5d; stroke-width: 0.8"/>
      </defs>
      <g>
       <use xlink:href="#m7db93c77d7" x="65.500313" y="436.410644" style="fill: #756a5d; stroke: #756a5d; stroke-width: 0.8"/>
      </g>
     </g>
     <g id="text_8">
      <text style="font-size: 11px; font-family: 'DejaVu Serif'; text-anchor: end; fill: #756a5d" x="58.500313" y="440.589785" transform="rotate(-0 58.500313 440.589785)">−400</text>
     </g>
    </g>
    <g id="ytick_2">
     <g id="line2d_15">
      <path d="M 65.500313 388.44228 
L 896.390312 388.44228 
" clip-path="url(#p049c879c7a)" style="fill: none; stroke: #d9cbb6; stroke-opacity: 0.45; stroke-width: 0.8; stroke-linecap: square"/>
     </g>
     <g id="line2d_16">
      <g>
       <use xlink:href="#m7db93c77d7" x="65.500313" y="388.44228" style="fill: #756a5d; stroke: #756a5d; stroke-width: 0.8"/>
      </g>
     </g>
     <g id="text_9">
      <text style="font-size: 11px; font-family: 'DejaVu Serif'; text-anchor: end; fill: #756a5d" x="58.500313" y="392.621421" transform="rotate(-0 58.500313 392.621421)">−300</text>
     </g>
    </g>
    <g id="ytick_3">
     <g id="line2d_17">
      <path d="M 65.500313 340.473916 
L 896.390312 340.473916 
" clip-path="url(#p049c879c7a)" style="fill: none; stroke: #d9cbb6; stroke-opacity: 0.45; stroke-width: 0.8; stroke-linecap: square"/>
     </g>
     <g id="line2d_18">
      <g>
       <use xlink:href="#m7db93c77d7" x="65.500313" y="340.473916" style="fill: #756a5d; stroke: #756a5d; stroke-width: 0.8"/>
      </g>
     </g>
     <g id="text_10">
      <text style="font-size: 11px; font-family: 'DejaVu Serif'; text-anchor: end; fill: #756a5d" x="58.500313" y="344.653056" transform="rotate(-0 58.500313 344.653056)">−200</text>
     </g>
    </g>
    <g id="ytick_4">
     <g id="line2d_19">
      <path d="M 65.500313 292.505552 
L 896.390312 292.505552 
" clip-path="url(#p049c879c7a)" style="fill: none; stroke: #d9cbb6; stroke-opacity: 0.45; stroke-width: 0.8; stroke-linecap: square"/>
     </g>
     <g id="line2d_20">
      <g>
       <use xlink:href="#m7db93c77d7" x="65.500313" y="292.505552" style="fill: #756a5d; stroke: #756a5d; stroke-width: 0.8"/>
      </g>
     </g>
     <g id="text_11">
      <text style="font-size: 11px; font-family: 'DejaVu Serif'; text-anchor: end; fill: #756a5d" x="58.500313" y="296.684692" transform="rotate(-0 58.500313 296.684692)">−100</text>
     </g>
    </g>
    <g id="ytick_5">
     <g id="line2d_21">
      <path d="M 65.500313 244.537187 
L 896.390312 244.537187 
" clip-path="url(#p049c879c7a)" style="fill: none; stroke: #d9cbb6; stroke-opacity: 0.45; stroke-width: 0.8; stroke-linecap: square"/>
     </g>
     <g id="line2d_22">
      <g>
       <use xlink:href="#m7db93c77d7" x="65.500313" y="244.537187" style="fill: #756a5d; stroke: #756a5d; stroke-width: 0.8"/>
      </g>
     </g>
     <g id="text_12">
      <text style="font-size: 11px; font-family: 'DejaVu Serif'; text-anchor: end; fill: #756a5d" x="58.500313" y="248.716328" transform="rotate(-0 58.500313 248.716328)">0</text>
     </g>
    </g>
    <g id="ytick_6">
     <g id="line2d_23">
      <path d="M 65.500313 196.568823 
L 896.390312 196.568823 
" clip-path="url(#p049c879c7a)" style="fill: none; stroke: #d9cbb6; stroke-opacity: 0.45; stroke-width: 0.8; stroke-linecap: square"/>
     </g>
     <g id="line2d_24">
      <g>
       <use xlink:href="#m7db93c77d7" x="65.500313" y="196.568823" style="fill: #756a5d; stroke: #756a5d; stroke-width: 0.8"/>
      </g>
     </g>
     <g id="text_13">
      <text style="font-size: 11px; font-family: 'DejaVu Serif'; text-anchor: end; fill: #756a5d" x="58.500313" y="200.747964" transform="rotate(-0 58.500313 200.747964)">100</text>
     </g>
    </g>
    <g id="ytick_7">
     <g id="line2d_25">
      <path d="M 65.500313 148.600459 
L 896.390312 148.600459 
" clip-path="url(#p049c879c7a)" style="fill: none; stroke: #d9cbb6; stroke-opacity: 0.45; stroke-width: 0.8; stroke-linecap: square"/>
     </g>
     <g id="line2d_26">
      <g>
       <use xlink:href="#m7db93c77d7" x="65.500313" y="148.600459" style="fill: #756a5d; stroke: #756a5d; stroke-width: 0.8"/>
      </g>
     </g>
     <g id="text_14">
      <text style="font-size: 11px; font-family: 'DejaVu Serif'; text-anchor: end; fill: #756a5d" x="58.500313" y="152.7796" transform="rotate(-0 58.500313 152.7796)">200</text>
     </g>
    </g>
    <g id="ytick_8">
     <g id="line2d_27">
      <path d="M 65.500313 100.632095 
L 896.390312 100.632095 
" clip-path="url(#p049c879c7a)" style="fill: none; stroke: #d9cbb6; stroke-opacity: 0.45; stroke-width: 0.8; stroke-linecap: square"/>
     </g>
     <g id="line2d_28">
      <g>
       <use xlink:href="#m7db93c77d7" x="65.500313" y="100.632095" style="fill: #756a5d; stroke: #756a5d; stroke-width: 0.8"/>
      </g>
     </g>
     <g id="text_15">
      <text style="font-size: 11px; font-family: 'DejaVu Serif'; text-anchor: end; fill: #756a5d" x="58.500313" y="104.811236" transform="rotate(-0 58.500313 104.811236)">300</text>
     </g>
    </g>
    <g id="ytick_9">
     <g id="line2d_29">
      <path d="M 65.500313 52.663731 
L 896.390312 52.663731 
" clip-path="url(#p049c879c7a)" style="fill: none; stroke: #d9cbb6; stroke-opacity: 0.45; stroke-width: 0.8; stroke-linecap: square"/>
     </g>
     <g id="line2d_30">
      <g>
       <use xlink:href="#m7db93c77d7" x="65.500313" y="52.663731" style="fill: #756a5d; stroke: #756a5d; stroke-width: 0.8"/>
      </g>
     </g>
     <g id="text_16">
      <text style="font-size: 11px; font-family: 'DejaVu Serif'; text-anchor: end; fill: #756a5d" x="58.500313" y="56.842871" transform="rotate(-0 58.500313 56.842871)">400</text>
     </g>
    </g>
    <g id="text_17">
     <text style="font-size: 13px; font-family: 'DejaVu Serif'; text-anchor: middle; fill: #1f1b16" x="21.397969" y="244.537187" transform="rotate(-90 21.397969 244.537187)">Stellar radial velocity (m/s)</text>
    </g>
   </g>
   <g id="line2d_31">
    <path d="M 65.500313 244.537187 
L 79.367739 279.413716 
L 87.457072 299.102621 
L 93.235166 312.659864 
L 99.013261 325.687077 
L 104.791356 338.102487 
L 109.413831 347.54805 
L 114.036307 356.529785 
L 118.658783 365.025076 
L 123.281258 373.016936 
L 127.903734 380.493742 
L 132.52621 387.448884 
L 135.993066 392.321525 
L 139.459923 396.900209 
L 142.92678 401.186824 
L 146.393637 405.184334 
L 149.860493 408.896663 
L 153.32735 412.328575 
L 156.794207 415.485567 
L 160.261064 418.373763 
L 163.72792 420.99981 
L 167.194777 423.370788 
L 170.661634 425.494117 
L 174.128491 427.377484 
L 177.595347 429.028766 
L 181.062204 430.455964 
L 184.529061 431.667146 
L 187.995918 432.670396 
L 191.462774 433.473763 
L 194.929631 434.085229 
L 198.396488 434.512669 
L 201.863344 434.763824 
L 206.48582 434.83756 
L 211.108296 434.628837 
L 215.730771 434.154506 
L 220.353247 433.430741 
L 224.975723 432.47301 
L 229.598198 431.296059 
L 234.220674 429.913903 
L 239.998769 427.917812 
L 245.776863 425.646173 
L 251.554958 423.121655 
L 257.333052 420.365285 
L 264.266766 416.778891 
L 271.200479 412.917394 
L 278.134193 408.808745 
L 286.223525 403.736565 
L 294.312858 398.398337 
L 303.557809 392.012542 
L 312.80276 385.362746 
L 323.203331 377.611307 
L 334.75952 368.714682 
L 347.471328 358.642478 
L 361.338755 347.377656 
L 377.51742 333.947741 
L 396.007322 318.3121 
L 419.119701 298.462943 
L 449.165792 272.344423 
L 554.327114 180.652208 
L 576.283873 161.934749 
L 594.773776 146.461442 
L 609.796822 134.157766 
L 623.664249 123.079366 
L 636.376057 113.220118 
L 647.932246 104.559548 
L 658.332816 97.061833 
L 667.577767 90.676038 
L 675.6671 85.33781 
L 683.756432 80.26563 
L 690.690146 76.156981 
L 697.623859 72.295484 
L 704.557573 68.70909 
L 710.335667 65.95272 
L 716.113762 63.428202 
L 721.891856 61.156563 
L 727.669951 59.160472 
L 732.292427 57.778316 
L 736.914902 56.601365 
L 741.537378 55.643634 
L 746.159854 54.919869 
L 750.782329 54.445538 
L 755.404805 54.236815 
L 760.027281 54.310551 
L 763.494137 54.561706 
L 766.960994 54.989146 
L 770.427851 55.600612 
L 773.894707 56.403979 
L 777.361564 57.407229 
L 780.828421 58.618411 
L 784.295278 60.045609 
L 787.762134 61.696891 
L 791.228991 63.580258 
L 794.695848 65.703587 
L 798.162705 68.074565 
L 801.629561 70.700612 
L 805.096418 73.588808 
L 808.563275 76.7458 
L 812.030132 80.177712 
L 815.496988 83.890041 
L 818.963845 87.887551 
L 822.430702 92.174166 
L 825.897559 96.75285 
L 829.364415 101.625491 
L 833.986891 108.580633 
L 838.609367 116.057439 
L 843.231842 124.049299 
L 847.854318 132.54459 
L 852.476794 141.526325 
L 857.099269 150.971888 
L 861.721745 160.85289 
L 867.49984 173.76386 
L 873.277934 187.222261 
L 880.211648 203.964711 
L 888.30098 224.085 
L 896.390312 244.537187 
L 896.390312 244.537187 
" clip-path="url(#p049c879c7a)" style="fill: none; stroke: #a3583c; stroke-width: 2.6; stroke-linecap: square"/>
   </g>
   <g id="line2d_32">
    <path d="M 65.500313 244.537187 
L 896.390312 244.537187 
" clip-path="url(#p049c879c7a)" style="fill: none; stroke-dasharray: 5.365,2.32; stroke-dashoffset: 0; stroke: #9b9184; stroke-opacity: 0.65; stroke-width: 1.45"/>
   </g>
   <g id="patch_3">
    <path d="M 65.500313 453.877187 
L 65.500313 35.197187 
" style="fill: none; stroke: #b9a98f; stroke-width: 0.8; stroke-linejoin: miter; stroke-linecap: square"/>
   </g>
   <g id="patch_4">
    <path d="M 896.390312 453.877187 
L 896.390312 35.197187 
" style="fill: none; stroke: #b9a98f; stroke-width: 0.8; stroke-linejoin: miter; stroke-linecap: square"/>
   </g>
   <g id="patch_5">
    <path d="M 65.500313 453.877187 
L 896.390312 453.877187 
" style="fill: none; stroke: #b9a98f; stroke-width: 0.8; stroke-linejoin: miter; stroke-linecap: square"/>
   </g>
   <g id="patch_6">
    <path d="M 65.500313 35.197187 
L 896.390312 35.197187 
" style="fill: none; stroke: #b9a98f; stroke-width: 0.8; stroke-linejoin: miter; stroke-linecap: square"/>
   </g>
   <g id="text_18">
    <g id="patch_7">
     <path d="M 77.963662 72.760563 
L 360.829288 72.760563 
Q 363.909288 72.760563 363.909288 69.680563 
L 363.909288 56.131188 
Q 363.909288 53.051188 360.829288 53.051188 
L 77.963662 53.051188 
Q 74.883662 53.051188 74.883662 56.131188 
L 74.883662 69.680563 
Q 74.883662 72.760563 77.963662 72.760563 
z
" style="fill: #fffaf0; opacity: 0.88"/>
    </g>
    <text style="font-size: 14px; font-family: 'DejaVu Serif'; text-anchor: start; fill: #756a5d" x="77.963662" y="66.769" transform="rotate(-0 77.963662 66.769)">K ≈ 397 m s^-1 · P ≈ 241.3 d · e = 0.26</text>
   </g>
   <g id="text_19">
    <text style="font-size: 10.5px; font-family: 'DejaVu Serif'; text-anchor: end; fill: #756a5d" x="888.081412" y="443.170619" transform="rotate(-0 888.081412 443.170619)">single-planet Keplerian model</text>
   </g>
   <g id="text_20">
    <text style="font-weight: 700; font-size: 18px; font-family: 'DejaVu Serif'; text-anchor: start; fill: #1f1b16" x="65.500313" y="25.197187" transform="rotate(-0 65.500313 25.197187)">Keplerian RV model — ups And c</text>
   </g>
  </g>
 </g>
 <defs>
  <clipPath id="p049c879c7a">
   <rect x="65.500313" y="35.197187" width="830.89" height="418.68"/>
  </clipPath>
 </defs>
</svg>
