<?xml version="1.0" encoding="utf-8" standalone="no"?>
<!DOCTYPE svg PUBLIC "-//W3C//DTD SVG 1.1//EN"
  "http://www.w3.org/Graphics/SVG/1.1/DTD/svg11.dtd">
<svg xmlns:xlink="http://www.w3.org/1999/xlink" width="916.754219pt" height="499.624687pt" viewBox="0 0 916.754219 499.624687" xmlns="http://www.w3.org/2000/svg" version="1.1">
 <metadata>
  <rdf:RDF xmlns:dc="http://purl.org/dc/elements/1.1/" xmlns:cc="http://creativecommons.org/ns#" xmlns:rdf="http://www.w3.org/1999/02/22-rdf-syntax-ns#">
   <cc:Work>
    <dc:type rdf:resource="http://purl.org/dc/dcmitype/StillImage"/>
    <dc:date>2026-05-11T14:55:20.625271</dc:date>
    <dc:format>image/svg+xml</dc:format>
    <dc:creator>
     <cc:Agent>
      <dc:title>Matplotlib v3.10.8, https://matplotlib.org/</dc:title>
     </cc:Agent>
    </dc:creator>
   </cc:Work>
  </rdf:RDF>
 </metadata>
 <defs>
  <style type="text/css">*{stroke-linejoin: round; stroke-linecap: butt}</style>
 </defs>
 <g id="figure_1">
  <g id="patch_1">
   <path d="M 0 499.624687 
L 916.754219 499.624687 
L 916.754219 0 
L 0 0 
z
" style="fill: #fffaf0"/>
  </g>
  <g id="axes_1">
   <g id="patch_2">
    <path d="M 61.9975 453.877187 
L 896.4875 453.877187 
L 896.4875 35.197187 
L 61.9975 35.197187 
z
" style="fill: #fffaf0"/>
   </g>
   <g id="FillBetweenPolyCollection_1">
    <defs>
     <path id="mff7c9b0d40" d="M 61.9975 -255.0875 
L 61.9975 -255.0875 
L 63.158126 -253.424447 
L 64.318752 -251.761522 
L 65.479378 -250.09885 
L 66.640003 -248.436559 
L 67.800629 -246.774776 
L 68.961255 -245.113628 
L 70.121881 -243.453242 
L 71.282507 -241.793744 
L 72.443133 -240.135261 
L 73.603759 -238.47792 
L 74.764385 -236.821848 
L 75.92501 -235.16717 
L 77.085636 -233.514013 
L 78.246262 -231.862505 
L 79.406888 -230.212769 
L 80.567514 -228.564933 
L 81.72814 -226.919123 
L 82.888766 -225.275464 
L 84.049392 -223.634081 
L 85.210017 -221.995101 
L 86.370643 -220.358647 
L 87.531269 -218.724846 
L 88.691895 -217.093821 
L 89.852521 -215.465698 
L 91.013147 -213.840601 
L 92.173773 -212.218653 
L 93.334398 -210.599979 
L 94.495024 -208.984703 
L 95.65565 -207.372947 
L 96.816276 -205.764835 
L 97.976902 -204.160489 
L 99.137528 -202.560033 
L 100.298154 -200.963588 
L 101.45878 -199.371276 
L 102.619405 -197.783219 
L 103.780031 -196.199538 
L 104.940657 -194.620354 
L 106.101283 -193.045788 
L 107.261909 -191.475959 
L 108.422535 -189.910989 
L 109.583161 -188.350995 
L 110.743787 -186.796098 
L 111.904412 -185.246416 
L 113.065038 -183.702068 
L 114.225664 -182.163171 
L 115.38629 -180.629843 
L 116.546916 -179.102201 
L 117.707542 -177.580361 
L 118.868168 -176.064441 
L 120.028793 -174.554555 
L 121.189419 -173.050819 
L 122.350045 -171.553348 
L 123.510671 -170.062256 
L 124.671297 -168.577657 
L 125.831923 -167.099665 
L 126.992549 -165.628392 
L 128.153175 -164.16395 
L 129.3138 -162.706452 
L 130.474426 -161.256009 
L 131.635052 -159.812731 
L 132.795678 -158.376729 
L 133.956304 -156.948112 
L 135.11693 -155.52699 
L 136.277556 -154.11347 
L 137.438182 -152.707662 
L 138.598807 -151.309672 
L 139.759433 -149.919607 
L 140.920059 -148.537574 
L 142.080685 -147.163677 
L 143.241311 -145.798022 
L 144.401937 -144.440713 
L 145.562563 -143.091853 
L 146.723188 -141.751546 
L 147.883814 -140.419895 
L 149.04444 -139.096999 
L 150.205066 -137.782962 
L 151.365692 -136.477882 
L 152.526318 -135.181861 
L 153.686944 -133.894996 
L 154.84757 -132.617386 
L 156.008195 -131.349128 
L 157.168821 -130.09032 
L 158.329447 -128.841058 
L 159.490073 -127.601436 
L 160.650699 -126.37155 
L 161.811325 -125.151493 
L 162.971951 -123.941359 
L 164.132576 -122.741241 
L 165.293202 -121.551229 
L 166.453828 -120.371414 
L 167.614454 -119.201887 
L 168.77508 -118.042738 
L 169.935706 -116.894053 
L 171.096332 -115.755922 
L 172.256958 -114.628432 
L 173.417583 -113.511667 
L 174.578209 -112.405714 
L 175.738835 -111.310657 
L 176.899461 -110.22658 
L 178.060087 -109.153565 
L 179.220713 -108.091695 
L 180.381339 -107.04105 
L 181.541965 -106.00171 
L 182.70259 -104.973756 
L 183.863216 -103.957265 
L 185.023842 -102.952316 
L 186.184468 -101.958984 
L 187.345094 -100.977347 
L 188.50572 -100.007478 
L 189.666346 -99.049451 
L 190.826971 -98.103341 
L 191.987597 -97.169219 
L 193.148223 -96.247157 
L 194.308849 -95.337224 
L 195.469475 -94.439491 
L 196.630101 -93.554026 
L 197.790727 -92.680897 
L 198.951353 -91.82017 
L 200.111978 -90.971911 
L 201.272604 -90.136185 
L 202.43323 -89.313055 
L 203.593856 -88.502585 
L 204.754482 -87.704837 
L 205.915108 -86.91987 
L 207.075734 -86.147746 
L 208.23636 -85.388524 
L 209.396985 -84.64226 
L 210.557611 -83.909013 
L 211.718237 -83.188837 
L 212.878863 -82.481789 
L 214.039489 -81.787923 
L 215.200115 -81.10729 
L 216.360741 -80.439943 
L 217.521366 -79.785934 
L 218.681992 -79.145312 
L 219.842618 -78.518125 
L 221.003244 -77.904423 
L 222.16387 -77.304251 
L 223.324496 -76.717656 
L 224.485122 -76.144682 
L 225.645748 -75.585373 
L 226.806373 -75.039773 
L 227.966999 -74.507921 
L 229.127625 -73.98986 
L 230.288251 -73.485628 
L 231.448877 -72.995265 
L 232.609503 -72.518807 
L 233.770129 -72.056291 
L 234.930755 -71.607753 
L 236.09138 -71.173226 
L 237.252006 -70.752744 
L 238.412632 -70.346339 
L 239.573258 -69.954042 
L 240.733884 -69.575882 
L 241.89451 -69.21189 
L 243.055136 -68.862091 
L 244.215761 -68.526515 
L 245.376387 -68.205185 
L 246.537013 -67.898126 
L 247.697639 -67.605362 
L 248.858265 -67.326916 
L 250.018891 -67.062808 
L 251.179517 -66.813059 
L 252.340143 -66.577687 
L 253.500768 -66.356712 
L 254.661394 -66.150148 
L 255.82202 -65.958014 
L 256.982646 -65.780322 
L 258.143272 -65.617086 
L 259.303898 -65.46832 
L 260.464524 -65.334035 
L 261.62515 -65.21424 
L 262.785775 -65.108944 
L 263.946401 -65.018157 
L 265.107027 -64.941885 
L 266.267653 -64.880133 
L 267.428279 -64.832906 
L 268.588905 -64.800209 
L 269.749531 -64.782042 
L 270.910156 -64.778409 
L 272.070782 -64.789309 
L 273.231408 -64.814741 
L 274.392034 -64.854703 
L 275.55266 -64.909193 
L 276.713286 -64.978206 
L 277.873912 -65.061737 
L 279.034538 -65.159779 
L 280.195163 -65.272325 
L 281.355789 -65.399367 
L 282.516415 -65.540894 
L 283.677041 -65.696896 
L 284.837667 -65.867361 
L 285.998293 -66.052276 
L 287.158919 -66.251627 
L 288.319545 -66.465399 
L 289.48017 -66.693575 
L 290.640796 -66.936137 
L 291.801422 -67.193069 
L 292.962048 -67.464348 
L 294.122674 -67.749956 
L 295.2833 -68.04987 
L 296.443926 -68.364067 
L 297.604551 -68.692524 
L 298.765177 -69.035214 
L 299.925803 -69.392113 
L 301.086429 -69.763193 
L 302.247055 -70.148425 
L 303.407681 -70.54778 
L 304.568307 -70.961227 
L 305.728933 -71.388736 
L 306.889558 -71.830273 
L 308.050184 -72.285804 
L 309.21081 -72.755296 
L 310.371436 -73.238711 
L 311.532062 -73.736013 
L 312.692688 -74.247164 
L 313.853314 -74.772126 
L 315.013939 -75.310857 
L 316.174565 -75.863317 
L 317.335191 -76.429464 
L 318.495817 -77.009254 
L 319.656443 -77.602643 
L 320.817069 -78.209586 
L 321.977695 -78.830036 
L 323.138321 -79.463946 
L 324.298946 -80.111269 
L 325.459572 -80.771953 
L 326.620198 -81.445949 
L 327.780824 -82.133205 
L 328.94145 -82.833669 
L 330.102076 -83.547288 
L 331.262702 -84.274006 
L 332.423328 -85.013768 
L 333.583953 -85.766519 
L 334.744579 -86.532199 
L 335.905205 -87.310752 
L 337.065831 -88.102117 
L 338.226457 -88.906234 
L 339.387083 -89.723041 
L 340.547709 -90.552477 
L 341.708334 -91.394478 
L 342.86896 -92.248979 
L 344.029586 -93.115915 
L 345.190212 -93.995221 
L 346.350838 -94.886828 
L 347.511464 -95.79067 
L 348.67209 -96.706676 
L 349.832716 -97.634777 
L 350.993341 -98.574902 
L 352.153967 -99.52698 
L 353.314593 -100.490936 
L 354.475219 -101.466699 
L 355.635845 -102.454193 
L 356.796471 -103.453343 
L 357.957097 -104.464073 
L 359.117723 -105.486305 
L 360.278348 -106.519962 
L 361.438974 -107.564964 
L 362.5996 -108.621232 
L 363.760226 -109.688685 
L 364.920852 -110.767241 
L 366.081478 -111.856819 
L 367.242104 -112.957334 
L 368.402729 -114.068703 
L 369.563355 -115.190842 
L 370.723981 -116.323663 
L 371.884607 -117.467082 
L 373.045233 -118.62101 
L 374.205859 -119.785359 
L 375.366485 -120.960041 
L 376.527111 -122.144966 
L 377.687736 -123.340042 
L 378.848362 -124.54518 
L 380.008988 -125.760287 
L 381.169614 -126.98527 
L 382.33024 -128.220036 
L 383.490866 -129.46449 
L 384.651492 -130.718537 
L 385.812118 -131.982082 
L 386.972743 -133.255028 
L 388.133369 -134.537278 
L 389.293995 -135.828733 
L 390.454621 -137.129296 
L 391.615247 -138.438867 
L 392.775873 -139.757346 
L 393.936499 -141.084632 
L 395.097124 -142.420624 
L 396.25775 -143.76522 
L 397.418376 -145.118318 
L 398.579002 -146.479813 
L 399.739628 -147.849602 
L 400.900254 -149.22758 
L 402.06088 -150.613643 
L 403.221506 -152.007683 
L 404.382131 -153.409596 
L 405.542757 -154.819273 
L 406.703383 -156.236607 
L 407.864009 -157.66149 
L 409.024635 -159.093813 
L 410.185261 -160.533467 
L 411.345887 -161.980341 
L 412.506513 -163.434326 
L 413.667138 -164.89531 
L 414.827764 -166.363181 
L 415.98839 -167.837828 
L 417.149016 -169.319138 
L 418.309642 -170.806998 
L 419.470268 -172.301293 
L 420.630894 -173.801911 
L 421.791519 -175.308736 
L 422.952145 -176.821654 
L 424.112771 -178.340548 
L 425.273397 -179.865304 
L 426.434023 -181.395803 
L 427.594649 -182.931931 
L 428.755275 -184.473568 
L 429.915901 -186.020598 
L 431.076526 -187.572902 
L 432.237152 -189.130362 
L 433.397778 -190.692859 
L 434.558404 -192.260274 
L 435.71903 -193.832486 
L 436.879656 -195.409376 
L 438.040282 -196.990824 
L 439.200908 -198.576708 
L 440.361533 -200.166908 
L 441.522159 -201.761302 
L 442.682785 -203.359768 
L 443.843411 -204.962184 
L 445.004037 -206.568428 
L 446.164663 -208.178377 
L 447.325289 -209.791909 
L 448.485914 -211.408899 
L 449.64654 -213.029225 
L 450.807166 -214.652763 
L 451.967792 -216.279389 
L 453.128418 -217.908979 
L 454.289044 -219.541407 
L 455.44967 -221.17655 
L 456.610296 -222.814283 
L 457.770921 -224.45448 
L 458.931547 -226.097017 
L 460.092173 -227.741767 
L 461.252799 -229.388606 
L 462.413425 -231.037407 
L 463.574051 -232.688045 
L 464.734677 -234.340394 
L 465.895303 -235.994326 
L 467.055928 -237.649717 
L 468.216554 -239.30644 
L 469.37718 -240.964367 
L 470.537806 -242.623374 
L 471.698432 -244.283332 
L 472.859058 -245.944115 
L 474.019684 -247.605596 
L 475.180309 -249.267649 
L 476.340935 -250.930146 
L 477.501561 -252.592961 
L 478.662187 -254.255966 
L 479.822813 -255.919034 
L 480.983439 -257.582039 
L 482.144065 -259.244854 
L 483.304691 -260.907351 
L 484.465316 -262.569404 
L 485.625942 -264.230885 
L 486.786568 -265.891668 
L 487.947194 -267.551626 
L 489.10782 -269.210633 
L 490.268446 -270.86856 
L 491.429072 -272.525283 
L 492.589697 -274.180674 
L 493.750323 -275.834606 
L 494.910949 -277.486955 
L 496.071575 -279.137593 
L 497.232201 -280.786394 
L 498.392827 -282.433233 
L 499.553453 -284.077983 
L 500.714079 -285.72052 
L 501.874704 -287.360717 
L 503.03533 -288.99845 
L 504.195956 -290.633593 
L 505.356582 -292.266021 
L 506.517208 -293.895611 
L 507.677834 -295.522237 
L 508.83846 -297.145775 
L 509.999086 -298.766101 
L 511.159711 -300.383091 
L 512.320337 -301.996623 
L 513.480963 -303.606572 
L 514.641589 -305.212816 
L 515.802215 -306.815232 
L 516.962841 -308.413698 
L 518.123467 -310.008092 
L 519.284092 -311.598292 
L 520.444718 -313.184176 
L 521.605344 -314.765624 
L 522.76597 -316.342514 
L 523.926596 -317.914726 
L 525.087222 -319.482141 
L 526.247848 -321.044638 
L 527.408474 -322.602098 
L 528.569099 -324.154402 
L 529.729725 -325.701432 
L 530.890351 -327.243069 
L 532.050977 -328.779197 
L 533.211603 -330.309696 
L 534.372229 -331.834452 
L 535.532855 -333.353346 
L 536.693481 -334.866264 
L 537.854106 -336.373089 
L 539.014732 -337.873707 
L 540.175358 -339.368002 
L 541.335984 -340.855862 
L 542.49661 -342.337172 
L 543.657236 -343.811819 
L 544.817862 -345.27969 
L 545.978487 -346.740674 
L 547.139113 -348.194659 
L 548.299739 -349.641533 
L 549.460365 -351.081187 
L 550.620991 -352.51351 
L 551.781617 -353.938393 
L 552.942243 -355.355727 
L 554.102869 -356.765404 
L 555.263494 -358.167317 
L 556.42412 -359.561357 
L 557.584746 -360.94742 
L 558.745372 -362.325398 
L 559.905998 -363.695187 
L 561.066624 -365.056682 
L 562.22725 -366.40978 
L 563.387876 -367.754376 
L 564.548501 -369.090368 
L 565.709127 -370.417654 
L 566.869753 -371.736133 
L 568.030379 -373.045704 
L 569.191005 -374.346267 
L 570.351631 -375.637722 
L 571.512257 -376.919972 
L 572.672882 -378.192918 
L 573.833508 -379.456463 
L 574.994134 -380.71051 
L 576.15476 -381.954964 
L 577.315386 -383.18973 
L 578.476012 -384.414713 
L 579.636638 -385.62982 
L 580.797264 -386.834958 
L 581.957889 -388.030034 
L 583.118515 -389.214959 
L 584.279141 -390.389641 
L 585.439767 -391.55399 
L 586.600393 -392.707918 
L 587.761019 -393.851337 
L 588.921645 -394.984158 
L 590.082271 -396.106297 
L 591.242896 -397.217666 
L 592.403522 -398.318181 
L 593.564148 -399.407759 
L 594.724774 -400.486315 
L 595.8854 -401.553768 
L 597.046026 -402.610036 
L 598.206652 -403.655038 
L 599.367277 -404.688695 
L 600.527903 -405.710927 
L 601.688529 -406.721657 
L 602.849155 -407.720807 
L 604.009781 -408.708301 
L 605.170407 -409.684064 
L 606.331033 -410.64802 
L 607.491659 -411.600098 
L 608.652284 -412.540223 
L 609.81291 -413.468324 
L 610.973536 -414.38433 
L 612.134162 -415.288172 
L 613.294788 -416.179779 
L 614.455414 -417.059085 
L 615.61604 -417.926021 
L 616.776666 -418.780522 
L 617.937291 -419.622523 
L 619.097917 -420.451959 
L 620.258543 -421.268766 
L 621.419169 -422.072883 
L 622.579795 -422.864248 
L 623.740421 -423.642801 
L 624.901047 -424.408481 
L 626.061672 -425.161232 
L 627.222298 -425.900994 
L 628.382924 -426.627712 
L 629.54355 -427.341331 
L 630.704176 -428.041795 
L 631.864802 -428.729051 
L 633.025428 -429.403047 
L 634.186054 -430.063731 
L 635.346679 -430.711054 
L 636.507305 -431.344964 
L 637.667931 -431.965414 
L 638.828557 -432.572357 
L 639.989183 -433.165746 
L 641.149809 -433.745536 
L 642.310435 -434.311683 
L 643.471061 -434.864143 
L 644.631686 -435.402874 
L 645.792312 -435.927836 
L 646.952938 -436.438987 
L 648.113564 -436.936289 
L 649.27419 -437.419704 
L 650.434816 -437.889196 
L 651.595442 -438.344727 
L 652.756067 -438.786264 
L 653.916693 -439.213773 
L 655.077319 -439.62722 
L 656.237945 -440.026575 
L 657.398571 -440.411807 
L 658.559197 -440.782887 
L 659.719823 -441.139786 
L 660.880449 -441.482476 
L 662.041074 -441.810933 
L 663.2017 -442.12513 
L 664.362326 -442.425044 
L 665.522952 -442.710652 
L 666.683578 -442.981931 
L 667.844204 -443.238863 
L 669.00483 -443.481425 
L 670.165455 -443.709601 
L 671.326081 -443.923373 
L 672.486707 -444.122724 
L 673.647333 -444.307639 
L 674.807959 -444.478104 
L 675.968585 -444.634106 
L 677.129211 -444.775633 
L 678.289837 -444.902675 
L 679.450462 -445.015221 
L 680.611088 -445.113263 
L 681.771714 -445.196794 
L 682.93234 -445.265807 
L 684.092966 -445.320297 
L 685.253592 -445.360259 
L 686.414218 -445.385691 
L 687.574844 -445.396591 
L 688.735469 -445.392958 
L 689.896095 -445.374791 
L 691.056721 -445.342094 
L 692.217347 -445.294867 
L 693.377973 -445.233115 
L 694.538599 -445.156843 
L 695.699225 -445.066056 
L 696.85985 -444.96076 
L 698.020476 -444.840965 
L 699.181102 -444.70668 
L 700.341728 -444.557914 
L 701.502354 -444.394678 
L 702.66298 -444.216986 
L 703.823606 -444.024852 
L 704.984232 -443.818288 
L 706.144857 -443.597313 
L 707.305483 -443.361941 
L 708.466109 -443.112192 
L 709.626735 -442.848084 
L 710.787361 -442.569638 
L 711.947987 -442.276874 
L 713.108613 -441.969815 
L 714.269239 -441.648485 
L 715.429864 -441.312909 
L 716.59049 -440.96311 
L 717.751116 -440.599118 
L 718.911742 -440.220958 
L 720.072368 -439.828661 
L 721.232994 -439.422256 
L 722.39362 -439.001774 
L 723.554245 -438.567247 
L 724.714871 -438.118709 
L 725.875497 -437.656193 
L 727.036123 -437.179735 
L 728.196749 -436.689372 
L 729.357375 -436.18514 
L 730.518001 -435.667079 
L 731.678627 -435.135227 
L 732.839252 -434.589627 
L 733.999878 -434.030318 
L 735.160504 -433.457344 
L 736.32113 -432.870749 
L 737.481756 -432.270577 
L 738.642382 -431.656875 
L 739.803008 -431.029688 
L 740.963634 -430.389066 
L 742.124259 -429.735057 
L 743.284885 -429.06771 
L 744.445511 -428.387077 
L 745.606137 -427.693211 
L 746.766763 -426.986163 
L 747.927389 -426.265987 
L 749.088015 -425.53274 
L 750.24864 -424.786476 
L 751.409266 -424.027254 
L 752.569892 -423.25513 
L 753.730518 -422.470163 
L 754.891144 -421.672415 
L 756.05177 -420.861945 
L 757.212396 -420.038815 
L 758.373022 -419.203089 
L 759.533647 -418.35483 
L 760.694273 -417.494103 
L 761.854899 -416.620974 
L 763.015525 -415.735509 
L 764.176151 -414.837776 
L 765.336777 -413.927843 
L 766.497403 -413.005781 
L 767.658029 -412.071659 
L 768.818654 -411.125549 
L 769.97928 -410.167522 
L 771.139906 -409.197653 
L 772.300532 -408.216016 
L 773.461158 -407.222684 
L 774.621784 -406.217735 
L 775.78241 -405.201244 
L 776.943035 -404.17329 
L 778.103661 -403.13395 
L 779.264287 -402.083305 
L 780.424913 -401.021435 
L 781.585539 -399.94842 
L 782.746165 -398.864343 
L 783.906791 -397.769286 
L 785.067417 -396.663333 
L 786.228042 -395.546568 
L 787.388668 -394.419078 
L 788.549294 -393.280947 
L 789.70992 -392.132262 
L 790.870546 -390.973113 
L 792.031172 -389.803586 
L 793.191798 -388.623771 
L 794.352424 -387.433759 
L 795.513049 -386.233641 
L 796.673675 -385.023507 
L 797.834301 -383.80345 
L 798.994927 -382.573564 
L 800.155553 -381.333942 
L 801.316179 -380.08468 
L 802.476805 -378.825872 
L 803.63743 -377.557614 
L 804.798056 -376.280004 
L 805.958682 -374.993139 
L 807.119308 -373.697118 
L 808.279934 -372.392038 
L 809.44056 -371.078001 
L 810.601186 -369.755105 
L 811.761812 -368.423454 
L 812.922437 -367.083147 
L 814.083063 -365.734287 
L 815.243689 -364.376978 
L 816.404315 -363.011323 
L 817.564941 -361.637426 
L 818.725567 -360.255393 
L 819.886193 -358.865328 
L 821.046818 -357.467338 
L 822.207444 -356.06153 
L 823.36807 -354.64801 
L 824.528696 -353.226888 
L 825.689322 -351.798271 
L 826.849948 -350.362269 
L 828.010574 -348.918991 
L 829.1712 -347.468548 
L 830.331825 -346.01105 
L 831.492451 -344.546608 
L 832.653077 -343.075335 
L 833.813703 -341.597343 
L 834.974329 -340.112744 
L 836.134955 -338.621652 
L 837.295581 -337.124181 
L 838.456207 -335.620445 
L 839.616832 -334.110559 
L 840.777458 -332.594639 
L 841.938084 -331.072799 
L 843.09871 -329.545157 
L 844.259336 -328.011829 
L 845.419962 -326.472932 
L 846.580588 -324.928584 
L 847.741213 -323.378902 
L 848.901839 -321.824005 
L 850.062465 -320.264011 
L 851.223091 -318.699041 
L 852.383717 -317.129212 
L 853.544343 -315.554646 
L 854.704969 -313.975462 
L 855.865595 -312.391781 
L 857.02622 -310.803724 
L 858.186846 -309.211412 
L 859.347472 -307.614967 
L 860.508098 -306.014511 
L 861.668724 -304.410165 
L 862.82935 -302.802053 
L 863.989976 -301.190297 
L 865.150602 -299.575021 
L 866.311227 -297.956347 
L 867.471853 -296.334399 
L 868.632479 -294.709302 
L 869.793105 -293.081179 
L 870.953731 -291.450154 
L 872.114357 -289.816353 
L 873.274983 -288.179899 
L 874.435608 -286.540919 
L 875.596234 -284.899536 
L 876.75686 -283.255877 
L 877.917486 -281.610067 
L 879.078112 -279.962231 
L 880.238738 -278.312495 
L 881.399364 -276.660987 
L 882.55999 -275.00783 
L 883.720615 -273.353152 
L 884.881241 -271.69708 
L 886.041867 -270.039739 
L 887.202493 -268.381256 
L 888.363119 -266.721758 
L 889.523745 -265.061372 
L 890.684371 -263.400224 
L 891.844997 -261.738441 
L 893.005622 -260.07615 
L 894.166248 -258.413478 
L 895.326874 -256.750553 
L 896.4875 -255.0875 
L 896.4875 -255.0875 
L 896.4875 -255.0875 
L 895.326874 -255.0875 
L 894.166248 -255.0875 
L 893.005622 -255.0875 
L 891.844997 -255.0875 
L 890.684371 -255.0875 
L 889.523745 -255.0875 
L 888.363119 -255.0875 
L 887.202493 -255.0875 
L 886.041867 -255.0875 
L 884.881241 -255.0875 
L 883.720615 -255.0875 
L 882.55999 -255.0875 
L 881.399364 -255.0875 
L 880.238738 -255.0875 
L 879.078112 -255.0875 
L 877.917486 -255.0875 
L 876.75686 -255.0875 
L 875.596234 -255.0875 
L 874.435608 -255.0875 
L 873.274983 -255.0875 
L 872.114357 -255.0875 
L 870.953731 -255.0875 
L 869.793105 -255.0875 
L 868.632479 -255.0875 
L 867.471853 -255.0875 
L 866.311227 -255.0875 
L 865.150602 -255.0875 
L 863.989976 -255.0875 
L 862.82935 -255.0875 
L 861.668724 -255.0875 
L 860.508098 -255.0875 
L 859.347472 -255.0875 
L 858.186846 -255.0875 
L 857.02622 -255.0875 
L 855.865595 -255.0875 
L 854.704969 -255.0875 
L 853.544343 -255.0875 
L 852.383717 -255.0875 
L 851.223091 -255.0875 
L 850.062465 -255.0875 
L 848.901839 -255.0875 
L 847.741213 -255.0875 
L 846.580588 -255.0875 
L 845.419962 -255.0875 
L 844.259336 -255.0875 
L 843.09871 -255.0875 
L 841.938084 -255.0875 
L 840.777458 -255.0875 
L 839.616832 -255.0875 
L 838.456207 -255.0875 
L 837.295581 -255.0875 
L 836.134955 -255.0875 
L 834.974329 -255.0875 
L 833.813703 -255.0875 
L 832.653077 -255.0875 
L 831.492451 -255.0875 
L 830.331825 -255.0875 
L 829.1712 -255.0875 
L 828.010574 -255.0875 
L 826.849948 -255.0875 
L 825.689322 -255.0875 
L 824.528696 -255.0875 
L 823.36807 -255.0875 
L 822.207444 -255.0875 
L 821.046818 -255.0875 
L 819.886193 -255.0875 
L 818.725567 -255.0875 
L 817.564941 -255.0875 
L 816.404315 -255.0875 
L 815.243689 -255.0875 
L 814.083063 -255.0875 
L 812.922437 -255.0875 
L 811.761812 -255.0875 
L 810.601186 -255.0875 
L 809.44056 -255.0875 
L 808.279934 -255.0875 
L 807.119308 -255.0875 
L 805.958682 -255.0875 
L 804.798056 -255.0875 
L 803.63743 -255.0875 
L 802.476805 -255.0875 
L 801.316179 -255.0875 
L 800.155553 -255.0875 
L 798.994927 -255.0875 
L 797.834301 -255.0875 
L 796.673675 -255.0875 
L 795.513049 -255.0875 
L 794.352424 -255.0875 
L 793.191798 -255.0875 
L 792.031172 -255.0875 
L 790.870546 -255.0875 
L 789.70992 -255.0875 
L 788.549294 -255.0875 
L 787.388668 -255.0875 
L 786.228042 -255.0875 
L 785.067417 -255.0875 
L 783.906791 -255.0875 
L 782.746165 -255.0875 
L 781.585539 -255.0875 
L 780.424913 -255.0875 
L 779.264287 -255.0875 
L 778.103661 -255.0875 
L 776.943035 -255.0875 
L 775.78241 -255.0875 
L 774.621784 -255.0875 
L 773.461158 -255.0875 
L 772.300532 -255.0875 
L 771.139906 -255.0875 
L 769.97928 -255.0875 
L 768.818654 -255.0875 
L 767.658029 -255.0875 
L 766.497403 -255.0875 
L 765.336777 -255.0875 
L 764.176151 -255.0875 
L 763.015525 -255.0875 
L 761.854899 -255.0875 
L 760.694273 -255.0875 
L 759.533647 -255.0875 
L 758.373022 -255.0875 
L 757.212396 -255.0875 
L 756.05177 -255.0875 
L 754.891144 -255.0875 
L 753.730518 -255.0875 
L 752.569892 -255.0875 
L 751.409266 -255.0875 
L 750.24864 -255.0875 
L 749.088015 -255.0875 
L 747.927389 -255.0875 
L 746.766763 -255.0875 
L 745.606137 -255.0875 
L 744.445511 -255.0875 
L 743.284885 -255.0875 
L 742.124259 -255.0875 
L 740.963634 -255.0875 
L 739.803008 -255.0875 
L 738.642382 -255.0875 
L 737.481756 -255.0875 
L 736.32113 -255.0875 
L 735.160504 -255.0875 
L 733.999878 -255.0875 
L 732.839252 -255.0875 
L 731.678627 -255.0875 
L 730.518001 -255.0875 
L 729.357375 -255.0875 
L 728.196749 -255.0875 
L 727.036123 -255.0875 
L 725.875497 -255.0875 
L 724.714871 -255.0875 
L 723.554245 -255.0875 
L 722.39362 -255.0875 
L 721.232994 -255.0875 
L 720.072368 -255.0875 
L 718.911742 -255.0875 
L 717.751116 -255.0875 
L 716.59049 -255.0875 
L 715.429864 -255.0875 
L 714.269239 -255.0875 
L 713.108613 -255.0875 
L 711.947987 -255.0875 
L 710.787361 -255.0875 
L 709.626735 -255.0875 
L 708.466109 -255.0875 
L 707.305483 -255.0875 
L 706.144857 -255.0875 
L 704.984232 -255.0875 
L 703.823606 -255.0875 
L 702.66298 -255.0875 
L 701.502354 -255.0875 
L 700.341728 -255.0875 
L 699.181102 -255.0875 
L 698.020476 -255.0875 
L 696.85985 -255.0875 
L 695.699225 -255.0875 
L 694.538599 -255.0875 
L 693.377973 -255.0875 
L 692.217347 -255.0875 
L 691.056721 -255.0875 
L 689.896095 -255.0875 
L 688.735469 -255.0875 
L 687.574844 -255.0875 
L 686.414218 -255.0875 
L 685.253592 -255.0875 
L 684.092966 -255.0875 
L 682.93234 -255.0875 
L 681.771714 -255.0875 
L 680.611088 -255.0875 
L 679.450462 -255.0875 
L 678.289837 -255.0875 
L 677.129211 -255.0875 
L 675.968585 -255.0875 
L 674.807959 -255.0875 
L 673.647333 -255.0875 
L 672.486707 -255.0875 
L 671.326081 -255.0875 
L 670.165455 -255.0875 
L 669.00483 -255.0875 
L 667.844204 -255.0875 
L 666.683578 -255.0875 
L 665.522952 -255.0875 
L 664.362326 -255.0875 
L 663.2017 -255.0875 
L 662.041074 -255.0875 
L 660.880449 -255.0875 
L 659.719823 -255.0875 
L 658.559197 -255.0875 
L 657.398571 -255.0875 
L 656.237945 -255.0875 
L 655.077319 -255.0875 
L 653.916693 -255.0875 
L 652.756067 -255.0875 
L 651.595442 -255.0875 
L 650.434816 -255.0875 
L 649.27419 -255.0875 
L 648.113564 -255.0875 
L 646.952938 -255.0875 
L 645.792312 -255.0875 
L 644.631686 -255.0875 
L 643.471061 -255.0875 
L 642.310435 -255.0875 
L 641.149809 -255.0875 
L 639.989183 -255.0875 
L 638.828557 -255.0875 
L 637.667931 -255.0875 
L 636.507305 -255.0875 
L 635.346679 -255.0875 
L 634.186054 -255.0875 
L 633.025428 -255.0875 
L 631.864802 -255.0875 
L 630.704176 -255.0875 
L 629.54355 -255.0875 
L 628.382924 -255.0875 
L 627.222298 -255.0875 
L 626.061672 -255.0875 
L 624.901047 -255.0875 
L 623.740421 -255.0875 
L 622.579795 -255.0875 
L 621.419169 -255.0875 
L 620.258543 -255.0875 
L 619.097917 -255.0875 
L 617.937291 -255.0875 
L 616.776666 -255.0875 
L 615.61604 -255.0875 
L 614.455414 -255.0875 
L 613.294788 -255.0875 
L 612.134162 -255.0875 
L 610.973536 -255.0875 
L 609.81291 -255.0875 
L 608.652284 -255.0875 
L 607.491659 -255.0875 
L 606.331033 -255.0875 
L 605.170407 -255.0875 
L 604.009781 -255.0875 
L 602.849155 -255.0875 
L 601.688529 -255.0875 
L 600.527903 -255.0875 
L 599.367277 -255.0875 
L 598.206652 -255.0875 
L 597.046026 -255.0875 
L 595.8854 -255.0875 
L 594.724774 -255.0875 
L 593.564148 -255.0875 
L 592.403522 -255.0875 
L 591.242896 -255.0875 
L 590.082271 -255.0875 
L 588.921645 -255.0875 
L 587.761019 -255.0875 
L 586.600393 -255.0875 
L 585.439767 -255.0875 
L 584.279141 -255.0875 
L 583.118515 -255.0875 
L 581.957889 -255.0875 
L 580.797264 -255.0875 
L 579.636638 -255.0875 
L 578.476012 -255.0875 
L 577.315386 -255.0875 
L 576.15476 -255.0875 
L 574.994134 -255.0875 
L 573.833508 -255.0875 
L 572.672882 -255.0875 
L 571.512257 -255.0875 
L 570.351631 -255.0875 
L 569.191005 -255.0875 
L 568.030379 -255.0875 
L 566.869753 -255.0875 
L 565.709127 -255.0875 
L 564.548501 -255.0875 
L 563.387876 -255.0875 
L 562.22725 -255.0875 
L 561.066624 -255.0875 
L 559.905998 -255.0875 
L 558.745372 -255.0875 
L 557.584746 -255.0875 
L 556.42412 -255.0875 
L 555.263494 -255.0875 
L 554.102869 -255.0875 
L 552.942243 -255.0875 
L 551.781617 -255.0875 
L 550.620991 -255.0875 
L 549.460365 -255.0875 
L 548.299739 -255.0875 
L 547.139113 -255.0875 
L 545.978487 -255.0875 
L 544.817862 -255.0875 
L 543.657236 -255.0875 
L 542.49661 -255.0875 
L 541.335984 -255.0875 
L 540.175358 -255.0875 
L 539.014732 -255.0875 
L 537.854106 -255.0875 
L 536.693481 -255.0875 
L 535.532855 -255.0875 
L 534.372229 -255.0875 
L 533.211603 -255.0875 
L 532.050977 -255.0875 
L 530.890351 -255.0875 
L 529.729725 -255.0875 
L 528.569099 -255.0875 
L 527.408474 -255.0875 
L 526.247848 -255.0875 
L 525.087222 -255.0875 
L 523.926596 -255.0875 
L 522.76597 -255.0875 
L 521.605344 -255.0875 
L 520.444718 -255.0875 
L 519.284092 -255.0875 
L 518.123467 -255.0875 
L 516.962841 -255.0875 
L 515.802215 -255.0875 
L 514.641589 -255.0875 
L 513.480963 -255.0875 
L 512.320337 -255.0875 
L 511.159711 -255.0875 
L 509.999086 -255.0875 
L 508.83846 -255.0875 
L 507.677834 -255.0875 
L 506.517208 -255.0875 
L 505.356582 -255.0875 
L 504.195956 -255.0875 
L 503.03533 -255.0875 
L 501.874704 -255.0875 
L 500.714079 -255.0875 
L 499.553453 -255.0875 
L 498.392827 -255.0875 
L 497.232201 -255.0875 
L 496.071575 -255.0875 
L 494.910949 -255.0875 
L 493.750323 -255.0875 
L 492.589697 -255.0875 
L 491.429072 -255.0875 
L 490.268446 -255.0875 
L 489.10782 -255.0875 
L 487.947194 -255.0875 
L 486.786568 -255.0875 
L 485.625942 -255.0875 
L 484.465316 -255.0875 
L 483.304691 -255.0875 
L 482.144065 -255.0875 
L 480.983439 -255.0875 
L 479.822813 -255.0875 
L 478.662187 -255.0875 
L 477.501561 -255.0875 
L 476.340935 -255.0875 
L 475.180309 -255.0875 
L 474.019684 -255.0875 
L 472.859058 -255.0875 
L 471.698432 -255.0875 
L 470.537806 -255.0875 
L 469.37718 -255.0875 
L 468.216554 -255.0875 
L 467.055928 -255.0875 
L 465.895303 -255.0875 
L 464.734677 -255.0875 
L 463.574051 -255.0875 
L 462.413425 -255.0875 
L 461.252799 -255.0875 
L 460.092173 -255.0875 
L 458.931547 -255.0875 
L 457.770921 -255.0875 
L 456.610296 -255.0875 
L 455.44967 -255.0875 
L 454.289044 -255.0875 
L 453.128418 -255.0875 
L 451.967792 -255.0875 
L 450.807166 -255.0875 
L 449.64654 -255.0875 
L 448.485914 -255.0875 
L 447.325289 -255.0875 
L 446.164663 -255.0875 
L 445.004037 -255.0875 
L 443.843411 -255.0875 
L 442.682785 -255.0875 
L 441.522159 -255.0875 
L 440.361533 -255.0875 
L 439.200908 -255.0875 
L 438.040282 -255.0875 
L 436.879656 -255.0875 
L 435.71903 -255.0875 
L 434.558404 -255.0875 
L 433.397778 -255.0875 
L 432.237152 -255.0875 
L 431.076526 -255.0875 
L 429.915901 -255.0875 
L 428.755275 -255.0875 
L 427.594649 -255.0875 
L 426.434023 -255.0875 
L 425.273397 -255.0875 
L 424.112771 -255.0875 
L 422.952145 -255.0875 
L 421.791519 -255.0875 
L 420.630894 -255.0875 
L 419.470268 -255.0875 
L 418.309642 -255.0875 
L 417.149016 -255.0875 
L 415.98839 -255.0875 
L 414.827764 -255.0875 
L 413.667138 -255.0875 
L 412.506513 -255.0875 
L 411.345887 -255.0875 
L 410.185261 -255.0875 
L 409.024635 -255.0875 
L 407.864009 -255.0875 
L 406.703383 -255.0875 
L 405.542757 -255.0875 
L 404.382131 -255.0875 
L 403.221506 -255.0875 
L 402.06088 -255.0875 
L 400.900254 -255.0875 
L 399.739628 -255.0875 
L 398.579002 -255.0875 
L 397.418376 -255.0875 
L 396.25775 -255.0875 
L 395.097124 -255.0875 
L 393.936499 -255.0875 
L 392.775873 -255.0875 
L 391.615247 -255.0875 
L 390.454621 -255.0875 
L 389.293995 -255.0875 
L 388.133369 -255.0875 
L 386.972743 -255.0875 
L 385.812118 -255.0875 
L 384.651492 -255.0875 
L 383.490866 -255.0875 
L 382.33024 -255.0875 
L 381.169614 -255.0875 
L 380.008988 -255.0875 
L 378.848362 -255.0875 
L 377.687736 -255.0875 
L 376.527111 -255.0875 
L 375.366485 -255.0875 
L 374.205859 -255.0875 
L 373.045233 -255.0875 
L 371.884607 -255.0875 
L 370.723981 -255.0875 
L 369.563355 -255.0875 
L 368.402729 -255.0875 
L 367.242104 -255.0875 
L 366.081478 -255.0875 
L 364.920852 -255.0875 
L 363.760226 -255.0875 
L 362.5996 -255.0875 
L 361.438974 -255.0875 
L 360.278348 -255.0875 
L 359.117723 -255.0875 
L 357.957097 -255.0875 
L 356.796471 -255.0875 
L 355.635845 -255.0875 
L 354.475219 -255.0875 
L 353.314593 -255.0875 
L 352.153967 -255.0875 
L 350.993341 -255.0875 
L 349.832716 -255.0875 
L 348.67209 -255.0875 
L 347.511464 -255.0875 
L 346.350838 -255.0875 
L 345.190212 -255.0875 
L 344.029586 -255.0875 
L 342.86896 -255.0875 
L 341.708334 -255.0875 
L 340.547709 -255.0875 
L 339.387083 -255.0875 
L 338.226457 -255.0875 
L 337.065831 -255.0875 
L 335.905205 -255.0875 
L 334.744579 -255.0875 
L 333.583953 -255.0875 
L 332.423328 -255.0875 
L 331.262702 -255.0875 
L 330.102076 -255.0875 
L 328.94145 -255.0875 
L 327.780824 -255.0875 
L 326.620198 -255.0875 
L 325.459572 -255.0875 
L 324.298946 -255.0875 
L 323.138321 -255.0875 
L 321.977695 -255.0875 
L 320.817069 -255.0875 
L 319.656443 -255.0875 
L 318.495817 -255.0875 
L 317.335191 -255.0875 
L 316.174565 -255.0875 
L 315.013939 -255.0875 
L 313.853314 -255.0875 
L 312.692688 -255.0875 
L 311.532062 -255.0875 
L 310.371436 -255.0875 
L 309.21081 -255.0875 
L 308.050184 -255.0875 
L 306.889558 -255.0875 
L 305.728933 -255.0875 
L 304.568307 -255.0875 
L 303.407681 -255.0875 
L 302.247055 -255.0875 
L 301.086429 -255.0875 
L 299.925803 -255.0875 
L 298.765177 -255.0875 
L 297.604551 -255.0875 
L 296.443926 -255.0875 
L 295.2833 -255.0875 
L 294.122674 -255.0875 
L 292.962048 -255.0875 
L 291.801422 -255.0875 
L 290.640796 -255.0875 
L 289.48017 -255.0875 
L 288.319545 -255.0875 
L 287.158919 -255.0875 
L 285.998293 -255.0875 
L 284.837667 -255.0875 
L 283.677041 -255.0875 
L 282.516415 -255.0875 
L 281.355789 -255.0875 
L 280.195163 -255.0875 
L 279.034538 -255.0875 
L 277.873912 -255.0875 
L 276.713286 -255.0875 
L 275.55266 -255.0875 
L 274.392034 -255.0875 
L 273.231408 -255.0875 
L 272.070782 -255.0875 
L 270.910156 -255.0875 
L 269.749531 -255.0875 
L 268.588905 -255.0875 
L 267.428279 -255.0875 
L 266.267653 -255.0875 
L 265.107027 -255.0875 
L 263.946401 -255.0875 
L 262.785775 -255.0875 
L 261.62515 -255.0875 
L 260.464524 -255.0875 
L 259.303898 -255.0875 
L 258.143272 -255.0875 
L 256.982646 -255.0875 
L 255.82202 -255.0875 
L 254.661394 -255.0875 
L 253.500768 -255.0875 
L 252.340143 -255.0875 
L 251.179517 -255.0875 
L 250.018891 -255.0875 
L 248.858265 -255.0875 
L 247.697639 -255.0875 
L 246.537013 -255.0875 
L 245.376387 -255.0875 
L 244.215761 -255.0875 
L 243.055136 -255.0875 
L 241.89451 -255.0875 
L 240.733884 -255.0875 
L 239.573258 -255.0875 
L 238.412632 -255.0875 
L 237.252006 -255.0875 
L 236.09138 -255.0875 
L 234.930755 -255.0875 
L 233.770129 -255.0875 
L 232.609503 -255.0875 
L 231.448877 -255.0875 
L 230.288251 -255.0875 
L 229.127625 -255.0875 
L 227.966999 -255.0875 
L 226.806373 -255.0875 
L 225.645748 -255.0875 
L 224.485122 -255.0875 
L 223.324496 -255.0875 
L 222.16387 -255.0875 
L 221.003244 -255.0875 
L 219.842618 -255.0875 
L 218.681992 -255.0875 
L 217.521366 -255.0875 
L 216.360741 -255.0875 
L 215.200115 -255.0875 
L 214.039489 -255.0875 
L 212.878863 -255.0875 
L 211.718237 -255.0875 
L 210.557611 -255.0875 
L 209.396985 -255.0875 
L 208.23636 -255.0875 
L 207.075734 -255.0875 
L 205.915108 -255.0875 
L 204.754482 -255.0875 
L 203.593856 -255.0875 
L 202.43323 -255.0875 
L 201.272604 -255.0875 
L 200.111978 -255.0875 
L 198.951353 -255.0875 
L 197.790727 -255.0875 
L 196.630101 -255.0875 
L 195.469475 -255.0875 
L 194.308849 -255.0875 
L 193.148223 -255.0875 
L 191.987597 -255.0875 
L 190.826971 -255.0875 
L 189.666346 -255.0875 
L 188.50572 -255.0875 
L 187.345094 -255.0875 
L 186.184468 -255.0875 
L 185.023842 -255.0875 
L 183.863216 -255.0875 
L 182.70259 -255.0875 
L 181.541965 -255.0875 
L 180.381339 -255.0875 
L 179.220713 -255.0875 
L 178.060087 -255.0875 
L 176.899461 -255.0875 
L 175.738835 -255.0875 
L 174.578209 -255.0875 
L 173.417583 -255.0875 
L 172.256958 -255.0875 
L 171.096332 -255.0875 
L 169.935706 -255.0875 
L 168.77508 -255.0875 
L 167.614454 -255.0875 
L 166.453828 -255.0875 
L 165.293202 -255.0875 
L 164.132576 -255.0875 
L 162.971951 -255.0875 
L 161.811325 -255.0875 
L 160.650699 -255.0875 
L 159.490073 -255.0875 
L 158.329447 -255.0875 
L 157.168821 -255.0875 
L 156.008195 -255.0875 
L 154.84757 -255.0875 
L 153.686944 -255.0875 
L 152.526318 -255.0875 
L 151.365692 -255.0875 
L 150.205066 -255.0875 
L 149.04444 -255.0875 
L 147.883814 -255.0875 
L 146.723188 -255.0875 
L 145.562563 -255.0875 
L 144.401937 -255.0875 
L 143.241311 -255.0875 
L 142.080685 -255.0875 
L 140.920059 -255.0875 
L 139.759433 -255.0875 
L 138.598807 -255.0875 
L 137.438182 -255.0875 
L 136.277556 -255.0875 
L 135.11693 -255.0875 
L 133.956304 -255.0875 
L 132.795678 -255.0875 
L 131.635052 -255.0875 
L 130.474426 -255.0875 
L 129.3138 -255.0875 
L 128.153175 -255.0875 
L 126.992549 -255.0875 
L 125.831923 -255.0875 
L 124.671297 -255.0875 
L 123.510671 -255.0875 
L 122.350045 -255.0875 
L 121.189419 -255.0875 
L 120.028793 -255.0875 
L 118.868168 -255.0875 
L 117.707542 -255.0875 
L 116.546916 -255.0875 
L 115.38629 -255.0875 
L 114.225664 -255.0875 
L 113.065038 -255.0875 
L 111.904412 -255.0875 
L 110.743787 -255.0875 
L 109.583161 -255.0875 
L 108.422535 -255.0875 
L 107.261909 -255.0875 
L 106.101283 -255.0875 
L 104.940657 -255.0875 
L 103.780031 -255.0875 
L 102.619405 -255.0875 
L 101.45878 -255.0875 
L 100.298154 -255.0875 
L 99.137528 -255.0875 
L 97.976902 -255.0875 
L 96.816276 -255.0875 
L 95.65565 -255.0875 
L 94.495024 -255.0875 
L 93.334398 -255.0875 
L 92.173773 -255.0875 
L 91.013147 -255.0875 
L 89.852521 -255.0875 
L 88.691895 -255.0875 
L 87.531269 -255.0875 
L 86.370643 -255.0875 
L 85.210017 -255.0875 
L 84.049392 -255.0875 
L 82.888766 -255.0875 
L 81.72814 -255.0875 
L 80.567514 -255.0875 
L 79.406888 -255.0875 
L 78.246262 -255.0875 
L 77.085636 -255.0875 
L 75.92501 -255.0875 
L 74.764385 -255.0875 
L 73.603759 -255.0875 
L 72.443133 -255.0875 
L 71.282507 -255.0875 
L 70.121881 -255.0875 
L 68.961255 -255.0875 
L 67.800629 -255.0875 
L 66.640003 -255.0875 
L 65.479378 -255.0875 
L 64.318752 -255.0875 
L 63.158126 -255.0875 
L 61.9975 -255.0875 
z
" style="stroke: #a3583c; stroke-opacity: 0.08"/>
    </defs>
    <g clip-path="url(#p34a1ffa354)">
     <use xlink:href="#mff7c9b0d40" x="0" y="499.624687" style="fill: #a3583c; fill-opacity: 0.08; stroke: #a3583c; stroke-opacity: 0.08"/>
    </g>
   </g>
   <g id="matplotlib.axis_1">
    <g id="xtick_1">
     <g id="line2d_1">
      <path d="M 61.9975 453.877187 
L 61.9975 35.197187 
" clip-path="url(#p34a1ffa354)" style="fill: none; stroke: #d9cbb6; stroke-opacity: 0.45; stroke-width: 0.8; stroke-linecap: square"/>
     </g>
     <g id="line2d_2">
      <defs>
       <path id="mcba74ade5c" d="M 0 0 
L 0 3.5 
" style="stroke: #756a5d; stroke-width: 0.8"/>
      </defs>
      <g>
       <use xlink:href="#mcba74ade5c" x="61.9975" y="453.877187" style="fill: #756a5d; stroke: #756a5d; stroke-width: 0.8"/>
      </g>
     </g>
     <g id="text_1">
      <text style="font-size: 11px; font-family: 'DejaVu Serif'; text-anchor: middle; fill: #756a5d" x="61.9975" y="469.235469" transform="rotate(-0 61.9975 469.235469)">0.0</text>
     </g>
    </g>
    <g id="xtick_2">
     <g id="line2d_3">
      <path d="M 228.8955 453.877187 
L 228.8955 35.197187 
" clip-path="url(#p34a1ffa354)" style="fill: none; stroke: #d9cbb6; stroke-opacity: 0.45; stroke-width: 0.8; stroke-linecap: square"/>
     </g>
     <g id="line2d_4">
      <g>
       <use xlink:href="#mcba74ade5c" x="228.8955" y="453.877187" style="fill: #756a5d; stroke: #756a5d; stroke-width: 0.8"/>
      </g>
     </g>
     <g id="text_2">
      <text style="font-size: 11px; font-family: 'DejaVu Serif'; text-anchor: middle; fill: #756a5d" x="228.8955" y="469.235469" transform="rotate(-0 228.8955 469.235469)">0.2</text>
     </g>
    </g>
    <g id="xtick_3">
     <g id="line2d_5">
      <path d="M 395.7935 453.877187 
L 395.7935 35.197187 
" clip-path="url(#p34a1ffa354)" style="fill: none; stroke: #d9cbb6; stroke-opacity: 0.45; stroke-width: 0.8; stroke-linecap: square"/>
     </g>
     <g id="line2d_6">
      <g>
       <use xlink:href="#mcba74ade5c" x="395.7935" y="453.877187" style="fill: #756a5d; stroke: #756a5d; stroke-width: 0.8"/>
      </g>
     </g>
     <g id="text_3">
      <text style="font-size: 11px; font-family: 'DejaVu Serif'; text-anchor: middle; fill: #756a5d" x="395.7935" y="469.235469" transform="rotate(-0 395.7935 469.235469)">0.4</text>
     </g>
    </g>
    <g id="xtick_4">
     <g id="line2d_7">
      <path d="M 562.6915 453.877187 
L 562.6915 35.197187 
" clip-path="url(#p34a1ffa354)" style="fill: none; stroke: #d9cbb6; stroke-opacity: 0.45; stroke-width: 0.8; stroke-linecap: square"/>
     </g>
     <g id="line2d_8">
      <g>
       <use xlink:href="#mcba74ade5c" x="562.6915" y="453.877187" style="fill: #756a5d; stroke: #756a5d; stroke-width: 0.8"/>
      </g>
     </g>
     <g id="text_4">
      <text style="font-size: 11px; font-family: 'DejaVu Serif'; text-anchor: middle; fill: #756a5d" x="562.6915" y="469.235469" transform="rotate(-0 562.6915 469.235469)">0.6</text>
     </g>
    </g>
    <g id="xtick_5">
     <g id="line2d_9">
      <path d="M 729.5895 453.877187 
L 729.5895 35.197187 
" clip-path="url(#p34a1ffa354)" style="fill: none; stroke: #d9cbb6; stroke-opacity: 0.45; stroke-width: 0.8; stroke-linecap: square"/>
     </g>
     <g id="line2d_10">
      <g>
       <use xlink:href="#mcba74ade5c" x="729.5895" y="453.877187" style="fill: #756a5d; stroke: #756a5d; stroke-width: 0.8"/>
      </g>
     </g>
     <g id="text_5">
      <text style="font-size: 11px; font-family: 'DejaVu Serif'; text-anchor: middle; fill: #756a5d" x="729.5895" y="469.235469" transform="rotate(-0 729.5895 469.235469)">0.8</text>
     </g>
    </g>
    <g id="xtick_6">
     <g id="line2d_11">
      <path d="M 896.4875 453.877187 
L 896.4875 35.197187 
" clip-path="url(#p34a1ffa354)" style="fill: none; stroke: #d9cbb6; stroke-opacity: 0.45; stroke-width: 0.8; stroke-linecap: square"/>
     </g>
     <g id="line2d_12">
      <g>
       <use xlink:href="#mcba74ade5c" x="896.4875" y="453.877187" style="fill: #756a5d; stroke: #756a5d; stroke-width: 0.8"/>
      </g>
     </g>
     <g id="text_6">
      <text style="font-size: 11px; font-family: 'DejaVu Serif'; text-anchor: middle; fill: #756a5d" x="896.4875" y="469.235469" transform="rotate(-0 896.4875 469.235469)">1.0</text>
     </g>
    </g>
    <g id="text_7">
     <text style="font-size: 13px; font-family: 'DejaVu Serif'; text-anchor: middle; fill: #1f1b16" x="479.2425" y="485.401094" transform="rotate(-0 479.2425 485.401094)">Orbital phase</text>
    </g>
   </g>
   <g id="matplotlib.axis_2">
    <g id="ytick_1">
     <g id="line2d_13">
      <path d="M 61.9975 412.164808 
L 896.4875 412.164808 
" clip-path="url(#p34a1ffa354)" style="fill: none; stroke: #d9cbb6; stroke-opacity: 0.45; stroke-width: 0.8; stroke-linecap: square"/>
     </g>
     <g id="line2d_14">
      <defs>
       <path id="m468d314128" d="M 0 0 
L -3.5 0 
" style="stroke: #756a5d; stroke-width: 0.8"/>
      </defs>
      <g>
       <use xlink:href="#m468d314128" x="61.9975" y="412.164808" style="fill: #756a5d; stroke: #756a5d; stroke-width: 0.8"/>
      </g>
     </g>
     <g id="text_8">
      <text style="font-size: 11px; font-family: 'DejaVu Serif'; text-anchor: end; fill: #756a5d" x="54.9975" y="416.343949" transform="rotate(-0 54.9975 416.343949)">−0.3</text>
     </g>
    </g>
    <g id="ytick_2">
     <g id="line2d_15">
      <path d="M 61.9975 356.288935 
L 896.4875 356.288935 
" clip-path="url(#p34a1ffa354)" style="fill: none; stroke: #d9cbb6; stroke-opacity: 0.45; stroke-width: 0.8; stroke-linecap: square"/>
     </g>
     <g id="line2d_16">
      <g>
       <use xlink:href="#m468d314128" x="61.9975" y="356.288935" style="fill: #756a5d; stroke: #756a5d; stroke-width: 0.8"/>
      </g>
     </g>
     <g id="text_9">
      <text style="font-size: 11px; font-family: 'DejaVu Serif'; text-anchor: end; fill: #756a5d" x="54.9975" y="360.468075" transform="rotate(-0 54.9975 360.468075)">−0.2</text>
     </g>
    </g>
    <g id="ytick_3">
     <g id="line2d_17">
      <path d="M 61.9975 300.413061 
L 896.4875 300.413061 
" clip-path="url(#p34a1ffa354)" style="fill: none; stroke: #d9cbb6; stroke-opacity: 0.45; stroke-width: 0.8; stroke-linecap: square"/>
     </g>
     <g id="line2d_18">
      <g>
       <use xlink:href="#m468d314128" x="61.9975" y="300.413061" style="fill: #756a5d; stroke: #756a5d; stroke-width: 0.8"/>
      </g>
     </g>
     <g id="text_10">
      <text style="font-size: 11px; font-family: 'DejaVu Serif'; text-anchor: end; fill: #756a5d" x="54.9975" y="304.592202" transform="rotate(-0 54.9975 304.592202)">−0.1</text>
     </g>
    </g>
    <g id="ytick_4">
     <g id="line2d_19">
      <path d="M 61.9975 244.537187 
L 896.4875 244.537187 
" clip-path="url(#p34a1ffa354)" style="fill: none; stroke: #d9cbb6; stroke-opacity: 0.45; stroke-width: 0.8; stroke-linecap: square"/>
     </g>
     <g id="line2d_20">
      <g>
       <use xlink:href="#m468d314128" x="61.9975" y="244.537187" style="fill: #756a5d; stroke: #756a5d; stroke-width: 0.8"/>
      </g>
     </g>
     <g id="text_11">
      <text style="font-size: 11px; font-family: 'DejaVu Serif'; text-anchor: end; fill: #756a5d" x="54.9975" y="248.716328" transform="rotate(-0 54.9975 248.716328)">0.0</text>
     </g>
    </g>
    <g id="ytick_5">
     <g id="line2d_21">
      <path d="M 61.9975 188.661314 
L 896.4875 188.661314 
" clip-path="url(#p34a1ffa354)" style="fill: none; stroke: #d9cbb6; stroke-opacity: 0.45; stroke-width: 0.8; stroke-linecap: square"/>
     </g>
     <g id="line2d_22">
      <g>
       <use xlink:href="#m468d314128" x="61.9975" y="188.661314" style="fill: #756a5d; stroke: #756a5d; stroke-width: 0.8"/>
      </g>
     </g>
     <g id="text_12">
      <text style="font-size: 11px; font-family: 'DejaVu Serif'; text-anchor: end; fill: #756a5d" x="54.9975" y="192.840455" transform="rotate(-0 54.9975 192.840455)">0.1</text>
     </g>
    </g>
    <g id="ytick_6">
     <g id="line2d_23">
      <path d="M 61.9975 132.78544 
L 896.4875 132.78544 
" clip-path="url(#p34a1ffa354)" style="fill: none; stroke: #d9cbb6; stroke-opacity: 0.45; stroke-width: 0.8; stroke-linecap: square"/>
     </g>
     <g id="line2d_24">
      <g>
       <use xlink:href="#m468d314128" x="61.9975" y="132.78544" style="fill: #756a5d; stroke: #756a5d; stroke-width: 0.8"/>
      </g>
     </g>
     <g id="text_13">
      <text style="font-size: 11px; font-family: 'DejaVu Serif'; text-anchor: end; fill: #756a5d" x="54.9975" y="136.964581" transform="rotate(-0 54.9975 136.964581)">0.2</text>
     </g>
    </g>
    <g id="ytick_7">
     <g id="line2d_25">
      <path d="M 61.9975 76.909567 
L 896.4875 76.909567 
" clip-path="url(#p34a1ffa354)" style="fill: none; stroke: #d9cbb6; stroke-opacity: 0.45; stroke-width: 0.8; stroke-linecap: square"/>
     </g>
     <g id="line2d_26">
      <g>
       <use xlink:href="#m468d314128" x="61.9975" y="76.909567" style="fill: #756a5d; stroke: #756a5d; stroke-width: 0.8"/>
      </g>
     </g>
     <g id="text_14">
      <text style="font-size: 11px; font-family: 'DejaVu Serif'; text-anchor: end; fill: #756a5d" x="54.9975" y="81.088708" transform="rotate(-0 54.9975 81.088708)">0.3</text>
     </g>
    </g>
    <g id="text_15">
     <text style="font-size: 13px; font-family: 'DejaVu Serif'; text-anchor: middle; fill: #1f1b16" x="21.397969" y="244.537187" transform="rotate(-90 21.397969 244.537187)">Stellar radial velocity (m/s)</text>
    </g>
   </g>
   <g id="line2d_27">
    <path d="M 61.9975 244.537187 
L 85.210017 277.629587 
L 97.976902 295.464198 
L 108.422535 309.713699 
L 117.707542 322.044326 
L 126.992549 333.996296 
L 135.11693 344.097698 
L 143.241311 353.826666 
L 150.205066 361.841726 
L 157.168821 369.534367 
L 164.132576 376.883447 
L 171.096332 383.868765 
L 176.899461 389.398107 
L 182.70259 394.650931 
L 188.50572 399.61721 
L 194.308849 404.287463 
L 200.111978 408.652777 
L 205.915108 412.704817 
L 211.718237 416.43585 
L 216.360741 419.184744 
L 221.003244 421.720265 
L 225.645748 424.039314 
L 230.288251 426.139059 
L 234.930755 428.016935 
L 239.573258 429.670646 
L 244.215761 431.098173 
L 248.858265 432.297771 
L 253.500768 433.267976 
L 258.143272 434.007601 
L 262.785775 434.515743 
L 267.428279 434.791781 
L 272.070782 434.835379 
L 276.713286 434.646481 
L 281.355789 434.225321 
L 285.998293 433.572411 
L 290.640796 432.68855 
L 295.2833 431.574818 
L 299.925803 430.232574 
L 304.568307 428.66346 
L 309.21081 426.869392 
L 313.853314 424.852562 
L 318.495817 422.615434 
L 323.138321 420.160741 
L 327.780824 417.491482 
L 332.423328 414.610919 
L 338.226457 410.718454 
L 344.029586 406.508772 
L 349.832716 401.98991 
L 355.635845 397.170494 
L 361.438974 392.059723 
L 367.242104 386.667353 
L 373.045233 381.003678 
L 380.008988 373.8644 
L 386.972743 366.36966 
L 393.936499 358.540055 
L 400.900254 350.397107 
L 409.024635 340.530874 
L 417.149016 330.305549 
L 426.434023 318.228884 
L 435.71903 305.792201 
L 446.164663 291.44631 
L 458.931547 273.527671 
L 477.501561 247.031727 
L 503.03533 210.626238 
L 515.802215 192.809455 
L 526.247848 178.58005 
L 535.532855 166.271342 
L 544.817862 154.344997 
L 552.942243 144.26896 
L 561.066624 134.568005 
L 568.030379 126.578984 
L 574.994134 118.914177 
L 581.957889 111.594653 
L 588.921645 104.640529 
L 594.724774 99.138372 
L 600.527903 93.913761 
L 606.331033 88.976667 
L 612.134162 84.336516 
L 617.937291 80.002165 
L 623.740421 75.981887 
L 629.54355 72.283357 
L 634.186054 69.560956 
L 638.828557 67.05233 
L 643.471061 64.760544 
L 648.113564 62.688398 
L 652.756067 60.838423 
L 657.398571 59.21288 
L 662.041074 57.813755 
L 666.683578 56.642756 
L 671.326081 55.701315 
L 675.968585 54.990582 
L 680.611088 54.511424 
L 685.253592 54.264429 
L 689.896095 54.249896 
L 694.538599 54.467845 
L 699.181102 54.918008 
L 703.823606 55.599836 
L 708.466109 56.512496 
L 713.108613 57.654872 
L 717.751116 59.02557 
L 722.39362 60.622914 
L 727.036123 62.444952 
L 731.678627 64.48946 
L 736.32113 66.753939 
L 740.963634 69.235622 
L 745.606137 71.931477 
L 750.24864 74.838211 
L 756.05177 78.762743 
L 761.854899 83.003714 
L 767.658029 87.553029 
L 773.461158 92.402003 
L 779.264287 97.541382 
L 785.067417 102.961355 
L 790.870546 108.651575 
L 797.834301 115.821237 
L 804.798056 123.344683 
L 811.761812 131.201234 
L 818.725567 139.369295 
L 826.849948 149.262418 
L 834.974329 159.511944 
L 844.259336 171.612858 
L 853.544343 184.070042 
L 863.989976 198.43439 
L 876.75686 216.368811 
L 896.4875 244.537187 
L 896.4875 244.537187 
" clip-path="url(#p34a1ffa354)" style="fill: none; stroke: #a3583c; stroke-width: 2.6; stroke-linecap: square"/>
   </g>
   <g id="line2d_28">
    <path d="M 61.9975 244.537187 
L 896.4875 244.537187 
" clip-path="url(#p34a1ffa354)" style="fill: none; stroke-dasharray: 5.365,2.32; stroke-dashoffset: 0; stroke: #9b9184; stroke-opacity: 0.65; stroke-width: 1.45"/>
   </g>
   <g id="patch_3">
    <path d="M 61.9975 453.877187 
L 61.9975 35.197188 
" style="fill: none; stroke: #b9a98f; stroke-width: 0.8; stroke-linejoin: miter; stroke-linecap: square"/>
   </g>
   <g id="patch_4">
    <path d="M 896.4875 453.877187 
L 896.4875 35.197188 
" style="fill: none; stroke: #b9a98f; stroke-width: 0.8; stroke-linejoin: miter; stroke-linecap: square"/>
   </g>
   <g id="patch_5">
    <path d="M 61.9975 453.877187 
L 896.4875 453.877187 
" style="fill: none; stroke: #b9a98f; stroke-width: 0.8; stroke-linejoin: miter; stroke-linecap: square"/>
   </g>
   <g id="patch_6">
    <path d="M 61.9975 35.197187 
L 896.4875 35.197187 
" style="fill: none; stroke: #b9a98f; stroke-width: 0.8; stroke-linejoin: miter; stroke-linecap: square"/>
   </g>
   <g id="text_16">
    <g id="patch_7">
     <path d="M 74.51485 72.760563 
L 370.73735 72.760563 
Q 373.81735 72.760563 373.81735 69.680563 
L 373.81735 56.131188 
Q 373.81735 53.051188 370.73735 53.051188 
L 74.51485 53.051188 
Q 71.43485 53.051188 71.43485 56.131188 
L 71.43485 69.680563 
Q 71.43485 72.760563 74.51485 72.760563 
z
" style="fill: #fffaf0; opacity: 0.88"/>
    </g>
    <text style="font-size: 14px; font-family: 'DejaVu Serif'; text-anchor: start; fill: #756a5d" x="74.51485" y="66.769" transform="rotate(-0 74.51485 66.769)">K ≈ 0.341 m s^-1 · P ≈ 18.77 d · e = 0.00</text>
   </g>
   <g id="text_17">
    <text style="font-size: 10.5px; font-family: 'DejaVu Serif'; text-anchor: end; fill: #756a5d" x="888.1426" y="443.170619" transform="rotate(-0 888.1426 443.170619)">single-planet Keplerian model</text>
   </g>
   <g id="text_18">
    <text style="font-weight: 700; font-size: 18px; font-family: 'DejaVu Serif'; text-anchor: start; fill: #1f1b16" x="61.9975" y="25.197187" transform="rotate(-0 61.9975 25.197187)">Keplerian RV model — TRAPPIST-1 h</text>
   </g>
  </g>
 </g>
 <defs>
  <clipPath id="p34a1ffa354">
   <rect x="61.9975" y="35.197187" width="834.49" height="418.68"/>
  </clipPath>
 </defs>
</svg>
