<?xml version="1.0" encoding="utf-8" standalone="no"?>
<!DOCTYPE svg PUBLIC "-//W3C//DTD SVG 1.1//EN"
  "http://www.w3.org/Graphics/SVG/1.1/DTD/svg11.dtd">
<svg xmlns:xlink="http://www.w3.org/1999/xlink" width="916.754219pt" height="499.624687pt" viewBox="0 0 916.754219 499.624687" xmlns="http://www.w3.org/2000/svg" version="1.1">
 <metadata>
  <rdf:RDF xmlns:dc="http://purl.org/dc/elements/1.1/" xmlns:cc="http://creativecommons.org/ns#" xmlns:rdf="http://www.w3.org/1999/02/22-rdf-syntax-ns#">
   <cc:Work>
    <dc:type rdf:resource="http://purl.org/dc/dcmitype/StillImage"/>
    <dc:date>2026-05-11T11:57:50.433167</dc:date>
    <dc:format>image/svg+xml</dc:format>
    <dc:creator>
     <cc:Agent>
      <dc:title>Matplotlib v3.10.9, https://matplotlib.org/</dc:title>
     </cc:Agent>
    </dc:creator>
   </cc:Work>
  </rdf:RDF>
 </metadata>
 <defs>
  <style type="text/css">*{stroke-linejoin: round; stroke-linecap: butt}</style>
 </defs>
 <g id="figure_1">
  <g id="patch_1">
   <path d="M 0 499.624687 
L 916.754219 499.624687 
L 916.754219 0 
L 0 0 
z
" style="fill: #fffaf0"/>
  </g>
  <g id="axes_1">
   <g id="patch_2">
    <path d="M 61.9975 453.877187 
L 896.4875 453.877187 
L 896.4875 35.197187 
L 61.9975 35.197187 
z
" style="fill: #fffaf0"/>
   </g>
   <g id="FillBetweenPolyCollection_1">
    <defs>
     <path id="m28c364680b" d="M 61.9975 -255.0875 
L 61.9975 -255.0875 
L 63.158126 -253.284416 
L 64.318752 -251.481506 
L 65.479378 -249.678944 
L 66.640003 -247.876906 
L 67.800629 -246.075564 
L 68.961255 -244.275093 
L 70.121881 -242.475668 
L 71.282507 -240.677461 
L 72.443133 -238.880646 
L 73.603759 -237.085396 
L 74.764385 -235.291885 
L 75.92501 -233.500285 
L 77.085636 -231.71077 
L 78.246262 -229.92351 
L 79.406888 -228.138678 
L 80.567514 -226.356446 
L 81.72814 -224.576984 
L 82.888766 -222.800463 
L 84.049392 -221.027053 
L 85.210017 -219.256925 
L 86.370643 -217.490246 
L 87.531269 -215.727186 
L 88.691895 -213.967912 
L 89.852521 -212.212593 
L 91.013147 -210.461395 
L 92.173773 -208.714485 
L 93.334398 -206.972027 
L 94.495024 -205.234187 
L 95.65565 -203.50113 
L 96.816276 -201.773017 
L 97.976902 -200.050013 
L 99.137528 -198.33228 
L 100.298154 -196.619977 
L 101.45878 -194.913266 
L 102.619405 -193.212306 
L 103.780031 -191.517256 
L 104.940657 -189.828273 
L 106.101283 -188.145514 
L 107.261909 -186.469135 
L 108.422535 -184.79929 
L 109.583161 -183.136134 
L 110.743787 -181.47982 
L 111.904412 -179.830498 
L 113.065038 -178.188321 
L 114.225664 -176.553438 
L 115.38629 -174.925997 
L 116.546916 -173.306146 
L 117.707542 -171.694032 
L 118.868168 -170.0898 
L 120.028793 -168.493593 
L 121.189419 -166.905555 
L 122.350045 -165.325828 
L 123.510671 -163.754553 
L 124.671297 -162.191867 
L 125.831923 -160.637911 
L 126.992549 -159.092819 
L 128.153175 -157.556729 
L 129.3138 -156.029774 
L 130.474426 -154.512087 
L 131.635052 -153.0038 
L 132.795678 -151.505042 
L 133.956304 -150.015944 
L 135.11693 -148.536632 
L 136.277556 -147.067233 
L 137.438182 -145.607871 
L 138.598807 -144.158669 
L 139.759433 -142.719751 
L 140.920059 -141.291236 
L 142.080685 -139.873243 
L 143.241311 -138.46589 
L 144.401937 -137.069293 
L 145.562563 -135.683567 
L 146.723188 -134.308825 
L 147.883814 -132.945178 
L 149.04444 -131.592738 
L 150.205066 -130.251612 
L 151.365692 -128.921908 
L 152.526318 -127.603731 
L 153.686944 -126.297185 
L 154.84757 -125.002374 
L 156.008195 -123.719398 
L 157.168821 -122.448356 
L 158.329447 -121.189347 
L 159.490073 -119.942467 
L 160.650699 -118.70781 
L 161.811325 -117.485469 
L 162.971951 -116.275537 
L 164.132576 -115.078103 
L 165.293202 -113.893255 
L 166.453828 -112.721081 
L 167.614454 -111.561666 
L 168.77508 -110.415092 
L 169.935706 -109.281443 
L 171.096332 -108.160798 
L 172.256958 -107.053236 
L 173.417583 -105.958835 
L 174.578209 -104.87767 
L 175.738835 -103.809814 
L 176.899461 -102.75534 
L 178.060087 -101.71432 
L 179.220713 -100.686821 
L 180.381339 -99.672911 
L 181.541965 -98.672656 
L 182.70259 -97.686121 
L 183.863216 -96.713368 
L 185.023842 -95.754457 
L 186.184468 -94.809449 
L 187.345094 -93.878401 
L 188.50572 -92.961369 
L 189.666346 -92.058408 
L 190.826971 -91.16957 
L 191.987597 -90.294908 
L 193.148223 -89.43447 
L 194.308849 -88.588305 
L 195.469475 -87.75646 
L 196.630101 -86.93898 
L 197.790727 -86.135908 
L 198.951353 -85.347285 
L 200.111978 -84.573153 
L 201.272604 -83.81355 
L 202.43323 -83.068513 
L 203.593856 -82.338078 
L 204.754482 -81.622278 
L 205.915108 -80.921147 
L 207.075734 -80.234716 
L 208.23636 -79.563013 
L 209.396985 -78.906067 
L 210.557611 -78.263905 
L 211.718237 -77.636551 
L 212.878863 -77.024029 
L 214.039489 -76.426361 
L 215.200115 -75.843567 
L 216.360741 -75.275666 
L 217.521366 -74.722677 
L 218.681992 -74.184614 
L 219.842618 -73.661494 
L 221.003244 -73.153328 
L 222.16387 -72.660129 
L 223.324496 -72.181907 
L 224.485122 -71.718672 
L 225.645748 -71.27043 
L 226.806373 -70.837188 
L 227.966999 -70.418951 
L 229.127625 -70.015723 
L 230.288251 -69.627504 
L 231.448877 -69.254297 
L 232.609503 -68.8961 
L 233.770129 -68.552911 
L 234.930755 -68.224728 
L 236.09138 -67.911545 
L 237.252006 -67.613357 
L 238.412632 -67.330156 
L 239.573258 -67.061935 
L 240.733884 -66.808683 
L 241.89451 -66.57039 
L 243.055136 -66.347043 
L 244.215761 -66.138629 
L 245.376387 -65.945133 
L 246.537013 -65.766539 
L 247.697639 -65.602831 
L 248.858265 -65.453989 
L 250.018891 -65.319995 
L 251.179517 -65.200828 
L 252.340143 -65.096466 
L 253.500768 -65.006886 
L 254.661394 -64.932064 
L 255.82202 -64.871976 
L 256.982646 -64.826594 
L 258.143272 -64.795891 
L 259.303898 -64.779839 
L 260.464524 -64.778409 
L 261.62515 -64.79157 
L 262.785775 -64.819289 
L 263.946401 -64.861535 
L 265.107027 -64.918274 
L 266.267653 -64.98947 
L 267.428279 -65.075089 
L 268.588905 -65.175094 
L 269.749531 -65.289446 
L 270.910156 -65.418107 
L 272.070782 -65.561038 
L 273.231408 -65.718198 
L 274.392034 -65.889545 
L 275.55266 -66.075037 
L 276.713286 -66.27463 
L 277.873912 -66.488281 
L 279.034538 -66.715944 
L 280.195163 -66.957573 
L 281.355789 -67.213122 
L 282.516415 -67.482542 
L 283.677041 -67.765784 
L 284.837667 -68.062801 
L 285.998293 -68.37354 
L 287.158919 -68.697952 
L 288.319545 -69.035984 
L 289.48017 -69.387584 
L 290.640796 -69.752698 
L 291.801422 -70.131272 
L 292.962048 -70.523251 
L 294.122674 -70.928579 
L 295.2833 -71.347201 
L 296.443926 -71.779058 
L 297.604551 -72.224093 
L 298.765177 -72.682248 
L 299.925803 -73.153463 
L 301.086429 -73.637679 
L 302.247055 -74.134834 
L 303.407681 -74.644867 
L 304.568307 -75.167717 
L 305.728933 -75.70332 
L 306.889558 -76.251615 
L 308.050184 -76.812536 
L 309.21081 -77.38602 
L 310.371436 -77.972001 
L 311.532062 -78.570414 
L 312.692688 -79.181193 
L 313.853314 -79.804271 
L 315.013939 -80.43958 
L 316.174565 -81.087053 
L 317.335191 -81.746621 
L 318.495817 -82.418216 
L 319.656443 -83.101768 
L 320.817069 -83.797206 
L 321.977695 -84.504461 
L 323.138321 -85.223461 
L 324.298946 -85.954135 
L 325.459572 -86.69641 
L 326.620198 -87.450216 
L 327.780824 -88.215477 
L 328.94145 -88.992122 
L 330.102076 -89.780077 
L 331.262702 -90.579266 
L 332.423328 -91.389616 
L 333.583953 -92.211051 
L 334.744579 -93.043495 
L 335.905205 -93.886874 
L 337.065831 -94.74111 
L 338.226457 -95.606127 
L 339.387083 -96.481848 
L 340.547709 -97.368195 
L 341.708334 -98.26509 
L 342.86896 -99.172455 
L 344.029586 -100.090212 
L 345.190212 -101.018282 
L 346.350838 -101.956585 
L 347.511464 -102.905042 
L 348.67209 -103.863573 
L 349.832716 -104.832097 
L 350.993341 -105.810535 
L 352.153967 -106.798805 
L 353.314593 -107.796826 
L 354.475219 -108.804517 
L 355.635845 -109.821796 
L 356.796471 -110.84858 
L 357.957097 -111.884788 
L 359.117723 -112.930338 
L 360.278348 -113.985145 
L 361.438974 -115.049128 
L 362.5996 -116.122203 
L 363.760226 -117.204286 
L 364.920852 -118.295293 
L 366.081478 -119.39514 
L 367.242104 -120.503744 
L 368.402729 -121.621019 
L 369.563355 -122.746881 
L 370.723981 -123.881245 
L 371.884607 -125.024026 
L 373.045233 -126.175138 
L 374.205859 -127.334496 
L 375.366485 -128.502013 
L 376.527111 -129.677605 
L 377.687736 -130.861185 
L 378.848362 -132.052667 
L 380.008988 -133.251963 
L 381.169614 -134.458988 
L 382.33024 -135.673655 
L 383.490866 -136.895877 
L 384.651492 -138.125566 
L 385.812118 -139.362635 
L 386.972743 -140.606997 
L 388.133369 -141.858564 
L 389.293995 -143.117248 
L 390.454621 -144.382962 
L 391.615247 -145.655618 
L 392.775873 -146.935127 
L 393.936499 -148.2214 
L 395.097124 -149.514351 
L 396.25775 -150.81389 
L 397.418376 -152.119928 
L 398.579002 -153.432376 
L 399.739628 -154.751147 
L 400.900254 -156.07615 
L 402.06088 -157.407298 
L 403.221506 -158.744499 
L 404.382131 -160.087666 
L 405.542757 -161.436709 
L 406.703383 -162.791538 
L 407.864009 -164.152064 
L 409.024635 -165.518196 
L 410.185261 -166.889847 
L 411.345887 -168.266924 
L 412.506513 -169.64934 
L 413.667138 -171.037003 
L 414.827764 -172.429823 
L 415.98839 -173.827711 
L 417.149016 -175.230576 
L 418.309642 -176.638328 
L 419.470268 -178.050876 
L 420.630894 -179.46813 
L 421.791519 -180.89 
L 422.952145 -182.316395 
L 424.112771 -183.747225 
L 425.273397 -185.182398 
L 426.434023 -186.621824 
L 427.594649 -188.065413 
L 428.755275 -189.513073 
L 429.915901 -190.964714 
L 431.076526 -192.420244 
L 432.237152 -193.879574 
L 433.397778 -195.342611 
L 434.558404 -196.809264 
L 435.71903 -198.279443 
L 436.879656 -199.753057 
L 438.040282 -201.230014 
L 439.200908 -202.710223 
L 440.361533 -204.193593 
L 441.522159 -205.680032 
L 442.682785 -207.16945 
L 443.843411 -208.661755 
L 445.004037 -210.156855 
L 446.164663 -211.654659 
L 447.325289 -213.155076 
L 448.485914 -214.658014 
L 449.64654 -216.163383 
L 450.807166 -217.671089 
L 451.967792 -219.181042 
L 453.128418 -220.693151 
L 454.289044 -222.207323 
L 455.44967 -223.723467 
L 456.610296 -225.241492 
L 457.770921 -226.761305 
L 458.931547 -228.282816 
L 460.092173 -229.805932 
L 461.252799 -231.330562 
L 462.413425 -232.856615 
L 463.574051 -234.383998 
L 464.734677 -235.912619 
L 465.895303 -237.442388 
L 467.055928 -238.973212 
L 468.216554 -240.505 
L 469.37718 -242.037659 
L 470.537806 -243.571099 
L 471.698432 -245.105227 
L 472.859058 -246.639952 
L 474.019684 -248.175181 
L 475.180309 -249.710824 
L 476.340935 -251.246788 
L 477.501561 -252.782981 
L 478.662187 -254.319312 
L 479.822813 -255.855688 
L 480.983439 -257.392019 
L 482.144065 -258.928212 
L 483.304691 -260.464176 
L 484.465316 -261.999819 
L 485.625942 -263.535048 
L 486.786568 -265.069773 
L 487.947194 -266.603901 
L 489.10782 -268.137341 
L 490.268446 -269.67 
L 491.429072 -271.201788 
L 492.589697 -272.732612 
L 493.750323 -274.262381 
L 494.910949 -275.791002 
L 496.071575 -277.318385 
L 497.232201 -278.844438 
L 498.392827 -280.369068 
L 499.553453 -281.892184 
L 500.714079 -283.413695 
L 501.874704 -284.933508 
L 503.03533 -286.451533 
L 504.195956 -287.967677 
L 505.356582 -289.481849 
L 506.517208 -290.993958 
L 507.677834 -292.503911 
L 508.83846 -294.011617 
L 509.999086 -295.516986 
L 511.159711 -297.019924 
L 512.320337 -298.520341 
L 513.480963 -300.018145 
L 514.641589 -301.513245 
L 515.802215 -303.00555 
L 516.962841 -304.494968 
L 518.123467 -305.981407 
L 519.284092 -307.464777 
L 520.444718 -308.944986 
L 521.605344 -310.421943 
L 522.76597 -311.895557 
L 523.926596 -313.365736 
L 525.087222 -314.832389 
L 526.247848 -316.295426 
L 527.408474 -317.754756 
L 528.569099 -319.210286 
L 529.729725 -320.661927 
L 530.890351 -322.109587 
L 532.050977 -323.553176 
L 533.211603 -324.992602 
L 534.372229 -326.427775 
L 535.532855 -327.858605 
L 536.693481 -329.285 
L 537.854106 -330.70687 
L 539.014732 -332.124124 
L 540.175358 -333.536672 
L 541.335984 -334.944424 
L 542.49661 -336.347289 
L 543.657236 -337.745177 
L 544.817862 -339.137997 
L 545.978487 -340.52566 
L 547.139113 -341.908076 
L 548.299739 -343.285153 
L 549.460365 -344.656804 
L 550.620991 -346.022936 
L 551.781617 -347.383462 
L 552.942243 -348.738291 
L 554.102869 -350.087334 
L 555.263494 -351.430501 
L 556.42412 -352.767702 
L 557.584746 -354.09885 
L 558.745372 -355.423853 
L 559.905998 -356.742624 
L 561.066624 -358.055072 
L 562.22725 -359.36111 
L 563.387876 -360.660649 
L 564.548501 -361.9536 
L 565.709127 -363.239873 
L 566.869753 -364.519382 
L 568.030379 -365.792038 
L 569.191005 -367.057752 
L 570.351631 -368.316436 
L 571.512257 -369.568003 
L 572.672882 -370.812365 
L 573.833508 -372.049434 
L 574.994134 -373.279123 
L 576.15476 -374.501345 
L 577.315386 -375.716012 
L 578.476012 -376.923037 
L 579.636638 -378.122333 
L 580.797264 -379.313815 
L 581.957889 -380.497395 
L 583.118515 -381.672987 
L 584.279141 -382.840504 
L 585.439767 -383.999862 
L 586.600393 -385.150974 
L 587.761019 -386.293755 
L 588.921645 -387.428119 
L 590.082271 -388.553981 
L 591.242896 -389.671256 
L 592.403522 -390.77986 
L 593.564148 -391.879707 
L 594.724774 -392.970714 
L 595.8854 -394.052797 
L 597.046026 -395.125872 
L 598.206652 -396.189855 
L 599.367277 -397.244662 
L 600.527903 -398.290212 
L 601.688529 -399.32642 
L 602.849155 -400.353204 
L 604.009781 -401.370483 
L 605.170407 -402.378174 
L 606.331033 -403.376195 
L 607.491659 -404.364465 
L 608.652284 -405.342903 
L 609.81291 -406.311427 
L 610.973536 -407.269958 
L 612.134162 -408.218415 
L 613.294788 -409.156718 
L 614.455414 -410.084788 
L 615.61604 -411.002545 
L 616.776666 -411.90991 
L 617.937291 -412.806805 
L 619.097917 -413.693152 
L 620.258543 -414.568873 
L 621.419169 -415.43389 
L 622.579795 -416.288126 
L 623.740421 -417.131505 
L 624.901047 -417.963949 
L 626.061672 -418.785384 
L 627.222298 -419.595734 
L 628.382924 -420.394923 
L 629.54355 -421.182878 
L 630.704176 -421.959523 
L 631.864802 -422.724784 
L 633.025428 -423.47859 
L 634.186054 -424.220865 
L 635.346679 -424.951539 
L 636.507305 -425.670539 
L 637.667931 -426.377794 
L 638.828557 -427.073232 
L 639.989183 -427.756784 
L 641.149809 -428.428379 
L 642.310435 -429.087947 
L 643.471061 -429.73542 
L 644.631686 -430.370729 
L 645.792312 -430.993807 
L 646.952938 -431.604586 
L 648.113564 -432.202999 
L 649.27419 -432.78898 
L 650.434816 -433.362464 
L 651.595442 -433.923385 
L 652.756067 -434.47168 
L 653.916693 -435.007283 
L 655.077319 -435.530133 
L 656.237945 -436.040166 
L 657.398571 -436.537321 
L 658.559197 -437.021537 
L 659.719823 -437.492752 
L 660.880449 -437.950907 
L 662.041074 -438.395942 
L 663.2017 -438.827799 
L 664.362326 -439.246421 
L 665.522952 -439.651749 
L 666.683578 -440.043728 
L 667.844204 -440.422302 
L 669.00483 -440.787416 
L 670.165455 -441.139016 
L 671.326081 -441.477048 
L 672.486707 -441.80146 
L 673.647333 -442.112199 
L 674.807959 -442.409216 
L 675.968585 -442.692458 
L 677.129211 -442.961878 
L 678.289837 -443.217427 
L 679.450462 -443.459056 
L 680.611088 -443.686719 
L 681.771714 -443.90037 
L 682.93234 -444.099963 
L 684.092966 -444.285455 
L 685.253592 -444.456802 
L 686.414218 -444.613962 
L 687.574844 -444.756893 
L 688.735469 -444.885554 
L 689.896095 -444.999906 
L 691.056721 -445.099911 
L 692.217347 -445.18553 
L 693.377973 -445.256726 
L 694.538599 -445.313465 
L 695.699225 -445.355711 
L 696.85985 -445.38343 
L 698.020476 -445.396591 
L 699.181102 -445.395161 
L 700.341728 -445.379109 
L 701.502354 -445.348406 
L 702.66298 -445.303024 
L 703.823606 -445.242936 
L 704.984232 -445.168114 
L 706.144857 -445.078534 
L 707.305483 -444.974172 
L 708.466109 -444.855005 
L 709.626735 -444.721011 
L 710.787361 -444.572169 
L 711.947987 -444.408461 
L 713.108613 -444.229867 
L 714.269239 -444.036371 
L 715.429864 -443.827957 
L 716.59049 -443.60461 
L 717.751116 -443.366317 
L 718.911742 -443.113065 
L 720.072368 -442.844844 
L 721.232994 -442.561643 
L 722.39362 -442.263455 
L 723.554245 -441.950272 
L 724.714871 -441.622089 
L 725.875497 -441.2789 
L 727.036123 -440.920703 
L 728.196749 -440.547496 
L 729.357375 -440.159277 
L 730.518001 -439.756049 
L 731.678627 -439.337812 
L 732.839252 -438.90457 
L 733.999878 -438.456328 
L 735.160504 -437.993093 
L 736.32113 -437.514871 
L 737.481756 -437.021672 
L 738.642382 -436.513506 
L 739.803008 -435.990386 
L 740.963634 -435.452323 
L 742.124259 -434.899334 
L 743.284885 -434.331433 
L 744.445511 -433.748639 
L 745.606137 -433.150971 
L 746.766763 -432.538449 
L 747.927389 -431.911095 
L 749.088015 -431.268933 
L 750.24864 -430.611987 
L 751.409266 -429.940284 
L 752.569892 -429.253853 
L 753.730518 -428.552722 
L 754.891144 -427.836922 
L 756.05177 -427.106487 
L 757.212396 -426.36145 
L 758.373022 -425.601847 
L 759.533647 -424.827715 
L 760.694273 -424.039092 
L 761.854899 -423.23602 
L 763.015525 -422.41854 
L 764.176151 -421.586695 
L 765.336777 -420.74053 
L 766.497403 -419.880092 
L 767.658029 -419.00543 
L 768.818654 -418.116592 
L 769.97928 -417.213631 
L 771.139906 -416.296599 
L 772.300532 -415.365551 
L 773.461158 -414.420543 
L 774.621784 -413.461632 
L 775.78241 -412.488879 
L 776.943035 -411.502344 
L 778.103661 -410.502089 
L 779.264287 -409.488179 
L 780.424913 -408.46068 
L 781.585539 -407.41966 
L 782.746165 -406.365186 
L 783.906791 -405.29733 
L 785.067417 -404.216165 
L 786.228042 -403.121764 
L 787.388668 -402.014202 
L 788.549294 -400.893557 
L 789.70992 -399.759908 
L 790.870546 -398.613334 
L 792.031172 -397.453919 
L 793.191798 -396.281745 
L 794.352424 -395.096897 
L 795.513049 -393.899463 
L 796.673675 -392.689531 
L 797.834301 -391.46719 
L 798.994927 -390.232533 
L 800.155553 -388.985653 
L 801.316179 -387.726644 
L 802.476805 -386.455602 
L 803.63743 -385.172626 
L 804.798056 -383.877815 
L 805.958682 -382.571269 
L 807.119308 -381.253092 
L 808.279934 -379.923388 
L 809.44056 -378.582262 
L 810.601186 -377.229822 
L 811.761812 -375.866175 
L 812.922437 -374.491433 
L 814.083063 -373.105707 
L 815.243689 -371.70911 
L 816.404315 -370.301757 
L 817.564941 -368.883764 
L 818.725567 -367.455249 
L 819.886193 -366.016331 
L 821.046818 -364.567129 
L 822.207444 -363.107767 
L 823.36807 -361.638368 
L 824.528696 -360.159056 
L 825.689322 -358.669958 
L 826.849948 -357.1712 
L 828.010574 -355.662913 
L 829.1712 -354.145226 
L 830.331825 -352.618271 
L 831.492451 -351.082181 
L 832.653077 -349.537089 
L 833.813703 -347.983133 
L 834.974329 -346.420447 
L 836.134955 -344.849172 
L 837.295581 -343.269445 
L 838.456207 -341.681407 
L 839.616832 -340.0852 
L 840.777458 -338.480968 
L 841.938084 -336.868854 
L 843.09871 -335.249003 
L 844.259336 -333.621562 
L 845.419962 -331.986679 
L 846.580588 -330.344502 
L 847.741213 -328.69518 
L 848.901839 -327.038866 
L 850.062465 -325.37571 
L 851.223091 -323.705865 
L 852.383717 -322.029486 
L 853.544343 -320.346727 
L 854.704969 -318.657744 
L 855.865595 -316.962694 
L 857.02622 -315.261734 
L 858.186846 -313.555023 
L 859.347472 -311.84272 
L 860.508098 -310.124987 
L 861.668724 -308.401983 
L 862.82935 -306.67387 
L 863.989976 -304.940813 
L 865.150602 -303.202973 
L 866.311227 -301.460515 
L 867.471853 -299.713605 
L 868.632479 -297.962407 
L 869.793105 -296.207088 
L 870.953731 -294.447814 
L 872.114357 -292.684754 
L 873.274983 -290.918075 
L 874.435608 -289.147947 
L 875.596234 -287.374537 
L 876.75686 -285.598016 
L 877.917486 -283.818554 
L 879.078112 -282.036322 
L 880.238738 -280.25149 
L 881.399364 -278.46423 
L 882.55999 -276.674715 
L 883.720615 -274.883115 
L 884.881241 -273.089604 
L 886.041867 -271.294354 
L 887.202493 -269.497539 
L 888.363119 -267.699332 
L 889.523745 -265.899907 
L 890.684371 -264.099436 
L 891.844997 -262.298094 
L 893.005622 -260.496056 
L 894.166248 -258.693494 
L 895.326874 -256.890584 
L 896.4875 -255.0875 
L 896.4875 -255.0875 
L 896.4875 -255.0875 
L 895.326874 -255.0875 
L 894.166248 -255.0875 
L 893.005622 -255.0875 
L 891.844997 -255.0875 
L 890.684371 -255.0875 
L 889.523745 -255.0875 
L 888.363119 -255.0875 
L 887.202493 -255.0875 
L 886.041867 -255.0875 
L 884.881241 -255.0875 
L 883.720615 -255.0875 
L 882.55999 -255.0875 
L 881.399364 -255.0875 
L 880.238738 -255.0875 
L 879.078112 -255.0875 
L 877.917486 -255.0875 
L 876.75686 -255.0875 
L 875.596234 -255.0875 
L 874.435608 -255.0875 
L 873.274983 -255.0875 
L 872.114357 -255.0875 
L 870.953731 -255.0875 
L 869.793105 -255.0875 
L 868.632479 -255.0875 
L 867.471853 -255.0875 
L 866.311227 -255.0875 
L 865.150602 -255.0875 
L 863.989976 -255.0875 
L 862.82935 -255.0875 
L 861.668724 -255.0875 
L 860.508098 -255.0875 
L 859.347472 -255.0875 
L 858.186846 -255.0875 
L 857.02622 -255.0875 
L 855.865595 -255.0875 
L 854.704969 -255.0875 
L 853.544343 -255.0875 
L 852.383717 -255.0875 
L 851.223091 -255.0875 
L 850.062465 -255.0875 
L 848.901839 -255.0875 
L 847.741213 -255.0875 
L 846.580588 -255.0875 
L 845.419962 -255.0875 
L 844.259336 -255.0875 
L 843.09871 -255.0875 
L 841.938084 -255.0875 
L 840.777458 -255.0875 
L 839.616832 -255.0875 
L 838.456207 -255.0875 
L 837.295581 -255.0875 
L 836.134955 -255.0875 
L 834.974329 -255.0875 
L 833.813703 -255.0875 
L 832.653077 -255.0875 
L 831.492451 -255.0875 
L 830.331825 -255.0875 
L 829.1712 -255.0875 
L 828.010574 -255.0875 
L 826.849948 -255.0875 
L 825.689322 -255.0875 
L 824.528696 -255.0875 
L 823.36807 -255.0875 
L 822.207444 -255.0875 
L 821.046818 -255.0875 
L 819.886193 -255.0875 
L 818.725567 -255.0875 
L 817.564941 -255.0875 
L 816.404315 -255.0875 
L 815.243689 -255.0875 
L 814.083063 -255.0875 
L 812.922437 -255.0875 
L 811.761812 -255.0875 
L 810.601186 -255.0875 
L 809.44056 -255.0875 
L 808.279934 -255.0875 
L 807.119308 -255.0875 
L 805.958682 -255.0875 
L 804.798056 -255.0875 
L 803.63743 -255.0875 
L 802.476805 -255.0875 
L 801.316179 -255.0875 
L 800.155553 -255.0875 
L 798.994927 -255.0875 
L 797.834301 -255.0875 
L 796.673675 -255.0875 
L 795.513049 -255.0875 
L 794.352424 -255.0875 
L 793.191798 -255.0875 
L 792.031172 -255.0875 
L 790.870546 -255.0875 
L 789.70992 -255.0875 
L 788.549294 -255.0875 
L 787.388668 -255.0875 
L 786.228042 -255.0875 
L 785.067417 -255.0875 
L 783.906791 -255.0875 
L 782.746165 -255.0875 
L 781.585539 -255.0875 
L 780.424913 -255.0875 
L 779.264287 -255.0875 
L 778.103661 -255.0875 
L 776.943035 -255.0875 
L 775.78241 -255.0875 
L 774.621784 -255.0875 
L 773.461158 -255.0875 
L 772.300532 -255.0875 
L 771.139906 -255.0875 
L 769.97928 -255.0875 
L 768.818654 -255.0875 
L 767.658029 -255.0875 
L 766.497403 -255.0875 
L 765.336777 -255.0875 
L 764.176151 -255.0875 
L 763.015525 -255.0875 
L 761.854899 -255.0875 
L 760.694273 -255.0875 
L 759.533647 -255.0875 
L 758.373022 -255.0875 
L 757.212396 -255.0875 
L 756.05177 -255.0875 
L 754.891144 -255.0875 
L 753.730518 -255.0875 
L 752.569892 -255.0875 
L 751.409266 -255.0875 
L 750.24864 -255.0875 
L 749.088015 -255.0875 
L 747.927389 -255.0875 
L 746.766763 -255.0875 
L 745.606137 -255.0875 
L 744.445511 -255.0875 
L 743.284885 -255.0875 
L 742.124259 -255.0875 
L 740.963634 -255.0875 
L 739.803008 -255.0875 
L 738.642382 -255.0875 
L 737.481756 -255.0875 
L 736.32113 -255.0875 
L 735.160504 -255.0875 
L 733.999878 -255.0875 
L 732.839252 -255.0875 
L 731.678627 -255.0875 
L 730.518001 -255.0875 
L 729.357375 -255.0875 
L 728.196749 -255.0875 
L 727.036123 -255.0875 
L 725.875497 -255.0875 
L 724.714871 -255.0875 
L 723.554245 -255.0875 
L 722.39362 -255.0875 
L 721.232994 -255.0875 
L 720.072368 -255.0875 
L 718.911742 -255.0875 
L 717.751116 -255.0875 
L 716.59049 -255.0875 
L 715.429864 -255.0875 
L 714.269239 -255.0875 
L 713.108613 -255.0875 
L 711.947987 -255.0875 
L 710.787361 -255.0875 
L 709.626735 -255.0875 
L 708.466109 -255.0875 
L 707.305483 -255.0875 
L 706.144857 -255.0875 
L 704.984232 -255.0875 
L 703.823606 -255.0875 
L 702.66298 -255.0875 
L 701.502354 -255.0875 
L 700.341728 -255.0875 
L 699.181102 -255.0875 
L 698.020476 -255.0875 
L 696.85985 -255.0875 
L 695.699225 -255.0875 
L 694.538599 -255.0875 
L 693.377973 -255.0875 
L 692.217347 -255.0875 
L 691.056721 -255.0875 
L 689.896095 -255.0875 
L 688.735469 -255.0875 
L 687.574844 -255.0875 
L 686.414218 -255.0875 
L 685.253592 -255.0875 
L 684.092966 -255.0875 
L 682.93234 -255.0875 
L 681.771714 -255.0875 
L 680.611088 -255.0875 
L 679.450462 -255.0875 
L 678.289837 -255.0875 
L 677.129211 -255.0875 
L 675.968585 -255.0875 
L 674.807959 -255.0875 
L 673.647333 -255.0875 
L 672.486707 -255.0875 
L 671.326081 -255.0875 
L 670.165455 -255.0875 
L 669.00483 -255.0875 
L 667.844204 -255.0875 
L 666.683578 -255.0875 
L 665.522952 -255.0875 
L 664.362326 -255.0875 
L 663.2017 -255.0875 
L 662.041074 -255.0875 
L 660.880449 -255.0875 
L 659.719823 -255.0875 
L 658.559197 -255.0875 
L 657.398571 -255.0875 
L 656.237945 -255.0875 
L 655.077319 -255.0875 
L 653.916693 -255.0875 
L 652.756067 -255.0875 
L 651.595442 -255.0875 
L 650.434816 -255.0875 
L 649.27419 -255.0875 
L 648.113564 -255.0875 
L 646.952938 -255.0875 
L 645.792312 -255.0875 
L 644.631686 -255.0875 
L 643.471061 -255.0875 
L 642.310435 -255.0875 
L 641.149809 -255.0875 
L 639.989183 -255.0875 
L 638.828557 -255.0875 
L 637.667931 -255.0875 
L 636.507305 -255.0875 
L 635.346679 -255.0875 
L 634.186054 -255.0875 
L 633.025428 -255.0875 
L 631.864802 -255.0875 
L 630.704176 -255.0875 
L 629.54355 -255.0875 
L 628.382924 -255.0875 
L 627.222298 -255.0875 
L 626.061672 -255.0875 
L 624.901047 -255.0875 
L 623.740421 -255.0875 
L 622.579795 -255.0875 
L 621.419169 -255.0875 
L 620.258543 -255.0875 
L 619.097917 -255.0875 
L 617.937291 -255.0875 
L 616.776666 -255.0875 
L 615.61604 -255.0875 
L 614.455414 -255.0875 
L 613.294788 -255.0875 
L 612.134162 -255.0875 
L 610.973536 -255.0875 
L 609.81291 -255.0875 
L 608.652284 -255.0875 
L 607.491659 -255.0875 
L 606.331033 -255.0875 
L 605.170407 -255.0875 
L 604.009781 -255.0875 
L 602.849155 -255.0875 
L 601.688529 -255.0875 
L 600.527903 -255.0875 
L 599.367277 -255.0875 
L 598.206652 -255.0875 
L 597.046026 -255.0875 
L 595.8854 -255.0875 
L 594.724774 -255.0875 
L 593.564148 -255.0875 
L 592.403522 -255.0875 
L 591.242896 -255.0875 
L 590.082271 -255.0875 
L 588.921645 -255.0875 
L 587.761019 -255.0875 
L 586.600393 -255.0875 
L 585.439767 -255.0875 
L 584.279141 -255.0875 
L 583.118515 -255.0875 
L 581.957889 -255.0875 
L 580.797264 -255.0875 
L 579.636638 -255.0875 
L 578.476012 -255.0875 
L 577.315386 -255.0875 
L 576.15476 -255.0875 
L 574.994134 -255.0875 
L 573.833508 -255.0875 
L 572.672882 -255.0875 
L 571.512257 -255.0875 
L 570.351631 -255.0875 
L 569.191005 -255.0875 
L 568.030379 -255.0875 
L 566.869753 -255.0875 
L 565.709127 -255.0875 
L 564.548501 -255.0875 
L 563.387876 -255.0875 
L 562.22725 -255.0875 
L 561.066624 -255.0875 
L 559.905998 -255.0875 
L 558.745372 -255.0875 
L 557.584746 -255.0875 
L 556.42412 -255.0875 
L 555.263494 -255.0875 
L 554.102869 -255.0875 
L 552.942243 -255.0875 
L 551.781617 -255.0875 
L 550.620991 -255.0875 
L 549.460365 -255.0875 
L 548.299739 -255.0875 
L 547.139113 -255.0875 
L 545.978487 -255.0875 
L 544.817862 -255.0875 
L 543.657236 -255.0875 
L 542.49661 -255.0875 
L 541.335984 -255.0875 
L 540.175358 -255.0875 
L 539.014732 -255.0875 
L 537.854106 -255.0875 
L 536.693481 -255.0875 
L 535.532855 -255.0875 
L 534.372229 -255.0875 
L 533.211603 -255.0875 
L 532.050977 -255.0875 
L 530.890351 -255.0875 
L 529.729725 -255.0875 
L 528.569099 -255.0875 
L 527.408474 -255.0875 
L 526.247848 -255.0875 
L 525.087222 -255.0875 
L 523.926596 -255.0875 
L 522.76597 -255.0875 
L 521.605344 -255.0875 
L 520.444718 -255.0875 
L 519.284092 -255.0875 
L 518.123467 -255.0875 
L 516.962841 -255.0875 
L 515.802215 -255.0875 
L 514.641589 -255.0875 
L 513.480963 -255.0875 
L 512.320337 -255.0875 
L 511.159711 -255.0875 
L 509.999086 -255.0875 
L 508.83846 -255.0875 
L 507.677834 -255.0875 
L 506.517208 -255.0875 
L 505.356582 -255.0875 
L 504.195956 -255.0875 
L 503.03533 -255.0875 
L 501.874704 -255.0875 
L 500.714079 -255.0875 
L 499.553453 -255.0875 
L 498.392827 -255.0875 
L 497.232201 -255.0875 
L 496.071575 -255.0875 
L 494.910949 -255.0875 
L 493.750323 -255.0875 
L 492.589697 -255.0875 
L 491.429072 -255.0875 
L 490.268446 -255.0875 
L 489.10782 -255.0875 
L 487.947194 -255.0875 
L 486.786568 -255.0875 
L 485.625942 -255.0875 
L 484.465316 -255.0875 
L 483.304691 -255.0875 
L 482.144065 -255.0875 
L 480.983439 -255.0875 
L 479.822813 -255.0875 
L 478.662187 -255.0875 
L 477.501561 -255.0875 
L 476.340935 -255.0875 
L 475.180309 -255.0875 
L 474.019684 -255.0875 
L 472.859058 -255.0875 
L 471.698432 -255.0875 
L 470.537806 -255.0875 
L 469.37718 -255.0875 
L 468.216554 -255.0875 
L 467.055928 -255.0875 
L 465.895303 -255.0875 
L 464.734677 -255.0875 
L 463.574051 -255.0875 
L 462.413425 -255.0875 
L 461.252799 -255.0875 
L 460.092173 -255.0875 
L 458.931547 -255.0875 
L 457.770921 -255.0875 
L 456.610296 -255.0875 
L 455.44967 -255.0875 
L 454.289044 -255.0875 
L 453.128418 -255.0875 
L 451.967792 -255.0875 
L 450.807166 -255.0875 
L 449.64654 -255.0875 
L 448.485914 -255.0875 
L 447.325289 -255.0875 
L 446.164663 -255.0875 
L 445.004037 -255.0875 
L 443.843411 -255.0875 
L 442.682785 -255.0875 
L 441.522159 -255.0875 
L 440.361533 -255.0875 
L 439.200908 -255.0875 
L 438.040282 -255.0875 
L 436.879656 -255.0875 
L 435.71903 -255.0875 
L 434.558404 -255.0875 
L 433.397778 -255.0875 
L 432.237152 -255.0875 
L 431.076526 -255.0875 
L 429.915901 -255.0875 
L 428.755275 -255.0875 
L 427.594649 -255.0875 
L 426.434023 -255.0875 
L 425.273397 -255.0875 
L 424.112771 -255.0875 
L 422.952145 -255.0875 
L 421.791519 -255.0875 
L 420.630894 -255.0875 
L 419.470268 -255.0875 
L 418.309642 -255.0875 
L 417.149016 -255.0875 
L 415.98839 -255.0875 
L 414.827764 -255.0875 
L 413.667138 -255.0875 
L 412.506513 -255.0875 
L 411.345887 -255.0875 
L 410.185261 -255.0875 
L 409.024635 -255.0875 
L 407.864009 -255.0875 
L 406.703383 -255.0875 
L 405.542757 -255.0875 
L 404.382131 -255.0875 
L 403.221506 -255.0875 
L 402.06088 -255.0875 
L 400.900254 -255.0875 
L 399.739628 -255.0875 
L 398.579002 -255.0875 
L 397.418376 -255.0875 
L 396.25775 -255.0875 
L 395.097124 -255.0875 
L 393.936499 -255.0875 
L 392.775873 -255.0875 
L 391.615247 -255.0875 
L 390.454621 -255.0875 
L 389.293995 -255.0875 
L 388.133369 -255.0875 
L 386.972743 -255.0875 
L 385.812118 -255.0875 
L 384.651492 -255.0875 
L 383.490866 -255.0875 
L 382.33024 -255.0875 
L 381.169614 -255.0875 
L 380.008988 -255.0875 
L 378.848362 -255.0875 
L 377.687736 -255.0875 
L 376.527111 -255.0875 
L 375.366485 -255.0875 
L 374.205859 -255.0875 
L 373.045233 -255.0875 
L 371.884607 -255.0875 
L 370.723981 -255.0875 
L 369.563355 -255.0875 
L 368.402729 -255.0875 
L 367.242104 -255.0875 
L 366.081478 -255.0875 
L 364.920852 -255.0875 
L 363.760226 -255.0875 
L 362.5996 -255.0875 
L 361.438974 -255.0875 
L 360.278348 -255.0875 
L 359.117723 -255.0875 
L 357.957097 -255.0875 
L 356.796471 -255.0875 
L 355.635845 -255.0875 
L 354.475219 -255.0875 
L 353.314593 -255.0875 
L 352.153967 -255.0875 
L 350.993341 -255.0875 
L 349.832716 -255.0875 
L 348.67209 -255.0875 
L 347.511464 -255.0875 
L 346.350838 -255.0875 
L 345.190212 -255.0875 
L 344.029586 -255.0875 
L 342.86896 -255.0875 
L 341.708334 -255.0875 
L 340.547709 -255.0875 
L 339.387083 -255.0875 
L 338.226457 -255.0875 
L 337.065831 -255.0875 
L 335.905205 -255.0875 
L 334.744579 -255.0875 
L 333.583953 -255.0875 
L 332.423328 -255.0875 
L 331.262702 -255.0875 
L 330.102076 -255.0875 
L 328.94145 -255.0875 
L 327.780824 -255.0875 
L 326.620198 -255.0875 
L 325.459572 -255.0875 
L 324.298946 -255.0875 
L 323.138321 -255.0875 
L 321.977695 -255.0875 
L 320.817069 -255.0875 
L 319.656443 -255.0875 
L 318.495817 -255.0875 
L 317.335191 -255.0875 
L 316.174565 -255.0875 
L 315.013939 -255.0875 
L 313.853314 -255.0875 
L 312.692688 -255.0875 
L 311.532062 -255.0875 
L 310.371436 -255.0875 
L 309.21081 -255.0875 
L 308.050184 -255.0875 
L 306.889558 -255.0875 
L 305.728933 -255.0875 
L 304.568307 -255.0875 
L 303.407681 -255.0875 
L 302.247055 -255.0875 
L 301.086429 -255.0875 
L 299.925803 -255.0875 
L 298.765177 -255.0875 
L 297.604551 -255.0875 
L 296.443926 -255.0875 
L 295.2833 -255.0875 
L 294.122674 -255.0875 
L 292.962048 -255.0875 
L 291.801422 -255.0875 
L 290.640796 -255.0875 
L 289.48017 -255.0875 
L 288.319545 -255.0875 
L 287.158919 -255.0875 
L 285.998293 -255.0875 
L 284.837667 -255.0875 
L 283.677041 -255.0875 
L 282.516415 -255.0875 
L 281.355789 -255.0875 
L 280.195163 -255.0875 
L 279.034538 -255.0875 
L 277.873912 -255.0875 
L 276.713286 -255.0875 
L 275.55266 -255.0875 
L 274.392034 -255.0875 
L 273.231408 -255.0875 
L 272.070782 -255.0875 
L 270.910156 -255.0875 
L 269.749531 -255.0875 
L 268.588905 -255.0875 
L 267.428279 -255.0875 
L 266.267653 -255.0875 
L 265.107027 -255.0875 
L 263.946401 -255.0875 
L 262.785775 -255.0875 
L 261.62515 -255.0875 
L 260.464524 -255.0875 
L 259.303898 -255.0875 
L 258.143272 -255.0875 
L 256.982646 -255.0875 
L 255.82202 -255.0875 
L 254.661394 -255.0875 
L 253.500768 -255.0875 
L 252.340143 -255.0875 
L 251.179517 -255.0875 
L 250.018891 -255.0875 
L 248.858265 -255.0875 
L 247.697639 -255.0875 
L 246.537013 -255.0875 
L 245.376387 -255.0875 
L 244.215761 -255.0875 
L 243.055136 -255.0875 
L 241.89451 -255.0875 
L 240.733884 -255.0875 
L 239.573258 -255.0875 
L 238.412632 -255.0875 
L 237.252006 -255.0875 
L 236.09138 -255.0875 
L 234.930755 -255.0875 
L 233.770129 -255.0875 
L 232.609503 -255.0875 
L 231.448877 -255.0875 
L 230.288251 -255.0875 
L 229.127625 -255.0875 
L 227.966999 -255.0875 
L 226.806373 -255.0875 
L 225.645748 -255.0875 
L 224.485122 -255.0875 
L 223.324496 -255.0875 
L 222.16387 -255.0875 
L 221.003244 -255.0875 
L 219.842618 -255.0875 
L 218.681992 -255.0875 
L 217.521366 -255.0875 
L 216.360741 -255.0875 
L 215.200115 -255.0875 
L 214.039489 -255.0875 
L 212.878863 -255.0875 
L 211.718237 -255.0875 
L 210.557611 -255.0875 
L 209.396985 -255.0875 
L 208.23636 -255.0875 
L 207.075734 -255.0875 
L 205.915108 -255.0875 
L 204.754482 -255.0875 
L 203.593856 -255.0875 
L 202.43323 -255.0875 
L 201.272604 -255.0875 
L 200.111978 -255.0875 
L 198.951353 -255.0875 
L 197.790727 -255.0875 
L 196.630101 -255.0875 
L 195.469475 -255.0875 
L 194.308849 -255.0875 
L 193.148223 -255.0875 
L 191.987597 -255.0875 
L 190.826971 -255.0875 
L 189.666346 -255.0875 
L 188.50572 -255.0875 
L 187.345094 -255.0875 
L 186.184468 -255.0875 
L 185.023842 -255.0875 
L 183.863216 -255.0875 
L 182.70259 -255.0875 
L 181.541965 -255.0875 
L 180.381339 -255.0875 
L 179.220713 -255.0875 
L 178.060087 -255.0875 
L 176.899461 -255.0875 
L 175.738835 -255.0875 
L 174.578209 -255.0875 
L 173.417583 -255.0875 
L 172.256958 -255.0875 
L 171.096332 -255.0875 
L 169.935706 -255.0875 
L 168.77508 -255.0875 
L 167.614454 -255.0875 
L 166.453828 -255.0875 
L 165.293202 -255.0875 
L 164.132576 -255.0875 
L 162.971951 -255.0875 
L 161.811325 -255.0875 
L 160.650699 -255.0875 
L 159.490073 -255.0875 
L 158.329447 -255.0875 
L 157.168821 -255.0875 
L 156.008195 -255.0875 
L 154.84757 -255.0875 
L 153.686944 -255.0875 
L 152.526318 -255.0875 
L 151.365692 -255.0875 
L 150.205066 -255.0875 
L 149.04444 -255.0875 
L 147.883814 -255.0875 
L 146.723188 -255.0875 
L 145.562563 -255.0875 
L 144.401937 -255.0875 
L 143.241311 -255.0875 
L 142.080685 -255.0875 
L 140.920059 -255.0875 
L 139.759433 -255.0875 
L 138.598807 -255.0875 
L 137.438182 -255.0875 
L 136.277556 -255.0875 
L 135.11693 -255.0875 
L 133.956304 -255.0875 
L 132.795678 -255.0875 
L 131.635052 -255.0875 
L 130.474426 -255.0875 
L 129.3138 -255.0875 
L 128.153175 -255.0875 
L 126.992549 -255.0875 
L 125.831923 -255.0875 
L 124.671297 -255.0875 
L 123.510671 -255.0875 
L 122.350045 -255.0875 
L 121.189419 -255.0875 
L 120.028793 -255.0875 
L 118.868168 -255.0875 
L 117.707542 -255.0875 
L 116.546916 -255.0875 
L 115.38629 -255.0875 
L 114.225664 -255.0875 
L 113.065038 -255.0875 
L 111.904412 -255.0875 
L 110.743787 -255.0875 
L 109.583161 -255.0875 
L 108.422535 -255.0875 
L 107.261909 -255.0875 
L 106.101283 -255.0875 
L 104.940657 -255.0875 
L 103.780031 -255.0875 
L 102.619405 -255.0875 
L 101.45878 -255.0875 
L 100.298154 -255.0875 
L 99.137528 -255.0875 
L 97.976902 -255.0875 
L 96.816276 -255.0875 
L 95.65565 -255.0875 
L 94.495024 -255.0875 
L 93.334398 -255.0875 
L 92.173773 -255.0875 
L 91.013147 -255.0875 
L 89.852521 -255.0875 
L 88.691895 -255.0875 
L 87.531269 -255.0875 
L 86.370643 -255.0875 
L 85.210017 -255.0875 
L 84.049392 -255.0875 
L 82.888766 -255.0875 
L 81.72814 -255.0875 
L 80.567514 -255.0875 
L 79.406888 -255.0875 
L 78.246262 -255.0875 
L 77.085636 -255.0875 
L 75.92501 -255.0875 
L 74.764385 -255.0875 
L 73.603759 -255.0875 
L 72.443133 -255.0875 
L 71.282507 -255.0875 
L 70.121881 -255.0875 
L 68.961255 -255.0875 
L 67.800629 -255.0875 
L 66.640003 -255.0875 
L 65.479378 -255.0875 
L 64.318752 -255.0875 
L 63.158126 -255.0875 
L 61.9975 -255.0875 
z
" style="stroke: #a3583c; stroke-opacity: 0.08"/>
    </defs>
    <g clip-path="url(#pb138f1a814)">
     <use xlink:href="#m28c364680b" x="0" y="499.624687" style="fill: #a3583c; fill-opacity: 0.08; stroke: #a3583c; stroke-opacity: 0.08"/>
    </g>
   </g>
   <g id="matplotlib.axis_1">
    <g id="xtick_1">
     <g id="line2d_1">
      <path d="M 61.9975 453.877187 
L 61.9975 35.197187 
" clip-path="url(#pb138f1a814)" style="fill: none; stroke: #d9cbb6; stroke-opacity: 0.45; stroke-width: 0.8; stroke-linecap: square"/>
     </g>
     <g id="line2d_2">
      <defs>
       <path id="mfcfedc11ac" d="M 0 0 
L 0 3.5 
" style="stroke: #756a5d; stroke-width: 0.8"/>
      </defs>
      <g>
       <use xlink:href="#mfcfedc11ac" x="61.9975" y="453.877187" style="fill: #756a5d; stroke: #756a5d; stroke-width: 0.8"/>
      </g>
     </g>
     <g id="text_1">
      <text style="font-size: 11px; font-family: 'DejaVu Serif'; text-anchor: middle; fill: #756a5d" x="61.9975" y="469.235469" transform="rotate(-0 61.9975 469.235469)">0.0</text>
     </g>
    </g>
    <g id="xtick_2">
     <g id="line2d_3">
      <path d="M 228.8955 453.877187 
L 228.8955 35.197187 
" clip-path="url(#pb138f1a814)" style="fill: none; stroke: #d9cbb6; stroke-opacity: 0.45; stroke-width: 0.8; stroke-linecap: square"/>
     </g>
     <g id="line2d_4">
      <g>
       <use xlink:href="#mfcfedc11ac" x="228.8955" y="453.877187" style="fill: #756a5d; stroke: #756a5d; stroke-width: 0.8"/>
      </g>
     </g>
     <g id="text_2">
      <text style="font-size: 11px; font-family: 'DejaVu Serif'; text-anchor: middle; fill: #756a5d" x="228.8955" y="469.235469" transform="rotate(-0 228.8955 469.235469)">0.2</text>
     </g>
    </g>
    <g id="xtick_3">
     <g id="line2d_5">
      <path d="M 395.7935 453.877187 
L 395.7935 35.197187 
" clip-path="url(#pb138f1a814)" style="fill: none; stroke: #d9cbb6; stroke-opacity: 0.45; stroke-width: 0.8; stroke-linecap: square"/>
     </g>
     <g id="line2d_6">
      <g>
       <use xlink:href="#mfcfedc11ac" x="395.7935" y="453.877187" style="fill: #756a5d; stroke: #756a5d; stroke-width: 0.8"/>
      </g>
     </g>
     <g id="text_3">
      <text style="font-size: 11px; font-family: 'DejaVu Serif'; text-anchor: middle; fill: #756a5d" x="395.7935" y="469.235469" transform="rotate(-0 395.7935 469.235469)">0.4</text>
     </g>
    </g>
    <g id="xtick_4">
     <g id="line2d_7">
      <path d="M 562.6915 453.877187 
L 562.6915 35.197187 
" clip-path="url(#pb138f1a814)" style="fill: none; stroke: #d9cbb6; stroke-opacity: 0.45; stroke-width: 0.8; stroke-linecap: square"/>
     </g>
     <g id="line2d_8">
      <g>
       <use xlink:href="#mfcfedc11ac" x="562.6915" y="453.877187" style="fill: #756a5d; stroke: #756a5d; stroke-width: 0.8"/>
      </g>
     </g>
     <g id="text_4">
      <text style="font-size: 11px; font-family: 'DejaVu Serif'; text-anchor: middle; fill: #756a5d" x="562.6915" y="469.235469" transform="rotate(-0 562.6915 469.235469)">0.6</text>
     </g>
    </g>
    <g id="xtick_5">
     <g id="line2d_9">
      <path d="M 729.5895 453.877187 
L 729.5895 35.197187 
" clip-path="url(#pb138f1a814)" style="fill: none; stroke: #d9cbb6; stroke-opacity: 0.45; stroke-width: 0.8; stroke-linecap: square"/>
     </g>
     <g id="line2d_10">
      <g>
       <use xlink:href="#mfcfedc11ac" x="729.5895" y="453.877187" style="fill: #756a5d; stroke: #756a5d; stroke-width: 0.8"/>
      </g>
     </g>
     <g id="text_5">
      <text style="font-size: 11px; font-family: 'DejaVu Serif'; text-anchor: middle; fill: #756a5d" x="729.5895" y="469.235469" transform="rotate(-0 729.5895 469.235469)">0.8</text>
     </g>
    </g>
    <g id="xtick_6">
     <g id="line2d_11">
      <path d="M 896.4875 453.877187 
L 896.4875 35.197187 
" clip-path="url(#pb138f1a814)" style="fill: none; stroke: #d9cbb6; stroke-opacity: 0.45; stroke-width: 0.8; stroke-linecap: square"/>
     </g>
     <g id="line2d_12">
      <g>
       <use xlink:href="#mfcfedc11ac" x="896.4875" y="453.877187" style="fill: #756a5d; stroke: #756a5d; stroke-width: 0.8"/>
      </g>
     </g>
     <g id="text_6">
      <text style="font-size: 11px; font-family: 'DejaVu Serif'; text-anchor: middle; fill: #756a5d" x="896.4875" y="469.235469" transform="rotate(-0 896.4875 469.235469)">1.0</text>
     </g>
    </g>
    <g id="text_7">
     <text style="font-size: 13px; font-family: 'DejaVu Serif'; text-anchor: middle; fill: #1f1b16" x="479.2425" y="485.401094" transform="rotate(-0 479.2425 485.401094)">Orbital phase</text>
    </g>
   </g>
   <g id="matplotlib.axis_2">
    <g id="ytick_1">
     <g id="line2d_13">
      <path d="M 61.9975 420.645883 
L 896.4875 420.645883 
" clip-path="url(#pb138f1a814)" style="fill: none; stroke: #d9cbb6; stroke-opacity: 0.45; stroke-width: 0.8; stroke-linecap: square"/>
     </g>
     <g id="line2d_14">
      <defs>
       <path id="m9f39431401" d="M 0 0 
L -3.5 0 
" style="stroke: #756a5d; stroke-width: 0.8"/>
      </defs>
      <g>
       <use xlink:href="#m9f39431401" x="61.9975" y="420.645883" style="fill: #756a5d; stroke: #756a5d; stroke-width: 0.8"/>
      </g>
     </g>
     <g id="text_8">
      <text style="font-size: 11px; font-family: 'DejaVu Serif'; text-anchor: end; fill: #756a5d" x="54.9975" y="424.825024" transform="rotate(-0 54.9975 424.825024)">−0.3</text>
     </g>
    </g>
    <g id="ytick_2">
     <g id="line2d_15">
      <path d="M 61.9975 361.942985 
L 896.4875 361.942985 
" clip-path="url(#pb138f1a814)" style="fill: none; stroke: #d9cbb6; stroke-opacity: 0.45; stroke-width: 0.8; stroke-linecap: square"/>
     </g>
     <g id="line2d_16">
      <g>
       <use xlink:href="#m9f39431401" x="61.9975" y="361.942985" style="fill: #756a5d; stroke: #756a5d; stroke-width: 0.8"/>
      </g>
     </g>
     <g id="text_9">
      <text style="font-size: 11px; font-family: 'DejaVu Serif'; text-anchor: end; fill: #756a5d" x="54.9975" y="366.122125" transform="rotate(-0 54.9975 366.122125)">−0.2</text>
     </g>
    </g>
    <g id="ytick_3">
     <g id="line2d_17">
      <path d="M 61.9975 303.240086 
L 896.4875 303.240086 
" clip-path="url(#pb138f1a814)" style="fill: none; stroke: #d9cbb6; stroke-opacity: 0.45; stroke-width: 0.8; stroke-linecap: square"/>
     </g>
     <g id="line2d_18">
      <g>
       <use xlink:href="#m9f39431401" x="61.9975" y="303.240086" style="fill: #756a5d; stroke: #756a5d; stroke-width: 0.8"/>
      </g>
     </g>
     <g id="text_10">
      <text style="font-size: 11px; font-family: 'DejaVu Serif'; text-anchor: end; fill: #756a5d" x="54.9975" y="307.419227" transform="rotate(-0 54.9975 307.419227)">−0.1</text>
     </g>
    </g>
    <g id="ytick_4">
     <g id="line2d_19">
      <path d="M 61.9975 244.537187 
L 896.4875 244.537187 
" clip-path="url(#pb138f1a814)" style="fill: none; stroke: #d9cbb6; stroke-opacity: 0.45; stroke-width: 0.8; stroke-linecap: square"/>
     </g>
     <g id="line2d_20">
      <g>
       <use xlink:href="#m9f39431401" x="61.9975" y="244.537187" style="fill: #756a5d; stroke: #756a5d; stroke-width: 0.8"/>
      </g>
     </g>
     <g id="text_11">
      <text style="font-size: 11px; font-family: 'DejaVu Serif'; text-anchor: end; fill: #756a5d" x="54.9975" y="248.716328" transform="rotate(-0 54.9975 248.716328)">0.0</text>
     </g>
    </g>
    <g id="ytick_5">
     <g id="line2d_21">
      <path d="M 61.9975 185.834289 
L 896.4875 185.834289 
" clip-path="url(#pb138f1a814)" style="fill: none; stroke: #d9cbb6; stroke-opacity: 0.45; stroke-width: 0.8; stroke-linecap: square"/>
     </g>
     <g id="line2d_22">
      <g>
       <use xlink:href="#m9f39431401" x="61.9975" y="185.834289" style="fill: #756a5d; stroke: #756a5d; stroke-width: 0.8"/>
      </g>
     </g>
     <g id="text_12">
      <text style="font-size: 11px; font-family: 'DejaVu Serif'; text-anchor: end; fill: #756a5d" x="54.9975" y="190.01343" transform="rotate(-0 54.9975 190.01343)">0.1</text>
     </g>
    </g>
    <g id="ytick_6">
     <g id="line2d_23">
      <path d="M 61.9975 127.13139 
L 896.4875 127.13139 
" clip-path="url(#pb138f1a814)" style="fill: none; stroke: #d9cbb6; stroke-opacity: 0.45; stroke-width: 0.8; stroke-linecap: square"/>
     </g>
     <g id="line2d_24">
      <g>
       <use xlink:href="#m9f39431401" x="61.9975" y="127.13139" style="fill: #756a5d; stroke: #756a5d; stroke-width: 0.8"/>
      </g>
     </g>
     <g id="text_13">
      <text style="font-size: 11px; font-family: 'DejaVu Serif'; text-anchor: end; fill: #756a5d" x="54.9975" y="131.310531" transform="rotate(-0 54.9975 131.310531)">0.2</text>
     </g>
    </g>
    <g id="ytick_7">
     <g id="line2d_25">
      <path d="M 61.9975 68.428492 
L 896.4875 68.428492 
" clip-path="url(#pb138f1a814)" style="fill: none; stroke: #d9cbb6; stroke-opacity: 0.45; stroke-width: 0.8; stroke-linecap: square"/>
     </g>
     <g id="line2d_26">
      <g>
       <use xlink:href="#m9f39431401" x="61.9975" y="68.428492" style="fill: #756a5d; stroke: #756a5d; stroke-width: 0.8"/>
      </g>
     </g>
     <g id="text_14">
      <text style="font-size: 11px; font-family: 'DejaVu Serif'; text-anchor: end; fill: #756a5d" x="54.9975" y="72.607633" transform="rotate(-0 54.9975 72.607633)">0.3</text>
     </g>
    </g>
    <g id="text_15">
     <text style="font-size: 13px; font-family: 'DejaVu Serif'; text-anchor: middle; fill: #1f1b16" x="21.397969" y="244.537187" transform="rotate(-90 21.397969 244.537187)">Stellar radial velocity (m/s)</text>
    </g>
   </g>
   <g id="line2d_27">
    <path d="M 61.9975 244.537187 
L 84.049392 278.597634 
L 95.65565 296.123558 
L 106.101283 311.479174 
L 115.38629 324.69869 
L 123.510671 335.870135 
L 130.474426 345.112601 
L 137.438182 354.016817 
L 144.401937 362.555395 
L 151.365692 370.70278 
L 157.168821 377.176331 
L 162.971951 383.349151 
L 168.77508 389.209595 
L 174.578209 394.747018 
L 180.381339 399.951777 
L 186.184468 404.815239 
L 191.987597 409.32978 
L 196.630101 412.685708 
L 201.272604 415.811138 
L 205.915108 418.70354 
L 210.557611 421.360782 
L 215.200115 423.781121 
L 219.842618 425.963194 
L 224.485122 427.906016 
L 229.127625 429.608965 
L 233.770129 431.071776 
L 238.412632 432.294531 
L 243.055136 433.277644 
L 247.697639 434.021857 
L 252.340143 434.528222 
L 256.982646 434.798094 
L 261.62515 434.833118 
L 266.267653 434.635217 
L 270.910156 434.20658 
L 275.55266 433.549651 
L 280.195163 432.667114 
L 284.837667 431.561887 
L 289.48017 430.237104 
L 294.122674 428.696108 
L 298.765177 426.942439 
L 303.407681 424.979821 
L 308.050184 422.812152 
L 312.692688 420.443494 
L 318.495817 417.206471 
L 324.298946 413.670553 
L 330.102076 409.844611 
L 335.905205 405.737814 
L 341.708334 401.359598 
L 347.511464 396.719646 
L 353.314593 391.827861 
L 360.278348 385.639542 
L 367.242104 379.120943 
L 374.205859 372.290192 
L 381.169614 365.165699 
L 389.293995 356.507439 
L 397.418376 347.50476 
L 405.542757 338.187979 
L 414.827764 327.194864 
L 425.273397 314.442289 
L 436.879656 299.871631 
L 449.64654 283.461305 
L 465.895303 262.1823 
L 512.320337 201.104347 
L 525.087222 184.792298 
L 536.693481 170.339688 
L 547.139113 157.716612 
L 556.42412 146.856985 
L 564.548501 137.671088 
L 572.672882 128.812322 
L 580.797264 120.310873 
L 587.761019 113.330933 
L 594.724774 106.653973 
L 601.688529 100.298268 
L 608.652284 94.281785 
L 614.455414 89.5399 
L 620.258543 85.055815 
L 626.061672 80.839303 
L 631.864802 76.899903 
L 637.667931 73.246894 
L 643.471061 69.889268 
L 649.27419 66.835707 
L 653.916693 64.617404 
L 658.559197 62.603151 
L 663.2017 60.796888 
L 667.844204 59.202385 
L 672.486707 57.823228 
L 677.129211 56.662809 
L 681.771714 55.724318 
L 686.414218 55.010725 
L 691.056721 54.524777 
L 695.699225 54.268977 
L 700.341728 54.245579 
L 704.984232 54.456574 
L 709.626735 54.903677 
L 714.269239 55.588316 
L 718.911742 56.511623 
L 723.554245 57.674415 
L 728.196749 59.077192 
L 732.839252 60.720118 
L 737.481756 62.603016 
L 742.124259 64.725354 
L 746.766763 67.086239 
L 751.409266 69.684403 
L 756.05177 72.5182 
L 760.694273 75.585595 
L 765.336777 78.884157 
L 769.97928 82.411056 
L 775.78241 87.135809 
L 781.585539 92.205028 
L 787.388668 97.610485 
L 793.191798 103.342943 
L 798.994927 109.392154 
L 804.798056 115.746873 
L 810.601186 122.394866 
L 817.564941 130.740923 
L 824.528696 139.465631 
L 831.492451 148.542507 
L 839.616832 159.539487 
L 847.741213 170.929507 
L 857.02622 184.362954 
L 867.471853 199.911083 
L 880.238738 219.373198 
L 896.4875 244.537187 
L 896.4875 244.537187 
" clip-path="url(#pb138f1a814)" style="fill: none; stroke: #a3583c; stroke-width: 2.6; stroke-linecap: square"/>
   </g>
   <g id="line2d_28">
    <path d="M 61.9975 244.537187 
L 896.4875 244.537187 
" clip-path="url(#pb138f1a814)" style="fill: none; stroke-dasharray: 5.365,2.32; stroke-dashoffset: 0; stroke: #9b9184; stroke-opacity: 0.65; stroke-width: 1.45"/>
   </g>
   <g id="patch_3">
    <path d="M 61.9975 453.877187 
L 61.9975 35.197187 
" style="fill: none; stroke: #b9a98f; stroke-width: 0.8; stroke-linejoin: miter; stroke-linecap: square"/>
   </g>
   <g id="patch_4">
    <path d="M 896.4875 453.877187 
L 896.4875 35.197187 
" style="fill: none; stroke: #b9a98f; stroke-width: 0.8; stroke-linejoin: miter; stroke-linecap: square"/>
   </g>
   <g id="patch_5">
    <path d="M 61.9975 453.877187 
L 896.4875 453.877187 
" style="fill: none; stroke: #b9a98f; stroke-width: 0.8; stroke-linejoin: miter; stroke-linecap: square"/>
   </g>
   <g id="patch_6">
    <path d="M 61.9975 35.197187 
L 896.4875 35.197187 
" style="fill: none; stroke: #b9a98f; stroke-width: 0.8; stroke-linejoin: miter; stroke-linecap: square"/>
   </g>
   <g id="text_16">
    <g id="patch_7">
     <path d="M 74.51485 72.760563 
L 370.73735 72.760563 
Q 373.81735 72.760563 373.81735 69.680563 
L 373.81735 56.131188 
Q 373.81735 53.051188 370.73735 53.051188 
L 74.51485 53.051188 
Q 71.43485 53.051188 71.43485 56.131188 
L 71.43485 69.680563 
Q 71.43485 72.760563 74.51485 72.760563 
z
" style="fill: #fffaf0; opacity: 0.88"/>
    </g>
    <text style="font-size: 14px; font-family: 'DejaVu Serif'; text-anchor: start; fill: #756a5d" x="74.51485" y="66.769" transform="rotate(-0 74.51485 66.769)">K ≈ 0.324 m s^-1 · P ≈ 129.9 d · e = 0.04</text>
   </g>
   <g id="text_17">
    <text style="font-size: 10.5px; font-family: 'DejaVu Serif'; text-anchor: end; fill: #756a5d" x="888.1426" y="443.170619" transform="rotate(-0 888.1426 443.170619)">single-planet Keplerian model</text>
   </g>
   <g id="text_18">
    <text style="font-weight: 700; font-size: 18px; font-family: 'DejaVu Serif'; text-anchor: start; fill: #1f1b16" x="61.9975" y="25.197187" transform="rotate(-0 61.9975 25.197187)">Keplerian RV model — Kepler-186 f</text>
   </g>
  </g>
 </g>
 <defs>
  <clipPath id="pb138f1a814">
   <rect x="61.9975" y="35.197187" width="834.49" height="418.68"/>
  </clipPath>
 </defs>
</svg>
