<?xml version="1.0" encoding="utf-8" standalone="no"?>
<!DOCTYPE svg PUBLIC "-//W3C//DTD SVG 1.1//EN"
  "http://www.w3.org/Graphics/SVG/1.1/DTD/svg11.dtd">
<svg xmlns:xlink="http://www.w3.org/1999/xlink" width="916.678281pt" height="499.624687pt" viewBox="0 0 916.678281 499.624687" xmlns="http://www.w3.org/2000/svg" version="1.1">
 <metadata>
  <rdf:RDF xmlns:dc="http://purl.org/dc/elements/1.1/" xmlns:cc="http://creativecommons.org/ns#" xmlns:rdf="http://www.w3.org/1999/02/22-rdf-syntax-ns#">
   <cc:Work>
    <dc:type rdf:resource="http://purl.org/dc/dcmitype/StillImage"/>
    <dc:date>2026-05-11T11:57:55.629919</dc:date>
    <dc:format>image/svg+xml</dc:format>
    <dc:creator>
     <cc:Agent>
      <dc:title>Matplotlib v3.10.9, https://matplotlib.org/</dc:title>
     </cc:Agent>
    </dc:creator>
   </cc:Work>
  </rdf:RDF>
 </metadata>
 <defs>
  <style type="text/css">*{stroke-linejoin: round; stroke-linecap: butt}</style>
 </defs>
 <g id="figure_1">
  <g id="patch_1">
   <path d="M 0 499.624687 
L 916.678281 499.624687 
L 916.678281 0 
L 0 0 
z
" style="fill: #fffaf0"/>
  </g>
  <g id="axes_1">
   <g id="patch_2">
    <path d="M 58.501563 453.877187 
L 896.411562 453.877187 
L 896.411562 35.197187 
L 58.501563 35.197187 
z
" style="fill: #fffaf0"/>
   </g>
   <g id="FillBetweenPolyCollection_1">
    <defs>
     <path id="ma27666001a" d="M 58.501563 -255.0875 
L 58.501563 -255.0875 
L 59.666945 -253.403662 
L 60.832327 -251.719958 
L 61.99771 -250.03652 
L 63.163092 -248.353483 
L 64.328475 -246.67098 
L 65.493857 -244.989143 
L 66.65924 -243.308107 
L 67.824622 -241.628004 
L 68.990005 -239.948968 
L 70.155387 -238.271131 
L 71.32077 -236.594627 
L 72.486152 -234.919588 
L 73.651535 -233.246147 
L 74.816917 -231.574437 
L 75.9823 -229.90459 
L 77.147682 -228.236738 
L 78.313065 -226.571013 
L 79.478447 -224.907546 
L 80.64383 -223.246471 
L 81.809212 -221.587918 
L 82.974594 -219.932018 
L 84.139977 -218.278903 
L 85.305359 -216.628702 
L 86.470742 -214.981547 
L 87.636124 -213.337568 
L 88.801507 -211.696895 
L 89.966889 -210.059657 
L 91.132272 -208.425984 
L 92.297654 -206.796005 
L 93.463037 -205.169849 
L 94.628419 -203.547643 
L 95.793802 -201.929516 
L 96.959184 -200.315596 
L 98.124567 -198.70601 
L 99.289949 -197.100885 
L 100.455332 -195.500348 
L 101.620714 -193.904524 
L 102.786097 -192.313539 
L 103.951479 -190.727519 
L 105.116862 -189.146589 
L 106.282244 -187.570872 
L 107.447626 -186.000494 
L 108.613009 -184.435577 
L 109.778391 -182.876245 
L 110.943774 -181.32262 
L 112.109156 -179.774824 
L 113.274539 -178.232978 
L 114.439921 -176.697205 
L 115.605304 -175.167624 
L 116.770686 -173.644355 
L 117.936069 -172.127517 
L 119.101451 -170.617231 
L 120.266834 -169.113613 
L 121.432216 -167.616781 
L 122.597599 -166.126854 
L 123.762981 -164.643946 
L 124.928364 -163.168175 
L 126.093746 -161.699655 
L 127.259129 -160.238501 
L 128.424511 -158.784828 
L 129.589894 -157.338748 
L 130.755276 -155.900374 
L 131.920658 -154.469819 
L 133.086041 -153.047194 
L 134.251423 -151.632609 
L 135.416806 -150.226175 
L 136.582188 -148.828001 
L 137.747571 -147.438196 
L 138.912953 -146.056867 
L 140.078336 -144.684121 
L 141.243718 -143.320066 
L 142.409101 -141.964806 
L 143.574483 -140.618448 
L 144.739866 -139.281094 
L 145.905248 -137.952848 
L 147.070631 -136.633814 
L 148.236013 -135.324092 
L 149.401396 -134.023784 
L 150.566778 -132.73299 
L 151.732161 -131.45181 
L 152.897543 -130.180342 
L 154.062926 -128.918685 
L 155.228308 -127.666934 
L 156.39369 -126.425186 
L 157.559073 -125.193536 
L 158.724455 -123.972079 
L 159.889838 -122.760909 
L 161.05522 -121.560117 
L 162.220603 -120.369797 
L 163.385985 -119.190038 
L 164.551368 -118.020931 
L 165.71675 -116.862565 
L 166.882133 -115.715028 
L 168.047515 -114.578407 
L 169.212898 -113.452789 
L 170.37828 -112.338259 
L 171.543663 -111.234903 
L 172.709045 -110.142803 
L 173.874428 -109.062041 
L 175.03981 -107.992701 
L 176.205193 -106.934862 
L 177.370575 -105.888605 
L 178.535957 -104.854008 
L 179.70134 -103.831149 
L 180.866722 -102.820104 
L 182.032105 -101.820951 
L 183.197487 -100.833763 
L 184.36287 -99.858615 
L 185.528252 -98.895579 
L 186.693635 -97.944728 
L 187.859017 -97.006133 
L 189.0244 -96.079862 
L 190.189782 -95.165985 
L 191.355165 -94.264571 
L 192.520547 -93.375685 
L 193.68593 -92.499393 
L 194.851312 -91.635761 
L 196.016695 -90.784852 
L 197.182077 -89.946728 
L 198.34746 -89.121452 
L 199.512842 -88.309083 
L 200.678225 -87.509682 
L 201.843607 -86.723306 
L 203.008989 -85.950013 
L 204.174372 -85.18986 
L 205.339754 -84.442901 
L 206.505137 -83.709191 
L 207.670519 -82.988782 
L 208.835902 -82.281728 
L 210.001284 -81.588078 
L 211.166667 -80.907883 
L 212.332049 -80.241191 
L 213.497432 -79.58805 
L 214.662814 -78.948506 
L 215.828197 -78.322606 
L 216.993579 -77.710393 
L 218.158962 -77.11191 
L 219.324344 -76.5272 
L 220.489727 -75.956303 
L 221.655109 -75.399261 
L 222.820492 -74.856111 
L 223.985874 -74.326891 
L 225.151257 -73.811637 
L 226.316639 -73.310386 
L 227.482021 -72.823172 
L 228.647404 -72.350028 
L 229.812786 -71.890985 
L 230.978169 -71.446076 
L 232.143551 -71.015329 
L 233.308934 -70.598774 
L 234.474316 -70.196439 
L 235.639699 -69.808349 
L 236.805081 -69.43453 
L 237.970464 -69.075007 
L 239.135846 -68.729803 
L 240.301229 -68.398939 
L 241.466611 -68.082437 
L 242.631994 -67.780316 
L 243.797376 -67.492594 
L 244.962759 -67.219291 
L 246.128141 -66.960421 
L 247.293524 -66.716 
L 248.458906 -66.486042 
L 249.624289 -66.27056 
L 250.789671 -66.069566 
L 251.955053 -65.883071 
L 253.120436 -65.711084 
L 254.285818 -65.553614 
L 255.451201 -65.410669 
L 256.616583 -65.282254 
L 257.781966 -65.168374 
L 258.947348 -65.069034 
L 260.112731 -64.984237 
L 261.278113 -64.913983 
L 262.443496 -64.858275 
L 263.608878 -64.817111 
L 264.774261 -64.79049 
L 265.939643 -64.778409 
L 267.105026 -64.780865 
L 268.270408 -64.797851 
L 269.435791 -64.829364 
L 270.601173 -64.875394 
L 271.766556 -64.935935 
L 272.931938 -65.010976 
L 274.09732 -65.100508 
L 275.262703 -65.204519 
L 276.428085 -65.322995 
L 277.593468 -65.455925 
L 278.75885 -65.603291 
L 279.924233 -65.76508 
L 281.089615 -65.941273 
L 282.254998 -66.131853 
L 283.42038 -66.336801 
L 284.585763 -66.556096 
L 285.751145 -66.789717 
L 286.916528 -67.037642 
L 288.08191 -67.299847 
L 289.247293 -67.576308 
L 290.412675 -67.866999 
L 291.578058 -68.171894 
L 292.74344 -68.490965 
L 293.908823 -68.824183 
L 295.074205 -69.171519 
L 296.239588 -69.532941 
L 297.40497 -69.908418 
L 298.570352 -70.297918 
L 299.735735 -70.701405 
L 300.901117 -71.118846 
L 302.0665 -71.550203 
L 303.231882 -71.995441 
L 304.397265 -72.454521 
L 305.562647 -72.927404 
L 306.72803 -73.414051 
L 307.893412 -73.914419 
L 309.058795 -74.428468 
L 310.224177 -74.956153 
L 311.38956 -75.497432 
L 312.554942 -76.052258 
L 313.720325 -76.620587 
L 314.885707 -77.20237 
L 316.05109 -77.797561 
L 317.216472 -78.40611 
L 318.381855 -79.027967 
L 319.547237 -79.663081 
L 320.71262 -80.311401 
L 321.878002 -80.972875 
L 323.043384 -81.647447 
L 324.208767 -82.335064 
L 325.374149 -83.03567 
L 326.539532 -83.749209 
L 327.704914 -84.475623 
L 328.870297 -85.214854 
L 330.035679 -85.966842 
L 331.201062 -86.731528 
L 332.366444 -87.50885 
L 333.531827 -88.298747 
L 334.697209 -89.101155 
L 335.862592 -89.916011 
L 337.027974 -90.74325 
L 338.193357 -91.582807 
L 339.358739 -92.434616 
L 340.524122 -93.298609 
L 341.689504 -94.174717 
L 342.854887 -95.062873 
L 344.020269 -95.963007 
L 345.185652 -96.875047 
L 346.351034 -97.798922 
L 347.516416 -98.734561 
L 348.681799 -99.681889 
L 349.847181 -100.640834 
L 351.012564 -101.61132 
L 352.177946 -102.593271 
L 353.343329 -103.586612 
L 354.508711 -104.591266 
L 355.674094 -105.607153 
L 356.839476 -106.634196 
L 358.004859 -107.672316 
L 359.170241 -108.721431 
L 360.335624 -109.781462 
L 361.501006 -110.852326 
L 362.666389 -111.93394 
L 363.831771 -113.026222 
L 364.997154 -114.129087 
L 366.162536 -115.242452 
L 367.327919 -116.366229 
L 368.493301 -117.500334 
L 369.658684 -118.64468 
L 370.824066 -119.799178 
L 371.989448 -120.963741 
L 373.154831 -122.138279 
L 374.320213 -123.322704 
L 375.485596 -124.516924 
L 376.650978 -125.720849 
L 377.816361 -126.934388 
L 378.981743 -128.157447 
L 380.147126 -129.389935 
L 381.312508 -130.631756 
L 382.477891 -131.882819 
L 383.643273 -133.143026 
L 384.808656 -134.412284 
L 385.974038 -135.690495 
L 387.139421 -136.977564 
L 388.304803 -138.273393 
L 389.470186 -139.577884 
L 390.635568 -140.890939 
L 391.800951 -142.212458 
L 392.966333 -143.542343 
L 394.131715 -144.880493 
L 395.297098 -146.226807 
L 396.46248 -147.581184 
L 397.627863 -148.943523 
L 398.793245 -150.31372 
L 399.958628 -151.691674 
L 401.12401 -153.07728 
L 402.289393 -154.470435 
L 403.454775 -155.871035 
L 404.620158 -157.278974 
L 405.78554 -158.694148 
L 406.950923 -160.11645 
L 408.116305 -161.545774 
L 409.281688 -162.982013 
L 410.44707 -164.42506 
L 411.612453 -165.874808 
L 412.777835 -167.331148 
L 413.943218 -168.793971 
L 415.1086 -170.263169 
L 416.273983 -171.738632 
L 417.439365 -173.22025 
L 418.604747 -174.707913 
L 419.77013 -176.20151 
L 420.935512 -177.700931 
L 422.100895 -179.206063 
L 423.266277 -180.716795 
L 424.43166 -182.233015 
L 425.597042 -183.754611 
L 426.762425 -185.281468 
L 427.927807 -186.813475 
L 429.09319 -188.350517 
L 430.258572 -189.89248 
L 431.423955 -191.439251 
L 432.589337 -192.990715 
L 433.75472 -194.546756 
L 434.920102 -196.10726 
L 436.085485 -197.672111 
L 437.250867 -199.241193 
L 438.41625 -200.814391 
L 439.581632 -202.391588 
L 440.747015 -203.972667 
L 441.912397 -205.557512 
L 443.077779 -207.146005 
L 444.243162 -208.73803 
L 445.408544 -210.333469 
L 446.573927 -211.932203 
L 447.739309 -213.534116 
L 448.904692 -215.139088 
L 450.070074 -216.747002 
L 451.235457 -218.357738 
L 452.400839 -219.971179 
L 453.566222 -221.587205 
L 454.731604 -223.205696 
L 455.896987 -224.826535 
L 457.062369 -226.449601 
L 458.227752 -228.074774 
L 459.393134 -229.701936 
L 460.558517 -231.330966 
L 461.723899 -232.961744 
L 462.889282 -234.59415 
L 464.054664 -236.228065 
L 465.220047 -237.863367 
L 466.385429 -239.499936 
L 467.550811 -241.137652 
L 468.716194 -242.776395 
L 469.881576 -244.416043 
L 471.046959 -246.056477 
L 472.212341 -247.697575 
L 473.377724 -249.339217 
L 474.543106 -250.981281 
L 475.708489 -252.623648 
L 476.873871 -254.266196 
L 478.039254 -255.908804 
L 479.204636 -257.551352 
L 480.370019 -259.193719 
L 481.535401 -260.835783 
L 482.700784 -262.477425 
L 483.866166 -264.118523 
L 485.031549 -265.758957 
L 486.196931 -267.398605 
L 487.362314 -269.037348 
L 488.527696 -270.675064 
L 489.693078 -272.311633 
L 490.858461 -273.946935 
L 492.023843 -275.58085 
L 493.189226 -277.213256 
L 494.354608 -278.844034 
L 495.519991 -280.473064 
L 496.685373 -282.100226 
L 497.850756 -283.725399 
L 499.016138 -285.348465 
L 500.181521 -286.969304 
L 501.346903 -288.587795 
L 502.512286 -290.203821 
L 503.677668 -291.817262 
L 504.843051 -293.427998 
L 506.008433 -295.035912 
L 507.173816 -296.640884 
L 508.339198 -298.242797 
L 509.504581 -299.841531 
L 510.669963 -301.43697 
L 511.835346 -303.028995 
L 513.000728 -304.617488 
L 514.16611 -306.202333 
L 515.331493 -307.783412 
L 516.496875 -309.360609 
L 517.662258 -310.933807 
L 518.82764 -312.502889 
L 519.993023 -314.06774 
L 521.158405 -315.628244 
L 522.323788 -317.184285 
L 523.48917 -318.735749 
L 524.654553 -320.28252 
L 525.819935 -321.824483 
L 526.985318 -323.361525 
L 528.1507 -324.893532 
L 529.316083 -326.420389 
L 530.481465 -327.941985 
L 531.646848 -329.458205 
L 532.81223 -330.968937 
L 533.977613 -332.474069 
L 535.142995 -333.97349 
L 536.308378 -335.467087 
L 537.47376 -336.95475 
L 538.639142 -338.436368 
L 539.804525 -339.911831 
L 540.969907 -341.381029 
L 542.13529 -342.843852 
L 543.300672 -344.300192 
L 544.466055 -345.74994 
L 545.631437 -347.192987 
L 546.79682 -348.629226 
L 547.962202 -350.05855 
L 549.127585 -351.480852 
L 550.292967 -352.896026 
L 551.45835 -354.303965 
L 552.623732 -355.704565 
L 553.789115 -357.09772 
L 554.954497 -358.483326 
L 556.11988 -359.86128 
L 557.285262 -361.231477 
L 558.450645 -362.593816 
L 559.616027 -363.948193 
L 560.78141 -365.294507 
L 561.946792 -366.632657 
L 563.112174 -367.962542 
L 564.277557 -369.284061 
L 565.442939 -370.597116 
L 566.608322 -371.901607 
L 567.773704 -373.197436 
L 568.939087 -374.484505 
L 570.104469 -375.762716 
L 571.269852 -377.031974 
L 572.435234 -378.292181 
L 573.600617 -379.543244 
L 574.765999 -380.785065 
L 575.931382 -382.017553 
L 577.096764 -383.240612 
L 578.262147 -384.454151 
L 579.427529 -385.658076 
L 580.592912 -386.852296 
L 581.758294 -388.036721 
L 582.923677 -389.211259 
L 584.089059 -390.375822 
L 585.254441 -391.53032 
L 586.419824 -392.674666 
L 587.585206 -393.808771 
L 588.750589 -394.932548 
L 589.915971 -396.045913 
L 591.081354 -397.148778 
L 592.246736 -398.24106 
L 593.412119 -399.322674 
L 594.577501 -400.393538 
L 595.742884 -401.453569 
L 596.908266 -402.502684 
L 598.073649 -403.540804 
L 599.239031 -404.567847 
L 600.404414 -405.583734 
L 601.569796 -406.588388 
L 602.735179 -407.581729 
L 603.900561 -408.56368 
L 605.065944 -409.534166 
L 606.231326 -410.493111 
L 607.396709 -411.440439 
L 608.562091 -412.376078 
L 609.727473 -413.299953 
L 610.892856 -414.211993 
L 612.058238 -415.112127 
L 613.223621 -416.000283 
L 614.389003 -416.876391 
L 615.554386 -417.740384 
L 616.719768 -418.592193 
L 617.885151 -419.43175 
L 619.050533 -420.258989 
L 620.215916 -421.073845 
L 621.381298 -421.876253 
L 622.546681 -422.66615 
L 623.712063 -423.443472 
L 624.877446 -424.208158 
L 626.042828 -424.960146 
L 627.208211 -425.699377 
L 628.373593 -426.425791 
L 629.538976 -427.13933 
L 630.704358 -427.839936 
L 631.869741 -428.527553 
L 633.035123 -429.202125 
L 634.200505 -429.863599 
L 635.365888 -430.511919 
L 636.53127 -431.147033 
L 637.696653 -431.76889 
L 638.862035 -432.377439 
L 640.027418 -432.97263 
L 641.1928 -433.554413 
L 642.358183 -434.122742 
L 643.523565 -434.677568 
L 644.688948 -435.218847 
L 645.85433 -435.746532 
L 647.019713 -436.260581 
L 648.185095 -436.760949 
L 649.350478 -437.247596 
L 650.51586 -437.720479 
L 651.681243 -438.179559 
L 652.846625 -438.624797 
L 654.012008 -439.056154 
L 655.17739 -439.473595 
L 656.342773 -439.877082 
L 657.508155 -440.266582 
L 658.673537 -440.642059 
L 659.83892 -441.003481 
L 661.004302 -441.350817 
L 662.169685 -441.684035 
L 663.335067 -442.003106 
L 664.50045 -442.308001 
L 665.665832 -442.598692 
L 666.831215 -442.875153 
L 667.996597 -443.137358 
L 669.16198 -443.385283 
L 670.327362 -443.618904 
L 671.492745 -443.838199 
L 672.658127 -444.043147 
L 673.82351 -444.233727 
L 674.988892 -444.40992 
L 676.154275 -444.571709 
L 677.319657 -444.719075 
L 678.48504 -444.852005 
L 679.650422 -444.970481 
L 680.815805 -445.074492 
L 681.981187 -445.164024 
L 683.146569 -445.239065 
L 684.311952 -445.299606 
L 685.477334 -445.345636 
L 686.642717 -445.377149 
L 687.808099 -445.394135 
L 688.973482 -445.396591 
L 690.138864 -445.38451 
L 691.304247 -445.357889 
L 692.469629 -445.316725 
L 693.635012 -445.261017 
L 694.800394 -445.190763 
L 695.965777 -445.105966 
L 697.131159 -445.006626 
L 698.296542 -444.892746 
L 699.461924 -444.764331 
L 700.627307 -444.621386 
L 701.792689 -444.463916 
L 702.958072 -444.291929 
L 704.123454 -444.105434 
L 705.288836 -443.90444 
L 706.454219 -443.688958 
L 707.619601 -443.459 
L 708.784984 -443.214579 
L 709.950366 -442.955709 
L 711.115749 -442.682406 
L 712.281131 -442.394684 
L 713.446514 -442.092563 
L 714.611896 -441.776061 
L 715.777279 -441.445197 
L 716.942661 -441.099993 
L 718.108044 -440.74047 
L 719.273426 -440.366651 
L 720.438809 -439.978561 
L 721.604191 -439.576226 
L 722.769574 -439.159671 
L 723.934956 -438.728924 
L 725.100339 -438.284015 
L 726.265721 -437.824972 
L 727.431104 -437.351828 
L 728.596486 -436.864614 
L 729.761868 -436.363363 
L 730.927251 -435.848109 
L 732.092633 -435.318889 
L 733.258016 -434.775739 
L 734.423398 -434.218697 
L 735.588781 -433.6478 
L 736.754163 -433.06309 
L 737.919546 -432.464607 
L 739.084928 -431.852394 
L 740.250311 -431.226494 
L 741.415693 -430.58695 
L 742.581076 -429.933809 
L 743.746458 -429.267117 
L 744.911841 -428.586922 
L 746.077223 -427.893272 
L 747.242606 -427.186218 
L 748.407988 -426.465809 
L 749.573371 -425.732099 
L 750.738753 -424.98514 
L 751.904136 -424.224987 
L 753.069518 -423.451694 
L 754.2349 -422.665318 
L 755.400283 -421.865917 
L 756.565665 -421.053548 
L 757.731048 -420.228272 
L 758.89643 -419.390148 
L 760.061813 -418.539239 
L 761.227195 -417.675607 
L 762.392578 -416.799315 
L 763.55796 -415.910429 
L 764.723343 -415.009015 
L 765.888725 -414.095138 
L 767.054108 -413.168867 
L 768.21949 -412.230272 
L 769.384873 -411.279421 
L 770.550255 -410.316385 
L 771.715638 -409.341237 
L 772.88102 -408.354049 
L 774.046403 -407.354896 
L 775.211785 -406.343851 
L 776.377168 -405.320992 
L 777.54255 -404.286395 
L 778.707932 -403.240138 
L 779.873315 -402.182299 
L 781.038697 -401.112959 
L 782.20408 -400.032197 
L 783.369462 -398.940097 
L 784.534845 -397.836741 
L 785.700227 -396.722211 
L 786.86561 -395.596593 
L 788.030992 -394.459972 
L 789.196375 -393.312435 
L 790.361757 -392.154069 
L 791.52714 -390.984962 
L 792.692522 -389.805203 
L 793.857905 -388.614883 
L 795.023287 -387.414091 
L 796.18867 -386.202921 
L 797.354052 -384.981464 
L 798.519435 -383.749814 
L 799.684817 -382.508066 
L 800.850199 -381.256315 
L 802.015582 -379.994658 
L 803.180964 -378.72319 
L 804.346347 -377.44201 
L 805.511729 -376.151216 
L 806.677112 -374.850908 
L 807.842494 -373.541186 
L 809.007877 -372.222152 
L 810.173259 -370.893906 
L 811.338642 -369.556552 
L 812.504024 -368.210194 
L 813.669407 -366.854934 
L 814.834789 -365.490879 
L 816.000172 -364.118133 
L 817.165554 -362.736804 
L 818.330937 -361.346999 
L 819.496319 -359.948825 
L 820.661702 -358.542391 
L 821.827084 -357.127806 
L 822.992467 -355.705181 
L 824.157849 -354.274626 
L 825.323231 -352.836252 
L 826.488614 -351.390172 
L 827.653996 -349.936499 
L 828.819379 -348.475345 
L 829.984761 -347.006825 
L 831.150144 -345.531054 
L 832.315526 -344.048146 
L 833.480909 -342.558219 
L 834.646291 -341.061387 
L 835.811674 -339.557769 
L 836.977056 -338.047483 
L 838.142439 -336.530645 
L 839.307821 -335.007376 
L 840.473204 -333.477795 
L 841.638586 -331.942022 
L 842.803969 -330.400176 
L 843.969351 -328.85238 
L 845.134734 -327.298755 
L 846.300116 -325.739423 
L 847.465499 -324.174506 
L 848.630881 -322.604128 
L 849.796263 -321.028411 
L 850.961646 -319.447481 
L 852.127028 -317.861461 
L 853.292411 -316.270476 
L 854.457793 -314.674652 
L 855.623176 -313.074115 
L 856.788558 -311.46899 
L 857.953941 -309.859404 
L 859.119323 -308.245484 
L 860.284706 -306.627357 
L 861.450088 -305.005151 
L 862.615471 -303.378995 
L 863.780853 -301.749016 
L 864.946236 -300.115343 
L 866.111618 -298.478105 
L 867.277001 -296.837432 
L 868.442383 -295.193453 
L 869.607766 -293.546298 
L 870.773148 -291.896097 
L 871.938531 -290.242982 
L 873.103913 -288.587082 
L 874.269295 -286.928529 
L 875.434678 -285.267454 
L 876.60006 -283.603987 
L 877.765443 -281.938262 
L 878.930825 -280.27041 
L 880.096208 -278.600563 
L 881.26159 -276.928853 
L 882.426973 -275.255412 
L 883.592355 -273.580373 
L 884.757738 -271.903869 
L 885.92312 -270.226032 
L 887.088503 -268.546996 
L 888.253885 -266.866893 
L 889.419268 -265.185857 
L 890.58465 -263.50402 
L 891.750033 -261.821517 
L 892.915415 -260.13848 
L 894.080798 -258.455042 
L 895.24618 -256.771338 
L 896.411562 -255.0875 
L 896.411562 -255.0875 
L 896.411562 -255.0875 
L 895.24618 -255.0875 
L 894.080798 -255.0875 
L 892.915415 -255.0875 
L 891.750033 -255.0875 
L 890.58465 -255.0875 
L 889.419268 -255.0875 
L 888.253885 -255.0875 
L 887.088503 -255.0875 
L 885.92312 -255.0875 
L 884.757738 -255.0875 
L 883.592355 -255.0875 
L 882.426973 -255.0875 
L 881.26159 -255.0875 
L 880.096208 -255.0875 
L 878.930825 -255.0875 
L 877.765443 -255.0875 
L 876.60006 -255.0875 
L 875.434678 -255.0875 
L 874.269295 -255.0875 
L 873.103913 -255.0875 
L 871.938531 -255.0875 
L 870.773148 -255.0875 
L 869.607766 -255.0875 
L 868.442383 -255.0875 
L 867.277001 -255.0875 
L 866.111618 -255.0875 
L 864.946236 -255.0875 
L 863.780853 -255.0875 
L 862.615471 -255.0875 
L 861.450088 -255.0875 
L 860.284706 -255.0875 
L 859.119323 -255.0875 
L 857.953941 -255.0875 
L 856.788558 -255.0875 
L 855.623176 -255.0875 
L 854.457793 -255.0875 
L 853.292411 -255.0875 
L 852.127028 -255.0875 
L 850.961646 -255.0875 
L 849.796263 -255.0875 
L 848.630881 -255.0875 
L 847.465499 -255.0875 
L 846.300116 -255.0875 
L 845.134734 -255.0875 
L 843.969351 -255.0875 
L 842.803969 -255.0875 
L 841.638586 -255.0875 
L 840.473204 -255.0875 
L 839.307821 -255.0875 
L 838.142439 -255.0875 
L 836.977056 -255.0875 
L 835.811674 -255.0875 
L 834.646291 -255.0875 
L 833.480909 -255.0875 
L 832.315526 -255.0875 
L 831.150144 -255.0875 
L 829.984761 -255.0875 
L 828.819379 -255.0875 
L 827.653996 -255.0875 
L 826.488614 -255.0875 
L 825.323231 -255.0875 
L 824.157849 -255.0875 
L 822.992467 -255.0875 
L 821.827084 -255.0875 
L 820.661702 -255.0875 
L 819.496319 -255.0875 
L 818.330937 -255.0875 
L 817.165554 -255.0875 
L 816.000172 -255.0875 
L 814.834789 -255.0875 
L 813.669407 -255.0875 
L 812.504024 -255.0875 
L 811.338642 -255.0875 
L 810.173259 -255.0875 
L 809.007877 -255.0875 
L 807.842494 -255.0875 
L 806.677112 -255.0875 
L 805.511729 -255.0875 
L 804.346347 -255.0875 
L 803.180964 -255.0875 
L 802.015582 -255.0875 
L 800.850199 -255.0875 
L 799.684817 -255.0875 
L 798.519435 -255.0875 
L 797.354052 -255.0875 
L 796.18867 -255.0875 
L 795.023287 -255.0875 
L 793.857905 -255.0875 
L 792.692522 -255.0875 
L 791.52714 -255.0875 
L 790.361757 -255.0875 
L 789.196375 -255.0875 
L 788.030992 -255.0875 
L 786.86561 -255.0875 
L 785.700227 -255.0875 
L 784.534845 -255.0875 
L 783.369462 -255.0875 
L 782.20408 -255.0875 
L 781.038697 -255.0875 
L 779.873315 -255.0875 
L 778.707932 -255.0875 
L 777.54255 -255.0875 
L 776.377168 -255.0875 
L 775.211785 -255.0875 
L 774.046403 -255.0875 
L 772.88102 -255.0875 
L 771.715638 -255.0875 
L 770.550255 -255.0875 
L 769.384873 -255.0875 
L 768.21949 -255.0875 
L 767.054108 -255.0875 
L 765.888725 -255.0875 
L 764.723343 -255.0875 
L 763.55796 -255.0875 
L 762.392578 -255.0875 
L 761.227195 -255.0875 
L 760.061813 -255.0875 
L 758.89643 -255.0875 
L 757.731048 -255.0875 
L 756.565665 -255.0875 
L 755.400283 -255.0875 
L 754.2349 -255.0875 
L 753.069518 -255.0875 
L 751.904136 -255.0875 
L 750.738753 -255.0875 
L 749.573371 -255.0875 
L 748.407988 -255.0875 
L 747.242606 -255.0875 
L 746.077223 -255.0875 
L 744.911841 -255.0875 
L 743.746458 -255.0875 
L 742.581076 -255.0875 
L 741.415693 -255.0875 
L 740.250311 -255.0875 
L 739.084928 -255.0875 
L 737.919546 -255.0875 
L 736.754163 -255.0875 
L 735.588781 -255.0875 
L 734.423398 -255.0875 
L 733.258016 -255.0875 
L 732.092633 -255.0875 
L 730.927251 -255.0875 
L 729.761868 -255.0875 
L 728.596486 -255.0875 
L 727.431104 -255.0875 
L 726.265721 -255.0875 
L 725.100339 -255.0875 
L 723.934956 -255.0875 
L 722.769574 -255.0875 
L 721.604191 -255.0875 
L 720.438809 -255.0875 
L 719.273426 -255.0875 
L 718.108044 -255.0875 
L 716.942661 -255.0875 
L 715.777279 -255.0875 
L 714.611896 -255.0875 
L 713.446514 -255.0875 
L 712.281131 -255.0875 
L 711.115749 -255.0875 
L 709.950366 -255.0875 
L 708.784984 -255.0875 
L 707.619601 -255.0875 
L 706.454219 -255.0875 
L 705.288836 -255.0875 
L 704.123454 -255.0875 
L 702.958072 -255.0875 
L 701.792689 -255.0875 
L 700.627307 -255.0875 
L 699.461924 -255.0875 
L 698.296542 -255.0875 
L 697.131159 -255.0875 
L 695.965777 -255.0875 
L 694.800394 -255.0875 
L 693.635012 -255.0875 
L 692.469629 -255.0875 
L 691.304247 -255.0875 
L 690.138864 -255.0875 
L 688.973482 -255.0875 
L 687.808099 -255.0875 
L 686.642717 -255.0875 
L 685.477334 -255.0875 
L 684.311952 -255.0875 
L 683.146569 -255.0875 
L 681.981187 -255.0875 
L 680.815805 -255.0875 
L 679.650422 -255.0875 
L 678.48504 -255.0875 
L 677.319657 -255.0875 
L 676.154275 -255.0875 
L 674.988892 -255.0875 
L 673.82351 -255.0875 
L 672.658127 -255.0875 
L 671.492745 -255.0875 
L 670.327362 -255.0875 
L 669.16198 -255.0875 
L 667.996597 -255.0875 
L 666.831215 -255.0875 
L 665.665832 -255.0875 
L 664.50045 -255.0875 
L 663.335067 -255.0875 
L 662.169685 -255.0875 
L 661.004302 -255.0875 
L 659.83892 -255.0875 
L 658.673537 -255.0875 
L 657.508155 -255.0875 
L 656.342773 -255.0875 
L 655.17739 -255.0875 
L 654.012008 -255.0875 
L 652.846625 -255.0875 
L 651.681243 -255.0875 
L 650.51586 -255.0875 
L 649.350478 -255.0875 
L 648.185095 -255.0875 
L 647.019713 -255.0875 
L 645.85433 -255.0875 
L 644.688948 -255.0875 
L 643.523565 -255.0875 
L 642.358183 -255.0875 
L 641.1928 -255.0875 
L 640.027418 -255.0875 
L 638.862035 -255.0875 
L 637.696653 -255.0875 
L 636.53127 -255.0875 
L 635.365888 -255.0875 
L 634.200505 -255.0875 
L 633.035123 -255.0875 
L 631.869741 -255.0875 
L 630.704358 -255.0875 
L 629.538976 -255.0875 
L 628.373593 -255.0875 
L 627.208211 -255.0875 
L 626.042828 -255.0875 
L 624.877446 -255.0875 
L 623.712063 -255.0875 
L 622.546681 -255.0875 
L 621.381298 -255.0875 
L 620.215916 -255.0875 
L 619.050533 -255.0875 
L 617.885151 -255.0875 
L 616.719768 -255.0875 
L 615.554386 -255.0875 
L 614.389003 -255.0875 
L 613.223621 -255.0875 
L 612.058238 -255.0875 
L 610.892856 -255.0875 
L 609.727473 -255.0875 
L 608.562091 -255.0875 
L 607.396709 -255.0875 
L 606.231326 -255.0875 
L 605.065944 -255.0875 
L 603.900561 -255.0875 
L 602.735179 -255.0875 
L 601.569796 -255.0875 
L 600.404414 -255.0875 
L 599.239031 -255.0875 
L 598.073649 -255.0875 
L 596.908266 -255.0875 
L 595.742884 -255.0875 
L 594.577501 -255.0875 
L 593.412119 -255.0875 
L 592.246736 -255.0875 
L 591.081354 -255.0875 
L 589.915971 -255.0875 
L 588.750589 -255.0875 
L 587.585206 -255.0875 
L 586.419824 -255.0875 
L 585.254441 -255.0875 
L 584.089059 -255.0875 
L 582.923677 -255.0875 
L 581.758294 -255.0875 
L 580.592912 -255.0875 
L 579.427529 -255.0875 
L 578.262147 -255.0875 
L 577.096764 -255.0875 
L 575.931382 -255.0875 
L 574.765999 -255.0875 
L 573.600617 -255.0875 
L 572.435234 -255.0875 
L 571.269852 -255.0875 
L 570.104469 -255.0875 
L 568.939087 -255.0875 
L 567.773704 -255.0875 
L 566.608322 -255.0875 
L 565.442939 -255.0875 
L 564.277557 -255.0875 
L 563.112174 -255.0875 
L 561.946792 -255.0875 
L 560.78141 -255.0875 
L 559.616027 -255.0875 
L 558.450645 -255.0875 
L 557.285262 -255.0875 
L 556.11988 -255.0875 
L 554.954497 -255.0875 
L 553.789115 -255.0875 
L 552.623732 -255.0875 
L 551.45835 -255.0875 
L 550.292967 -255.0875 
L 549.127585 -255.0875 
L 547.962202 -255.0875 
L 546.79682 -255.0875 
L 545.631437 -255.0875 
L 544.466055 -255.0875 
L 543.300672 -255.0875 
L 542.13529 -255.0875 
L 540.969907 -255.0875 
L 539.804525 -255.0875 
L 538.639142 -255.0875 
L 537.47376 -255.0875 
L 536.308378 -255.0875 
L 535.142995 -255.0875 
L 533.977613 -255.0875 
L 532.81223 -255.0875 
L 531.646848 -255.0875 
L 530.481465 -255.0875 
L 529.316083 -255.0875 
L 528.1507 -255.0875 
L 526.985318 -255.0875 
L 525.819935 -255.0875 
L 524.654553 -255.0875 
L 523.48917 -255.0875 
L 522.323788 -255.0875 
L 521.158405 -255.0875 
L 519.993023 -255.0875 
L 518.82764 -255.0875 
L 517.662258 -255.0875 
L 516.496875 -255.0875 
L 515.331493 -255.0875 
L 514.16611 -255.0875 
L 513.000728 -255.0875 
L 511.835346 -255.0875 
L 510.669963 -255.0875 
L 509.504581 -255.0875 
L 508.339198 -255.0875 
L 507.173816 -255.0875 
L 506.008433 -255.0875 
L 504.843051 -255.0875 
L 503.677668 -255.0875 
L 502.512286 -255.0875 
L 501.346903 -255.0875 
L 500.181521 -255.0875 
L 499.016138 -255.0875 
L 497.850756 -255.0875 
L 496.685373 -255.0875 
L 495.519991 -255.0875 
L 494.354608 -255.0875 
L 493.189226 -255.0875 
L 492.023843 -255.0875 
L 490.858461 -255.0875 
L 489.693078 -255.0875 
L 488.527696 -255.0875 
L 487.362314 -255.0875 
L 486.196931 -255.0875 
L 485.031549 -255.0875 
L 483.866166 -255.0875 
L 482.700784 -255.0875 
L 481.535401 -255.0875 
L 480.370019 -255.0875 
L 479.204636 -255.0875 
L 478.039254 -255.0875 
L 476.873871 -255.0875 
L 475.708489 -255.0875 
L 474.543106 -255.0875 
L 473.377724 -255.0875 
L 472.212341 -255.0875 
L 471.046959 -255.0875 
L 469.881576 -255.0875 
L 468.716194 -255.0875 
L 467.550811 -255.0875 
L 466.385429 -255.0875 
L 465.220047 -255.0875 
L 464.054664 -255.0875 
L 462.889282 -255.0875 
L 461.723899 -255.0875 
L 460.558517 -255.0875 
L 459.393134 -255.0875 
L 458.227752 -255.0875 
L 457.062369 -255.0875 
L 455.896987 -255.0875 
L 454.731604 -255.0875 
L 453.566222 -255.0875 
L 452.400839 -255.0875 
L 451.235457 -255.0875 
L 450.070074 -255.0875 
L 448.904692 -255.0875 
L 447.739309 -255.0875 
L 446.573927 -255.0875 
L 445.408544 -255.0875 
L 444.243162 -255.0875 
L 443.077779 -255.0875 
L 441.912397 -255.0875 
L 440.747015 -255.0875 
L 439.581632 -255.0875 
L 438.41625 -255.0875 
L 437.250867 -255.0875 
L 436.085485 -255.0875 
L 434.920102 -255.0875 
L 433.75472 -255.0875 
L 432.589337 -255.0875 
L 431.423955 -255.0875 
L 430.258572 -255.0875 
L 429.09319 -255.0875 
L 427.927807 -255.0875 
L 426.762425 -255.0875 
L 425.597042 -255.0875 
L 424.43166 -255.0875 
L 423.266277 -255.0875 
L 422.100895 -255.0875 
L 420.935512 -255.0875 
L 419.77013 -255.0875 
L 418.604747 -255.0875 
L 417.439365 -255.0875 
L 416.273983 -255.0875 
L 415.1086 -255.0875 
L 413.943218 -255.0875 
L 412.777835 -255.0875 
L 411.612453 -255.0875 
L 410.44707 -255.0875 
L 409.281688 -255.0875 
L 408.116305 -255.0875 
L 406.950923 -255.0875 
L 405.78554 -255.0875 
L 404.620158 -255.0875 
L 403.454775 -255.0875 
L 402.289393 -255.0875 
L 401.12401 -255.0875 
L 399.958628 -255.0875 
L 398.793245 -255.0875 
L 397.627863 -255.0875 
L 396.46248 -255.0875 
L 395.297098 -255.0875 
L 394.131715 -255.0875 
L 392.966333 -255.0875 
L 391.800951 -255.0875 
L 390.635568 -255.0875 
L 389.470186 -255.0875 
L 388.304803 -255.0875 
L 387.139421 -255.0875 
L 385.974038 -255.0875 
L 384.808656 -255.0875 
L 383.643273 -255.0875 
L 382.477891 -255.0875 
L 381.312508 -255.0875 
L 380.147126 -255.0875 
L 378.981743 -255.0875 
L 377.816361 -255.0875 
L 376.650978 -255.0875 
L 375.485596 -255.0875 
L 374.320213 -255.0875 
L 373.154831 -255.0875 
L 371.989448 -255.0875 
L 370.824066 -255.0875 
L 369.658684 -255.0875 
L 368.493301 -255.0875 
L 367.327919 -255.0875 
L 366.162536 -255.0875 
L 364.997154 -255.0875 
L 363.831771 -255.0875 
L 362.666389 -255.0875 
L 361.501006 -255.0875 
L 360.335624 -255.0875 
L 359.170241 -255.0875 
L 358.004859 -255.0875 
L 356.839476 -255.0875 
L 355.674094 -255.0875 
L 354.508711 -255.0875 
L 353.343329 -255.0875 
L 352.177946 -255.0875 
L 351.012564 -255.0875 
L 349.847181 -255.0875 
L 348.681799 -255.0875 
L 347.516416 -255.0875 
L 346.351034 -255.0875 
L 345.185652 -255.0875 
L 344.020269 -255.0875 
L 342.854887 -255.0875 
L 341.689504 -255.0875 
L 340.524122 -255.0875 
L 339.358739 -255.0875 
L 338.193357 -255.0875 
L 337.027974 -255.0875 
L 335.862592 -255.0875 
L 334.697209 -255.0875 
L 333.531827 -255.0875 
L 332.366444 -255.0875 
L 331.201062 -255.0875 
L 330.035679 -255.0875 
L 328.870297 -255.0875 
L 327.704914 -255.0875 
L 326.539532 -255.0875 
L 325.374149 -255.0875 
L 324.208767 -255.0875 
L 323.043384 -255.0875 
L 321.878002 -255.0875 
L 320.71262 -255.0875 
L 319.547237 -255.0875 
L 318.381855 -255.0875 
L 317.216472 -255.0875 
L 316.05109 -255.0875 
L 314.885707 -255.0875 
L 313.720325 -255.0875 
L 312.554942 -255.0875 
L 311.38956 -255.0875 
L 310.224177 -255.0875 
L 309.058795 -255.0875 
L 307.893412 -255.0875 
L 306.72803 -255.0875 
L 305.562647 -255.0875 
L 304.397265 -255.0875 
L 303.231882 -255.0875 
L 302.0665 -255.0875 
L 300.901117 -255.0875 
L 299.735735 -255.0875 
L 298.570352 -255.0875 
L 297.40497 -255.0875 
L 296.239588 -255.0875 
L 295.074205 -255.0875 
L 293.908823 -255.0875 
L 292.74344 -255.0875 
L 291.578058 -255.0875 
L 290.412675 -255.0875 
L 289.247293 -255.0875 
L 288.08191 -255.0875 
L 286.916528 -255.0875 
L 285.751145 -255.0875 
L 284.585763 -255.0875 
L 283.42038 -255.0875 
L 282.254998 -255.0875 
L 281.089615 -255.0875 
L 279.924233 -255.0875 
L 278.75885 -255.0875 
L 277.593468 -255.0875 
L 276.428085 -255.0875 
L 275.262703 -255.0875 
L 274.09732 -255.0875 
L 272.931938 -255.0875 
L 271.766556 -255.0875 
L 270.601173 -255.0875 
L 269.435791 -255.0875 
L 268.270408 -255.0875 
L 267.105026 -255.0875 
L 265.939643 -255.0875 
L 264.774261 -255.0875 
L 263.608878 -255.0875 
L 262.443496 -255.0875 
L 261.278113 -255.0875 
L 260.112731 -255.0875 
L 258.947348 -255.0875 
L 257.781966 -255.0875 
L 256.616583 -255.0875 
L 255.451201 -255.0875 
L 254.285818 -255.0875 
L 253.120436 -255.0875 
L 251.955053 -255.0875 
L 250.789671 -255.0875 
L 249.624289 -255.0875 
L 248.458906 -255.0875 
L 247.293524 -255.0875 
L 246.128141 -255.0875 
L 244.962759 -255.0875 
L 243.797376 -255.0875 
L 242.631994 -255.0875 
L 241.466611 -255.0875 
L 240.301229 -255.0875 
L 239.135846 -255.0875 
L 237.970464 -255.0875 
L 236.805081 -255.0875 
L 235.639699 -255.0875 
L 234.474316 -255.0875 
L 233.308934 -255.0875 
L 232.143551 -255.0875 
L 230.978169 -255.0875 
L 229.812786 -255.0875 
L 228.647404 -255.0875 
L 227.482021 -255.0875 
L 226.316639 -255.0875 
L 225.151257 -255.0875 
L 223.985874 -255.0875 
L 222.820492 -255.0875 
L 221.655109 -255.0875 
L 220.489727 -255.0875 
L 219.324344 -255.0875 
L 218.158962 -255.0875 
L 216.993579 -255.0875 
L 215.828197 -255.0875 
L 214.662814 -255.0875 
L 213.497432 -255.0875 
L 212.332049 -255.0875 
L 211.166667 -255.0875 
L 210.001284 -255.0875 
L 208.835902 -255.0875 
L 207.670519 -255.0875 
L 206.505137 -255.0875 
L 205.339754 -255.0875 
L 204.174372 -255.0875 
L 203.008989 -255.0875 
L 201.843607 -255.0875 
L 200.678225 -255.0875 
L 199.512842 -255.0875 
L 198.34746 -255.0875 
L 197.182077 -255.0875 
L 196.016695 -255.0875 
L 194.851312 -255.0875 
L 193.68593 -255.0875 
L 192.520547 -255.0875 
L 191.355165 -255.0875 
L 190.189782 -255.0875 
L 189.0244 -255.0875 
L 187.859017 -255.0875 
L 186.693635 -255.0875 
L 185.528252 -255.0875 
L 184.36287 -255.0875 
L 183.197487 -255.0875 
L 182.032105 -255.0875 
L 180.866722 -255.0875 
L 179.70134 -255.0875 
L 178.535957 -255.0875 
L 177.370575 -255.0875 
L 176.205193 -255.0875 
L 175.03981 -255.0875 
L 173.874428 -255.0875 
L 172.709045 -255.0875 
L 171.543663 -255.0875 
L 170.37828 -255.0875 
L 169.212898 -255.0875 
L 168.047515 -255.0875 
L 166.882133 -255.0875 
L 165.71675 -255.0875 
L 164.551368 -255.0875 
L 163.385985 -255.0875 
L 162.220603 -255.0875 
L 161.05522 -255.0875 
L 159.889838 -255.0875 
L 158.724455 -255.0875 
L 157.559073 -255.0875 
L 156.39369 -255.0875 
L 155.228308 -255.0875 
L 154.062926 -255.0875 
L 152.897543 -255.0875 
L 151.732161 -255.0875 
L 150.566778 -255.0875 
L 149.401396 -255.0875 
L 148.236013 -255.0875 
L 147.070631 -255.0875 
L 145.905248 -255.0875 
L 144.739866 -255.0875 
L 143.574483 -255.0875 
L 142.409101 -255.0875 
L 141.243718 -255.0875 
L 140.078336 -255.0875 
L 138.912953 -255.0875 
L 137.747571 -255.0875 
L 136.582188 -255.0875 
L 135.416806 -255.0875 
L 134.251423 -255.0875 
L 133.086041 -255.0875 
L 131.920658 -255.0875 
L 130.755276 -255.0875 
L 129.589894 -255.0875 
L 128.424511 -255.0875 
L 127.259129 -255.0875 
L 126.093746 -255.0875 
L 124.928364 -255.0875 
L 123.762981 -255.0875 
L 122.597599 -255.0875 
L 121.432216 -255.0875 
L 120.266834 -255.0875 
L 119.101451 -255.0875 
L 117.936069 -255.0875 
L 116.770686 -255.0875 
L 115.605304 -255.0875 
L 114.439921 -255.0875 
L 113.274539 -255.0875 
L 112.109156 -255.0875 
L 110.943774 -255.0875 
L 109.778391 -255.0875 
L 108.613009 -255.0875 
L 107.447626 -255.0875 
L 106.282244 -255.0875 
L 105.116862 -255.0875 
L 103.951479 -255.0875 
L 102.786097 -255.0875 
L 101.620714 -255.0875 
L 100.455332 -255.0875 
L 99.289949 -255.0875 
L 98.124567 -255.0875 
L 96.959184 -255.0875 
L 95.793802 -255.0875 
L 94.628419 -255.0875 
L 93.463037 -255.0875 
L 92.297654 -255.0875 
L 91.132272 -255.0875 
L 89.966889 -255.0875 
L 88.801507 -255.0875 
L 87.636124 -255.0875 
L 86.470742 -255.0875 
L 85.305359 -255.0875 
L 84.139977 -255.0875 
L 82.974594 -255.0875 
L 81.809212 -255.0875 
L 80.64383 -255.0875 
L 79.478447 -255.0875 
L 78.313065 -255.0875 
L 77.147682 -255.0875 
L 75.9823 -255.0875 
L 74.816917 -255.0875 
L 73.651535 -255.0875 
L 72.486152 -255.0875 
L 71.32077 -255.0875 
L 70.155387 -255.0875 
L 68.990005 -255.0875 
L 67.824622 -255.0875 
L 66.65924 -255.0875 
L 65.493857 -255.0875 
L 64.328475 -255.0875 
L 63.163092 -255.0875 
L 61.99771 -255.0875 
L 60.832327 -255.0875 
L 59.666945 -255.0875 
L 58.501563 -255.0875 
z
" style="stroke: #a3583c; stroke-opacity: 0.08"/>
    </defs>
    <g clip-path="url(#p496ef89dca)">
     <use xlink:href="#ma27666001a" x="0" y="499.624687" style="fill: #a3583c; fill-opacity: 0.08; stroke: #a3583c; stroke-opacity: 0.08"/>
    </g>
   </g>
   <g id="matplotlib.axis_1">
    <g id="xtick_1">
     <g id="line2d_1">
      <path d="M 58.501563 453.877187 
L 58.501563 35.197187 
" clip-path="url(#p496ef89dca)" style="fill: none; stroke: #d9cbb6; stroke-opacity: 0.45; stroke-width: 0.8; stroke-linecap: square"/>
     </g>
     <g id="line2d_2">
      <defs>
       <path id="m616badc2b4" d="M 0 0 
L 0 3.5 
" style="stroke: #756a5d; stroke-width: 0.8"/>
      </defs>
      <g>
       <use xlink:href="#m616badc2b4" x="58.501563" y="453.877187" style="fill: #756a5d; stroke: #756a5d; stroke-width: 0.8"/>
      </g>
     </g>
     <g id="text_1">
      <text style="font-size: 11px; font-family: 'DejaVu Serif'; text-anchor: middle; fill: #756a5d" x="58.501563" y="469.235469" transform="rotate(-0 58.501563 469.235469)">0.0</text>
     </g>
    </g>
    <g id="xtick_2">
     <g id="line2d_3">
      <path d="M 226.083562 453.877187 
L 226.083562 35.197187 
" clip-path="url(#p496ef89dca)" style="fill: none; stroke: #d9cbb6; stroke-opacity: 0.45; stroke-width: 0.8; stroke-linecap: square"/>
     </g>
     <g id="line2d_4">
      <g>
       <use xlink:href="#m616badc2b4" x="226.083562" y="453.877187" style="fill: #756a5d; stroke: #756a5d; stroke-width: 0.8"/>
      </g>
     </g>
     <g id="text_2">
      <text style="font-size: 11px; font-family: 'DejaVu Serif'; text-anchor: middle; fill: #756a5d" x="226.083562" y="469.235469" transform="rotate(-0 226.083562 469.235469)">0.2</text>
     </g>
    </g>
    <g id="xtick_3">
     <g id="line2d_5">
      <path d="M 393.665562 453.877187 
L 393.665562 35.197187 
" clip-path="url(#p496ef89dca)" style="fill: none; stroke: #d9cbb6; stroke-opacity: 0.45; stroke-width: 0.8; stroke-linecap: square"/>
     </g>
     <g id="line2d_6">
      <g>
       <use xlink:href="#m616badc2b4" x="393.665562" y="453.877187" style="fill: #756a5d; stroke: #756a5d; stroke-width: 0.8"/>
      </g>
     </g>
     <g id="text_3">
      <text style="font-size: 11px; font-family: 'DejaVu Serif'; text-anchor: middle; fill: #756a5d" x="393.665562" y="469.235469" transform="rotate(-0 393.665562 469.235469)">0.4</text>
     </g>
    </g>
    <g id="xtick_4">
     <g id="line2d_7">
      <path d="M 561.247563 453.877187 
L 561.247563 35.197187 
" clip-path="url(#p496ef89dca)" style="fill: none; stroke: #d9cbb6; stroke-opacity: 0.45; stroke-width: 0.8; stroke-linecap: square"/>
     </g>
     <g id="line2d_8">
      <g>
       <use xlink:href="#m616badc2b4" x="561.247563" y="453.877187" style="fill: #756a5d; stroke: #756a5d; stroke-width: 0.8"/>
      </g>
     </g>
     <g id="text_4">
      <text style="font-size: 11px; font-family: 'DejaVu Serif'; text-anchor: middle; fill: #756a5d" x="561.247563" y="469.235469" transform="rotate(-0 561.247563 469.235469)">0.6</text>
     </g>
    </g>
    <g id="xtick_5">
     <g id="line2d_9">
      <path d="M 728.829562 453.877187 
L 728.829562 35.197187 
" clip-path="url(#p496ef89dca)" style="fill: none; stroke: #d9cbb6; stroke-opacity: 0.45; stroke-width: 0.8; stroke-linecap: square"/>
     </g>
     <g id="line2d_10">
      <g>
       <use xlink:href="#m616badc2b4" x="728.829562" y="453.877187" style="fill: #756a5d; stroke: #756a5d; stroke-width: 0.8"/>
      </g>
     </g>
     <g id="text_5">
      <text style="font-size: 11px; font-family: 'DejaVu Serif'; text-anchor: middle; fill: #756a5d" x="728.829562" y="469.235469" transform="rotate(-0 728.829562 469.235469)">0.8</text>
     </g>
    </g>
    <g id="xtick_6">
     <g id="line2d_11">
      <path d="M 896.411562 453.877187 
L 896.411562 35.197187 
" clip-path="url(#p496ef89dca)" style="fill: none; stroke: #d9cbb6; stroke-opacity: 0.45; stroke-width: 0.8; stroke-linecap: square"/>
     </g>
     <g id="line2d_12">
      <g>
       <use xlink:href="#m616badc2b4" x="896.411562" y="453.877187" style="fill: #756a5d; stroke: #756a5d; stroke-width: 0.8"/>
      </g>
     </g>
     <g id="text_6">
      <text style="font-size: 11px; font-family: 'DejaVu Serif'; text-anchor: middle; fill: #756a5d" x="896.411562" y="469.235469" transform="rotate(-0 896.411562 469.235469)">1.0</text>
     </g>
    </g>
    <g id="text_7">
     <text style="font-size: 13px; font-family: 'DejaVu Serif'; text-anchor: middle; fill: #1f1b16" x="477.456563" y="485.401094" transform="rotate(-0 477.456563 485.401094)">Orbital phase</text>
    </g>
   </g>
   <g id="matplotlib.axis_2">
    <g id="ytick_1">
     <g id="line2d_13">
      <path d="M 58.501563 443.151433 
L 896.411562 443.151433 
" clip-path="url(#p496ef89dca)" style="fill: none; stroke: #d9cbb6; stroke-opacity: 0.45; stroke-width: 0.8; stroke-linecap: square"/>
     </g>
     <g id="line2d_14">
      <defs>
       <path id="mdab9ff7831" d="M 0 0 
L -3.5 0 
" style="stroke: #756a5d; stroke-width: 0.8"/>
      </defs>
      <g>
       <use xlink:href="#mdab9ff7831" x="58.501563" y="443.151433" style="fill: #756a5d; stroke: #756a5d; stroke-width: 0.8"/>
      </g>
     </g>
     <g id="text_8">
      <text style="font-size: 11px; font-family: 'DejaVu Serif'; text-anchor: end; fill: #756a5d" x="51.501563" y="447.330574" transform="rotate(-0 51.501563 447.330574)">−15</text>
     </g>
    </g>
    <g id="ytick_2">
     <g id="line2d_15">
      <path d="M 58.501563 376.946685 
L 896.411562 376.946685 
" clip-path="url(#p496ef89dca)" style="fill: none; stroke: #d9cbb6; stroke-opacity: 0.45; stroke-width: 0.8; stroke-linecap: square"/>
     </g>
     <g id="line2d_16">
      <g>
       <use xlink:href="#mdab9ff7831" x="58.501563" y="376.946685" style="fill: #756a5d; stroke: #756a5d; stroke-width: 0.8"/>
      </g>
     </g>
     <g id="text_9">
      <text style="font-size: 11px; font-family: 'DejaVu Serif'; text-anchor: end; fill: #756a5d" x="51.501563" y="381.125825" transform="rotate(-0 51.501563 381.125825)">−10</text>
     </g>
    </g>
    <g id="ytick_3">
     <g id="line2d_17">
      <path d="M 58.501563 310.741936 
L 896.411562 310.741936 
" clip-path="url(#p496ef89dca)" style="fill: none; stroke: #d9cbb6; stroke-opacity: 0.45; stroke-width: 0.8; stroke-linecap: square"/>
     </g>
     <g id="line2d_18">
      <g>
       <use xlink:href="#mdab9ff7831" x="58.501563" y="310.741936" style="fill: #756a5d; stroke: #756a5d; stroke-width: 0.8"/>
      </g>
     </g>
     <g id="text_10">
      <text style="font-size: 11px; font-family: 'DejaVu Serif'; text-anchor: end; fill: #756a5d" x="51.501563" y="314.921077" transform="rotate(-0 51.501563 314.921077)">−5</text>
     </g>
    </g>
    <g id="ytick_4">
     <g id="line2d_19">
      <path d="M 58.501563 244.537187 
L 896.411562 244.537187 
" clip-path="url(#p496ef89dca)" style="fill: none; stroke: #d9cbb6; stroke-opacity: 0.45; stroke-width: 0.8; stroke-linecap: square"/>
     </g>
     <g id="line2d_20">
      <g>
       <use xlink:href="#mdab9ff7831" x="58.501563" y="244.537187" style="fill: #756a5d; stroke: #756a5d; stroke-width: 0.8"/>
      </g>
     </g>
     <g id="text_11">
      <text style="font-size: 11px; font-family: 'DejaVu Serif'; text-anchor: end; fill: #756a5d" x="51.501563" y="248.716328" transform="rotate(-0 51.501563 248.716328)">0</text>
     </g>
    </g>
    <g id="ytick_5">
     <g id="line2d_21">
      <path d="M 58.501563 178.332439 
L 896.411562 178.332439 
" clip-path="url(#p496ef89dca)" style="fill: none; stroke: #d9cbb6; stroke-opacity: 0.45; stroke-width: 0.8; stroke-linecap: square"/>
     </g>
     <g id="line2d_22">
      <g>
       <use xlink:href="#mdab9ff7831" x="58.501563" y="178.332439" style="fill: #756a5d; stroke: #756a5d; stroke-width: 0.8"/>
      </g>
     </g>
     <g id="text_12">
      <text style="font-size: 11px; font-family: 'DejaVu Serif'; text-anchor: end; fill: #756a5d" x="51.501563" y="182.51158" transform="rotate(-0 51.501563 182.51158)">5</text>
     </g>
    </g>
    <g id="ytick_6">
     <g id="line2d_23">
      <path d="M 58.501563 112.12769 
L 896.411562 112.12769 
" clip-path="url(#p496ef89dca)" style="fill: none; stroke: #d9cbb6; stroke-opacity: 0.45; stroke-width: 0.8; stroke-linecap: square"/>
     </g>
     <g id="line2d_24">
      <g>
       <use xlink:href="#mdab9ff7831" x="58.501563" y="112.12769" style="fill: #756a5d; stroke: #756a5d; stroke-width: 0.8"/>
      </g>
     </g>
     <g id="text_13">
      <text style="font-size: 11px; font-family: 'DejaVu Serif'; text-anchor: end; fill: #756a5d" x="51.501563" y="116.306831" transform="rotate(-0 51.501563 116.306831)">10</text>
     </g>
    </g>
    <g id="ytick_7">
     <g id="line2d_25">
      <path d="M 58.501563 45.922942 
L 896.411562 45.922942 
" clip-path="url(#p496ef89dca)" style="fill: none; stroke: #d9cbb6; stroke-opacity: 0.45; stroke-width: 0.8; stroke-linecap: square"/>
     </g>
     <g id="line2d_26">
      <g>
       <use xlink:href="#mdab9ff7831" x="58.501563" y="45.922942" style="fill: #756a5d; stroke: #756a5d; stroke-width: 0.8"/>
      </g>
     </g>
     <g id="text_14">
      <text style="font-size: 11px; font-family: 'DejaVu Serif'; text-anchor: end; fill: #756a5d" x="51.501563" y="50.102083" transform="rotate(-0 51.501563 50.102083)">15</text>
     </g>
    </g>
    <g id="text_15">
     <text style="font-size: 13px; font-family: 'DejaVu Serif'; text-anchor: middle; fill: #1f1b16" x="21.397969" y="244.537187" transform="rotate(-90 21.397969 244.537187)">Stellar radial velocity (m/s)</text>
    </g>
   </g>
   <g id="line2d_27">
    <path d="M 58.501563 244.537187 
L 81.809212 278.03677 
L 94.628419 296.077044 
L 105.116862 310.478099 
L 114.439921 322.927483 
L 122.597599 333.497834 
L 130.755276 343.724313 
L 138.912953 353.567821 
L 145.905248 361.671839 
L 152.897543 369.444345 
L 159.889838 376.863779 
L 166.882133 383.90966 
L 172.709045 389.481885 
L 178.535957 394.77068 
L 184.36287 399.766072 
L 190.189782 404.458702 
L 196.016695 408.839836 
L 201.843607 412.901382 
L 207.670519 416.635905 
L 212.332049 419.383497 
L 216.993579 421.914295 
L 221.655109 424.225427 
L 226.316639 426.314301 
L 230.978169 428.178612 
L 235.639699 429.816338 
L 240.301229 431.225748 
L 244.962759 432.405397 
L 249.624289 433.354128 
L 254.285818 434.071073 
L 258.947348 434.555653 
L 263.608878 434.807576 
L 268.270408 434.826836 
L 272.931938 434.613711 
L 277.593468 434.168763 
L 282.254998 433.492834 
L 286.916528 432.587046 
L 291.578058 431.452794 
L 296.239588 430.091746 
L 300.901117 428.505842 
L 305.562647 426.697283 
L 310.224177 424.668534 
L 314.885707 422.422317 
L 319.547237 419.961606 
L 324.208767 417.289623 
L 330.035679 413.657846 
L 335.862592 409.708677 
L 341.689504 405.44997 
L 347.516416 400.890126 
L 353.343329 396.038075 
L 359.170241 390.903256 
L 364.997154 385.4956 
L 370.824066 379.82551 
L 377.816361 372.6903 
L 384.808656 365.212404 
L 391.800951 357.412229 
L 398.793245 349.310967 
L 406.950923 339.508238 
L 415.1086 329.361519 
L 424.43166 317.391672 
L 434.920102 303.517428 
L 446.573927 287.692484 
L 460.558517 268.293722 
L 486.196931 232.226083 
L 504.843051 206.196689 
L 517.662258 188.690881 
L 528.1507 174.731156 
L 537.47376 162.669937 
L 546.79682 150.995461 
L 554.954497 141.141361 
L 563.112174 131.662146 
L 570.104469 123.861971 
L 577.096764 116.384075 
L 584.089059 109.248865 
L 591.081354 102.475909 
L 596.908266 97.122003 
L 602.735179 92.042959 
L 608.562091 87.24861 
L 614.389003 82.748296 
L 620.215916 78.550842 
L 626.042828 74.664541 
L 631.869741 71.097135 
L 636.53127 68.477654 
L 641.1928 66.070274 
L 645.85433 63.878155 
L 650.51586 61.904209 
L 655.17739 60.151093 
L 659.83892 58.621206 
L 664.50045 57.316687 
L 669.16198 56.239404 
L 673.82351 55.390961 
L 678.48504 54.772683 
L 683.146569 54.385623 
L 687.808099 54.230552 
L 692.469629 54.307962 
L 697.131159 54.618062 
L 701.792689 55.160772 
L 706.454219 55.935729 
L 711.115749 56.942282 
L 715.777279 58.17949 
L 720.438809 59.646126 
L 725.100339 61.340673 
L 729.761868 63.261325 
L 734.423398 65.405991 
L 739.084928 67.772293 
L 743.746458 70.35757 
L 748.407988 73.158878 
L 753.069518 76.172993 
L 758.89643 80.234539 
L 764.723343 84.615673 
L 770.550255 89.308303 
L 776.377168 94.303695 
L 782.20408 99.59249 
L 788.030992 105.164715 
L 793.857905 111.009805 
L 800.850199 118.368372 
L 807.842494 126.083501 
L 814.834789 134.133809 
L 821.827084 142.496882 
L 829.984761 152.617862 
L 838.142439 163.094042 
L 847.465499 175.450182 
L 857.953941 189.765284 
L 869.607766 206.07839 
L 884.757738 227.720819 
L 896.411562 244.537187 
L 896.411562 244.537187 
" clip-path="url(#p496ef89dca)" style="fill: none; stroke: #a3583c; stroke-width: 2.6; stroke-linecap: square"/>
   </g>
   <g id="line2d_28">
    <path d="M 58.501563 244.537187 
L 896.411562 244.537187 
" clip-path="url(#p496ef89dca)" style="fill: none; stroke-dasharray: 5.365,2.32; stroke-dashoffset: 0; stroke: #9b9184; stroke-opacity: 0.65; stroke-width: 1.45"/>
   </g>
   <g id="patch_3">
    <path d="M 58.501563 453.877187 
L 58.501563 35.197187 
" style="fill: none; stroke: #b9a98f; stroke-width: 0.8; stroke-linejoin: miter; stroke-linecap: square"/>
   </g>
   <g id="patch_4">
    <path d="M 896.411562 453.877187 
L 896.411562 35.197187 
" style="fill: none; stroke: #b9a98f; stroke-width: 0.8; stroke-linejoin: miter; stroke-linecap: square"/>
   </g>
   <g id="patch_5">
    <path d="M 58.501563 453.877187 
L 896.411562 453.877187 
" style="fill: none; stroke: #b9a98f; stroke-width: 0.8; stroke-linejoin: miter; stroke-linecap: square"/>
   </g>
   <g id="patch_6">
    <path d="M 58.501563 35.197187 
L 896.411562 35.197187 
" style="fill: none; stroke: #b9a98f; stroke-width: 0.8; stroke-linejoin: miter; stroke-linecap: square"/>
   </g>
   <g id="text_16">
    <g id="patch_7">
     <path d="M 71.070213 72.760563 
L 349.477713 72.760563 
Q 352.557713 72.760563 352.557713 69.680563 
L 352.557713 56.131188 
Q 352.557713 53.051188 349.477713 53.051188 
L 71.070213 53.051188 
Q 67.990213 53.051188 67.990213 56.131188 
L 67.990213 69.680563 
Q 67.990213 72.760563 71.070213 72.760563 
z
" style="fill: #fffaf0; opacity: 0.88"/>
    </g>
    <text style="font-size: 14px; font-family: 'DejaVu Serif'; text-anchor: start; fill: #756a5d" x="71.070213" y="66.769" transform="rotate(-0 71.070213 66.769)">K ≈ 14.4 m s^-1 · P ≈ 1.58 d · e = 0.01</text>
   </g>
   <g id="text_17">
    <text style="font-size: 10.5px; font-family: 'DejaVu Serif'; text-anchor: end; fill: #756a5d" x="888.032462" y="443.170619" transform="rotate(-0 888.032462 443.170619)">single-planet Keplerian model</text>
   </g>
   <g id="text_18">
    <text style="font-weight: 700; font-size: 18px; font-family: 'DejaVu Serif'; text-anchor: start; fill: #1f1b16" x="58.501563" y="25.197187" transform="rotate(-0 58.501563 25.197187)">Keplerian RV model — GJ 1214 b</text>
   </g>
  </g>
 </g>
 <defs>
  <clipPath id="p496ef89dca">
   <rect x="58.501563" y="35.197187" width="837.91" height="418.68"/>
  </clipPath>
 </defs>
</svg>
