<?xml version="1.0" encoding="utf-8" standalone="no"?>
<!DOCTYPE svg PUBLIC "-//W3C//DTD SVG 1.1//EN"
  "http://www.w3.org/Graphics/SVG/1.1/DTD/svg11.dtd">
<svg xmlns:xlink="http://www.w3.org/1999/xlink" width="916.58875pt" height="499.624687pt" viewBox="0 0 916.58875 499.624687" xmlns="http://www.w3.org/2000/svg" version="1.1">
 <metadata>
  <rdf:RDF xmlns:dc="http://purl.org/dc/elements/1.1/" xmlns:cc="http://creativecommons.org/ns#" xmlns:rdf="http://www.w3.org/1999/02/22-rdf-syntax-ns#">
   <cc:Work>
    <dc:type rdf:resource="http://purl.org/dc/dcmitype/StillImage"/>
    <dc:date>2026-05-11T11:57:55.518158</dc:date>
    <dc:format>image/svg+xml</dc:format>
    <dc:creator>
     <cc:Agent>
      <dc:title>Matplotlib v3.10.9, https://matplotlib.org/</dc:title>
     </cc:Agent>
    </dc:creator>
   </cc:Work>
  </rdf:RDF>
 </metadata>
 <defs>
  <style type="text/css">*{stroke-linejoin: round; stroke-linecap: butt}</style>
 </defs>
 <g id="figure_1">
  <g id="patch_1">
   <path d="M 0 499.624687 
L 916.58875 499.624687 
L 916.58875 0 
L 0 0 
z
" style="fill: #fffaf0"/>
  </g>
  <g id="axes_1">
   <g id="patch_2">
    <path d="M 87.58875 453.877187 
L 905.06875 453.877187 
L 905.06875 35.197187 
L 87.58875 35.197187 
z
" style="fill: #fffaf0"/>
   </g>
   <g id="patch_3">
    <path d="M 355.383922 453.877187 
L 637.273578 453.877187 
L 637.273578 35.197187 
L 355.383922 35.197187 
z
" clip-path="url(#pe741bbe30c)" style="fill: #2f6277; opacity: 0.075; stroke: #2f6277; stroke-linejoin: miter"/>
   </g>
   <g id="matplotlib.axis_1">
    <g id="xtick_1">
     <g id="line2d_1">
      <path d="M 174.088412 453.877187 
L 174.088412 35.197187 
" clip-path="url(#pe741bbe30c)" style="fill: none; stroke: #d9cbb6; stroke-opacity: 0.45; stroke-width: 0.8; stroke-linecap: square"/>
     </g>
     <g id="line2d_2">
      <defs>
       <path id="m721e9807c3" d="M 0 0 
L 0 3.5 
" style="stroke: #756a5d; stroke-width: 0.8"/>
      </defs>
      <g>
       <use xlink:href="#m721e9807c3" x="174.088412" y="453.877187" style="fill: #756a5d; stroke: #756a5d; stroke-width: 0.8"/>
      </g>
     </g>
     <g id="text_1">
      <text style="font-size: 11px; font-family: 'DejaVu Serif'; text-anchor: middle; fill: #756a5d" x="174.088412" y="469.235469" transform="rotate(-0 174.088412 469.235469)">−1.0</text>
     </g>
    </g>
    <g id="xtick_2">
     <g id="line2d_3">
      <path d="M 335.208581 453.877187 
L 335.208581 35.197187 
" clip-path="url(#pe741bbe30c)" style="fill: none; stroke: #d9cbb6; stroke-opacity: 0.45; stroke-width: 0.8; stroke-linecap: square"/>
     </g>
     <g id="line2d_4">
      <g>
       <use xlink:href="#m721e9807c3" x="335.208581" y="453.877187" style="fill: #756a5d; stroke: #756a5d; stroke-width: 0.8"/>
      </g>
     </g>
     <g id="text_2">
      <text style="font-size: 11px; font-family: 'DejaVu Serif'; text-anchor: middle; fill: #756a5d" x="335.208581" y="469.235469" transform="rotate(-0 335.208581 469.235469)">−0.5</text>
     </g>
    </g>
    <g id="xtick_3">
     <g id="line2d_5">
      <path d="M 496.32875 453.877187 
L 496.32875 35.197187 
" clip-path="url(#pe741bbe30c)" style="fill: none; stroke: #d9cbb6; stroke-opacity: 0.45; stroke-width: 0.8; stroke-linecap: square"/>
     </g>
     <g id="line2d_6">
      <g>
       <use xlink:href="#m721e9807c3" x="496.32875" y="453.877187" style="fill: #756a5d; stroke: #756a5d; stroke-width: 0.8"/>
      </g>
     </g>
     <g id="text_3">
      <text style="font-size: 11px; font-family: 'DejaVu Serif'; text-anchor: middle; fill: #756a5d" x="496.32875" y="469.235469" transform="rotate(-0 496.32875 469.235469)">0.0</text>
     </g>
    </g>
    <g id="xtick_4">
     <g id="line2d_7">
      <path d="M 657.448919 453.877187 
L 657.448919 35.197187 
" clip-path="url(#pe741bbe30c)" style="fill: none; stroke: #d9cbb6; stroke-opacity: 0.45; stroke-width: 0.8; stroke-linecap: square"/>
     </g>
     <g id="line2d_8">
      <g>
       <use xlink:href="#m721e9807c3" x="657.448919" y="453.877187" style="fill: #756a5d; stroke: #756a5d; stroke-width: 0.8"/>
      </g>
     </g>
     <g id="text_4">
      <text style="font-size: 11px; font-family: 'DejaVu Serif'; text-anchor: middle; fill: #756a5d" x="657.448919" y="469.235469" transform="rotate(-0 657.448919 469.235469)">0.5</text>
     </g>
    </g>
    <g id="xtick_5">
     <g id="line2d_9">
      <path d="M 818.569088 453.877187 
L 818.569088 35.197187 
" clip-path="url(#pe741bbe30c)" style="fill: none; stroke: #d9cbb6; stroke-opacity: 0.45; stroke-width: 0.8; stroke-linecap: square"/>
     </g>
     <g id="line2d_10">
      <g>
       <use xlink:href="#m721e9807c3" x="818.569088" y="453.877187" style="fill: #756a5d; stroke: #756a5d; stroke-width: 0.8"/>
      </g>
     </g>
     <g id="text_5">
      <text style="font-size: 11px; font-family: 'DejaVu Serif'; text-anchor: middle; fill: #756a5d" x="818.569088" y="469.235469" transform="rotate(-0 818.569088 469.235469)">1.0</text>
     </g>
    </g>
    <g id="text_6">
     <text style="font-size: 13px; font-family: 'DejaVu Serif'; text-anchor: middle; fill: #1f1b16" x="496.32875" y="485.401094" transform="rotate(-0 496.32875 485.401094)">Time from mid-transit (hours)</text>
    </g>
   </g>
   <g id="matplotlib.axis_2">
    <g id="ytick_1">
     <g id="line2d_11">
      <path d="M 87.58875 380.45755 
L 905.06875 380.45755 
" clip-path="url(#pe741bbe30c)" style="fill: none; stroke: #d9cbb6; stroke-opacity: 0.45; stroke-width: 0.8; stroke-linecap: square"/>
     </g>
     <g id="line2d_12">
      <defs>
       <path id="m86c7625093" d="M 0 0 
L -3.5 0 
" style="stroke: #756a5d; stroke-width: 0.8"/>
      </defs>
      <g>
       <use xlink:href="#m86c7625093" x="87.58875" y="380.45755" style="fill: #756a5d; stroke: #756a5d; stroke-width: 0.8"/>
      </g>
     </g>
     <g id="text_7">
      <text style="font-size: 11px; font-family: 'DejaVu Serif'; text-anchor: end; fill: #756a5d" x="80.58875" y="384.636691" transform="rotate(-0 80.58875 384.636691)">0.985000</text>
     </g>
    </g>
    <g id="ytick_2">
     <g id="line2d_13">
      <path d="M 87.58875 298.424447 
L 905.06875 298.424447 
" clip-path="url(#pe741bbe30c)" style="fill: none; stroke: #d9cbb6; stroke-opacity: 0.45; stroke-width: 0.8; stroke-linecap: square"/>
     </g>
     <g id="line2d_14">
      <g>
       <use xlink:href="#m86c7625093" x="87.58875" y="298.424447" style="fill: #756a5d; stroke: #756a5d; stroke-width: 0.8"/>
      </g>
     </g>
     <g id="text_8">
      <text style="font-size: 11px; font-family: 'DejaVu Serif'; text-anchor: end; fill: #756a5d" x="80.58875" y="302.603587" transform="rotate(-0 80.58875 302.603587)">0.990000</text>
     </g>
    </g>
    <g id="ytick_3">
     <g id="line2d_15">
      <path d="M 87.58875 216.391343 
L 905.06875 216.391343 
" clip-path="url(#pe741bbe30c)" style="fill: none; stroke: #d9cbb6; stroke-opacity: 0.45; stroke-width: 0.8; stroke-linecap: square"/>
     </g>
     <g id="line2d_16">
      <g>
       <use xlink:href="#m86c7625093" x="87.58875" y="216.391343" style="fill: #756a5d; stroke: #756a5d; stroke-width: 0.8"/>
      </g>
     </g>
     <g id="text_9">
      <text style="font-size: 11px; font-family: 'DejaVu Serif'; text-anchor: end; fill: #756a5d" x="80.58875" y="220.570484" transform="rotate(-0 80.58875 220.570484)">0.995000</text>
     </g>
    </g>
    <g id="ytick_4">
     <g id="line2d_17">
      <path d="M 87.58875 134.35824 
L 905.06875 134.35824 
" clip-path="url(#pe741bbe30c)" style="fill: none; stroke: #d9cbb6; stroke-opacity: 0.45; stroke-width: 0.8; stroke-linecap: square"/>
     </g>
     <g id="line2d_18">
      <g>
       <use xlink:href="#m86c7625093" x="87.58875" y="134.35824" style="fill: #756a5d; stroke: #756a5d; stroke-width: 0.8"/>
      </g>
     </g>
     <g id="text_10">
      <text style="font-size: 11px; font-family: 'DejaVu Serif'; text-anchor: end; fill: #756a5d" x="80.58875" y="138.537381" transform="rotate(-0 80.58875 138.537381)">1.000000</text>
     </g>
    </g>
    <g id="ytick_5">
     <g id="line2d_19">
      <path d="M 87.58875 52.325137 
L 905.06875 52.325137 
" clip-path="url(#pe741bbe30c)" style="fill: none; stroke: #d9cbb6; stroke-opacity: 0.45; stroke-width: 0.8; stroke-linecap: square"/>
     </g>
     <g id="line2d_20">
      <g>
       <use xlink:href="#m86c7625093" x="87.58875" y="52.325137" style="fill: #756a5d; stroke: #756a5d; stroke-width: 0.8"/>
      </g>
     </g>
     <g id="text_11">
      <text style="font-size: 11px; font-family: 'DejaVu Serif'; text-anchor: end; fill: #756a5d" x="80.58875" y="56.504277" transform="rotate(-0 80.58875 56.504277)">1.005000</text>
     </g>
    </g>
    <g id="text_12">
     <text style="font-size: 13px; font-family: 'DejaVu Serif'; text-anchor: middle; fill: #1f1b16" x="21.397969" y="244.537187" transform="rotate(-90 21.397969 244.537187)">Relative flux</text>
    </g>
   </g>
   <g id="line2d_21">
    <path d="M 87.58875 134.35824 
L 354.929262 134.35824 
L 355.838583 134.655407 
L 356.747905 135.890808 
L 357.657226 137.630554 
L 358.566548 139.736351 
L 360.38519 144.781031 
L 362.203833 150.672916 
L 364.931798 160.649932 
L 367.659762 171.555621 
L 370.387727 182.991767 
L 372.20637 206.31606 
L 374.025013 225.490566 
L 377.662298 260.753778 
L 380.390263 285.53824 
L 382.208906 300.789847 
L 384.027549 314.412011 
L 384.93687 320.336087 
L 385.846192 325.39694 
L 386.755513 328.947489 
L 389.483477 334.648652 
L 392.211442 339.693507 
L 394.939406 344.205553 
L 397.667371 348.274235 
L 400.395335 351.966832 
L 403.123299 355.335467 
L 405.851264 358.421507 
L 409.48855 362.15361 
L 413.125836 365.505734 
L 416.763122 368.528039 
L 420.400407 371.260888 
L 424.037693 373.737292 
L 427.674979 375.984617 
L 432.221586 378.506231 
L 436.768194 380.74273 
L 441.314801 382.72468 
L 445.861409 384.477399 
L 450.408016 386.021993 
L 455.863945 387.625457 
L 461.319873 388.979714 
L 466.775802 390.105106 
L 472.231731 391.017916 
L 477.68766 391.730959 
L 484.05291 392.323237 
L 490.41816 392.667641 
L 496.783411 392.770391 
L 503.148661 392.633332 
L 509.513911 392.254003 
L 515.879162 391.625541 
L 521.33509 390.879961 
L 526.791019 389.932697 
L 532.246948 388.770394 
L 537.702877 387.376135 
L 543.158806 385.728832 
L 547.705413 384.144127 
L 552.25202 382.347373 
L 556.798628 380.316689 
L 561.345235 378.025802 
L 565.891842 375.442941 
L 569.529128 373.140653 
L 573.166414 370.602899 
L 576.8037 367.801034 
L 580.440986 364.700392 
L 584.078272 361.258427 
L 587.715558 357.422022 
L 590.443522 354.245846 
L 593.171486 350.77428 
L 595.899451 346.962753 
L 598.627415 342.754674 
L 601.35538 338.076336 
L 604.083344 332.828604 
L 605.901987 328.947489 
L 606.811308 325.39694 
L 607.72063 320.336087 
L 609.539273 307.850683 
L 611.357916 293.327363 
L 614.08588 269.207969 
L 617.723166 234.533078 
L 620.45113 206.31606 
L 622.269773 182.991767 
L 626.816381 164.203027 
L 629.544345 153.867432 
L 631.362988 147.636199 
L 633.181631 142.13585 
L 635.000274 137.630554 
L 635.909595 135.890808 
L 636.818917 134.655407 
L 637.728238 134.35824 
L 905.06875 134.35824 
L 905.06875 134.35824 
" clip-path="url(#pe741bbe30c)" style="fill: none; stroke: #2f6277; stroke-width: 2.6; stroke-linecap: square"/>
   </g>
   <g id="line2d_22">
    <path d="M 87.58875 134.35824 
L 905.06875 134.35824 
" clip-path="url(#pe741bbe30c)" style="fill: none; stroke-dasharray: 5.365,2.32; stroke-dashoffset: 0; stroke: #9b9184; stroke-opacity: 0.55; stroke-width: 1.45"/>
   </g>
   <g id="patch_4">
    <path d="M 87.58875 453.877188 
L 87.58875 35.197188 
" style="fill: none; stroke: #b9a98f; stroke-width: 0.8; stroke-linejoin: miter; stroke-linecap: square"/>
   </g>
   <g id="patch_5">
    <path d="M 905.06875 453.877188 
L 905.06875 35.197188 
" style="fill: none; stroke: #b9a98f; stroke-width: 0.8; stroke-linejoin: miter; stroke-linecap: square"/>
   </g>
   <g id="patch_6">
    <path d="M 87.58875 453.877187 
L 905.06875 453.877187 
" style="fill: none; stroke: #b9a98f; stroke-width: 0.8; stroke-linejoin: miter; stroke-linecap: square"/>
   </g>
   <g id="patch_7">
    <path d="M 87.58875 35.197187 
L 905.06875 35.197187 
" style="fill: none; stroke: #b9a98f; stroke-width: 0.8; stroke-linejoin: miter; stroke-linecap: square"/>
   </g>
   <g id="text_13">
    <g id="patch_8">
     <path d="M 99.85095 72.760563 
L 472.019075 72.760563 
Q 475.099075 72.760563 475.099075 69.680563 
L 475.099075 56.131188 
Q 475.099075 53.051188 472.019075 53.051188 
L 99.85095 53.051188 
Q 96.77095 53.051188 96.77095 56.131188 
L 96.77095 69.680563 
Q 96.77095 72.760563 99.85095 72.760563 
z
" style="fill: #fffaf0; opacity: 0.88"/>
    </g>
    <text style="font-size: 14px; font-family: 'DejaVu Serif'; text-anchor: start; fill: #756a5d" x="99.85095" y="66.769" transform="rotate(-0 99.85095 66.769)">Rp/R* = 0.1159 · depth ≈ 13431 ppm · T14 ≈ 0.87 h</text>
   </g>
   <g id="text_14">
    <text style="font-size: 10.5px; font-family: 'DejaVu Serif'; text-anchor: end; fill: #756a5d" x="896.89395" y="443.170619" transform="rotate(-0 896.89395 443.170619)">quadratic limb-darkened geometry</text>
   </g>
   <g id="text_15">
    <text style="font-weight: 700; font-size: 18px; font-family: 'DejaVu Serif'; text-anchor: start; fill: #1f1b16" x="87.58875" y="25.197187" transform="rotate(-0 87.58875 25.197187)">Transit light-curve model — GJ 1214 b</text>
   </g>
  </g>
 </g>
 <defs>
  <clipPath id="pe741bbe30c">
   <rect x="87.58875" y="35.197187" width="817.48" height="418.68"/>
  </clipPath>
 </defs>
</svg>
