<?xml version="1.0" encoding="utf-8" standalone="no"?>
<!DOCTYPE svg PUBLIC "-//W3C//DTD SVG 1.1//EN"
  "http://www.w3.org/Graphics/SVG/1.1/DTD/svg11.dtd">
<svg xmlns:xlink="http://www.w3.org/1999/xlink" width="916.657031pt" height="499.624687pt" viewBox="0 0 916.657031 499.624687" xmlns="http://www.w3.org/2000/svg" version="1.1">
 <metadata>
  <rdf:RDF xmlns:dc="http://purl.org/dc/elements/1.1/" xmlns:cc="http://creativecommons.org/ns#" xmlns:rdf="http://www.w3.org/1999/02/22-rdf-syntax-ns#">
   <cc:Work>
    <dc:type rdf:resource="http://purl.org/dc/dcmitype/StillImage"/>
    <dc:date>2026-05-11T11:58:02.069716</dc:date>
    <dc:format>image/svg+xml</dc:format>
    <dc:creator>
     <cc:Agent>
      <dc:title>Matplotlib v3.10.9, https://matplotlib.org/</dc:title>
     </cc:Agent>
    </dc:creator>
   </cc:Work>
  </rdf:RDF>
 </metadata>
 <defs>
  <style type="text/css">*{stroke-linejoin: round; stroke-linecap: butt}</style>
 </defs>
 <g id="figure_1">
  <g id="patch_1">
   <path d="M 0 499.624687 
L 916.657031 499.624687 
L 916.657031 0 
L 0 0 
z
" style="fill: #fffaf0"/>
  </g>
  <g id="axes_1">
   <g id="patch_2">
    <path d="M 65.500313 453.877187 
L 896.390312 453.877187 
L 896.390312 35.197187 
L 65.500313 35.197187 
z
" style="fill: #fffaf0"/>
   </g>
   <g id="FillBetweenPolyCollection_1">
    <defs>
     <path id="mbf9215be6c" d="M 65.500313 -255.0875 
L 65.500313 -255.0875 
L 66.655931 -251.860621 
L 67.81155 -248.635097 
L 68.967169 -245.412279 
L 70.122788 -242.193516 
L 71.278407 -238.980152 
L 72.434026 -235.77352 
L 73.589645 -232.574947 
L 74.745264 -229.385747 
L 75.900883 -226.207221 
L 77.056502 -223.040655 
L 78.212121 -219.88732 
L 79.367739 -216.748466 
L 80.523358 -213.625324 
L 81.678977 -210.519106 
L 82.834596 -207.430998 
L 83.990215 -204.362163 
L 85.145834 -201.313739 
L 86.301453 -198.286835 
L 87.457072 -195.282535 
L 88.612691 -192.301892 
L 89.76831 -189.345927 
L 90.923929 -186.415634 
L 92.079548 -183.511971 
L 93.235166 -180.635867 
L 94.390785 -177.788214 
L 95.546404 -174.969872 
L 96.702023 -172.181665 
L 97.857642 -169.424385 
L 99.013261 -166.698784 
L 100.16888 -164.005582 
L 101.324499 -161.345462 
L 102.480118 -158.719071 
L 103.635737 -156.12702 
L 104.791356 -153.569884 
L 105.946975 -151.048203 
L 107.102593 -148.56248 
L 108.258212 -146.113183 
L 109.413831 -143.700746 
L 110.56945 -141.325566 
L 111.725069 -138.988009 
L 112.880688 -136.688404 
L 114.036307 -134.427048 
L 115.191926 -132.204205 
L 116.347545 -130.020108 
L 117.503164 -127.874957 
L 118.658783 -125.768922 
L 119.814402 -123.702143 
L 120.97002 -121.674729 
L 122.125639 -119.686763 
L 123.281258 -117.738299 
L 124.436877 -115.829364 
L 125.592496 -113.959959 
L 126.748115 -112.130061 
L 127.903734 -110.339619 
L 129.059353 -108.588563 
L 130.214972 -106.876798 
L 131.370591 -105.204207 
L 132.52621 -103.570652 
L 133.681828 -101.975977 
L 134.837447 -100.420005 
L 135.993066 -98.90254 
L 137.148685 -97.423371 
L 138.304304 -95.982269 
L 139.459923 -94.57899 
L 140.615542 -93.213273 
L 141.771161 -91.884845 
L 142.92678 -90.59342 
L 144.082399 -89.338698 
L 145.238018 -88.120368 
L 146.393637 -86.938109 
L 147.549255 -85.791587 
L 148.704874 -84.680461 
L 149.860493 -83.604381 
L 151.016112 -82.562987 
L 152.171731 -81.555914 
L 153.32735 -80.582789 
L 154.482969 -79.643231 
L 155.638588 -78.736857 
L 156.794207 -77.863276 
L 157.949826 -77.022094 
L 159.105445 -76.212912 
L 160.261064 -75.435328 
L 161.416682 -74.688938 
L 162.572301 -73.973333 
L 163.72792 -73.288106 
L 164.883539 -72.632844 
L 166.039158 -72.007135 
L 167.194777 -71.410567 
L 168.350396 -70.842726 
L 169.506015 -70.303199 
L 170.661634 -69.791572 
L 171.817253 -69.307434 
L 172.972872 -68.850372 
L 174.128491 -68.419976 
L 175.284109 -68.015838 
L 176.439728 -67.63755 
L 177.595347 -67.284707 
L 178.750966 -66.956906 
L 179.906585 -66.653747 
L 181.062204 -66.374832 
L 182.217823 -66.119765 
L 183.373442 -65.888156 
L 184.529061 -65.679616 
L 185.68468 -65.493757 
L 186.840299 -65.3302 
L 187.995918 -65.188565 
L 189.151536 -65.068477 
L 190.307155 -64.969566 
L 191.462774 -64.891465 
L 192.618393 -64.83381 
L 193.774012 -64.796243 
L 194.929631 -64.778409 
L 196.08525 -64.779957 
L 197.240869 -64.800542 
L 198.396488 -64.839821 
L 199.552107 -64.897456 
L 200.707726 -64.973115 
L 201.863344 -65.066469 
L 203.018963 -65.177193 
L 204.174582 -65.304968 
L 205.330201 -65.449478 
L 206.48582 -65.610414 
L 207.641439 -65.787467 
L 208.797058 -65.980338 
L 209.952677 -66.188727 
L 211.108296 -66.412344 
L 212.263915 -66.650898 
L 213.419534 -66.904107 
L 214.575153 -67.171692 
L 215.730771 -67.453376 
L 216.88639 -67.74889 
L 218.042009 -68.057967 
L 219.197628 -68.380345 
L 220.353247 -68.715767 
L 221.508866 -69.06398 
L 222.664485 -69.424735 
L 223.820104 -69.797786 
L 224.975723 -70.182892 
L 226.131342 -70.579819 
L 227.286961 -70.988332 
L 228.44258 -71.408203 
L 229.598198 -71.839209 
L 230.753817 -72.281128 
L 231.909436 -72.733743 
L 233.065055 -73.196843 
L 234.220674 -73.670217 
L 235.376293 -74.153661 
L 236.531912 -74.646973 
L 237.687531 -75.149956 
L 238.84315 -75.662414 
L 239.998769 -76.184158 
L 241.154388 -76.715 
L 242.310007 -77.254756 
L 243.465625 -77.803246 
L 244.621244 -78.360293 
L 245.776863 -78.925724 
L 246.932482 -79.499367 
L 248.088101 -80.081056 
L 249.24372 -80.670626 
L 250.399339 -81.267917 
L 251.554958 -81.872771 
L 252.710577 -82.485032 
L 253.866196 -83.104549 
L 255.021815 -83.731172 
L 256.177434 -84.364757 
L 257.333052 -85.005158 
L 258.488671 -85.652236 
L 259.64429 -86.305852 
L 260.799909 -86.965872 
L 261.955528 -87.632163 
L 263.111147 -88.304595 
L 264.266766 -88.98304 
L 265.422385 -89.667373 
L 266.578004 -90.357472 
L 267.733623 -91.053217 
L 268.889242 -91.75449 
L 270.04486 -92.461175 
L 271.200479 -93.173159 
L 272.356098 -93.890332 
L 273.511717 -94.612585 
L 274.667336 -95.33981 
L 275.822955 -96.071904 
L 276.978574 -96.808764 
L 278.134193 -97.550289 
L 279.289812 -98.296382 
L 280.445431 -99.046946 
L 281.60105 -99.801886 
L 282.756669 -100.561111 
L 283.912287 -101.324528 
L 285.067906 -102.092049 
L 286.223525 -102.863588 
L 287.379144 -103.639058 
L 288.534763 -104.418376 
L 289.690382 -105.201461 
L 290.846001 -105.988231 
L 292.00162 -106.778607 
L 293.157239 -107.572514 
L 294.312858 -108.369875 
L 295.468477 -109.170616 
L 296.624096 -109.974665 
L 297.779714 -110.781951 
L 298.935333 -111.592403 
L 300.090952 -112.405955 
L 301.246571 -113.222538 
L 302.40219 -114.042088 
L 303.557809 -114.86454 
L 304.713428 -115.689831 
L 305.869047 -116.517901 
L 307.024666 -117.348688 
L 308.180285 -118.182134 
L 309.335904 -119.018181 
L 310.491523 -119.856772 
L 311.647141 -120.697851 
L 312.80276 -121.541365 
L 313.958379 -122.38726 
L 315.113998 -123.235483 
L 316.269617 -124.085984 
L 317.425236 -124.938713 
L 318.580855 -125.793621 
L 319.736474 -126.650659 
L 320.892093 -127.509781 
L 322.047712 -128.37094 
L 323.203331 -129.234092 
L 324.358949 -130.099193 
L 325.514568 -130.966198 
L 326.670187 -131.835066 
L 327.825806 -132.705756 
L 328.981425 -133.578226 
L 330.137044 -134.452436 
L 331.292663 -135.328349 
L 332.448282 -136.205926 
L 333.603901 -137.085129 
L 334.75952 -137.965922 
L 335.915139 -138.848269 
L 337.070758 -139.732134 
L 338.226376 -140.617485 
L 339.381995 -141.504286 
L 340.537614 -142.392506 
L 341.693233 -143.282111 
L 342.848852 -144.173071 
L 344.004471 -145.065355 
L 345.16009 -145.958931 
L 346.315709 -146.853771 
L 347.471328 -147.749846 
L 348.626947 -148.647127 
L 349.782566 -149.545586 
L 350.938185 -150.445197 
L 352.093803 -151.345933 
L 353.249422 -152.247767 
L 354.405041 -153.150674 
L 355.56066 -154.054629 
L 356.716279 -154.959608 
L 357.871898 -155.865587 
L 359.027517 -156.772542 
L 360.183136 -157.680451 
L 361.338755 -158.589291 
L 362.494374 -159.49904 
L 363.649993 -160.409676 
L 364.805612 -161.321179 
L 365.96123 -162.233529 
L 367.116849 -163.146704 
L 368.272468 -164.060685 
L 369.428087 -164.975453 
L 370.583706 -165.89099 
L 371.739325 -166.807276 
L 372.894944 -167.724293 
L 374.050563 -168.642025 
L 375.206182 -169.560453 
L 376.361801 -170.479561 
L 377.51742 -171.399332 
L 378.673039 -172.31975 
L 379.828657 -173.240799 
L 380.984276 -174.162463 
L 382.139895 -175.084728 
L 383.295514 -176.007579 
L 384.451133 -176.931 
L 385.606752 -177.854979 
L 386.762371 -178.7795 
L 387.91799 -179.704551 
L 389.073609 -180.630118 
L 390.229228 -181.556189 
L 391.384847 -182.482749 
L 392.540465 -183.409788 
L 393.696084 -184.337292 
L 394.851703 -185.26525 
L 396.007322 -186.19365 
L 397.162941 -187.122481 
L 398.31856 -188.051732 
L 399.474179 -188.981392 
L 400.629798 -189.91145 
L 401.785417 -190.841895 
L 402.941036 -191.772718 
L 404.096655 -192.703909 
L 405.252274 -193.635457 
L 406.407892 -194.567354 
L 407.563511 -195.49959 
L 408.71913 -196.432155 
L 409.874749 -197.365041 
L 411.030368 -198.29824 
L 412.185987 -199.231742 
L 413.341606 -200.165539 
L 414.497225 -201.099623 
L 415.652844 -202.033986 
L 416.808463 -202.96862 
L 417.964082 -203.903518 
L 419.119701 -204.838672 
L 420.275319 -205.774074 
L 421.430938 -206.709718 
L 422.586557 -207.645597 
L 423.742176 -208.581703 
L 424.897795 -209.51803 
L 426.053414 -210.454571 
L 427.209033 -211.39132 
L 428.364652 -212.328271 
L 429.520271 -213.265417 
L 430.67589 -214.202752 
L 431.831509 -215.14027 
L 432.987128 -216.077966 
L 434.142746 -217.015834 
L 435.298365 -217.953868 
L 436.453984 -218.892062 
L 437.609603 -219.830412 
L 438.765222 -220.768912 
L 439.920841 -221.707557 
L 441.07646 -222.646341 
L 442.232079 -223.585261 
L 443.387698 -224.52431 
L 444.543317 -225.463485 
L 445.698936 -226.40278 
L 446.854555 -227.34219 
L 448.010173 -228.281713 
L 449.165792 -229.221341 
L 450.321411 -230.161073 
L 451.47703 -231.100902 
L 452.632649 -232.040825 
L 453.788268 -232.980838 
L 454.943887 -233.920937 
L 456.099506 -234.861116 
L 457.255125 -235.801374 
L 458.410744 -236.741704 
L 459.566363 -237.682104 
L 460.721981 -238.62257 
L 461.8776 -239.563098 
L 463.033219 -240.503684 
L 464.188838 -241.444324 
L 465.344457 -242.385015 
L 466.500076 -243.325753 
L 467.655695 -244.266534 
L 468.811314 -245.207355 
L 469.966933 -246.148213 
L 471.122552 -247.089103 
L 472.278171 -248.030022 
L 473.43379 -248.970967 
L 474.589408 -249.911935 
L 475.745027 -250.852921 
L 476.900646 -251.793923 
L 478.056265 -252.734936 
L 479.211884 -253.675958 
L 480.367503 -254.616986 
L 481.523122 -255.558014 
L 482.678741 -256.499042 
L 483.83436 -257.440064 
L 484.989979 -258.381077 
L 486.145598 -259.322079 
L 487.301217 -260.263065 
L 488.456835 -261.204033 
L 489.612454 -262.144978 
L 490.768073 -263.085897 
L 491.923692 -264.026787 
L 493.079311 -264.967645 
L 494.23493 -265.908466 
L 495.390549 -266.849247 
L 496.546168 -267.789985 
L 497.701787 -268.730676 
L 498.857406 -269.671316 
L 500.013025 -270.611902 
L 501.168644 -271.55243 
L 502.324262 -272.492896 
L 503.479881 -273.433296 
L 504.6355 -274.373626 
L 505.791119 -275.313884 
L 506.946738 -276.254063 
L 508.102357 -277.194162 
L 509.257976 -278.134175 
L 510.413595 -279.074098 
L 511.569214 -280.013927 
L 512.724833 -280.953659 
L 513.880452 -281.893287 
L 515.03607 -282.83281 
L 516.191689 -283.77222 
L 517.347308 -284.711515 
L 518.502927 -285.65069 
L 519.658546 -286.589739 
L 520.814165 -287.528659 
L 521.969784 -288.467443 
L 523.125403 -289.406088 
L 524.281022 -290.344588 
L 525.436641 -291.282938 
L 526.59226 -292.221132 
L 527.747879 -293.159166 
L 528.903497 -294.097034 
L 530.059116 -295.03473 
L 531.214735 -295.972248 
L 532.370354 -296.909583 
L 533.525973 -297.846729 
L 534.681592 -298.78368 
L 535.837211 -299.720429 
L 536.99283 -300.65697 
L 538.148449 -301.593297 
L 539.304068 -302.529403 
L 540.459687 -303.465282 
L 541.615306 -304.400926 
L 542.770924 -305.336328 
L 543.926543 -306.271482 
L 545.082162 -307.20638 
L 546.237781 -308.141014 
L 547.3934 -309.075377 
L 548.549019 -310.009461 
L 549.704638 -310.943258 
L 550.860257 -311.87676 
L 552.015876 -312.809959 
L 553.171495 -313.742845 
L 554.327114 -314.67541 
L 555.482733 -315.607646 
L 556.638351 -316.539543 
L 557.79397 -317.471091 
L 558.949589 -318.402282 
L 560.105208 -319.333105 
L 561.260827 -320.26355 
L 562.416446 -321.193608 
L 563.572065 -322.123268 
L 564.727684 -323.052519 
L 565.883303 -323.98135 
L 567.038922 -324.90975 
L 568.194541 -325.837708 
L 569.35016 -326.765212 
L 570.505778 -327.692251 
L 571.661397 -328.618811 
L 572.817016 -329.544882 
L 573.972635 -330.470449 
L 575.128254 -331.3955 
L 576.283873 -332.320021 
L 577.439492 -333.244 
L 578.595111 -334.167421 
L 579.75073 -335.090272 
L 580.906349 -336.012537 
L 582.061968 -336.934201 
L 583.217586 -337.85525 
L 584.373205 -338.775668 
L 585.528824 -339.695439 
L 586.684443 -340.614547 
L 587.840062 -341.532975 
L 588.995681 -342.450707 
L 590.1513 -343.367724 
L 591.306919 -344.28401 
L 592.462538 -345.199547 
L 593.618157 -346.114315 
L 594.773776 -347.028296 
L 595.929395 -347.941471 
L 597.085013 -348.853821 
L 598.240632 -349.765324 
L 599.396251 -350.67596 
L 600.55187 -351.585709 
L 601.707489 -352.494549 
L 602.863108 -353.402458 
L 604.018727 -354.309413 
L 605.174346 -355.215392 
L 606.329965 -356.120371 
L 607.485584 -357.024326 
L 608.641203 -357.927233 
L 609.796822 -358.829067 
L 610.95244 -359.729803 
L 612.108059 -360.629414 
L 613.263678 -361.527873 
L 614.419297 -362.425154 
L 615.574916 -363.321229 
L 616.730535 -364.216069 
L 617.886154 -365.109645 
L 619.041773 -366.001929 
L 620.197392 -366.892889 
L 621.353011 -367.782494 
L 622.50863 -368.670714 
L 623.664249 -369.557515 
L 624.819867 -370.442866 
L 625.975486 -371.326731 
L 627.131105 -372.209078 
L 628.286724 -373.089871 
L 629.442343 -373.969074 
L 630.597962 -374.846651 
L 631.753581 -375.722564 
L 632.9092 -376.596774 
L 634.064819 -377.469244 
L 635.220438 -378.339934 
L 636.376057 -379.208802 
L 637.531676 -380.075807 
L 638.687294 -380.940908 
L 639.842913 -381.80406 
L 640.998532 -382.665219 
L 642.154151 -383.524341 
L 643.30977 -384.381379 
L 644.465389 -385.236287 
L 645.621008 -386.089016 
L 646.776627 -386.939517 
L 647.932246 -387.78774 
L 649.087865 -388.633635 
L 650.243484 -389.477149 
L 651.399102 -390.318228 
L 652.554721 -391.156819 
L 653.71034 -391.992866 
L 654.865959 -392.826312 
L 656.021578 -393.657099 
L 657.177197 -394.485169 
L 658.332816 -395.31046 
L 659.488435 -396.132912 
L 660.644054 -396.952462 
L 661.799673 -397.769045 
L 662.955292 -398.582597 
L 664.110911 -399.393049 
L 665.266529 -400.200335 
L 666.422148 -401.004384 
L 667.577767 -401.805125 
L 668.733386 -402.602486 
L 669.889005 -403.396393 
L 671.044624 -404.186769 
L 672.200243 -404.973539 
L 673.355862 -405.756624 
L 674.511481 -406.535942 
L 675.6671 -407.311412 
L 676.822719 -408.082951 
L 677.978338 -408.850472 
L 679.133956 -409.613889 
L 680.289575 -410.373114 
L 681.445194 -411.128054 
L 682.600813 -411.878618 
L 683.756432 -412.624711 
L 684.912051 -413.366236 
L 686.06767 -414.103096 
L 687.223289 -414.83519 
L 688.378908 -415.562415 
L 689.534527 -416.284668 
L 690.690146 -417.001841 
L 691.845765 -417.713825 
L 693.001383 -418.42051 
L 694.157002 -419.121783 
L 695.312621 -419.817528 
L 696.46824 -420.507627 
L 697.623859 -421.19196 
L 698.779478 -421.870405 
L 699.935097 -422.542837 
L 701.090716 -423.209128 
L 702.246335 -423.869148 
L 703.401954 -424.522764 
L 704.557573 -425.169842 
L 705.713191 -425.810243 
L 706.86881 -426.443828 
L 708.024429 -427.070451 
L 709.180048 -427.689968 
L 710.335667 -428.302229 
L 711.491286 -428.907083 
L 712.646905 -429.504374 
L 713.802524 -430.093944 
L 714.958143 -430.675633 
L 716.113762 -431.249276 
L 717.269381 -431.814707 
L 718.425 -432.371754 
L 719.580618 -432.920244 
L 720.736237 -433.46 
L 721.891856 -433.990842 
L 723.047475 -434.512586 
L 724.203094 -435.025044 
L 725.358713 -435.528027 
L 726.514332 -436.021339 
L 727.669951 -436.504783 
L 728.82557 -436.978157 
L 729.981189 -437.441257 
L 731.136808 -437.893872 
L 732.292427 -438.335791 
L 733.448045 -438.766797 
L 734.603664 -439.186668 
L 735.759283 -439.595181 
L 736.914902 -439.992108 
L 738.070521 -440.377214 
L 739.22614 -440.750265 
L 740.381759 -441.11102 
L 741.537378 -441.459233 
L 742.692997 -441.794655 
L 743.848616 -442.117033 
L 745.004235 -442.42611 
L 746.159854 -442.721624 
L 747.315472 -443.003308 
L 748.471091 -443.270893 
L 749.62671 -443.524102 
L 750.782329 -443.762656 
L 751.937948 -443.986273 
L 753.093567 -444.194662 
L 754.249186 -444.387533 
L 755.404805 -444.564586 
L 756.560424 -444.725522 
L 757.716043 -444.870032 
L 758.871662 -444.997807 
L 760.027281 -445.108531 
L 761.182899 -445.201885 
L 762.338518 -445.277544 
L 763.494137 -445.335179 
L 764.649756 -445.374458 
L 765.805375 -445.395043 
L 766.960994 -445.396591 
L 768.116613 -445.378757 
L 769.272232 -445.34119 
L 770.427851 -445.283535 
L 771.58347 -445.205434 
L 772.739089 -445.106523 
L 773.894707 -444.986435 
L 775.050326 -444.8448 
L 776.205945 -444.681243 
L 777.361564 -444.495384 
L 778.517183 -444.286844 
L 779.672802 -444.055235 
L 780.828421 -443.800168 
L 781.98404 -443.521253 
L 783.139659 -443.218094 
L 784.295278 -442.890293 
L 785.450897 -442.53745 
L 786.606516 -442.159162 
L 787.762134 -441.755024 
L 788.917753 -441.324628 
L 790.073372 -440.867566 
L 791.228991 -440.383428 
L 792.38461 -439.871801 
L 793.540229 -439.332274 
L 794.695848 -438.764433 
L 795.851467 -438.167865 
L 797.007086 -437.542156 
L 798.162705 -436.886894 
L 799.318324 -436.201667 
L 800.473943 -435.486062 
L 801.629561 -434.739672 
L 802.78518 -433.962088 
L 803.940799 -433.152906 
L 805.096418 -432.311724 
L 806.252037 -431.438143 
L 807.407656 -430.531769 
L 808.563275 -429.592211 
L 809.718894 -428.619086 
L 810.874513 -427.612013 
L 812.030132 -426.570619 
L 813.185751 -425.494539 
L 814.34137 -424.383413 
L 815.496988 -423.236891 
L 816.652607 -422.054632 
L 817.808226 -420.836302 
L 818.963845 -419.58158 
L 820.119464 -418.290155 
L 821.275083 -416.961727 
L 822.430702 -415.59601 
L 823.586321 -414.192731 
L 824.74194 -412.751629 
L 825.897559 -411.27246 
L 827.053178 -409.754995 
L 828.208797 -408.199023 
L 829.364415 -406.604348 
L 830.520034 -404.970793 
L 831.675653 -403.298202 
L 832.831272 -401.586437 
L 833.986891 -399.835381 
L 835.14251 -398.044939 
L 836.298129 -396.215041 
L 837.453748 -394.345636 
L 838.609367 -392.436701 
L 839.764986 -390.488237 
L 840.920605 -388.500271 
L 842.076223 -386.472857 
L 843.231842 -384.406078 
L 844.387461 -382.300043 
L 845.54308 -380.154892 
L 846.698699 -377.970795 
L 847.854318 -375.747952 
L 849.009937 -373.486596 
L 850.165556 -371.186991 
L 851.321175 -368.849434 
L 852.476794 -366.474254 
L 853.632413 -364.061817 
L 854.788032 -361.61252 
L 855.94365 -359.126797 
L 857.099269 -356.605116 
L 858.254888 -354.04798 
L 859.410507 -351.455929 
L 860.566126 -348.829538 
L 861.721745 -346.169418 
L 862.877364 -343.476216 
L 864.032983 -340.750615 
L 865.188602 -337.993335 
L 866.344221 -335.205128 
L 867.49984 -332.386786 
L 868.655459 -329.539133 
L 869.811077 -326.663029 
L 870.966696 -323.759366 
L 872.122315 -320.829073 
L 873.277934 -317.873108 
L 874.433553 -314.892465 
L 875.589172 -311.888165 
L 876.744791 -308.861261 
L 877.90041 -305.812837 
L 879.056029 -302.744002 
L 880.211648 -299.655894 
L 881.367267 -296.549676 
L 882.522886 -293.426534 
L 883.678504 -290.28768 
L 884.834123 -287.134345 
L 885.989742 -283.967779 
L 887.145361 -280.789253 
L 888.30098 -277.600053 
L 889.456599 -274.40148 
L 890.612218 -271.194848 
L 891.767837 -267.981484 
L 892.923456 -264.762721 
L 894.079075 -261.539903 
L 895.234694 -258.314379 
L 896.390312 -255.0875 
L 896.390312 -255.0875 
L 896.390312 -255.0875 
L 895.234694 -255.0875 
L 894.079075 -255.0875 
L 892.923456 -255.0875 
L 891.767837 -255.0875 
L 890.612218 -255.0875 
L 889.456599 -255.0875 
L 888.30098 -255.0875 
L 887.145361 -255.0875 
L 885.989742 -255.0875 
L 884.834123 -255.0875 
L 883.678504 -255.0875 
L 882.522886 -255.0875 
L 881.367267 -255.0875 
L 880.211648 -255.0875 
L 879.056029 -255.0875 
L 877.90041 -255.0875 
L 876.744791 -255.0875 
L 875.589172 -255.0875 
L 874.433553 -255.0875 
L 873.277934 -255.0875 
L 872.122315 -255.0875 
L 870.966696 -255.0875 
L 869.811077 -255.0875 
L 868.655459 -255.0875 
L 867.49984 -255.0875 
L 866.344221 -255.0875 
L 865.188602 -255.0875 
L 864.032983 -255.0875 
L 862.877364 -255.0875 
L 861.721745 -255.0875 
L 860.566126 -255.0875 
L 859.410507 -255.0875 
L 858.254888 -255.0875 
L 857.099269 -255.0875 
L 855.94365 -255.0875 
L 854.788032 -255.0875 
L 853.632413 -255.0875 
L 852.476794 -255.0875 
L 851.321175 -255.0875 
L 850.165556 -255.0875 
L 849.009937 -255.0875 
L 847.854318 -255.0875 
L 846.698699 -255.0875 
L 845.54308 -255.0875 
L 844.387461 -255.0875 
L 843.231842 -255.0875 
L 842.076223 -255.0875 
L 840.920605 -255.0875 
L 839.764986 -255.0875 
L 838.609367 -255.0875 
L 837.453748 -255.0875 
L 836.298129 -255.0875 
L 835.14251 -255.0875 
L 833.986891 -255.0875 
L 832.831272 -255.0875 
L 831.675653 -255.0875 
L 830.520034 -255.0875 
L 829.364415 -255.0875 
L 828.208797 -255.0875 
L 827.053178 -255.0875 
L 825.897559 -255.0875 
L 824.74194 -255.0875 
L 823.586321 -255.0875 
L 822.430702 -255.0875 
L 821.275083 -255.0875 
L 820.119464 -255.0875 
L 818.963845 -255.0875 
L 817.808226 -255.0875 
L 816.652607 -255.0875 
L 815.496988 -255.0875 
L 814.34137 -255.0875 
L 813.185751 -255.0875 
L 812.030132 -255.0875 
L 810.874513 -255.0875 
L 809.718894 -255.0875 
L 808.563275 -255.0875 
L 807.407656 -255.0875 
L 806.252037 -255.0875 
L 805.096418 -255.0875 
L 803.940799 -255.0875 
L 802.78518 -255.0875 
L 801.629561 -255.0875 
L 800.473943 -255.0875 
L 799.318324 -255.0875 
L 798.162705 -255.0875 
L 797.007086 -255.0875 
L 795.851467 -255.0875 
L 794.695848 -255.0875 
L 793.540229 -255.0875 
L 792.38461 -255.0875 
L 791.228991 -255.0875 
L 790.073372 -255.0875 
L 788.917753 -255.0875 
L 787.762134 -255.0875 
L 786.606516 -255.0875 
L 785.450897 -255.0875 
L 784.295278 -255.0875 
L 783.139659 -255.0875 
L 781.98404 -255.0875 
L 780.828421 -255.0875 
L 779.672802 -255.0875 
L 778.517183 -255.0875 
L 777.361564 -255.0875 
L 776.205945 -255.0875 
L 775.050326 -255.0875 
L 773.894707 -255.0875 
L 772.739089 -255.0875 
L 771.58347 -255.0875 
L 770.427851 -255.0875 
L 769.272232 -255.0875 
L 768.116613 -255.0875 
L 766.960994 -255.0875 
L 765.805375 -255.0875 
L 764.649756 -255.0875 
L 763.494137 -255.0875 
L 762.338518 -255.0875 
L 761.182899 -255.0875 
L 760.027281 -255.0875 
L 758.871662 -255.0875 
L 757.716043 -255.0875 
L 756.560424 -255.0875 
L 755.404805 -255.0875 
L 754.249186 -255.0875 
L 753.093567 -255.0875 
L 751.937948 -255.0875 
L 750.782329 -255.0875 
L 749.62671 -255.0875 
L 748.471091 -255.0875 
L 747.315472 -255.0875 
L 746.159854 -255.0875 
L 745.004235 -255.0875 
L 743.848616 -255.0875 
L 742.692997 -255.0875 
L 741.537378 -255.0875 
L 740.381759 -255.0875 
L 739.22614 -255.0875 
L 738.070521 -255.0875 
L 736.914902 -255.0875 
L 735.759283 -255.0875 
L 734.603664 -255.0875 
L 733.448045 -255.0875 
L 732.292427 -255.0875 
L 731.136808 -255.0875 
L 729.981189 -255.0875 
L 728.82557 -255.0875 
L 727.669951 -255.0875 
L 726.514332 -255.0875 
L 725.358713 -255.0875 
L 724.203094 -255.0875 
L 723.047475 -255.0875 
L 721.891856 -255.0875 
L 720.736237 -255.0875 
L 719.580618 -255.0875 
L 718.425 -255.0875 
L 717.269381 -255.0875 
L 716.113762 -255.0875 
L 714.958143 -255.0875 
L 713.802524 -255.0875 
L 712.646905 -255.0875 
L 711.491286 -255.0875 
L 710.335667 -255.0875 
L 709.180048 -255.0875 
L 708.024429 -255.0875 
L 706.86881 -255.0875 
L 705.713191 -255.0875 
L 704.557573 -255.0875 
L 703.401954 -255.0875 
L 702.246335 -255.0875 
L 701.090716 -255.0875 
L 699.935097 -255.0875 
L 698.779478 -255.0875 
L 697.623859 -255.0875 
L 696.46824 -255.0875 
L 695.312621 -255.0875 
L 694.157002 -255.0875 
L 693.001383 -255.0875 
L 691.845765 -255.0875 
L 690.690146 -255.0875 
L 689.534527 -255.0875 
L 688.378908 -255.0875 
L 687.223289 -255.0875 
L 686.06767 -255.0875 
L 684.912051 -255.0875 
L 683.756432 -255.0875 
L 682.600813 -255.0875 
L 681.445194 -255.0875 
L 680.289575 -255.0875 
L 679.133956 -255.0875 
L 677.978338 -255.0875 
L 676.822719 -255.0875 
L 675.6671 -255.0875 
L 674.511481 -255.0875 
L 673.355862 -255.0875 
L 672.200243 -255.0875 
L 671.044624 -255.0875 
L 669.889005 -255.0875 
L 668.733386 -255.0875 
L 667.577767 -255.0875 
L 666.422148 -255.0875 
L 665.266529 -255.0875 
L 664.110911 -255.0875 
L 662.955292 -255.0875 
L 661.799673 -255.0875 
L 660.644054 -255.0875 
L 659.488435 -255.0875 
L 658.332816 -255.0875 
L 657.177197 -255.0875 
L 656.021578 -255.0875 
L 654.865959 -255.0875 
L 653.71034 -255.0875 
L 652.554721 -255.0875 
L 651.399102 -255.0875 
L 650.243484 -255.0875 
L 649.087865 -255.0875 
L 647.932246 -255.0875 
L 646.776627 -255.0875 
L 645.621008 -255.0875 
L 644.465389 -255.0875 
L 643.30977 -255.0875 
L 642.154151 -255.0875 
L 640.998532 -255.0875 
L 639.842913 -255.0875 
L 638.687294 -255.0875 
L 637.531676 -255.0875 
L 636.376057 -255.0875 
L 635.220438 -255.0875 
L 634.064819 -255.0875 
L 632.9092 -255.0875 
L 631.753581 -255.0875 
L 630.597962 -255.0875 
L 629.442343 -255.0875 
L 628.286724 -255.0875 
L 627.131105 -255.0875 
L 625.975486 -255.0875 
L 624.819867 -255.0875 
L 623.664249 -255.0875 
L 622.50863 -255.0875 
L 621.353011 -255.0875 
L 620.197392 -255.0875 
L 619.041773 -255.0875 
L 617.886154 -255.0875 
L 616.730535 -255.0875 
L 615.574916 -255.0875 
L 614.419297 -255.0875 
L 613.263678 -255.0875 
L 612.108059 -255.0875 
L 610.95244 -255.0875 
L 609.796822 -255.0875 
L 608.641203 -255.0875 
L 607.485584 -255.0875 
L 606.329965 -255.0875 
L 605.174346 -255.0875 
L 604.018727 -255.0875 
L 602.863108 -255.0875 
L 601.707489 -255.0875 
L 600.55187 -255.0875 
L 599.396251 -255.0875 
L 598.240632 -255.0875 
L 597.085013 -255.0875 
L 595.929395 -255.0875 
L 594.773776 -255.0875 
L 593.618157 -255.0875 
L 592.462538 -255.0875 
L 591.306919 -255.0875 
L 590.1513 -255.0875 
L 588.995681 -255.0875 
L 587.840062 -255.0875 
L 586.684443 -255.0875 
L 585.528824 -255.0875 
L 584.373205 -255.0875 
L 583.217586 -255.0875 
L 582.061968 -255.0875 
L 580.906349 -255.0875 
L 579.75073 -255.0875 
L 578.595111 -255.0875 
L 577.439492 -255.0875 
L 576.283873 -255.0875 
L 575.128254 -255.0875 
L 573.972635 -255.0875 
L 572.817016 -255.0875 
L 571.661397 -255.0875 
L 570.505778 -255.0875 
L 569.35016 -255.0875 
L 568.194541 -255.0875 
L 567.038922 -255.0875 
L 565.883303 -255.0875 
L 564.727684 -255.0875 
L 563.572065 -255.0875 
L 562.416446 -255.0875 
L 561.260827 -255.0875 
L 560.105208 -255.0875 
L 558.949589 -255.0875 
L 557.79397 -255.0875 
L 556.638351 -255.0875 
L 555.482733 -255.0875 
L 554.327114 -255.0875 
L 553.171495 -255.0875 
L 552.015876 -255.0875 
L 550.860257 -255.0875 
L 549.704638 -255.0875 
L 548.549019 -255.0875 
L 547.3934 -255.0875 
L 546.237781 -255.0875 
L 545.082162 -255.0875 
L 543.926543 -255.0875 
L 542.770924 -255.0875 
L 541.615306 -255.0875 
L 540.459687 -255.0875 
L 539.304068 -255.0875 
L 538.148449 -255.0875 
L 536.99283 -255.0875 
L 535.837211 -255.0875 
L 534.681592 -255.0875 
L 533.525973 -255.0875 
L 532.370354 -255.0875 
L 531.214735 -255.0875 
L 530.059116 -255.0875 
L 528.903497 -255.0875 
L 527.747879 -255.0875 
L 526.59226 -255.0875 
L 525.436641 -255.0875 
L 524.281022 -255.0875 
L 523.125403 -255.0875 
L 521.969784 -255.0875 
L 520.814165 -255.0875 
L 519.658546 -255.0875 
L 518.502927 -255.0875 
L 517.347308 -255.0875 
L 516.191689 -255.0875 
L 515.03607 -255.0875 
L 513.880452 -255.0875 
L 512.724833 -255.0875 
L 511.569214 -255.0875 
L 510.413595 -255.0875 
L 509.257976 -255.0875 
L 508.102357 -255.0875 
L 506.946738 -255.0875 
L 505.791119 -255.0875 
L 504.6355 -255.0875 
L 503.479881 -255.0875 
L 502.324262 -255.0875 
L 501.168644 -255.0875 
L 500.013025 -255.0875 
L 498.857406 -255.0875 
L 497.701787 -255.0875 
L 496.546168 -255.0875 
L 495.390549 -255.0875 
L 494.23493 -255.0875 
L 493.079311 -255.0875 
L 491.923692 -255.0875 
L 490.768073 -255.0875 
L 489.612454 -255.0875 
L 488.456835 -255.0875 
L 487.301217 -255.0875 
L 486.145598 -255.0875 
L 484.989979 -255.0875 
L 483.83436 -255.0875 
L 482.678741 -255.0875 
L 481.523122 -255.0875 
L 480.367503 -255.0875 
L 479.211884 -255.0875 
L 478.056265 -255.0875 
L 476.900646 -255.0875 
L 475.745027 -255.0875 
L 474.589408 -255.0875 
L 473.43379 -255.0875 
L 472.278171 -255.0875 
L 471.122552 -255.0875 
L 469.966933 -255.0875 
L 468.811314 -255.0875 
L 467.655695 -255.0875 
L 466.500076 -255.0875 
L 465.344457 -255.0875 
L 464.188838 -255.0875 
L 463.033219 -255.0875 
L 461.8776 -255.0875 
L 460.721981 -255.0875 
L 459.566363 -255.0875 
L 458.410744 -255.0875 
L 457.255125 -255.0875 
L 456.099506 -255.0875 
L 454.943887 -255.0875 
L 453.788268 -255.0875 
L 452.632649 -255.0875 
L 451.47703 -255.0875 
L 450.321411 -255.0875 
L 449.165792 -255.0875 
L 448.010173 -255.0875 
L 446.854555 -255.0875 
L 445.698936 -255.0875 
L 444.543317 -255.0875 
L 443.387698 -255.0875 
L 442.232079 -255.0875 
L 441.07646 -255.0875 
L 439.920841 -255.0875 
L 438.765222 -255.0875 
L 437.609603 -255.0875 
L 436.453984 -255.0875 
L 435.298365 -255.0875 
L 434.142746 -255.0875 
L 432.987128 -255.0875 
L 431.831509 -255.0875 
L 430.67589 -255.0875 
L 429.520271 -255.0875 
L 428.364652 -255.0875 
L 427.209033 -255.0875 
L 426.053414 -255.0875 
L 424.897795 -255.0875 
L 423.742176 -255.0875 
L 422.586557 -255.0875 
L 421.430938 -255.0875 
L 420.275319 -255.0875 
L 419.119701 -255.0875 
L 417.964082 -255.0875 
L 416.808463 -255.0875 
L 415.652844 -255.0875 
L 414.497225 -255.0875 
L 413.341606 -255.0875 
L 412.185987 -255.0875 
L 411.030368 -255.0875 
L 409.874749 -255.0875 
L 408.71913 -255.0875 
L 407.563511 -255.0875 
L 406.407892 -255.0875 
L 405.252274 -255.0875 
L 404.096655 -255.0875 
L 402.941036 -255.0875 
L 401.785417 -255.0875 
L 400.629798 -255.0875 
L 399.474179 -255.0875 
L 398.31856 -255.0875 
L 397.162941 -255.0875 
L 396.007322 -255.0875 
L 394.851703 -255.0875 
L 393.696084 -255.0875 
L 392.540465 -255.0875 
L 391.384847 -255.0875 
L 390.229228 -255.0875 
L 389.073609 -255.0875 
L 387.91799 -255.0875 
L 386.762371 -255.0875 
L 385.606752 -255.0875 
L 384.451133 -255.0875 
L 383.295514 -255.0875 
L 382.139895 -255.0875 
L 380.984276 -255.0875 
L 379.828657 -255.0875 
L 378.673039 -255.0875 
L 377.51742 -255.0875 
L 376.361801 -255.0875 
L 375.206182 -255.0875 
L 374.050563 -255.0875 
L 372.894944 -255.0875 
L 371.739325 -255.0875 
L 370.583706 -255.0875 
L 369.428087 -255.0875 
L 368.272468 -255.0875 
L 367.116849 -255.0875 
L 365.96123 -255.0875 
L 364.805612 -255.0875 
L 363.649993 -255.0875 
L 362.494374 -255.0875 
L 361.338755 -255.0875 
L 360.183136 -255.0875 
L 359.027517 -255.0875 
L 357.871898 -255.0875 
L 356.716279 -255.0875 
L 355.56066 -255.0875 
L 354.405041 -255.0875 
L 353.249422 -255.0875 
L 352.093803 -255.0875 
L 350.938185 -255.0875 
L 349.782566 -255.0875 
L 348.626947 -255.0875 
L 347.471328 -255.0875 
L 346.315709 -255.0875 
L 345.16009 -255.0875 
L 344.004471 -255.0875 
L 342.848852 -255.0875 
L 341.693233 -255.0875 
L 340.537614 -255.0875 
L 339.381995 -255.0875 
L 338.226376 -255.0875 
L 337.070758 -255.0875 
L 335.915139 -255.0875 
L 334.75952 -255.0875 
L 333.603901 -255.0875 
L 332.448282 -255.0875 
L 331.292663 -255.0875 
L 330.137044 -255.0875 
L 328.981425 -255.0875 
L 327.825806 -255.0875 
L 326.670187 -255.0875 
L 325.514568 -255.0875 
L 324.358949 -255.0875 
L 323.203331 -255.0875 
L 322.047712 -255.0875 
L 320.892093 -255.0875 
L 319.736474 -255.0875 
L 318.580855 -255.0875 
L 317.425236 -255.0875 
L 316.269617 -255.0875 
L 315.113998 -255.0875 
L 313.958379 -255.0875 
L 312.80276 -255.0875 
L 311.647141 -255.0875 
L 310.491523 -255.0875 
L 309.335904 -255.0875 
L 308.180285 -255.0875 
L 307.024666 -255.0875 
L 305.869047 -255.0875 
L 304.713428 -255.0875 
L 303.557809 -255.0875 
L 302.40219 -255.0875 
L 301.246571 -255.0875 
L 300.090952 -255.0875 
L 298.935333 -255.0875 
L 297.779714 -255.0875 
L 296.624096 -255.0875 
L 295.468477 -255.0875 
L 294.312858 -255.0875 
L 293.157239 -255.0875 
L 292.00162 -255.0875 
L 290.846001 -255.0875 
L 289.690382 -255.0875 
L 288.534763 -255.0875 
L 287.379144 -255.0875 
L 286.223525 -255.0875 
L 285.067906 -255.0875 
L 283.912287 -255.0875 
L 282.756669 -255.0875 
L 281.60105 -255.0875 
L 280.445431 -255.0875 
L 279.289812 -255.0875 
L 278.134193 -255.0875 
L 276.978574 -255.0875 
L 275.822955 -255.0875 
L 274.667336 -255.0875 
L 273.511717 -255.0875 
L 272.356098 -255.0875 
L 271.200479 -255.0875 
L 270.04486 -255.0875 
L 268.889242 -255.0875 
L 267.733623 -255.0875 
L 266.578004 -255.0875 
L 265.422385 -255.0875 
L 264.266766 -255.0875 
L 263.111147 -255.0875 
L 261.955528 -255.0875 
L 260.799909 -255.0875 
L 259.64429 -255.0875 
L 258.488671 -255.0875 
L 257.333052 -255.0875 
L 256.177434 -255.0875 
L 255.021815 -255.0875 
L 253.866196 -255.0875 
L 252.710577 -255.0875 
L 251.554958 -255.0875 
L 250.399339 -255.0875 
L 249.24372 -255.0875 
L 248.088101 -255.0875 
L 246.932482 -255.0875 
L 245.776863 -255.0875 
L 244.621244 -255.0875 
L 243.465625 -255.0875 
L 242.310007 -255.0875 
L 241.154388 -255.0875 
L 239.998769 -255.0875 
L 238.84315 -255.0875 
L 237.687531 -255.0875 
L 236.531912 -255.0875 
L 235.376293 -255.0875 
L 234.220674 -255.0875 
L 233.065055 -255.0875 
L 231.909436 -255.0875 
L 230.753817 -255.0875 
L 229.598198 -255.0875 
L 228.44258 -255.0875 
L 227.286961 -255.0875 
L 226.131342 -255.0875 
L 224.975723 -255.0875 
L 223.820104 -255.0875 
L 222.664485 -255.0875 
L 221.508866 -255.0875 
L 220.353247 -255.0875 
L 219.197628 -255.0875 
L 218.042009 -255.0875 
L 216.88639 -255.0875 
L 215.730771 -255.0875 
L 214.575153 -255.0875 
L 213.419534 -255.0875 
L 212.263915 -255.0875 
L 211.108296 -255.0875 
L 209.952677 -255.0875 
L 208.797058 -255.0875 
L 207.641439 -255.0875 
L 206.48582 -255.0875 
L 205.330201 -255.0875 
L 204.174582 -255.0875 
L 203.018963 -255.0875 
L 201.863344 -255.0875 
L 200.707726 -255.0875 
L 199.552107 -255.0875 
L 198.396488 -255.0875 
L 197.240869 -255.0875 
L 196.08525 -255.0875 
L 194.929631 -255.0875 
L 193.774012 -255.0875 
L 192.618393 -255.0875 
L 191.462774 -255.0875 
L 190.307155 -255.0875 
L 189.151536 -255.0875 
L 187.995918 -255.0875 
L 186.840299 -255.0875 
L 185.68468 -255.0875 
L 184.529061 -255.0875 
L 183.373442 -255.0875 
L 182.217823 -255.0875 
L 181.062204 -255.0875 
L 179.906585 -255.0875 
L 178.750966 -255.0875 
L 177.595347 -255.0875 
L 176.439728 -255.0875 
L 175.284109 -255.0875 
L 174.128491 -255.0875 
L 172.972872 -255.0875 
L 171.817253 -255.0875 
L 170.661634 -255.0875 
L 169.506015 -255.0875 
L 168.350396 -255.0875 
L 167.194777 -255.0875 
L 166.039158 -255.0875 
L 164.883539 -255.0875 
L 163.72792 -255.0875 
L 162.572301 -255.0875 
L 161.416682 -255.0875 
L 160.261064 -255.0875 
L 159.105445 -255.0875 
L 157.949826 -255.0875 
L 156.794207 -255.0875 
L 155.638588 -255.0875 
L 154.482969 -255.0875 
L 153.32735 -255.0875 
L 152.171731 -255.0875 
L 151.016112 -255.0875 
L 149.860493 -255.0875 
L 148.704874 -255.0875 
L 147.549255 -255.0875 
L 146.393637 -255.0875 
L 145.238018 -255.0875 
L 144.082399 -255.0875 
L 142.92678 -255.0875 
L 141.771161 -255.0875 
L 140.615542 -255.0875 
L 139.459923 -255.0875 
L 138.304304 -255.0875 
L 137.148685 -255.0875 
L 135.993066 -255.0875 
L 134.837447 -255.0875 
L 133.681828 -255.0875 
L 132.52621 -255.0875 
L 131.370591 -255.0875 
L 130.214972 -255.0875 
L 129.059353 -255.0875 
L 127.903734 -255.0875 
L 126.748115 -255.0875 
L 125.592496 -255.0875 
L 124.436877 -255.0875 
L 123.281258 -255.0875 
L 122.125639 -255.0875 
L 120.97002 -255.0875 
L 119.814402 -255.0875 
L 118.658783 -255.0875 
L 117.503164 -255.0875 
L 116.347545 -255.0875 
L 115.191926 -255.0875 
L 114.036307 -255.0875 
L 112.880688 -255.0875 
L 111.725069 -255.0875 
L 110.56945 -255.0875 
L 109.413831 -255.0875 
L 108.258212 -255.0875 
L 107.102593 -255.0875 
L 105.946975 -255.0875 
L 104.791356 -255.0875 
L 103.635737 -255.0875 
L 102.480118 -255.0875 
L 101.324499 -255.0875 
L 100.16888 -255.0875 
L 99.013261 -255.0875 
L 97.857642 -255.0875 
L 96.702023 -255.0875 
L 95.546404 -255.0875 
L 94.390785 -255.0875 
L 93.235166 -255.0875 
L 92.079548 -255.0875 
L 90.923929 -255.0875 
L 89.76831 -255.0875 
L 88.612691 -255.0875 
L 87.457072 -255.0875 
L 86.301453 -255.0875 
L 85.145834 -255.0875 
L 83.990215 -255.0875 
L 82.834596 -255.0875 
L 81.678977 -255.0875 
L 80.523358 -255.0875 
L 79.367739 -255.0875 
L 78.212121 -255.0875 
L 77.056502 -255.0875 
L 75.900883 -255.0875 
L 74.745264 -255.0875 
L 73.589645 -255.0875 
L 72.434026 -255.0875 
L 71.278407 -255.0875 
L 70.122788 -255.0875 
L 68.967169 -255.0875 
L 67.81155 -255.0875 
L 66.655931 -255.0875 
L 65.500313 -255.0875 
z
" style="stroke: #a3583c; stroke-opacity: 0.08"/>
    </defs>
    <g clip-path="url(#p5d59c96f10)">
     <use xlink:href="#mbf9215be6c" x="0" y="499.624687" style="fill: #a3583c; fill-opacity: 0.08; stroke: #a3583c; stroke-opacity: 0.08"/>
    </g>
   </g>
   <g id="matplotlib.axis_1">
    <g id="xtick_1">
     <g id="line2d_1">
      <path d="M 65.500313 453.877187 
L 65.500313 35.197187 
" clip-path="url(#p5d59c96f10)" style="fill: none; stroke: #d9cbb6; stroke-opacity: 0.45; stroke-width: 0.8; stroke-linecap: square"/>
     </g>
     <g id="line2d_2">
      <defs>
       <path id="m6cbef2b151" d="M 0 0 
L 0 3.5 
" style="stroke: #756a5d; stroke-width: 0.8"/>
      </defs>
      <g>
       <use xlink:href="#m6cbef2b151" x="65.500313" y="453.877187" style="fill: #756a5d; stroke: #756a5d; stroke-width: 0.8"/>
      </g>
     </g>
     <g id="text_1">
      <text style="font-size: 11px; font-family: 'DejaVu Serif'; text-anchor: middle; fill: #756a5d" x="65.500313" y="469.235469" transform="rotate(-0 65.500313 469.235469)">0.0</text>
     </g>
    </g>
    <g id="xtick_2">
     <g id="line2d_3">
      <path d="M 231.678313 453.877187 
L 231.678313 35.197187 
" clip-path="url(#p5d59c96f10)" style="fill: none; stroke: #d9cbb6; stroke-opacity: 0.45; stroke-width: 0.8; stroke-linecap: square"/>
     </g>
     <g id="line2d_4">
      <g>
       <use xlink:href="#m6cbef2b151" x="231.678313" y="453.877187" style="fill: #756a5d; stroke: #756a5d; stroke-width: 0.8"/>
      </g>
     </g>
     <g id="text_2">
      <text style="font-size: 11px; font-family: 'DejaVu Serif'; text-anchor: middle; fill: #756a5d" x="231.678313" y="469.235469" transform="rotate(-0 231.678313 469.235469)">0.2</text>
     </g>
    </g>
    <g id="xtick_3">
     <g id="line2d_5">
      <path d="M 397.856313 453.877187 
L 397.856313 35.197187 
" clip-path="url(#p5d59c96f10)" style="fill: none; stroke: #d9cbb6; stroke-opacity: 0.45; stroke-width: 0.8; stroke-linecap: square"/>
     </g>
     <g id="line2d_6">
      <g>
       <use xlink:href="#m6cbef2b151" x="397.856313" y="453.877187" style="fill: #756a5d; stroke: #756a5d; stroke-width: 0.8"/>
      </g>
     </g>
     <g id="text_3">
      <text style="font-size: 11px; font-family: 'DejaVu Serif'; text-anchor: middle; fill: #756a5d" x="397.856313" y="469.235469" transform="rotate(-0 397.856313 469.235469)">0.4</text>
     </g>
    </g>
    <g id="xtick_4">
     <g id="line2d_7">
      <path d="M 564.034312 453.877187 
L 564.034312 35.197187 
" clip-path="url(#p5d59c96f10)" style="fill: none; stroke: #d9cbb6; stroke-opacity: 0.45; stroke-width: 0.8; stroke-linecap: square"/>
     </g>
     <g id="line2d_8">
      <g>
       <use xlink:href="#m6cbef2b151" x="564.034312" y="453.877187" style="fill: #756a5d; stroke: #756a5d; stroke-width: 0.8"/>
      </g>
     </g>
     <g id="text_4">
      <text style="font-size: 11px; font-family: 'DejaVu Serif'; text-anchor: middle; fill: #756a5d" x="564.034312" y="469.235469" transform="rotate(-0 564.034312 469.235469)">0.6</text>
     </g>
    </g>
    <g id="xtick_5">
     <g id="line2d_9">
      <path d="M 730.212313 453.877187 
L 730.212313 35.197187 
" clip-path="url(#p5d59c96f10)" style="fill: none; stroke: #d9cbb6; stroke-opacity: 0.45; stroke-width: 0.8; stroke-linecap: square"/>
     </g>
     <g id="line2d_10">
      <g>
       <use xlink:href="#m6cbef2b151" x="730.212313" y="453.877187" style="fill: #756a5d; stroke: #756a5d; stroke-width: 0.8"/>
      </g>
     </g>
     <g id="text_5">
      <text style="font-size: 11px; font-family: 'DejaVu Serif'; text-anchor: middle; fill: #756a5d" x="730.212313" y="469.235469" transform="rotate(-0 730.212313 469.235469)">0.8</text>
     </g>
    </g>
    <g id="xtick_6">
     <g id="line2d_11">
      <path d="M 896.390312 453.877187 
L 896.390312 35.197187 
" clip-path="url(#p5d59c96f10)" style="fill: none; stroke: #d9cbb6; stroke-opacity: 0.45; stroke-width: 0.8; stroke-linecap: square"/>
     </g>
     <g id="line2d_12">
      <g>
       <use xlink:href="#m6cbef2b151" x="896.390312" y="453.877187" style="fill: #756a5d; stroke: #756a5d; stroke-width: 0.8"/>
      </g>
     </g>
     <g id="text_6">
      <text style="font-size: 11px; font-family: 'DejaVu Serif'; text-anchor: middle; fill: #756a5d" x="896.390312" y="469.235469" transform="rotate(-0 896.390312 469.235469)">1.0</text>
     </g>
    </g>
    <g id="text_7">
     <text style="font-size: 13px; font-family: 'DejaVu Serif'; text-anchor: middle; fill: #1f1b16" x="480.945312" y="485.401094" transform="rotate(-0 480.945312 485.401094)">Orbital phase</text>
    </g>
   </g>
   <g id="matplotlib.axis_2">
    <g id="ytick_1">
     <g id="line2d_13">
      <path d="M 65.500313 413.528858 
L 896.390312 413.528858 
" clip-path="url(#p5d59c96f10)" style="fill: none; stroke: #d9cbb6; stroke-opacity: 0.45; stroke-width: 0.8; stroke-linecap: square"/>
     </g>
     <g id="line2d_14">
      <defs>
       <path id="md7073afe6b" d="M 0 0 
L -3.5 0 
" style="stroke: #756a5d; stroke-width: 0.8"/>
      </defs>
      <g>
       <use xlink:href="#md7073afe6b" x="65.500313" y="413.528858" style="fill: #756a5d; stroke: #756a5d; stroke-width: 0.8"/>
      </g>
     </g>
     <g id="text_8">
      <text style="font-size: 11px; font-family: 'DejaVu Serif'; text-anchor: end; fill: #756a5d" x="58.500313" y="417.707999" transform="rotate(-0 58.500313 417.707999)">−150</text>
     </g>
    </g>
    <g id="ytick_2">
     <g id="line2d_15">
      <path d="M 65.500313 357.198301 
L 896.390312 357.198301 
" clip-path="url(#p5d59c96f10)" style="fill: none; stroke: #d9cbb6; stroke-opacity: 0.45; stroke-width: 0.8; stroke-linecap: square"/>
     </g>
     <g id="line2d_16">
      <g>
       <use xlink:href="#md7073afe6b" x="65.500313" y="357.198301" style="fill: #756a5d; stroke: #756a5d; stroke-width: 0.8"/>
      </g>
     </g>
     <g id="text_9">
      <text style="font-size: 11px; font-family: 'DejaVu Serif'; text-anchor: end; fill: #756a5d" x="58.500313" y="361.377442" transform="rotate(-0 58.500313 361.377442)">−100</text>
     </g>
    </g>
    <g id="ytick_3">
     <g id="line2d_17">
      <path d="M 65.500313 300.867744 
L 896.390312 300.867744 
" clip-path="url(#p5d59c96f10)" style="fill: none; stroke: #d9cbb6; stroke-opacity: 0.45; stroke-width: 0.8; stroke-linecap: square"/>
     </g>
     <g id="line2d_18">
      <g>
       <use xlink:href="#md7073afe6b" x="65.500313" y="300.867744" style="fill: #756a5d; stroke: #756a5d; stroke-width: 0.8"/>
      </g>
     </g>
     <g id="text_10">
      <text style="font-size: 11px; font-family: 'DejaVu Serif'; text-anchor: end; fill: #756a5d" x="58.500313" y="305.046885" transform="rotate(-0 58.500313 305.046885)">−50</text>
     </g>
    </g>
    <g id="ytick_4">
     <g id="line2d_19">
      <path d="M 65.500313 244.537187 
L 896.390312 244.537187 
" clip-path="url(#p5d59c96f10)" style="fill: none; stroke: #d9cbb6; stroke-opacity: 0.45; stroke-width: 0.8; stroke-linecap: square"/>
     </g>
     <g id="line2d_20">
      <g>
       <use xlink:href="#md7073afe6b" x="65.500313" y="244.537187" style="fill: #756a5d; stroke: #756a5d; stroke-width: 0.8"/>
      </g>
     </g>
     <g id="text_11">
      <text style="font-size: 11px; font-family: 'DejaVu Serif'; text-anchor: end; fill: #756a5d" x="58.500313" y="248.716328" transform="rotate(-0 58.500313 248.716328)">0</text>
     </g>
    </g>
    <g id="ytick_5">
     <g id="line2d_21">
      <path d="M 65.500313 188.206631 
L 896.390312 188.206631 
" clip-path="url(#p5d59c96f10)" style="fill: none; stroke: #d9cbb6; stroke-opacity: 0.45; stroke-width: 0.8; stroke-linecap: square"/>
     </g>
     <g id="line2d_22">
      <g>
       <use xlink:href="#md7073afe6b" x="65.500313" y="188.206631" style="fill: #756a5d; stroke: #756a5d; stroke-width: 0.8"/>
      </g>
     </g>
     <g id="text_12">
      <text style="font-size: 11px; font-family: 'DejaVu Serif'; text-anchor: end; fill: #756a5d" x="58.500313" y="192.385771" transform="rotate(-0 58.500313 192.385771)">50</text>
     </g>
    </g>
    <g id="ytick_6">
     <g id="line2d_23">
      <path d="M 65.500313 131.876074 
L 896.390312 131.876074 
" clip-path="url(#p5d59c96f10)" style="fill: none; stroke: #d9cbb6; stroke-opacity: 0.45; stroke-width: 0.8; stroke-linecap: square"/>
     </g>
     <g id="line2d_24">
      <g>
       <use xlink:href="#md7073afe6b" x="65.500313" y="131.876074" style="fill: #756a5d; stroke: #756a5d; stroke-width: 0.8"/>
      </g>
     </g>
     <g id="text_13">
      <text style="font-size: 11px; font-family: 'DejaVu Serif'; text-anchor: end; fill: #756a5d" x="58.500313" y="136.055214" transform="rotate(-0 58.500313 136.055214)">100</text>
     </g>
    </g>
    <g id="ytick_7">
     <g id="line2d_25">
      <path d="M 65.500313 75.545517 
L 896.390312 75.545517 
" clip-path="url(#p5d59c96f10)" style="fill: none; stroke: #d9cbb6; stroke-opacity: 0.45; stroke-width: 0.8; stroke-linecap: square"/>
     </g>
     <g id="line2d_26">
      <g>
       <use xlink:href="#md7073afe6b" x="65.500313" y="75.545517" style="fill: #756a5d; stroke: #756a5d; stroke-width: 0.8"/>
      </g>
     </g>
     <g id="text_14">
      <text style="font-size: 11px; font-family: 'DejaVu Serif'; text-anchor: end; fill: #756a5d" x="58.500313" y="79.724657" transform="rotate(-0 58.500313 79.724657)">150</text>
     </g>
    </g>
    <g id="text_15">
     <text style="font-size: 13px; font-family: 'DejaVu Serif'; text-anchor: middle; fill: #1f1b16" x="21.397969" y="244.537187" transform="rotate(-90 21.397969 244.537187)">Stellar radial velocity (m/s)</text>
    </g>
   </g>
   <g id="line2d_27">
    <path d="M 65.500313 244.537187 
L 78.212121 279.737368 
L 85.145834 298.310949 
L 90.923929 313.209054 
L 96.702023 327.443022 
L 101.324499 338.279225 
L 105.946975 348.576484 
L 110.56945 358.299121 
L 115.191926 367.420482 
L 119.814402 375.922545 
L 123.281258 381.886388 
L 126.748115 387.494627 
L 130.214972 392.74789 
L 133.681828 397.64871 
L 137.148685 402.201316 
L 140.615542 406.411415 
L 144.082399 410.285989 
L 147.549255 413.833101 
L 151.016112 417.0617 
L 154.482969 419.981456 
L 157.949826 422.602594 
L 161.416682 424.93575 
L 164.883539 426.991844 
L 168.350396 428.781962 
L 171.817253 430.317254 
L 175.284109 431.60885 
L 178.750966 432.667782 
L 182.217823 433.504922 
L 185.68468 434.13093 
L 189.151536 434.55621 
L 192.618393 434.790877 
L 196.08525 434.84473 
L 200.707726 434.651573 
L 205.330201 434.175209 
L 209.952677 433.43596 
L 214.575153 432.452996 
L 219.197628 431.244342 
L 223.820104 429.826902 
L 229.598198 427.785479 
L 235.376293 425.471026 
L 241.154388 422.909687 
L 246.932482 420.12532 
L 253.866196 416.520139 
L 260.799909 412.658815 
L 268.889242 407.870198 
L 276.978574 402.815924 
L 286.223525 396.7611 
L 296.624096 389.650022 
L 308.180285 381.442553 
L 320.892093 372.114907 
L 334.75952 361.658766 
L 350.938185 349.17949 
L 370.583706 333.733698 
L 394.851703 314.359438 
L 428.364652 287.296417 
L 487.301217 239.361622 
L 550.860257 187.747927 
L 582.061968 162.690486 
L 605.174346 144.409296 
L 623.664249 130.067172 
L 638.687294 118.68378 
L 651.399102 109.306459 
L 662.955292 101.042091 
L 673.355862 93.868064 
L 682.600813 87.74607 
L 690.690146 82.622847 
L 698.779478 77.754282 
L 705.713191 73.814444 
L 712.646905 70.120314 
L 719.580618 66.704444 
L 725.358713 64.096661 
L 731.136808 61.730815 
L 736.914902 59.63258 
L 741.537378 58.165455 
L 746.159854 56.903063 
L 750.782329 55.862031 
L 755.404805 55.060101 
L 760.027281 54.516156 
L 764.649756 54.250229 
L 768.116613 54.245931 
L 771.58347 54.419254 
L 775.050326 54.779888 
L 778.517183 55.337844 
L 781.98404 56.103434 
L 785.450897 57.087237 
L 788.917753 58.300059 
L 792.38461 59.752886 
L 795.851467 61.456822 
L 799.318324 63.423021 
L 802.78518 65.662599 
L 806.252037 68.186544 
L 809.718894 71.005602 
L 813.185751 74.130148 
L 816.652607 77.570056 
L 820.119464 81.334533 
L 823.586321 85.431957 
L 827.053178 89.869692 
L 830.520034 94.653894 
L 833.986891 99.789307 
L 837.453748 105.279052 
L 840.920605 111.124416 
L 844.387461 117.324645 
L 849.009937 126.138091 
L 853.632413 135.562871 
L 858.254888 145.576708 
L 862.877364 156.148471 
L 867.49984 167.237901 
L 873.277934 181.751579 
L 879.056029 196.880685 
L 885.989742 215.656908 
L 896.390312 244.537187 
L 896.390312 244.537187 
" clip-path="url(#p5d59c96f10)" style="fill: none; stroke: #a3583c; stroke-width: 2.6; stroke-linecap: square"/>
   </g>
   <g id="line2d_28">
    <path d="M 65.500313 244.537187 
L 896.390312 244.537187 
" clip-path="url(#p5d59c96f10)" style="fill: none; stroke-dasharray: 5.365,2.32; stroke-dashoffset: 0; stroke: #9b9184; stroke-opacity: 0.65; stroke-width: 1.45"/>
   </g>
   <g id="patch_3">
    <path d="M 65.500313 453.877187 
L 65.500313 35.197187 
" style="fill: none; stroke: #b9a98f; stroke-width: 0.8; stroke-linejoin: miter; stroke-linecap: square"/>
   </g>
   <g id="patch_4">
    <path d="M 896.390312 453.877187 
L 896.390312 35.197187 
" style="fill: none; stroke: #b9a98f; stroke-width: 0.8; stroke-linejoin: miter; stroke-linecap: square"/>
   </g>
   <g id="patch_5">
    <path d="M 65.500313 453.877187 
L 896.390312 453.877187 
" style="fill: none; stroke: #b9a98f; stroke-width: 0.8; stroke-linejoin: miter; stroke-linecap: square"/>
   </g>
   <g id="patch_6">
    <path d="M 65.500313 35.197187 
L 896.390312 35.197187 
" style="fill: none; stroke: #b9a98f; stroke-width: 0.8; stroke-linejoin: miter; stroke-linecap: square"/>
   </g>
   <g id="text_16">
    <g id="patch_7">
     <path d="M 77.963662 72.760563 
L 356.379913 72.760563 
Q 359.459913 72.760563 359.459913 69.680563 
L 359.459913 56.131188 
Q 359.459913 53.051188 356.379913 53.051188 
L 77.963662 53.051188 
Q 74.883662 53.051188 74.883662 56.131188 
L 74.883662 69.680563 
Q 74.883662 72.760563 77.963662 72.760563 
z
" style="fill: #fffaf0; opacity: 0.88"/>
    </g>
    <text style="font-size: 14px; font-family: 'DejaVu Serif'; text-anchor: start; fill: #756a5d" x="77.963662" y="66.769" transform="rotate(-0 77.963662 66.769)">K ≈ 169 m s^-1 · P ≈ 1276 d · e = 0.30</text>
   </g>
   <g id="text_17">
    <text style="font-size: 10.5px; font-family: 'DejaVu Serif'; text-anchor: end; fill: #756a5d" x="888.081412" y="443.170619" transform="rotate(-0 888.081412 443.170619)">single-planet Keplerian model</text>
   </g>
   <g id="text_18">
    <text style="font-weight: 700; font-size: 18px; font-family: 'DejaVu Serif'; text-anchor: start; fill: #1f1b16" x="65.500313" y="25.197187" transform="rotate(-0 65.500313 25.197187)">Keplerian RV model — ups And d</text>
   </g>
  </g>
 </g>
 <defs>
  <clipPath id="p5d59c96f10">
   <rect x="65.500313" y="35.197187" width="830.89" height="418.68"/>
  </clipPath>
 </defs>
</svg>
