<?xml version="1.0" encoding="utf-8" standalone="no"?>
<!DOCTYPE svg PUBLIC "-//W3C//DTD SVG 1.1//EN"
  "http://www.w3.org/Graphics/SVG/1.1/DTD/svg11.dtd">
<svg xmlns:xlink="http://www.w3.org/1999/xlink" width="917.04pt" height="496.821531pt" viewBox="0 0 917.04 496.821531" xmlns="http://www.w3.org/2000/svg" version="1.1">
 <metadata>
  <rdf:RDF xmlns:dc="http://purl.org/dc/elements/1.1/" xmlns:cc="http://creativecommons.org/ns#" xmlns:rdf="http://www.w3.org/1999/02/22-rdf-syntax-ns#">
   <cc:Work>
    <dc:type rdf:resource="http://purl.org/dc/dcmitype/StillImage"/>
    <dc:date>2026-05-11T14:54:30.816895</dc:date>
    <dc:format>image/svg+xml</dc:format>
    <dc:creator>
     <cc:Agent>
      <dc:title>Matplotlib v3.10.8, https://matplotlib.org/</dc:title>
     </cc:Agent>
    </dc:creator>
   </cc:Work>
  </rdf:RDF>
 </metadata>
 <defs>
  <style type="text/css">*{stroke-linejoin: round; stroke-linecap: butt}</style>
 </defs>
 <g id="figure_1">
  <g id="patch_1">
   <path d="M 0 496.821531 
L 917.04 496.821531 
L 917.04 0 
L 0 0 
z
" style="fill: #fffaf0"/>
  </g>
  <g id="axes_1">
   <g id="patch_2">
    <path d="M 11.52 450.889187 
L 905.52 450.889187 
L 905.52 35.197187 
L 11.52 35.197187 
z
" style="fill: #fffaf0"/>
   </g>
   <g id="patch_3">
    <path d="M 317.955837 367.750787 
L 690.761478 367.750787 
L 690.761478 118.335587 
L 317.955837 118.335587 
z
" clip-path="url(#p0a009b5744)" style="fill: #687b5d; opacity: 0.18; stroke: #687b5d; stroke-linejoin: miter"/>
   </g>
   <g id="patch_4">
    <path d="M 408.66118 326.181587 
L 670.293363 326.181587 
L 670.293363 159.904787 
L 408.66118 159.904787 
z
" clip-path="url(#p0a009b5744)" style="fill: #687b5d; opacity: 0.34; stroke: #687b5d; stroke-linejoin: miter"/>
   </g>
   <g id="matplotlib.axis_1">
    <g id="xtick_1">
     <g id="line2d_1">
      <path d="M 450.945583 450.889187 
L 450.945583 35.197187 
" clip-path="url(#p0a009b5744)" style="fill: none; stroke: #d9cbb6; stroke-opacity: 0.45; stroke-width: 0.8; stroke-linecap: square"/>
     </g>
     <g id="line2d_2">
      <defs>
       <path id="m005801a3f3" d="M 0 0 
L 0 3.5 
" style="stroke: #756a5d; stroke-width: 0.8"/>
      </defs>
      <g>
       <use xlink:href="#m005801a3f3" x="450.945583" y="450.889187" style="fill: #756a5d; stroke: #756a5d; stroke-width: 0.8"/>
      </g>
     </g>
     <g id="text_1">
      <!-- $\mathdefault{10^{-1}}$ -->
      <g style="fill: #756a5d" transform="translate(438.075583 466.247469)">
       <text>
        <tspan x="0" y="-0.2875" style="font-size: 11px; font-family: 'DejaVu Serif'; fill: #756a5d">1</tspan>
        <tspan x="6.998535" y="-0.2875" style="font-size: 11px; font-family: 'DejaVu Serif'; fill: #756a5d">0</tspan>
        <tspan x="14.096875" y="-4.279688" style="font-size: 7.7px; font-family: 'DejaVu Serif'; fill: #756a5d">−</tspan>
        <tspan x="20.548633" y="-4.279688" style="font-size: 7.7px; font-family: 'DejaVu Serif'; fill: #756a5d">1</tspan>
       </text>
      </g>
     </g>
    </g>
    <g id="xtick_2">
     <g id="line2d_3">
      <path d="M 99.30925 450.889187 
L 99.30925 35.197187 
" clip-path="url(#p0a009b5744)" style="fill: none; stroke: #d9cbb6; stroke-opacity: 0.18; stroke-width: 0.8; stroke-linecap: square"/>
     </g>
     <g id="line2d_4">
      <defs>
       <path id="me30759c16b" d="M 0 0 
L 0 2 
" style="stroke: #756a5d; stroke-width: 0.6"/>
      </defs>
      <g>
       <use xlink:href="#me30759c16b" x="99.30925" y="450.889187" style="fill: #756a5d; stroke: #756a5d; stroke-width: 0.6"/>
      </g>
     </g>
    </g>
    <g id="xtick_3">
     <g id="line2d_5">
      <path d="M 184.942966 450.889187 
L 184.942966 35.197187 
" clip-path="url(#p0a009b5744)" style="fill: none; stroke: #d9cbb6; stroke-opacity: 0.18; stroke-width: 0.8; stroke-linecap: square"/>
     </g>
     <g id="line2d_6">
      <g>
       <use xlink:href="#me30759c16b" x="184.942966" y="450.889187" style="fill: #756a5d; stroke: #756a5d; stroke-width: 0.6"/>
      </g>
     </g>
    </g>
    <g id="xtick_4">
     <g id="line2d_7">
      <path d="M 254.910806 450.889187 
L 254.910806 35.197187 
" clip-path="url(#p0a009b5744)" style="fill: none; stroke: #d9cbb6; stroke-opacity: 0.18; stroke-width: 0.8; stroke-linecap: square"/>
     </g>
     <g id="line2d_8">
      <g>
       <use xlink:href="#me30759c16b" x="254.910806" y="450.889187" style="fill: #756a5d; stroke: #756a5d; stroke-width: 0.6"/>
      </g>
     </g>
    </g>
    <g id="xtick_5">
     <g id="line2d_9">
      <path d="M 314.067772 450.889187 
L 314.067772 35.197187 
" clip-path="url(#p0a009b5744)" style="fill: none; stroke: #d9cbb6; stroke-opacity: 0.18; stroke-width: 0.8; stroke-linecap: square"/>
     </g>
     <g id="line2d_10">
      <g>
       <use xlink:href="#me30759c16b" x="314.067772" y="450.889187" style="fill: #756a5d; stroke: #756a5d; stroke-width: 0.6"/>
      </g>
     </g>
    </g>
    <g id="xtick_6">
     <g id="line2d_11">
      <path d="M 365.311867 450.889187 
L 365.311867 35.197187 
" clip-path="url(#p0a009b5744)" style="fill: none; stroke: #d9cbb6; stroke-opacity: 0.18; stroke-width: 0.8; stroke-linecap: square"/>
     </g>
     <g id="line2d_12">
      <g>
       <use xlink:href="#me30759c16b" x="365.311867" y="450.889187" style="fill: #756a5d; stroke: #756a5d; stroke-width: 0.6"/>
      </g>
     </g>
    </g>
    <g id="xtick_7">
     <g id="line2d_13">
      <path d="M 410.512362 450.889187 
L 410.512362 35.197187 
" clip-path="url(#p0a009b5744)" style="fill: none; stroke: #d9cbb6; stroke-opacity: 0.18; stroke-width: 0.8; stroke-linecap: square"/>
     </g>
     <g id="line2d_14">
      <g>
       <use xlink:href="#me30759c16b" x="410.512362" y="450.889187" style="fill: #756a5d; stroke: #756a5d; stroke-width: 0.6"/>
      </g>
     </g>
    </g>
    <g id="xtick_8">
     <g id="line2d_15">
      <path d="M 716.9482 450.889187 
L 716.9482 35.197187 
" clip-path="url(#p0a009b5744)" style="fill: none; stroke: #d9cbb6; stroke-opacity: 0.18; stroke-width: 0.8; stroke-linecap: square"/>
     </g>
     <g id="line2d_16">
      <g>
       <use xlink:href="#me30759c16b" x="716.9482" y="450.889187" style="fill: #756a5d; stroke: #756a5d; stroke-width: 0.6"/>
      </g>
     </g>
    </g>
    <g id="xtick_9">
     <g id="line2d_17">
      <path d="M 872.549756 450.889187 
L 872.549756 35.197187 
" clip-path="url(#p0a009b5744)" style="fill: none; stroke: #d9cbb6; stroke-opacity: 0.18; stroke-width: 0.8; stroke-linecap: square"/>
     </g>
     <g id="line2d_18">
      <g>
       <use xlink:href="#me30759c16b" x="872.549756" y="450.889187" style="fill: #756a5d; stroke: #756a5d; stroke-width: 0.6"/>
      </g>
     </g>
    </g>
    <g id="text_2">
     <text style="font-size: 13px; font-family: 'DejaVu Serif'; text-anchor: middle; fill: #1f1b16" x="458.52" y="482.413094" transform="rotate(-0 458.52 482.413094)">Orbital distance (AU, log scale)</text>
    </g>
   </g>
   <g id="matplotlib.axis_2"/>
   <g id="line2d_19">
    <path d="M 454.804168 450.889187 
L 454.804168 35.197187 
" clip-path="url(#p0a009b5744)" style="fill: none; stroke: #a3583c; stroke-width: 2.8; stroke-linecap: square"/>
   </g>
   <g id="line2d_20">
    <path d="M 317.955837 450.889187 
L 317.955837 35.197187 
" clip-path="url(#p0a009b5744)" style="fill: none; stroke-dasharray: 5.365,2.32; stroke-dashoffset: 0; stroke: #7f8d70; stroke-opacity: 0.65; stroke-width: 1.45"/>
   </g>
   <g id="line2d_21">
    <path d="M 408.66118 450.889187 
L 408.66118 35.197187 
" clip-path="url(#p0a009b5744)" style="fill: none; stroke-dasharray: 5.365,2.32; stroke-dashoffset: 0; stroke: #7f8d70; stroke-opacity: 0.65; stroke-width: 1.45"/>
   </g>
   <g id="line2d_22">
    <path d="M 670.293363 450.889187 
L 670.293363 35.197187 
" clip-path="url(#p0a009b5744)" style="fill: none; stroke-dasharray: 5.365,2.32; stroke-dashoffset: 0; stroke: #7f8d70; stroke-opacity: 0.65; stroke-width: 1.45"/>
   </g>
   <g id="line2d_23">
    <path d="M 690.761478 450.889187 
L 690.761478 35.197187 
" clip-path="url(#p0a009b5744)" style="fill: none; stroke-dasharray: 5.365,2.32; stroke-dashoffset: 0; stroke: #7f8d70; stroke-opacity: 0.65; stroke-width: 1.45"/>
   </g>
   <g id="patch_5">
    <path d="M 11.52 450.889187 
L 11.52 35.197187 
" style="fill: none; stroke: #b9a98f; stroke-width: 0.8; stroke-linejoin: miter; stroke-linecap: square"/>
   </g>
   <g id="patch_6">
    <path d="M 905.52 450.889187 
L 905.52 35.197187 
" style="fill: none; stroke: #b9a98f; stroke-width: 0.8; stroke-linejoin: miter; stroke-linecap: square"/>
   </g>
   <g id="patch_7">
    <path d="M 11.52 450.889187 
L 905.52 450.889187 
" style="fill: none; stroke: #b9a98f; stroke-width: 0.8; stroke-linejoin: miter; stroke-linecap: square"/>
   </g>
   <g id="patch_8">
    <path d="M 11.52 35.197187 
L 905.52 35.197187 
" style="fill: none; stroke: #b9a98f; stroke-width: 0.8; stroke-linejoin: miter; stroke-linecap: square"/>
   </g>
   <g id="text_3">
    <text style="font-size: 11.5px; font-family: 'DejaVu Serif'; fill: #756a5d" transform="translate(315.564197 169.403677) rotate(-90)">recent Venus</text>
   </g>
   <g id="text_4">
    <text style="font-size: 11.5px; font-family: 'DejaVu Serif'; fill: #756a5d" transform="translate(406.106024 185.327877) rotate(-90)">runaway</text>
   </g>
   <g id="text_5">
    <text style="font-size: 11.5px; font-family: 'DejaVu Serif'; fill: #756a5d" transform="translate(667.738207 231.187721) rotate(-90)">max greenhouse</text>
   </g>
   <g id="text_6">
    <text style="font-size: 11.5px; font-family: 'DejaVu Serif'; fill: #756a5d" transform="translate(688.206322 156.414067) rotate(-90)">early Mars</text>
   </g>
   <g id="text_7">
    <g id="patch_9">
     <path d="M 24.93 72.611162 
L 258.5725 72.611162 
Q 261.6525 72.611162 261.6525 69.531162 
L 261.6525 55.981787 
Q 261.6525 52.901787 258.5725 52.901787 
L 24.93 52.901787 
Q 21.85 52.901787 21.85 55.981787 
L 21.85 69.531162 
Q 21.85 72.611162 24.93 72.611162 
z
" style="fill: #fffaf0; opacity: 0.88"/>
    </g>
    <text style="font-size: 14px; font-family: 'DejaVu Serif'; text-anchor: start; fill: #756a5d" x="24.93" y="66.6196" transform="rotate(-0 24.93 66.6196)">L* ≈ 0.007 Lsun · a ≈ 0.1010 AU</text>
   </g>
   <g id="text_8">
    <text style="font-size: 10.5px; font-family: 'DejaVu Serif'; text-anchor: end; fill: #756a5d" x="896.58" y="440.242379" transform="rotate(-0 896.58 440.242379)">Kopparapu-style HZ limits</text>
   </g>
   <g id="text_9">
    <text style="font-weight: 700; font-size: 18px; font-family: 'DejaVu Serif'; text-anchor: start; fill: #1f1b16" x="11.52" y="25.197187" transform="rotate(-0 11.52 25.197187)">Habitable-zone placement — LHS 1140 b</text>
   </g>
   <g id="PathCollection_1">
    <defs>
     <path id="mcd60310422" d="M 0 10.954451 
C 2.905154 10.954451 5.691712 9.800221 7.745967 7.745967 
C 9.800221 5.691712 10.954451 2.905154 10.954451 0 
C 10.954451 -2.905154 9.800221 -5.691712 7.745967 -7.745967 
C 5.691712 -9.800221 2.905154 -10.954451 0 -10.954451 
C -2.905154 -10.954451 -5.691712 -9.800221 -7.745967 -7.745967 
C -9.800221 -5.691712 -10.954451 -2.905154 -10.954451 0 
C -10.954451 2.905154 -9.800221 5.691712 -7.745967 7.745967 
C -5.691712 9.800221 -2.905154 10.954451 0 10.954451 
z
" style="stroke: #7b4b18"/>
    </defs>
    <g clip-path="url(#p0a009b5744)">
     <use xlink:href="#mcd60310422" x="41.05462" y="243.043187" style="fill: #b9792b; stroke: #7b4b18"/>
    </g>
   </g>
   <g id="PathCollection_2">
    <defs>
     <path id="m3f09ea8efb" d="M 0 6.020797 
C 1.596734 6.020797 3.128285 5.386408 4.257347 4.257347 
C 5.386408 3.128285 6.020797 1.596734 6.020797 0 
C 6.020797 -1.596734 5.386408 -3.128285 4.257347 -4.257347 
C 3.128285 -5.386408 1.596734 -6.020797 0 -6.020797 
C -1.596734 -6.020797 -3.128285 -5.386408 -4.257347 -4.257347 
C -5.386408 -3.128285 -6.020797 -1.596734 -6.020797 0 
C -6.020797 1.596734 -5.386408 3.128285 -4.257347 4.257347 
C -3.128285 5.386408 -1.596734 6.020797 0 6.020797 
z
" style="stroke: #1f1b16; stroke-width: 0.7"/>
    </defs>
    <g clip-path="url(#p0a009b5744)">
     <use xlink:href="#m3f09ea8efb" x="454.804168" y="243.043187" style="fill: #a3583c; stroke: #1f1b16; stroke-width: 0.7"/>
    </g>
   </g>
   <g id="legend_1">
    <g id="patch_10">
     <path d="M 265.179727 453.953027 
L 651.860273 453.953027 
Q 653.960273 453.953027 653.960273 451.853027 
L 653.960273 437.490996 
Q 653.960273 435.390996 651.860273 435.390996 
L 265.179727 435.390996 
Q 263.079727 435.390996 263.079727 437.490996 
L 263.079727 451.853027 
Q 263.079727 453.953027 265.179727 453.953027 
z
" style="fill: #fffaf0; opacity: 0.92; stroke: #d4c3aa; stroke-linejoin: miter"/>
    </g>
    <g id="patch_11">
     <path d="M 267.279727 447.569356 
L 288.279727 447.569356 
L 288.279727 440.219356 
L 267.279727 440.219356 
z
" style="fill: #687b5d; opacity: 0.18; stroke: #687b5d; stroke-linejoin: miter"/>
    </g>
    <g id="text_10">
     <text style="font-size: 10.5px; font-family: 'DejaVu Serif'; text-anchor: start" x="296.679727" y="447.569356" transform="rotate(-0 296.679727 447.569356)">optimistic HZ</text>
    </g>
    <g id="patch_12">
     <path d="M 390.251133 447.569356 
L 411.251133 447.569356 
L 411.251133 440.219356 
L 390.251133 440.219356 
z
" style="fill: #687b5d; opacity: 0.34; stroke: #687b5d; stroke-linejoin: miter"/>
    </g>
    <g id="text_11">
     <text style="font-size: 10.5px; font-family: 'DejaVu Serif'; text-anchor: start" x="419.651133" y="447.569356" transform="rotate(-0 419.651133 447.569356)">conservative HZ</text>
    </g>
    <g id="line2d_24">
     <path d="M 527.943867 443.894356 
L 538.443867 443.894356 
L 548.943867 443.894356 
" style="fill: none; stroke: #a3583c; stroke-width: 2.8; stroke-linecap: square"/>
    </g>
    <g id="text_12">
     <text style="font-size: 10.5px; font-family: 'DejaVu Serif'; text-anchor: start" x="557.343867" y="447.569356" transform="rotate(-0 557.343867 447.569356)">LHS 1140 b orbit</text>
    </g>
   </g>
  </g>
 </g>
 <defs>
  <clipPath id="p0a009b5744">
   <rect x="11.52" y="35.197187" width="894" height="415.692"/>
  </clipPath>
 </defs>
</svg>
