<?xml version="1.0" encoding="utf-8" standalone="no"?>
<!DOCTYPE svg PUBLIC "-//W3C//DTD SVG 1.1//EN"
  "http://www.w3.org/Graphics/SVG/1.1/DTD/svg11.dtd">
<svg xmlns:xlink="http://www.w3.org/1999/xlink" width="916.699531pt" height="499.624687pt" viewBox="0 0 916.699531 499.624687" xmlns="http://www.w3.org/2000/svg" version="1.1">
 <metadata>
  <rdf:RDF xmlns:dc="http://purl.org/dc/elements/1.1/" xmlns:cc="http://creativecommons.org/ns#" xmlns:rdf="http://www.w3.org/1999/02/22-rdf-syntax-ns#">
   <cc:Work>
    <dc:type rdf:resource="http://purl.org/dc/dcmitype/StillImage"/>
    <dc:date>2026-05-11T11:57:53.536218</dc:date>
    <dc:format>image/svg+xml</dc:format>
    <dc:creator>
     <cc:Agent>
      <dc:title>Matplotlib v3.10.9, https://matplotlib.org/</dc:title>
     </cc:Agent>
    </dc:creator>
   </cc:Work>
  </rdf:RDF>
 </metadata>
 <defs>
  <style type="text/css">*{stroke-linejoin: round; stroke-linecap: butt}</style>
 </defs>
 <g id="figure_1">
  <g id="patch_1">
   <path d="M 0 499.624687 
L 916.699531 499.624687 
L 916.699531 0 
L 0 0 
z
" style="fill: #fffaf0"/>
  </g>
  <g id="axes_1">
   <g id="patch_2">
    <path d="M 51.502813 453.877187 
L 896.432812 453.877187 
L 896.432812 35.197187 
L 51.502813 35.197187 
z
" style="fill: #fffaf0"/>
   </g>
   <g id="FillBetweenPolyCollection_1">
    <defs>
     <path id="m54a7b1c2dd" d="M 51.502813 -255.0875 
L 51.502813 -255.0875 
L 52.677959 -253.273331 
L 53.853105 -251.45934 
L 55.028251 -249.645706 
L 56.203397 -247.832608 
L 57.378543 -246.020223 
L 58.553689 -244.20873 
L 59.728835 -242.398306 
L 60.903981 -240.58913 
L 62.079127 -238.781379 
L 63.254273 -236.975231 
L 64.429419 -235.170862 
L 65.604565 -233.36845 
L 66.779711 -231.568172 
L 67.954857 -229.770202 
L 69.130003 -227.974718 
L 70.305149 -226.181894 
L 71.480295 -224.391906 
L 72.655441 -222.604928 
L 73.830587 -220.821134 
L 75.005733 -219.040697 
L 76.180879 -217.263792 
L 77.356025 -215.490589 
L 78.531171 -213.721261 
L 79.706317 -211.955979 
L 80.881463 -210.194914 
L 82.056609 -208.438235 
L 83.231755 -206.686111 
L 84.406902 -204.938712 
L 85.582048 -203.196204 
L 86.757194 -201.458755 
L 87.93234 -199.72653 
L 89.107486 -197.999696 
L 90.282632 -196.278416 
L 91.457778 -194.562853 
L 92.632924 -192.853171 
L 93.80807 -191.149531 
L 94.983216 -189.452094 
L 96.158362 -187.76102 
L 97.333508 -186.076467 
L 98.508654 -184.398593 
L 99.6838 -182.727555 
L 100.858946 -181.063509 
L 102.034092 -179.406608 
L 103.209238 -177.757008 
L 104.384384 -176.114858 
L 105.55953 -174.480312 
L 106.734676 -172.853519 
L 107.909822 -171.234627 
L 109.084968 -169.623785 
L 110.260114 -168.021138 
L 111.43526 -166.426833 
L 112.610406 -164.841012 
L 113.785552 -163.263818 
L 114.960698 -161.695392 
L 116.135844 -160.135875 
L 117.310991 -158.585405 
L 118.486137 -157.044119 
L 119.661283 -155.512154 
L 120.836429 -153.989643 
L 122.011575 -152.47672 
L 123.186721 -150.973516 
L 124.361867 -149.480162 
L 125.537013 -147.996786 
L 126.712159 -146.523516 
L 127.887305 -145.060479 
L 129.062451 -143.607797 
L 130.237597 -142.165594 
L 131.412743 -140.733992 
L 132.587889 -139.31311 
L 133.763035 -137.903066 
L 134.938181 -136.503978 
L 136.113327 -135.115961 
L 137.288473 -133.739128 
L 138.463619 -132.373592 
L 139.638765 -131.019463 
L 140.813911 -129.67685 
L 141.989057 -128.34586 
L 143.164203 -127.0266 
L 144.339349 -125.719172 
L 145.514495 -124.423681 
L 146.689641 -123.140226 
L 147.864787 -121.868907 
L 149.039934 -120.609821 
L 150.21508 -119.363065 
L 151.390226 -118.128733 
L 152.565372 -116.906917 
L 153.740518 -115.697709 
L 154.915664 -114.501197 
L 156.09081 -113.31747 
L 157.265956 -112.146614 
L 158.441102 -110.988712 
L 159.616248 -109.843848 
L 160.791394 -108.712102 
L 161.96654 -107.593554 
L 163.141686 -106.488282 
L 164.316832 -105.396361 
L 165.491978 -104.317865 
L 166.667124 -103.252868 
L 167.84227 -102.20144 
L 169.017416 -101.16365 
L 170.192562 -100.139566 
L 171.367708 -99.129254 
L 172.542854 -98.132778 
L 173.718 -97.1502 
L 174.893146 -96.181581 
L 176.068292 -95.226981 
L 177.243438 -94.286457 
L 178.418584 -93.360065 
L 179.59373 -92.447859 
L 180.768876 -91.549892 
L 181.944023 -90.666214 
L 183.119169 -89.796874 
L 184.294315 -88.941921 
L 185.469461 -88.1014 
L 186.644607 -87.275356 
L 187.819753 -86.463831 
L 188.994899 -85.666866 
L 190.170045 -84.8845 
L 191.345191 -84.116773 
L 192.520337 -83.363719 
L 193.695483 -82.625373 
L 194.870629 -81.901769 
L 196.045775 -81.192938 
L 197.220921 -80.49891 
L 198.396067 -79.819713 
L 199.571213 -79.155374 
L 200.746359 -78.505918 
L 201.921505 -77.871369 
L 203.096651 -77.251749 
L 204.271797 -76.647079 
L 205.446943 -76.057377 
L 206.622089 -75.482662 
L 207.797235 -74.922949 
L 208.972381 -74.378254 
L 210.147527 -73.848588 
L 211.322673 -73.333964 
L 212.497819 -72.834392 
L 213.672965 -72.349882 
L 214.848112 -71.880439 
L 216.023258 -71.42607 
L 217.198404 -70.98678 
L 218.37355 -70.562572 
L 219.548696 -70.153447 
L 220.723842 -69.759405 
L 221.898988 -69.380446 
L 223.074134 -69.016567 
L 224.24928 -68.667764 
L 225.424426 -68.334033 
L 226.599572 -68.015366 
L 227.774718 -67.711756 
L 228.949864 -67.423194 
L 230.12501 -67.14967 
L 231.300156 -66.891171 
L 232.475302 -66.647686 
L 233.650448 -66.419199 
L 234.825594 -66.205695 
L 236.00074 -66.007159 
L 237.175886 -65.823571 
L 238.351032 -65.654912 
L 239.526178 -65.501164 
L 240.701324 -65.362303 
L 241.87647 -65.238308 
L 243.051616 -65.129154 
L 244.226762 -65.034817 
L 245.401908 -64.955271 
L 246.577055 -64.890488 
L 247.752201 -64.840441 
L 248.927347 -64.805099 
L 250.102493 -64.784432 
L 251.277639 -64.778409 
L 252.452785 -64.786997 
L 253.627931 -64.810163 
L 254.803077 -64.847871 
L 255.978223 -64.900087 
L 257.153369 -64.966773 
L 258.328515 -65.047891 
L 259.503661 -65.143404 
L 260.678807 -65.253271 
L 261.853953 -65.377451 
L 263.029099 -65.515903 
L 264.204245 -65.668585 
L 265.379391 -65.835454 
L 266.554537 -66.016463 
L 267.729683 -66.21157 
L 268.904829 -66.420727 
L 270.079975 -66.643887 
L 271.255121 -66.881003 
L 272.430267 -67.132026 
L 273.605413 -67.396906 
L 274.780559 -67.675593 
L 275.955705 -67.968035 
L 277.130851 -68.274182 
L 278.305997 -68.593979 
L 279.481144 -68.927374 
L 280.65629 -69.274312 
L 281.831436 -69.634738 
L 283.006582 -70.008596 
L 284.181728 -70.395829 
L 285.356874 -70.796381 
L 286.53202 -71.210194 
L 287.707166 -71.637208 
L 288.882312 -72.077364 
L 290.057458 -72.530603 
L 291.232604 -72.996863 
L 292.40775 -73.476084 
L 293.582896 -73.968202 
L 294.758042 -74.473156 
L 295.933188 -74.990883 
L 297.108334 -75.521318 
L 298.28348 -76.064396 
L 299.458626 -76.620054 
L 300.633772 -77.188224 
L 301.808918 -77.768842 
L 302.984064 -78.36184 
L 304.15921 -78.96715 
L 305.334356 -79.584706 
L 306.509502 -80.214438 
L 307.684648 -80.856277 
L 308.859794 -81.510155 
L 310.03494 -82.176001 
L 311.210086 -82.853745 
L 312.385233 -83.543315 
L 313.560379 -84.244641 
L 314.735525 -84.957651 
L 315.910671 -85.682272 
L 317.085817 -86.418431 
L 318.260963 -87.166056 
L 319.436109 -87.925073 
L 320.611255 -88.695406 
L 321.786401 -89.476984 
L 322.961547 -90.269729 
L 324.136693 -91.073567 
L 325.311839 -91.888423 
L 326.486985 -92.71422 
L 327.662131 -93.550881 
L 328.837277 -94.398331 
L 330.012423 -95.256492 
L 331.187569 -96.125286 
L 332.362715 -97.004636 
L 333.537861 -97.894463 
L 334.713007 -98.794689 
L 335.888153 -99.705235 
L 337.063299 -100.626023 
L 338.238445 -101.556971 
L 339.413591 -102.498002 
L 340.588737 -103.449034 
L 341.763883 -104.409988 
L 342.939029 -105.380783 
L 344.114176 -106.361338 
L 345.289322 -107.351572 
L 346.464468 -108.351404 
L 347.639614 -109.360751 
L 348.81476 -110.379532 
L 349.989906 -111.407666 
L 351.165052 -112.445069 
L 352.340198 -113.491658 
L 353.515344 -114.547352 
L 354.69049 -115.612067 
L 355.865636 -116.68572 
L 357.040782 -117.768227 
L 358.215928 -118.859505 
L 359.391074 -119.95947 
L 360.56622 -121.068037 
L 361.741366 -122.185124 
L 362.916512 -123.310644 
L 364.091658 -124.444514 
L 365.266804 -125.586649 
L 366.44195 -126.736963 
L 367.617096 -127.895373 
L 368.792242 -129.061791 
L 369.967388 -130.236135 
L 371.142534 -131.418316 
L 372.31768 -132.608251 
L 373.492826 -133.805852 
L 374.667972 -135.011035 
L 375.843118 -136.223712 
L 377.018265 -137.443799 
L 378.193411 -138.671207 
L 379.368557 -139.905851 
L 380.543703 -141.147645 
L 381.718849 -142.396501 
L 382.893995 -143.652333 
L 384.069141 -144.915054 
L 385.244287 -146.184576 
L 386.419433 -147.460813 
L 387.594579 -148.743677 
L 388.769725 -150.033081 
L 389.944871 -151.328938 
L 391.120017 -152.631159 
L 392.295163 -153.939658 
L 393.470309 -155.254347 
L 394.645455 -156.575138 
L 395.820601 -157.901943 
L 396.995747 -159.234674 
L 398.170893 -160.573244 
L 399.346039 -161.917563 
L 400.521185 -163.267545 
L 401.696331 -164.623101 
L 402.871477 -165.984142 
L 404.046623 -167.350581 
L 405.221769 -168.722328 
L 406.396915 -170.099296 
L 407.572061 -171.481396 
L 408.747207 -172.86854 
L 409.922354 -174.260638 
L 411.0975 -175.657603 
L 412.272646 -177.059346 
L 413.447792 -178.465777 
L 414.622938 -179.876809 
L 415.798084 -181.292352 
L 416.97323 -182.712317 
L 418.148376 -184.136617 
L 419.323522 -185.56516 
L 420.498668 -186.99786 
L 421.673814 -188.434627 
L 422.84896 -189.875371 
L 424.024106 -191.320004 
L 425.199252 -192.768437 
L 426.374398 -194.22058 
L 427.549544 -195.676345 
L 428.72469 -197.135642 
L 429.899836 -198.598382 
L 431.074982 -200.064477 
L 432.250128 -201.533836 
L 433.425274 -203.00637 
L 434.60042 -204.481991 
L 435.775566 -205.960609 
L 436.950712 -207.442134 
L 438.125858 -208.926478 
L 439.301004 -210.41355 
L 440.47615 -211.903263 
L 441.651297 -213.395525 
L 442.826443 -214.890249 
L 444.001589 -216.387344 
L 445.176735 -217.886721 
L 446.351881 -219.388291 
L 447.527027 -220.891965 
L 448.702173 -222.397652 
L 449.877319 -223.905264 
L 451.052465 -225.41471 
L 452.227611 -226.925903 
L 453.402757 -228.438751 
L 454.577903 -229.953166 
L 455.753049 -231.469058 
L 456.928195 -232.986337 
L 458.103341 -234.504915 
L 459.278487 -236.024701 
L 460.453633 -237.545607 
L 461.628779 -239.067542 
L 462.803925 -240.590417 
L 463.979071 -242.114142 
L 465.154217 -243.638629 
L 466.329363 -245.163787 
L 467.504509 -246.689527 
L 468.679655 -248.21576 
L 469.854801 -249.742395 
L 471.029947 -251.269344 
L 472.205093 -252.796517 
L 473.380239 -254.323824 
L 474.555386 -255.851176 
L 475.730532 -257.378483 
L 476.905678 -258.905656 
L 478.080824 -260.432605 
L 479.25597 -261.95924 
L 480.431116 -263.485473 
L 481.606262 -265.011213 
L 482.781408 -266.536371 
L 483.956554 -268.060858 
L 485.1317 -269.584583 
L 486.306846 -271.107458 
L 487.481992 -272.629393 
L 488.657138 -274.150299 
L 489.832284 -275.670085 
L 491.00743 -277.188663 
L 492.182576 -278.705942 
L 493.357722 -280.221834 
L 494.532868 -281.736249 
L 495.708014 -283.249097 
L 496.88316 -284.76029 
L 498.058306 -286.269736 
L 499.233452 -287.777348 
L 500.408598 -289.283035 
L 501.583744 -290.786709 
L 502.75889 -292.288279 
L 503.934036 -293.787656 
L 505.109182 -295.284751 
L 506.284328 -296.779475 
L 507.459475 -298.271737 
L 508.634621 -299.76145 
L 509.809767 -301.248522 
L 510.984913 -302.732866 
L 512.160059 -304.214391 
L 513.335205 -305.693009 
L 514.510351 -307.16863 
L 515.685497 -308.641164 
L 516.860643 -310.110523 
L 518.035789 -311.576618 
L 519.210935 -313.039358 
L 520.386081 -314.498655 
L 521.561227 -315.95442 
L 522.736373 -317.406563 
L 523.911519 -318.854996 
L 525.086665 -320.299629 
L 526.261811 -321.740373 
L 527.436957 -323.17714 
L 528.612103 -324.60984 
L 529.787249 -326.038383 
L 530.962395 -327.462683 
L 532.137541 -328.882648 
L 533.312687 -330.298191 
L 534.487833 -331.709223 
L 535.662979 -333.115654 
L 536.838125 -334.517397 
L 538.013271 -335.914362 
L 539.188418 -337.30646 
L 540.363564 -338.693604 
L 541.53871 -340.075704 
L 542.713856 -341.452672 
L 543.889002 -342.824419 
L 545.064148 -344.190858 
L 546.239294 -345.551899 
L 547.41444 -346.907455 
L 548.589586 -348.257437 
L 549.764732 -349.601756 
L 550.939878 -350.940326 
L 552.115024 -352.273057 
L 553.29017 -353.599862 
L 554.465316 -354.920653 
L 555.640462 -356.235342 
L 556.815608 -357.543841 
L 557.990754 -358.846062 
L 559.1659 -360.141919 
L 560.341046 -361.431323 
L 561.516192 -362.714187 
L 562.691338 -363.990424 
L 563.866484 -365.259946 
L 565.04163 -366.522667 
L 566.216776 -367.778499 
L 567.391922 -369.027355 
L 568.567068 -370.269149 
L 569.742214 -371.503793 
L 570.91736 -372.731201 
L 572.092507 -373.951288 
L 573.267653 -375.163965 
L 574.442799 -376.369148 
L 575.617945 -377.566749 
L 576.793091 -378.756684 
L 577.968237 -379.938865 
L 579.143383 -381.113209 
L 580.318529 -382.279627 
L 581.493675 -383.438037 
L 582.668821 -384.588351 
L 583.843967 -385.730486 
L 585.019113 -386.864356 
L 586.194259 -387.989876 
L 587.369405 -389.106963 
L 588.544551 -390.21553 
L 589.719697 -391.315495 
L 590.894843 -392.406773 
L 592.069989 -393.48928 
L 593.245135 -394.562933 
L 594.420281 -395.627648 
L 595.595427 -396.683342 
L 596.770573 -397.729931 
L 597.945719 -398.767334 
L 599.120865 -399.795468 
L 600.296011 -400.814249 
L 601.471157 -401.823596 
L 602.646303 -402.823428 
L 603.821449 -403.813662 
L 604.996596 -404.794217 
L 606.171742 -405.765012 
L 607.346888 -406.725966 
L 608.522034 -407.676998 
L 609.69718 -408.618029 
L 610.872326 -409.548977 
L 612.047472 -410.469765 
L 613.222618 -411.380311 
L 614.397764 -412.280537 
L 615.57291 -413.170364 
L 616.748056 -414.049714 
L 617.923202 -414.918508 
L 619.098348 -415.776669 
L 620.273494 -416.624119 
L 621.44864 -417.46078 
L 622.623786 -418.286577 
L 623.798932 -419.101433 
L 624.974078 -419.905271 
L 626.149224 -420.698016 
L 627.32437 -421.479594 
L 628.499516 -422.249927 
L 629.674662 -423.008944 
L 630.849808 -423.756569 
L 632.024954 -424.492728 
L 633.2001 -425.217349 
L 634.375246 -425.930359 
L 635.550392 -426.631685 
L 636.725539 -427.321255 
L 637.900685 -427.998999 
L 639.075831 -428.664845 
L 640.250977 -429.318723 
L 641.426123 -429.960562 
L 642.601269 -430.590294 
L 643.776415 -431.20785 
L 644.951561 -431.81316 
L 646.126707 -432.406158 
L 647.301853 -432.986776 
L 648.476999 -433.554946 
L 649.652145 -434.110604 
L 650.827291 -434.653682 
L 652.002437 -435.184117 
L 653.177583 -435.701844 
L 654.352729 -436.206798 
L 655.527875 -436.698916 
L 656.703021 -437.178137 
L 657.878167 -437.644397 
L 659.053313 -438.097636 
L 660.228459 -438.537792 
L 661.403605 -438.964806 
L 662.578751 -439.378619 
L 663.753897 -439.779171 
L 664.929043 -440.166404 
L 666.104189 -440.540262 
L 667.279335 -440.900688 
L 668.454481 -441.247626 
L 669.629628 -441.581021 
L 670.804774 -441.900818 
L 671.97992 -442.206965 
L 673.155066 -442.499407 
L 674.330212 -442.778094 
L 675.505358 -443.042974 
L 676.680504 -443.293997 
L 677.85565 -443.531113 
L 679.030796 -443.754273 
L 680.205942 -443.96343 
L 681.381088 -444.158537 
L 682.556234 -444.339546 
L 683.73138 -444.506415 
L 684.906526 -444.659097 
L 686.081672 -444.797549 
L 687.256818 -444.921729 
L 688.431964 -445.031596 
L 689.60711 -445.127109 
L 690.782256 -445.208227 
L 691.957402 -445.274913 
L 693.132548 -445.327129 
L 694.307694 -445.364837 
L 695.48284 -445.388003 
L 696.657986 -445.396591 
L 697.833132 -445.390568 
L 699.008278 -445.369901 
L 700.183424 -445.334559 
L 701.35857 -445.284512 
L 702.533717 -445.219729 
L 703.708863 -445.140183 
L 704.884009 -445.045846 
L 706.059155 -444.936692 
L 707.234301 -444.812697 
L 708.409447 -444.673836 
L 709.584593 -444.520088 
L 710.759739 -444.351429 
L 711.934885 -444.167841 
L 713.110031 -443.969305 
L 714.285177 -443.755801 
L 715.460323 -443.527314 
L 716.635469 -443.283829 
L 717.810615 -443.02533 
L 718.985761 -442.751806 
L 720.160907 -442.463244 
L 721.336053 -442.159634 
L 722.511199 -441.840967 
L 723.686345 -441.507236 
L 724.861491 -441.158433 
L 726.036637 -440.794554 
L 727.211783 -440.415595 
L 728.386929 -440.021553 
L 729.562075 -439.612428 
L 730.737221 -439.18822 
L 731.912367 -438.74893 
L 733.087513 -438.294561 
L 734.26266 -437.825118 
L 735.437806 -437.340608 
L 736.612952 -436.841036 
L 737.788098 -436.326412 
L 738.963244 -435.796746 
L 740.13839 -435.252051 
L 741.313536 -434.692338 
L 742.488682 -434.117623 
L 743.663828 -433.527921 
L 744.838974 -432.923251 
L 746.01412 -432.303631 
L 747.189266 -431.669082 
L 748.364412 -431.019626 
L 749.539558 -430.355287 
L 750.714704 -429.67609 
L 751.88985 -428.982062 
L 753.064996 -428.273231 
L 754.240142 -427.549627 
L 755.415288 -426.811281 
L 756.590434 -426.058227 
L 757.76558 -425.2905 
L 758.940726 -424.508134 
L 760.115872 -423.711169 
L 761.291018 -422.899644 
L 762.466164 -422.0736 
L 763.64131 -421.233079 
L 764.816456 -420.378126 
L 765.991602 -419.508786 
L 767.166749 -418.625108 
L 768.341895 -417.727141 
L 769.517041 -416.814935 
L 770.692187 -415.888543 
L 771.867333 -414.948019 
L 773.042479 -413.993419 
L 774.217625 -413.0248 
L 775.392771 -412.042222 
L 776.567917 -411.045746 
L 777.743063 -410.035434 
L 778.918209 -409.01135 
L 780.093355 -407.97356 
L 781.268501 -406.922132 
L 782.443647 -405.857135 
L 783.618793 -404.778639 
L 784.793939 -403.686718 
L 785.969085 -402.581446 
L 787.144231 -401.462898 
L 788.319377 -400.331152 
L 789.494523 -399.186288 
L 790.669669 -398.028386 
L 791.844815 -396.85753 
L 793.019961 -395.673803 
L 794.195107 -394.477291 
L 795.370253 -393.268083 
L 796.545399 -392.046267 
L 797.720545 -390.811935 
L 798.895691 -389.565179 
L 800.070838 -388.306093 
L 801.245984 -387.034774 
L 802.42113 -385.751319 
L 803.596276 -384.455828 
L 804.771422 -383.1484 
L 805.946568 -381.82914 
L 807.121714 -380.49815 
L 808.29686 -379.155537 
L 809.472006 -377.801408 
L 810.647152 -376.435872 
L 811.822298 -375.059039 
L 812.997444 -373.671022 
L 814.17259 -372.271934 
L 815.347736 -370.86189 
L 816.522882 -369.441008 
L 817.698028 -368.009406 
L 818.873174 -366.567203 
L 820.04832 -365.114521 
L 821.223466 -363.651484 
L 822.398612 -362.178214 
L 823.573758 -360.694838 
L 824.748904 -359.201484 
L 825.92405 -357.69828 
L 827.099196 -356.185357 
L 828.274342 -354.662846 
L 829.449488 -353.130881 
L 830.624634 -351.589595 
L 831.799781 -350.039125 
L 832.974927 -348.479608 
L 834.150073 -346.911182 
L 835.325219 -345.333988 
L 836.500365 -343.748167 
L 837.675511 -342.153862 
L 838.850657 -340.551215 
L 840.025803 -338.940373 
L 841.200949 -337.321481 
L 842.376095 -335.694688 
L 843.551241 -334.060142 
L 844.726387 -332.417992 
L 845.901533 -330.768392 
L 847.076679 -329.111491 
L 848.251825 -327.447445 
L 849.426971 -325.776407 
L 850.602117 -324.098533 
L 851.777263 -322.41398 
L 852.952409 -320.722906 
L 854.127555 -319.025469 
L 855.302701 -317.321829 
L 856.477847 -315.612147 
L 857.652993 -313.896584 
L 858.828139 -312.175304 
L 860.003285 -310.44847 
L 861.178431 -308.716245 
L 862.353577 -306.978796 
L 863.528723 -305.236288 
L 864.70387 -303.488889 
L 865.879016 -301.736765 
L 867.054162 -299.980086 
L 868.229308 -298.219021 
L 869.404454 -296.453739 
L 870.5796 -294.684411 
L 871.754746 -292.911208 
L 872.929892 -291.134303 
L 874.105038 -289.353866 
L 875.280184 -287.570072 
L 876.45533 -285.783094 
L 877.630476 -283.993106 
L 878.805622 -282.200282 
L 879.980768 -280.404798 
L 881.155914 -278.606828 
L 882.33106 -276.80655 
L 883.506206 -275.004138 
L 884.681352 -273.199769 
L 885.856498 -271.393621 
L 887.031644 -269.58587 
L 888.20679 -267.776694 
L 889.381936 -265.96627 
L 890.557082 -264.154777 
L 891.732228 -262.342392 
L 892.907374 -260.529294 
L 894.08252 -258.71566 
L 895.257666 -256.901669 
L 896.432812 -255.0875 
L 896.432812 -255.0875 
L 896.432812 -255.0875 
L 895.257666 -255.0875 
L 894.08252 -255.0875 
L 892.907374 -255.0875 
L 891.732228 -255.0875 
L 890.557082 -255.0875 
L 889.381936 -255.0875 
L 888.20679 -255.0875 
L 887.031644 -255.0875 
L 885.856498 -255.0875 
L 884.681352 -255.0875 
L 883.506206 -255.0875 
L 882.33106 -255.0875 
L 881.155914 -255.0875 
L 879.980768 -255.0875 
L 878.805622 -255.0875 
L 877.630476 -255.0875 
L 876.45533 -255.0875 
L 875.280184 -255.0875 
L 874.105038 -255.0875 
L 872.929892 -255.0875 
L 871.754746 -255.0875 
L 870.5796 -255.0875 
L 869.404454 -255.0875 
L 868.229308 -255.0875 
L 867.054162 -255.0875 
L 865.879016 -255.0875 
L 864.70387 -255.0875 
L 863.528723 -255.0875 
L 862.353577 -255.0875 
L 861.178431 -255.0875 
L 860.003285 -255.0875 
L 858.828139 -255.0875 
L 857.652993 -255.0875 
L 856.477847 -255.0875 
L 855.302701 -255.0875 
L 854.127555 -255.0875 
L 852.952409 -255.0875 
L 851.777263 -255.0875 
L 850.602117 -255.0875 
L 849.426971 -255.0875 
L 848.251825 -255.0875 
L 847.076679 -255.0875 
L 845.901533 -255.0875 
L 844.726387 -255.0875 
L 843.551241 -255.0875 
L 842.376095 -255.0875 
L 841.200949 -255.0875 
L 840.025803 -255.0875 
L 838.850657 -255.0875 
L 837.675511 -255.0875 
L 836.500365 -255.0875 
L 835.325219 -255.0875 
L 834.150073 -255.0875 
L 832.974927 -255.0875 
L 831.799781 -255.0875 
L 830.624634 -255.0875 
L 829.449488 -255.0875 
L 828.274342 -255.0875 
L 827.099196 -255.0875 
L 825.92405 -255.0875 
L 824.748904 -255.0875 
L 823.573758 -255.0875 
L 822.398612 -255.0875 
L 821.223466 -255.0875 
L 820.04832 -255.0875 
L 818.873174 -255.0875 
L 817.698028 -255.0875 
L 816.522882 -255.0875 
L 815.347736 -255.0875 
L 814.17259 -255.0875 
L 812.997444 -255.0875 
L 811.822298 -255.0875 
L 810.647152 -255.0875 
L 809.472006 -255.0875 
L 808.29686 -255.0875 
L 807.121714 -255.0875 
L 805.946568 -255.0875 
L 804.771422 -255.0875 
L 803.596276 -255.0875 
L 802.42113 -255.0875 
L 801.245984 -255.0875 
L 800.070838 -255.0875 
L 798.895691 -255.0875 
L 797.720545 -255.0875 
L 796.545399 -255.0875 
L 795.370253 -255.0875 
L 794.195107 -255.0875 
L 793.019961 -255.0875 
L 791.844815 -255.0875 
L 790.669669 -255.0875 
L 789.494523 -255.0875 
L 788.319377 -255.0875 
L 787.144231 -255.0875 
L 785.969085 -255.0875 
L 784.793939 -255.0875 
L 783.618793 -255.0875 
L 782.443647 -255.0875 
L 781.268501 -255.0875 
L 780.093355 -255.0875 
L 778.918209 -255.0875 
L 777.743063 -255.0875 
L 776.567917 -255.0875 
L 775.392771 -255.0875 
L 774.217625 -255.0875 
L 773.042479 -255.0875 
L 771.867333 -255.0875 
L 770.692187 -255.0875 
L 769.517041 -255.0875 
L 768.341895 -255.0875 
L 767.166749 -255.0875 
L 765.991602 -255.0875 
L 764.816456 -255.0875 
L 763.64131 -255.0875 
L 762.466164 -255.0875 
L 761.291018 -255.0875 
L 760.115872 -255.0875 
L 758.940726 -255.0875 
L 757.76558 -255.0875 
L 756.590434 -255.0875 
L 755.415288 -255.0875 
L 754.240142 -255.0875 
L 753.064996 -255.0875 
L 751.88985 -255.0875 
L 750.714704 -255.0875 
L 749.539558 -255.0875 
L 748.364412 -255.0875 
L 747.189266 -255.0875 
L 746.01412 -255.0875 
L 744.838974 -255.0875 
L 743.663828 -255.0875 
L 742.488682 -255.0875 
L 741.313536 -255.0875 
L 740.13839 -255.0875 
L 738.963244 -255.0875 
L 737.788098 -255.0875 
L 736.612952 -255.0875 
L 735.437806 -255.0875 
L 734.26266 -255.0875 
L 733.087513 -255.0875 
L 731.912367 -255.0875 
L 730.737221 -255.0875 
L 729.562075 -255.0875 
L 728.386929 -255.0875 
L 727.211783 -255.0875 
L 726.036637 -255.0875 
L 724.861491 -255.0875 
L 723.686345 -255.0875 
L 722.511199 -255.0875 
L 721.336053 -255.0875 
L 720.160907 -255.0875 
L 718.985761 -255.0875 
L 717.810615 -255.0875 
L 716.635469 -255.0875 
L 715.460323 -255.0875 
L 714.285177 -255.0875 
L 713.110031 -255.0875 
L 711.934885 -255.0875 
L 710.759739 -255.0875 
L 709.584593 -255.0875 
L 708.409447 -255.0875 
L 707.234301 -255.0875 
L 706.059155 -255.0875 
L 704.884009 -255.0875 
L 703.708863 -255.0875 
L 702.533717 -255.0875 
L 701.35857 -255.0875 
L 700.183424 -255.0875 
L 699.008278 -255.0875 
L 697.833132 -255.0875 
L 696.657986 -255.0875 
L 695.48284 -255.0875 
L 694.307694 -255.0875 
L 693.132548 -255.0875 
L 691.957402 -255.0875 
L 690.782256 -255.0875 
L 689.60711 -255.0875 
L 688.431964 -255.0875 
L 687.256818 -255.0875 
L 686.081672 -255.0875 
L 684.906526 -255.0875 
L 683.73138 -255.0875 
L 682.556234 -255.0875 
L 681.381088 -255.0875 
L 680.205942 -255.0875 
L 679.030796 -255.0875 
L 677.85565 -255.0875 
L 676.680504 -255.0875 
L 675.505358 -255.0875 
L 674.330212 -255.0875 
L 673.155066 -255.0875 
L 671.97992 -255.0875 
L 670.804774 -255.0875 
L 669.629628 -255.0875 
L 668.454481 -255.0875 
L 667.279335 -255.0875 
L 666.104189 -255.0875 
L 664.929043 -255.0875 
L 663.753897 -255.0875 
L 662.578751 -255.0875 
L 661.403605 -255.0875 
L 660.228459 -255.0875 
L 659.053313 -255.0875 
L 657.878167 -255.0875 
L 656.703021 -255.0875 
L 655.527875 -255.0875 
L 654.352729 -255.0875 
L 653.177583 -255.0875 
L 652.002437 -255.0875 
L 650.827291 -255.0875 
L 649.652145 -255.0875 
L 648.476999 -255.0875 
L 647.301853 -255.0875 
L 646.126707 -255.0875 
L 644.951561 -255.0875 
L 643.776415 -255.0875 
L 642.601269 -255.0875 
L 641.426123 -255.0875 
L 640.250977 -255.0875 
L 639.075831 -255.0875 
L 637.900685 -255.0875 
L 636.725539 -255.0875 
L 635.550392 -255.0875 
L 634.375246 -255.0875 
L 633.2001 -255.0875 
L 632.024954 -255.0875 
L 630.849808 -255.0875 
L 629.674662 -255.0875 
L 628.499516 -255.0875 
L 627.32437 -255.0875 
L 626.149224 -255.0875 
L 624.974078 -255.0875 
L 623.798932 -255.0875 
L 622.623786 -255.0875 
L 621.44864 -255.0875 
L 620.273494 -255.0875 
L 619.098348 -255.0875 
L 617.923202 -255.0875 
L 616.748056 -255.0875 
L 615.57291 -255.0875 
L 614.397764 -255.0875 
L 613.222618 -255.0875 
L 612.047472 -255.0875 
L 610.872326 -255.0875 
L 609.69718 -255.0875 
L 608.522034 -255.0875 
L 607.346888 -255.0875 
L 606.171742 -255.0875 
L 604.996596 -255.0875 
L 603.821449 -255.0875 
L 602.646303 -255.0875 
L 601.471157 -255.0875 
L 600.296011 -255.0875 
L 599.120865 -255.0875 
L 597.945719 -255.0875 
L 596.770573 -255.0875 
L 595.595427 -255.0875 
L 594.420281 -255.0875 
L 593.245135 -255.0875 
L 592.069989 -255.0875 
L 590.894843 -255.0875 
L 589.719697 -255.0875 
L 588.544551 -255.0875 
L 587.369405 -255.0875 
L 586.194259 -255.0875 
L 585.019113 -255.0875 
L 583.843967 -255.0875 
L 582.668821 -255.0875 
L 581.493675 -255.0875 
L 580.318529 -255.0875 
L 579.143383 -255.0875 
L 577.968237 -255.0875 
L 576.793091 -255.0875 
L 575.617945 -255.0875 
L 574.442799 -255.0875 
L 573.267653 -255.0875 
L 572.092507 -255.0875 
L 570.91736 -255.0875 
L 569.742214 -255.0875 
L 568.567068 -255.0875 
L 567.391922 -255.0875 
L 566.216776 -255.0875 
L 565.04163 -255.0875 
L 563.866484 -255.0875 
L 562.691338 -255.0875 
L 561.516192 -255.0875 
L 560.341046 -255.0875 
L 559.1659 -255.0875 
L 557.990754 -255.0875 
L 556.815608 -255.0875 
L 555.640462 -255.0875 
L 554.465316 -255.0875 
L 553.29017 -255.0875 
L 552.115024 -255.0875 
L 550.939878 -255.0875 
L 549.764732 -255.0875 
L 548.589586 -255.0875 
L 547.41444 -255.0875 
L 546.239294 -255.0875 
L 545.064148 -255.0875 
L 543.889002 -255.0875 
L 542.713856 -255.0875 
L 541.53871 -255.0875 
L 540.363564 -255.0875 
L 539.188418 -255.0875 
L 538.013271 -255.0875 
L 536.838125 -255.0875 
L 535.662979 -255.0875 
L 534.487833 -255.0875 
L 533.312687 -255.0875 
L 532.137541 -255.0875 
L 530.962395 -255.0875 
L 529.787249 -255.0875 
L 528.612103 -255.0875 
L 527.436957 -255.0875 
L 526.261811 -255.0875 
L 525.086665 -255.0875 
L 523.911519 -255.0875 
L 522.736373 -255.0875 
L 521.561227 -255.0875 
L 520.386081 -255.0875 
L 519.210935 -255.0875 
L 518.035789 -255.0875 
L 516.860643 -255.0875 
L 515.685497 -255.0875 
L 514.510351 -255.0875 
L 513.335205 -255.0875 
L 512.160059 -255.0875 
L 510.984913 -255.0875 
L 509.809767 -255.0875 
L 508.634621 -255.0875 
L 507.459475 -255.0875 
L 506.284328 -255.0875 
L 505.109182 -255.0875 
L 503.934036 -255.0875 
L 502.75889 -255.0875 
L 501.583744 -255.0875 
L 500.408598 -255.0875 
L 499.233452 -255.0875 
L 498.058306 -255.0875 
L 496.88316 -255.0875 
L 495.708014 -255.0875 
L 494.532868 -255.0875 
L 493.357722 -255.0875 
L 492.182576 -255.0875 
L 491.00743 -255.0875 
L 489.832284 -255.0875 
L 488.657138 -255.0875 
L 487.481992 -255.0875 
L 486.306846 -255.0875 
L 485.1317 -255.0875 
L 483.956554 -255.0875 
L 482.781408 -255.0875 
L 481.606262 -255.0875 
L 480.431116 -255.0875 
L 479.25597 -255.0875 
L 478.080824 -255.0875 
L 476.905678 -255.0875 
L 475.730532 -255.0875 
L 474.555386 -255.0875 
L 473.380239 -255.0875 
L 472.205093 -255.0875 
L 471.029947 -255.0875 
L 469.854801 -255.0875 
L 468.679655 -255.0875 
L 467.504509 -255.0875 
L 466.329363 -255.0875 
L 465.154217 -255.0875 
L 463.979071 -255.0875 
L 462.803925 -255.0875 
L 461.628779 -255.0875 
L 460.453633 -255.0875 
L 459.278487 -255.0875 
L 458.103341 -255.0875 
L 456.928195 -255.0875 
L 455.753049 -255.0875 
L 454.577903 -255.0875 
L 453.402757 -255.0875 
L 452.227611 -255.0875 
L 451.052465 -255.0875 
L 449.877319 -255.0875 
L 448.702173 -255.0875 
L 447.527027 -255.0875 
L 446.351881 -255.0875 
L 445.176735 -255.0875 
L 444.001589 -255.0875 
L 442.826443 -255.0875 
L 441.651297 -255.0875 
L 440.47615 -255.0875 
L 439.301004 -255.0875 
L 438.125858 -255.0875 
L 436.950712 -255.0875 
L 435.775566 -255.0875 
L 434.60042 -255.0875 
L 433.425274 -255.0875 
L 432.250128 -255.0875 
L 431.074982 -255.0875 
L 429.899836 -255.0875 
L 428.72469 -255.0875 
L 427.549544 -255.0875 
L 426.374398 -255.0875 
L 425.199252 -255.0875 
L 424.024106 -255.0875 
L 422.84896 -255.0875 
L 421.673814 -255.0875 
L 420.498668 -255.0875 
L 419.323522 -255.0875 
L 418.148376 -255.0875 
L 416.97323 -255.0875 
L 415.798084 -255.0875 
L 414.622938 -255.0875 
L 413.447792 -255.0875 
L 412.272646 -255.0875 
L 411.0975 -255.0875 
L 409.922354 -255.0875 
L 408.747207 -255.0875 
L 407.572061 -255.0875 
L 406.396915 -255.0875 
L 405.221769 -255.0875 
L 404.046623 -255.0875 
L 402.871477 -255.0875 
L 401.696331 -255.0875 
L 400.521185 -255.0875 
L 399.346039 -255.0875 
L 398.170893 -255.0875 
L 396.995747 -255.0875 
L 395.820601 -255.0875 
L 394.645455 -255.0875 
L 393.470309 -255.0875 
L 392.295163 -255.0875 
L 391.120017 -255.0875 
L 389.944871 -255.0875 
L 388.769725 -255.0875 
L 387.594579 -255.0875 
L 386.419433 -255.0875 
L 385.244287 -255.0875 
L 384.069141 -255.0875 
L 382.893995 -255.0875 
L 381.718849 -255.0875 
L 380.543703 -255.0875 
L 379.368557 -255.0875 
L 378.193411 -255.0875 
L 377.018265 -255.0875 
L 375.843118 -255.0875 
L 374.667972 -255.0875 
L 373.492826 -255.0875 
L 372.31768 -255.0875 
L 371.142534 -255.0875 
L 369.967388 -255.0875 
L 368.792242 -255.0875 
L 367.617096 -255.0875 
L 366.44195 -255.0875 
L 365.266804 -255.0875 
L 364.091658 -255.0875 
L 362.916512 -255.0875 
L 361.741366 -255.0875 
L 360.56622 -255.0875 
L 359.391074 -255.0875 
L 358.215928 -255.0875 
L 357.040782 -255.0875 
L 355.865636 -255.0875 
L 354.69049 -255.0875 
L 353.515344 -255.0875 
L 352.340198 -255.0875 
L 351.165052 -255.0875 
L 349.989906 -255.0875 
L 348.81476 -255.0875 
L 347.639614 -255.0875 
L 346.464468 -255.0875 
L 345.289322 -255.0875 
L 344.114176 -255.0875 
L 342.939029 -255.0875 
L 341.763883 -255.0875 
L 340.588737 -255.0875 
L 339.413591 -255.0875 
L 338.238445 -255.0875 
L 337.063299 -255.0875 
L 335.888153 -255.0875 
L 334.713007 -255.0875 
L 333.537861 -255.0875 
L 332.362715 -255.0875 
L 331.187569 -255.0875 
L 330.012423 -255.0875 
L 328.837277 -255.0875 
L 327.662131 -255.0875 
L 326.486985 -255.0875 
L 325.311839 -255.0875 
L 324.136693 -255.0875 
L 322.961547 -255.0875 
L 321.786401 -255.0875 
L 320.611255 -255.0875 
L 319.436109 -255.0875 
L 318.260963 -255.0875 
L 317.085817 -255.0875 
L 315.910671 -255.0875 
L 314.735525 -255.0875 
L 313.560379 -255.0875 
L 312.385233 -255.0875 
L 311.210086 -255.0875 
L 310.03494 -255.0875 
L 308.859794 -255.0875 
L 307.684648 -255.0875 
L 306.509502 -255.0875 
L 305.334356 -255.0875 
L 304.15921 -255.0875 
L 302.984064 -255.0875 
L 301.808918 -255.0875 
L 300.633772 -255.0875 
L 299.458626 -255.0875 
L 298.28348 -255.0875 
L 297.108334 -255.0875 
L 295.933188 -255.0875 
L 294.758042 -255.0875 
L 293.582896 -255.0875 
L 292.40775 -255.0875 
L 291.232604 -255.0875 
L 290.057458 -255.0875 
L 288.882312 -255.0875 
L 287.707166 -255.0875 
L 286.53202 -255.0875 
L 285.356874 -255.0875 
L 284.181728 -255.0875 
L 283.006582 -255.0875 
L 281.831436 -255.0875 
L 280.65629 -255.0875 
L 279.481144 -255.0875 
L 278.305997 -255.0875 
L 277.130851 -255.0875 
L 275.955705 -255.0875 
L 274.780559 -255.0875 
L 273.605413 -255.0875 
L 272.430267 -255.0875 
L 271.255121 -255.0875 
L 270.079975 -255.0875 
L 268.904829 -255.0875 
L 267.729683 -255.0875 
L 266.554537 -255.0875 
L 265.379391 -255.0875 
L 264.204245 -255.0875 
L 263.029099 -255.0875 
L 261.853953 -255.0875 
L 260.678807 -255.0875 
L 259.503661 -255.0875 
L 258.328515 -255.0875 
L 257.153369 -255.0875 
L 255.978223 -255.0875 
L 254.803077 -255.0875 
L 253.627931 -255.0875 
L 252.452785 -255.0875 
L 251.277639 -255.0875 
L 250.102493 -255.0875 
L 248.927347 -255.0875 
L 247.752201 -255.0875 
L 246.577055 -255.0875 
L 245.401908 -255.0875 
L 244.226762 -255.0875 
L 243.051616 -255.0875 
L 241.87647 -255.0875 
L 240.701324 -255.0875 
L 239.526178 -255.0875 
L 238.351032 -255.0875 
L 237.175886 -255.0875 
L 236.00074 -255.0875 
L 234.825594 -255.0875 
L 233.650448 -255.0875 
L 232.475302 -255.0875 
L 231.300156 -255.0875 
L 230.12501 -255.0875 
L 228.949864 -255.0875 
L 227.774718 -255.0875 
L 226.599572 -255.0875 
L 225.424426 -255.0875 
L 224.24928 -255.0875 
L 223.074134 -255.0875 
L 221.898988 -255.0875 
L 220.723842 -255.0875 
L 219.548696 -255.0875 
L 218.37355 -255.0875 
L 217.198404 -255.0875 
L 216.023258 -255.0875 
L 214.848112 -255.0875 
L 213.672965 -255.0875 
L 212.497819 -255.0875 
L 211.322673 -255.0875 
L 210.147527 -255.0875 
L 208.972381 -255.0875 
L 207.797235 -255.0875 
L 206.622089 -255.0875 
L 205.446943 -255.0875 
L 204.271797 -255.0875 
L 203.096651 -255.0875 
L 201.921505 -255.0875 
L 200.746359 -255.0875 
L 199.571213 -255.0875 
L 198.396067 -255.0875 
L 197.220921 -255.0875 
L 196.045775 -255.0875 
L 194.870629 -255.0875 
L 193.695483 -255.0875 
L 192.520337 -255.0875 
L 191.345191 -255.0875 
L 190.170045 -255.0875 
L 188.994899 -255.0875 
L 187.819753 -255.0875 
L 186.644607 -255.0875 
L 185.469461 -255.0875 
L 184.294315 -255.0875 
L 183.119169 -255.0875 
L 181.944023 -255.0875 
L 180.768876 -255.0875 
L 179.59373 -255.0875 
L 178.418584 -255.0875 
L 177.243438 -255.0875 
L 176.068292 -255.0875 
L 174.893146 -255.0875 
L 173.718 -255.0875 
L 172.542854 -255.0875 
L 171.367708 -255.0875 
L 170.192562 -255.0875 
L 169.017416 -255.0875 
L 167.84227 -255.0875 
L 166.667124 -255.0875 
L 165.491978 -255.0875 
L 164.316832 -255.0875 
L 163.141686 -255.0875 
L 161.96654 -255.0875 
L 160.791394 -255.0875 
L 159.616248 -255.0875 
L 158.441102 -255.0875 
L 157.265956 -255.0875 
L 156.09081 -255.0875 
L 154.915664 -255.0875 
L 153.740518 -255.0875 
L 152.565372 -255.0875 
L 151.390226 -255.0875 
L 150.21508 -255.0875 
L 149.039934 -255.0875 
L 147.864787 -255.0875 
L 146.689641 -255.0875 
L 145.514495 -255.0875 
L 144.339349 -255.0875 
L 143.164203 -255.0875 
L 141.989057 -255.0875 
L 140.813911 -255.0875 
L 139.638765 -255.0875 
L 138.463619 -255.0875 
L 137.288473 -255.0875 
L 136.113327 -255.0875 
L 134.938181 -255.0875 
L 133.763035 -255.0875 
L 132.587889 -255.0875 
L 131.412743 -255.0875 
L 130.237597 -255.0875 
L 129.062451 -255.0875 
L 127.887305 -255.0875 
L 126.712159 -255.0875 
L 125.537013 -255.0875 
L 124.361867 -255.0875 
L 123.186721 -255.0875 
L 122.011575 -255.0875 
L 120.836429 -255.0875 
L 119.661283 -255.0875 
L 118.486137 -255.0875 
L 117.310991 -255.0875 
L 116.135844 -255.0875 
L 114.960698 -255.0875 
L 113.785552 -255.0875 
L 112.610406 -255.0875 
L 111.43526 -255.0875 
L 110.260114 -255.0875 
L 109.084968 -255.0875 
L 107.909822 -255.0875 
L 106.734676 -255.0875 
L 105.55953 -255.0875 
L 104.384384 -255.0875 
L 103.209238 -255.0875 
L 102.034092 -255.0875 
L 100.858946 -255.0875 
L 99.6838 -255.0875 
L 98.508654 -255.0875 
L 97.333508 -255.0875 
L 96.158362 -255.0875 
L 94.983216 -255.0875 
L 93.80807 -255.0875 
L 92.632924 -255.0875 
L 91.457778 -255.0875 
L 90.282632 -255.0875 
L 89.107486 -255.0875 
L 87.93234 -255.0875 
L 86.757194 -255.0875 
L 85.582048 -255.0875 
L 84.406902 -255.0875 
L 83.231755 -255.0875 
L 82.056609 -255.0875 
L 80.881463 -255.0875 
L 79.706317 -255.0875 
L 78.531171 -255.0875 
L 77.356025 -255.0875 
L 76.180879 -255.0875 
L 75.005733 -255.0875 
L 73.830587 -255.0875 
L 72.655441 -255.0875 
L 71.480295 -255.0875 
L 70.305149 -255.0875 
L 69.130003 -255.0875 
L 67.954857 -255.0875 
L 66.779711 -255.0875 
L 65.604565 -255.0875 
L 64.429419 -255.0875 
L 63.254273 -255.0875 
L 62.079127 -255.0875 
L 60.903981 -255.0875 
L 59.728835 -255.0875 
L 58.553689 -255.0875 
L 57.378543 -255.0875 
L 56.203397 -255.0875 
L 55.028251 -255.0875 
L 53.853105 -255.0875 
L 52.677959 -255.0875 
L 51.502813 -255.0875 
z
" style="stroke: #a3583c; stroke-opacity: 0.08"/>
    </defs>
    <g clip-path="url(#pa34973bc5c)">
     <use xlink:href="#m54a7b1c2dd" x="0" y="499.624687" style="fill: #a3583c; fill-opacity: 0.08; stroke: #a3583c; stroke-opacity: 0.08"/>
    </g>
   </g>
   <g id="matplotlib.axis_1">
    <g id="xtick_1">
     <g id="line2d_1">
      <path d="M 51.502813 453.877187 
L 51.502813 35.197187 
" clip-path="url(#pa34973bc5c)" style="fill: none; stroke: #d9cbb6; stroke-opacity: 0.45; stroke-width: 0.8; stroke-linecap: square"/>
     </g>
     <g id="line2d_2">
      <defs>
       <path id="meed7473430" d="M 0 0 
L 0 3.5 
" style="stroke: #756a5d; stroke-width: 0.8"/>
      </defs>
      <g>
       <use xlink:href="#meed7473430" x="51.502813" y="453.877187" style="fill: #756a5d; stroke: #756a5d; stroke-width: 0.8"/>
      </g>
     </g>
     <g id="text_1">
      <text style="font-size: 11px; font-family: 'DejaVu Serif'; text-anchor: middle; fill: #756a5d" x="51.502813" y="469.235469" transform="rotate(-0 51.502813 469.235469)">0.0</text>
     </g>
    </g>
    <g id="xtick_2">
     <g id="line2d_3">
      <path d="M 220.488812 453.877187 
L 220.488812 35.197187 
" clip-path="url(#pa34973bc5c)" style="fill: none; stroke: #d9cbb6; stroke-opacity: 0.45; stroke-width: 0.8; stroke-linecap: square"/>
     </g>
     <g id="line2d_4">
      <g>
       <use xlink:href="#meed7473430" x="220.488812" y="453.877187" style="fill: #756a5d; stroke: #756a5d; stroke-width: 0.8"/>
      </g>
     </g>
     <g id="text_2">
      <text style="font-size: 11px; font-family: 'DejaVu Serif'; text-anchor: middle; fill: #756a5d" x="220.488812" y="469.235469" transform="rotate(-0 220.488812 469.235469)">0.2</text>
     </g>
    </g>
    <g id="xtick_3">
     <g id="line2d_5">
      <path d="M 389.474812 453.877187 
L 389.474812 35.197187 
" clip-path="url(#pa34973bc5c)" style="fill: none; stroke: #d9cbb6; stroke-opacity: 0.45; stroke-width: 0.8; stroke-linecap: square"/>
     </g>
     <g id="line2d_6">
      <g>
       <use xlink:href="#meed7473430" x="389.474812" y="453.877187" style="fill: #756a5d; stroke: #756a5d; stroke-width: 0.8"/>
      </g>
     </g>
     <g id="text_3">
      <text style="font-size: 11px; font-family: 'DejaVu Serif'; text-anchor: middle; fill: #756a5d" x="389.474812" y="469.235469" transform="rotate(-0 389.474812 469.235469)">0.4</text>
     </g>
    </g>
    <g id="xtick_4">
     <g id="line2d_7">
      <path d="M 558.460812 453.877187 
L 558.460812 35.197187 
" clip-path="url(#pa34973bc5c)" style="fill: none; stroke: #d9cbb6; stroke-opacity: 0.45; stroke-width: 0.8; stroke-linecap: square"/>
     </g>
     <g id="line2d_8">
      <g>
       <use xlink:href="#meed7473430" x="558.460812" y="453.877187" style="fill: #756a5d; stroke: #756a5d; stroke-width: 0.8"/>
      </g>
     </g>
     <g id="text_4">
      <text style="font-size: 11px; font-family: 'DejaVu Serif'; text-anchor: middle; fill: #756a5d" x="558.460812" y="469.235469" transform="rotate(-0 558.460812 469.235469)">0.6</text>
     </g>
    </g>
    <g id="xtick_5">
     <g id="line2d_9">
      <path d="M 727.446812 453.877187 
L 727.446812 35.197187 
" clip-path="url(#pa34973bc5c)" style="fill: none; stroke: #d9cbb6; stroke-opacity: 0.45; stroke-width: 0.8; stroke-linecap: square"/>
     </g>
     <g id="line2d_10">
      <g>
       <use xlink:href="#meed7473430" x="727.446812" y="453.877187" style="fill: #756a5d; stroke: #756a5d; stroke-width: 0.8"/>
      </g>
     </g>
     <g id="text_5">
      <text style="font-size: 11px; font-family: 'DejaVu Serif'; text-anchor: middle; fill: #756a5d" x="727.446812" y="469.235469" transform="rotate(-0 727.446812 469.235469)">0.8</text>
     </g>
    </g>
    <g id="xtick_6">
     <g id="line2d_11">
      <path d="M 896.432812 453.877187 
L 896.432812 35.197187 
" clip-path="url(#pa34973bc5c)" style="fill: none; stroke: #d9cbb6; stroke-opacity: 0.45; stroke-width: 0.8; stroke-linecap: square"/>
     </g>
     <g id="line2d_12">
      <g>
       <use xlink:href="#meed7473430" x="896.432812" y="453.877187" style="fill: #756a5d; stroke: #756a5d; stroke-width: 0.8"/>
      </g>
     </g>
     <g id="text_6">
      <text style="font-size: 11px; font-family: 'DejaVu Serif'; text-anchor: middle; fill: #756a5d" x="896.432812" y="469.235469" transform="rotate(-0 896.432812 469.235469)">1.0</text>
     </g>
    </g>
    <g id="text_7">
     <text style="font-size: 13px; font-family: 'DejaVu Serif'; text-anchor: middle; fill: #1f1b16" x="473.967812" y="485.401094" transform="rotate(-0 473.967812 485.401094)">Orbital phase</text>
    </g>
   </g>
   <g id="matplotlib.axis_2">
    <g id="ytick_1">
     <g id="line2d_13">
      <path d="M 51.502813 445.035903 
L 896.432812 445.035903 
" clip-path="url(#pa34973bc5c)" style="fill: none; stroke: #d9cbb6; stroke-opacity: 0.45; stroke-width: 0.8; stroke-linecap: square"/>
     </g>
     <g id="line2d_14">
      <defs>
       <path id="mb8e6240b2a" d="M 0 0 
L -3.5 0 
" style="stroke: #756a5d; stroke-width: 0.8"/>
      </defs>
      <g>
       <use xlink:href="#mb8e6240b2a" x="51.502813" y="445.035903" style="fill: #756a5d; stroke: #756a5d; stroke-width: 0.8"/>
      </g>
     </g>
     <g id="text_8">
      <text style="font-size: 11px; font-family: 'DejaVu Serif'; text-anchor: end; fill: #756a5d" x="44.502813" y="449.215044" transform="rotate(-0 44.502813 449.215044)">−4</text>
     </g>
    </g>
    <g id="ytick_2">
     <g id="line2d_15">
      <path d="M 51.502813 394.911224 
L 896.432812 394.911224 
" clip-path="url(#pa34973bc5c)" style="fill: none; stroke: #d9cbb6; stroke-opacity: 0.45; stroke-width: 0.8; stroke-linecap: square"/>
     </g>
     <g id="line2d_16">
      <g>
       <use xlink:href="#mb8e6240b2a" x="51.502813" y="394.911224" style="fill: #756a5d; stroke: #756a5d; stroke-width: 0.8"/>
      </g>
     </g>
     <g id="text_9">
      <text style="font-size: 11px; font-family: 'DejaVu Serif'; text-anchor: end; fill: #756a5d" x="44.502813" y="399.090365" transform="rotate(-0 44.502813 399.090365)">−3</text>
     </g>
    </g>
    <g id="ytick_3">
     <g id="line2d_17">
      <path d="M 51.502813 344.786545 
L 896.432812 344.786545 
" clip-path="url(#pa34973bc5c)" style="fill: none; stroke: #d9cbb6; stroke-opacity: 0.45; stroke-width: 0.8; stroke-linecap: square"/>
     </g>
     <g id="line2d_18">
      <g>
       <use xlink:href="#mb8e6240b2a" x="51.502813" y="344.786545" style="fill: #756a5d; stroke: #756a5d; stroke-width: 0.8"/>
      </g>
     </g>
     <g id="text_10">
      <text style="font-size: 11px; font-family: 'DejaVu Serif'; text-anchor: end; fill: #756a5d" x="44.502813" y="348.965686" transform="rotate(-0 44.502813 348.965686)">−2</text>
     </g>
    </g>
    <g id="ytick_4">
     <g id="line2d_19">
      <path d="M 51.502813 294.661866 
L 896.432812 294.661866 
" clip-path="url(#pa34973bc5c)" style="fill: none; stroke: #d9cbb6; stroke-opacity: 0.45; stroke-width: 0.8; stroke-linecap: square"/>
     </g>
     <g id="line2d_20">
      <g>
       <use xlink:href="#mb8e6240b2a" x="51.502813" y="294.661866" style="fill: #756a5d; stroke: #756a5d; stroke-width: 0.8"/>
      </g>
     </g>
     <g id="text_11">
      <text style="font-size: 11px; font-family: 'DejaVu Serif'; text-anchor: end; fill: #756a5d" x="44.502813" y="298.841007" transform="rotate(-0 44.502813 298.841007)">−1</text>
     </g>
    </g>
    <g id="ytick_5">
     <g id="line2d_21">
      <path d="M 51.502813 244.537187 
L 896.432812 244.537187 
" clip-path="url(#pa34973bc5c)" style="fill: none; stroke: #d9cbb6; stroke-opacity: 0.45; stroke-width: 0.8; stroke-linecap: square"/>
     </g>
     <g id="line2d_22">
      <g>
       <use xlink:href="#mb8e6240b2a" x="51.502813" y="244.537187" style="fill: #756a5d; stroke: #756a5d; stroke-width: 0.8"/>
      </g>
     </g>
     <g id="text_12">
      <text style="font-size: 11px; font-family: 'DejaVu Serif'; text-anchor: end; fill: #756a5d" x="44.502813" y="248.716328" transform="rotate(-0 44.502813 248.716328)">0</text>
     </g>
    </g>
    <g id="ytick_6">
     <g id="line2d_23">
      <path d="M 51.502813 194.412509 
L 896.432812 194.412509 
" clip-path="url(#pa34973bc5c)" style="fill: none; stroke: #d9cbb6; stroke-opacity: 0.45; stroke-width: 0.8; stroke-linecap: square"/>
     </g>
     <g id="line2d_24">
      <g>
       <use xlink:href="#mb8e6240b2a" x="51.502813" y="194.412509" style="fill: #756a5d; stroke: #756a5d; stroke-width: 0.8"/>
      </g>
     </g>
     <g id="text_13">
      <text style="font-size: 11px; font-family: 'DejaVu Serif'; text-anchor: end; fill: #756a5d" x="44.502813" y="198.591649" transform="rotate(-0 44.502813 198.591649)">1</text>
     </g>
    </g>
    <g id="ytick_7">
     <g id="line2d_25">
      <path d="M 51.502813 144.28783 
L 896.432812 144.28783 
" clip-path="url(#pa34973bc5c)" style="fill: none; stroke: #d9cbb6; stroke-opacity: 0.45; stroke-width: 0.8; stroke-linecap: square"/>
     </g>
     <g id="line2d_26">
      <g>
       <use xlink:href="#mb8e6240b2a" x="51.502813" y="144.28783" style="fill: #756a5d; stroke: #756a5d; stroke-width: 0.8"/>
      </g>
     </g>
     <g id="text_14">
      <text style="font-size: 11px; font-family: 'DejaVu Serif'; text-anchor: end; fill: #756a5d" x="44.502813" y="148.46697" transform="rotate(-0 44.502813 148.46697)">2</text>
     </g>
    </g>
    <g id="ytick_8">
     <g id="line2d_27">
      <path d="M 51.502813 94.163151 
L 896.432812 94.163151 
" clip-path="url(#pa34973bc5c)" style="fill: none; stroke: #d9cbb6; stroke-opacity: 0.45; stroke-width: 0.8; stroke-linecap: square"/>
     </g>
     <g id="line2d_28">
      <g>
       <use xlink:href="#mb8e6240b2a" x="51.502813" y="94.163151" style="fill: #756a5d; stroke: #756a5d; stroke-width: 0.8"/>
      </g>
     </g>
     <g id="text_15">
      <text style="font-size: 11px; font-family: 'DejaVu Serif'; text-anchor: end; fill: #756a5d" x="44.502813" y="98.342291" transform="rotate(-0 44.502813 98.342291)">3</text>
     </g>
    </g>
    <g id="ytick_9">
     <g id="line2d_29">
      <path d="M 51.502813 44.038472 
L 896.432812 44.038472 
" clip-path="url(#pa34973bc5c)" style="fill: none; stroke: #d9cbb6; stroke-opacity: 0.45; stroke-width: 0.8; stroke-linecap: square"/>
     </g>
     <g id="line2d_30">
      <g>
       <use xlink:href="#mb8e6240b2a" x="51.502813" y="44.038472" style="fill: #756a5d; stroke: #756a5d; stroke-width: 0.8"/>
      </g>
     </g>
     <g id="text_16">
      <text style="font-size: 11px; font-family: 'DejaVu Serif'; text-anchor: end; fill: #756a5d" x="44.502813" y="48.217612" transform="rotate(-0 44.502813 48.217612)">4</text>
     </g>
    </g>
    <g id="text_17">
     <text style="font-size: 13px; font-family: 'DejaVu Serif'; text-anchor: middle; fill: #1f1b16" x="21.397969" y="244.537187" transform="rotate(-90 21.397969 244.537187)">Stellar radial velocity (m/s)</text>
    </g>
   </g>
   <g id="line2d_31">
    <path d="M 51.502813 244.537187 
L 73.830587 278.803554 
L 85.582048 296.428483 
L 94.983216 310.172593 
L 104.384384 323.509829 
L 112.610406 334.783676 
L 119.661283 344.112534 
L 126.712159 353.101171 
L 133.763035 361.721621 
L 140.813911 369.947837 
L 146.689641 376.484462 
L 152.565372 382.71777 
L 158.441102 388.635975 
L 164.316832 394.228327 
L 170.192562 399.485122 
L 176.068292 404.397706 
L 181.944023 408.958474 
L 186.644607 412.349332 
L 191.345191 415.507915 
L 196.045775 418.431749 
L 200.746359 421.118769 
L 205.446943 423.56731 
L 210.147527 425.7761 
L 214.848112 427.744249 
L 219.548696 429.471241 
L 224.24928 430.956923 
L 228.949864 432.201493 
L 233.650448 433.205489 
L 238.351032 433.969775 
L 243.051616 434.495533 
L 247.752201 434.784247 
L 252.452785 434.83769 
L 257.153369 434.657915 
L 261.853953 434.247237 
L 266.554537 433.608224 
L 271.255121 432.743685 
L 275.955705 431.656652 
L 280.65629 430.350376 
L 285.356874 428.828306 
L 290.057458 427.094084 
L 294.758042 425.151531 
L 299.458626 423.004634 
L 304.15921 420.657537 
L 310.03494 417.448686 
L 315.910671 413.942415 
L 321.786401 410.147704 
L 327.662131 406.073806 
L 333.537861 401.730225 
L 339.413591 397.126685 
L 345.289322 392.273115 
L 352.340198 386.133029 
L 359.391074 379.665218 
L 366.44195 372.887724 
L 373.492826 365.818835 
L 381.718849 357.228186 
L 389.944871 348.29575 
L 398.170893 339.051444 
L 407.572061 328.143291 
L 418.148376 315.488071 
L 428.72469 302.489045 
L 441.651297 286.229162 
L 456.928195 266.63835 
L 512.160059 195.410296 
L 523.911519 180.769692 
L 534.487833 167.915465 
L 543.889002 156.800268 
L 553.29017 146.024826 
L 561.516192 136.9105 
L 569.742214 128.120895 
L 577.968237 119.685822 
L 585.019113 112.760331 
L 592.069989 106.135407 
L 599.120865 99.82922 
L 606.171742 93.859676 
L 612.047472 89.154923 
L 617.923202 84.706179 
L 623.798932 80.523255 
L 629.674662 76.615744 
L 635.550392 72.993003 
L 641.426123 69.664125 
L 647.301853 66.637912 
L 652.002437 64.44057 
L 656.703021 62.446551 
L 661.403605 60.659881 
L 666.104189 59.084425 
L 670.804774 57.723869 
L 675.505358 56.581713 
L 680.205942 55.661257 
L 684.906526 54.965591 
L 689.60711 54.497579 
L 694.307694 54.25985 
L 699.008278 54.254786 
L 703.708863 54.484505 
L 708.409447 54.950851 
L 713.110031 55.655383 
L 717.810615 56.599357 
L 722.511199 57.78372 
L 727.211783 59.209093 
L 731.912367 60.875758 
L 736.612952 62.783652 
L 741.313536 64.93235 
L 746.01412 67.321057 
L 750.714704 69.948598 
L 755.415288 72.813406 
L 760.115872 75.913518 
L 764.816456 79.246562 
L 769.517041 82.809753 
L 775.392771 87.582465 
L 781.268501 92.702555 
L 787.144231 98.16179 
L 793.019961 103.950885 
L 798.895691 110.059509 
L 804.771422 116.476287 
L 810.647152 123.188816 
L 817.698028 131.615281 
L 824.748904 140.423203 
L 831.799781 149.585563 
L 840.025803 160.684315 
L 848.251825 172.177243 
L 857.652993 185.728103 
L 868.229308 201.405666 
L 881.155914 221.017859 
L 896.432812 244.537187 
L 896.432812 244.537187 
" clip-path="url(#pa34973bc5c)" style="fill: none; stroke: #a3583c; stroke-width: 2.6; stroke-linecap: square"/>
   </g>
   <g id="line2d_32">
    <path d="M 51.502813 244.537187 
L 896.432812 244.537187 
" clip-path="url(#pa34973bc5c)" style="fill: none; stroke-dasharray: 5.365,2.32; stroke-dashoffset: 0; stroke: #9b9184; stroke-opacity: 0.65; stroke-width: 1.45"/>
   </g>
   <g id="patch_3">
    <path d="M 51.502813 453.877187 
L 51.502813 35.197187 
" style="fill: none; stroke: #b9a98f; stroke-width: 0.8; stroke-linejoin: miter; stroke-linecap: square"/>
   </g>
   <g id="patch_4">
    <path d="M 896.432812 453.877187 
L 896.432812 35.197187 
" style="fill: none; stroke: #b9a98f; stroke-width: 0.8; stroke-linejoin: miter; stroke-linecap: square"/>
   </g>
   <g id="patch_5">
    <path d="M 51.502813 453.877187 
L 896.432812 453.877187 
" style="fill: none; stroke: #b9a98f; stroke-width: 0.8; stroke-linejoin: miter; stroke-linecap: square"/>
   </g>
   <g id="patch_6">
    <path d="M 51.502813 35.197187 
L 896.432812 35.197187 
" style="fill: none; stroke: #b9a98f; stroke-width: 0.8; stroke-linejoin: miter; stroke-linecap: square"/>
   </g>
   <g id="text_18">
    <g id="patch_7">
     <path d="M 64.176763 72.760563 
L 342.584263 72.760563 
Q 345.664263 72.760563 345.664263 69.680563 
L 345.664263 56.131188 
Q 345.664263 53.051188 342.584263 53.051188 
L 64.176763 53.051188 
Q 61.096763 53.051188 61.096763 56.131188 
L 61.096763 69.680563 
Q 61.096763 72.760563 64.176763 72.760563 
z
" style="fill: #fffaf0; opacity: 0.88"/>
    </g>
    <text style="font-size: 14px; font-family: 'DejaVu Serif'; text-anchor: start; fill: #756a5d" x="64.176763" y="66.769" transform="rotate(-0 64.176763 66.769)">K ≈ 3.8 m s^-1 · P ≈ 24.74 d · e = 0.04</text>
   </g>
   <g id="text_19">
    <text style="font-size: 10.5px; font-family: 'DejaVu Serif'; text-anchor: end; fill: #756a5d" x="887.983512" y="443.170619" transform="rotate(-0 887.983512 443.170619)">single-planet Keplerian model</text>
   </g>
   <g id="text_20">
    <text style="font-weight: 700; font-size: 18px; font-family: 'DejaVu Serif'; text-anchor: start; fill: #1f1b16" x="51.502813" y="25.197187" transform="rotate(-0 51.502813 25.197187)">Keplerian RV model — LHS 1140 b</text>
   </g>
  </g>
 </g>
 <defs>
  <clipPath id="pa34973bc5c">
   <rect x="51.502813" y="35.197187" width="844.93" height="418.68"/>
  </clipPath>
 </defs>
</svg>
