<?xml version="1.0" encoding="utf-8" standalone="no"?>
<!DOCTYPE svg PUBLIC "-//W3C//DTD SVG 1.1//EN"
  "http://www.w3.org/Graphics/SVG/1.1/DTD/svg11.dtd">
<svg xmlns:xlink="http://www.w3.org/1999/xlink" width="916.699531pt" height="499.624687pt" viewBox="0 0 916.699531 499.624687" xmlns="http://www.w3.org/2000/svg" version="1.1">
 <metadata>
  <rdf:RDF xmlns:dc="http://purl.org/dc/elements/1.1/" xmlns:cc="http://creativecommons.org/ns#" xmlns:rdf="http://www.w3.org/1999/02/22-rdf-syntax-ns#">
   <cc:Work>
    <dc:type rdf:resource="http://purl.org/dc/dcmitype/StillImage"/>
    <dc:date>2026-05-11T14:16:39.158315</dc:date>
    <dc:format>image/svg+xml</dc:format>
    <dc:creator>
     <cc:Agent>
      <dc:title>Matplotlib v3.10.8, https://matplotlib.org/</dc:title>
     </cc:Agent>
    </dc:creator>
   </cc:Work>
  </rdf:RDF>
 </metadata>
 <defs>
  <style type="text/css">*{stroke-linejoin: round; stroke-linecap: butt}</style>
 </defs>
 <g id="figure_1">
  <g id="patch_1">
   <path d="M 0 499.624687 
L 916.699531 499.624687 
L 916.699531 0 
L 0 0 
z
" style="fill: #fffaf0"/>
  </g>
  <g id="axes_1">
   <g id="patch_2">
    <path d="M 51.502813 453.877187 
L 896.432812 453.877187 
L 896.432812 35.197187 
L 51.502813 35.197187 
z
" style="fill: #fffaf0"/>
   </g>
   <g id="FillBetweenPolyCollection_1">
    <defs>
     <path id="mb1b2f1431f" d="M 51.502813 -255.0875 
L 51.502813 -255.0875 
L 52.677959 -253.424447 
L 53.853105 -251.761522 
L 55.028251 -250.09885 
L 56.203397 -248.436559 
L 57.378543 -246.774776 
L 58.553689 -245.113628 
L 59.728835 -243.453242 
L 60.903981 -241.793744 
L 62.079127 -240.135261 
L 63.254273 -238.47792 
L 64.429419 -236.821848 
L 65.604565 -235.16717 
L 66.779711 -233.514013 
L 67.954857 -231.862505 
L 69.130003 -230.212769 
L 70.305149 -228.564933 
L 71.480295 -226.919123 
L 72.655441 -225.275464 
L 73.830587 -223.634081 
L 75.005733 -221.995101 
L 76.180879 -220.358647 
L 77.356025 -218.724846 
L 78.531171 -217.093821 
L 79.706317 -215.465698 
L 80.881463 -213.840601 
L 82.056609 -212.218653 
L 83.231755 -210.599979 
L 84.406902 -208.984703 
L 85.582048 -207.372947 
L 86.757194 -205.764835 
L 87.93234 -204.160489 
L 89.107486 -202.560033 
L 90.282632 -200.963588 
L 91.457778 -199.371276 
L 92.632924 -197.783219 
L 93.80807 -196.199538 
L 94.983216 -194.620354 
L 96.158362 -193.045788 
L 97.333508 -191.475959 
L 98.508654 -189.910989 
L 99.6838 -188.350995 
L 100.858946 -186.796098 
L 102.034092 -185.246416 
L 103.209238 -183.702068 
L 104.384384 -182.163171 
L 105.55953 -180.629843 
L 106.734676 -179.102201 
L 107.909822 -177.580361 
L 109.084968 -176.064441 
L 110.260114 -174.554555 
L 111.43526 -173.050819 
L 112.610406 -171.553348 
L 113.785552 -170.062256 
L 114.960698 -168.577657 
L 116.135844 -167.099665 
L 117.310991 -165.628392 
L 118.486137 -164.16395 
L 119.661283 -162.706452 
L 120.836429 -161.256009 
L 122.011575 -159.812731 
L 123.186721 -158.376729 
L 124.361867 -156.948112 
L 125.537013 -155.52699 
L 126.712159 -154.11347 
L 127.887305 -152.707662 
L 129.062451 -151.309672 
L 130.237597 -149.919607 
L 131.412743 -148.537574 
L 132.587889 -147.163677 
L 133.763035 -145.798022 
L 134.938181 -144.440713 
L 136.113327 -143.091853 
L 137.288473 -141.751546 
L 138.463619 -140.419895 
L 139.638765 -139.096999 
L 140.813911 -137.782962 
L 141.989057 -136.477882 
L 143.164203 -135.181861 
L 144.339349 -133.894996 
L 145.514495 -132.617386 
L 146.689641 -131.349128 
L 147.864787 -130.09032 
L 149.039934 -128.841058 
L 150.21508 -127.601436 
L 151.390226 -126.37155 
L 152.565372 -125.151493 
L 153.740518 -123.941359 
L 154.915664 -122.741241 
L 156.09081 -121.551229 
L 157.265956 -120.371414 
L 158.441102 -119.201887 
L 159.616248 -118.042738 
L 160.791394 -116.894053 
L 161.96654 -115.755922 
L 163.141686 -114.628432 
L 164.316832 -113.511667 
L 165.491978 -112.405714 
L 166.667124 -111.310657 
L 167.84227 -110.22658 
L 169.017416 -109.153565 
L 170.192562 -108.091695 
L 171.367708 -107.04105 
L 172.542854 -106.00171 
L 173.718 -104.973756 
L 174.893146 -103.957265 
L 176.068292 -102.952316 
L 177.243438 -101.958984 
L 178.418584 -100.977347 
L 179.59373 -100.007478 
L 180.768876 -99.049451 
L 181.944023 -98.103341 
L 183.119169 -97.169219 
L 184.294315 -96.247157 
L 185.469461 -95.337224 
L 186.644607 -94.439491 
L 187.819753 -93.554026 
L 188.994899 -92.680897 
L 190.170045 -91.82017 
L 191.345191 -90.971911 
L 192.520337 -90.136185 
L 193.695483 -89.313055 
L 194.870629 -88.502585 
L 196.045775 -87.704837 
L 197.220921 -86.91987 
L 198.396067 -86.147746 
L 199.571213 -85.388524 
L 200.746359 -84.64226 
L 201.921505 -83.909013 
L 203.096651 -83.188837 
L 204.271797 -82.481789 
L 205.446943 -81.787923 
L 206.622089 -81.10729 
L 207.797235 -80.439943 
L 208.972381 -79.785934 
L 210.147527 -79.145312 
L 211.322673 -78.518125 
L 212.497819 -77.904423 
L 213.672965 -77.304251 
L 214.848112 -76.717656 
L 216.023258 -76.144682 
L 217.198404 -75.585373 
L 218.37355 -75.039773 
L 219.548696 -74.507921 
L 220.723842 -73.98986 
L 221.898988 -73.485628 
L 223.074134 -72.995265 
L 224.24928 -72.518807 
L 225.424426 -72.056291 
L 226.599572 -71.607753 
L 227.774718 -71.173226 
L 228.949864 -70.752744 
L 230.12501 -70.346339 
L 231.300156 -69.954042 
L 232.475302 -69.575882 
L 233.650448 -69.21189 
L 234.825594 -68.862091 
L 236.00074 -68.526515 
L 237.175886 -68.205185 
L 238.351032 -67.898126 
L 239.526178 -67.605362 
L 240.701324 -67.326916 
L 241.87647 -67.062808 
L 243.051616 -66.813059 
L 244.226762 -66.577687 
L 245.401908 -66.356712 
L 246.577055 -66.150148 
L 247.752201 -65.958014 
L 248.927347 -65.780322 
L 250.102493 -65.617086 
L 251.277639 -65.46832 
L 252.452785 -65.334035 
L 253.627931 -65.21424 
L 254.803077 -65.108944 
L 255.978223 -65.018157 
L 257.153369 -64.941885 
L 258.328515 -64.880133 
L 259.503661 -64.832906 
L 260.678807 -64.800209 
L 261.853953 -64.782042 
L 263.029099 -64.778409 
L 264.204245 -64.789309 
L 265.379391 -64.814741 
L 266.554537 -64.854703 
L 267.729683 -64.909193 
L 268.904829 -64.978206 
L 270.079975 -65.061737 
L 271.255121 -65.159779 
L 272.430267 -65.272325 
L 273.605413 -65.399367 
L 274.780559 -65.540894 
L 275.955705 -65.696896 
L 277.130851 -65.867361 
L 278.305997 -66.052276 
L 279.481144 -66.251627 
L 280.65629 -66.465399 
L 281.831436 -66.693575 
L 283.006582 -66.936137 
L 284.181728 -67.193069 
L 285.356874 -67.464348 
L 286.53202 -67.749956 
L 287.707166 -68.04987 
L 288.882312 -68.364067 
L 290.057458 -68.692524 
L 291.232604 -69.035214 
L 292.40775 -69.392113 
L 293.582896 -69.763193 
L 294.758042 -70.148425 
L 295.933188 -70.54778 
L 297.108334 -70.961227 
L 298.28348 -71.388736 
L 299.458626 -71.830273 
L 300.633772 -72.285804 
L 301.808918 -72.755296 
L 302.984064 -73.238711 
L 304.15921 -73.736013 
L 305.334356 -74.247164 
L 306.509502 -74.772126 
L 307.684648 -75.310857 
L 308.859794 -75.863317 
L 310.03494 -76.429464 
L 311.210086 -77.009254 
L 312.385233 -77.602643 
L 313.560379 -78.209586 
L 314.735525 -78.830036 
L 315.910671 -79.463946 
L 317.085817 -80.111269 
L 318.260963 -80.771953 
L 319.436109 -81.445949 
L 320.611255 -82.133205 
L 321.786401 -82.833669 
L 322.961547 -83.547288 
L 324.136693 -84.274006 
L 325.311839 -85.013768 
L 326.486985 -85.766519 
L 327.662131 -86.532199 
L 328.837277 -87.310752 
L 330.012423 -88.102117 
L 331.187569 -88.906234 
L 332.362715 -89.723041 
L 333.537861 -90.552477 
L 334.713007 -91.394478 
L 335.888153 -92.248979 
L 337.063299 -93.115915 
L 338.238445 -93.995221 
L 339.413591 -94.886828 
L 340.588737 -95.79067 
L 341.763883 -96.706676 
L 342.939029 -97.634777 
L 344.114176 -98.574902 
L 345.289322 -99.52698 
L 346.464468 -100.490936 
L 347.639614 -101.466699 
L 348.81476 -102.454193 
L 349.989906 -103.453343 
L 351.165052 -104.464073 
L 352.340198 -105.486305 
L 353.515344 -106.519962 
L 354.69049 -107.564964 
L 355.865636 -108.621232 
L 357.040782 -109.688685 
L 358.215928 -110.767241 
L 359.391074 -111.856819 
L 360.56622 -112.957334 
L 361.741366 -114.068703 
L 362.916512 -115.190842 
L 364.091658 -116.323663 
L 365.266804 -117.467082 
L 366.44195 -118.62101 
L 367.617096 -119.785359 
L 368.792242 -120.960041 
L 369.967388 -122.144966 
L 371.142534 -123.340042 
L 372.31768 -124.54518 
L 373.492826 -125.760287 
L 374.667972 -126.98527 
L 375.843118 -128.220036 
L 377.018265 -129.46449 
L 378.193411 -130.718537 
L 379.368557 -131.982082 
L 380.543703 -133.255028 
L 381.718849 -134.537278 
L 382.893995 -135.828733 
L 384.069141 -137.129296 
L 385.244287 -138.438867 
L 386.419433 -139.757346 
L 387.594579 -141.084632 
L 388.769725 -142.420624 
L 389.944871 -143.76522 
L 391.120017 -145.118318 
L 392.295163 -146.479813 
L 393.470309 -147.849602 
L 394.645455 -149.22758 
L 395.820601 -150.613643 
L 396.995747 -152.007683 
L 398.170893 -153.409596 
L 399.346039 -154.819273 
L 400.521185 -156.236607 
L 401.696331 -157.66149 
L 402.871477 -159.093813 
L 404.046623 -160.533467 
L 405.221769 -161.980341 
L 406.396915 -163.434326 
L 407.572061 -164.89531 
L 408.747207 -166.363181 
L 409.922354 -167.837828 
L 411.0975 -169.319138 
L 412.272646 -170.806998 
L 413.447792 -172.301293 
L 414.622938 -173.801911 
L 415.798084 -175.308736 
L 416.97323 -176.821654 
L 418.148376 -178.340548 
L 419.323522 -179.865304 
L 420.498668 -181.395803 
L 421.673814 -182.931931 
L 422.84896 -184.473568 
L 424.024106 -186.020598 
L 425.199252 -187.572902 
L 426.374398 -189.130362 
L 427.549544 -190.692859 
L 428.72469 -192.260274 
L 429.899836 -193.832486 
L 431.074982 -195.409376 
L 432.250128 -196.990824 
L 433.425274 -198.576708 
L 434.60042 -200.166908 
L 435.775566 -201.761302 
L 436.950712 -203.359768 
L 438.125858 -204.962184 
L 439.301004 -206.568428 
L 440.47615 -208.178377 
L 441.651297 -209.791909 
L 442.826443 -211.408899 
L 444.001589 -213.029225 
L 445.176735 -214.652763 
L 446.351881 -216.279389 
L 447.527027 -217.908979 
L 448.702173 -219.541407 
L 449.877319 -221.17655 
L 451.052465 -222.814283 
L 452.227611 -224.45448 
L 453.402757 -226.097017 
L 454.577903 -227.741767 
L 455.753049 -229.388606 
L 456.928195 -231.037407 
L 458.103341 -232.688045 
L 459.278487 -234.340394 
L 460.453633 -235.994326 
L 461.628779 -237.649717 
L 462.803925 -239.30644 
L 463.979071 -240.964367 
L 465.154217 -242.623374 
L 466.329363 -244.283332 
L 467.504509 -245.944115 
L 468.679655 -247.605596 
L 469.854801 -249.267649 
L 471.029947 -250.930146 
L 472.205093 -252.592961 
L 473.380239 -254.255966 
L 474.555386 -255.919034 
L 475.730532 -257.582039 
L 476.905678 -259.244854 
L 478.080824 -260.907351 
L 479.25597 -262.569404 
L 480.431116 -264.230885 
L 481.606262 -265.891668 
L 482.781408 -267.551626 
L 483.956554 -269.210633 
L 485.1317 -270.86856 
L 486.306846 -272.525283 
L 487.481992 -274.180674 
L 488.657138 -275.834606 
L 489.832284 -277.486955 
L 491.00743 -279.137593 
L 492.182576 -280.786394 
L 493.357722 -282.433233 
L 494.532868 -284.077983 
L 495.708014 -285.72052 
L 496.88316 -287.360717 
L 498.058306 -288.99845 
L 499.233452 -290.633593 
L 500.408598 -292.266021 
L 501.583744 -293.895611 
L 502.75889 -295.522237 
L 503.934036 -297.145775 
L 505.109182 -298.766101 
L 506.284328 -300.383091 
L 507.459475 -301.996623 
L 508.634621 -303.606572 
L 509.809767 -305.212816 
L 510.984913 -306.815232 
L 512.160059 -308.413698 
L 513.335205 -310.008092 
L 514.510351 -311.598292 
L 515.685497 -313.184176 
L 516.860643 -314.765624 
L 518.035789 -316.342514 
L 519.210935 -317.914726 
L 520.386081 -319.482141 
L 521.561227 -321.044638 
L 522.736373 -322.602098 
L 523.911519 -324.154402 
L 525.086665 -325.701432 
L 526.261811 -327.243069 
L 527.436957 -328.779197 
L 528.612103 -330.309696 
L 529.787249 -331.834452 
L 530.962395 -333.353346 
L 532.137541 -334.866264 
L 533.312687 -336.373089 
L 534.487833 -337.873707 
L 535.662979 -339.368002 
L 536.838125 -340.855862 
L 538.013271 -342.337172 
L 539.188418 -343.811819 
L 540.363564 -345.27969 
L 541.53871 -346.740674 
L 542.713856 -348.194659 
L 543.889002 -349.641533 
L 545.064148 -351.081187 
L 546.239294 -352.51351 
L 547.41444 -353.938393 
L 548.589586 -355.355727 
L 549.764732 -356.765404 
L 550.939878 -358.167317 
L 552.115024 -359.561357 
L 553.29017 -360.94742 
L 554.465316 -362.325398 
L 555.640462 -363.695187 
L 556.815608 -365.056682 
L 557.990754 -366.40978 
L 559.1659 -367.754376 
L 560.341046 -369.090368 
L 561.516192 -370.417654 
L 562.691338 -371.736133 
L 563.866484 -373.045704 
L 565.04163 -374.346267 
L 566.216776 -375.637722 
L 567.391922 -376.919972 
L 568.567068 -378.192918 
L 569.742214 -379.456463 
L 570.91736 -380.71051 
L 572.092507 -381.954964 
L 573.267653 -383.18973 
L 574.442799 -384.414713 
L 575.617945 -385.62982 
L 576.793091 -386.834958 
L 577.968237 -388.030034 
L 579.143383 -389.214959 
L 580.318529 -390.389641 
L 581.493675 -391.55399 
L 582.668821 -392.707918 
L 583.843967 -393.851337 
L 585.019113 -394.984158 
L 586.194259 -396.106297 
L 587.369405 -397.217666 
L 588.544551 -398.318181 
L 589.719697 -399.407759 
L 590.894843 -400.486315 
L 592.069989 -401.553768 
L 593.245135 -402.610036 
L 594.420281 -403.655038 
L 595.595427 -404.688695 
L 596.770573 -405.710927 
L 597.945719 -406.721657 
L 599.120865 -407.720807 
L 600.296011 -408.708301 
L 601.471157 -409.684064 
L 602.646303 -410.64802 
L 603.821449 -411.600098 
L 604.996596 -412.540223 
L 606.171742 -413.468324 
L 607.346888 -414.38433 
L 608.522034 -415.288172 
L 609.69718 -416.179779 
L 610.872326 -417.059085 
L 612.047472 -417.926021 
L 613.222618 -418.780522 
L 614.397764 -419.622523 
L 615.57291 -420.451959 
L 616.748056 -421.268766 
L 617.923202 -422.072883 
L 619.098348 -422.864248 
L 620.273494 -423.642801 
L 621.44864 -424.408481 
L 622.623786 -425.161232 
L 623.798932 -425.900994 
L 624.974078 -426.627712 
L 626.149224 -427.341331 
L 627.32437 -428.041795 
L 628.499516 -428.729051 
L 629.674662 -429.403047 
L 630.849808 -430.063731 
L 632.024954 -430.711054 
L 633.2001 -431.344964 
L 634.375246 -431.965414 
L 635.550392 -432.572357 
L 636.725539 -433.165746 
L 637.900685 -433.745536 
L 639.075831 -434.311683 
L 640.250977 -434.864143 
L 641.426123 -435.402874 
L 642.601269 -435.927836 
L 643.776415 -436.438987 
L 644.951561 -436.936289 
L 646.126707 -437.419704 
L 647.301853 -437.889196 
L 648.476999 -438.344727 
L 649.652145 -438.786264 
L 650.827291 -439.213773 
L 652.002437 -439.62722 
L 653.177583 -440.026575 
L 654.352729 -440.411807 
L 655.527875 -440.782887 
L 656.703021 -441.139786 
L 657.878167 -441.482476 
L 659.053313 -441.810933 
L 660.228459 -442.12513 
L 661.403605 -442.425044 
L 662.578751 -442.710652 
L 663.753897 -442.981931 
L 664.929043 -443.238863 
L 666.104189 -443.481425 
L 667.279335 -443.709601 
L 668.454481 -443.923373 
L 669.629628 -444.122724 
L 670.804774 -444.307639 
L 671.97992 -444.478104 
L 673.155066 -444.634106 
L 674.330212 -444.775633 
L 675.505358 -444.902675 
L 676.680504 -445.015221 
L 677.85565 -445.113263 
L 679.030796 -445.196794 
L 680.205942 -445.265807 
L 681.381088 -445.320297 
L 682.556234 -445.360259 
L 683.73138 -445.385691 
L 684.906526 -445.396591 
L 686.081672 -445.392958 
L 687.256818 -445.374791 
L 688.431964 -445.342094 
L 689.60711 -445.294867 
L 690.782256 -445.233115 
L 691.957402 -445.156843 
L 693.132548 -445.066056 
L 694.307694 -444.96076 
L 695.48284 -444.840965 
L 696.657986 -444.70668 
L 697.833132 -444.557914 
L 699.008278 -444.394678 
L 700.183424 -444.216986 
L 701.35857 -444.024852 
L 702.533717 -443.818288 
L 703.708863 -443.597313 
L 704.884009 -443.361941 
L 706.059155 -443.112192 
L 707.234301 -442.848084 
L 708.409447 -442.569638 
L 709.584593 -442.276874 
L 710.759739 -441.969815 
L 711.934885 -441.648485 
L 713.110031 -441.312909 
L 714.285177 -440.96311 
L 715.460323 -440.599118 
L 716.635469 -440.220958 
L 717.810615 -439.828661 
L 718.985761 -439.422256 
L 720.160907 -439.001774 
L 721.336053 -438.567247 
L 722.511199 -438.118709 
L 723.686345 -437.656193 
L 724.861491 -437.179735 
L 726.036637 -436.689372 
L 727.211783 -436.18514 
L 728.386929 -435.667079 
L 729.562075 -435.135227 
L 730.737221 -434.589627 
L 731.912367 -434.030318 
L 733.087513 -433.457344 
L 734.26266 -432.870749 
L 735.437806 -432.270577 
L 736.612952 -431.656875 
L 737.788098 -431.029688 
L 738.963244 -430.389066 
L 740.13839 -429.735057 
L 741.313536 -429.06771 
L 742.488682 -428.387077 
L 743.663828 -427.693211 
L 744.838974 -426.986163 
L 746.01412 -426.265987 
L 747.189266 -425.53274 
L 748.364412 -424.786476 
L 749.539558 -424.027254 
L 750.714704 -423.25513 
L 751.88985 -422.470163 
L 753.064996 -421.672415 
L 754.240142 -420.861945 
L 755.415288 -420.038815 
L 756.590434 -419.203089 
L 757.76558 -418.35483 
L 758.940726 -417.494103 
L 760.115872 -416.620974 
L 761.291018 -415.735509 
L 762.466164 -414.837776 
L 763.64131 -413.927843 
L 764.816456 -413.005781 
L 765.991602 -412.071659 
L 767.166749 -411.125549 
L 768.341895 -410.167522 
L 769.517041 -409.197653 
L 770.692187 -408.216016 
L 771.867333 -407.222684 
L 773.042479 -406.217735 
L 774.217625 -405.201244 
L 775.392771 -404.17329 
L 776.567917 -403.13395 
L 777.743063 -402.083305 
L 778.918209 -401.021435 
L 780.093355 -399.94842 
L 781.268501 -398.864343 
L 782.443647 -397.769286 
L 783.618793 -396.663333 
L 784.793939 -395.546568 
L 785.969085 -394.419078 
L 787.144231 -393.280947 
L 788.319377 -392.132262 
L 789.494523 -390.973113 
L 790.669669 -389.803586 
L 791.844815 -388.623771 
L 793.019961 -387.433759 
L 794.195107 -386.233641 
L 795.370253 -385.023507 
L 796.545399 -383.80345 
L 797.720545 -382.573564 
L 798.895691 -381.333942 
L 800.070838 -380.08468 
L 801.245984 -378.825872 
L 802.42113 -377.557614 
L 803.596276 -376.280004 
L 804.771422 -374.993139 
L 805.946568 -373.697118 
L 807.121714 -372.392038 
L 808.29686 -371.078001 
L 809.472006 -369.755105 
L 810.647152 -368.423454 
L 811.822298 -367.083147 
L 812.997444 -365.734287 
L 814.17259 -364.376978 
L 815.347736 -363.011323 
L 816.522882 -361.637426 
L 817.698028 -360.255393 
L 818.873174 -358.865328 
L 820.04832 -357.467338 
L 821.223466 -356.06153 
L 822.398612 -354.64801 
L 823.573758 -353.226888 
L 824.748904 -351.798271 
L 825.92405 -350.362269 
L 827.099196 -348.918991 
L 828.274342 -347.468548 
L 829.449488 -346.01105 
L 830.624634 -344.546608 
L 831.799781 -343.075335 
L 832.974927 -341.597343 
L 834.150073 -340.112744 
L 835.325219 -338.621652 
L 836.500365 -337.124181 
L 837.675511 -335.620445 
L 838.850657 -334.110559 
L 840.025803 -332.594639 
L 841.200949 -331.072799 
L 842.376095 -329.545157 
L 843.551241 -328.011829 
L 844.726387 -326.472932 
L 845.901533 -324.928584 
L 847.076679 -323.378902 
L 848.251825 -321.824005 
L 849.426971 -320.264011 
L 850.602117 -318.699041 
L 851.777263 -317.129212 
L 852.952409 -315.554646 
L 854.127555 -313.975462 
L 855.302701 -312.391781 
L 856.477847 -310.803724 
L 857.652993 -309.211412 
L 858.828139 -307.614967 
L 860.003285 -306.014511 
L 861.178431 -304.410165 
L 862.353577 -302.802053 
L 863.528723 -301.190297 
L 864.70387 -299.575021 
L 865.879016 -297.956347 
L 867.054162 -296.334399 
L 868.229308 -294.709302 
L 869.404454 -293.081179 
L 870.5796 -291.450154 
L 871.754746 -289.816353 
L 872.929892 -288.179899 
L 874.105038 -286.540919 
L 875.280184 -284.899536 
L 876.45533 -283.255877 
L 877.630476 -281.610067 
L 878.805622 -279.962231 
L 879.980768 -278.312495 
L 881.155914 -276.660987 
L 882.33106 -275.00783 
L 883.506206 -273.353152 
L 884.681352 -271.69708 
L 885.856498 -270.039739 
L 887.031644 -268.381256 
L 888.20679 -266.721758 
L 889.381936 -265.061372 
L 890.557082 -263.400224 
L 891.732228 -261.738441 
L 892.907374 -260.07615 
L 894.08252 -258.413478 
L 895.257666 -256.750553 
L 896.432812 -255.0875 
L 896.432812 -255.0875 
L 896.432812 -255.0875 
L 895.257666 -255.0875 
L 894.08252 -255.0875 
L 892.907374 -255.0875 
L 891.732228 -255.0875 
L 890.557082 -255.0875 
L 889.381936 -255.0875 
L 888.20679 -255.0875 
L 887.031644 -255.0875 
L 885.856498 -255.0875 
L 884.681352 -255.0875 
L 883.506206 -255.0875 
L 882.33106 -255.0875 
L 881.155914 -255.0875 
L 879.980768 -255.0875 
L 878.805622 -255.0875 
L 877.630476 -255.0875 
L 876.45533 -255.0875 
L 875.280184 -255.0875 
L 874.105038 -255.0875 
L 872.929892 -255.0875 
L 871.754746 -255.0875 
L 870.5796 -255.0875 
L 869.404454 -255.0875 
L 868.229308 -255.0875 
L 867.054162 -255.0875 
L 865.879016 -255.0875 
L 864.70387 -255.0875 
L 863.528723 -255.0875 
L 862.353577 -255.0875 
L 861.178431 -255.0875 
L 860.003285 -255.0875 
L 858.828139 -255.0875 
L 857.652993 -255.0875 
L 856.477847 -255.0875 
L 855.302701 -255.0875 
L 854.127555 -255.0875 
L 852.952409 -255.0875 
L 851.777263 -255.0875 
L 850.602117 -255.0875 
L 849.426971 -255.0875 
L 848.251825 -255.0875 
L 847.076679 -255.0875 
L 845.901533 -255.0875 
L 844.726387 -255.0875 
L 843.551241 -255.0875 
L 842.376095 -255.0875 
L 841.200949 -255.0875 
L 840.025803 -255.0875 
L 838.850657 -255.0875 
L 837.675511 -255.0875 
L 836.500365 -255.0875 
L 835.325219 -255.0875 
L 834.150073 -255.0875 
L 832.974927 -255.0875 
L 831.799781 -255.0875 
L 830.624634 -255.0875 
L 829.449488 -255.0875 
L 828.274342 -255.0875 
L 827.099196 -255.0875 
L 825.92405 -255.0875 
L 824.748904 -255.0875 
L 823.573758 -255.0875 
L 822.398612 -255.0875 
L 821.223466 -255.0875 
L 820.04832 -255.0875 
L 818.873174 -255.0875 
L 817.698028 -255.0875 
L 816.522882 -255.0875 
L 815.347736 -255.0875 
L 814.17259 -255.0875 
L 812.997444 -255.0875 
L 811.822298 -255.0875 
L 810.647152 -255.0875 
L 809.472006 -255.0875 
L 808.29686 -255.0875 
L 807.121714 -255.0875 
L 805.946568 -255.0875 
L 804.771422 -255.0875 
L 803.596276 -255.0875 
L 802.42113 -255.0875 
L 801.245984 -255.0875 
L 800.070838 -255.0875 
L 798.895691 -255.0875 
L 797.720545 -255.0875 
L 796.545399 -255.0875 
L 795.370253 -255.0875 
L 794.195107 -255.0875 
L 793.019961 -255.0875 
L 791.844815 -255.0875 
L 790.669669 -255.0875 
L 789.494523 -255.0875 
L 788.319377 -255.0875 
L 787.144231 -255.0875 
L 785.969085 -255.0875 
L 784.793939 -255.0875 
L 783.618793 -255.0875 
L 782.443647 -255.0875 
L 781.268501 -255.0875 
L 780.093355 -255.0875 
L 778.918209 -255.0875 
L 777.743063 -255.0875 
L 776.567917 -255.0875 
L 775.392771 -255.0875 
L 774.217625 -255.0875 
L 773.042479 -255.0875 
L 771.867333 -255.0875 
L 770.692187 -255.0875 
L 769.517041 -255.0875 
L 768.341895 -255.0875 
L 767.166749 -255.0875 
L 765.991602 -255.0875 
L 764.816456 -255.0875 
L 763.64131 -255.0875 
L 762.466164 -255.0875 
L 761.291018 -255.0875 
L 760.115872 -255.0875 
L 758.940726 -255.0875 
L 757.76558 -255.0875 
L 756.590434 -255.0875 
L 755.415288 -255.0875 
L 754.240142 -255.0875 
L 753.064996 -255.0875 
L 751.88985 -255.0875 
L 750.714704 -255.0875 
L 749.539558 -255.0875 
L 748.364412 -255.0875 
L 747.189266 -255.0875 
L 746.01412 -255.0875 
L 744.838974 -255.0875 
L 743.663828 -255.0875 
L 742.488682 -255.0875 
L 741.313536 -255.0875 
L 740.13839 -255.0875 
L 738.963244 -255.0875 
L 737.788098 -255.0875 
L 736.612952 -255.0875 
L 735.437806 -255.0875 
L 734.26266 -255.0875 
L 733.087513 -255.0875 
L 731.912367 -255.0875 
L 730.737221 -255.0875 
L 729.562075 -255.0875 
L 728.386929 -255.0875 
L 727.211783 -255.0875 
L 726.036637 -255.0875 
L 724.861491 -255.0875 
L 723.686345 -255.0875 
L 722.511199 -255.0875 
L 721.336053 -255.0875 
L 720.160907 -255.0875 
L 718.985761 -255.0875 
L 717.810615 -255.0875 
L 716.635469 -255.0875 
L 715.460323 -255.0875 
L 714.285177 -255.0875 
L 713.110031 -255.0875 
L 711.934885 -255.0875 
L 710.759739 -255.0875 
L 709.584593 -255.0875 
L 708.409447 -255.0875 
L 707.234301 -255.0875 
L 706.059155 -255.0875 
L 704.884009 -255.0875 
L 703.708863 -255.0875 
L 702.533717 -255.0875 
L 701.35857 -255.0875 
L 700.183424 -255.0875 
L 699.008278 -255.0875 
L 697.833132 -255.0875 
L 696.657986 -255.0875 
L 695.48284 -255.0875 
L 694.307694 -255.0875 
L 693.132548 -255.0875 
L 691.957402 -255.0875 
L 690.782256 -255.0875 
L 689.60711 -255.0875 
L 688.431964 -255.0875 
L 687.256818 -255.0875 
L 686.081672 -255.0875 
L 684.906526 -255.0875 
L 683.73138 -255.0875 
L 682.556234 -255.0875 
L 681.381088 -255.0875 
L 680.205942 -255.0875 
L 679.030796 -255.0875 
L 677.85565 -255.0875 
L 676.680504 -255.0875 
L 675.505358 -255.0875 
L 674.330212 -255.0875 
L 673.155066 -255.0875 
L 671.97992 -255.0875 
L 670.804774 -255.0875 
L 669.629628 -255.0875 
L 668.454481 -255.0875 
L 667.279335 -255.0875 
L 666.104189 -255.0875 
L 664.929043 -255.0875 
L 663.753897 -255.0875 
L 662.578751 -255.0875 
L 661.403605 -255.0875 
L 660.228459 -255.0875 
L 659.053313 -255.0875 
L 657.878167 -255.0875 
L 656.703021 -255.0875 
L 655.527875 -255.0875 
L 654.352729 -255.0875 
L 653.177583 -255.0875 
L 652.002437 -255.0875 
L 650.827291 -255.0875 
L 649.652145 -255.0875 
L 648.476999 -255.0875 
L 647.301853 -255.0875 
L 646.126707 -255.0875 
L 644.951561 -255.0875 
L 643.776415 -255.0875 
L 642.601269 -255.0875 
L 641.426123 -255.0875 
L 640.250977 -255.0875 
L 639.075831 -255.0875 
L 637.900685 -255.0875 
L 636.725539 -255.0875 
L 635.550392 -255.0875 
L 634.375246 -255.0875 
L 633.2001 -255.0875 
L 632.024954 -255.0875 
L 630.849808 -255.0875 
L 629.674662 -255.0875 
L 628.499516 -255.0875 
L 627.32437 -255.0875 
L 626.149224 -255.0875 
L 624.974078 -255.0875 
L 623.798932 -255.0875 
L 622.623786 -255.0875 
L 621.44864 -255.0875 
L 620.273494 -255.0875 
L 619.098348 -255.0875 
L 617.923202 -255.0875 
L 616.748056 -255.0875 
L 615.57291 -255.0875 
L 614.397764 -255.0875 
L 613.222618 -255.0875 
L 612.047472 -255.0875 
L 610.872326 -255.0875 
L 609.69718 -255.0875 
L 608.522034 -255.0875 
L 607.346888 -255.0875 
L 606.171742 -255.0875 
L 604.996596 -255.0875 
L 603.821449 -255.0875 
L 602.646303 -255.0875 
L 601.471157 -255.0875 
L 600.296011 -255.0875 
L 599.120865 -255.0875 
L 597.945719 -255.0875 
L 596.770573 -255.0875 
L 595.595427 -255.0875 
L 594.420281 -255.0875 
L 593.245135 -255.0875 
L 592.069989 -255.0875 
L 590.894843 -255.0875 
L 589.719697 -255.0875 
L 588.544551 -255.0875 
L 587.369405 -255.0875 
L 586.194259 -255.0875 
L 585.019113 -255.0875 
L 583.843967 -255.0875 
L 582.668821 -255.0875 
L 581.493675 -255.0875 
L 580.318529 -255.0875 
L 579.143383 -255.0875 
L 577.968237 -255.0875 
L 576.793091 -255.0875 
L 575.617945 -255.0875 
L 574.442799 -255.0875 
L 573.267653 -255.0875 
L 572.092507 -255.0875 
L 570.91736 -255.0875 
L 569.742214 -255.0875 
L 568.567068 -255.0875 
L 567.391922 -255.0875 
L 566.216776 -255.0875 
L 565.04163 -255.0875 
L 563.866484 -255.0875 
L 562.691338 -255.0875 
L 561.516192 -255.0875 
L 560.341046 -255.0875 
L 559.1659 -255.0875 
L 557.990754 -255.0875 
L 556.815608 -255.0875 
L 555.640462 -255.0875 
L 554.465316 -255.0875 
L 553.29017 -255.0875 
L 552.115024 -255.0875 
L 550.939878 -255.0875 
L 549.764732 -255.0875 
L 548.589586 -255.0875 
L 547.41444 -255.0875 
L 546.239294 -255.0875 
L 545.064148 -255.0875 
L 543.889002 -255.0875 
L 542.713856 -255.0875 
L 541.53871 -255.0875 
L 540.363564 -255.0875 
L 539.188418 -255.0875 
L 538.013271 -255.0875 
L 536.838125 -255.0875 
L 535.662979 -255.0875 
L 534.487833 -255.0875 
L 533.312687 -255.0875 
L 532.137541 -255.0875 
L 530.962395 -255.0875 
L 529.787249 -255.0875 
L 528.612103 -255.0875 
L 527.436957 -255.0875 
L 526.261811 -255.0875 
L 525.086665 -255.0875 
L 523.911519 -255.0875 
L 522.736373 -255.0875 
L 521.561227 -255.0875 
L 520.386081 -255.0875 
L 519.210935 -255.0875 
L 518.035789 -255.0875 
L 516.860643 -255.0875 
L 515.685497 -255.0875 
L 514.510351 -255.0875 
L 513.335205 -255.0875 
L 512.160059 -255.0875 
L 510.984913 -255.0875 
L 509.809767 -255.0875 
L 508.634621 -255.0875 
L 507.459475 -255.0875 
L 506.284328 -255.0875 
L 505.109182 -255.0875 
L 503.934036 -255.0875 
L 502.75889 -255.0875 
L 501.583744 -255.0875 
L 500.408598 -255.0875 
L 499.233452 -255.0875 
L 498.058306 -255.0875 
L 496.88316 -255.0875 
L 495.708014 -255.0875 
L 494.532868 -255.0875 
L 493.357722 -255.0875 
L 492.182576 -255.0875 
L 491.00743 -255.0875 
L 489.832284 -255.0875 
L 488.657138 -255.0875 
L 487.481992 -255.0875 
L 486.306846 -255.0875 
L 485.1317 -255.0875 
L 483.956554 -255.0875 
L 482.781408 -255.0875 
L 481.606262 -255.0875 
L 480.431116 -255.0875 
L 479.25597 -255.0875 
L 478.080824 -255.0875 
L 476.905678 -255.0875 
L 475.730532 -255.0875 
L 474.555386 -255.0875 
L 473.380239 -255.0875 
L 472.205093 -255.0875 
L 471.029947 -255.0875 
L 469.854801 -255.0875 
L 468.679655 -255.0875 
L 467.504509 -255.0875 
L 466.329363 -255.0875 
L 465.154217 -255.0875 
L 463.979071 -255.0875 
L 462.803925 -255.0875 
L 461.628779 -255.0875 
L 460.453633 -255.0875 
L 459.278487 -255.0875 
L 458.103341 -255.0875 
L 456.928195 -255.0875 
L 455.753049 -255.0875 
L 454.577903 -255.0875 
L 453.402757 -255.0875 
L 452.227611 -255.0875 
L 451.052465 -255.0875 
L 449.877319 -255.0875 
L 448.702173 -255.0875 
L 447.527027 -255.0875 
L 446.351881 -255.0875 
L 445.176735 -255.0875 
L 444.001589 -255.0875 
L 442.826443 -255.0875 
L 441.651297 -255.0875 
L 440.47615 -255.0875 
L 439.301004 -255.0875 
L 438.125858 -255.0875 
L 436.950712 -255.0875 
L 435.775566 -255.0875 
L 434.60042 -255.0875 
L 433.425274 -255.0875 
L 432.250128 -255.0875 
L 431.074982 -255.0875 
L 429.899836 -255.0875 
L 428.72469 -255.0875 
L 427.549544 -255.0875 
L 426.374398 -255.0875 
L 425.199252 -255.0875 
L 424.024106 -255.0875 
L 422.84896 -255.0875 
L 421.673814 -255.0875 
L 420.498668 -255.0875 
L 419.323522 -255.0875 
L 418.148376 -255.0875 
L 416.97323 -255.0875 
L 415.798084 -255.0875 
L 414.622938 -255.0875 
L 413.447792 -255.0875 
L 412.272646 -255.0875 
L 411.0975 -255.0875 
L 409.922354 -255.0875 
L 408.747207 -255.0875 
L 407.572061 -255.0875 
L 406.396915 -255.0875 
L 405.221769 -255.0875 
L 404.046623 -255.0875 
L 402.871477 -255.0875 
L 401.696331 -255.0875 
L 400.521185 -255.0875 
L 399.346039 -255.0875 
L 398.170893 -255.0875 
L 396.995747 -255.0875 
L 395.820601 -255.0875 
L 394.645455 -255.0875 
L 393.470309 -255.0875 
L 392.295163 -255.0875 
L 391.120017 -255.0875 
L 389.944871 -255.0875 
L 388.769725 -255.0875 
L 387.594579 -255.0875 
L 386.419433 -255.0875 
L 385.244287 -255.0875 
L 384.069141 -255.0875 
L 382.893995 -255.0875 
L 381.718849 -255.0875 
L 380.543703 -255.0875 
L 379.368557 -255.0875 
L 378.193411 -255.0875 
L 377.018265 -255.0875 
L 375.843118 -255.0875 
L 374.667972 -255.0875 
L 373.492826 -255.0875 
L 372.31768 -255.0875 
L 371.142534 -255.0875 
L 369.967388 -255.0875 
L 368.792242 -255.0875 
L 367.617096 -255.0875 
L 366.44195 -255.0875 
L 365.266804 -255.0875 
L 364.091658 -255.0875 
L 362.916512 -255.0875 
L 361.741366 -255.0875 
L 360.56622 -255.0875 
L 359.391074 -255.0875 
L 358.215928 -255.0875 
L 357.040782 -255.0875 
L 355.865636 -255.0875 
L 354.69049 -255.0875 
L 353.515344 -255.0875 
L 352.340198 -255.0875 
L 351.165052 -255.0875 
L 349.989906 -255.0875 
L 348.81476 -255.0875 
L 347.639614 -255.0875 
L 346.464468 -255.0875 
L 345.289322 -255.0875 
L 344.114176 -255.0875 
L 342.939029 -255.0875 
L 341.763883 -255.0875 
L 340.588737 -255.0875 
L 339.413591 -255.0875 
L 338.238445 -255.0875 
L 337.063299 -255.0875 
L 335.888153 -255.0875 
L 334.713007 -255.0875 
L 333.537861 -255.0875 
L 332.362715 -255.0875 
L 331.187569 -255.0875 
L 330.012423 -255.0875 
L 328.837277 -255.0875 
L 327.662131 -255.0875 
L 326.486985 -255.0875 
L 325.311839 -255.0875 
L 324.136693 -255.0875 
L 322.961547 -255.0875 
L 321.786401 -255.0875 
L 320.611255 -255.0875 
L 319.436109 -255.0875 
L 318.260963 -255.0875 
L 317.085817 -255.0875 
L 315.910671 -255.0875 
L 314.735525 -255.0875 
L 313.560379 -255.0875 
L 312.385233 -255.0875 
L 311.210086 -255.0875 
L 310.03494 -255.0875 
L 308.859794 -255.0875 
L 307.684648 -255.0875 
L 306.509502 -255.0875 
L 305.334356 -255.0875 
L 304.15921 -255.0875 
L 302.984064 -255.0875 
L 301.808918 -255.0875 
L 300.633772 -255.0875 
L 299.458626 -255.0875 
L 298.28348 -255.0875 
L 297.108334 -255.0875 
L 295.933188 -255.0875 
L 294.758042 -255.0875 
L 293.582896 -255.0875 
L 292.40775 -255.0875 
L 291.232604 -255.0875 
L 290.057458 -255.0875 
L 288.882312 -255.0875 
L 287.707166 -255.0875 
L 286.53202 -255.0875 
L 285.356874 -255.0875 
L 284.181728 -255.0875 
L 283.006582 -255.0875 
L 281.831436 -255.0875 
L 280.65629 -255.0875 
L 279.481144 -255.0875 
L 278.305997 -255.0875 
L 277.130851 -255.0875 
L 275.955705 -255.0875 
L 274.780559 -255.0875 
L 273.605413 -255.0875 
L 272.430267 -255.0875 
L 271.255121 -255.0875 
L 270.079975 -255.0875 
L 268.904829 -255.0875 
L 267.729683 -255.0875 
L 266.554537 -255.0875 
L 265.379391 -255.0875 
L 264.204245 -255.0875 
L 263.029099 -255.0875 
L 261.853953 -255.0875 
L 260.678807 -255.0875 
L 259.503661 -255.0875 
L 258.328515 -255.0875 
L 257.153369 -255.0875 
L 255.978223 -255.0875 
L 254.803077 -255.0875 
L 253.627931 -255.0875 
L 252.452785 -255.0875 
L 251.277639 -255.0875 
L 250.102493 -255.0875 
L 248.927347 -255.0875 
L 247.752201 -255.0875 
L 246.577055 -255.0875 
L 245.401908 -255.0875 
L 244.226762 -255.0875 
L 243.051616 -255.0875 
L 241.87647 -255.0875 
L 240.701324 -255.0875 
L 239.526178 -255.0875 
L 238.351032 -255.0875 
L 237.175886 -255.0875 
L 236.00074 -255.0875 
L 234.825594 -255.0875 
L 233.650448 -255.0875 
L 232.475302 -255.0875 
L 231.300156 -255.0875 
L 230.12501 -255.0875 
L 228.949864 -255.0875 
L 227.774718 -255.0875 
L 226.599572 -255.0875 
L 225.424426 -255.0875 
L 224.24928 -255.0875 
L 223.074134 -255.0875 
L 221.898988 -255.0875 
L 220.723842 -255.0875 
L 219.548696 -255.0875 
L 218.37355 -255.0875 
L 217.198404 -255.0875 
L 216.023258 -255.0875 
L 214.848112 -255.0875 
L 213.672965 -255.0875 
L 212.497819 -255.0875 
L 211.322673 -255.0875 
L 210.147527 -255.0875 
L 208.972381 -255.0875 
L 207.797235 -255.0875 
L 206.622089 -255.0875 
L 205.446943 -255.0875 
L 204.271797 -255.0875 
L 203.096651 -255.0875 
L 201.921505 -255.0875 
L 200.746359 -255.0875 
L 199.571213 -255.0875 
L 198.396067 -255.0875 
L 197.220921 -255.0875 
L 196.045775 -255.0875 
L 194.870629 -255.0875 
L 193.695483 -255.0875 
L 192.520337 -255.0875 
L 191.345191 -255.0875 
L 190.170045 -255.0875 
L 188.994899 -255.0875 
L 187.819753 -255.0875 
L 186.644607 -255.0875 
L 185.469461 -255.0875 
L 184.294315 -255.0875 
L 183.119169 -255.0875 
L 181.944023 -255.0875 
L 180.768876 -255.0875 
L 179.59373 -255.0875 
L 178.418584 -255.0875 
L 177.243438 -255.0875 
L 176.068292 -255.0875 
L 174.893146 -255.0875 
L 173.718 -255.0875 
L 172.542854 -255.0875 
L 171.367708 -255.0875 
L 170.192562 -255.0875 
L 169.017416 -255.0875 
L 167.84227 -255.0875 
L 166.667124 -255.0875 
L 165.491978 -255.0875 
L 164.316832 -255.0875 
L 163.141686 -255.0875 
L 161.96654 -255.0875 
L 160.791394 -255.0875 
L 159.616248 -255.0875 
L 158.441102 -255.0875 
L 157.265956 -255.0875 
L 156.09081 -255.0875 
L 154.915664 -255.0875 
L 153.740518 -255.0875 
L 152.565372 -255.0875 
L 151.390226 -255.0875 
L 150.21508 -255.0875 
L 149.039934 -255.0875 
L 147.864787 -255.0875 
L 146.689641 -255.0875 
L 145.514495 -255.0875 
L 144.339349 -255.0875 
L 143.164203 -255.0875 
L 141.989057 -255.0875 
L 140.813911 -255.0875 
L 139.638765 -255.0875 
L 138.463619 -255.0875 
L 137.288473 -255.0875 
L 136.113327 -255.0875 
L 134.938181 -255.0875 
L 133.763035 -255.0875 
L 132.587889 -255.0875 
L 131.412743 -255.0875 
L 130.237597 -255.0875 
L 129.062451 -255.0875 
L 127.887305 -255.0875 
L 126.712159 -255.0875 
L 125.537013 -255.0875 
L 124.361867 -255.0875 
L 123.186721 -255.0875 
L 122.011575 -255.0875 
L 120.836429 -255.0875 
L 119.661283 -255.0875 
L 118.486137 -255.0875 
L 117.310991 -255.0875 
L 116.135844 -255.0875 
L 114.960698 -255.0875 
L 113.785552 -255.0875 
L 112.610406 -255.0875 
L 111.43526 -255.0875 
L 110.260114 -255.0875 
L 109.084968 -255.0875 
L 107.909822 -255.0875 
L 106.734676 -255.0875 
L 105.55953 -255.0875 
L 104.384384 -255.0875 
L 103.209238 -255.0875 
L 102.034092 -255.0875 
L 100.858946 -255.0875 
L 99.6838 -255.0875 
L 98.508654 -255.0875 
L 97.333508 -255.0875 
L 96.158362 -255.0875 
L 94.983216 -255.0875 
L 93.80807 -255.0875 
L 92.632924 -255.0875 
L 91.457778 -255.0875 
L 90.282632 -255.0875 
L 89.107486 -255.0875 
L 87.93234 -255.0875 
L 86.757194 -255.0875 
L 85.582048 -255.0875 
L 84.406902 -255.0875 
L 83.231755 -255.0875 
L 82.056609 -255.0875 
L 80.881463 -255.0875 
L 79.706317 -255.0875 
L 78.531171 -255.0875 
L 77.356025 -255.0875 
L 76.180879 -255.0875 
L 75.005733 -255.0875 
L 73.830587 -255.0875 
L 72.655441 -255.0875 
L 71.480295 -255.0875 
L 70.305149 -255.0875 
L 69.130003 -255.0875 
L 67.954857 -255.0875 
L 66.779711 -255.0875 
L 65.604565 -255.0875 
L 64.429419 -255.0875 
L 63.254273 -255.0875 
L 62.079127 -255.0875 
L 60.903981 -255.0875 
L 59.728835 -255.0875 
L 58.553689 -255.0875 
L 57.378543 -255.0875 
L 56.203397 -255.0875 
L 55.028251 -255.0875 
L 53.853105 -255.0875 
L 52.677959 -255.0875 
L 51.502813 -255.0875 
z
" style="stroke: #a3583c; stroke-opacity: 0.08"/>
    </defs>
    <g clip-path="url(#pa8ede24c17)">
     <use xlink:href="#mb1b2f1431f" x="0" y="499.624687" style="fill: #a3583c; fill-opacity: 0.08; stroke: #a3583c; stroke-opacity: 0.08"/>
    </g>
   </g>
   <g id="matplotlib.axis_1">
    <g id="xtick_1">
     <g id="line2d_1">
      <path d="M 51.502813 453.877187 
L 51.502813 35.197187 
" clip-path="url(#pa8ede24c17)" style="fill: none; stroke: #d9cbb6; stroke-opacity: 0.45; stroke-width: 0.8; stroke-linecap: square"/>
     </g>
     <g id="line2d_2">
      <defs>
       <path id="m1a78f25ea3" d="M 0 0 
L 0 3.5 
" style="stroke: #756a5d; stroke-width: 0.8"/>
      </defs>
      <g>
       <use xlink:href="#m1a78f25ea3" x="51.502813" y="453.877187" style="fill: #756a5d; stroke: #756a5d; stroke-width: 0.8"/>
      </g>
     </g>
     <g id="text_1">
      <text style="font-size: 11px; font-family: 'DejaVu Serif'; text-anchor: middle; fill: #756a5d" x="51.502813" y="469.235469" transform="rotate(-0 51.502813 469.235469)">0.0</text>
     </g>
    </g>
    <g id="xtick_2">
     <g id="line2d_3">
      <path d="M 220.488812 453.877187 
L 220.488812 35.197187 
" clip-path="url(#pa8ede24c17)" style="fill: none; stroke: #d9cbb6; stroke-opacity: 0.45; stroke-width: 0.8; stroke-linecap: square"/>
     </g>
     <g id="line2d_4">
      <g>
       <use xlink:href="#m1a78f25ea3" x="220.488812" y="453.877187" style="fill: #756a5d; stroke: #756a5d; stroke-width: 0.8"/>
      </g>
     </g>
     <g id="text_2">
      <text style="font-size: 11px; font-family: 'DejaVu Serif'; text-anchor: middle; fill: #756a5d" x="220.488812" y="469.235469" transform="rotate(-0 220.488812 469.235469)">0.2</text>
     </g>
    </g>
    <g id="xtick_3">
     <g id="line2d_5">
      <path d="M 389.474812 453.877187 
L 389.474812 35.197187 
" clip-path="url(#pa8ede24c17)" style="fill: none; stroke: #d9cbb6; stroke-opacity: 0.45; stroke-width: 0.8; stroke-linecap: square"/>
     </g>
     <g id="line2d_6">
      <g>
       <use xlink:href="#m1a78f25ea3" x="389.474812" y="453.877187" style="fill: #756a5d; stroke: #756a5d; stroke-width: 0.8"/>
      </g>
     </g>
     <g id="text_3">
      <text style="font-size: 11px; font-family: 'DejaVu Serif'; text-anchor: middle; fill: #756a5d" x="389.474812" y="469.235469" transform="rotate(-0 389.474812 469.235469)">0.4</text>
     </g>
    </g>
    <g id="xtick_4">
     <g id="line2d_7">
      <path d="M 558.460812 453.877187 
L 558.460812 35.197187 
" clip-path="url(#pa8ede24c17)" style="fill: none; stroke: #d9cbb6; stroke-opacity: 0.45; stroke-width: 0.8; stroke-linecap: square"/>
     </g>
     <g id="line2d_8">
      <g>
       <use xlink:href="#m1a78f25ea3" x="558.460812" y="453.877187" style="fill: #756a5d; stroke: #756a5d; stroke-width: 0.8"/>
      </g>
     </g>
     <g id="text_4">
      <text style="font-size: 11px; font-family: 'DejaVu Serif'; text-anchor: middle; fill: #756a5d" x="558.460812" y="469.235469" transform="rotate(-0 558.460812 469.235469)">0.6</text>
     </g>
    </g>
    <g id="xtick_5">
     <g id="line2d_9">
      <path d="M 727.446812 453.877187 
L 727.446812 35.197187 
" clip-path="url(#pa8ede24c17)" style="fill: none; stroke: #d9cbb6; stroke-opacity: 0.45; stroke-width: 0.8; stroke-linecap: square"/>
     </g>
     <g id="line2d_10">
      <g>
       <use xlink:href="#m1a78f25ea3" x="727.446812" y="453.877187" style="fill: #756a5d; stroke: #756a5d; stroke-width: 0.8"/>
      </g>
     </g>
     <g id="text_5">
      <text style="font-size: 11px; font-family: 'DejaVu Serif'; text-anchor: middle; fill: #756a5d" x="727.446812" y="469.235469" transform="rotate(-0 727.446812 469.235469)">0.8</text>
     </g>
    </g>
    <g id="xtick_6">
     <g id="line2d_11">
      <path d="M 896.432812 453.877187 
L 896.432812 35.197187 
" clip-path="url(#pa8ede24c17)" style="fill: none; stroke: #d9cbb6; stroke-opacity: 0.45; stroke-width: 0.8; stroke-linecap: square"/>
     </g>
     <g id="line2d_12">
      <g>
       <use xlink:href="#m1a78f25ea3" x="896.432812" y="453.877187" style="fill: #756a5d; stroke: #756a5d; stroke-width: 0.8"/>
      </g>
     </g>
     <g id="text_6">
      <text style="font-size: 11px; font-family: 'DejaVu Serif'; text-anchor: middle; fill: #756a5d" x="896.432812" y="469.235469" transform="rotate(-0 896.432812 469.235469)">1.0</text>
     </g>
    </g>
    <g id="text_7">
     <text style="font-size: 13px; font-family: 'DejaVu Serif'; text-anchor: middle; fill: #1f1b16" x="473.967812" y="485.401094" transform="rotate(-0 473.967812 485.401094)">Orbital phase</text>
    </g>
   </g>
   <g id="matplotlib.axis_2">
    <g id="ytick_1">
     <g id="line2d_13">
      <path d="M 51.502813 441.7571 
L 896.432812 441.7571 
" clip-path="url(#pa8ede24c17)" style="fill: none; stroke: #d9cbb6; stroke-opacity: 0.45; stroke-width: 0.8; stroke-linecap: square"/>
     </g>
     <g id="line2d_14">
      <defs>
       <path id="m552d7e4238" d="M 0 0 
L -3.5 0 
" style="stroke: #756a5d; stroke-width: 0.8"/>
      </defs>
      <g>
       <use xlink:href="#m552d7e4238" x="51.502813" y="441.7571" style="fill: #756a5d; stroke: #756a5d; stroke-width: 0.8"/>
      </g>
     </g>
     <g id="text_8">
      <text style="font-size: 11px; font-family: 'DejaVu Serif'; text-anchor: end; fill: #756a5d" x="44.502813" y="445.93624" transform="rotate(-0 44.502813 445.93624)">−4</text>
     </g>
    </g>
    <g id="ytick_2">
     <g id="line2d_15">
      <path d="M 51.502813 392.452122 
L 896.432812 392.452122 
" clip-path="url(#pa8ede24c17)" style="fill: none; stroke: #d9cbb6; stroke-opacity: 0.45; stroke-width: 0.8; stroke-linecap: square"/>
     </g>
     <g id="line2d_16">
      <g>
       <use xlink:href="#m552d7e4238" x="51.502813" y="392.452122" style="fill: #756a5d; stroke: #756a5d; stroke-width: 0.8"/>
      </g>
     </g>
     <g id="text_9">
      <text style="font-size: 11px; font-family: 'DejaVu Serif'; text-anchor: end; fill: #756a5d" x="44.502813" y="396.631262" transform="rotate(-0 44.502813 396.631262)">−3</text>
     </g>
    </g>
    <g id="ytick_3">
     <g id="line2d_17">
      <path d="M 51.502813 343.147144 
L 896.432812 343.147144 
" clip-path="url(#pa8ede24c17)" style="fill: none; stroke: #d9cbb6; stroke-opacity: 0.45; stroke-width: 0.8; stroke-linecap: square"/>
     </g>
     <g id="line2d_18">
      <g>
       <use xlink:href="#m552d7e4238" x="51.502813" y="343.147144" style="fill: #756a5d; stroke: #756a5d; stroke-width: 0.8"/>
      </g>
     </g>
     <g id="text_10">
      <text style="font-size: 11px; font-family: 'DejaVu Serif'; text-anchor: end; fill: #756a5d" x="44.502813" y="347.326284" transform="rotate(-0 44.502813 347.326284)">−2</text>
     </g>
    </g>
    <g id="ytick_4">
     <g id="line2d_19">
      <path d="M 51.502813 293.842166 
L 896.432812 293.842166 
" clip-path="url(#pa8ede24c17)" style="fill: none; stroke: #d9cbb6; stroke-opacity: 0.45; stroke-width: 0.8; stroke-linecap: square"/>
     </g>
     <g id="line2d_20">
      <g>
       <use xlink:href="#m552d7e4238" x="51.502813" y="293.842166" style="fill: #756a5d; stroke: #756a5d; stroke-width: 0.8"/>
      </g>
     </g>
     <g id="text_11">
      <text style="font-size: 11px; font-family: 'DejaVu Serif'; text-anchor: end; fill: #756a5d" x="44.502813" y="298.021306" transform="rotate(-0 44.502813 298.021306)">−1</text>
     </g>
    </g>
    <g id="ytick_5">
     <g id="line2d_21">
      <path d="M 51.502813 244.537187 
L 896.432812 244.537187 
" clip-path="url(#pa8ede24c17)" style="fill: none; stroke: #d9cbb6; stroke-opacity: 0.45; stroke-width: 0.8; stroke-linecap: square"/>
     </g>
     <g id="line2d_22">
      <g>
       <use xlink:href="#m552d7e4238" x="51.502813" y="244.537187" style="fill: #756a5d; stroke: #756a5d; stroke-width: 0.8"/>
      </g>
     </g>
     <g id="text_12">
      <text style="font-size: 11px; font-family: 'DejaVu Serif'; text-anchor: end; fill: #756a5d" x="44.502813" y="248.716328" transform="rotate(-0 44.502813 248.716328)">0</text>
     </g>
    </g>
    <g id="ytick_6">
     <g id="line2d_23">
      <path d="M 51.502813 195.232209 
L 896.432812 195.232209 
" clip-path="url(#pa8ede24c17)" style="fill: none; stroke: #d9cbb6; stroke-opacity: 0.45; stroke-width: 0.8; stroke-linecap: square"/>
     </g>
     <g id="line2d_24">
      <g>
       <use xlink:href="#m552d7e4238" x="51.502813" y="195.232209" style="fill: #756a5d; stroke: #756a5d; stroke-width: 0.8"/>
      </g>
     </g>
     <g id="text_13">
      <text style="font-size: 11px; font-family: 'DejaVu Serif'; text-anchor: end; fill: #756a5d" x="44.502813" y="199.41135" transform="rotate(-0 44.502813 199.41135)">1</text>
     </g>
    </g>
    <g id="ytick_7">
     <g id="line2d_25">
      <path d="M 51.502813 145.927231 
L 896.432812 145.927231 
" clip-path="url(#pa8ede24c17)" style="fill: none; stroke: #d9cbb6; stroke-opacity: 0.45; stroke-width: 0.8; stroke-linecap: square"/>
     </g>
     <g id="line2d_26">
      <g>
       <use xlink:href="#m552d7e4238" x="51.502813" y="145.927231" style="fill: #756a5d; stroke: #756a5d; stroke-width: 0.8"/>
      </g>
     </g>
     <g id="text_14">
      <text style="font-size: 11px; font-family: 'DejaVu Serif'; text-anchor: end; fill: #756a5d" x="44.502813" y="150.106372" transform="rotate(-0 44.502813 150.106372)">2</text>
     </g>
    </g>
    <g id="ytick_8">
     <g id="line2d_27">
      <path d="M 51.502813 96.622253 
L 896.432812 96.622253 
" clip-path="url(#pa8ede24c17)" style="fill: none; stroke: #d9cbb6; stroke-opacity: 0.45; stroke-width: 0.8; stroke-linecap: square"/>
     </g>
     <g id="line2d_28">
      <g>
       <use xlink:href="#m552d7e4238" x="51.502813" y="96.622253" style="fill: #756a5d; stroke: #756a5d; stroke-width: 0.8"/>
      </g>
     </g>
     <g id="text_15">
      <text style="font-size: 11px; font-family: 'DejaVu Serif'; text-anchor: end; fill: #756a5d" x="44.502813" y="100.801394" transform="rotate(-0 44.502813 100.801394)">3</text>
     </g>
    </g>
    <g id="ytick_9">
     <g id="line2d_29">
      <path d="M 51.502813 47.317275 
L 896.432812 47.317275 
" clip-path="url(#pa8ede24c17)" style="fill: none; stroke: #d9cbb6; stroke-opacity: 0.45; stroke-width: 0.8; stroke-linecap: square"/>
     </g>
     <g id="line2d_30">
      <g>
       <use xlink:href="#m552d7e4238" x="51.502813" y="47.317275" style="fill: #756a5d; stroke: #756a5d; stroke-width: 0.8"/>
      </g>
     </g>
     <g id="text_16">
      <text style="font-size: 11px; font-family: 'DejaVu Serif'; text-anchor: end; fill: #756a5d" x="44.502813" y="51.496416" transform="rotate(-0 44.502813 51.496416)">4</text>
     </g>
    </g>
    <g id="text_17">
     <text style="font-size: 13px; font-family: 'DejaVu Serif'; text-anchor: middle; fill: #1f1b16" x="21.397969" y="244.537187" transform="rotate(-90 21.397969 244.537187)">Stellar radial velocity (m/s)</text>
    </g>
   </g>
   <g id="line2d_31">
    <path d="M 51.502813 244.537187 
L 75.005733 277.629587 
L 87.93234 295.464198 
L 98.508654 309.713699 
L 107.909822 322.044326 
L 117.310991 333.996296 
L 125.537013 344.097698 
L 133.763035 353.826666 
L 140.813911 361.841726 
L 147.864787 369.534367 
L 154.915664 376.883447 
L 161.96654 383.868765 
L 167.84227 389.398107 
L 173.718 394.650931 
L 179.59373 399.61721 
L 185.469461 404.287463 
L 191.345191 408.652777 
L 197.220921 412.704817 
L 203.096651 416.43585 
L 207.797235 419.184744 
L 212.497819 421.720265 
L 217.198404 424.039314 
L 221.898988 426.139059 
L 226.599572 428.016935 
L 231.300156 429.670646 
L 236.00074 431.098173 
L 240.701324 432.297771 
L 245.401908 433.267976 
L 250.102493 434.007601 
L 254.803077 434.515743 
L 259.503661 434.791781 
L 264.204245 434.835379 
L 268.904829 434.646481 
L 273.605413 434.225321 
L 278.305997 433.572411 
L 283.006582 432.68855 
L 287.707166 431.574818 
L 292.40775 430.232574 
L 297.108334 428.66346 
L 301.808918 426.869392 
L 306.509502 424.852562 
L 311.210086 422.615434 
L 315.910671 420.160741 
L 320.611255 417.491482 
L 325.311839 414.610919 
L 331.187569 410.718454 
L 337.063299 406.508772 
L 342.939029 401.98991 
L 348.81476 397.170494 
L 354.69049 392.059723 
L 360.56622 386.667353 
L 366.44195 381.003678 
L 373.492826 373.8644 
L 380.543703 366.36966 
L 387.594579 358.540055 
L 394.645455 350.397107 
L 402.871477 340.530874 
L 411.0975 330.305549 
L 420.498668 318.228884 
L 429.899836 305.792201 
L 440.47615 291.44631 
L 453.402757 273.527671 
L 472.205093 247.031727 
L 498.058306 210.626238 
L 510.984913 192.809455 
L 521.561227 178.58005 
L 530.962395 166.271342 
L 540.363564 154.344997 
L 548.589586 144.26896 
L 556.815608 134.568005 
L 563.866484 126.578984 
L 570.91736 118.914177 
L 577.968237 111.594653 
L 585.019113 104.640529 
L 590.894843 99.138372 
L 596.770573 93.913761 
L 602.646303 88.976667 
L 608.522034 84.336516 
L 614.397764 80.002165 
L 620.273494 75.981887 
L 626.149224 72.283357 
L 630.849808 69.560956 
L 635.550392 67.05233 
L 640.250977 64.760544 
L 644.951561 62.688398 
L 649.652145 60.838423 
L 654.352729 59.21288 
L 659.053313 57.813755 
L 663.753897 56.642756 
L 668.454481 55.701315 
L 673.155066 54.990582 
L 677.85565 54.511424 
L 682.556234 54.264429 
L 687.256818 54.249896 
L 691.957402 54.467845 
L 696.657986 54.918008 
L 701.35857 55.599836 
L 706.059155 56.512496 
L 710.759739 57.654872 
L 715.460323 59.02557 
L 720.160907 60.622914 
L 724.861491 62.444952 
L 729.562075 64.48946 
L 734.26266 66.753939 
L 738.963244 69.235622 
L 743.663828 71.931477 
L 748.364412 74.838211 
L 754.240142 78.762743 
L 760.115872 83.003714 
L 765.991602 87.553029 
L 771.867333 92.402003 
L 777.743063 97.541382 
L 783.618793 102.961355 
L 789.494523 108.651575 
L 796.545399 115.821237 
L 803.596276 123.344683 
L 810.647152 131.201234 
L 817.698028 139.369295 
L 825.92405 149.262418 
L 834.150073 159.511944 
L 843.551241 171.612858 
L 852.952409 184.070042 
L 863.528723 198.43439 
L 876.45533 216.368811 
L 896.432812 244.537187 
L 896.432812 244.537187 
" clip-path="url(#pa8ede24c17)" style="fill: none; stroke: #a3583c; stroke-width: 2.6; stroke-linecap: square"/>
   </g>
   <g id="line2d_32">
    <path d="M 51.502813 244.537187 
L 896.432812 244.537187 
" clip-path="url(#pa8ede24c17)" style="fill: none; stroke-dasharray: 5.365,2.32; stroke-dashoffset: 0; stroke: #9b9184; stroke-opacity: 0.65; stroke-width: 1.45"/>
   </g>
   <g id="patch_3">
    <path d="M 51.502813 453.877187 
L 51.502813 35.197187 
" style="fill: none; stroke: #b9a98f; stroke-width: 0.8; stroke-linejoin: miter; stroke-linecap: square"/>
   </g>
   <g id="patch_4">
    <path d="M 896.432812 453.877187 
L 896.432812 35.197187 
" style="fill: none; stroke: #b9a98f; stroke-width: 0.8; stroke-linejoin: miter; stroke-linecap: square"/>
   </g>
   <g id="patch_5">
    <path d="M 51.502813 453.877187 
L 896.432812 453.877187 
" style="fill: none; stroke: #b9a98f; stroke-width: 0.8; stroke-linejoin: miter; stroke-linecap: square"/>
   </g>
   <g id="patch_6">
    <path d="M 51.502813 35.197187 
L 896.432812 35.197187 
" style="fill: none; stroke: #b9a98f; stroke-width: 0.8; stroke-linejoin: miter; stroke-linecap: square"/>
   </g>
   <g id="text_18">
    <g id="patch_7">
     <path d="M 64.176763 72.760563 
L 351.491763 72.760563 
Q 354.571763 72.760563 354.571763 69.680563 
L 354.571763 56.131188 
Q 354.571763 53.051188 351.491763 53.051188 
L 64.176763 53.051188 
Q 61.096763 53.051188 61.096763 56.131188 
L 61.096763 69.680563 
Q 61.096763 72.760563 64.176763 72.760563 
z
" style="fill: #fffaf0; opacity: 0.88"/>
    </g>
    <text style="font-size: 14px; font-family: 'DejaVu Serif'; text-anchor: start; fill: #756a5d" x="64.176763" y="66.769" transform="rotate(-0 64.176763 66.769)">K ≈ 3.86 m s^-1 · P ≈ 24.74 d · e = 0.00</text>
   </g>
   <g id="text_19">
    <text style="font-size: 10.5px; font-family: 'DejaVu Serif'; text-anchor: end; fill: #756a5d" x="887.983512" y="443.170619" transform="rotate(-0 887.983512 443.170619)">single-planet Keplerian model</text>
   </g>
   <g id="text_20">
    <text style="font-weight: 700; font-size: 18px; font-family: 'DejaVu Serif'; text-anchor: start; fill: #1f1b16" x="51.502813" y="25.197187" transform="rotate(-0 51.502813 25.197187)">Keplerian RV model — LHS 1140 b</text>
   </g>
  </g>
 </g>
 <defs>
  <clipPath id="pa8ede24c17">
   <rect x="51.502813" y="35.197187" width="844.93" height="418.68"/>
  </clipPath>
 </defs>
</svg>
