<?xml version="1.0" encoding="utf-8" standalone="no"?>
<!DOCTYPE svg PUBLIC "-//W3C//DTD SVG 1.1//EN"
  "http://www.w3.org/Graphics/SVG/1.1/DTD/svg11.dtd">
<svg xmlns:xlink="http://www.w3.org/1999/xlink" width="915.325156pt" height="499.235156pt" viewBox="0 0 915.325156 499.235156" xmlns="http://www.w3.org/2000/svg" version="1.1">
 <metadata>
  <rdf:RDF xmlns:dc="http://purl.org/dc/elements/1.1/" xmlns:cc="http://creativecommons.org/ns#" xmlns:rdf="http://www.w3.org/1999/02/22-rdf-syntax-ns#">
   <cc:Work>
    <dc:type rdf:resource="http://purl.org/dc/dcmitype/StillImage"/>
    <dc:date>2026-08-17T05:00:32.180154</dc:date>
    <dc:format>image/svg+xml</dc:format>
    <dc:creator>
     <cc:Agent>
      <dc:title>Matplotlib v3.11.1, https://matplotlib.org/</dc:title>
     </cc:Agent>
    </dc:creator>
   </cc:Work>
  </rdf:RDF>
 </metadata>
 <defs>
  <style type="text/css">*{stroke-linejoin: round; stroke-linecap: butt}</style>
 </defs>
 <g id="figure_1">
  <g id="patch_1">
   <path d="M 0 499.235156 
L 915.325156 499.235156 
L 915.325156 0 
L 0 0 
z
" style="fill: #fbfeff"/>
  </g>
  <g id="axes_1">
   <g id="patch_2">
    <path d="M 88.008203 452.714141 
L 903.805156 452.714141 
L 903.805156 35.197188 
L 88.008203 35.197188 
z
" style="fill: #fbfeff"/>
   </g>
   <g id="patch_3">
    <path d="M 355.252033 452.714141 
L 636.561327 452.714141 
L 636.561327 35.197188 
L 355.252033 35.197188 
z
" clip-path="url(#p5c6de866f2)" style="fill: #0e7f91; opacity: 0.075; stroke: #0e7f91; stroke-linejoin: miter"/>
   </g>
   <g id="matplotlib.axis_1">
    <g id="xtick_1">
     <g id="line2d_1">
      <path d="M 94.611727 452.714141 
L 94.611727 35.197188 
" clip-path="url(#p5c6de866f2)" style="fill: none; stroke: #c9dde1; stroke-opacity: 0.45; stroke-width: 0.8; stroke-linecap: square"/>
     </g>
     <g id="line2d_2">
      <defs>
       <path id="mfd38451fb6" d="M 0 0 
L 0 3.5 
" style="stroke: #60777f; stroke-width: 0.8"/>
      </defs>
      <g>
       <use xlink:href="#mfd38451fb6" x="94.611727" y="452.714141" style="fill: #60777f; stroke: #60777f; stroke-width: 0.8"/>
      </g>
     </g>
     <g id="text_1">
      <text style="font-size: 11px; font-family: 'DejaVu Sans'; text-anchor: middle; fill: #60777f" x="94.611727" y="468.071563" transform="rotate(-0 94.611727 468.071563)">−3</text>
     </g>
    </g>
    <g id="xtick_2">
     <g id="line2d_3">
      <path d="M 228.376711 452.714141 
L 228.376711 35.197188 
" clip-path="url(#p5c6de866f2)" style="fill: none; stroke: #c9dde1; stroke-opacity: 0.45; stroke-width: 0.8; stroke-linecap: square"/>
     </g>
     <g id="line2d_4">
      <g>
       <use xlink:href="#mfd38451fb6" x="228.376711" y="452.714141" style="fill: #60777f; stroke: #60777f; stroke-width: 0.8"/>
      </g>
     </g>
     <g id="text_2">
      <text style="font-size: 11px; font-family: 'DejaVu Sans'; text-anchor: middle; fill: #60777f" x="228.376711" y="468.071563" transform="rotate(-0 228.376711 468.071563)">−2</text>
     </g>
    </g>
    <g id="xtick_3">
     <g id="line2d_5">
      <path d="M 362.141696 452.714141 
L 362.141696 35.197188 
" clip-path="url(#p5c6de866f2)" style="fill: none; stroke: #c9dde1; stroke-opacity: 0.45; stroke-width: 0.8; stroke-linecap: square"/>
     </g>
     <g id="line2d_6">
      <g>
       <use xlink:href="#mfd38451fb6" x="362.141696" y="452.714141" style="fill: #60777f; stroke: #60777f; stroke-width: 0.8"/>
      </g>
     </g>
     <g id="text_3">
      <text style="font-size: 11px; font-family: 'DejaVu Sans'; text-anchor: middle; fill: #60777f" x="362.141696" y="468.071563" transform="rotate(-0 362.141696 468.071563)">−1</text>
     </g>
    </g>
    <g id="xtick_4">
     <g id="line2d_7">
      <path d="M 495.90668 452.714141 
L 495.90668 35.197188 
" clip-path="url(#p5c6de866f2)" style="fill: none; stroke: #c9dde1; stroke-opacity: 0.45; stroke-width: 0.8; stroke-linecap: square"/>
     </g>
     <g id="line2d_8">
      <g>
       <use xlink:href="#mfd38451fb6" x="495.90668" y="452.714141" style="fill: #60777f; stroke: #60777f; stroke-width: 0.8"/>
      </g>
     </g>
     <g id="text_4">
      <text style="font-size: 11px; font-family: 'DejaVu Sans'; text-anchor: middle; fill: #60777f" x="495.90668" y="468.071563" transform="rotate(-0 495.90668 468.071563)">0</text>
     </g>
    </g>
    <g id="xtick_5">
     <g id="line2d_9">
      <path d="M 629.671664 452.714141 
L 629.671664 35.197188 
" clip-path="url(#p5c6de866f2)" style="fill: none; stroke: #c9dde1; stroke-opacity: 0.45; stroke-width: 0.8; stroke-linecap: square"/>
     </g>
     <g id="line2d_10">
      <g>
       <use xlink:href="#mfd38451fb6" x="629.671664" y="452.714141" style="fill: #60777f; stroke: #60777f; stroke-width: 0.8"/>
      </g>
     </g>
     <g id="text_5">
      <text style="font-size: 11px; font-family: 'DejaVu Sans'; text-anchor: middle; fill: #60777f" x="629.671664" y="468.071563" transform="rotate(-0 629.671664 468.071563)">1</text>
     </g>
    </g>
    <g id="xtick_6">
     <g id="line2d_11">
      <path d="M 763.436648 452.714141 
L 763.436648 35.197188 
" clip-path="url(#p5c6de866f2)" style="fill: none; stroke: #c9dde1; stroke-opacity: 0.45; stroke-width: 0.8; stroke-linecap: square"/>
     </g>
     <g id="line2d_12">
      <g>
       <use xlink:href="#mfd38451fb6" x="763.436648" y="452.714141" style="fill: #60777f; stroke: #60777f; stroke-width: 0.8"/>
      </g>
     </g>
     <g id="text_6">
      <text style="font-size: 11px; font-family: 'DejaVu Sans'; text-anchor: middle; fill: #60777f" x="763.436648" y="468.071563" transform="rotate(-0 763.436648 468.071563)">2</text>
     </g>
    </g>
    <g id="xtick_7">
     <g id="line2d_13">
      <path d="M 897.201632 452.714141 
L 897.201632 35.197188 
" clip-path="url(#p5c6de866f2)" style="fill: none; stroke: #c9dde1; stroke-opacity: 0.45; stroke-width: 0.8; stroke-linecap: square"/>
     </g>
     <g id="line2d_14">
      <g>
       <use xlink:href="#mfd38451fb6" x="897.201632" y="452.714141" style="fill: #60777f; stroke: #60777f; stroke-width: 0.8"/>
      </g>
     </g>
     <g id="text_7">
      <text style="font-size: 11px; font-family: 'DejaVu Sans'; text-anchor: middle; fill: #60777f" x="897.201632" y="468.071563" transform="rotate(-0 897.201632 468.071563)">3</text>
     </g>
    </g>
    <g id="text_8">
     <text style="font-size: 13px; font-family: 'DejaVu Sans'; text-anchor: middle; fill: #10242b" x="495.90668" y="484.592109" transform="rotate(-0 495.90668 484.592109)">Time from mid-transit (hours)</text>
    </g>
   </g>
   <g id="matplotlib.axis_2">
    <g id="ytick_1">
     <g id="line2d_15">
      <path d="M 88.008203 378.39391 
L 903.805156 378.39391 
" clip-path="url(#p5c6de866f2)" style="fill: none; stroke: #c9dde1; stroke-opacity: 0.45; stroke-width: 0.8; stroke-linecap: square"/>
     </g>
     <g id="line2d_16">
      <defs>
       <path id="mcfd82bf894" d="M 0 0 
L -3.5 0 
" style="stroke: #60777f; stroke-width: 0.8"/>
      </defs>
      <g>
       <use xlink:href="#mcfd82bf894" x="88.008203" y="378.39391" style="fill: #60777f; stroke: #60777f; stroke-width: 0.8"/>
      </g>
     </g>
     <g id="text_9">
      <text style="font-size: 11px; font-family: 'DejaVu Sans'; text-anchor: end; fill: #60777f" x="81.008203" y="382.572621" transform="rotate(-0 81.008203 382.572621)">0.994000</text>
     </g>
    </g>
    <g id="ytick_2">
     <g id="line2d_17">
      <path d="M 88.008203 296.956867 
L 903.805156 296.956867 
" clip-path="url(#p5c6de866f2)" style="fill: none; stroke: #c9dde1; stroke-opacity: 0.45; stroke-width: 0.8; stroke-linecap: square"/>
     </g>
     <g id="line2d_18">
      <g>
       <use xlink:href="#mcfd82bf894" x="88.008203" y="296.956867" style="fill: #60777f; stroke: #60777f; stroke-width: 0.8"/>
      </g>
     </g>
     <g id="text_10">
      <text style="font-size: 11px; font-family: 'DejaVu Sans'; text-anchor: end; fill: #60777f" x="81.008203" y="301.135578" transform="rotate(-0 81.008203 301.135578)">0.996000</text>
     </g>
    </g>
    <g id="ytick_3">
     <g id="line2d_19">
      <path d="M 88.008203 215.519824 
L 903.805156 215.519824 
" clip-path="url(#p5c6de866f2)" style="fill: none; stroke: #c9dde1; stroke-opacity: 0.45; stroke-width: 0.8; stroke-linecap: square"/>
     </g>
     <g id="line2d_20">
      <g>
       <use xlink:href="#mcfd82bf894" x="88.008203" y="215.519824" style="fill: #60777f; stroke: #60777f; stroke-width: 0.8"/>
      </g>
     </g>
     <g id="text_11">
      <text style="font-size: 11px; font-family: 'DejaVu Sans'; text-anchor: end; fill: #60777f" x="81.008203" y="219.698535" transform="rotate(-0 81.008203 219.698535)">0.998000</text>
     </g>
    </g>
    <g id="ytick_4">
     <g id="line2d_21">
      <path d="M 88.008203 134.082782 
L 903.805156 134.082782 
" clip-path="url(#p5c6de866f2)" style="fill: none; stroke: #c9dde1; stroke-opacity: 0.45; stroke-width: 0.8; stroke-linecap: square"/>
     </g>
     <g id="line2d_22">
      <g>
       <use xlink:href="#mcfd82bf894" x="88.008203" y="134.082782" style="fill: #60777f; stroke: #60777f; stroke-width: 0.8"/>
      </g>
     </g>
     <g id="text_12">
      <text style="font-size: 11px; font-family: 'DejaVu Sans'; text-anchor: end; fill: #60777f" x="81.008203" y="138.261493" transform="rotate(-0 81.008203 138.261493)">1.000000</text>
     </g>
    </g>
    <g id="ytick_5">
     <g id="line2d_23">
      <path d="M 88.008203 52.645739 
L 903.805156 52.645739 
" clip-path="url(#p5c6de866f2)" style="fill: none; stroke: #c9dde1; stroke-opacity: 0.45; stroke-width: 0.8; stroke-linecap: square"/>
     </g>
     <g id="line2d_24">
      <g>
       <use xlink:href="#mcfd82bf894" x="88.008203" y="52.645739" style="fill: #60777f; stroke: #60777f; stroke-width: 0.8"/>
      </g>
     </g>
     <g id="text_13">
      <text style="font-size: 11px; font-family: 'DejaVu Sans'; text-anchor: end; fill: #60777f" x="81.008203" y="56.82445" transform="rotate(-0 81.008203 56.82445)">1.002000</text>
     </g>
    </g>
    <g id="text_14">
     <text style="font-size: 13px; font-family: 'DejaVu Sans'; text-anchor: middle; fill: #10242b" x="21.397969" y="243.955664" transform="rotate(-90 21.397969 243.955664)">Relative flux</text>
    </g>
   </g>
   <g id="line2d_25">
    <path d="M 88.008203 134.082782 
L 354.798308 134.082782 
L 355.705757 134.656243 
L 356.613207 137.02602 
L 357.520656 140.335206 
L 358.428105 144.303644 
L 360.243004 153.660066 
L 362.057903 164.324335 
L 364.780251 181.689279 
L 368.410048 234.98591 
L 371.132396 270.227177 
L 372.947295 291.280608 
L 373.854744 300.476972 
L 374.762193 308.24799 
L 375.669643 313.255949 
L 377.484541 318.458099 
L 379.29944 323.120493 
L 381.114339 327.345271 
L 383.836687 333.017616 
L 386.559035 338.043207 
L 389.281383 342.543733 
L 392.003731 346.607318 
L 394.726079 350.300239 
L 397.448427 353.673842 
L 400.170775 356.768877 
L 403.800572 360.518398 
L 407.430369 363.893302 
L 411.060167 366.943034 
L 414.689964 369.7074 
L 418.319761 372.218977 
L 421.949559 374.504794 
L 426.486805 377.078807 
L 431.024052 379.372137 
L 435.561299 381.415124 
L 440.098546 383.232972 
L 445.543242 385.146668 
L 450.987938 386.79657 
L 456.432634 388.207324 
L 461.87733 389.399042 
L 467.322026 390.388059 
L 473.674171 391.303069 
L 480.026316 391.976009 
L 486.378462 392.41843 
L 492.730607 392.637806 
L 499.082752 392.637806 
L 505.434898 392.41843 
L 511.787043 391.976009 
L 518.139188 391.303069 
L 524.491334 390.388059 
L 529.93603 389.399042 
L 535.380726 388.207324 
L 540.825422 386.79657 
L 546.270118 385.146668 
L 551.714814 383.232972 
L 556.252061 381.415124 
L 560.789307 379.372137 
L 565.326554 377.078807 
L 569.863801 374.504794 
L 573.493598 372.218977 
L 577.123395 369.7074 
L 580.753193 366.943034 
L 584.38299 363.893302 
L 588.012787 360.518398 
L 591.642585 356.768877 
L 594.364933 353.673842 
L 597.087281 350.300239 
L 599.809629 346.607318 
L 602.531977 342.543733 
L 605.254325 338.043207 
L 607.976673 333.017616 
L 610.699021 327.345271 
L 612.513919 323.120493 
L 614.328818 318.458099 
L 616.143717 313.255949 
L 617.051166 308.24799 
L 617.958615 300.476972 
L 619.773514 281.106808 
L 621.588413 258.831499 
L 624.310761 222.631215 
L 625.21821 209.811384 
L 627.033109 181.689279 
L 629.755457 164.324335 
L 631.570355 153.660066 
L 633.385254 144.303644 
L 634.292703 140.335206 
L 635.200153 137.02602 
L 636.107602 134.656243 
L 637.015051 134.082782 
L 903.805156 134.082782 
L 903.805156 134.082782 
" clip-path="url(#p5c6de866f2)" style="fill: none; stroke: #0e7f91; stroke-width: 2.6; stroke-linecap: square"/>
   </g>
   <g id="line2d_26">
    <path d="M 88.008203 134.082782 
L 903.805156 134.082782 
" clip-path="url(#p5c6de866f2)" style="fill: none; stroke-dasharray: 5.365,2.32; stroke-dashoffset: 0; stroke: #8ca0a6; stroke-opacity: 0.55; stroke-width: 1.45"/>
   </g>
   <g id="patch_4">
    <path d="M 88.008203 452.714141 
L 88.008203 35.197187 
" style="fill: none; stroke: #8bbac3; stroke-width: 0.8; stroke-linejoin: miter; stroke-linecap: square"/>
   </g>
   <g id="patch_5">
    <path d="M 903.805156 452.714141 
L 903.805156 35.197187 
" style="fill: none; stroke: #8bbac3; stroke-width: 0.8; stroke-linejoin: miter; stroke-linecap: square"/>
   </g>
   <g id="patch_6">
    <path d="M 88.008203 452.714141 
L 903.805156 452.714141 
" style="fill: none; stroke: #8bbac3; stroke-width: 0.8; stroke-linejoin: miter; stroke-linecap: square"/>
   </g>
   <g id="patch_7">
    <path d="M 88.008203 35.197188 
L 903.805156 35.197188 
" style="fill: none; stroke: #8bbac3; stroke-width: 0.8; stroke-linejoin: miter; stroke-linecap: square"/>
   </g>
   <g id="text_15">
    <g id="patch_8">
     <path d="M 100.245157 73.154129 
L 460.981407 73.154129 
Q 464.061407 73.154129 464.061407 70.074129 
L 464.061407 56.073035 
Q 464.061407 52.993035 460.981407 52.993035 
L 100.245157 52.993035 
Q 97.165157 52.993035 97.165157 56.073035 
L 97.165157 70.074129 
Q 97.165157 73.154129 100.245157 73.154129 
z
" style="fill: #fbfeff; opacity: 0.88"/>
    </g>
    <text style="font-size: 14px; font-family: 'DejaVu Sans'; text-anchor: start; fill: #60777f" x="100.245157" y="66.710848" transform="rotate(-0 100.245157 66.710848)">Rp/R* = 0.0735 · depth ≈ 5397 ppm · T14 ≈ 2.10 h</text>
   </g>
   <g id="text_16">
    <text style="font-size: 10.5px; font-family: 'DejaVu Sans'; text-anchor: end; fill: #60777f" x="895.647187" y="441.841341" transform="rotate(-0 895.647187 441.841341)">quadratic limb-darkened geometry</text>
   </g>
   <g id="text_17">
    <text style="font-weight: 700; font-size: 18px; font-family: 'DejaVu Sans'; text-anchor: start; fill: #10242b" x="88.008203" y="25.197188" transform="rotate(-0 88.008203 25.197188)">Transit light-curve model — LHS 1140 b</text>
   </g>
  </g>
 </g>
 <defs>
  <clipPath id="p5c6de866f2">
   <rect x="88.008203" y="35.197188" width="815.796953" height="417.516953"/>
  </clipPath>
 </defs>
</svg>
