<?xml version="1.0" encoding="utf-8" standalone="no"?>
<!DOCTYPE svg PUBLIC "-//W3C//DTD SVG 1.1//EN"
  "http://www.w3.org/Graphics/SVG/1.1/DTD/svg11.dtd">
<svg xmlns:xlink="http://www.w3.org/1999/xlink" width="916.678281pt" height="499.624687pt" viewBox="0 0 916.678281 499.624687" xmlns="http://www.w3.org/2000/svg" version="1.1">
 <metadata>
  <rdf:RDF xmlns:dc="http://purl.org/dc/elements/1.1/" xmlns:cc="http://creativecommons.org/ns#" xmlns:rdf="http://www.w3.org/1999/02/22-rdf-syntax-ns#">
   <cc:Work>
    <dc:type rdf:resource="http://purl.org/dc/dcmitype/StillImage"/>
    <dc:date>2026-05-11T11:57:59.898761</dc:date>
    <dc:format>image/svg+xml</dc:format>
    <dc:creator>
     <cc:Agent>
      <dc:title>Matplotlib v3.10.9, https://matplotlib.org/</dc:title>
     </cc:Agent>
    </dc:creator>
   </cc:Work>
  </rdf:RDF>
 </metadata>
 <defs>
  <style type="text/css">*{stroke-linejoin: round; stroke-linecap: butt}</style>
 </defs>
 <g id="figure_1">
  <g id="patch_1">
   <path d="M 0 499.624687 
L 916.678281 499.624687 
L 916.678281 0 
L 0 0 
z
" style="fill: #fffaf0"/>
  </g>
  <g id="axes_1">
   <g id="patch_2">
    <path d="M 58.501563 453.877187 
L 896.411562 453.877187 
L 896.411562 35.197187 
L 58.501563 35.197187 
z
" style="fill: #fffaf0"/>
   </g>
   <g id="FillBetweenPolyCollection_1">
    <defs>
     <path id="m6f92e8020f" d="M 58.501563 -255.0875 
L 58.501563 -255.0875 
L 59.666945 -253.212647 
L 60.832327 -251.337995 
L 61.99771 -249.463748 
L 63.163092 -247.590108 
L 64.328475 -245.717276 
L 65.493857 -243.845455 
L 66.65924 -241.974846 
L 67.824622 -240.10565 
L 68.990005 -238.238068 
L 70.155387 -236.372302 
L 71.32077 -234.508552 
L 72.486152 -232.647017 
L 73.651535 -230.787898 
L 74.816917 -228.931393 
L 75.9823 -227.077701 
L 77.147682 -225.22702 
L 78.313065 -223.379547 
L 79.478447 -221.53548 
L 80.64383 -219.695014 
L 81.809212 -217.858344 
L 82.974594 -216.025666 
L 84.139977 -214.197173 
L 85.305359 -212.373059 
L 86.470742 -210.553514 
L 87.636124 -208.738732 
L 88.801507 -206.928901 
L 89.966889 -205.124212 
L 91.132272 -203.324853 
L 92.297654 -201.53101 
L 93.463037 -199.742871 
L 94.628419 -197.960621 
L 95.793802 -196.184443 
L 96.959184 -194.41452 
L 98.124567 -192.651035 
L 99.289949 -190.894167 
L 100.455332 -189.144095 
L 101.620714 -187.400998 
L 102.786097 -185.665051 
L 103.951479 -183.936431 
L 105.116862 -182.21531 
L 106.282244 -180.501861 
L 107.447626 -178.796256 
L 108.613009 -177.098663 
L 109.778391 -175.40925 
L 110.943774 -173.728184 
L 112.109156 -172.055629 
L 113.274539 -170.391749 
L 114.439921 -168.736706 
L 115.605304 -167.090659 
L 116.770686 -165.453767 
L 117.936069 -163.826187 
L 119.101451 -162.208073 
L 120.266834 -160.59958 
L 121.432216 -159.000857 
L 122.597599 -157.412056 
L 123.762981 -155.833325 
L 124.928364 -154.264808 
L 126.093746 -152.706652 
L 127.259129 -151.158998 
L 128.424511 -149.621988 
L 129.589894 -148.09576 
L 130.755276 -146.580451 
L 131.920658 -145.076196 
L 133.086041 -143.583128 
L 134.251423 -142.101379 
L 135.416806 -140.631078 
L 136.582188 -139.172352 
L 137.747571 -137.725327 
L 138.912953 -136.290126 
L 140.078336 -134.86687 
L 141.243718 -133.45568 
L 142.409101 -132.056672 
L 143.574483 -130.669961 
L 144.739866 -129.295662 
L 145.905248 -127.933886 
L 147.070631 -126.584742 
L 148.236013 -125.248337 
L 149.401396 -123.924776 
L 150.566778 -122.614163 
L 151.732161 -121.316599 
L 152.897543 -120.032183 
L 154.062926 -118.761012 
L 155.228308 -117.503182 
L 156.39369 -116.258783 
L 157.559073 -115.027909 
L 158.724455 -113.810647 
L 159.889838 -112.607085 
L 161.05522 -111.417306 
L 162.220603 -110.241393 
L 163.385985 -109.079427 
L 164.551368 -107.931487 
L 165.71675 -106.797648 
L 166.882133 -105.677985 
L 168.047515 -104.57257 
L 169.212898 -103.481474 
L 170.37828 -102.404764 
L 171.543663 -101.342507 
L 172.709045 -100.294767 
L 173.874428 -99.261606 
L 175.03981 -98.243083 
L 176.205193 -97.239257 
L 177.370575 -96.250184 
L 178.535957 -95.275918 
L 179.70134 -94.316511 
L 180.866722 -93.372013 
L 182.032105 -92.442471 
L 183.197487 -91.527933 
L 184.36287 -90.628442 
L 185.528252 -89.74404 
L 186.693635 -88.874768 
L 187.859017 -88.020664 
L 189.0244 -87.181765 
L 190.189782 -86.358104 
L 191.355165 -85.549715 
L 192.520547 -84.756628 
L 193.68593 -83.978873 
L 194.851312 -83.216475 
L 196.016695 -82.469461 
L 197.182077 -81.737854 
L 198.34746 -81.021676 
L 199.512842 -80.320946 
L 200.678225 -79.635682 
L 201.843607 -78.9659 
L 203.008989 -78.311616 
L 204.174372 -77.672841 
L 205.339754 -77.049586 
L 206.505137 -76.441862 
L 207.670519 -75.849676 
L 208.835902 -75.273033 
L 210.001284 -74.711938 
L 211.166667 -74.166394 
L 212.332049 -73.636401 
L 213.497432 -73.12196 
L 214.662814 -72.623067 
L 215.828197 -72.139719 
L 216.993579 -71.671911 
L 218.158962 -71.219636 
L 219.324344 -70.782886 
L 220.489727 -70.361651 
L 221.655109 -69.955918 
L 222.820492 -69.565676 
L 223.985874 -69.190911 
L 225.151257 -68.831606 
L 226.316639 -68.487744 
L 227.482021 -68.159307 
L 228.647404 -67.846274 
L 229.812786 -67.548625 
L 230.978169 -67.266337 
L 232.143551 -66.999386 
L 233.308934 -66.747746 
L 234.474316 -66.511391 
L 235.639699 -66.290293 
L 236.805081 -66.084423 
L 237.970464 -65.893751 
L 239.135846 -65.718244 
L 240.301229 -65.557871 
L 241.466611 -65.412596 
L 242.631994 -65.282386 
L 243.797376 -65.167203 
L 244.962759 -65.06701 
L 246.128141 -64.981768 
L 247.293524 -64.911439 
L 248.458906 -64.855981 
L 249.624289 -64.815352 
L 250.789671 -64.789509 
L 251.955053 -64.778409 
L 253.120436 -64.782007 
L 254.285818 -64.800256 
L 255.451201 -64.83311 
L 256.616583 -64.880521 
L 257.781966 -64.94244 
L 258.947348 -65.018817 
L 260.112731 -65.109603 
L 261.278113 -65.214744 
L 262.443496 -65.33419 
L 263.608878 -65.467886 
L 264.774261 -65.615779 
L 265.939643 -65.777813 
L 267.105026 -65.953933 
L 268.270408 -66.144082 
L 269.435791 -66.348203 
L 270.601173 -66.566238 
L 271.766556 -66.798127 
L 272.931938 -67.043812 
L 274.09732 -67.303233 
L 275.262703 -67.576327 
L 276.428085 -67.863033 
L 277.593468 -68.16329 
L 278.75885 -68.477034 
L 279.924233 -68.8042 
L 281.089615 -69.144726 
L 282.254998 -69.498546 
L 283.42038 -69.865594 
L 284.585763 -70.245805 
L 285.751145 -70.639112 
L 286.916528 -71.045447 
L 288.08191 -71.464742 
L 289.247293 -71.89693 
L 290.412675 -72.341942 
L 291.578058 -72.799707 
L 292.74344 -73.270157 
L 293.908823 -73.753221 
L 295.074205 -74.248828 
L 296.239588 -74.756907 
L 297.40497 -75.277386 
L 298.570352 -75.810193 
L 299.735735 -76.355255 
L 300.901117 -76.9125 
L 302.0665 -77.481854 
L 303.231882 -78.063243 
L 304.397265 -78.656594 
L 305.562647 -79.261831 
L 306.72803 -79.87888 
L 307.893412 -80.507665 
L 309.058795 -81.148112 
L 310.224177 -81.800144 
L 311.38956 -82.463685 
L 312.554942 -83.138658 
L 313.720325 -83.824988 
L 314.885707 -84.522596 
L 316.05109 -85.231405 
L 317.216472 -85.951339 
L 318.381855 -86.682319 
L 319.547237 -87.424266 
L 320.71262 -88.177104 
L 321.878002 -88.940752 
L 323.043384 -89.715133 
L 324.208767 -90.500167 
L 325.374149 -91.295776 
L 326.539532 -92.101879 
L 327.704914 -92.918398 
L 328.870297 -93.745252 
L 330.035679 -94.582363 
L 331.201062 -95.429648 
L 332.366444 -96.287029 
L 333.531827 -97.154426 
L 334.697209 -98.031756 
L 335.862592 -98.918941 
L 337.027974 -99.815899 
L 338.193357 -100.722549 
L 339.358739 -101.63881 
L 340.524122 -102.564601 
L 341.689504 -103.499842 
L 342.854887 -104.444449 
L 344.020269 -105.398344 
L 345.185652 -106.361443 
L 346.351034 -107.333665 
L 347.516416 -108.314928 
L 348.681799 -109.305152 
L 349.847181 -110.304253 
L 351.012564 -111.312151 
L 352.177946 -112.328763 
L 353.343329 -113.354008 
L 354.508711 -114.387803 
L 355.674094 -115.430066 
L 356.839476 -116.480716 
L 358.004859 -117.539671 
L 359.170241 -118.606848 
L 360.335624 -119.682165 
L 361.501006 -120.76554 
L 362.666389 -121.856891 
L 363.831771 -122.956136 
L 364.997154 -124.063192 
L 366.162536 -125.177978 
L 367.327919 -126.300411 
L 368.493301 -127.43041 
L 369.658684 -128.567891 
L 370.824066 -129.712774 
L 371.989448 -130.864975 
L 373.154831 -132.024413 
L 374.320213 -133.191005 
L 375.485596 -134.36467 
L 376.650978 -135.545326 
L 377.816361 -136.73289 
L 378.981743 -137.927281 
L 380.147126 -139.128416 
L 381.312508 -140.336214 
L 382.477891 -141.550593 
L 383.643273 -142.77147 
L 384.808656 -143.998765 
L 385.974038 -145.232396 
L 387.139421 -146.47228 
L 388.304803 -147.718336 
L 389.470186 -148.970482 
L 390.635568 -150.228637 
L 391.800951 -151.49272 
L 392.966333 -152.762648 
L 394.131715 -154.038341 
L 395.297098 -155.319716 
L 396.46248 -156.606694 
L 397.627863 -157.899192 
L 398.793245 -159.197129 
L 399.958628 -160.500424 
L 401.12401 -161.808996 
L 402.289393 -163.122764 
L 403.454775 -164.441648 
L 404.620158 -165.765565 
L 405.78554 -167.094435 
L 406.950923 -168.428178 
L 408.116305 -169.766713 
L 409.281688 -171.109958 
L 410.44707 -172.457834 
L 411.612453 -173.81026 
L 412.777835 -175.167155 
L 413.943218 -176.528438 
L 415.1086 -177.894031 
L 416.273983 -179.263851 
L 417.439365 -180.63782 
L 418.604747 -182.015856 
L 419.77013 -183.39788 
L 420.935512 -184.783811 
L 422.100895 -186.17357 
L 423.266277 -187.567076 
L 424.43166 -188.96425 
L 425.597042 -190.365012 
L 426.762425 -191.769281 
L 427.927807 -193.17698 
L 429.09319 -194.588026 
L 430.258572 -196.002342 
L 431.423955 -197.419847 
L 432.589337 -198.840462 
L 433.75472 -200.264108 
L 434.920102 -201.690704 
L 436.085485 -203.120173 
L 437.250867 -204.552434 
L 438.41625 -205.987407 
L 439.581632 -207.425015 
L 440.747015 -208.865178 
L 441.912397 -210.307817 
L 443.077779 -211.752852 
L 444.243162 -213.200204 
L 445.408544 -214.649796 
L 446.573927 -216.101547 
L 447.739309 -217.555378 
L 448.904692 -219.011212 
L 450.070074 -220.468969 
L 451.235457 -221.92857 
L 452.400839 -223.389937 
L 453.566222 -224.852991 
L 454.731604 -226.317653 
L 455.896987 -227.783844 
L 457.062369 -229.251486 
L 458.227752 -230.720501 
L 459.393134 -232.19081 
L 460.558517 -233.662333 
L 461.723899 -235.134994 
L 462.889282 -236.608712 
L 464.054664 -238.083411 
L 465.220047 -239.55901 
L 466.385429 -241.035433 
L 467.550811 -242.5126 
L 468.716194 -243.990433 
L 469.881576 -245.468854 
L 471.046959 -246.947784 
L 472.212341 -248.427144 
L 473.377724 -249.906858 
L 474.543106 -251.386846 
L 475.708489 -252.867029 
L 476.873871 -254.34733 
L 478.039254 -255.82767 
L 479.204636 -257.307971 
L 480.370019 -258.788154 
L 481.535401 -260.268142 
L 482.700784 -261.747856 
L 483.866166 -263.227216 
L 485.031549 -264.706146 
L 486.196931 -266.184567 
L 487.362314 -267.6624 
L 488.527696 -269.139567 
L 489.693078 -270.61599 
L 490.858461 -272.091589 
L 492.023843 -273.566288 
L 493.189226 -275.040006 
L 494.354608 -276.512667 
L 495.519991 -277.98419 
L 496.685373 -279.454499 
L 497.850756 -280.923514 
L 499.016138 -282.391156 
L 500.181521 -283.857347 
L 501.346903 -285.322009 
L 502.512286 -286.785063 
L 503.677668 -288.24643 
L 504.843051 -289.706031 
L 506.008433 -291.163788 
L 507.173816 -292.619622 
L 508.339198 -294.073453 
L 509.504581 -295.525204 
L 510.669963 -296.974796 
L 511.835346 -298.422148 
L 513.000728 -299.867183 
L 514.16611 -301.309822 
L 515.331493 -302.749985 
L 516.496875 -304.187593 
L 517.662258 -305.622566 
L 518.82764 -307.054827 
L 519.993023 -308.484296 
L 521.158405 -309.910892 
L 522.323788 -311.334538 
L 523.48917 -312.755153 
L 524.654553 -314.172658 
L 525.819935 -315.586974 
L 526.985318 -316.99802 
L 528.1507 -318.405719 
L 529.316083 -319.809988 
L 530.481465 -321.21075 
L 531.646848 -322.607924 
L 532.81223 -324.00143 
L 533.977613 -325.391189 
L 535.142995 -326.77712 
L 536.308378 -328.159144 
L 537.47376 -329.53718 
L 538.639142 -330.911149 
L 539.804525 -332.280969 
L 540.969907 -333.646562 
L 542.13529 -335.007845 
L 543.300672 -336.36474 
L 544.466055 -337.717166 
L 545.631437 -339.065042 
L 546.79682 -340.408287 
L 547.962202 -341.746822 
L 549.127585 -343.080565 
L 550.292967 -344.409435 
L 551.45835 -345.733352 
L 552.623732 -347.052236 
L 553.789115 -348.366004 
L 554.954497 -349.674576 
L 556.11988 -350.977871 
L 557.285262 -352.275808 
L 558.450645 -353.568306 
L 559.616027 -354.855284 
L 560.78141 -356.136659 
L 561.946792 -357.412352 
L 563.112174 -358.68228 
L 564.277557 -359.946363 
L 565.442939 -361.204518 
L 566.608322 -362.456664 
L 567.773704 -363.70272 
L 568.939087 -364.942604 
L 570.104469 -366.176235 
L 571.269852 -367.40353 
L 572.435234 -368.624407 
L 573.600617 -369.838786 
L 574.765999 -371.046584 
L 575.931382 -372.247719 
L 577.096764 -373.44211 
L 578.262147 -374.629674 
L 579.427529 -375.81033 
L 580.592912 -376.983995 
L 581.758294 -378.150587 
L 582.923677 -379.310025 
L 584.089059 -380.462226 
L 585.254441 -381.607109 
L 586.419824 -382.74459 
L 587.585206 -383.874589 
L 588.750589 -384.997022 
L 589.915971 -386.111808 
L 591.081354 -387.218864 
L 592.246736 -388.318109 
L 593.412119 -389.40946 
L 594.577501 -390.492835 
L 595.742884 -391.568152 
L 596.908266 -392.635329 
L 598.073649 -393.694284 
L 599.239031 -394.744934 
L 600.404414 -395.787197 
L 601.569796 -396.820992 
L 602.735179 -397.846237 
L 603.900561 -398.862849 
L 605.065944 -399.870747 
L 606.231326 -400.869848 
L 607.396709 -401.860072 
L 608.562091 -402.841335 
L 609.727473 -403.813557 
L 610.892856 -404.776656 
L 612.058238 -405.730551 
L 613.223621 -406.675158 
L 614.389003 -407.610399 
L 615.554386 -408.53619 
L 616.719768 -409.452451 
L 617.885151 -410.359101 
L 619.050533 -411.256059 
L 620.215916 -412.143244 
L 621.381298 -413.020574 
L 622.546681 -413.887971 
L 623.712063 -414.745352 
L 624.877446 -415.592637 
L 626.042828 -416.429748 
L 627.208211 -417.256602 
L 628.373593 -418.073121 
L 629.538976 -418.879224 
L 630.704358 -419.674833 
L 631.869741 -420.459867 
L 633.035123 -421.234248 
L 634.200505 -421.997896 
L 635.365888 -422.750734 
L 636.53127 -423.492681 
L 637.696653 -424.223661 
L 638.862035 -424.943595 
L 640.027418 -425.652404 
L 641.1928 -426.350012 
L 642.358183 -427.036342 
L 643.523565 -427.711315 
L 644.688948 -428.374856 
L 645.85433 -429.026888 
L 647.019713 -429.667335 
L 648.185095 -430.29612 
L 649.350478 -430.913169 
L 650.51586 -431.518406 
L 651.681243 -432.111757 
L 652.846625 -432.693146 
L 654.012008 -433.2625 
L 655.17739 -433.819745 
L 656.342773 -434.364807 
L 657.508155 -434.897614 
L 658.673537 -435.418093 
L 659.83892 -435.926172 
L 661.004302 -436.421779 
L 662.169685 -436.904843 
L 663.335067 -437.375293 
L 664.50045 -437.833058 
L 665.665832 -438.27807 
L 666.831215 -438.710258 
L 667.996597 -439.129553 
L 669.16198 -439.535888 
L 670.327362 -439.929195 
L 671.492745 -440.309406 
L 672.658127 -440.676454 
L 673.82351 -441.030274 
L 674.988892 -441.3708 
L 676.154275 -441.697966 
L 677.319657 -442.01171 
L 678.48504 -442.311967 
L 679.650422 -442.598673 
L 680.815805 -442.871767 
L 681.981187 -443.131188 
L 683.146569 -443.376873 
L 684.311952 -443.608762 
L 685.477334 -443.826797 
L 686.642717 -444.030918 
L 687.808099 -444.221067 
L 688.973482 -444.397187 
L 690.138864 -444.559221 
L 691.304247 -444.707114 
L 692.469629 -444.84081 
L 693.635012 -444.960256 
L 694.800394 -445.065397 
L 695.965777 -445.156183 
L 697.131159 -445.23256 
L 698.296542 -445.294479 
L 699.461924 -445.34189 
L 700.627307 -445.374744 
L 701.792689 -445.392993 
L 702.958072 -445.396591 
L 704.123454 -445.385491 
L 705.288836 -445.359648 
L 706.454219 -445.319019 
L 707.619601 -445.263561 
L 708.784984 -445.193232 
L 709.950366 -445.10799 
L 711.115749 -445.007797 
L 712.281131 -444.892614 
L 713.446514 -444.762404 
L 714.611896 -444.617129 
L 715.777279 -444.456756 
L 716.942661 -444.281249 
L 718.108044 -444.090577 
L 719.273426 -443.884707 
L 720.438809 -443.663609 
L 721.604191 -443.427254 
L 722.769574 -443.175614 
L 723.934956 -442.908663 
L 725.100339 -442.626375 
L 726.265721 -442.328726 
L 727.431104 -442.015693 
L 728.596486 -441.687256 
L 729.761868 -441.343394 
L 730.927251 -440.984089 
L 732.092633 -440.609324 
L 733.258016 -440.219082 
L 734.423398 -439.813349 
L 735.588781 -439.392114 
L 736.754163 -438.955364 
L 737.919546 -438.503089 
L 739.084928 -438.035281 
L 740.250311 -437.551933 
L 741.415693 -437.05304 
L 742.581076 -436.538599 
L 743.746458 -436.008606 
L 744.911841 -435.463062 
L 746.077223 -434.901967 
L 747.242606 -434.325324 
L 748.407988 -433.733138 
L 749.573371 -433.125414 
L 750.738753 -432.502159 
L 751.904136 -431.863384 
L 753.069518 -431.2091 
L 754.2349 -430.539318 
L 755.400283 -429.854054 
L 756.565665 -429.153324 
L 757.731048 -428.437146 
L 758.89643 -427.705539 
L 760.061813 -426.958525 
L 761.227195 -426.196127 
L 762.392578 -425.418372 
L 763.55796 -424.625285 
L 764.723343 -423.816896 
L 765.888725 -422.993235 
L 767.054108 -422.154336 
L 768.21949 -421.300232 
L 769.384873 -420.43096 
L 770.550255 -419.546558 
L 771.715638 -418.647067 
L 772.88102 -417.732529 
L 774.046403 -416.802987 
L 775.211785 -415.858489 
L 776.377168 -414.899082 
L 777.54255 -413.924816 
L 778.707932 -412.935743 
L 779.873315 -411.931917 
L 781.038697 -410.913394 
L 782.20408 -409.880233 
L 783.369462 -408.832493 
L 784.534845 -407.770236 
L 785.700227 -406.693526 
L 786.86561 -405.60243 
L 788.030992 -404.497015 
L 789.196375 -403.377352 
L 790.361757 -402.243513 
L 791.52714 -401.095573 
L 792.692522 -399.933607 
L 793.857905 -398.757694 
L 795.023287 -397.567915 
L 796.18867 -396.364353 
L 797.354052 -395.147091 
L 798.519435 -393.916217 
L 799.684817 -392.671818 
L 800.850199 -391.413988 
L 802.015582 -390.142817 
L 803.180964 -388.858401 
L 804.346347 -387.560837 
L 805.511729 -386.250224 
L 806.677112 -384.926663 
L 807.842494 -383.590258 
L 809.007877 -382.241114 
L 810.173259 -380.879338 
L 811.338642 -379.505039 
L 812.504024 -378.118328 
L 813.669407 -376.71932 
L 814.834789 -375.30813 
L 816.000172 -373.884874 
L 817.165554 -372.449673 
L 818.330937 -371.002648 
L 819.496319 -369.543922 
L 820.661702 -368.073621 
L 821.827084 -366.591872 
L 822.992467 -365.098804 
L 824.157849 -363.594549 
L 825.323231 -362.07924 
L 826.488614 -360.553012 
L 827.653996 -359.016002 
L 828.819379 -357.468348 
L 829.984761 -355.910192 
L 831.150144 -354.341675 
L 832.315526 -352.762944 
L 833.480909 -351.174143 
L 834.646291 -349.57542 
L 835.811674 -347.966927 
L 836.977056 -346.348813 
L 838.142439 -344.721233 
L 839.307821 -343.084341 
L 840.473204 -341.438294 
L 841.638586 -339.783251 
L 842.803969 -338.119371 
L 843.969351 -336.446816 
L 845.134734 -334.76575 
L 846.300116 -333.076337 
L 847.465499 -331.378744 
L 848.630881 -329.673139 
L 849.796263 -327.95969 
L 850.961646 -326.238569 
L 852.127028 -324.509949 
L 853.292411 -322.774002 
L 854.457793 -321.030905 
L 855.623176 -319.280833 
L 856.788558 -317.523965 
L 857.953941 -315.76048 
L 859.119323 -313.990557 
L 860.284706 -312.214379 
L 861.450088 -310.432129 
L 862.615471 -308.64399 
L 863.780853 -306.850147 
L 864.946236 -305.050788 
L 866.111618 -303.246099 
L 867.277001 -301.436268 
L 868.442383 -299.621486 
L 869.607766 -297.801941 
L 870.773148 -295.977827 
L 871.938531 -294.149334 
L 873.103913 -292.316656 
L 874.269295 -290.479986 
L 875.434678 -288.63952 
L 876.60006 -286.795453 
L 877.765443 -284.94798 
L 878.930825 -283.097299 
L 880.096208 -281.243607 
L 881.26159 -279.387102 
L 882.426973 -277.527983 
L 883.592355 -275.666448 
L 884.757738 -273.802698 
L 885.92312 -271.936932 
L 887.088503 -270.06935 
L 888.253885 -268.200154 
L 889.419268 -266.329545 
L 890.58465 -264.457724 
L 891.750033 -262.584892 
L 892.915415 -260.711252 
L 894.080798 -258.837005 
L 895.24618 -256.962353 
L 896.411562 -255.0875 
L 896.411562 -255.0875 
L 896.411562 -255.0875 
L 895.24618 -255.0875 
L 894.080798 -255.0875 
L 892.915415 -255.0875 
L 891.750033 -255.0875 
L 890.58465 -255.0875 
L 889.419268 -255.0875 
L 888.253885 -255.0875 
L 887.088503 -255.0875 
L 885.92312 -255.0875 
L 884.757738 -255.0875 
L 883.592355 -255.0875 
L 882.426973 -255.0875 
L 881.26159 -255.0875 
L 880.096208 -255.0875 
L 878.930825 -255.0875 
L 877.765443 -255.0875 
L 876.60006 -255.0875 
L 875.434678 -255.0875 
L 874.269295 -255.0875 
L 873.103913 -255.0875 
L 871.938531 -255.0875 
L 870.773148 -255.0875 
L 869.607766 -255.0875 
L 868.442383 -255.0875 
L 867.277001 -255.0875 
L 866.111618 -255.0875 
L 864.946236 -255.0875 
L 863.780853 -255.0875 
L 862.615471 -255.0875 
L 861.450088 -255.0875 
L 860.284706 -255.0875 
L 859.119323 -255.0875 
L 857.953941 -255.0875 
L 856.788558 -255.0875 
L 855.623176 -255.0875 
L 854.457793 -255.0875 
L 853.292411 -255.0875 
L 852.127028 -255.0875 
L 850.961646 -255.0875 
L 849.796263 -255.0875 
L 848.630881 -255.0875 
L 847.465499 -255.0875 
L 846.300116 -255.0875 
L 845.134734 -255.0875 
L 843.969351 -255.0875 
L 842.803969 -255.0875 
L 841.638586 -255.0875 
L 840.473204 -255.0875 
L 839.307821 -255.0875 
L 838.142439 -255.0875 
L 836.977056 -255.0875 
L 835.811674 -255.0875 
L 834.646291 -255.0875 
L 833.480909 -255.0875 
L 832.315526 -255.0875 
L 831.150144 -255.0875 
L 829.984761 -255.0875 
L 828.819379 -255.0875 
L 827.653996 -255.0875 
L 826.488614 -255.0875 
L 825.323231 -255.0875 
L 824.157849 -255.0875 
L 822.992467 -255.0875 
L 821.827084 -255.0875 
L 820.661702 -255.0875 
L 819.496319 -255.0875 
L 818.330937 -255.0875 
L 817.165554 -255.0875 
L 816.000172 -255.0875 
L 814.834789 -255.0875 
L 813.669407 -255.0875 
L 812.504024 -255.0875 
L 811.338642 -255.0875 
L 810.173259 -255.0875 
L 809.007877 -255.0875 
L 807.842494 -255.0875 
L 806.677112 -255.0875 
L 805.511729 -255.0875 
L 804.346347 -255.0875 
L 803.180964 -255.0875 
L 802.015582 -255.0875 
L 800.850199 -255.0875 
L 799.684817 -255.0875 
L 798.519435 -255.0875 
L 797.354052 -255.0875 
L 796.18867 -255.0875 
L 795.023287 -255.0875 
L 793.857905 -255.0875 
L 792.692522 -255.0875 
L 791.52714 -255.0875 
L 790.361757 -255.0875 
L 789.196375 -255.0875 
L 788.030992 -255.0875 
L 786.86561 -255.0875 
L 785.700227 -255.0875 
L 784.534845 -255.0875 
L 783.369462 -255.0875 
L 782.20408 -255.0875 
L 781.038697 -255.0875 
L 779.873315 -255.0875 
L 778.707932 -255.0875 
L 777.54255 -255.0875 
L 776.377168 -255.0875 
L 775.211785 -255.0875 
L 774.046403 -255.0875 
L 772.88102 -255.0875 
L 771.715638 -255.0875 
L 770.550255 -255.0875 
L 769.384873 -255.0875 
L 768.21949 -255.0875 
L 767.054108 -255.0875 
L 765.888725 -255.0875 
L 764.723343 -255.0875 
L 763.55796 -255.0875 
L 762.392578 -255.0875 
L 761.227195 -255.0875 
L 760.061813 -255.0875 
L 758.89643 -255.0875 
L 757.731048 -255.0875 
L 756.565665 -255.0875 
L 755.400283 -255.0875 
L 754.2349 -255.0875 
L 753.069518 -255.0875 
L 751.904136 -255.0875 
L 750.738753 -255.0875 
L 749.573371 -255.0875 
L 748.407988 -255.0875 
L 747.242606 -255.0875 
L 746.077223 -255.0875 
L 744.911841 -255.0875 
L 743.746458 -255.0875 
L 742.581076 -255.0875 
L 741.415693 -255.0875 
L 740.250311 -255.0875 
L 739.084928 -255.0875 
L 737.919546 -255.0875 
L 736.754163 -255.0875 
L 735.588781 -255.0875 
L 734.423398 -255.0875 
L 733.258016 -255.0875 
L 732.092633 -255.0875 
L 730.927251 -255.0875 
L 729.761868 -255.0875 
L 728.596486 -255.0875 
L 727.431104 -255.0875 
L 726.265721 -255.0875 
L 725.100339 -255.0875 
L 723.934956 -255.0875 
L 722.769574 -255.0875 
L 721.604191 -255.0875 
L 720.438809 -255.0875 
L 719.273426 -255.0875 
L 718.108044 -255.0875 
L 716.942661 -255.0875 
L 715.777279 -255.0875 
L 714.611896 -255.0875 
L 713.446514 -255.0875 
L 712.281131 -255.0875 
L 711.115749 -255.0875 
L 709.950366 -255.0875 
L 708.784984 -255.0875 
L 707.619601 -255.0875 
L 706.454219 -255.0875 
L 705.288836 -255.0875 
L 704.123454 -255.0875 
L 702.958072 -255.0875 
L 701.792689 -255.0875 
L 700.627307 -255.0875 
L 699.461924 -255.0875 
L 698.296542 -255.0875 
L 697.131159 -255.0875 
L 695.965777 -255.0875 
L 694.800394 -255.0875 
L 693.635012 -255.0875 
L 692.469629 -255.0875 
L 691.304247 -255.0875 
L 690.138864 -255.0875 
L 688.973482 -255.0875 
L 687.808099 -255.0875 
L 686.642717 -255.0875 
L 685.477334 -255.0875 
L 684.311952 -255.0875 
L 683.146569 -255.0875 
L 681.981187 -255.0875 
L 680.815805 -255.0875 
L 679.650422 -255.0875 
L 678.48504 -255.0875 
L 677.319657 -255.0875 
L 676.154275 -255.0875 
L 674.988892 -255.0875 
L 673.82351 -255.0875 
L 672.658127 -255.0875 
L 671.492745 -255.0875 
L 670.327362 -255.0875 
L 669.16198 -255.0875 
L 667.996597 -255.0875 
L 666.831215 -255.0875 
L 665.665832 -255.0875 
L 664.50045 -255.0875 
L 663.335067 -255.0875 
L 662.169685 -255.0875 
L 661.004302 -255.0875 
L 659.83892 -255.0875 
L 658.673537 -255.0875 
L 657.508155 -255.0875 
L 656.342773 -255.0875 
L 655.17739 -255.0875 
L 654.012008 -255.0875 
L 652.846625 -255.0875 
L 651.681243 -255.0875 
L 650.51586 -255.0875 
L 649.350478 -255.0875 
L 648.185095 -255.0875 
L 647.019713 -255.0875 
L 645.85433 -255.0875 
L 644.688948 -255.0875 
L 643.523565 -255.0875 
L 642.358183 -255.0875 
L 641.1928 -255.0875 
L 640.027418 -255.0875 
L 638.862035 -255.0875 
L 637.696653 -255.0875 
L 636.53127 -255.0875 
L 635.365888 -255.0875 
L 634.200505 -255.0875 
L 633.035123 -255.0875 
L 631.869741 -255.0875 
L 630.704358 -255.0875 
L 629.538976 -255.0875 
L 628.373593 -255.0875 
L 627.208211 -255.0875 
L 626.042828 -255.0875 
L 624.877446 -255.0875 
L 623.712063 -255.0875 
L 622.546681 -255.0875 
L 621.381298 -255.0875 
L 620.215916 -255.0875 
L 619.050533 -255.0875 
L 617.885151 -255.0875 
L 616.719768 -255.0875 
L 615.554386 -255.0875 
L 614.389003 -255.0875 
L 613.223621 -255.0875 
L 612.058238 -255.0875 
L 610.892856 -255.0875 
L 609.727473 -255.0875 
L 608.562091 -255.0875 
L 607.396709 -255.0875 
L 606.231326 -255.0875 
L 605.065944 -255.0875 
L 603.900561 -255.0875 
L 602.735179 -255.0875 
L 601.569796 -255.0875 
L 600.404414 -255.0875 
L 599.239031 -255.0875 
L 598.073649 -255.0875 
L 596.908266 -255.0875 
L 595.742884 -255.0875 
L 594.577501 -255.0875 
L 593.412119 -255.0875 
L 592.246736 -255.0875 
L 591.081354 -255.0875 
L 589.915971 -255.0875 
L 588.750589 -255.0875 
L 587.585206 -255.0875 
L 586.419824 -255.0875 
L 585.254441 -255.0875 
L 584.089059 -255.0875 
L 582.923677 -255.0875 
L 581.758294 -255.0875 
L 580.592912 -255.0875 
L 579.427529 -255.0875 
L 578.262147 -255.0875 
L 577.096764 -255.0875 
L 575.931382 -255.0875 
L 574.765999 -255.0875 
L 573.600617 -255.0875 
L 572.435234 -255.0875 
L 571.269852 -255.0875 
L 570.104469 -255.0875 
L 568.939087 -255.0875 
L 567.773704 -255.0875 
L 566.608322 -255.0875 
L 565.442939 -255.0875 
L 564.277557 -255.0875 
L 563.112174 -255.0875 
L 561.946792 -255.0875 
L 560.78141 -255.0875 
L 559.616027 -255.0875 
L 558.450645 -255.0875 
L 557.285262 -255.0875 
L 556.11988 -255.0875 
L 554.954497 -255.0875 
L 553.789115 -255.0875 
L 552.623732 -255.0875 
L 551.45835 -255.0875 
L 550.292967 -255.0875 
L 549.127585 -255.0875 
L 547.962202 -255.0875 
L 546.79682 -255.0875 
L 545.631437 -255.0875 
L 544.466055 -255.0875 
L 543.300672 -255.0875 
L 542.13529 -255.0875 
L 540.969907 -255.0875 
L 539.804525 -255.0875 
L 538.639142 -255.0875 
L 537.47376 -255.0875 
L 536.308378 -255.0875 
L 535.142995 -255.0875 
L 533.977613 -255.0875 
L 532.81223 -255.0875 
L 531.646848 -255.0875 
L 530.481465 -255.0875 
L 529.316083 -255.0875 
L 528.1507 -255.0875 
L 526.985318 -255.0875 
L 525.819935 -255.0875 
L 524.654553 -255.0875 
L 523.48917 -255.0875 
L 522.323788 -255.0875 
L 521.158405 -255.0875 
L 519.993023 -255.0875 
L 518.82764 -255.0875 
L 517.662258 -255.0875 
L 516.496875 -255.0875 
L 515.331493 -255.0875 
L 514.16611 -255.0875 
L 513.000728 -255.0875 
L 511.835346 -255.0875 
L 510.669963 -255.0875 
L 509.504581 -255.0875 
L 508.339198 -255.0875 
L 507.173816 -255.0875 
L 506.008433 -255.0875 
L 504.843051 -255.0875 
L 503.677668 -255.0875 
L 502.512286 -255.0875 
L 501.346903 -255.0875 
L 500.181521 -255.0875 
L 499.016138 -255.0875 
L 497.850756 -255.0875 
L 496.685373 -255.0875 
L 495.519991 -255.0875 
L 494.354608 -255.0875 
L 493.189226 -255.0875 
L 492.023843 -255.0875 
L 490.858461 -255.0875 
L 489.693078 -255.0875 
L 488.527696 -255.0875 
L 487.362314 -255.0875 
L 486.196931 -255.0875 
L 485.031549 -255.0875 
L 483.866166 -255.0875 
L 482.700784 -255.0875 
L 481.535401 -255.0875 
L 480.370019 -255.0875 
L 479.204636 -255.0875 
L 478.039254 -255.0875 
L 476.873871 -255.0875 
L 475.708489 -255.0875 
L 474.543106 -255.0875 
L 473.377724 -255.0875 
L 472.212341 -255.0875 
L 471.046959 -255.0875 
L 469.881576 -255.0875 
L 468.716194 -255.0875 
L 467.550811 -255.0875 
L 466.385429 -255.0875 
L 465.220047 -255.0875 
L 464.054664 -255.0875 
L 462.889282 -255.0875 
L 461.723899 -255.0875 
L 460.558517 -255.0875 
L 459.393134 -255.0875 
L 458.227752 -255.0875 
L 457.062369 -255.0875 
L 455.896987 -255.0875 
L 454.731604 -255.0875 
L 453.566222 -255.0875 
L 452.400839 -255.0875 
L 451.235457 -255.0875 
L 450.070074 -255.0875 
L 448.904692 -255.0875 
L 447.739309 -255.0875 
L 446.573927 -255.0875 
L 445.408544 -255.0875 
L 444.243162 -255.0875 
L 443.077779 -255.0875 
L 441.912397 -255.0875 
L 440.747015 -255.0875 
L 439.581632 -255.0875 
L 438.41625 -255.0875 
L 437.250867 -255.0875 
L 436.085485 -255.0875 
L 434.920102 -255.0875 
L 433.75472 -255.0875 
L 432.589337 -255.0875 
L 431.423955 -255.0875 
L 430.258572 -255.0875 
L 429.09319 -255.0875 
L 427.927807 -255.0875 
L 426.762425 -255.0875 
L 425.597042 -255.0875 
L 424.43166 -255.0875 
L 423.266277 -255.0875 
L 422.100895 -255.0875 
L 420.935512 -255.0875 
L 419.77013 -255.0875 
L 418.604747 -255.0875 
L 417.439365 -255.0875 
L 416.273983 -255.0875 
L 415.1086 -255.0875 
L 413.943218 -255.0875 
L 412.777835 -255.0875 
L 411.612453 -255.0875 
L 410.44707 -255.0875 
L 409.281688 -255.0875 
L 408.116305 -255.0875 
L 406.950923 -255.0875 
L 405.78554 -255.0875 
L 404.620158 -255.0875 
L 403.454775 -255.0875 
L 402.289393 -255.0875 
L 401.12401 -255.0875 
L 399.958628 -255.0875 
L 398.793245 -255.0875 
L 397.627863 -255.0875 
L 396.46248 -255.0875 
L 395.297098 -255.0875 
L 394.131715 -255.0875 
L 392.966333 -255.0875 
L 391.800951 -255.0875 
L 390.635568 -255.0875 
L 389.470186 -255.0875 
L 388.304803 -255.0875 
L 387.139421 -255.0875 
L 385.974038 -255.0875 
L 384.808656 -255.0875 
L 383.643273 -255.0875 
L 382.477891 -255.0875 
L 381.312508 -255.0875 
L 380.147126 -255.0875 
L 378.981743 -255.0875 
L 377.816361 -255.0875 
L 376.650978 -255.0875 
L 375.485596 -255.0875 
L 374.320213 -255.0875 
L 373.154831 -255.0875 
L 371.989448 -255.0875 
L 370.824066 -255.0875 
L 369.658684 -255.0875 
L 368.493301 -255.0875 
L 367.327919 -255.0875 
L 366.162536 -255.0875 
L 364.997154 -255.0875 
L 363.831771 -255.0875 
L 362.666389 -255.0875 
L 361.501006 -255.0875 
L 360.335624 -255.0875 
L 359.170241 -255.0875 
L 358.004859 -255.0875 
L 356.839476 -255.0875 
L 355.674094 -255.0875 
L 354.508711 -255.0875 
L 353.343329 -255.0875 
L 352.177946 -255.0875 
L 351.012564 -255.0875 
L 349.847181 -255.0875 
L 348.681799 -255.0875 
L 347.516416 -255.0875 
L 346.351034 -255.0875 
L 345.185652 -255.0875 
L 344.020269 -255.0875 
L 342.854887 -255.0875 
L 341.689504 -255.0875 
L 340.524122 -255.0875 
L 339.358739 -255.0875 
L 338.193357 -255.0875 
L 337.027974 -255.0875 
L 335.862592 -255.0875 
L 334.697209 -255.0875 
L 333.531827 -255.0875 
L 332.366444 -255.0875 
L 331.201062 -255.0875 
L 330.035679 -255.0875 
L 328.870297 -255.0875 
L 327.704914 -255.0875 
L 326.539532 -255.0875 
L 325.374149 -255.0875 
L 324.208767 -255.0875 
L 323.043384 -255.0875 
L 321.878002 -255.0875 
L 320.71262 -255.0875 
L 319.547237 -255.0875 
L 318.381855 -255.0875 
L 317.216472 -255.0875 
L 316.05109 -255.0875 
L 314.885707 -255.0875 
L 313.720325 -255.0875 
L 312.554942 -255.0875 
L 311.38956 -255.0875 
L 310.224177 -255.0875 
L 309.058795 -255.0875 
L 307.893412 -255.0875 
L 306.72803 -255.0875 
L 305.562647 -255.0875 
L 304.397265 -255.0875 
L 303.231882 -255.0875 
L 302.0665 -255.0875 
L 300.901117 -255.0875 
L 299.735735 -255.0875 
L 298.570352 -255.0875 
L 297.40497 -255.0875 
L 296.239588 -255.0875 
L 295.074205 -255.0875 
L 293.908823 -255.0875 
L 292.74344 -255.0875 
L 291.578058 -255.0875 
L 290.412675 -255.0875 
L 289.247293 -255.0875 
L 288.08191 -255.0875 
L 286.916528 -255.0875 
L 285.751145 -255.0875 
L 284.585763 -255.0875 
L 283.42038 -255.0875 
L 282.254998 -255.0875 
L 281.089615 -255.0875 
L 279.924233 -255.0875 
L 278.75885 -255.0875 
L 277.593468 -255.0875 
L 276.428085 -255.0875 
L 275.262703 -255.0875 
L 274.09732 -255.0875 
L 272.931938 -255.0875 
L 271.766556 -255.0875 
L 270.601173 -255.0875 
L 269.435791 -255.0875 
L 268.270408 -255.0875 
L 267.105026 -255.0875 
L 265.939643 -255.0875 
L 264.774261 -255.0875 
L 263.608878 -255.0875 
L 262.443496 -255.0875 
L 261.278113 -255.0875 
L 260.112731 -255.0875 
L 258.947348 -255.0875 
L 257.781966 -255.0875 
L 256.616583 -255.0875 
L 255.451201 -255.0875 
L 254.285818 -255.0875 
L 253.120436 -255.0875 
L 251.955053 -255.0875 
L 250.789671 -255.0875 
L 249.624289 -255.0875 
L 248.458906 -255.0875 
L 247.293524 -255.0875 
L 246.128141 -255.0875 
L 244.962759 -255.0875 
L 243.797376 -255.0875 
L 242.631994 -255.0875 
L 241.466611 -255.0875 
L 240.301229 -255.0875 
L 239.135846 -255.0875 
L 237.970464 -255.0875 
L 236.805081 -255.0875 
L 235.639699 -255.0875 
L 234.474316 -255.0875 
L 233.308934 -255.0875 
L 232.143551 -255.0875 
L 230.978169 -255.0875 
L 229.812786 -255.0875 
L 228.647404 -255.0875 
L 227.482021 -255.0875 
L 226.316639 -255.0875 
L 225.151257 -255.0875 
L 223.985874 -255.0875 
L 222.820492 -255.0875 
L 221.655109 -255.0875 
L 220.489727 -255.0875 
L 219.324344 -255.0875 
L 218.158962 -255.0875 
L 216.993579 -255.0875 
L 215.828197 -255.0875 
L 214.662814 -255.0875 
L 213.497432 -255.0875 
L 212.332049 -255.0875 
L 211.166667 -255.0875 
L 210.001284 -255.0875 
L 208.835902 -255.0875 
L 207.670519 -255.0875 
L 206.505137 -255.0875 
L 205.339754 -255.0875 
L 204.174372 -255.0875 
L 203.008989 -255.0875 
L 201.843607 -255.0875 
L 200.678225 -255.0875 
L 199.512842 -255.0875 
L 198.34746 -255.0875 
L 197.182077 -255.0875 
L 196.016695 -255.0875 
L 194.851312 -255.0875 
L 193.68593 -255.0875 
L 192.520547 -255.0875 
L 191.355165 -255.0875 
L 190.189782 -255.0875 
L 189.0244 -255.0875 
L 187.859017 -255.0875 
L 186.693635 -255.0875 
L 185.528252 -255.0875 
L 184.36287 -255.0875 
L 183.197487 -255.0875 
L 182.032105 -255.0875 
L 180.866722 -255.0875 
L 179.70134 -255.0875 
L 178.535957 -255.0875 
L 177.370575 -255.0875 
L 176.205193 -255.0875 
L 175.03981 -255.0875 
L 173.874428 -255.0875 
L 172.709045 -255.0875 
L 171.543663 -255.0875 
L 170.37828 -255.0875 
L 169.212898 -255.0875 
L 168.047515 -255.0875 
L 166.882133 -255.0875 
L 165.71675 -255.0875 
L 164.551368 -255.0875 
L 163.385985 -255.0875 
L 162.220603 -255.0875 
L 161.05522 -255.0875 
L 159.889838 -255.0875 
L 158.724455 -255.0875 
L 157.559073 -255.0875 
L 156.39369 -255.0875 
L 155.228308 -255.0875 
L 154.062926 -255.0875 
L 152.897543 -255.0875 
L 151.732161 -255.0875 
L 150.566778 -255.0875 
L 149.401396 -255.0875 
L 148.236013 -255.0875 
L 147.070631 -255.0875 
L 145.905248 -255.0875 
L 144.739866 -255.0875 
L 143.574483 -255.0875 
L 142.409101 -255.0875 
L 141.243718 -255.0875 
L 140.078336 -255.0875 
L 138.912953 -255.0875 
L 137.747571 -255.0875 
L 136.582188 -255.0875 
L 135.416806 -255.0875 
L 134.251423 -255.0875 
L 133.086041 -255.0875 
L 131.920658 -255.0875 
L 130.755276 -255.0875 
L 129.589894 -255.0875 
L 128.424511 -255.0875 
L 127.259129 -255.0875 
L 126.093746 -255.0875 
L 124.928364 -255.0875 
L 123.762981 -255.0875 
L 122.597599 -255.0875 
L 121.432216 -255.0875 
L 120.266834 -255.0875 
L 119.101451 -255.0875 
L 117.936069 -255.0875 
L 116.770686 -255.0875 
L 115.605304 -255.0875 
L 114.439921 -255.0875 
L 113.274539 -255.0875 
L 112.109156 -255.0875 
L 110.943774 -255.0875 
L 109.778391 -255.0875 
L 108.613009 -255.0875 
L 107.447626 -255.0875 
L 106.282244 -255.0875 
L 105.116862 -255.0875 
L 103.951479 -255.0875 
L 102.786097 -255.0875 
L 101.620714 -255.0875 
L 100.455332 -255.0875 
L 99.289949 -255.0875 
L 98.124567 -255.0875 
L 96.959184 -255.0875 
L 95.793802 -255.0875 
L 94.628419 -255.0875 
L 93.463037 -255.0875 
L 92.297654 -255.0875 
L 91.132272 -255.0875 
L 89.966889 -255.0875 
L 88.801507 -255.0875 
L 87.636124 -255.0875 
L 86.470742 -255.0875 
L 85.305359 -255.0875 
L 84.139977 -255.0875 
L 82.974594 -255.0875 
L 81.809212 -255.0875 
L 80.64383 -255.0875 
L 79.478447 -255.0875 
L 78.313065 -255.0875 
L 77.147682 -255.0875 
L 75.9823 -255.0875 
L 74.816917 -255.0875 
L 73.651535 -255.0875 
L 72.486152 -255.0875 
L 71.32077 -255.0875 
L 70.155387 -255.0875 
L 68.990005 -255.0875 
L 67.824622 -255.0875 
L 66.65924 -255.0875 
L 65.493857 -255.0875 
L 64.328475 -255.0875 
L 63.163092 -255.0875 
L 61.99771 -255.0875 
L 60.832327 -255.0875 
L 59.666945 -255.0875 
L 58.501563 -255.0875 
z
" style="stroke: #a3583c; stroke-opacity: 0.08"/>
    </defs>
    <g clip-path="url(#p2ca59770ed)">
     <use xlink:href="#m6f92e8020f" x="0" y="499.624687" style="fill: #a3583c; fill-opacity: 0.08; stroke: #a3583c; stroke-opacity: 0.08"/>
    </g>
   </g>
   <g id="matplotlib.axis_1">
    <g id="xtick_1">
     <g id="line2d_1">
      <path d="M 58.501563 453.877187 
L 58.501563 35.197187 
" clip-path="url(#p2ca59770ed)" style="fill: none; stroke: #d9cbb6; stroke-opacity: 0.45; stroke-width: 0.8; stroke-linecap: square"/>
     </g>
     <g id="line2d_2">
      <defs>
       <path id="m94ca70eed9" d="M 0 0 
L 0 3.5 
" style="stroke: #756a5d; stroke-width: 0.8"/>
      </defs>
      <g>
       <use xlink:href="#m94ca70eed9" x="58.501563" y="453.877187" style="fill: #756a5d; stroke: #756a5d; stroke-width: 0.8"/>
      </g>
     </g>
     <g id="text_1">
      <text style="font-size: 11px; font-family: 'DejaVu Serif'; text-anchor: middle; fill: #756a5d" x="58.501563" y="469.235469" transform="rotate(-0 58.501563 469.235469)">0.0</text>
     </g>
    </g>
    <g id="xtick_2">
     <g id="line2d_3">
      <path d="M 226.083562 453.877187 
L 226.083562 35.197187 
" clip-path="url(#p2ca59770ed)" style="fill: none; stroke: #d9cbb6; stroke-opacity: 0.45; stroke-width: 0.8; stroke-linecap: square"/>
     </g>
     <g id="line2d_4">
      <g>
       <use xlink:href="#m94ca70eed9" x="226.083562" y="453.877187" style="fill: #756a5d; stroke: #756a5d; stroke-width: 0.8"/>
      </g>
     </g>
     <g id="text_2">
      <text style="font-size: 11px; font-family: 'DejaVu Serif'; text-anchor: middle; fill: #756a5d" x="226.083562" y="469.235469" transform="rotate(-0 226.083562 469.235469)">0.2</text>
     </g>
    </g>
    <g id="xtick_3">
     <g id="line2d_5">
      <path d="M 393.665562 453.877187 
L 393.665562 35.197187 
" clip-path="url(#p2ca59770ed)" style="fill: none; stroke: #d9cbb6; stroke-opacity: 0.45; stroke-width: 0.8; stroke-linecap: square"/>
     </g>
     <g id="line2d_6">
      <g>
       <use xlink:href="#m94ca70eed9" x="393.665562" y="453.877187" style="fill: #756a5d; stroke: #756a5d; stroke-width: 0.8"/>
      </g>
     </g>
     <g id="text_3">
      <text style="font-size: 11px; font-family: 'DejaVu Serif'; text-anchor: middle; fill: #756a5d" x="393.665562" y="469.235469" transform="rotate(-0 393.665562 469.235469)">0.4</text>
     </g>
    </g>
    <g id="xtick_4">
     <g id="line2d_7">
      <path d="M 561.247563 453.877187 
L 561.247563 35.197187 
" clip-path="url(#p2ca59770ed)" style="fill: none; stroke: #d9cbb6; stroke-opacity: 0.45; stroke-width: 0.8; stroke-linecap: square"/>
     </g>
     <g id="line2d_8">
      <g>
       <use xlink:href="#m94ca70eed9" x="561.247563" y="453.877187" style="fill: #756a5d; stroke: #756a5d; stroke-width: 0.8"/>
      </g>
     </g>
     <g id="text_4">
      <text style="font-size: 11px; font-family: 'DejaVu Serif'; text-anchor: middle; fill: #756a5d" x="561.247563" y="469.235469" transform="rotate(-0 561.247563 469.235469)">0.6</text>
     </g>
    </g>
    <g id="xtick_5">
     <g id="line2d_9">
      <path d="M 728.829562 453.877187 
L 728.829562 35.197187 
" clip-path="url(#p2ca59770ed)" style="fill: none; stroke: #d9cbb6; stroke-opacity: 0.45; stroke-width: 0.8; stroke-linecap: square"/>
     </g>
     <g id="line2d_10">
      <g>
       <use xlink:href="#m94ca70eed9" x="728.829562" y="453.877187" style="fill: #756a5d; stroke: #756a5d; stroke-width: 0.8"/>
      </g>
     </g>
     <g id="text_5">
      <text style="font-size: 11px; font-family: 'DejaVu Serif'; text-anchor: middle; fill: #756a5d" x="728.829562" y="469.235469" transform="rotate(-0 728.829562 469.235469)">0.8</text>
     </g>
    </g>
    <g id="xtick_6">
     <g id="line2d_11">
      <path d="M 896.411562 453.877187 
L 896.411562 35.197187 
" clip-path="url(#p2ca59770ed)" style="fill: none; stroke: #d9cbb6; stroke-opacity: 0.45; stroke-width: 0.8; stroke-linecap: square"/>
     </g>
     <g id="line2d_12">
      <g>
       <use xlink:href="#m94ca70eed9" x="896.411562" y="453.877187" style="fill: #756a5d; stroke: #756a5d; stroke-width: 0.8"/>
      </g>
     </g>
     <g id="text_6">
      <text style="font-size: 11px; font-family: 'DejaVu Serif'; text-anchor: middle; fill: #756a5d" x="896.411562" y="469.235469" transform="rotate(-0 896.411562 469.235469)">1.0</text>
     </g>
    </g>
    <g id="text_7">
     <text style="font-size: 13px; font-family: 'DejaVu Serif'; text-anchor: middle; fill: #1f1b16" x="477.456563" y="485.401094" transform="rotate(-0 477.456563 485.401094)">Orbital phase</text>
    </g>
   </g>
   <g id="matplotlib.axis_2">
    <g id="ytick_1">
     <g id="line2d_13">
      <path d="M 58.501563 388.199457 
L 896.411562 388.199457 
" clip-path="url(#p2ca59770ed)" style="fill: none; stroke: #d9cbb6; stroke-opacity: 0.45; stroke-width: 0.8; stroke-linecap: square"/>
     </g>
     <g id="line2d_14">
      <defs>
       <path id="mb304e9300e" d="M 0 0 
L -3.5 0 
" style="stroke: #756a5d; stroke-width: 0.8"/>
      </defs>
      <g>
       <use xlink:href="#mb304e9300e" x="58.501563" y="388.199457" style="fill: #756a5d; stroke: #756a5d; stroke-width: 0.8"/>
      </g>
     </g>
     <g id="text_8">
      <text style="font-size: 11px; font-family: 'DejaVu Serif'; text-anchor: end; fill: #756a5d" x="51.501563" y="392.378598" transform="rotate(-0 51.501563 392.378598)">−40</text>
     </g>
    </g>
    <g id="ytick_2">
     <g id="line2d_15">
      <path d="M 58.501563 316.368322 
L 896.411562 316.368322 
" clip-path="url(#p2ca59770ed)" style="fill: none; stroke: #d9cbb6; stroke-opacity: 0.45; stroke-width: 0.8; stroke-linecap: square"/>
     </g>
     <g id="line2d_16">
      <g>
       <use xlink:href="#mb304e9300e" x="58.501563" y="316.368322" style="fill: #756a5d; stroke: #756a5d; stroke-width: 0.8"/>
      </g>
     </g>
     <g id="text_9">
      <text style="font-size: 11px; font-family: 'DejaVu Serif'; text-anchor: end; fill: #756a5d" x="51.501563" y="320.547463" transform="rotate(-0 51.501563 320.547463)">−20</text>
     </g>
    </g>
    <g id="ytick_3">
     <g id="line2d_17">
      <path d="M 58.501563 244.537187 
L 896.411562 244.537187 
" clip-path="url(#p2ca59770ed)" style="fill: none; stroke: #d9cbb6; stroke-opacity: 0.45; stroke-width: 0.8; stroke-linecap: square"/>
     </g>
     <g id="line2d_18">
      <g>
       <use xlink:href="#mb304e9300e" x="58.501563" y="244.537187" style="fill: #756a5d; stroke: #756a5d; stroke-width: 0.8"/>
      </g>
     </g>
     <g id="text_10">
      <text style="font-size: 11px; font-family: 'DejaVu Serif'; text-anchor: end; fill: #756a5d" x="51.501563" y="248.716328" transform="rotate(-0 51.501563 248.716328)">0</text>
     </g>
    </g>
    <g id="ytick_4">
     <g id="line2d_19">
      <path d="M 58.501563 172.706053 
L 896.411562 172.706053 
" clip-path="url(#p2ca59770ed)" style="fill: none; stroke: #d9cbb6; stroke-opacity: 0.45; stroke-width: 0.8; stroke-linecap: square"/>
     </g>
     <g id="line2d_20">
      <g>
       <use xlink:href="#mb304e9300e" x="58.501563" y="172.706053" style="fill: #756a5d; stroke: #756a5d; stroke-width: 0.8"/>
      </g>
     </g>
     <g id="text_11">
      <text style="font-size: 11px; font-family: 'DejaVu Serif'; text-anchor: end; fill: #756a5d" x="51.501563" y="176.885193" transform="rotate(-0 51.501563 176.885193)">20</text>
     </g>
    </g>
    <g id="ytick_5">
     <g id="line2d_21">
      <path d="M 58.501563 100.874918 
L 896.411562 100.874918 
" clip-path="url(#p2ca59770ed)" style="fill: none; stroke: #d9cbb6; stroke-opacity: 0.45; stroke-width: 0.8; stroke-linecap: square"/>
     </g>
     <g id="line2d_22">
      <g>
       <use xlink:href="#mb304e9300e" x="58.501563" y="100.874918" style="fill: #756a5d; stroke: #756a5d; stroke-width: 0.8"/>
      </g>
     </g>
     <g id="text_12">
      <text style="font-size: 11px; font-family: 'DejaVu Serif'; text-anchor: end; fill: #756a5d" x="51.501563" y="105.054058" transform="rotate(-0 51.501563 105.054058)">40</text>
     </g>
    </g>
    <g id="text_13">
     <text style="font-size: 13px; font-family: 'DejaVu Serif'; text-anchor: middle; fill: #1f1b16" x="21.397969" y="244.537187" transform="rotate(-90 21.397969 244.537187)">Stellar radial velocity (m/s)</text>
    </g>
   </g>
   <g id="line2d_23">
    <path d="M 58.501563 244.537187 
L 79.478447 278.089208 
L 91.132272 296.299835 
L 100.455332 310.480593 
L 108.613009 322.526025 
L 116.770686 334.17092 
L 123.762981 343.791363 
L 130.755276 353.044237 
L 137.747571 361.899361 
L 143.574483 368.954726 
L 149.401396 375.699912 
L 155.228308 382.121506 
L 161.05522 388.207382 
L 166.882133 393.946702 
L 172.709045 399.32992 
L 178.535957 404.348769 
L 183.197487 408.096754 
L 187.859017 411.604023 
L 192.520547 414.868059 
L 197.182077 417.886833 
L 201.843607 420.658787 
L 206.505137 423.182825 
L 211.166667 425.458294 
L 215.828197 427.484968 
L 220.489727 429.263037 
L 225.151257 430.793082 
L 229.812786 432.076062 
L 234.474316 433.113296 
L 239.135846 433.906443 
L 243.797376 434.457485 
L 248.458906 434.768707 
L 253.120436 434.842681 
L 257.781966 434.682248 
L 262.443496 434.290498 
L 267.105026 433.670755 
L 271.766556 432.82656 
L 276.428085 431.761654 
L 281.089615 430.479961 
L 285.751145 428.985576 
L 290.412675 427.282746 
L 295.074205 425.375859 
L 299.735735 423.269432 
L 305.562647 420.362857 
L 311.38956 417.161003 
L 317.216472 413.673348 
L 323.043384 409.909554 
L 328.870297 405.879435 
L 334.697209 401.592931 
L 340.524122 397.060086 
L 347.516416 391.309759 
L 354.508711 385.236885 
L 361.501006 378.859148 
L 368.493301 372.194278 
L 376.650978 364.079361 
L 384.808656 355.625922 
L 392.966333 346.86204 
L 402.289393 336.501923 
L 411.612453 325.814428 
L 422.100895 313.451118 
L 433.75472 299.36058 
L 447.739309 282.069309 
L 465.220047 260.065677 
L 510.669963 202.649892 
L 524.654553 185.452029 
L 536.308378 171.465543 
L 546.79682 159.2164 
L 556.11988 148.646816 
L 565.442939 138.420169 
L 573.600617 129.785902 
L 581.758294 121.4741 
L 589.915971 113.51288 
L 596.908266 106.989358 
L 603.900561 100.761838 
L 610.892856 94.848031 
L 617.885151 89.265586 
L 623.712063 84.879336 
L 629.538976 80.745463 
L 635.365888 76.873954 
L 641.1928 73.274675 
L 647.019713 69.957353 
L 652.846625 66.931541 
L 658.673537 64.206594 
L 663.335067 62.249395 
L 667.996597 60.495134 
L 672.658127 58.948234 
L 677.319657 57.612978 
L 681.981187 56.4935 
L 686.642717 55.593769 
L 691.304247 54.917574 
L 695.965777 54.468505 
L 700.627307 54.249943 
L 705.288836 54.265039 
L 709.950366 54.516697 
L 714.611896 55.007558 
L 719.273426 55.739981 
L 723.934956 56.716025 
L 728.596486 57.937431 
L 733.258016 59.405606 
L 737.919546 61.121599 
L 742.581076 63.086089 
L 747.242606 65.299363 
L 751.904136 67.761303 
L 756.565665 70.471363 
L 761.227195 73.42856 
L 765.888725 76.631452 
L 770.550255 80.07813 
L 775.211785 83.766198 
L 779.873315 87.69277 
L 785.700227 92.931162 
L 791.52714 98.529115 
L 797.354052 104.477597 
L 803.180964 110.766287 
L 809.007877 117.383574 
L 814.834789 124.316558 
L 820.661702 131.551066 
L 827.653996 140.608686 
L 834.646291 150.049267 
L 841.638586 159.841437 
L 849.796263 171.664998 
L 857.953941 183.864208 
L 867.277001 198.188419 
L 878.930825 216.527388 
L 896.411562 244.537187 
L 896.411562 244.537187 
" clip-path="url(#p2ca59770ed)" style="fill: none; stroke: #a3583c; stroke-width: 2.6; stroke-linecap: square"/>
   </g>
   <g id="line2d_24">
    <path d="M 58.501563 244.537187 
L 896.411562 244.537187 
" clip-path="url(#p2ca59770ed)" style="fill: none; stroke-dasharray: 5.365,2.32; stroke-dashoffset: 0; stroke: #9b9184; stroke-opacity: 0.65; stroke-width: 1.45"/>
   </g>
   <g id="patch_3">
    <path d="M 58.501563 453.877187 
L 58.501563 35.197187 
" style="fill: none; stroke: #b9a98f; stroke-width: 0.8; stroke-linejoin: miter; stroke-linecap: square"/>
   </g>
   <g id="patch_4">
    <path d="M 896.411562 453.877187 
L 896.411562 35.197187 
" style="fill: none; stroke: #b9a98f; stroke-width: 0.8; stroke-linejoin: miter; stroke-linecap: square"/>
   </g>
   <g id="patch_5">
    <path d="M 58.501563 453.877187 
L 896.411562 453.877187 
" style="fill: none; stroke: #b9a98f; stroke-width: 0.8; stroke-linejoin: miter; stroke-linecap: square"/>
   </g>
   <g id="patch_6">
    <path d="M 58.501563 35.197187 
L 896.411562 35.197187 
" style="fill: none; stroke: #b9a98f; stroke-width: 0.8; stroke-linejoin: miter; stroke-linecap: square"/>
   </g>
   <g id="text_14">
    <g id="patch_7">
     <path d="M 71.070213 72.760563 
L 331.671463 72.760563 
Q 334.751463 72.760563 334.751463 69.680563 
L 334.751463 56.131188 
Q 334.751463 53.051188 331.671463 53.051188 
L 71.070213 53.051188 
Q 67.990213 53.051188 67.990213 56.131188 
L 67.990213 69.680563 
Q 67.990213 72.760563 71.070213 72.760563 
z
" style="fill: #fffaf0; opacity: 0.88"/>
    </g>
    <text style="font-size: 14px; font-family: 'DejaVu Serif'; text-anchor: start; fill: #756a5d" x="71.070213" y="66.769" transform="rotate(-0 71.070213 66.769)">K ≈ 53 m s^-1 · P ≈ 137 d · e = 0.06</text>
   </g>
   <g id="text_15">
    <text style="font-size: 10.5px; font-family: 'DejaVu Serif'; text-anchor: end; fill: #756a5d" x="888.032462" y="443.170619" transform="rotate(-0 888.032462 443.170619)">single-planet Keplerian model</text>
   </g>
   <g id="text_16">
    <text style="font-weight: 700; font-size: 18px; font-family: 'DejaVu Serif'; text-anchor: start; fill: #1f1b16" x="58.501563" y="25.197187" transform="rotate(-0 58.501563 25.197187)">Keplerian RV model — xi Aql b</text>
   </g>
  </g>
 </g>
 <defs>
  <clipPath id="p2ca59770ed">
   <rect x="58.501563" y="35.197187" width="837.91" height="418.68"/>
  </clipPath>
 </defs>
</svg>
