<?xml version="1.0" encoding="utf-8" standalone="no"?>
<!DOCTYPE svg PUBLIC "-//W3C//DTD SVG 1.1//EN"
  "http://www.w3.org/Graphics/SVG/1.1/DTD/svg11.dtd">
<svg xmlns:xlink="http://www.w3.org/1999/xlink" width="916.58875pt" height="499.624687pt" viewBox="0 0 916.58875 499.624687" xmlns="http://www.w3.org/2000/svg" version="1.1">
 <metadata>
  <rdf:RDF xmlns:dc="http://purl.org/dc/elements/1.1/" xmlns:cc="http://creativecommons.org/ns#" xmlns:rdf="http://www.w3.org/1999/02/22-rdf-syntax-ns#">
   <cc:Work>
    <dc:type rdf:resource="http://purl.org/dc/dcmitype/StillImage"/>
    <dc:date>2026-05-11T11:57:59.796733</dc:date>
    <dc:format>image/svg+xml</dc:format>
    <dc:creator>
     <cc:Agent>
      <dc:title>Matplotlib v3.10.9, https://matplotlib.org/</dc:title>
     </cc:Agent>
    </dc:creator>
   </cc:Work>
  </rdf:RDF>
 </metadata>
 <defs>
  <style type="text/css">*{stroke-linejoin: round; stroke-linecap: butt}</style>
 </defs>
 <g id="figure_1">
  <g id="patch_1">
   <path d="M 0 499.624687 
L 916.58875 499.624687 
L 916.58875 0 
L 0 0 
z
" style="fill: #fffaf0"/>
  </g>
  <g id="axes_1">
   <g id="patch_2">
    <path d="M 87.58875 453.877187 
L 905.06875 453.877187 
L 905.06875 35.197187 
L 87.58875 35.197187 
z
" style="fill: #fffaf0"/>
   </g>
   <g id="patch_3">
    <path d="M 355.383922 453.877187 
L 637.273578 453.877187 
L 637.273578 35.197187 
L 355.383922 35.197187 
z
" clip-path="url(#p4aaa651620)" style="fill: #2f6277; opacity: 0.075; stroke: #2f6277; stroke-linejoin: miter"/>
   </g>
   <g id="matplotlib.axis_1">
    <g id="xtick_1">
     <g id="line2d_1">
      <path d="M 167.040791 453.877187 
L 167.040791 35.197187 
" clip-path="url(#p4aaa651620)" style="fill: none; stroke: #d9cbb6; stroke-opacity: 0.45; stroke-width: 0.8; stroke-linecap: square"/>
     </g>
     <g id="line2d_2">
      <defs>
       <path id="m0a12bb0d0b" d="M 0 0 
L 0 3.5 
" style="stroke: #756a5d; stroke-width: 0.8"/>
      </defs>
      <g>
       <use xlink:href="#m0a12bb0d0b" x="167.040791" y="453.877187" style="fill: #756a5d; stroke: #756a5d; stroke-width: 0.8"/>
      </g>
     </g>
     <g id="text_1">
      <text style="font-size: 11px; font-family: 'DejaVu Serif'; text-anchor: middle; fill: #756a5d" x="167.040791" y="469.235469" transform="rotate(-0 167.040791 469.235469)">−100</text>
     </g>
    </g>
    <g id="xtick_2">
     <g id="line2d_3">
      <path d="M 331.684771 453.877187 
L 331.684771 35.197187 
" clip-path="url(#p4aaa651620)" style="fill: none; stroke: #d9cbb6; stroke-opacity: 0.45; stroke-width: 0.8; stroke-linecap: square"/>
     </g>
     <g id="line2d_4">
      <g>
       <use xlink:href="#m0a12bb0d0b" x="331.684771" y="453.877187" style="fill: #756a5d; stroke: #756a5d; stroke-width: 0.8"/>
      </g>
     </g>
     <g id="text_2">
      <text style="font-size: 11px; font-family: 'DejaVu Serif'; text-anchor: middle; fill: #756a5d" x="331.684771" y="469.235469" transform="rotate(-0 331.684771 469.235469)">−50</text>
     </g>
    </g>
    <g id="xtick_3">
     <g id="line2d_5">
      <path d="M 496.32875 453.877187 
L 496.32875 35.197187 
" clip-path="url(#p4aaa651620)" style="fill: none; stroke: #d9cbb6; stroke-opacity: 0.45; stroke-width: 0.8; stroke-linecap: square"/>
     </g>
     <g id="line2d_6">
      <g>
       <use xlink:href="#m0a12bb0d0b" x="496.32875" y="453.877187" style="fill: #756a5d; stroke: #756a5d; stroke-width: 0.8"/>
      </g>
     </g>
     <g id="text_3">
      <text style="font-size: 11px; font-family: 'DejaVu Serif'; text-anchor: middle; fill: #756a5d" x="496.32875" y="469.235469" transform="rotate(-0 496.32875 469.235469)">0</text>
     </g>
    </g>
    <g id="xtick_4">
     <g id="line2d_7">
      <path d="M 660.972729 453.877187 
L 660.972729 35.197187 
" clip-path="url(#p4aaa651620)" style="fill: none; stroke: #d9cbb6; stroke-opacity: 0.45; stroke-width: 0.8; stroke-linecap: square"/>
     </g>
     <g id="line2d_8">
      <g>
       <use xlink:href="#m0a12bb0d0b" x="660.972729" y="453.877187" style="fill: #756a5d; stroke: #756a5d; stroke-width: 0.8"/>
      </g>
     </g>
     <g id="text_4">
      <text style="font-size: 11px; font-family: 'DejaVu Serif'; text-anchor: middle; fill: #756a5d" x="660.972729" y="469.235469" transform="rotate(-0 660.972729 469.235469)">50</text>
     </g>
    </g>
    <g id="xtick_5">
     <g id="line2d_9">
      <path d="M 825.616709 453.877187 
L 825.616709 35.197187 
" clip-path="url(#p4aaa651620)" style="fill: none; stroke: #d9cbb6; stroke-opacity: 0.45; stroke-width: 0.8; stroke-linecap: square"/>
     </g>
     <g id="line2d_10">
      <g>
       <use xlink:href="#m0a12bb0d0b" x="825.616709" y="453.877187" style="fill: #756a5d; stroke: #756a5d; stroke-width: 0.8"/>
      </g>
     </g>
     <g id="text_5">
      <text style="font-size: 11px; font-family: 'DejaVu Serif'; text-anchor: middle; fill: #756a5d" x="825.616709" y="469.235469" transform="rotate(-0 825.616709 469.235469)">100</text>
     </g>
    </g>
    <g id="text_6">
     <text style="font-size: 13px; font-family: 'DejaVu Serif'; text-anchor: middle; fill: #1f1b16" x="496.32875" y="485.401094" transform="rotate(-0 496.32875 485.401094)">Time from mid-transit (hours)</text>
    </g>
   </g>
   <g id="matplotlib.axis_2">
    <g id="ytick_1">
     <g id="line2d_11">
      <path d="M 87.58875 392.660576 
L 905.06875 392.660576 
" clip-path="url(#p4aaa651620)" style="fill: none; stroke: #d9cbb6; stroke-opacity: 0.45; stroke-width: 0.8; stroke-linecap: square"/>
     </g>
     <g id="line2d_12">
      <defs>
       <path id="m042ac3afae" d="M 0 0 
L -3.5 0 
" style="stroke: #756a5d; stroke-width: 0.8"/>
      </defs>
      <g>
       <use xlink:href="#m042ac3afae" x="87.58875" y="392.660576" style="fill: #756a5d; stroke: #756a5d; stroke-width: 0.8"/>
      </g>
     </g>
     <g id="text_7">
      <text style="font-size: 11px; font-family: 'DejaVu Serif'; text-anchor: end; fill: #756a5d" x="80.58875" y="396.839717" transform="rotate(-0 80.58875 396.839717)">0.999850</text>
     </g>
    </g>
    <g id="ytick_2">
     <g id="line2d_13">
      <path d="M 87.58875 306.559797 
L 905.06875 306.559797 
" clip-path="url(#p4aaa651620)" style="fill: none; stroke: #d9cbb6; stroke-opacity: 0.45; stroke-width: 0.8; stroke-linecap: square"/>
     </g>
     <g id="line2d_14">
      <g>
       <use xlink:href="#m042ac3afae" x="87.58875" y="306.559797" style="fill: #756a5d; stroke: #756a5d; stroke-width: 0.8"/>
      </g>
     </g>
     <g id="text_8">
      <text style="font-size: 11px; font-family: 'DejaVu Serif'; text-anchor: end; fill: #756a5d" x="80.58875" y="310.738938" transform="rotate(-0 80.58875 310.738938)">0.999900</text>
     </g>
    </g>
    <g id="ytick_3">
     <g id="line2d_15">
      <path d="M 87.58875 220.459019 
L 905.06875 220.459019 
" clip-path="url(#p4aaa651620)" style="fill: none; stroke: #d9cbb6; stroke-opacity: 0.45; stroke-width: 0.8; stroke-linecap: square"/>
     </g>
     <g id="line2d_16">
      <g>
       <use xlink:href="#m042ac3afae" x="87.58875" y="220.459019" style="fill: #756a5d; stroke: #756a5d; stroke-width: 0.8"/>
      </g>
     </g>
     <g id="text_9">
      <text style="font-size: 11px; font-family: 'DejaVu Serif'; text-anchor: end; fill: #756a5d" x="80.58875" y="224.638159" transform="rotate(-0 80.58875 224.638159)">0.999950</text>
     </g>
    </g>
    <g id="ytick_4">
     <g id="line2d_17">
      <path d="M 87.58875 134.35824 
L 905.06875 134.35824 
" clip-path="url(#p4aaa651620)" style="fill: none; stroke: #d9cbb6; stroke-opacity: 0.45; stroke-width: 0.8; stroke-linecap: square"/>
     </g>
     <g id="line2d_18">
      <g>
       <use xlink:href="#m042ac3afae" x="87.58875" y="134.35824" style="fill: #756a5d; stroke: #756a5d; stroke-width: 0.8"/>
      </g>
     </g>
     <g id="text_10">
      <text style="font-size: 11px; font-family: 'DejaVu Serif'; text-anchor: end; fill: #756a5d" x="80.58875" y="138.537381" transform="rotate(-0 80.58875 138.537381)">1.000000</text>
     </g>
    </g>
    <g id="ytick_5">
     <g id="line2d_19">
      <path d="M 87.58875 48.257461 
L 905.06875 48.257461 
" clip-path="url(#p4aaa651620)" style="fill: none; stroke: #d9cbb6; stroke-opacity: 0.45; stroke-width: 0.8; stroke-linecap: square"/>
     </g>
     <g id="line2d_20">
      <g>
       <use xlink:href="#m042ac3afae" x="87.58875" y="48.257461" style="fill: #756a5d; stroke: #756a5d; stroke-width: 0.8"/>
      </g>
     </g>
     <g id="text_11">
      <text style="font-size: 11px; font-family: 'DejaVu Serif'; text-anchor: end; fill: #756a5d" x="80.58875" y="52.436602" transform="rotate(-0 80.58875 52.436602)">1.000050</text>
     </g>
    </g>
    <g id="text_12">
     <text style="font-size: 13px; font-family: 'DejaVu Serif'; text-anchor: middle; fill: #1f1b16" x="21.397969" y="244.537187" transform="rotate(-90 21.397969 244.537187)">Relative flux</text>
    </g>
   </g>
   <g id="line2d_21">
    <path d="M 87.58875 134.35824 
L 354.929262 134.35824 
L 355.838583 143.616927 
L 356.747905 177.63628 
L 357.657226 231.736751 
L 358.566548 271.270341 
L 359.475869 278.831033 
L 360.38519 284.936227 
L 362.203833 294.717864 
L 364.022476 302.55864 
L 365.841119 309.175612 
L 367.659762 314.929225 
L 369.478405 320.031342 
L 371.297048 324.619161 
L 374.025013 330.736909 
L 376.752977 336.125494 
L 379.480941 340.931729 
L 382.208906 345.259333 
L 384.93687 349.184842 
L 387.664835 352.766673 
L 390.392799 356.050628 
L 394.030085 360.028303 
L 397.667371 363.609994 
L 401.304657 366.849753 
L 404.941942 369.790795 
L 408.579228 372.468297 
L 412.216514 374.911321 
L 416.763122 377.672037 
L 421.309729 380.143539 
L 425.856336 382.358237 
L 430.402944 384.343066 
L 435.858872 386.452986 
L 441.314801 388.296722 
L 446.77073 389.900983 
L 452.226659 391.287829 
L 458.591909 392.655172 
L 464.957159 393.774797 
L 471.32241 394.665272 
L 477.68766 395.340942 
L 484.05291 395.812451 
L 491.327482 396.110553 
L 498.602054 396.157408 
L 505.876625 395.95395 
L 512.241876 395.567517 
L 518.607126 394.980447 
L 524.972376 394.183561 
L 531.337627 393.164157 
L 537.702877 391.905551 
L 543.158806 390.620362 
L 548.614734 389.12731 
L 554.070663 387.406337 
L 559.526592 385.433179 
L 564.073199 383.575186 
L 568.619807 381.501342 
L 573.166414 379.187433 
L 577.713021 376.604488 
L 582.259629 373.717501 
L 585.896915 371.160547 
L 589.534201 368.355252 
L 593.171486 365.269698 
L 596.808772 361.864974 
L 600.446058 358.092867 
L 603.174023 354.98665 
L 605.901987 351.607874 
L 608.629951 347.917109 
L 611.357916 343.864815 
L 614.08588 339.387281 
L 616.813845 334.400161 
L 619.541809 328.787633 
L 621.360452 324.619161 
L 623.179095 320.031342 
L 624.997738 314.929225 
L 626.816381 309.175612 
L 628.635024 302.55864 
L 630.453667 294.717864 
L 631.362988 290.141228 
L 632.27231 284.936227 
L 633.181631 278.831033 
L 634.090952 271.270341 
L 635.000274 231.736751 
L 635.909595 177.63628 
L 636.818917 143.616927 
L 637.728238 134.35824 
L 905.06875 134.35824 
L 905.06875 134.35824 
" clip-path="url(#p4aaa651620)" style="fill: none; stroke: #2f6277; stroke-width: 2.6; stroke-linecap: square"/>
   </g>
   <g id="line2d_22">
    <path d="M 87.58875 134.35824 
L 905.06875 134.35824 
" clip-path="url(#p4aaa651620)" style="fill: none; stroke-dasharray: 5.365,2.32; stroke-dashoffset: 0; stroke: #9b9184; stroke-opacity: 0.55; stroke-width: 1.45"/>
   </g>
   <g id="patch_4">
    <path d="M 87.58875 453.877187 
L 87.58875 35.197187 
" style="fill: none; stroke: #b9a98f; stroke-width: 0.8; stroke-linejoin: miter; stroke-linecap: square"/>
   </g>
   <g id="patch_5">
    <path d="M 905.06875 453.877187 
L 905.06875 35.197187 
" style="fill: none; stroke: #b9a98f; stroke-width: 0.8; stroke-linejoin: miter; stroke-linecap: square"/>
   </g>
   <g id="patch_6">
    <path d="M 87.58875 453.877187 
L 905.06875 453.877187 
" style="fill: none; stroke: #b9a98f; stroke-width: 0.8; stroke-linejoin: miter; stroke-linecap: square"/>
   </g>
   <g id="patch_7">
    <path d="M 87.58875 35.197187 
L 905.06875 35.197187 
" style="fill: none; stroke: #b9a98f; stroke-width: 0.8; stroke-linejoin: miter; stroke-linecap: square"/>
   </g>
   <g id="text_13">
    <g id="patch_8">
     <path d="M 99.85095 72.760563 
L 463.111575 72.760563 
Q 466.191575 72.760563 466.191575 69.680563 
L 466.191575 56.131188 
Q 466.191575 53.051188 463.111575 53.051188 
L 99.85095 53.051188 
Q 96.77095 53.051188 96.77095 56.131188 
L 96.77095 69.680563 
Q 96.77095 72.760563 99.85095 72.760563 
z
" style="fill: #fffaf0; opacity: 0.88"/>
    </g>
    <text style="font-size: 14px; font-family: 'DejaVu Serif'; text-anchor: start; fill: #756a5d" x="99.85095" y="66.769" transform="rotate(-0 99.85095 66.769)">Rp/R* = 0.0113 · depth ≈ 128 ppm · T14 ≈ 85.61 h</text>
   </g>
   <g id="text_14">
    <text style="font-size: 10.5px; font-family: 'DejaVu Serif'; text-anchor: end; fill: #756a5d" x="896.89395" y="443.170619" transform="rotate(-0 896.89395 443.170619)">quadratic limb-darkened geometry</text>
   </g>
   <g id="text_15">
    <text style="font-weight: 700; font-size: 18px; font-family: 'DejaVu Serif'; text-anchor: start; fill: #1f1b16" x="87.58875" y="25.197187" transform="rotate(-0 87.58875 25.197187)">Transit light-curve model — xi Aql b</text>
   </g>
  </g>
 </g>
 <defs>
  <clipPath id="p4aaa651620">
   <rect x="87.58875" y="35.197187" width="817.48" height="418.68"/>
  </clipPath>
 </defs>
</svg>
