<?xml version="1.0" encoding="utf-8" standalone="no"?>
<!DOCTYPE svg PUBLIC "-//W3C//DTD SVG 1.1//EN"
  "http://www.w3.org/Graphics/SVG/1.1/DTD/svg11.dtd">
<svg xmlns:xlink="http://www.w3.org/1999/xlink" width="916.699531pt" height="499.624687pt" viewBox="0 0 916.699531 499.624687" xmlns="http://www.w3.org/2000/svg" version="1.1">
 <metadata>
  <rdf:RDF xmlns:dc="http://purl.org/dc/elements/1.1/" xmlns:cc="http://creativecommons.org/ns#" xmlns:rdf="http://www.w3.org/1999/02/22-rdf-syntax-ns#">
   <cc:Work>
    <dc:type rdf:resource="http://purl.org/dc/dcmitype/StillImage"/>
    <dc:date>2026-05-11T11:57:54.590646</dc:date>
    <dc:format>image/svg+xml</dc:format>
    <dc:creator>
     <cc:Agent>
      <dc:title>Matplotlib v3.10.9, https://matplotlib.org/</dc:title>
     </cc:Agent>
    </dc:creator>
   </cc:Work>
  </rdf:RDF>
 </metadata>
 <defs>
  <style type="text/css">*{stroke-linejoin: round; stroke-linecap: butt}</style>
 </defs>
 <g id="figure_1">
  <g id="patch_1">
   <path d="M 0 499.624687 
L 916.699531 499.624687 
L 916.699531 0 
L 0 0 
z
" style="fill: #fffaf0"/>
  </g>
  <g id="axes_1">
   <g id="patch_2">
    <path d="M 51.502813 453.877187 
L 896.432812 453.877187 
L 896.432812 35.197187 
L 51.502813 35.197187 
z
" style="fill: #fffaf0"/>
   </g>
   <g id="FillBetweenPolyCollection_1">
    <defs>
     <path id="m9406a8affc" d="M 51.502813 -255.0875 
L 51.502813 -255.0875 
L 52.677959 -253.421575 
L 53.853105 -251.755778 
L 55.028251 -250.090237 
L 56.203397 -248.425079 
L 57.378543 -246.760433 
L 58.553689 -245.096426 
L 59.728835 -243.433186 
L 60.903981 -241.77084 
L 62.079127 -240.109517 
L 63.254273 -238.449343 
L 64.429419 -236.790447 
L 65.604565 -235.132954 
L 66.779711 -233.476994 
L 67.954857 -231.822692 
L 69.130003 -230.170177 
L 70.305149 -228.519573 
L 71.480295 -226.871009 
L 72.655441 -225.224611 
L 73.830587 -223.580505 
L 75.005733 -221.938817 
L 76.180879 -220.299674 
L 77.356025 -218.663201 
L 78.531171 -217.029523 
L 79.706317 -215.398766 
L 80.881463 -213.771056 
L 82.056609 -212.146517 
L 83.231755 -210.525273 
L 84.406902 -208.90745 
L 85.582048 -207.293171 
L 86.757194 -205.68256 
L 87.93234 -204.07574 
L 89.107486 -202.472836 
L 90.282632 -200.87397 
L 91.457778 -199.279264 
L 92.632924 -197.688841 
L 93.80807 -196.102823 
L 94.983216 -194.521331 
L 96.158362 -192.944488 
L 97.333508 -191.372413 
L 98.508654 -189.805227 
L 99.6838 -188.243052 
L 100.858946 -186.686005 
L 102.034092 -185.134207 
L 103.209238 -183.587777 
L 104.384384 -182.046833 
L 105.55953 -180.511494 
L 106.734676 -178.981877 
L 107.909822 -177.458099 
L 109.084968 -175.940278 
L 110.260114 -174.428529 
L 111.43526 -172.922968 
L 112.610406 -171.423711 
L 113.785552 -169.930873 
L 114.960698 -168.444568 
L 116.135844 -166.964911 
L 117.310991 -165.492013 
L 118.486137 -164.025989 
L 119.661283 -162.56695 
L 120.836429 -161.115009 
L 122.011575 -159.670276 
L 123.186721 -158.232863 
L 124.361867 -156.802878 
L 125.537013 -155.380433 
L 126.712159 -153.965635 
L 127.887305 -152.558594 
L 129.062451 -151.159416 
L 130.237597 -149.768209 
L 131.412743 -148.38508 
L 132.587889 -147.010133 
L 133.763035 -145.643476 
L 134.938181 -144.285211 
L 136.113327 -142.935444 
L 137.288473 -141.594277 
L 138.463619 -140.261813 
L 139.638765 -138.938154 
L 140.813911 -137.623401 
L 141.989057 -136.317655 
L 143.164203 -135.021015 
L 144.339349 -133.733581 
L 145.514495 -132.455451 
L 146.689641 -131.186724 
L 147.864787 -129.927495 
L 149.039934 -128.677861 
L 150.21508 -127.437918 
L 151.390226 -126.207761 
L 152.565372 -124.987483 
L 153.740518 -123.777177 
L 154.915664 -122.576937 
L 156.09081 -121.386853 
L 157.265956 -120.207018 
L 158.441102 -119.03752 
L 159.616248 -117.878449 
L 160.791394 -116.729894 
L 161.96654 -115.591942 
L 163.141686 -114.46468 
L 164.316832 -113.348195 
L 165.491978 -112.242571 
L 166.667124 -111.147892 
L 167.84227 -110.064243 
L 169.017416 -108.991706 
L 170.192562 -107.930362 
L 171.367708 -106.880293 
L 172.542854 -105.841579 
L 173.718 -104.814299 
L 174.893146 -103.79853 
L 176.068292 -102.794351 
L 177.243438 -101.801839 
L 178.418584 -100.821068 
L 179.59373 -99.852113 
L 180.768876 -98.895048 
L 181.944023 -97.949947 
L 183.119169 -97.01688 
L 184.294315 -96.095919 
L 185.469461 -95.187135 
L 186.644607 -94.290595 
L 187.819753 -93.406369 
L 188.994899 -92.534523 
L 190.170045 -91.675124 
L 191.345191 -90.828238 
L 192.520337 -89.993928 
L 193.695483 -89.172258 
L 194.870629 -88.36329 
L 196.045775 -87.567086 
L 197.220921 -86.783706 
L 198.396067 -86.01321 
L 199.571213 -85.255656 
L 200.746359 -84.511102 
L 201.921505 -83.779603 
L 203.096651 -83.061216 
L 204.271797 -82.355996 
L 205.446943 -81.663994 
L 206.622089 -80.985265 
L 207.797235 -80.319858 
L 208.972381 -79.667825 
L 210.147527 -79.029216 
L 211.322673 -78.404077 
L 212.497819 -77.792457 
L 213.672965 -77.194401 
L 214.848112 -76.609956 
L 216.023258 -76.039164 
L 217.198404 -75.48207 
L 218.37355 -74.938715 
L 219.548696 -74.40914 
L 220.723842 -73.893385 
L 221.898988 -73.391489 
L 223.074134 -72.90349 
L 224.24928 -72.429424 
L 225.424426 -71.969327 
L 226.599572 -71.523234 
L 227.774718 -71.091178 
L 228.949864 -70.673192 
L 230.12501 -70.269306 
L 231.300156 -69.879552 
L 232.475302 -69.503958 
L 233.650448 -69.142553 
L 234.825594 -68.795363 
L 236.00074 -68.462414 
L 237.175886 -68.143732 
L 238.351032 -67.83934 
L 239.526178 -67.54926 
L 240.701324 -67.273514 
L 241.87647 -67.012123 
L 243.051616 -66.765106 
L 244.226762 -66.532481 
L 245.401908 -66.314266 
L 246.577055 -66.110475 
L 247.752201 -65.921125 
L 248.927347 -65.746229 
L 250.102493 -65.585799 
L 251.277639 -65.439848 
L 252.452785 -65.308386 
L 253.627931 -65.191422 
L 254.803077 -65.088965 
L 255.978223 -65.001021 
L 257.153369 -64.927597 
L 258.328515 -64.868698 
L 259.503661 -64.824327 
L 260.678807 -64.794488 
L 261.853953 -64.779182 
L 263.029099 -64.778409 
L 264.204245 -64.792169 
L 265.379391 -64.82046 
L 266.554537 -64.86328 
L 267.729683 -64.920624 
L 268.904829 -64.992487 
L 270.079975 -65.078863 
L 271.255121 -65.179746 
L 272.430267 -65.295126 
L 273.605413 -65.424994 
L 274.780559 -65.56934 
L 275.955705 -65.728152 
L 277.130851 -65.901417 
L 278.305997 -66.089121 
L 279.481144 -66.29125 
L 280.65629 -66.507787 
L 281.831436 -66.738715 
L 283.006582 -66.984016 
L 284.181728 -67.24367 
L 285.356874 -67.517657 
L 286.53202 -67.805956 
L 287.707166 -68.108544 
L 288.882312 -68.425396 
L 290.057458 -68.756489 
L 291.232604 -69.101797 
L 292.40775 -69.461292 
L 293.582896 -69.834946 
L 294.758042 -70.222731 
L 295.933188 -70.624615 
L 297.108334 -71.040569 
L 298.28348 -71.470559 
L 299.458626 -71.914552 
L 300.633772 -72.372514 
L 301.808918 -72.844408 
L 302.984064 -73.3302 
L 304.15921 -73.82985 
L 305.334356 -74.34332 
L 306.509502 -74.870571 
L 307.684648 -75.411561 
L 308.859794 -75.966249 
L 310.03494 -76.534593 
L 311.210086 -77.116547 
L 312.385233 -77.712067 
L 313.560379 -78.321108 
L 314.735525 -78.943621 
L 315.910671 -79.57956 
L 317.085817 -80.228875 
L 318.260963 -80.891516 
L 319.436109 -81.567432 
L 320.611255 -82.256571 
L 321.786401 -82.95888 
L 322.961547 -83.674304 
L 324.136693 -84.40279 
L 325.311839 -85.14428 
L 326.486985 -85.898718 
L 327.662131 -86.666046 
L 328.837277 -87.446205 
L 330.012423 -88.239135 
L 331.187569 -89.044774 
L 332.362715 -89.863062 
L 333.537861 -90.693935 
L 334.713007 -91.537329 
L 335.888153 -92.39318 
L 337.063299 -93.261422 
L 338.238445 -94.141989 
L 339.413591 -95.034812 
L 340.588737 -95.939824 
L 341.763883 -96.856956 
L 342.939029 -97.786136 
L 344.114176 -98.727293 
L 345.289322 -99.680357 
L 346.464468 -100.645252 
L 347.639614 -101.621907 
L 348.81476 -102.610245 
L 349.989906 -103.610191 
L 351.165052 -104.621669 
L 352.340198 -105.644601 
L 353.515344 -106.678909 
L 354.69049 -107.724514 
L 355.865636 -108.781336 
L 357.040782 -109.849293 
L 358.215928 -110.928306 
L 359.391074 -112.018289 
L 360.56622 -113.119162 
L 361.741366 -114.230838 
L 362.916512 -115.353234 
L 364.091658 -116.486264 
L 365.266804 -117.629841 
L 366.44195 -118.783877 
L 367.617096 -119.948285 
L 368.792242 -121.122976 
L 369.967388 -122.307859 
L 371.142534 -123.502845 
L 372.31768 -124.707842 
L 373.492826 -125.922758 
L 374.667972 -127.147501 
L 375.843118 -128.381977 
L 377.018265 -129.626091 
L 378.193411 -130.879749 
L 379.368557 -132.142856 
L 380.543703 -133.415314 
L 381.718849 -134.697028 
L 382.893995 -135.987898 
L 384.069141 -137.287827 
L 385.244287 -138.596715 
L 386.419433 -139.914463 
L 387.594579 -141.24097 
L 388.769725 -142.576136 
L 389.944871 -143.919858 
L 391.120017 -145.272033 
L 392.295163 -146.63256 
L 393.470309 -148.001333 
L 394.645455 -149.37825 
L 395.820601 -150.763205 
L 396.995747 -152.156092 
L 398.170893 -153.556805 
L 399.346039 -154.965239 
L 400.521185 -156.381284 
L 401.696331 -157.804835 
L 402.871477 -159.235781 
L 404.046623 -160.674015 
L 405.221769 -162.119426 
L 406.396915 -163.571905 
L 407.572061 -165.031342 
L 408.747207 -166.497624 
L 409.922354 -167.970641 
L 411.0975 -169.45028 
L 412.272646 -170.936428 
L 413.447792 -172.428973 
L 414.622938 -173.927802 
L 415.798084 -175.432799 
L 416.97323 -176.943851 
L 418.148376 -178.460842 
L 419.323522 -179.983657 
L 420.498668 -181.51218 
L 421.673814 -183.046296 
L 422.84896 -184.585886 
L 424.024106 -186.130835 
L 425.199252 -187.681025 
L 426.374398 -189.236337 
L 427.549544 -190.796654 
L 428.72469 -192.361856 
L 429.899836 -193.931826 
L 431.074982 -195.506443 
L 432.250128 -197.085587 
L 433.425274 -198.669139 
L 434.60042 -200.256979 
L 435.775566 -201.848985 
L 436.950712 -203.445036 
L 438.125858 -205.045012 
L 439.301004 -206.64879 
L 440.47615 -208.256249 
L 441.651297 -209.867266 
L 442.826443 -211.48172 
L 444.001589 -213.099486 
L 445.176735 -214.720443 
L 446.351881 -216.344467 
L 447.527027 -217.971435 
L 448.702173 -219.601223 
L 449.877319 -221.233707 
L 451.052465 -222.868764 
L 452.227611 -224.506268 
L 453.402757 -226.146096 
L 454.577903 -227.788122 
L 455.753049 -229.432223 
L 456.928195 -231.078273 
L 458.103341 -232.726147 
L 459.278487 -234.37572 
L 460.453633 -236.026867 
L 461.628779 -237.679461 
L 462.803925 -239.333378 
L 463.979071 -240.988493 
L 465.154217 -242.644678 
L 466.329363 -244.301809 
L 467.504509 -245.959759 
L 468.679655 -247.618402 
L 469.854801 -249.277613 
L 471.029947 -250.937266 
L 472.205093 -252.597233 
L 473.380239 -254.25739 
L 474.555386 -255.91761 
L 475.730532 -257.577767 
L 476.905678 -259.237734 
L 478.080824 -260.897387 
L 479.25597 -262.556598 
L 480.431116 -264.215241 
L 481.606262 -265.873191 
L 482.781408 -267.530322 
L 483.956554 -269.186507 
L 485.1317 -270.841622 
L 486.306846 -272.495539 
L 487.481992 -274.148133 
L 488.657138 -275.79928 
L 489.832284 -277.448853 
L 491.00743 -279.096727 
L 492.182576 -280.742777 
L 493.357722 -282.386878 
L 494.532868 -284.028904 
L 495.708014 -285.668732 
L 496.88316 -287.306236 
L 498.058306 -288.941293 
L 499.233452 -290.573777 
L 500.408598 -292.203565 
L 501.583744 -293.830533 
L 502.75889 -295.454557 
L 503.934036 -297.075514 
L 505.109182 -298.69328 
L 506.284328 -300.307734 
L 507.459475 -301.918751 
L 508.634621 -303.52621 
L 509.809767 -305.129988 
L 510.984913 -306.729964 
L 512.160059 -308.326015 
L 513.335205 -309.918021 
L 514.510351 -311.505861 
L 515.685497 -313.089413 
L 516.860643 -314.668557 
L 518.035789 -316.243174 
L 519.210935 -317.813144 
L 520.386081 -319.378346 
L 521.561227 -320.938663 
L 522.736373 -322.493975 
L 523.911519 -324.044165 
L 525.086665 -325.589114 
L 526.261811 -327.128704 
L 527.436957 -328.66282 
L 528.612103 -330.191343 
L 529.787249 -331.714158 
L 530.962395 -333.231149 
L 532.137541 -334.742201 
L 533.312687 -336.247198 
L 534.487833 -337.746027 
L 535.662979 -339.238572 
L 536.838125 -340.72472 
L 538.013271 -342.204359 
L 539.188418 -343.677376 
L 540.363564 -345.143658 
L 541.53871 -346.603095 
L 542.713856 -348.055574 
L 543.889002 -349.500985 
L 545.064148 -350.939219 
L 546.239294 -352.370165 
L 547.41444 -353.793716 
L 548.589586 -355.209761 
L 549.764732 -356.618195 
L 550.939878 -358.018908 
L 552.115024 -359.411795 
L 553.29017 -360.79675 
L 554.465316 -362.173667 
L 555.640462 -363.54244 
L 556.815608 -364.902967 
L 557.990754 -366.255142 
L 559.1659 -367.598864 
L 560.341046 -368.93403 
L 561.516192 -370.260537 
L 562.691338 -371.578285 
L 563.866484 -372.887173 
L 565.04163 -374.187102 
L 566.216776 -375.477972 
L 567.391922 -376.759686 
L 568.567068 -378.032144 
L 569.742214 -379.295251 
L 570.91736 -380.548909 
L 572.092507 -381.793023 
L 573.267653 -383.027499 
L 574.442799 -384.252242 
L 575.617945 -385.467158 
L 576.793091 -386.672155 
L 577.968237 -387.867141 
L 579.143383 -389.052024 
L 580.318529 -390.226715 
L 581.493675 -391.391123 
L 582.668821 -392.545159 
L 583.843967 -393.688736 
L 585.019113 -394.821766 
L 586.194259 -395.944162 
L 587.369405 -397.055838 
L 588.544551 -398.156711 
L 589.719697 -399.246694 
L 590.894843 -400.325707 
L 592.069989 -401.393664 
L 593.245135 -402.450486 
L 594.420281 -403.496091 
L 595.595427 -404.530399 
L 596.770573 -405.553331 
L 597.945719 -406.564809 
L 599.120865 -407.564755 
L 600.296011 -408.553093 
L 601.471157 -409.529748 
L 602.646303 -410.494643 
L 603.821449 -411.447707 
L 604.996596 -412.388864 
L 606.171742 -413.318044 
L 607.346888 -414.235176 
L 608.522034 -415.140188 
L 609.69718 -416.033011 
L 610.872326 -416.913578 
L 612.047472 -417.78182 
L 613.222618 -418.637671 
L 614.397764 -419.481065 
L 615.57291 -420.311938 
L 616.748056 -421.130226 
L 617.923202 -421.935865 
L 619.098348 -422.728795 
L 620.273494 -423.508954 
L 621.44864 -424.276282 
L 622.623786 -425.03072 
L 623.798932 -425.77221 
L 624.974078 -426.500696 
L 626.149224 -427.21612 
L 627.32437 -427.918429 
L 628.499516 -428.607568 
L 629.674662 -429.283484 
L 630.849808 -429.946125 
L 632.024954 -430.59544 
L 633.2001 -431.231379 
L 634.375246 -431.853892 
L 635.550392 -432.462933 
L 636.725539 -433.058453 
L 637.900685 -433.640407 
L 639.075831 -434.208751 
L 640.250977 -434.763439 
L 641.426123 -435.304429 
L 642.601269 -435.83168 
L 643.776415 -436.34515 
L 644.951561 -436.8448 
L 646.126707 -437.330592 
L 647.301853 -437.802486 
L 648.476999 -438.260448 
L 649.652145 -438.704441 
L 650.827291 -439.134431 
L 652.002437 -439.550385 
L 653.177583 -439.952269 
L 654.352729 -440.340054 
L 655.527875 -440.713708 
L 656.703021 -441.073203 
L 657.878167 -441.418511 
L 659.053313 -441.749604 
L 660.228459 -442.066456 
L 661.403605 -442.369044 
L 662.578751 -442.657343 
L 663.753897 -442.93133 
L 664.929043 -443.190984 
L 666.104189 -443.436285 
L 667.279335 -443.667213 
L 668.454481 -443.88375 
L 669.629628 -444.085879 
L 670.804774 -444.273583 
L 671.97992 -444.446848 
L 673.155066 -444.60566 
L 674.330212 -444.750006 
L 675.505358 -444.879874 
L 676.680504 -444.995254 
L 677.85565 -445.096137 
L 679.030796 -445.182513 
L 680.205942 -445.254376 
L 681.381088 -445.31172 
L 682.556234 -445.35454 
L 683.73138 -445.382831 
L 684.906526 -445.396591 
L 686.081672 -445.395818 
L 687.256818 -445.380512 
L 688.431964 -445.350673 
L 689.60711 -445.306302 
L 690.782256 -445.247403 
L 691.957402 -445.173979 
L 693.132548 -445.086035 
L 694.307694 -444.983578 
L 695.48284 -444.866614 
L 696.657986 -444.735152 
L 697.833132 -444.589201 
L 699.008278 -444.428771 
L 700.183424 -444.253875 
L 701.35857 -444.064525 
L 702.533717 -443.860734 
L 703.708863 -443.642519 
L 704.884009 -443.409894 
L 706.059155 -443.162877 
L 707.234301 -442.901486 
L 708.409447 -442.62574 
L 709.584593 -442.33566 
L 710.759739 -442.031268 
L 711.934885 -441.712586 
L 713.110031 -441.379637 
L 714.285177 -441.032447 
L 715.460323 -440.671042 
L 716.635469 -440.295448 
L 717.810615 -439.905694 
L 718.985761 -439.501808 
L 720.160907 -439.083822 
L 721.336053 -438.651766 
L 722.511199 -438.205673 
L 723.686345 -437.745576 
L 724.861491 -437.27151 
L 726.036637 -436.783511 
L 727.211783 -436.281615 
L 728.386929 -435.76586 
L 729.562075 -435.236285 
L 730.737221 -434.69293 
L 731.912367 -434.135836 
L 733.087513 -433.565044 
L 734.26266 -432.980599 
L 735.437806 -432.382543 
L 736.612952 -431.770923 
L 737.788098 -431.145784 
L 738.963244 -430.507175 
L 740.13839 -429.855142 
L 741.313536 -429.189735 
L 742.488682 -428.511006 
L 743.663828 -427.819004 
L 744.838974 -427.113784 
L 746.01412 -426.395397 
L 747.189266 -425.663898 
L 748.364412 -424.919344 
L 749.539558 -424.16179 
L 750.714704 -423.391294 
L 751.88985 -422.607914 
L 753.064996 -421.81171 
L 754.240142 -421.002742 
L 755.415288 -420.181072 
L 756.590434 -419.346762 
L 757.76558 -418.499876 
L 758.940726 -417.640477 
L 760.115872 -416.768631 
L 761.291018 -415.884405 
L 762.466164 -414.987865 
L 763.64131 -414.079081 
L 764.816456 -413.15812 
L 765.991602 -412.225053 
L 767.166749 -411.279952 
L 768.341895 -410.322887 
L 769.517041 -409.353932 
L 770.692187 -408.373161 
L 771.867333 -407.380649 
L 773.042479 -406.37647 
L 774.217625 -405.360701 
L 775.392771 -404.333421 
L 776.567917 -403.294707 
L 777.743063 -402.244638 
L 778.918209 -401.183294 
L 780.093355 -400.110757 
L 781.268501 -399.027108 
L 782.443647 -397.932429 
L 783.618793 -396.826805 
L 784.793939 -395.71032 
L 785.969085 -394.583058 
L 787.144231 -393.445106 
L 788.319377 -392.296551 
L 789.494523 -391.13748 
L 790.669669 -389.967982 
L 791.844815 -388.788147 
L 793.019961 -387.598063 
L 794.195107 -386.397823 
L 795.370253 -385.187517 
L 796.545399 -383.967239 
L 797.720545 -382.737082 
L 798.895691 -381.497139 
L 800.070838 -380.247505 
L 801.245984 -378.988276 
L 802.42113 -377.719549 
L 803.596276 -376.441419 
L 804.771422 -375.153985 
L 805.946568 -373.857345 
L 807.121714 -372.551599 
L 808.29686 -371.236846 
L 809.472006 -369.913187 
L 810.647152 -368.580723 
L 811.822298 -367.239556 
L 812.997444 -365.889789 
L 814.17259 -364.531524 
L 815.347736 -363.164867 
L 816.522882 -361.78992 
L 817.698028 -360.406791 
L 818.873174 -359.015584 
L 820.04832 -357.616406 
L 821.223466 -356.209365 
L 822.398612 -354.794567 
L 823.573758 -353.372122 
L 824.748904 -351.942137 
L 825.92405 -350.504724 
L 827.099196 -349.059991 
L 828.274342 -347.60805 
L 829.449488 -346.149011 
L 830.624634 -344.682987 
L 831.799781 -343.210089 
L 832.974927 -341.730432 
L 834.150073 -340.244127 
L 835.325219 -338.751289 
L 836.500365 -337.252032 
L 837.675511 -335.746471 
L 838.850657 -334.234722 
L 840.025803 -332.716901 
L 841.200949 -331.193123 
L 842.376095 -329.663506 
L 843.551241 -328.128167 
L 844.726387 -326.587223 
L 845.901533 -325.040793 
L 847.076679 -323.488995 
L 848.251825 -321.931948 
L 849.426971 -320.369773 
L 850.602117 -318.802587 
L 851.777263 -317.230512 
L 852.952409 -315.653669 
L 854.127555 -314.072177 
L 855.302701 -312.486159 
L 856.477847 -310.895736 
L 857.652993 -309.30103 
L 858.828139 -307.702164 
L 860.003285 -306.09926 
L 861.178431 -304.49244 
L 862.353577 -302.881829 
L 863.528723 -301.26755 
L 864.70387 -299.649727 
L 865.879016 -298.028483 
L 867.054162 -296.403944 
L 868.229308 -294.776234 
L 869.404454 -293.145477 
L 870.5796 -291.511799 
L 871.754746 -289.875326 
L 872.929892 -288.236183 
L 874.105038 -286.594495 
L 875.280184 -284.950389 
L 876.45533 -283.303991 
L 877.630476 -281.655427 
L 878.805622 -280.004823 
L 879.980768 -278.352308 
L 881.155914 -276.698006 
L 882.33106 -275.042046 
L 883.506206 -273.384553 
L 884.681352 -271.725657 
L 885.856498 -270.065483 
L 887.031644 -268.40416 
L 888.20679 -266.741814 
L 889.381936 -265.078574 
L 890.557082 -263.414567 
L 891.732228 -261.749921 
L 892.907374 -260.084763 
L 894.08252 -258.419222 
L 895.257666 -256.753425 
L 896.432812 -255.0875 
L 896.432812 -255.0875 
L 896.432812 -255.0875 
L 895.257666 -255.0875 
L 894.08252 -255.0875 
L 892.907374 -255.0875 
L 891.732228 -255.0875 
L 890.557082 -255.0875 
L 889.381936 -255.0875 
L 888.20679 -255.0875 
L 887.031644 -255.0875 
L 885.856498 -255.0875 
L 884.681352 -255.0875 
L 883.506206 -255.0875 
L 882.33106 -255.0875 
L 881.155914 -255.0875 
L 879.980768 -255.0875 
L 878.805622 -255.0875 
L 877.630476 -255.0875 
L 876.45533 -255.0875 
L 875.280184 -255.0875 
L 874.105038 -255.0875 
L 872.929892 -255.0875 
L 871.754746 -255.0875 
L 870.5796 -255.0875 
L 869.404454 -255.0875 
L 868.229308 -255.0875 
L 867.054162 -255.0875 
L 865.879016 -255.0875 
L 864.70387 -255.0875 
L 863.528723 -255.0875 
L 862.353577 -255.0875 
L 861.178431 -255.0875 
L 860.003285 -255.0875 
L 858.828139 -255.0875 
L 857.652993 -255.0875 
L 856.477847 -255.0875 
L 855.302701 -255.0875 
L 854.127555 -255.0875 
L 852.952409 -255.0875 
L 851.777263 -255.0875 
L 850.602117 -255.0875 
L 849.426971 -255.0875 
L 848.251825 -255.0875 
L 847.076679 -255.0875 
L 845.901533 -255.0875 
L 844.726387 -255.0875 
L 843.551241 -255.0875 
L 842.376095 -255.0875 
L 841.200949 -255.0875 
L 840.025803 -255.0875 
L 838.850657 -255.0875 
L 837.675511 -255.0875 
L 836.500365 -255.0875 
L 835.325219 -255.0875 
L 834.150073 -255.0875 
L 832.974927 -255.0875 
L 831.799781 -255.0875 
L 830.624634 -255.0875 
L 829.449488 -255.0875 
L 828.274342 -255.0875 
L 827.099196 -255.0875 
L 825.92405 -255.0875 
L 824.748904 -255.0875 
L 823.573758 -255.0875 
L 822.398612 -255.0875 
L 821.223466 -255.0875 
L 820.04832 -255.0875 
L 818.873174 -255.0875 
L 817.698028 -255.0875 
L 816.522882 -255.0875 
L 815.347736 -255.0875 
L 814.17259 -255.0875 
L 812.997444 -255.0875 
L 811.822298 -255.0875 
L 810.647152 -255.0875 
L 809.472006 -255.0875 
L 808.29686 -255.0875 
L 807.121714 -255.0875 
L 805.946568 -255.0875 
L 804.771422 -255.0875 
L 803.596276 -255.0875 
L 802.42113 -255.0875 
L 801.245984 -255.0875 
L 800.070838 -255.0875 
L 798.895691 -255.0875 
L 797.720545 -255.0875 
L 796.545399 -255.0875 
L 795.370253 -255.0875 
L 794.195107 -255.0875 
L 793.019961 -255.0875 
L 791.844815 -255.0875 
L 790.669669 -255.0875 
L 789.494523 -255.0875 
L 788.319377 -255.0875 
L 787.144231 -255.0875 
L 785.969085 -255.0875 
L 784.793939 -255.0875 
L 783.618793 -255.0875 
L 782.443647 -255.0875 
L 781.268501 -255.0875 
L 780.093355 -255.0875 
L 778.918209 -255.0875 
L 777.743063 -255.0875 
L 776.567917 -255.0875 
L 775.392771 -255.0875 
L 774.217625 -255.0875 
L 773.042479 -255.0875 
L 771.867333 -255.0875 
L 770.692187 -255.0875 
L 769.517041 -255.0875 
L 768.341895 -255.0875 
L 767.166749 -255.0875 
L 765.991602 -255.0875 
L 764.816456 -255.0875 
L 763.64131 -255.0875 
L 762.466164 -255.0875 
L 761.291018 -255.0875 
L 760.115872 -255.0875 
L 758.940726 -255.0875 
L 757.76558 -255.0875 
L 756.590434 -255.0875 
L 755.415288 -255.0875 
L 754.240142 -255.0875 
L 753.064996 -255.0875 
L 751.88985 -255.0875 
L 750.714704 -255.0875 
L 749.539558 -255.0875 
L 748.364412 -255.0875 
L 747.189266 -255.0875 
L 746.01412 -255.0875 
L 744.838974 -255.0875 
L 743.663828 -255.0875 
L 742.488682 -255.0875 
L 741.313536 -255.0875 
L 740.13839 -255.0875 
L 738.963244 -255.0875 
L 737.788098 -255.0875 
L 736.612952 -255.0875 
L 735.437806 -255.0875 
L 734.26266 -255.0875 
L 733.087513 -255.0875 
L 731.912367 -255.0875 
L 730.737221 -255.0875 
L 729.562075 -255.0875 
L 728.386929 -255.0875 
L 727.211783 -255.0875 
L 726.036637 -255.0875 
L 724.861491 -255.0875 
L 723.686345 -255.0875 
L 722.511199 -255.0875 
L 721.336053 -255.0875 
L 720.160907 -255.0875 
L 718.985761 -255.0875 
L 717.810615 -255.0875 
L 716.635469 -255.0875 
L 715.460323 -255.0875 
L 714.285177 -255.0875 
L 713.110031 -255.0875 
L 711.934885 -255.0875 
L 710.759739 -255.0875 
L 709.584593 -255.0875 
L 708.409447 -255.0875 
L 707.234301 -255.0875 
L 706.059155 -255.0875 
L 704.884009 -255.0875 
L 703.708863 -255.0875 
L 702.533717 -255.0875 
L 701.35857 -255.0875 
L 700.183424 -255.0875 
L 699.008278 -255.0875 
L 697.833132 -255.0875 
L 696.657986 -255.0875 
L 695.48284 -255.0875 
L 694.307694 -255.0875 
L 693.132548 -255.0875 
L 691.957402 -255.0875 
L 690.782256 -255.0875 
L 689.60711 -255.0875 
L 688.431964 -255.0875 
L 687.256818 -255.0875 
L 686.081672 -255.0875 
L 684.906526 -255.0875 
L 683.73138 -255.0875 
L 682.556234 -255.0875 
L 681.381088 -255.0875 
L 680.205942 -255.0875 
L 679.030796 -255.0875 
L 677.85565 -255.0875 
L 676.680504 -255.0875 
L 675.505358 -255.0875 
L 674.330212 -255.0875 
L 673.155066 -255.0875 
L 671.97992 -255.0875 
L 670.804774 -255.0875 
L 669.629628 -255.0875 
L 668.454481 -255.0875 
L 667.279335 -255.0875 
L 666.104189 -255.0875 
L 664.929043 -255.0875 
L 663.753897 -255.0875 
L 662.578751 -255.0875 
L 661.403605 -255.0875 
L 660.228459 -255.0875 
L 659.053313 -255.0875 
L 657.878167 -255.0875 
L 656.703021 -255.0875 
L 655.527875 -255.0875 
L 654.352729 -255.0875 
L 653.177583 -255.0875 
L 652.002437 -255.0875 
L 650.827291 -255.0875 
L 649.652145 -255.0875 
L 648.476999 -255.0875 
L 647.301853 -255.0875 
L 646.126707 -255.0875 
L 644.951561 -255.0875 
L 643.776415 -255.0875 
L 642.601269 -255.0875 
L 641.426123 -255.0875 
L 640.250977 -255.0875 
L 639.075831 -255.0875 
L 637.900685 -255.0875 
L 636.725539 -255.0875 
L 635.550392 -255.0875 
L 634.375246 -255.0875 
L 633.2001 -255.0875 
L 632.024954 -255.0875 
L 630.849808 -255.0875 
L 629.674662 -255.0875 
L 628.499516 -255.0875 
L 627.32437 -255.0875 
L 626.149224 -255.0875 
L 624.974078 -255.0875 
L 623.798932 -255.0875 
L 622.623786 -255.0875 
L 621.44864 -255.0875 
L 620.273494 -255.0875 
L 619.098348 -255.0875 
L 617.923202 -255.0875 
L 616.748056 -255.0875 
L 615.57291 -255.0875 
L 614.397764 -255.0875 
L 613.222618 -255.0875 
L 612.047472 -255.0875 
L 610.872326 -255.0875 
L 609.69718 -255.0875 
L 608.522034 -255.0875 
L 607.346888 -255.0875 
L 606.171742 -255.0875 
L 604.996596 -255.0875 
L 603.821449 -255.0875 
L 602.646303 -255.0875 
L 601.471157 -255.0875 
L 600.296011 -255.0875 
L 599.120865 -255.0875 
L 597.945719 -255.0875 
L 596.770573 -255.0875 
L 595.595427 -255.0875 
L 594.420281 -255.0875 
L 593.245135 -255.0875 
L 592.069989 -255.0875 
L 590.894843 -255.0875 
L 589.719697 -255.0875 
L 588.544551 -255.0875 
L 587.369405 -255.0875 
L 586.194259 -255.0875 
L 585.019113 -255.0875 
L 583.843967 -255.0875 
L 582.668821 -255.0875 
L 581.493675 -255.0875 
L 580.318529 -255.0875 
L 579.143383 -255.0875 
L 577.968237 -255.0875 
L 576.793091 -255.0875 
L 575.617945 -255.0875 
L 574.442799 -255.0875 
L 573.267653 -255.0875 
L 572.092507 -255.0875 
L 570.91736 -255.0875 
L 569.742214 -255.0875 
L 568.567068 -255.0875 
L 567.391922 -255.0875 
L 566.216776 -255.0875 
L 565.04163 -255.0875 
L 563.866484 -255.0875 
L 562.691338 -255.0875 
L 561.516192 -255.0875 
L 560.341046 -255.0875 
L 559.1659 -255.0875 
L 557.990754 -255.0875 
L 556.815608 -255.0875 
L 555.640462 -255.0875 
L 554.465316 -255.0875 
L 553.29017 -255.0875 
L 552.115024 -255.0875 
L 550.939878 -255.0875 
L 549.764732 -255.0875 
L 548.589586 -255.0875 
L 547.41444 -255.0875 
L 546.239294 -255.0875 
L 545.064148 -255.0875 
L 543.889002 -255.0875 
L 542.713856 -255.0875 
L 541.53871 -255.0875 
L 540.363564 -255.0875 
L 539.188418 -255.0875 
L 538.013271 -255.0875 
L 536.838125 -255.0875 
L 535.662979 -255.0875 
L 534.487833 -255.0875 
L 533.312687 -255.0875 
L 532.137541 -255.0875 
L 530.962395 -255.0875 
L 529.787249 -255.0875 
L 528.612103 -255.0875 
L 527.436957 -255.0875 
L 526.261811 -255.0875 
L 525.086665 -255.0875 
L 523.911519 -255.0875 
L 522.736373 -255.0875 
L 521.561227 -255.0875 
L 520.386081 -255.0875 
L 519.210935 -255.0875 
L 518.035789 -255.0875 
L 516.860643 -255.0875 
L 515.685497 -255.0875 
L 514.510351 -255.0875 
L 513.335205 -255.0875 
L 512.160059 -255.0875 
L 510.984913 -255.0875 
L 509.809767 -255.0875 
L 508.634621 -255.0875 
L 507.459475 -255.0875 
L 506.284328 -255.0875 
L 505.109182 -255.0875 
L 503.934036 -255.0875 
L 502.75889 -255.0875 
L 501.583744 -255.0875 
L 500.408598 -255.0875 
L 499.233452 -255.0875 
L 498.058306 -255.0875 
L 496.88316 -255.0875 
L 495.708014 -255.0875 
L 494.532868 -255.0875 
L 493.357722 -255.0875 
L 492.182576 -255.0875 
L 491.00743 -255.0875 
L 489.832284 -255.0875 
L 488.657138 -255.0875 
L 487.481992 -255.0875 
L 486.306846 -255.0875 
L 485.1317 -255.0875 
L 483.956554 -255.0875 
L 482.781408 -255.0875 
L 481.606262 -255.0875 
L 480.431116 -255.0875 
L 479.25597 -255.0875 
L 478.080824 -255.0875 
L 476.905678 -255.0875 
L 475.730532 -255.0875 
L 474.555386 -255.0875 
L 473.380239 -255.0875 
L 472.205093 -255.0875 
L 471.029947 -255.0875 
L 469.854801 -255.0875 
L 468.679655 -255.0875 
L 467.504509 -255.0875 
L 466.329363 -255.0875 
L 465.154217 -255.0875 
L 463.979071 -255.0875 
L 462.803925 -255.0875 
L 461.628779 -255.0875 
L 460.453633 -255.0875 
L 459.278487 -255.0875 
L 458.103341 -255.0875 
L 456.928195 -255.0875 
L 455.753049 -255.0875 
L 454.577903 -255.0875 
L 453.402757 -255.0875 
L 452.227611 -255.0875 
L 451.052465 -255.0875 
L 449.877319 -255.0875 
L 448.702173 -255.0875 
L 447.527027 -255.0875 
L 446.351881 -255.0875 
L 445.176735 -255.0875 
L 444.001589 -255.0875 
L 442.826443 -255.0875 
L 441.651297 -255.0875 
L 440.47615 -255.0875 
L 439.301004 -255.0875 
L 438.125858 -255.0875 
L 436.950712 -255.0875 
L 435.775566 -255.0875 
L 434.60042 -255.0875 
L 433.425274 -255.0875 
L 432.250128 -255.0875 
L 431.074982 -255.0875 
L 429.899836 -255.0875 
L 428.72469 -255.0875 
L 427.549544 -255.0875 
L 426.374398 -255.0875 
L 425.199252 -255.0875 
L 424.024106 -255.0875 
L 422.84896 -255.0875 
L 421.673814 -255.0875 
L 420.498668 -255.0875 
L 419.323522 -255.0875 
L 418.148376 -255.0875 
L 416.97323 -255.0875 
L 415.798084 -255.0875 
L 414.622938 -255.0875 
L 413.447792 -255.0875 
L 412.272646 -255.0875 
L 411.0975 -255.0875 
L 409.922354 -255.0875 
L 408.747207 -255.0875 
L 407.572061 -255.0875 
L 406.396915 -255.0875 
L 405.221769 -255.0875 
L 404.046623 -255.0875 
L 402.871477 -255.0875 
L 401.696331 -255.0875 
L 400.521185 -255.0875 
L 399.346039 -255.0875 
L 398.170893 -255.0875 
L 396.995747 -255.0875 
L 395.820601 -255.0875 
L 394.645455 -255.0875 
L 393.470309 -255.0875 
L 392.295163 -255.0875 
L 391.120017 -255.0875 
L 389.944871 -255.0875 
L 388.769725 -255.0875 
L 387.594579 -255.0875 
L 386.419433 -255.0875 
L 385.244287 -255.0875 
L 384.069141 -255.0875 
L 382.893995 -255.0875 
L 381.718849 -255.0875 
L 380.543703 -255.0875 
L 379.368557 -255.0875 
L 378.193411 -255.0875 
L 377.018265 -255.0875 
L 375.843118 -255.0875 
L 374.667972 -255.0875 
L 373.492826 -255.0875 
L 372.31768 -255.0875 
L 371.142534 -255.0875 
L 369.967388 -255.0875 
L 368.792242 -255.0875 
L 367.617096 -255.0875 
L 366.44195 -255.0875 
L 365.266804 -255.0875 
L 364.091658 -255.0875 
L 362.916512 -255.0875 
L 361.741366 -255.0875 
L 360.56622 -255.0875 
L 359.391074 -255.0875 
L 358.215928 -255.0875 
L 357.040782 -255.0875 
L 355.865636 -255.0875 
L 354.69049 -255.0875 
L 353.515344 -255.0875 
L 352.340198 -255.0875 
L 351.165052 -255.0875 
L 349.989906 -255.0875 
L 348.81476 -255.0875 
L 347.639614 -255.0875 
L 346.464468 -255.0875 
L 345.289322 -255.0875 
L 344.114176 -255.0875 
L 342.939029 -255.0875 
L 341.763883 -255.0875 
L 340.588737 -255.0875 
L 339.413591 -255.0875 
L 338.238445 -255.0875 
L 337.063299 -255.0875 
L 335.888153 -255.0875 
L 334.713007 -255.0875 
L 333.537861 -255.0875 
L 332.362715 -255.0875 
L 331.187569 -255.0875 
L 330.012423 -255.0875 
L 328.837277 -255.0875 
L 327.662131 -255.0875 
L 326.486985 -255.0875 
L 325.311839 -255.0875 
L 324.136693 -255.0875 
L 322.961547 -255.0875 
L 321.786401 -255.0875 
L 320.611255 -255.0875 
L 319.436109 -255.0875 
L 318.260963 -255.0875 
L 317.085817 -255.0875 
L 315.910671 -255.0875 
L 314.735525 -255.0875 
L 313.560379 -255.0875 
L 312.385233 -255.0875 
L 311.210086 -255.0875 
L 310.03494 -255.0875 
L 308.859794 -255.0875 
L 307.684648 -255.0875 
L 306.509502 -255.0875 
L 305.334356 -255.0875 
L 304.15921 -255.0875 
L 302.984064 -255.0875 
L 301.808918 -255.0875 
L 300.633772 -255.0875 
L 299.458626 -255.0875 
L 298.28348 -255.0875 
L 297.108334 -255.0875 
L 295.933188 -255.0875 
L 294.758042 -255.0875 
L 293.582896 -255.0875 
L 292.40775 -255.0875 
L 291.232604 -255.0875 
L 290.057458 -255.0875 
L 288.882312 -255.0875 
L 287.707166 -255.0875 
L 286.53202 -255.0875 
L 285.356874 -255.0875 
L 284.181728 -255.0875 
L 283.006582 -255.0875 
L 281.831436 -255.0875 
L 280.65629 -255.0875 
L 279.481144 -255.0875 
L 278.305997 -255.0875 
L 277.130851 -255.0875 
L 275.955705 -255.0875 
L 274.780559 -255.0875 
L 273.605413 -255.0875 
L 272.430267 -255.0875 
L 271.255121 -255.0875 
L 270.079975 -255.0875 
L 268.904829 -255.0875 
L 267.729683 -255.0875 
L 266.554537 -255.0875 
L 265.379391 -255.0875 
L 264.204245 -255.0875 
L 263.029099 -255.0875 
L 261.853953 -255.0875 
L 260.678807 -255.0875 
L 259.503661 -255.0875 
L 258.328515 -255.0875 
L 257.153369 -255.0875 
L 255.978223 -255.0875 
L 254.803077 -255.0875 
L 253.627931 -255.0875 
L 252.452785 -255.0875 
L 251.277639 -255.0875 
L 250.102493 -255.0875 
L 248.927347 -255.0875 
L 247.752201 -255.0875 
L 246.577055 -255.0875 
L 245.401908 -255.0875 
L 244.226762 -255.0875 
L 243.051616 -255.0875 
L 241.87647 -255.0875 
L 240.701324 -255.0875 
L 239.526178 -255.0875 
L 238.351032 -255.0875 
L 237.175886 -255.0875 
L 236.00074 -255.0875 
L 234.825594 -255.0875 
L 233.650448 -255.0875 
L 232.475302 -255.0875 
L 231.300156 -255.0875 
L 230.12501 -255.0875 
L 228.949864 -255.0875 
L 227.774718 -255.0875 
L 226.599572 -255.0875 
L 225.424426 -255.0875 
L 224.24928 -255.0875 
L 223.074134 -255.0875 
L 221.898988 -255.0875 
L 220.723842 -255.0875 
L 219.548696 -255.0875 
L 218.37355 -255.0875 
L 217.198404 -255.0875 
L 216.023258 -255.0875 
L 214.848112 -255.0875 
L 213.672965 -255.0875 
L 212.497819 -255.0875 
L 211.322673 -255.0875 
L 210.147527 -255.0875 
L 208.972381 -255.0875 
L 207.797235 -255.0875 
L 206.622089 -255.0875 
L 205.446943 -255.0875 
L 204.271797 -255.0875 
L 203.096651 -255.0875 
L 201.921505 -255.0875 
L 200.746359 -255.0875 
L 199.571213 -255.0875 
L 198.396067 -255.0875 
L 197.220921 -255.0875 
L 196.045775 -255.0875 
L 194.870629 -255.0875 
L 193.695483 -255.0875 
L 192.520337 -255.0875 
L 191.345191 -255.0875 
L 190.170045 -255.0875 
L 188.994899 -255.0875 
L 187.819753 -255.0875 
L 186.644607 -255.0875 
L 185.469461 -255.0875 
L 184.294315 -255.0875 
L 183.119169 -255.0875 
L 181.944023 -255.0875 
L 180.768876 -255.0875 
L 179.59373 -255.0875 
L 178.418584 -255.0875 
L 177.243438 -255.0875 
L 176.068292 -255.0875 
L 174.893146 -255.0875 
L 173.718 -255.0875 
L 172.542854 -255.0875 
L 171.367708 -255.0875 
L 170.192562 -255.0875 
L 169.017416 -255.0875 
L 167.84227 -255.0875 
L 166.667124 -255.0875 
L 165.491978 -255.0875 
L 164.316832 -255.0875 
L 163.141686 -255.0875 
L 161.96654 -255.0875 
L 160.791394 -255.0875 
L 159.616248 -255.0875 
L 158.441102 -255.0875 
L 157.265956 -255.0875 
L 156.09081 -255.0875 
L 154.915664 -255.0875 
L 153.740518 -255.0875 
L 152.565372 -255.0875 
L 151.390226 -255.0875 
L 150.21508 -255.0875 
L 149.039934 -255.0875 
L 147.864787 -255.0875 
L 146.689641 -255.0875 
L 145.514495 -255.0875 
L 144.339349 -255.0875 
L 143.164203 -255.0875 
L 141.989057 -255.0875 
L 140.813911 -255.0875 
L 139.638765 -255.0875 
L 138.463619 -255.0875 
L 137.288473 -255.0875 
L 136.113327 -255.0875 
L 134.938181 -255.0875 
L 133.763035 -255.0875 
L 132.587889 -255.0875 
L 131.412743 -255.0875 
L 130.237597 -255.0875 
L 129.062451 -255.0875 
L 127.887305 -255.0875 
L 126.712159 -255.0875 
L 125.537013 -255.0875 
L 124.361867 -255.0875 
L 123.186721 -255.0875 
L 122.011575 -255.0875 
L 120.836429 -255.0875 
L 119.661283 -255.0875 
L 118.486137 -255.0875 
L 117.310991 -255.0875 
L 116.135844 -255.0875 
L 114.960698 -255.0875 
L 113.785552 -255.0875 
L 112.610406 -255.0875 
L 111.43526 -255.0875 
L 110.260114 -255.0875 
L 109.084968 -255.0875 
L 107.909822 -255.0875 
L 106.734676 -255.0875 
L 105.55953 -255.0875 
L 104.384384 -255.0875 
L 103.209238 -255.0875 
L 102.034092 -255.0875 
L 100.858946 -255.0875 
L 99.6838 -255.0875 
L 98.508654 -255.0875 
L 97.333508 -255.0875 
L 96.158362 -255.0875 
L 94.983216 -255.0875 
L 93.80807 -255.0875 
L 92.632924 -255.0875 
L 91.457778 -255.0875 
L 90.282632 -255.0875 
L 89.107486 -255.0875 
L 87.93234 -255.0875 
L 86.757194 -255.0875 
L 85.582048 -255.0875 
L 84.406902 -255.0875 
L 83.231755 -255.0875 
L 82.056609 -255.0875 
L 80.881463 -255.0875 
L 79.706317 -255.0875 
L 78.531171 -255.0875 
L 77.356025 -255.0875 
L 76.180879 -255.0875 
L 75.005733 -255.0875 
L 73.830587 -255.0875 
L 72.655441 -255.0875 
L 71.480295 -255.0875 
L 70.305149 -255.0875 
L 69.130003 -255.0875 
L 67.954857 -255.0875 
L 66.779711 -255.0875 
L 65.604565 -255.0875 
L 64.429419 -255.0875 
L 63.254273 -255.0875 
L 62.079127 -255.0875 
L 60.903981 -255.0875 
L 59.728835 -255.0875 
L 58.553689 -255.0875 
L 57.378543 -255.0875 
L 56.203397 -255.0875 
L 55.028251 -255.0875 
L 53.853105 -255.0875 
L 52.677959 -255.0875 
L 51.502813 -255.0875 
z
" style="stroke: #a3583c; stroke-opacity: 0.08"/>
    </defs>
    <g clip-path="url(#p5ba5f88007)">
     <use xlink:href="#m9406a8affc" x="0" y="499.624687" style="fill: #a3583c; fill-opacity: 0.08; stroke: #a3583c; stroke-opacity: 0.08"/>
    </g>
   </g>
   <g id="matplotlib.axis_1">
    <g id="xtick_1">
     <g id="line2d_1">
      <path d="M 51.502813 453.877187 
L 51.502813 35.197187 
" clip-path="url(#p5ba5f88007)" style="fill: none; stroke: #d9cbb6; stroke-opacity: 0.45; stroke-width: 0.8; stroke-linecap: square"/>
     </g>
     <g id="line2d_2">
      <defs>
       <path id="m8e6329f1c3" d="M 0 0 
L 0 3.5 
" style="stroke: #756a5d; stroke-width: 0.8"/>
      </defs>
      <g>
       <use xlink:href="#m8e6329f1c3" x="51.502813" y="453.877187" style="fill: #756a5d; stroke: #756a5d; stroke-width: 0.8"/>
      </g>
     </g>
     <g id="text_1">
      <text style="font-size: 11px; font-family: 'DejaVu Serif'; text-anchor: middle; fill: #756a5d" x="51.502813" y="469.235469" transform="rotate(-0 51.502813 469.235469)">0.0</text>
     </g>
    </g>
    <g id="xtick_2">
     <g id="line2d_3">
      <path d="M 220.488812 453.877187 
L 220.488812 35.197187 
" clip-path="url(#p5ba5f88007)" style="fill: none; stroke: #d9cbb6; stroke-opacity: 0.45; stroke-width: 0.8; stroke-linecap: square"/>
     </g>
     <g id="line2d_4">
      <g>
       <use xlink:href="#m8e6329f1c3" x="220.488812" y="453.877187" style="fill: #756a5d; stroke: #756a5d; stroke-width: 0.8"/>
      </g>
     </g>
     <g id="text_2">
      <text style="font-size: 11px; font-family: 'DejaVu Serif'; text-anchor: middle; fill: #756a5d" x="220.488812" y="469.235469" transform="rotate(-0 220.488812 469.235469)">0.2</text>
     </g>
    </g>
    <g id="xtick_3">
     <g id="line2d_5">
      <path d="M 389.474812 453.877187 
L 389.474812 35.197187 
" clip-path="url(#p5ba5f88007)" style="fill: none; stroke: #d9cbb6; stroke-opacity: 0.45; stroke-width: 0.8; stroke-linecap: square"/>
     </g>
     <g id="line2d_6">
      <g>
       <use xlink:href="#m8e6329f1c3" x="389.474812" y="453.877187" style="fill: #756a5d; stroke: #756a5d; stroke-width: 0.8"/>
      </g>
     </g>
     <g id="text_3">
      <text style="font-size: 11px; font-family: 'DejaVu Serif'; text-anchor: middle; fill: #756a5d" x="389.474812" y="469.235469" transform="rotate(-0 389.474812 469.235469)">0.4</text>
     </g>
    </g>
    <g id="xtick_4">
     <g id="line2d_7">
      <path d="M 558.460812 453.877187 
L 558.460812 35.197187 
" clip-path="url(#p5ba5f88007)" style="fill: none; stroke: #d9cbb6; stroke-opacity: 0.45; stroke-width: 0.8; stroke-linecap: square"/>
     </g>
     <g id="line2d_8">
      <g>
       <use xlink:href="#m8e6329f1c3" x="558.460812" y="453.877187" style="fill: #756a5d; stroke: #756a5d; stroke-width: 0.8"/>
      </g>
     </g>
     <g id="text_4">
      <text style="font-size: 11px; font-family: 'DejaVu Serif'; text-anchor: middle; fill: #756a5d" x="558.460812" y="469.235469" transform="rotate(-0 558.460812 469.235469)">0.6</text>
     </g>
    </g>
    <g id="xtick_5">
     <g id="line2d_9">
      <path d="M 727.446812 453.877187 
L 727.446812 35.197187 
" clip-path="url(#p5ba5f88007)" style="fill: none; stroke: #d9cbb6; stroke-opacity: 0.45; stroke-width: 0.8; stroke-linecap: square"/>
     </g>
     <g id="line2d_10">
      <g>
       <use xlink:href="#m8e6329f1c3" x="727.446812" y="453.877187" style="fill: #756a5d; stroke: #756a5d; stroke-width: 0.8"/>
      </g>
     </g>
     <g id="text_5">
      <text style="font-size: 11px; font-family: 'DejaVu Serif'; text-anchor: middle; fill: #756a5d" x="727.446812" y="469.235469" transform="rotate(-0 727.446812 469.235469)">0.8</text>
     </g>
    </g>
    <g id="xtick_6">
     <g id="line2d_11">
      <path d="M 896.432812 453.877187 
L 896.432812 35.197187 
" clip-path="url(#p5ba5f88007)" style="fill: none; stroke: #d9cbb6; stroke-opacity: 0.45; stroke-width: 0.8; stroke-linecap: square"/>
     </g>
     <g id="line2d_12">
      <g>
       <use xlink:href="#m8e6329f1c3" x="896.432812" y="453.877187" style="fill: #756a5d; stroke: #756a5d; stroke-width: 0.8"/>
      </g>
     </g>
     <g id="text_6">
      <text style="font-size: 11px; font-family: 'DejaVu Serif'; text-anchor: middle; fill: #756a5d" x="896.432812" y="469.235469" transform="rotate(-0 896.432812 469.235469)">1.0</text>
     </g>
    </g>
    <g id="text_7">
     <text style="font-size: 13px; font-family: 'DejaVu Serif'; text-anchor: middle; fill: #1f1b16" x="473.967812" y="485.401094" transform="rotate(-0 473.967812 485.401094)">Orbital phase</text>
    </g>
   </g>
   <g id="matplotlib.axis_2">
    <g id="ytick_1">
     <g id="line2d_13">
      <path d="M 51.502813 413.041132 
L 896.432812 413.041132 
" clip-path="url(#p5ba5f88007)" style="fill: none; stroke: #d9cbb6; stroke-opacity: 0.45; stroke-width: 0.8; stroke-linecap: square"/>
     </g>
     <g id="line2d_14">
      <defs>
       <path id="me5dde22087" d="M 0 0 
L -3.5 0 
" style="stroke: #756a5d; stroke-width: 0.8"/>
      </defs>
      <g>
       <use xlink:href="#me5dde22087" x="51.502813" y="413.041132" style="fill: #756a5d; stroke: #756a5d; stroke-width: 0.8"/>
      </g>
     </g>
     <g id="text_8">
      <text style="font-size: 11px; font-family: 'DejaVu Serif'; text-anchor: end; fill: #756a5d" x="44.502813" y="417.220273" transform="rotate(-0 44.502813 417.220273)">−3</text>
     </g>
    </g>
    <g id="ytick_2">
     <g id="line2d_15">
      <path d="M 51.502813 356.87315 
L 896.432812 356.87315 
" clip-path="url(#p5ba5f88007)" style="fill: none; stroke: #d9cbb6; stroke-opacity: 0.45; stroke-width: 0.8; stroke-linecap: square"/>
     </g>
     <g id="line2d_16">
      <g>
       <use xlink:href="#me5dde22087" x="51.502813" y="356.87315" style="fill: #756a5d; stroke: #756a5d; stroke-width: 0.8"/>
      </g>
     </g>
     <g id="text_9">
      <text style="font-size: 11px; font-family: 'DejaVu Serif'; text-anchor: end; fill: #756a5d" x="44.502813" y="361.052291" transform="rotate(-0 44.502813 361.052291)">−2</text>
     </g>
    </g>
    <g id="ytick_3">
     <g id="line2d_17">
      <path d="M 51.502813 300.705169 
L 896.432812 300.705169 
" clip-path="url(#p5ba5f88007)" style="fill: none; stroke: #d9cbb6; stroke-opacity: 0.45; stroke-width: 0.8; stroke-linecap: square"/>
     </g>
     <g id="line2d_18">
      <g>
       <use xlink:href="#me5dde22087" x="51.502813" y="300.705169" style="fill: #756a5d; stroke: #756a5d; stroke-width: 0.8"/>
      </g>
     </g>
     <g id="text_10">
      <text style="font-size: 11px; font-family: 'DejaVu Serif'; text-anchor: end; fill: #756a5d" x="44.502813" y="304.88431" transform="rotate(-0 44.502813 304.88431)">−1</text>
     </g>
    </g>
    <g id="ytick_4">
     <g id="line2d_19">
      <path d="M 51.502813 244.537187 
L 896.432812 244.537187 
" clip-path="url(#p5ba5f88007)" style="fill: none; stroke: #d9cbb6; stroke-opacity: 0.45; stroke-width: 0.8; stroke-linecap: square"/>
     </g>
     <g id="line2d_20">
      <g>
       <use xlink:href="#me5dde22087" x="51.502813" y="244.537187" style="fill: #756a5d; stroke: #756a5d; stroke-width: 0.8"/>
      </g>
     </g>
     <g id="text_11">
      <text style="font-size: 11px; font-family: 'DejaVu Serif'; text-anchor: end; fill: #756a5d" x="44.502813" y="248.716328" transform="rotate(-0 44.502813 248.716328)">0</text>
     </g>
    </g>
    <g id="ytick_5">
     <g id="line2d_21">
      <path d="M 51.502813 188.369206 
L 896.432812 188.369206 
" clip-path="url(#p5ba5f88007)" style="fill: none; stroke: #d9cbb6; stroke-opacity: 0.45; stroke-width: 0.8; stroke-linecap: square"/>
     </g>
     <g id="line2d_22">
      <g>
       <use xlink:href="#me5dde22087" x="51.502813" y="188.369206" style="fill: #756a5d; stroke: #756a5d; stroke-width: 0.8"/>
      </g>
     </g>
     <g id="text_12">
      <text style="font-size: 11px; font-family: 'DejaVu Serif'; text-anchor: end; fill: #756a5d" x="44.502813" y="192.548347" transform="rotate(-0 44.502813 192.548347)">1</text>
     </g>
    </g>
    <g id="ytick_6">
     <g id="line2d_23">
      <path d="M 51.502813 132.201225 
L 896.432812 132.201225 
" clip-path="url(#p5ba5f88007)" style="fill: none; stroke: #d9cbb6; stroke-opacity: 0.45; stroke-width: 0.8; stroke-linecap: square"/>
     </g>
     <g id="line2d_24">
      <g>
       <use xlink:href="#me5dde22087" x="51.502813" y="132.201225" style="fill: #756a5d; stroke: #756a5d; stroke-width: 0.8"/>
      </g>
     </g>
     <g id="text_13">
      <text style="font-size: 11px; font-family: 'DejaVu Serif'; text-anchor: end; fill: #756a5d" x="44.502813" y="136.380365" transform="rotate(-0 44.502813 136.380365)">2</text>
     </g>
    </g>
    <g id="ytick_7">
     <g id="line2d_25">
      <path d="M 51.502813 76.033243 
L 896.432812 76.033243 
" clip-path="url(#p5ba5f88007)" style="fill: none; stroke: #d9cbb6; stroke-opacity: 0.45; stroke-width: 0.8; stroke-linecap: square"/>
     </g>
     <g id="line2d_26">
      <g>
       <use xlink:href="#me5dde22087" x="51.502813" y="76.033243" style="fill: #756a5d; stroke: #756a5d; stroke-width: 0.8"/>
      </g>
     </g>
     <g id="text_14">
      <text style="font-size: 11px; font-family: 'DejaVu Serif'; text-anchor: end; fill: #756a5d" x="44.502813" y="80.212384" transform="rotate(-0 44.502813 80.212384)">3</text>
     </g>
    </g>
    <g id="text_15">
     <text style="font-size: 13px; font-family: 'DejaVu Serif'; text-anchor: middle; fill: #1f1b16" x="21.397969" y="244.537187" transform="rotate(-90 21.397969 244.537187)">Stellar radial velocity (m/s)</text>
    </g>
   </g>
   <g id="line2d_27">
    <path d="M 51.502813 244.537187 
L 75.005733 277.68587 
L 87.93234 295.548947 
L 98.508654 309.81946 
L 107.909822 322.166588 
L 117.310991 334.132674 
L 125.537013 344.244255 
L 133.763035 353.981212 
L 140.813911 362.001287 
L 147.864787 369.697193 
L 154.915664 377.047751 
L 161.96654 384.032745 
L 167.84227 389.560444 
L 173.718 394.810389 
L 179.59373 399.772575 
L 185.469461 404.437553 
L 191.345191 408.79645 
L 197.220921 412.840981 
L 203.096651 416.563471 
L 207.797235 419.304829 
L 212.497819 421.832231 
L 217.198404 424.142617 
L 221.898988 426.233198 
L 226.599572 428.101454 
L 231.300156 429.745136 
L 236.00074 431.162273 
L 240.701324 432.351173 
L 245.401908 433.310422 
L 250.102493 434.038888 
L 254.803077 434.535723 
L 259.503661 434.80036 
L 264.204245 434.832518 
L 268.904829 434.632201 
L 273.605413 434.199693 
L 278.305997 433.535566 
L 283.006582 432.640672 
L 287.707166 431.516144 
L 292.40775 430.163396 
L 297.108334 428.584119 
L 301.808918 426.780279 
L 306.509502 424.754117 
L 311.210086 422.508141 
L 315.910671 420.045128 
L 320.611255 417.368117 
L 325.311839 414.480407 
L 331.187569 410.579913 
L 337.063299 406.363265 
L 342.939029 401.838552 
L 348.81476 397.014443 
L 354.69049 391.900173 
L 360.56622 386.505526 
L 366.44195 380.84081 
L 373.492826 373.701929 
L 380.543703 366.209373 
L 387.594579 358.383717 
L 394.645455 350.246437 
L 402.871477 340.388906 
L 411.0975 330.174408 
L 420.498668 318.112507 
L 429.899836 305.692862 
L 440.47615 291.368439 
L 453.402757 273.478592 
L 472.205093 247.027454 
L 498.058306 210.683395 
L 510.984913 192.894724 
L 521.561227 178.686025 
L 530.962395 166.393538 
L 540.363564 154.481029 
L 548.589586 144.414926 
L 556.815608 134.721721 
L 563.866484 126.737514 
L 570.91736 119.075779 
L 577.968237 111.757547 
L 585.019113 104.802922 
L 590.894843 99.298981 
L 596.770573 94.071356 
L 602.646303 89.130044 
L 608.522034 84.4845 
L 614.397764 80.143622 
L 620.273494 76.115734 
L 626.149224 72.408567 
L 630.849808 69.678562 
L 635.550392 67.161755 
L 640.250977 64.861249 
L 644.951561 62.779887 
L 649.652145 60.920246 
L 654.352729 59.284633 
L 659.053313 57.875084 
L 663.753897 56.693358 
L 668.454481 55.740938 
L 673.155066 55.019028 
L 677.85565 54.528551 
L 682.556234 54.270148 
L 687.256818 54.244176 
L 691.957402 54.450709 
L 696.657986 54.889536 
L 701.35857 55.560163 
L 706.059155 56.461811 
L 710.759739 57.59342 
L 715.460323 58.953646 
L 720.160907 60.540865 
L 724.861491 62.353177 
L 729.562075 64.388403 
L 734.26266 66.644089 
L 738.963244 69.117513 
L 743.663828 71.805683 
L 748.364412 74.705343 
L 754.240142 78.621945 
L 760.115872 82.856056 
L 765.991602 87.399634 
L 771.867333 92.244039 
L 777.743063 97.38005 
L 783.618793 102.797882 
L 789.494523 108.487207 
L 796.545399 115.657448 
L 803.596276 123.183269 
L 810.647152 131.043964 
L 817.698028 139.217896 
L 825.92405 149.119964 
L 834.150073 159.380561 
L 843.551241 171.496521 
L 852.952409 183.971019 
L 863.528723 198.357137 
L 876.45533 216.320697 
L 896.432812 244.537187 
L 896.432812 244.537187 
" clip-path="url(#p5ba5f88007)" style="fill: none; stroke: #a3583c; stroke-width: 2.6; stroke-linecap: square"/>
   </g>
   <g id="line2d_28">
    <path d="M 51.502813 244.537187 
L 896.432812 244.537187 
" clip-path="url(#p5ba5f88007)" style="fill: none; stroke-dasharray: 5.365,2.32; stroke-dashoffset: 0; stroke: #9b9184; stroke-opacity: 0.65; stroke-width: 1.45"/>
   </g>
   <g id="patch_3">
    <path d="M 51.502813 453.877187 
L 51.502813 35.197188 
" style="fill: none; stroke: #b9a98f; stroke-width: 0.8; stroke-linejoin: miter; stroke-linecap: square"/>
   </g>
   <g id="patch_4">
    <path d="M 896.432812 453.877187 
L 896.432812 35.197188 
" style="fill: none; stroke: #b9a98f; stroke-width: 0.8; stroke-linejoin: miter; stroke-linecap: square"/>
   </g>
   <g id="patch_5">
    <path d="M 51.502813 453.877187 
L 896.432812 453.877187 
" style="fill: none; stroke: #b9a98f; stroke-width: 0.8; stroke-linejoin: miter; stroke-linecap: square"/>
   </g>
   <g id="patch_6">
    <path d="M 51.502813 35.197187 
L 896.432812 35.197187 
" style="fill: none; stroke: #b9a98f; stroke-width: 0.8; stroke-linejoin: miter; stroke-linecap: square"/>
   </g>
   <g id="text_16">
    <g id="patch_7">
     <path d="M 64.176763 72.760563 
L 351.491763 72.760563 
Q 354.571763 72.760563 354.571763 69.680563 
L 354.571763 56.131188 
Q 354.571763 53.051188 351.491763 53.051188 
L 64.176763 53.051188 
Q 61.096763 53.051188 61.096763 56.131188 
L 61.096763 69.680563 
Q 61.096763 72.760563 64.176763 72.760563 
z
" style="fill: #fffaf0; opacity: 0.88"/>
    </g>
    <text style="font-size: 14px; font-family: 'DejaVu Serif'; text-anchor: start; fill: #756a5d" x="64.176763" y="66.769" transform="rotate(-0 64.176763 66.769)">K ≈ 3.39 m s^-1 · P ≈ 1.467 d · e = 0.00</text>
   </g>
   <g id="text_17">
    <text style="font-size: 10.5px; font-family: 'DejaVu Serif'; text-anchor: end; fill: #756a5d" x="887.983512" y="443.170619" transform="rotate(-0 887.983512 443.170619)">single-planet Keplerian model</text>
   </g>
   <g id="text_18">
    <text style="font-weight: 700; font-size: 18px; font-family: 'DejaVu Serif'; text-anchor: start; fill: #1f1b16" x="51.502813" y="25.197187" transform="rotate(-0 51.502813 25.197187)">Keplerian RV model — GJ 486 b</text>
   </g>
  </g>
 </g>
 <defs>
  <clipPath id="p5ba5f88007">
   <rect x="51.502813" y="35.197187" width="844.93" height="418.68"/>
  </clipPath>
 </defs>
</svg>
